<svg xmlns="http://www.w3.org/2000/svg" xmlns:svg="http://www.w3.org/2000/svg" id="svg1407" width="1087.346" height="1222.296" version="1.1" viewBox="0 0 287.694 323.399"><defs id="defs1401"><rect id="rect1072" width="329.592" height="167.433" x="920.315" y="60.417"/><rect id="rect1339" width="329.592" height="167.433" x="920.315" y="60.417"/><rect id="rect1092" width="329.592" height="167.433" x="920.315" y="60.417"/><rect id="rect1342" width="329.592" height="167.433" x="920.315" y="60.417"/><rect id="rect1098" width="329.592" height="167.433" x="920.315" y="60.417"/><rect id="rect1345" width="329.592" height="167.433" x="920.315" y="60.417"/><rect id="rect1104" width="329.592" height="167.433" x="920.315" y="60.417"/><rect id="rect1348" width="329.592" height="167.433" x="920.315" y="60.417"/><rect id="rect1110" width="488.189" height="356.611" x="920.315" y="60.417"/><rect id="rect1351" width="488.189" height="356.611" x="920.315" y="60.417"/></defs><metadata id="metadata1404"/><rect style="fill:#fff;fill-opacity:1;stroke-width:.303742;stop-color:#000" id="rect2409" width="287.694" height="323.399" x="0" y="0"/><g id="g1272"><rect style="opacity:.220212;fill:#000;fill-opacity:1;fill-rule:evenodd;stroke:none;stroke-width:.265338;stroke-opacity:1" id="rect969" width="33.602" height="46.567" x="16.536" y="138.416" rx="2.646" ry="2.661"/><circle style="opacity:.220212;fill:#000;fill-opacity:1;fill-rule:evenodd;stroke:none;stroke-width:.264584;stroke-opacity:1" id="circle965" cx="33.337" cy="161.7" r="23.283"/><rect style="opacity:.220212;fill:#000;fill-opacity:1;fill-rule:evenodd;stroke:none;stroke-width:.265338;stroke-opacity:1" id="rect967" width="33.602" height="46.567" x="144.899" y="-56.621" rx="2.646" ry="2.661" transform="rotate(90)"/><rect style="opacity:.220212;fill:#000;fill-opacity:1;fill-rule:evenodd;stroke:none;stroke-width:.264583;stroke-opacity:1" id="rect971" width="40.481" height="40.481" x="13.097" y="141.459" rx="2.646" ry="2.646"/><circle style="opacity:.220212;fill:#000;fill-opacity:1;fill-rule:evenodd;stroke:none;stroke-width:.264583;stroke-opacity:1" id="circle973" cx="33.337" cy="161.7" r="9.525"/></g><text id="text1070" transform="matrix(0.26458333,0,0,0.26458333,-92.981369,4.270308)" xml:space="preserve" style="font-style:normal;font-variant:normal;font-weight:400;font-stretch:normal;font-size:40px;line-height:1.25;font-family:Arial;-inkscape-font-specification:Arial;letter-spacing:0;word-spacing:0;white-space:pre;shape-inside:url(#rect1072)"><tspan x="920.314" y="96.446"><tspan style="font-style:normal;font-variant:normal;font-weight:400;font-stretch:normal;font-family:Arial;-inkscape-font-specification:Arial">Circle: </tspan></tspan><tspan x="920.314" y="146.446"><tspan style="font-style:normal;font-variant:normal;font-weight:400;font-stretch:normal;font-family:Arial;-inkscape-font-specification:Arial">176px x 176px</tspan></tspan></text><text id="text1090" transform="matrix(0.26458333,0,0,0.26458333,-92.929692,54.68836)" xml:space="preserve" style="font-style:normal;font-variant:normal;font-weight:400;font-stretch:normal;font-size:40px;line-height:1.25;font-family:Arial;-inkscape-font-specification:Arial;letter-spacing:0;word-spacing:0;white-space:pre;shape-inside:url(#rect1092)"><tspan x="920.314" y="96.446"><tspan style="font-style:normal;font-variant:normal;font-weight:400;font-stretch:normal;font-family:Arial;-inkscape-font-specification:Arial">Square: </tspan></tspan><tspan x="920.314" y="146.446"><tspan style="font-style:normal;font-variant:normal;font-weight:400;font-stretch:normal;font-family:Arial;-inkscape-font-specification:Arial">153px x 153px</tspan></tspan></text><text id="text1096" transform="matrix(0.26458333,0,0,0.26458333,-93.301763,98.62412)" xml:space="preserve" style="font-style:normal;font-variant:normal;font-weight:400;font-stretch:normal;font-size:40px;line-height:1.25;font-family:Arial;-inkscape-font-specification:Arial;letter-spacing:0;word-spacing:0;white-space:pre;shape-inside:url(#rect1098)"><tspan x="920.314" y="96.446"><tspan style="font-style:normal;font-variant:normal;font-weight:400;font-stretch:normal;font-family:Arial;-inkscape-font-specification:Arial">Horizontal Slab: </tspan></tspan><tspan x="920.314" y="146.446"><tspan style="font-style:normal;font-variant:normal;font-weight:400;font-stretch:normal;font-family:Arial;-inkscape-font-specification:Arial">176px x 127px</tspan></tspan></text><text id="text1102" transform="matrix(0.26458333,0,0,0.26458333,-92.500778,145.73488)" xml:space="preserve" style="font-style:normal;font-variant:normal;font-weight:400;font-stretch:normal;font-size:40px;line-height:1.25;font-family:Arial;-inkscape-font-specification:Arial;letter-spacing:0;word-spacing:0;white-space:pre;shape-inside:url(#rect1104)"><tspan x="920.314" y="96.446"><tspan style="font-style:normal;font-variant:normal;font-weight:400;font-stretch:normal;font-family:Arial;-inkscape-font-specification:Arial">Vertical Slab: </tspan></tspan><tspan x="920.314" y="146.446"><tspan style="font-style:normal;font-variant:normal;font-weight:400;font-stretch:normal;font-family:Arial;-inkscape-font-specification:Arial">127px x 176px</tspan></tspan></text><text id="text1108" transform="matrix(0.26458333,0,0,0.26458333,-92.640304,209.98825)" xml:space="preserve" style="font-style:normal;font-variant:normal;font-weight:400;font-stretch:normal;font-size:40px;line-height:1.25;font-family:Arial;-inkscape-font-specification:Arial;letter-spacing:0;word-spacing:0;white-space:pre;shape-inside:url(#rect1110)"><tspan x="920.314" y="96.446"><tspan style="font-style:normal;font-variant:normal;font-weight:400;font-stretch:normal;font-family:Arial;-inkscape-font-specification:Arial">Free Form: </tspan></tspan><tspan x="920.314" y="146.446"><tspan style="font-style:normal;font-variant:normal;font-weight:400;font-stretch:normal;font-family:Arial;-inkscape-font-specification:Arial">Sizes may vary. Make sure </tspan></tspan><tspan x="920.314" y="196.446"><tspan style="font-style:normal;font-variant:normal;font-weight:400;font-stretch:normal;font-family:Arial;-inkscape-font-specification:Arial">that the size of the icon </tspan></tspan><tspan x="920.314" y="246.446"><tspan style="font-style:normal;font-variant:normal;font-weight:400;font-stretch:normal;font-family:Arial;-inkscape-font-specification:Arial">does not exceed the </tspan></tspan><tspan x="920.314" y="296.446"><tspan style="font-style:normal;font-variant:normal;font-weight:400;font-stretch:normal;font-family:Arial;-inkscape-font-specification:Arial">dimensions of the shapes</tspan></tspan></text><g id="g1276"><circle style="opacity:.5;fill:#000;fill-opacity:1;fill-rule:evenodd;stroke:none;stroke-width:.264584;stroke-opacity:1" id="circle977" cx="109.571" cy="33.602" r="23.283"/><circle style="opacity:.5;fill:#000;fill-opacity:1;fill-rule:evenodd;stroke:none;stroke-width:.264583;stroke-opacity:1" id="circle983" cx="109.306" cy="33.337" r="9.525"/></g><g id="g1280"><rect style="opacity:.5;fill:#000;fill-opacity:1;fill-rule:evenodd;stroke:none;stroke-width:.264583;stroke-opacity:1" id="rect981" width="40.481" height="40.481" x="89.33" y="63.78" rx="2.646" ry="2.646"/><circle style="opacity:.5;fill:#000;fill-opacity:1;fill-rule:evenodd;stroke:none;stroke-width:.264583;stroke-opacity:1" id="circle961" cx="109.571" cy="84.02" r="9.525"/></g><g id="g1284"><rect style="opacity:.5;fill:#000;fill-opacity:1;fill-rule:evenodd;stroke:none;stroke-width:.265338;stroke-opacity:1" id="rect979" width="33.602" height="46.567" x="111.155" y="-132.854" rx="2.646" ry="2.661" transform="rotate(90)"/><circle style="opacity:.5;fill:#000;fill-opacity:1;fill-rule:evenodd;stroke:none;stroke-width:.264583;stroke-opacity:1" id="circle963" cx="109.571" cy="127.956" r="9.525"/></g><g id="g1288"><rect style="opacity:.5;fill:#000;fill-opacity:1;fill-rule:evenodd;stroke:none;stroke-width:.265338;stroke-opacity:1" id="rect975" width="33.602" height="46.567" x="92.77" y="151.783" rx="2.646" ry="2.661"/><circle style="opacity:.5;fill:#000;fill-opacity:1;fill-rule:evenodd;stroke:none;stroke-width:.264583;stroke-opacity:1" id="circle966" cx="109.571" cy="175.067" r="9.525"/></g><g id="g1311"><path style="opacity:.5;fill:#000;stroke:none;stroke-width:.193788px;stroke-linecap:butt;stroke-linejoin:miter;stroke-opacity:1" id="path1064" d="m 96.67532,218.74093 c 8.90566,-2.45837 7.71621,-20.23164 13.71547,-10.45047 5.99925,9.78118 21.08056,-0.32472 13.48222,10.27566 -7.59833,10.60038 2.67288,18.50977 -9.14194,15.11075 -11.81481,-3.39902 -12.60407,7.546 -14.44433,-1.66669 -1.84025,-9.21268 -12.51707,-10.81088 -3.61142,-13.26925 z"/><path style="opacity:.5;fill:#000;fill-opacity:1;stroke:none;stroke-width:.459748;stroke-opacity:1;stop-color:#000" id="path985" d="m 107.71705,243.5052 2e-5,6.57032 a 0.68429701,0.68429701 0 0 1 -0.68432,0.68432 h -2.04485 a 0.39508633,0.39508633 0 0 0 -0.34218,0.59264 l 4.58252,7.93737 a 0.39508165,0.39508165 0 0 0 0.68427,-7e-5 l 4.58288,-7.93742 a 0.39507001,0.39507001 0 0 0 -0.34208,-0.59264 h -2.04535 a 0.68429803,0.68429803 0 0 1 -0.68427,-0.68429 v -6.5703 a 0.68429746,0.68429746 0 0 0 -0.6843,-0.6843 l -2.338,-2e-5 a 0.68429708,0.68429708 0 0 0 -0.68432,0.68429 z"/><g id="g1298"><path style="opacity:.5;fill:#000;stroke:none;stroke-width:.275193px;stroke-linecap:butt;stroke-linejoin:miter;stroke-opacity:1" id="path1150" d="m 91.24748,287.17776 c 12.64667,-3.49108 10.95758,-28.7304 19.47696,-14.84041 8.51938,13.88997 29.93594,-0.46114 19.14574,14.59216 -10.79018,15.0533 3.79568,26.28523 -12.98222,21.45838 -16.7779,-4.82687 -17.89871,10.71585 -20.512,-2.36681 -2.6133,-13.08269 -17.77517,-15.35227 -5.12848,-18.84332 z"/><path style="opacity:.5;fill:#000;fill-opacity:1;stroke:none;stroke-width:.192701;stroke-opacity:1;stop-color:#000" id="path1152" d="m 78.45146,288.76231 2.66008,0.71276 a 0.28681981,0.28681981 0 0 1 0.20282,0.35129 l -0.22183,0.82788 a 0.16559854,0.16559854 0 0 0 0.20281,0.20283 l 3.71068,-0.99423 a 0.16559658,0.16559658 0 0 0 0.0742,-0.27704 l -2.7164,-2.71651 a 0.1655917,0.1655917 0 0 0 -0.27705,0.0742 l -0.22188,0.82809 a 0.28682024,0.28682024 0 0 1 -0.35128,0.2028 l -2.66008,-0.71276 a 0.28682,0.28682 0 0 0 -0.35128,0.20281 l -0.25364,0.94657 a 0.28681984,0.28681984 0 0 0 0.20281,0.35129 z"/><path style="opacity:.5;fill:#000;fill-opacity:1;stroke:none;stroke-width:.192701;stroke-opacity:1;stop-color:#000" id="path1159" d="m 140.28763,277.77538 -2.66007,0.71276 a 0.28681981,0.28681981 0 0 1 -0.35129,-0.2028 l -0.22183,-0.82789 a 0.16559854,0.16559854 0 0 0 -0.27706,-0.0742 l -2.71642,2.71636 a 0.16559658,0.16559658 0 0 0 0.0742,0.27704 l 3.71072,0.99436 a 0.1655917,0.1655917 0 0 0 0.20282,-0.20278 l -0.22189,-0.82809 a 0.28682024,0.28682024 0 0 1 0.20282,-0.35129 l 2.66007,-0.71276 a 0.28682,0.28682 0 0 0 0.20282,-0.35128 l -0.25363,-0.94657 a 0.28681984,0.28681984 0 0 0 -0.35129,-0.20281 z"/><rect style="opacity:.220212;fill:#000;fill-opacity:1;fill-rule:evenodd;stroke:none;stroke-width:.265338;stroke-opacity:1" id="rect968" width="33.602" height="46.567" x="92.759" y="266.514" rx="2.646" ry="2.661"/><circle style="opacity:.220212;fill:#000;fill-opacity:1;fill-rule:evenodd;stroke:none;stroke-width:.264584;stroke-opacity:1" id="circle970" cx="109.56" cy="289.797" r="23.283"/><rect style="opacity:.220212;fill:#000;fill-opacity:1;fill-rule:evenodd;stroke:none;stroke-width:.265338;stroke-opacity:1" id="rect972" width="33.602" height="46.567" x="272.996" y="-132.843" rx="2.646" ry="2.661" transform="rotate(90)"/><rect style="opacity:.220212;fill:#000;fill-opacity:1;fill-rule:evenodd;stroke:none;stroke-width:.264583;stroke-opacity:1" id="rect974" width="40.481" height="40.481" x="89.319" y="269.556" rx="2.646" ry="2.646"/><circle style="opacity:.220212;fill:#000;fill-opacity:1;fill-rule:evenodd;stroke:none;stroke-width:.264583;stroke-opacity:1" id="circle976" cx="109.56" cy="289.797" r="9.525"/></g></g></svg>