<svg xmlns="http://www.w3.org/2000/svg" xmlns:svg="http://www.w3.org/2000/svg" id="svg2" width="192" height="192" version="1.1" viewBox="0 0 192 192"><metadata id="metadata7"/><g id="layer1" transform="translate(0,-860.36216)"><path style="fill:#f8c18c;fill-opacity:1;stroke-width:27.0818;stroke-linecap:round;stroke-linejoin:round;stop-color:#000" id="path961" d="m 169.34402,894.1382 c -19.54225,-19.54224 -51.00915,-19.54224 -70.551407,0 l -2.886828,2.88683 -2.699756,-2.69977 c -19.542247,-19.54225 -51.007102,-19.54017 -70.549349,0.002 -19.5422467,19.54225 -19.5422256,51.005 0,70.54727 l 2.699768,2.69977 25.555291,25.55528 c 1.162158,-2.86045 2.843583,-5.50342 5.046228,-7.68571 7.490527,-7.87592 20.55168,-9.36713 29.724456,-3.6163 3.7154,2.51179 6.742859,5.88743 9.930317,9.01169 l 19.77543,-19.77543 c 5.47475,-5.35599 10.71822,-10.95565 16.36071,-16.13625 8.9079,-7.46513 23.36857,-6.86041 31.60952,1.34053 l 0.002,-10e-4 c 0.29405,0.29193 0.59051,0.582 0.87275,0.88553 2.2011,2.1994 3.83502,4.85136 4.93192,7.71688 l 0.17873,-0.17874 c 19.54225,-19.54224 19.54225,-51.00917 0,-70.55141 z"/><path style="fill:none;stroke:#97db99;stroke-width:18.0586;stroke-linecap:round;stroke-linejoin:miter;stroke-miterlimit:4;stroke-dasharray:none;stroke-opacity:1" id="path963" d="m 146.78042,973.72447 -50.105028,50.10503 a 1.5048816,1.5048816 0 0 1 -2.128224,0 l -21.449552,-21.4496"/></g><style id="style853" type="text/css"/></svg>