<svg xmlns="http://www.w3.org/2000/svg" xmlns:svg="http://www.w3.org/2000/svg" id="svg2" width="192" height="192" version="1.1" viewBox="0 0 192 192"><metadata id="metadata7"/><g id="layer1" transform="translate(0,-860.36216)"><g id="g922" transform="matrix(0.95868798,0,0,0.95868798,3.9659512,41.49464)"><path id="path958" d="m 29.763645,877.86505 v 90.76251 a 24.141945,24.141945 67.49984 0 0 7.071107,17.07103 l 52.092166,52.09161 a 10.000268,10.000268 4.4655568e-4 0 0 14.142322,10e-5 l 52.0959,-52.09371 a 24.141413,24.141413 112.50061 0 0 7.07122,-17.07092 v -90.76252 a 9.9998566,9.9998566 44.999589 0 0 -10,-9.99986 l -112.472715,0.002 a 10.000143,10.000143 134.99959 0 0 -10,10.00014 z" style="fill:#75aea5;fill-opacity:1;stroke-width:.610961;stroke-linecap:round;stroke-linejoin:round;paint-order:markers fill stroke"/><path id="path914" d="M 96,52.029297 V 180.35547 a 10.000268,10.000268 0 0 0 7.06836,-2.92774 l 52.09766,-52.09375 a 24.141413,24.141413 0 0 0 5.53515,-8.60351 z" transform="translate(0,860.36216)" style="fill:#f9de82;fill-opacity:1;stroke-width:.610961;stroke-linecap:round;stroke-linejoin:round;paint-order:markers fill stroke"/></g></g><style id="style853" type="text/css"/></svg>