<svg xmlns="http://www.w3.org/2000/svg" xmlns:svg="http://www.w3.org/2000/svg" id="svg2" width="192" height="192" version="1.1" viewBox="0 0 192 192"><metadata id="metadata7"/><g id="layer1" transform="translate(0,-860.36216)"><rect id="rect1012" width="153" height="153" x="19.5" y="879.862" rx="10" style="fill:#fff;fill-opacity:1;fill-rule:evenodd;stroke:none;stroke-opacity:1"/><g style="fill:#ff837d;fill-opacity:1" id="g998" transform="translate(-284.67635,-9.4763275)"><path style="fill:#ff837d;fill-opacity:1;stroke-width:.0885459" id="path992" d="m 344.44328,934.20792 -11.2453,22.47274 c -6.16277,12.35208 -11.12124,22.41093 -10.99728,22.39324 0.12396,-0.0529 5.18877,-2.97526 11.24529,-6.49047 l 11.02392,-6.40173 0.77926,0.42486 c 0.42503,0.2302 5.4366,3.12569 11.09467,6.41958 5.69348,3.2762 10.34216,5.88829 10.39529,5.79089 0.0797,-0.17709 -17.13365,-34.69202 -20.65776,-41.46579 z m 0.0267,21.10906 2.06316,4.15287 2.06303,4.15279 -0.65528,0.38086 c -0.35419,0.22131 -1.28391,0.7526 -2.03655,1.20412 l -1.38127,0.77914 -2.00991,-1.15991 -2.08965,-1.20421 a 48.49641,48.49641 0 0 1 1.98328,-4.17924 z"/><path id="path994" d="m 386.1313,979.07376 c 8.66723,0 16.16912,-4.87987 19.88365,-12.01759 l -8.30306,-4.2972 c -2.11219,4.15153 -6.40938,6.91922 -11.58059,6.91922 -7.35622,0 -12.96443,-5.68104 -12.96443,-13.03726 0,-7.35623 5.60821,-13.03727 12.96443,-13.03727 5.17121,0 9.4684,2.76769 11.58059,6.91922 l 8.30306,-4.2972 c -3.71453,-7.13772 -11.21642,-12.01759 -19.88365,-12.01759 -12.38176,0 -22.43283,10.05108 -22.43283,22.43284 0,12.38175 10.05107,22.43283 22.43283,22.43283 z" style="font-weight:700;font-size:58.2671px;line-height:1.25;font-family:Now;-inkscape-font-specification:'Now Bold';letter-spacing:0;word-spacing:0;fill:#ff837d;fill-opacity:1;stroke-width:1.45667"/><path id="path996" d="m 439.15427,934.79076 h -31.6099 v 8.52157 h 11.07075 v 35.17876 h 9.54124 v -35.17876 h 10.99791 z" style="font-weight:700;font-size:58.2671px;line-height:1.25;font-family:Now;-inkscape-font-specification:'Now Bold';letter-spacing:0;word-spacing:0;fill:#ff837d;fill-opacity:1;stroke-width:1.45667"/></g><text id="text1002" x="32.105" y="987.993" xml:space="preserve" style="font-weight:700;font-size:12.2825px;line-height:1.25;font-family:Now;-inkscape-font-specification:'Now Bold';letter-spacing:9.75px;word-spacing:0;fill:#ff837d;fill-opacity:1;stroke-width:.307063"><tspan style="fill:#ff837d;fill-opacity:1;stroke-width:.307063" id="tspan1000" x="32.105" y="987.993">FIBERNET</tspan></text></g><style id="style853" type="text/css"/></svg>