<svg xmlns="http://www.w3.org/2000/svg" xmlns:svg="http://www.w3.org/2000/svg" id="svg2" width="192" height="192" version="1.1" viewBox="0 0 192 192"><defs id="defs4"><style id="style907">.cls-1{fill:#fff}</style></defs><metadata id="metadata7"/><g id="layer1" transform="translate(0,-860.36216)"><rect id="rect932" width="153" height="153" x="19.5" y="879.862" rx="10" ry="10" style="fill:#56595b;fill-opacity:1;fill-rule:evenodd;stroke:none;stroke-opacity:1"/><path style="stroke-width:1" id="path936" d="m 121.42943,957.82362 a 3.7389057,3.7389057 0 1 1 0,-7.4778 h 6.01634 v 7.4778 z M 132.5,945.99797 h -11.65516 c -4.93243,0 -8.30597,3.22739 -8.30597,7.86752 a 7.4047384,7.4047384 0 0 0 5.43176,7.4291 l -6.35735,9.67 h 5.62662 l 5.71188,-8.82966 h 4.49399 v 8.79313 H 132.5 Z m -62.952456,6.55222 v -7.46563 h 9.743077 v 21.28862 H 67.06306 c 1.315315,-2.3018 2.484484,-7.62396 2.484484,-13.82299 z M 84.503167,940.21302 H 64.566396 v 12.53202 c 0,6.3939 -1.120454,11.37505 -2.630631,13.62814 h -2.435769 v 11.38722 h 4.932433 v -6.74708 h 18.706708 v 6.74708 h 4.932433 v -11.38722 h -3.568402 z m 15.040876,26.50117 -0.43844,-0.2923 5.821487,-20.42392 H 93.150148 l -1.217885,4.54271 h 6.83233 l -4.44528,15.58892 a 4.2138807,4.2138807 0 0 0 4.25042,5.4683 5.4683019,5.4683019 0 0 0 2.983817,-0.93777 l 8.01368,-5.41958 -2.43577,-3.65366 z m 3.422247,-25.40508 c 2.43577,0 3.51969,-0.9256 3.51969,-3.12996 0,-2.20437 -1.07174,-3.21522 -3.51969,-3.21522 -2.44794,0 -3.519677,0.9256 -3.519677,3.21522 0,2.28962 1.035197,3.12996 3.519677,3.12996 z" class="cls-1"/></g><style id="style853" type="text/css"/></svg>