<svg xmlns="http://www.w3.org/2000/svg" xmlns:svg="http://www.w3.org/2000/svg" style="fill-rule:evenodd;clip-rule:evenodd;stroke-linecap:round;stroke-linejoin:round;stroke-miterlimit:1.5" id="svg35" width="100%" height="100%" version="1.1" viewBox="0 0 192 192" xml:space="preserve"><metadata id="metadata41"/><g id="g1068" transform="translate(8.0000006,8.0000006)"><circle style="fill:#9abeff" id="circle1066" cx="88" cy="88" r="88"/></g><g id="g1074" transform="matrix(1.0148,0,0,1.0148,-1.420868,-1.420868)" style="fill:#ff837d;fill-opacity:1"><path style="fill:#ff837d;fill-opacity:1;stroke:#ff837d;stroke-width:21.19px" id="path1072" d="m 19.891,96 c 0,42.034 34.075,76.109 76.109,76.109 3.987,0 7.968,-0.313 11.906,-0.937 -3.938,0.624 -7.919,0.937 -11.906,0.937 -42.034,0 -76.109,-34.075 -76.109,-76.109 z"/></g><path style="fill:#97db99;fill-opacity:1;stroke:#98dc9a;stroke-width:21.5037px" id="path1076" d="m 96.037284,173.23552 c 42.656106,-0.0206 77.218706,-34.61665 77.198076,-77.27275 -0.002,-4.046007 -0.32154,-8.085773 -0.9567,-12.081749 0.63516,3.995976 0.95474,8.035742 0.9567,12.081749 0.0206,42.6561 -34.54197,77.25212 -77.198076,77.27275 z"/><path style="fill:#99bdfe;fill-opacity:1;stroke:#9abeff;stroke-width:21.5037px" id="path1080" d="m 173.23526,95.992348 c -0.004,-42.656103 -34.58751,-77.23174 -77.243616,-77.227209 -4.046008,4.3e-4 -8.085894,0.318492 -12.082108,0.952152 3.996214,-0.63366 8.0361,-0.951722 12.082108,-0.952152 42.656106,-0.0045 77.239086,34.571106 77.243616,77.227209 z"/><path style="fill:#f9de81;fill-opacity:1;stroke:#f9de81;stroke-width:21.5037px" id="path1084" d="M 95.970814,18.764525 C 53.31471,18.780608 18.748433,53.372944 18.76451,96.029048 c 0.0015,4.046002 0.320679,8.085802 0.955421,12.081852 -0.634742,-3.99605 -0.953897,-8.03585 -0.955421,-12.081852 -0.01608,-42.656104 34.5502,-77.248446 77.206304,-77.264523 z"/><path style="fill:none;stroke:#ff837d;stroke-width:21.5037px" id="path1088" d="m 18.764519,95.999932 c 0,17.695058 6.076622,34.854328 17.212022,48.605868 -11.1354,-13.75154 -17.212022,-30.91081 -17.212022,-48.605868 z"/><circle style="fill:#99bdfe;fill-opacity:1;stroke:#fff;stroke-width:8.70156px;stroke-linecap:butt;stroke-linejoin:miter;stroke-miterlimit:4" id="circle1094" cx="96" cy="96" r="62.154"/><path id="path1102" d="m 95.892659,58.278926 a 8.8489492,8.8489492 0 0 0 -5.691102,2.163314 l -30.28233,26.261207 a 5.7677465,5.7677465 0 0 0 3.779613,10.125077 h 1.178684 a 2.3522714,2.3522714 0 0 1 2.353226,2.353225 V 121.6365 a 5.2953141,5.2953141 0 0 0 5.294759,5.29477 h 14.943009 v -11.98494 c 0,-4.72602 3.805464,-8.5315 8.531479,-8.5315 4.726013,0 8.531493,3.80548 8.531493,8.5315 v 11.98494 h 14.94299 a 5.2953141,5.2953141 0 0 0 5.29476,-5.29477 V 99.181749 a 2.3522714,2.3522714 0 0 1 2.35324,-2.353225 h 1.17867 a 5.7677465,5.7677465 0 0 0 3.77962,-10.125077 L 101.79844,60.44224 a 8.8489492,8.8489492 0 0 0 -5.905781,-2.163314 z m -0.03509,20.000379 a 7.7514134,7.7514134 0 0 1 0.142427,0 7.7514134,7.7514134 0 0 1 7.751204,7.7512 7.7514134,7.7514134 0 0 1 -7.751204,7.75121 7.7514134,7.7514134 0 0 1 -7.7512,-7.75121 7.7514134,7.7514134 0 0 1 7.608773,-7.7512 z" style="fill:#fff;fill-opacity:1;stroke:none;stroke-width:0;stroke-linecap:square;stroke-linejoin:bevel;stroke-miterlimit:1.5;stroke-dasharray:none;stop-color:#000"/></svg>