<svg xmlns="http://www.w3.org/2000/svg" xmlns:xlink="http://www.w3.org/1999/xlink" width="100%" height="100%" version="1.1" viewBox="0 0 192 192" xml:space="preserve" style="fill-rule:evenodd;clip-rule:evenodd;stroke-linejoin:round;stroke-miterlimit:2"><g transform="matrix(1.10633,0,0,1.10633,-10.2077,-10.2077)"><g id="Layer1"><g><g><path d="M96,22.43L148.022,43.978L169.57,96L148.022,148.022L96,169.57L43.978,148.022L22.43,96L43.978,43.978L96,22.43Z" transform="matrix(0.991624,-0.410744,0.410744,0.991624,-38.6274,40.2355)" style="fill:#ff837d"/></g><g><path d="M65.782,23.047L126.218,23.047L168.953,65.782L168.953,126.218L126.218,168.953L65.782,168.953L23.047,126.218L23.047,65.782L65.782,23.047ZM67.882,28.118L124.118,28.118L163.882,67.882L163.882,124.118L124.118,163.882L67.882,163.882L28.118,124.118L28.118,67.882L67.882,28.118Z" transform="matrix(0.938236,0,0,0.938236,5.9293,5.9293)" style="fill:#fff"/></g><g><g><text x="0" y="0" transform="matrix(0.862603,0,0,0.862603,13.1902,18.2399) matrix(0.932171,0,0,1,56.7052,95.787)" style="font-family:'Now-Black','Now';font-weight:900;font-size:60.49px;fill:#fff">AD</text></g><g><g><text x="0" y="0" transform="matrix(0.862603,0,0,0.862603,13.1902,18.2399) matrix(1.16872,0,0,1.25376,38.1483,123.821)" style="font-family:'Now-Black','Now';font-weight:900;font-size:20px;fill:#fff">BLOCKER</text></g></g></g></g></g></g></svg>