<svg xmlns="http://www.w3.org/2000/svg" xmlns:svg="http://www.w3.org/2000/svg" id="svg2" width="192" height="192" version="1.1" viewBox="0 0 192 192"><metadata id="metadata7"/><g id="layer1" transform="translate(0,-860.36216)"><rect style="fill:#575a5c;fill-opacity:1;fill-rule:evenodd;stroke:none;stroke-opacity:1" id="rect842-3-3" width="153" height="153" x="19.5" y="879.862" rx="10"/><g id="g1027" transform="matrix(0.99953394,0,0,0.99953394,-0.67072,-0.38098)"><path id="path881-6" d="m 61.2139,972.98412 11.245302,-6.5308 a 2.0031747,2.0031747 14.808321 0 1 2.736652,0.72348 l 6.880096,11.80359 H 64.255197 a 3.3975648,3.3975648 30.483488 0 1 -2.970627,-1.74868 l -0.829536,-1.49449 a 2.0392411,2.0392411 105.41037 0 1 0.758866,-2.7531 z" style="fill:#fff;fill-opacity:1;stroke-width:7.33016"/><path id="path897-7" d="M 114.25709,978.97658 94.793391,945.02843 a 2.020909,2.020909 104.87486 0 1 0.729848,-2.74782 l 11.255051,-6.6094 a 1.9848776,1.9848776 14.794354 0 1 2.72426,0.7195 l 23.57565,40.85361 a 1.1549748,1.1549748 120.00589 0 1 -1.00036,1.73226 z" style="fill:#fff;fill-opacity:1;stroke-width:7.33016"/><path id="path909-5" d="m 89.92566,951.28531 -11.436442,6.46702 a 1.9950887,1.9950887 105.44252 0 0 -0.752203,2.72296 l 10.520904,18.49915 v 0.005 l 19.819611,-0.005 -15.41747,-26.93777 a 2.0103956,2.0103956 15.364439 0 0 -2.7344,-0.75136 z" style="fill:#fff;fill-opacity:1;stroke-width:7.33016"/></g></g><style id="style853" type="text/css"/></svg>