<svg xmlns="http://www.w3.org/2000/svg" id="Layer_1" data-name="Layer 1" viewBox="0 0 153 153"><defs><style>.cls-1{fill:#dc505e}.cls-2{fill:#511119}.cls-3{fill:#ffb0ac}</style></defs><title>adobe_xd</title><rect width="153" height="153" class="cls-1" rx="10" ry="10"/><rect width="132" height="132" x="10" y="10.5" class="cls-2"/><g id="XD"><polygon points="38.3 48.5 51.95 74.96 37.73 102.5 48.89 102.5 58.25 82.79 67.61 102.5 79.31 102.5 63.83 74.06 78.23 48.5 67.07 48.5 58.25 68.16 49.43 48.5 38.3 48.5" class="cls-3"/><path d="M120.23,68V81.14s-22.14-1.26-21.78,19.8S111.83,122,118.75,122c5.79,0,12.28-3.13,12.28-3.13V68Zm0,45.54a35.2,35.2,0,0,1-5.49-.27c-3.26-.84-6.39-2.95-6.39-11.61,0-8.1,3.93-10.87,6.58-11.62a17.21,17.21,0,0,1,5.3-.26Z" class="cls-3" transform="translate(-19.5 -19.5)"/></g></svg>