<svg xmlns="http://www.w3.org/2000/svg" xmlns:svg="http://www.w3.org/2000/svg" id="svg2" width="192" height="192" version="1.1" viewBox="0 0 192 192"><defs id="defs4"><style id="style1050">.cls-4{fill:#fff}</style></defs><metadata id="metadata7"/><g id="layer1" transform="translate(0,-860.36216)"><g id="g45572" transform="translate(449.33911,406.71891)"><rect id="rect44717" width="153" height="153" x="-429.839" y="473.143" rx="10" style="fill:#ff847f;fill-opacity:1;fill-rule:evenodd;stroke:none;stroke-opacity:1"/><g style="stroke-width:2.47537" id="g44543" data-name="Outlined Mnemonics &amp; Logos" transform="matrix(0.40398015,0,0,0.40398015,-404.16724,500.28034)"><g style="stroke-width:2.47537" id="g44541" data-name="CC Logo – ICO &amp; ICNS ONLY - 8% Scale"><path style="stroke-width:2.47537" id="path44539" d="M 192.20638,70.3373 A 66.484,66.484 0 0 0 142.98876,49.07048 c -18.20307,0 -36.717,7.80445 -48.55955,20.42187 a 58.35239,58.35239 0 0 0 -6.53792,-0.36746 c -35.692,0 -57.78388,30.02263 -57.78388,57.83906 a 59.55547,59.55547 0 0 0 16.20926,40.367 56.59161,56.59161 0 0 0 41.57462,17.98267 h 55.09747 c 37.39679,0 67.8206,-30.66121 67.8206,-68.34951 A 69.29315,69.29315 0 0 0 192.20638,70.3373 Z M 86.86261,175.45321 a 47.92119,47.92119 0 0 1 -0.2214,-95.84161 47.47009,47.47009 0 0 1 31.8391,12.11188 l 0.23461,0.20279 19.85341,20.37225 a 8.5383,8.5383 0 0 1 -12.25607,11.89112 l -19.70042,-20.21692 a 30.57172,30.57172 0 0 0 -50.51363,23.107 c 0,16.78536 14.29941,30.96755 31.226,30.96755 l 3.93234,0.018 0.03649,0.11075 c 5.63015,7.76777 21.31356,17.27722 21.31356,17.27722 z M 185.028,158.21769 a 56.86807,56.86807 0 0 1 -41.037,17.56774 c -14.69743,0 -29.70848,-6.57046 -41.18306,-18.02724 L 76.56826,131.46267 a 8.5551,8.5551 0 0 1 6.121,-14.536 8.46058,8.46058 0 0 1 6.1203,2.5744 L 114.865,145.629 c 8.27258,8.29128 18.88891,13.04672 29.126,13.04672 a 39.80953,39.80953 0 0 0 28.846,-12.47 A 42.37642,42.37642 0 0 0 184.81855,116.6656 41.01267,41.01267 0 0 0 143.8436,75.709 c -8.61785,0 -15.73933,1.66617 -22.694,6.61721 -0.0752,-0.06113 -1.95956,-1.31021 -4.08767,-2.60316 -1.31991,-0.80252 -2.7414,-1.60073 -3.85988,-2.20766 -1.2445,-0.67667 -4.81216,-2.427 -6.93469,-3.30428 -0.52818,-0.21861 -1.21017,-0.46886 -1.49745,-0.57025 l 0.0597,-0.03236 c 10.8,-10.09552 24.23977,-15.00917 39.014,-15.00917 a 58.14171,58.14171 0 0 1 58.08517,58.0663 59.42915,59.42915 0 0 1 -16.90077,41.55206 z" class="cls-4" data-name="256" transform="translate(5.36,5)"/></g></g></g></g><style id="style853" type="text/css"/><style id="style852" type="text/css"/></svg>