<svg xmlns="http://www.w3.org/2000/svg" xmlns:svg="http://www.w3.org/2000/svg" id="b977ceba-b6bb-45ef-ab5b-9272e1f7899a" width="192" height="192" data-name="svg2" version="1.1" viewBox="0 0 192 192"><metadata id="metadata25"/><defs id="defs4"><style id="style2">.eafc3c86-ff5e-428f-a5ca-1bddd8de7cc8{fill:#fff}.b352d512-8a7f-42c2-beef-4a480e7023b1{fill:#738cbd}</style></defs><rect id="rect6" width="152" height="152" x="20" y="20" class="eafc3c86-ff5e-428f-a5ca-1bddd8de7cc8" rx="10" ry="10" style="stroke-width:.993464"/><path id="path12" d="m 38.012987,150.06857 c -3.05974,-1.48052 -4.836364,-6.11948 -3.454545,-9.17922 0.592207,-1.38182 8.981818,-16.08831 18.555844,-32.76883 C 62.688312,91.44 74.72987,70.416624 79.862338,61.434805 84.994805,52.452987 90.127273,44.162078 91.212987,42.878961 a 6.7018182,6.7018182 0 0 1 9.475323,-0.315844 c 0.16779,0.157922 0.33559,0.335584 0.49351,0.513247 3.45454,3.750649 56.06234,96.431166 56.65454,99.787016 0.98702,6.11948 -7.30389,10.65974 -12.14026,6.61298 -1.08571,-0.88831 -11.25194,-17.86493 -22.50389,-37.70389 -11.25195,-19.838963 -21.51689,-37.012989 -22.8987,-38.197405 -3.059744,-2.763636 -5.329873,-2.862338 -8.488315,-0.394805 -1.381818,1.085714 -11.942857,18.654545 -23.58961,38.98701 -22.997403,40.36883 -23.54026,41.07948 -30.202598,37.9013 z" class="b352d512-8a7f-42c2-beef-4a480e7023b1" style="stroke-width:.987013;fill:#708cbd;fill-opacity:1"/><path id="path14" d="m 74.72987,150.16727 c -2.763636,-1.38182 -5.428571,-6.41558 -5.428571,-10.26493 a 7.7875325,7.7875325 0 0 1 7.303896,-7.4026 c 4.441558,0 9.475325,6.02078 9.475325,11.05455 0,5.03376 -6.711689,8.98181 -11.35065,6.61298 z" class="b352d512-8a7f-42c2-beef-4a480e7023b1" style="stroke-width:.987013;fill:#708cbd;fill-opacity:1"/><path id="path16" d="m 109.67013,149.08156 c -3.55325,-3.45455 -22.602597,-37.6052 -22.602597,-40.66494 0,-3.35584 4.046753,-7.5013 7.303896,-7.5013 a 8.6264935,8.6264935 0 0 1 4.935065,2.27013 c 3.948056,3.55325 22.602596,37.21039 22.503896,40.66494 -0.0987,3.45455 -4.04675,7.4026 -7.5013,7.4026 a 8.3205195,8.3205195 0 0 1 -4.63896,-2.17143 z" class="b352d512-8a7f-42c2-beef-4a480e7023b1" style="stroke-width:.987013;fill:#708cbd;fill-opacity:1"/></svg>