<svg xmlns="http://www.w3.org/2000/svg" xmlns:svg="http://www.w3.org/2000/svg" id="svg22" width="192" height="192" version="1.1" viewBox="0 0 192 192"><metadata id="metadata28"/><g id="layer1"><g id="g20" fill="none" fill-rule="evenodd" stroke="#B1B5BD" opacity=".63" transform="translate(8,8)" style="opacity:1;fill:#fff;fill-opacity:1;stroke-width:0;stroke-miterlimit:4;stroke-dasharray:none"><circle id="circle12" cx="88" cy="88" r="88" style="fill:#fff;fill-opacity:1;stroke-width:0;stroke-miterlimit:4;stroke-dasharray:none"/></g></g><g id="layer2" style="display:inline"><path id="path103" fill="#84bc26" d="m 141.93,139.08411 c -12.10449,-15.56653 -20.73742,-30.87039 -26.0729,-46.436926 -5.45729,-15.887714 -7.47945,-32.053925 -6.28009,-49.076149 0.0142,-0.170887 -0.0981,-0.327534 -0.26741,-0.365509 l -1.87975,-0.441457 c -0.16298,-0.04272 -0.32911,0.04114 -0.39239,0.196203 C 101.26053,56.07267 92.255741,67.732531 80.627526,77.427194 69.907543,86.357618 56.951789,93.615557 42.231789,98.80388 c -0.150317,0.0458 -0.24842,0.20411 -0.229433,0.36391 l 0.248421,2.24052 c 0.01582,0.17563 0.167721,0.30856 0.348102,0.31173 1.322789,-0.0333 2.531656,-0.0428 3.729447,-0.0428 11.090237,0 21.868765,1.07594 38.394144,6.32913 19.04757,6.05065 37.63306,17.20735 55.25024,33.15046 0.0664,0.0554 0.1519,0.0902 0.23576,0.0902 0,0 0.0158,0 0.0158,-0.003 0.0966,-0.003 0.18515,-0.0395 0.24211,-0.11381 l 1.43987,-1.60129 c 0.11395,-0.12352 0.12655,-0.3117 0.0238,-0.44461" style="fill:#98dc9a;fill-opacity:1;stroke-width:1.58229"/></g></svg>