<svg xmlns="http://www.w3.org/2000/svg" xmlns:svg="http://www.w3.org/2000/svg" id="svg2" width="192" height="192" version="1.1" viewBox="0 0 192 192"><metadata id="metadata7"/><g id="layer1" transform="translate(0,-860.36216)"><circle id="path2094" cx="127.26" cy="910.129" r="0" style="fill:#000;fill-opacity:.497931;stroke-width:5.22416;paint-order:markers fill stroke"/><rect id="rect2249" width="153" height="153" x="19.5" y="879.862" rx="10" style="fill:#575a5c;fill-opacity:1;fill-rule:evenodd;stroke:none;stroke-width:1;stroke-opacity:1"/><g id="g2133" transform="matrix(0.87635471,0,0,0.87635471,11.870122,118.24969)"><path style="fill:#fed5d3;fill-opacity:1;stroke-width:1.05322;paint-order:markers fill stroke" id="path2255" d="m 112.38573,952.01087 v 0.003 c 0.0123,-2.1e-4 0.0242,-0.003 0.0366,-0.003 a 1.50648,1.3023714 0 0 0 -0.0366,0 z m 0.0465,0 c 0.13053,0.002 0.25922,0.0186 0.38184,0.0481 a 1.50648,1.3023714 0 0 0 -0.38184,-0.0481 z m 0.38516,0.0498 c 0.12148,0.0296 0.23854,0.0719 0.34697,0.12617 a 1.50648,1.3023714 0 0 0 -0.34697,-0.12617 z m 0.35527,0.13115 c 0.10576,0.0537 0.20236,0.1178 0.29053,0.19258 a 1.50648,1.3023714 0 0 0 -0.29053,-0.19258 z m 0.30879,0.20918 c 0.0861,0.0756 0.16385,0.16021 0.22744,0.25401 a 1.50648,1.3023714 0 0 0 -0.22744,-0.25401 z m 5.93174,8.79717 v 28.95811 h 16.73106 a 1.5064798,1.3023714 0 0 0 1.30322,-1.95401 l -13.17169,-19.72265 z"/><path style="fill:#b96460;fill-opacity:1;stroke-width:1.05322;paint-order:markers fill stroke" id="path2263" d="m 112.38612,952.01144 a 1.50648,1.3023714 0 0 0 -1.30438,0.65161 l -13.17278,19.72312 -10.56184,15.81652 a 1.5064798,1.3023714 0 0 0 1.304378,1.95381 h 23.734622 z"/><path style="fill:#fe827c;fill-opacity:1;stroke-width:1.28103;paint-order:markers fill stroke" id="path2253" d="m 80.810288,941.2783 a 3.6695755,3.8283409 0 0 0 -3.149963,1.91339 l -11.40591,20.61086 -3.17839,5.74343 -1.248615,2.25666 -6.979997,12.61082 a 3.6695754,3.8283408 0 0 0 -0.02844,0.0526 3.6695754,3.8283408 0 0 0 3.147779,5.68985 h 5.401184 l 3.855181,-8.39044 h 27.230082 l 3.855181,8.39044 h 5.39682 a 3.6695754,3.8283408 0 0 0 3.13684,-5.71717 l -0.0131,-0.0252 -11.407004,-20.61091 -3.177298,-5.74231 -8.228613,-14.86855 -0.01204,-0.0207 a 3.6695755,3.8283409 0 0 0 -0.0164,-0.0286 3.6695755,3.8283409 0 0 0 -3.177298,-1.86419 z m 0.02732,10.86032 9.186396,19.98988 H 71.651216 Z"/><path style="fill:#fed5d3;fill-opacity:1;stroke-width:1.06627;paint-order:markers fill stroke" id="path2251" d="m 80.837789,952.1387 -9.187304,19.98994 h 18.372948 z"/><path style="fill:#fed5d3;fill-opacity:1;stroke-width:1.06627;paint-order:markers fill stroke" id="path2310" d="M 91.645406,981.76585 H 67.222847 l -3.854882,8.39042 h 23.826562 1.450977 a 1.5064798,1.3023714 0 0 1 -0.09795,-0.003 1.5064798,1.3023714 0 0 1 -0.09795,-0.009 1.5064798,1.3023714 0 0 1 -0.09795,-0.015 1.5064798,1.3023714 0 0 1 -0.09463,-0.0183 1.5064798,1.3023714 0 0 1 -0.09463,-0.0249 1.5064798,1.3023714 0 0 1 -0.09131,-0.0315 1.5064798,1.3023714 0 0 1 -0.08965,-0.0349 1.5064798,1.3023714 0 0 1 -0.08633,-0.0399 1.5064798,1.3023714 0 0 1 -0.08467,-0.0448 1.5064798,1.3023714 0 0 1 -0.07969,-0.0498 1.5064798,1.3023714 0 0 1 -0.07471,-0.0547 1.5064798,1.3023714 0 0 1 -0.07305,-0.0581 1.5064798,1.3023714 0 0 1 -0.06641,-0.0631 1.5064798,1.3023714 0 0 1 -0.06309,-0.0648 1.5064798,1.3023714 0 0 1 -0.05645,-0.0697 1.5064798,1.3023714 0 0 1 -0.05147,-0.073 1.5064798,1.3023714 0 0 1 -0.04649,-0.0747 1.5064798,1.3023714 0 0 1 -0.03984,-0.0763 1.5064798,1.3023714 0 0 1 -0.03487,-0.0797 1.5064798,1.3023714 0 0 1 -0.02822,-0.083 1.5064798,1.3023714 0 0 1 -0.02324,-0.0814 1.5064798,1.3023714 0 0 1 -0.01494,-0.0847 1.5064798,1.3023714 0 0 1 -0.01,-0.0847 1.5064798,1.3023714 0 0 1 -0.0033,-0.0847 1.5064798,1.3023714 0 0 1 0.0033,-0.0847 1.5064798,1.3023714 0 0 1 0.01,-0.0847 1.5064798,1.3023714 0 0 1 0.0166,-0.0847 1.5064798,1.3023714 0 0 1 0.02158,-0.083 1.5064798,1.3023714 0 0 1 0.02989,-0.0813 1.5064798,1.3023714 0 0 1 0.0332,-0.0796 1.5064798,1.3023714 0 0 1 0.04151,-0.078 1.5064798,1.3023714 0 0 1 0.04649,-0.0747 z"/><path style="fill:#fe827c;fill-opacity:1;stroke-width:2.46353;paint-order:markers fill stroke" id="path2257" d="m 112.42802,952.01161 c -0.0786,-6.4e-4 -0.15726,0.004 -0.23507,0.014 v 38.13089 h 2.82523 l 4.39421,-8e-5 v -28.9608 l -5.69858,-8.53369 c -0.2659,-0.39771 -0.75448,-0.64489 -1.28579,-0.65054 z"/><circle id="circle2259" cx="112.408" cy="932.161" r="9.593" style="fill:#f7c08b;fill-opacity:1;stroke-width:2.99566;paint-order:markers fill stroke"/><path style="fill:#000;fill-opacity:.25;stroke-width:1.06627;paint-order:markers fill stroke" id="path2261" d="m 80.811385,941.2783 c -1.301248,0.01 -2.500617,0.73781 -3.151491,1.91339 l -14.584451,26.35384 -8.227929,14.86826 c -1.413292,2.55219 0.352751,5.74299 3.17798,5.7431 H 80.83872 V 941.2783 c -0.0091,-6e-5 -0.01825,-6e-5 -0.02732,0 z"/></g></g><style id="style853" type="text/css"/></svg>