<svg xmlns="http://www.w3.org/2000/svg" xmlns:svg="http://www.w3.org/2000/svg" id="svg2" width="192" height="192" version="1.1" viewBox="0 0 192 192"><metadata id="metadata7"/><g id="layer1" transform="translate(0,-860.36216)"><rect id="rect4188-3" width="154" height="154" x="19" y="879.362" rx="10.065" style="fill:#fff;fill-opacity:1;fill-rule:evenodd;stroke:none;stroke-width:.99999994"/><path id="path859-6" d="m 52.688293,984.86722 0.0026,0.10896 c 0.01554,0.64665 0.01554,0.64665 0.669282,0.67173 1.761055,0.0355 8.264017,0.0853 32.271557,-0.0253 12.369397,-0.008 18.872788,-7.97584 20.182448,-9.86009 l 32.73731,-47.10027 c 1.1322,-1.62893 1.1322,-1.62893 -0.85991,-1.62893 h -33.11601 c -1.96366,0 -1.96366,0 -3.09823,1.64287 L 72.56032,970.5483 c -6.227553,9.01752 -12.643776,12.8291 -19.240469,13.60275 -0.647247,0.0662 -0.647247,0.0662 -0.6316,0.71599 z" style="opacity:1;fill:#ff8183;fill-opacity:1;stroke:#db515f;stroke-width:.99999994px;stroke-linecap:round;stroke-linejoin:round;stroke-opacity:1"/></g><style id="style824" type="text/css"/></svg>