<svg xmlns="http://www.w3.org/2000/svg" xmlns:xlink="http://www.w3.org/1999/xlink" width="100%" height="100%" version="1.1" viewBox="0 0 192 192" xml:space="preserve" style="fill-rule:evenodd;clip-rule:evenodd;stroke-linejoin:round;stroke-miterlimit:2"><g id="Layer1"><g><path d="M164.5,21.5C164.5,15.981 160.019,11.5 154.5,11.5L21.5,11.5C15.981,11.5 11.5,15.981 11.5,21.5L11.5,154.5C11.5,160.019 15.981,164.5 21.5,164.5L154.5,164.5C160.019,164.5 164.5,160.019 164.5,154.5L164.5,21.5Z" transform="matrix(1,0,0,1,8,8)" style="fill:#9abeff"/></g><g><path d="M136.273,94.68C134.859,96.786 134.149,102.373 134.262,104.517C134.539,109.778 137.141,112.727 140.9,116.147C142.066,117.209 147.478,120.286 147.682,119.673C148.022,118.654 150.527,112.577 150.444,112.4C150.223,111.927 147.065,110.78 144.748,109.233C142.294,107.594 140.222,105.375 139.323,104.208C138.737,103.447 137.293,101.271 136.971,100.23C136.21,97.767 136.375,96.415 136.273,94.68Z" transform="matrix(0.888542,0,0,0.888542,11.5861,10.7557)" style="fill:#fff"/><g><path d="M136.273,94.68C134.859,96.786 134.149,102.373 134.262,104.517C134.539,109.778 137.141,112.727 140.9,116.147C142.066,117.209 147.478,120.286 147.682,119.673C148.022,118.654 150.527,112.577 150.444,112.4C150.223,111.927 147.065,110.78 144.748,109.233C142.294,107.594 140.222,105.375 139.323,104.208C138.737,103.447 137.293,101.271 136.971,100.23C136.21,97.767 136.375,96.415 136.273,94.68Z" transform="matrix(0.888542,0,0,0.888542,11.5861,10.7557) matrix(0.766044,-0.642788,0.642788,0.766044,-39.2479,84.1673)" style="fill:#fff"/></g><g><path d="M136.273,94.68C134.859,96.786 134.149,102.373 134.262,104.517C134.539,109.778 137.141,112.727 140.9,116.147C142.066,117.209 147.478,120.286 147.682,119.673C148.022,118.654 150.527,112.577 150.444,112.4C150.223,111.927 147.065,110.78 144.748,109.233C142.294,107.594 140.222,105.375 139.323,104.208C138.737,103.447 137.293,101.271 136.971,100.23C136.21,97.767 136.375,96.415 136.273,94.68Z" transform="matrix(0.888542,0,0,0.888542,11.5861,10.7557) matrix(0.173648,-0.984808,0.984808,0.173648,-15.2118,173.871)" style="fill:#fff"/></g><g><path d="M136.273,94.68C134.859,96.786 134.149,102.373 134.262,104.517C134.539,109.778 137.141,112.727 140.9,116.147C142.066,117.209 147.478,120.286 147.682,119.673C148.022,118.654 150.527,112.577 150.444,112.4C150.223,111.927 147.065,110.78 144.748,109.233C142.294,107.594 140.222,105.375 139.323,104.208C138.737,103.447 137.293,101.271 136.971,100.23C136.21,97.767 136.375,96.415 136.273,94.68Z" transform="matrix(0.888542,0,0,0.888542,11.5861,10.7557) matrix(-0.5,-0.866025,0.866025,-0.5,60.8616,227.138)" style="fill:#fff"/></g><g><path d="M136.273,94.68C134.859,96.786 134.149,102.373 134.262,104.517C134.539,109.778 137.141,112.727 140.9,116.147C142.066,117.209 147.478,120.286 147.682,119.673C148.022,118.654 150.527,112.577 150.444,112.4C150.223,111.927 147.065,110.78 144.748,109.233C142.294,107.594 140.222,105.375 139.323,104.208C138.737,103.447 137.293,101.271 136.971,100.23C136.21,97.767 136.375,96.415 136.273,94.68Z" transform="matrix(0.888542,0,0,0.888542,11.5861,10.7557) matrix(-0.939693,-0.34202,0.34202,-0.939693,153.377,219.044)" style="fill:#fff"/></g><g><path d="M136.273,94.68C134.859,96.786 134.149,102.373 134.262,104.517C134.539,109.778 137.141,112.727 140.9,116.147C142.066,117.209 147.478,120.286 147.682,119.673C148.022,118.654 150.527,112.577 150.444,112.4C150.223,111.927 147.065,110.78 144.748,109.233C142.294,107.594 140.222,105.375 139.323,104.208C138.737,103.447 137.293,101.271 136.971,100.23C136.21,97.767 136.375,96.415 136.273,94.68Z" transform="matrix(0.888542,0,0,0.888542,11.5861,10.7557) matrix(-0.939693,0.34202,-0.34202,-0.939693,219.044,153.377)" style="fill:#fff"/></g><g><path d="M136.273,94.68C134.859,96.786 134.149,102.373 134.262,104.517C134.539,109.778 137.141,112.727 140.9,116.147C142.066,117.209 147.478,120.286 147.682,119.673C148.022,118.654 150.527,112.577 150.444,112.4C150.223,111.927 147.065,110.78 144.748,109.233C142.294,107.594 140.222,105.375 139.323,104.208C138.737,103.447 137.293,101.271 136.971,100.23C136.21,97.767 136.375,96.415 136.273,94.68Z" transform="matrix(0.888542,0,0,0.888542,11.5861,10.7557) matrix(-0.5,0.866025,-0.866025,-0.5,227.138,60.8616)" style="fill:#fff"/></g><g><path d="M136.273,94.68C134.859,96.786 134.149,102.373 134.262,104.517C134.539,109.778 137.141,112.727 140.9,116.147C142.066,117.209 147.478,120.286 147.682,119.673C148.022,118.654 150.527,112.577 150.444,112.4C150.223,111.927 147.065,110.78 144.748,109.233C142.294,107.594 140.222,105.375 139.323,104.208C138.737,103.447 137.293,101.271 136.971,100.23C136.21,97.767 136.375,96.415 136.273,94.68Z" transform="matrix(0.888542,0,0,0.888542,11.5861,10.7557) matrix(0.173648,0.984808,-0.984808,0.173648,173.871,-15.2118)" style="fill:#fff"/></g><g><path d="M136.273,94.68C134.859,96.786 134.149,102.373 134.262,104.517C134.539,109.778 137.141,112.727 140.9,116.147C142.066,117.209 147.478,120.286 147.682,119.673C148.022,118.654 150.527,112.577 150.444,112.4C150.223,111.927 147.065,110.78 144.748,109.233C142.294,107.594 140.222,105.375 139.323,104.208C138.737,103.447 137.293,101.271 136.971,100.23C136.21,97.767 136.375,96.415 136.273,94.68Z" transform="matrix(0.888542,0,0,0.888542,11.5861,10.7557) matrix(0.766044,0.642788,-0.642788,0.766044,84.1673,-39.2479)" style="fill:#fff"/></g></g></g></svg>