<svg xmlns="http://www.w3.org/2000/svg" xmlns:xlink="http://www.w3.org/1999/xlink" id="Layer_1" width="192" height="192" x="0" y="0" enable-background="new 0 0 192 192" version="1.1" viewBox="0 0 192 192" xml:space="preserve"><g><circle cx="96.5" cy="96.5" r="86.5" fill="#56595B"/><g><rect width="2.097" height="13.281" x="95.976" y="139.664" fill="#B1B5BC"/><rect width="2.097" height="13.281" x="95.976" y="41.106" fill="#B1B5BC"/><rect width="13.281" height="2.097" x="39.532" y="95.453" fill="#B1B5BC"/><rect width="13.281" height="2.097" x="141.235" y="95.453" fill="#B1B5BC"/><rect width="2.097" height="13.281" x="51.839" y="115.118" fill="#B1B5BC" transform="matrix(-0.4968 -0.8679 0.8679 -0.4968 -26.5079 228.1468)"/><rect width="2.097" height="13.281" x="140.112" y="64.604" fill="#B1B5BC" transform="matrix(0.4965 0.868 -0.868 0.4965 132.9098 -86.6602)"/><rect width="2.097" height="13.281" x="70.313" y="133.763" fill="#B1B5BC" transform="matrix(-0.8635 -0.5044 0.5044 -0.8635 62.1617 297.6321)"/><rect width="2.097" height="13.282" x="121.638" y="45.96" fill="#B1B5BC" transform="matrix(-0.8634 -0.5046 0.5046 -0.8634 202.0703 159.9179)"/><rect width="13.282" height="2.097" x="115.652" y="139.583" fill="#B1B5BC" transform="matrix(-0.4968 -0.8678 0.8678 -0.4968 61.0051 316.632)"/><rect width="13.281" height="2.097" x="65.115" y="51.325" fill="#B1B5BC" transform="matrix(-0.4969 -0.8678 0.8678 -0.4969 61.9597 140.6675)"/><rect width="13.281" height="2.096" x="134.395" y="120.929" fill="#B1B5BC" transform="matrix(-0.8655 -0.501 0.501 -0.8655 201.9896 298.1973)"/><rect width="13.281" height="2.097" x="46.374" y="69.979" fill="#B1B5BC" transform="matrix(-0.8655 -0.501 0.501 -0.8655 63.3141 159.0572)"/></g><polygon fill="#FFF" points="103.314 93.04 103.314 21.184 90.733 21.184 90.733 93.879 101.874 93.879 96.292 103.52 151.165 134.703 157.47 123.813"/><rect width="4.195" height="65.356" x="59.103" y="84.967" fill="#FF877F" transform="matrix(-0.4976 -0.8674 0.8674 -0.4976 -10.3905 229.2709)"/><path fill="#B1B5BC" d="M103.314,93.04V81.18c-2.084-0.929-4.387-1.456-6.814-1.456c-2.029,0-3.966,0.379-5.767,1.039v13.116 h11.141l-5.582,9.641l10.684,6.071c3.317-2.657,5.593-6.546,6.152-10.975L103.314,93.04z M81.349,103.667 c0.605,1.276,1.353,2.473,2.245,3.548l6.995-4.013l-2.087-3.638L81.349,103.667z"/><circle cx="96.5" cy="96.5" r="15.203" fill="#FFF"/></g></svg>