<svg xmlns="http://www.w3.org/2000/svg" xmlns:svg="http://www.w3.org/2000/svg" id="svg2" width="192" height="192" version="1.1" viewBox="0 0 192 192"><defs id="defs4"><style id="style856">.cls-2{fill:url(#d)}.cls-3{fill:url(#c)}.cls-4{fill:url(#b)}.cls-5{fill:url(#a)}</style></defs><metadata id="metadata7"/><g id="layer1" transform="translate(0,-860.36216)"><g id="g910" transform="translate(294.51831,-6.1335675)"><circle style="fill:#97dfd4;fill-opacity:1;fill-rule:evenodd;stroke:none;stroke-opacity:1" id="circle4190" cx="-198.518" cy="962.496" r="88"/><g style="fill:#fefefe;fill-opacity:1" id="g894" transform="matrix(0.38069014,0,0,0.38069014,-357.58924,518.76901)"><path style="fill:#fefefe;fill-opacity:1" id="path886" d="m 417.83532,1088.8506 a 95.895,95.895 0 0 0 -95.865,93.551 90.787,90.787 0 0 1 181.54,2.3435 5.1085,5.1085 0 0 0 10.217,0 95.895,95.895 0 0 0 -95.895,-95.895 z" class="cls-2"/><path style="fill:#fefefe;fill-opacity:1" id="path888" d="m 470.44532,1133.1906 a 75.461,75.461 0 0 0 -105.42,-1.2679 70.353,70.353 0 0 1 98.231,100.72 c -0.0128,0.012 -0.0268,0.023 -0.0395,0.036 a 5.1084,5.1084 0 0 0 7.2243,7.2243 h 0.002 a 75.461,75.461 0 0 0 10e-5,-106.72 z" class="cls-3"/><path style="fill:#fefefe;fill-opacity:1" id="path890" d="m 416.56532,1132.2806 a 49.92,49.92 0 0 1 -1.2848,99.823 5.1083,5.1083 0 1 0 -0.004,10.216 55.027,55.027 0 0 0 1.2887,-110.04 z" class="cls-4"/><path style="fill:#fefefe;fill-opacity:1" id="path892" d="m 437.92532,1162.0906 a 29.486353,29.486353 0 1 1 -41.7,41.7 5.1084,5.1084 0 0 0 -7.2243,7.2244 h 0.003 a 34.594492,34.594492 0 0 0 48.921,-48.927 z" class="cls-5"/></g></g></g></svg>