<svg xmlns="http://www.w3.org/2000/svg" xmlns:svg="http://www.w3.org/2000/svg" id="svg2" width="192" height="192" version="1.1" viewBox="0 0 192 192"><defs id="defs4"><style id="style921"/></defs><metadata id="metadata7"/><g id="layer1" transform="translate(0,-860.36216)"><rect id="rect1090" width="153" height="153" x="19.5" y="879.862" rx="10" style="fill:#708cbd;fill-opacity:1;fill-rule:evenodd;stroke:none;stroke-opacity:1"/><g style="fill:#fff;fill-opacity:1" id="g1076" transform="matrix(0.27362001,0,0,0.27362001,-161.44661,770.75564)"><path id="path1072" d="m 932.92665,695.05713 q -5.57617,2.1685 -12.49475,2.1685 -8.7773,0 -13.01105,-4.13048 -4.1305,-4.1305 -4.1305,-12.80454 v -25.5058 h -7.9512 v -9.29362 l 8.36425,-1.65219 2.27178,-14.45673 h 12.39148 v 14.2502 h 14.25019 v 11.15234 h -14.25019 v 24.78297 q 0,3.30438 1.65219,4.6468 1.6522,1.34241 5.57617,1.34241 3.20113,0 7.33163,-0.61958 z" style="font-style:normal;font-variant:normal;font-weight:700;font-stretch:normal;font-size:92.3584px;line-height:1.25;font-family:'Amazon Ember';-inkscape-font-specification:'Amazon Ember Bold';letter-spacing:0;word-spacing:0;fill:#fff;fill-opacity:1;stroke-width:2.58156"/><path id="path1074" d="m 965.66072,697.22563 q -12.28822,0 -19.20681,-7.33163 -6.91857,-7.43488 -6.91857,-20.65247 0,-13.11431 6.91857,-20.44594 6.91859,-7.43489 19.20681,-7.43489 12.28821,0 19.2068,7.43489 6.91857,7.33163 6.91857,20.44594 0,13.21759 -6.91857,20.65247 -6.91859,7.33163 -19.2068,7.33163 z m 0,-11.56538 q 10.84255,0 10.84255,-16.41872 0,-16.31544 -10.84255,-16.31544 -10.84256,0 -10.84256,16.31544 0,16.41872 10.84256,16.41872 z" style="font-style:normal;font-variant:normal;font-weight:700;font-stretch:normal;font-size:92.3584px;line-height:1.25;font-family:'Amazon Ember';-inkscape-font-specification:'Amazon Ember Bold';letter-spacing:0;word-spacing:0;fill:#fff;fill-opacity:1;stroke-width:2.58156"/></g><path style="fill:#fff;fill-opacity:1;stroke-width:.532835" id="path1078" fill="#fff" fill-rule="evenodd" d="m 69.337851,957.24436 v -12.21593 c 0,-2.09835 -2.040749,-6.83923 -9.37514,-6.83923 -7.333051,0 -11.234456,4.55833 -11.234456,8.66443 l 6.129119,0.54526 c 0,0 1.365172,-4.10383 4.53377,-4.10383 3.168543,0 2.951147,2.55297 2.951147,3.10519 v 2.65409 c -4.059181,0.13599 -14.138828,1.28925 -14.138828,9.74323 0,9.09118 11.537164,9.4727 15.320646,3.59715 0.145998,0.23817 0.311707,0.47155 0.520045,0.69054 1.391759,1.45518 3.249216,3.19008 3.249216,3.19008 l 4.731024,-4.65057 c 0.0026,-8.9e-4 -2.686543,-2.10042 -2.686543,-4.38041 z m -14.01995,0.42893 c 0,-3.90487 4.2065,-4.69655 7.02545,-4.78953 v 3.3609 c -9.78e-4,6.65785 -7.02545,5.64973 -7.02545,1.42863 z" clip-rule="evenodd"/><path id="path1080" d="m 121.53959,966.30856 v -5.3956 l 13.64474,-15.5124 h -13.12589 v -5.60314 h 21.4787 v 5.39562 l -13.80029,15.51239 h 14.05968 v 5.60313 z" style="font-style:normal;font-variant:normal;font-weight:700;font-stretch:normal;font-size:92.3584px;line-height:1.25;font-family:'Amazon Ember';-inkscape-font-specification:'Amazon Ember Bold';letter-spacing:0;word-spacing:0;fill:#fff;fill-opacity:1;stroke-width:1.29702"/><path style="fill:#99bdfe;fill-opacity:1;stroke-width:1.22739" id="path1177" fill="#fff" fill-rule="evenodd" d="m 127.47587,984.95782 c -35.498874,16.80418 -57.530313,2.7444 -71.632802,-5.79577 -0.872307,-0.5376 -2.355856,0.12642 -1.068935,1.59687 4.698211,5.6656 20.095721,19.32398 40.194019,19.32398 20.112288,0 32.076898,-10.91518 33.573088,-12.82008 1.48638,-1.8877 0.43696,-2.9298 -1.06537,-2.305 z m 9.96888,-5.47665 c -0.95246,-1.23476 -5.79575,-1.46551 -8.84336,-1.09238 -3.05376,0.36085 -7.63561,2.21667 -7.23793,3.33113 0.20497,0.4173 0.62228,0.2308 2.7199,0.043 2.10252,-0.2087 7.994,-0.9488 9.22139,0.6481 1.2323,1.6066 -1.87913,9.2631 -2.44742,10.4979 -0.54987,1.2335 0.20989,1.5526 1.2409,0.7302 1.0175,-0.8223 2.85982,-2.9506 4.09458,-5.9638 1.22862,-3.028 1.97732,-7.25393 1.25194,-8.19411 z" clip-rule="evenodd"/></g><style id="style853" type="text/css"/></svg>