<svg xmlns="http://www.w3.org/2000/svg" xmlns:svg="http://www.w3.org/2000/svg" id="svg2" width="192" height="192" version="1.1" viewBox="0 0 192 192"><defs id="defs4"><style id="style921"/></defs><metadata id="metadata7"/><g id="layer1" transform="translate(0,-860.36216)"><rect id="rect988" width="153" height="153" x="19.5" y="879.862" rx="10" style="fill:#99bdfe;fill-opacity:1;fill-rule:evenodd;stroke:none;stroke-opacity:1"/><g id="g1174" transform="matrix(1.098841,0,0,1.098841,-9.488791,-96.162961)"><path style="fill:#fff;fill-opacity:1;stroke-width:1.12877" id="path1108" fill="#fff" fill-rule="evenodd" d="m 124.94676,971.74542 c -32.6465,15.454 -52.907696,2.5239 -65.877038,-5.3301 -0.802218,-0.4944 -2.166563,0.1163 -0.983047,1.4686 4.320706,5.2104 18.481015,17.7714 36.964397,17.7714 18.496238,0 29.499498,-10.0382 30.875468,-11.7901 1.36693,-1.736 0.40184,-2.6944 -0.97978,-2.1198 z m 9.16788,-5.0366 c -0.87593,-1.1355 -5.33005,-1.3477 -8.13279,-1.0046 -2.80838,0.3319 -7.02209,2.0386 -6.65636,3.0635 0.18851,0.3838 0.57228,0.2122 2.50136,0.039 1.93358,-0.1919 7.35167,-0.8725 8.48045,0.596 1.13328,1.4776 -1.72816,8.5188 -2.25077,9.6544 -0.5057,1.1344 0.19301,1.4278 1.14118,0.6716 0.93575,-0.7563 2.63004,-2.7136 3.76558,-5.4847 1.1299,-2.7847 1.81845,-6.671 1.15135,-7.5357 z" clip-rule="evenodd"/><text id="text1032" x="50.835" y="952.537" xml:space="preserve" style="font-weight:700;font-size:26.2681px;line-height:1.25;font-family:Now;-inkscape-font-specification:'Now Bold';letter-spacing:0;word-spacing:0;fill:#fff;fill-opacity:1;stroke-width:.656701"><tspan style="fill:#fff;fill-opacity:1;stroke-width:.656701" id="tspan1030" x="50.835" y="952.537">photos</tspan></text></g></g><style id="style853" type="text/css"/></svg>