<svg xmlns="http://www.w3.org/2000/svg" xmlns:svg="http://www.w3.org/2000/svg" id="svg2" width="192" height="192" version="1.1" viewBox="0 0 192 192"><metadata id="metadata7"/><g id="layer1" transform="translate(0,-860.36216)"><rect id="rect842" width="153" height="153" x="19.5" y="879.862" rx="10" style="fill:#f8c18c;fill-opacity:1;fill-rule:evenodd;stroke:none;stroke-opacity:1"/><path style="color:#000;font-style:normal;font-variant:normal;font-weight:400;font-stretch:normal;font-size:medium;line-height:normal;font-family:sans-serif;font-variant-ligatures:normal;font-variant-position:normal;font-variant-caps:normal;font-variant-numeric:normal;font-variant-alternates:normal;font-variant-east-asian:normal;font-feature-settings:normal;font-variation-settings:normal;text-indent:0;text-align:start;text-decoration:none;text-decoration-line:none;text-decoration-style:solid;text-decoration-color:#000;letter-spacing:normal;word-spacing:normal;text-transform:none;writing-mode:lr-tb;direction:ltr;text-orientation:mixed;dominant-baseline:auto;baseline-shift:baseline;text-anchor:start;white-space:normal;shape-padding:0;shape-margin:0;inline-size:0;clip-rule:nonzero;display:inline;overflow:visible;visibility:visible;isolation:auto;mix-blend-mode:normal;color-interpolation:sRGB;color-interpolation-filters:linearRGB;solid-color:#000;solid-opacity:1;vector-effect:none;fill:#fff;fill-opacity:1;fill-rule:nonzero;stroke:none;stroke-width:30;stroke-linecap:round;stroke-linejoin:round;stroke-miterlimit:4;stroke-dasharray:none;stroke-dashoffset:0;stroke-opacity:1;color-rendering:auto;image-rendering:auto;shape-rendering:auto;text-rendering:auto;enable-background:accumulate;stop-color:#000" id="path1006" d="m 74.754875,919.86217 c -1.023141,-0.002 -2.004904,0.40376 -2.727362,1.12824 -1.497337,1.50152 -1.493754,3.93263 0.008,5.42973 l 23.968393,23.89591 23.968394,-23.89591 c 1.50174,-1.4971 1.50534,-3.92821 0.008,-5.42973 -0.72245,-0.72448 -1.70422,-1.13054 -2.72736,-1.12824 -1.01316,0.002 -1.98435,0.40494 -2.70187,1.12024 l -6.8394,6.81841 -0.0255,-0.0255 -11.682274,11.68177 -11.682266,-11.68177 -0.02549,0.0255 -6.839401,-6.81841 c -0.71752,-0.7153 -1.688708,-1.11797 -2.701868,-1.12024 z"/><path style="color:#000;font-style:normal;font-variant:normal;font-weight:400;font-stretch:normal;font-size:medium;line-height:normal;font-family:sans-serif;font-variant-ligatures:normal;font-variant-position:normal;font-variant-caps:normal;font-variant-numeric:normal;font-variant-alternates:normal;font-variant-east-asian:normal;font-feature-settings:normal;font-variation-settings:normal;text-indent:0;text-align:start;text-decoration:none;text-decoration-line:none;text-decoration-style:solid;text-decoration-color:#000;letter-spacing:normal;word-spacing:normal;text-transform:none;writing-mode:lr-tb;direction:ltr;text-orientation:mixed;dominant-baseline:auto;baseline-shift:baseline;text-anchor:start;white-space:normal;shape-padding:0;shape-margin:0;inline-size:0;clip-rule:nonzero;display:inline;overflow:visible;visibility:visible;isolation:auto;mix-blend-mode:normal;color-interpolation:sRGB;color-interpolation-filters:linearRGB;solid-color:#000;solid-opacity:1;vector-effect:none;fill:#fff;fill-opacity:1;fill-rule:nonzero;stroke:none;stroke-width:30;stroke-linecap:round;stroke-linejoin:round;stroke-miterlimit:4;stroke-dasharray:none;stroke-dashoffset:0;stroke-opacity:1;color-rendering:auto;image-rendering:auto;shape-rendering:auto;text-rendering:auto;enable-background:accumulate;stop-color:#000" id="path1010" d="m 132.49999,935.11704 c 0.002,-1.02314 -0.40375,-2.00491 -1.12824,-2.72736 -1.50151,-1.49734 -3.93262,-1.49376 -5.42972,0.008 l -23.89591,23.9684 23.89591,23.96839 c 1.4971,1.50174 3.92821,1.50533 5.42972,0.008 0.72449,-0.72246 1.13055,-1.70422 1.12824,-2.72736 -0.002,-1.01316 -0.40493,-1.98434 -1.12024,-2.70187 l -6.8184,-6.8394 0.0255,-0.0255 -11.68177,-11.68226 11.68177,-11.68227 -0.0255,-0.0255 6.8184,-6.8394 c 0.71531,-0.71752 1.11798,-1.6887 1.12024,-2.70186 z"/><path style="color:#000;font-style:normal;font-variant:normal;font-weight:400;font-stretch:normal;font-size:medium;line-height:normal;font-family:sans-serif;font-variant-ligatures:normal;font-variant-position:normal;font-variant-caps:normal;font-variant-numeric:normal;font-variant-alternates:normal;font-variant-east-asian:normal;font-feature-settings:normal;font-variation-settings:normal;text-indent:0;text-align:start;text-decoration:none;text-decoration-line:none;text-decoration-style:solid;text-decoration-color:#000;letter-spacing:normal;word-spacing:normal;text-transform:none;writing-mode:lr-tb;direction:ltr;text-orientation:mixed;dominant-baseline:auto;baseline-shift:baseline;text-anchor:start;white-space:normal;shape-padding:0;shape-margin:0;inline-size:0;clip-rule:nonzero;display:inline;overflow:visible;visibility:visible;isolation:auto;mix-blend-mode:normal;color-interpolation:sRGB;color-interpolation-filters:linearRGB;solid-color:#000;solid-opacity:1;vector-effect:none;fill:#fff;fill-opacity:1;fill-rule:nonzero;stroke:none;stroke-width:30;stroke-linecap:round;stroke-linejoin:round;stroke-miterlimit:4;stroke-dasharray:none;stroke-dashoffset:0;stroke-opacity:1;color-rendering:auto;image-rendering:auto;shape-rendering:auto;text-rendering:auto;enable-background:accumulate;stop-color:#000" id="path1012" d="m 117.24513,992.86215 c 1.02314,0.002 2.0049,-0.40375 2.72736,-1.12823 1.49734,-1.50152 1.49376,-3.93263 -0.008,-5.42973 L 95.9961,962.40828 72.027707,986.30419 c -1.501738,1.4971 -1.505332,3.92821 -0.008,5.42973 0.72246,0.72448 1.704224,1.13054 2.727362,1.12823 1.01316,-0.002 1.984347,-0.40493 2.701868,-1.12024 l 6.839401,-6.8184 0.02549,0.0255 11.682267,-11.68176 11.682265,11.68176 0.0255,-0.0255 6.8394,6.8184 c 0.71752,0.71531 1.68871,1.11798 2.70187,1.12024 z"/><path style="color:#000;font-style:normal;font-variant:normal;font-weight:400;font-stretch:normal;font-size:medium;line-height:normal;font-family:sans-serif;font-variant-ligatures:normal;font-variant-position:normal;font-variant-caps:normal;font-variant-numeric:normal;font-variant-alternates:normal;font-variant-east-asian:normal;font-feature-settings:normal;font-variation-settings:normal;text-indent:0;text-align:start;text-decoration:none;text-decoration-line:none;text-decoration-style:solid;text-decoration-color:#000;letter-spacing:normal;word-spacing:normal;text-transform:none;writing-mode:lr-tb;direction:ltr;text-orientation:mixed;dominant-baseline:auto;baseline-shift:baseline;text-anchor:start;white-space:normal;shape-padding:0;shape-margin:0;inline-size:0;clip-rule:nonzero;display:inline;overflow:visible;visibility:visible;isolation:auto;mix-blend-mode:normal;color-interpolation:sRGB;color-interpolation-filters:linearRGB;solid-color:#000;solid-opacity:1;vector-effect:none;fill:#fff;fill-opacity:1;fill-rule:nonzero;stroke:none;stroke-width:30;stroke-linecap:round;stroke-linejoin:round;stroke-miterlimit:4;stroke-dasharray:none;stroke-dashoffset:0;stroke-opacity:1;color-rendering:auto;image-rendering:auto;shape-rendering:auto;text-rendering:auto;enable-background:accumulate;stop-color:#000" id="path1014" d="m 59.500012,977.60729 c -0.0023,1.02314 0.403753,2.0049 1.128238,2.72736 1.501519,1.49734 3.932627,1.49376 5.429728,-0.008 L 89.953887,956.35826 66.057978,932.38987 c -1.497101,-1.50174 -3.928209,-1.50533 -5.429728,-0.008 -0.724485,0.72246 -1.130542,1.70423 -1.128238,2.72737 0.0023,1.01316 0.404936,1.98434 1.12024,2.70186 l 6.818403,6.8394 -0.02549,0.0255 11.681768,11.68226 -11.681768,11.68227 0.02549,0.0255 -6.818403,6.8394 c -0.715304,0.71752 -1.117975,1.68871 -1.12024,2.70187 z"/></g><style id="style853" type="text/css"/></svg>