<svg xmlns="http://www.w3.org/2000/svg" xmlns:xlink="http://www.w3.org/1999/xlink" width="100%" height="100%" version="1.1" viewBox="0 0 192 192" xml:space="preserve" style="fill-rule:evenodd;clip-rule:evenodd;stroke-linejoin:round;stroke-miterlimit:2"><g id="Layer1"><g><path d="M164.5,21.5C164.5,15.981 160.019,11.5 154.5,11.5L21.5,11.5C15.981,11.5 11.5,15.981 11.5,21.5L11.5,154.5C11.5,160.019 15.981,164.5 21.5,164.5L154.5,164.5C160.019,164.5 164.5,160.019 164.5,154.5L164.5,21.5Z" transform="matrix(1,0,0,1,8,8)" style="fill:#4a4a4a"/></g><path d="M92.363,19.5C92.314,21.386 92.287,23.372 92.287,25.421C92.287,37.781 93.253,47.817 94.442,47.817L94.442,50.842C93.092,50.842 91.996,39.451 91.996,25.421C91.996,23.382 92.019,21.4 92.063,19.5L92.363,19.5Z" style="fill:#a0a5af"/><path d="M75.411,40.378L113.472,40.378L130.942,64.587L130.942,146.003L57.942,146.003L57.942,64.587L75.411,40.378ZM94.442,48.075C96.619,48.075 98.387,49.843 98.387,52.021C98.387,54.198 96.619,55.966 94.442,55.966C92.264,55.966 90.497,54.198 90.497,52.021C90.497,49.843 92.264,48.075 94.442,48.075Z" style="fill:#fff"/><path d="M122.07,122.003C123.456,123.548 121.244,129.226 121.164,129.472C121.164,129.472 125.597,125.016 124.925,119.506C119.737,117.533 114.418,120.854 114.418,120.854C114.418,120.854 119.453,119.203 122.07,122.003" style="fill:#f8c18c"/><g><text x="133.701" y="124.178" transform="matrix(1,0,0,1,-59.701,-9.21076)" style="font-family:'OfficinaSans-Book','ITC Officina Sans Book';font-weight:500;font-size:90.254px;fill:#4a4a4a;stroke:#4a4a4a;stroke-width:2.33px">a</text></g><path d="M120.711,123.406C88.462,151.408 62.828,118.861 62.828,118.861C62.828,118.861 87.544,139.047 120.711,123.406" style="fill:#f8c18c"/><path d="M96.821,19.5C96.864,21.4 96.888,23.382 96.888,25.421C96.888,39.451 95.792,50.842 94.442,50.842C94.298,49.944 94.233,49.032 94.442,48.075C95.631,48.075 96.597,37.781 96.597,25.421C96.597,23.372 96.57,21.386 96.52,19.5L96.821,19.5Z" style="fill:#a0a5af"/></g></svg>