<svg xmlns="http://www.w3.org/2000/svg" xmlns:svg="http://www.w3.org/2000/svg" id="svg2" width="192" height="192" version="1.1" viewBox="0 0 192 192"><metadata id="metadata7"/><g id="layer1" transform="translate(0,-860.36216)"><rect id="rect976" width="153" height="153" x="19.5" y="879.862" rx="10" style="fill:#56595b;fill-opacity:1;fill-rule:evenodd;stroke:none;stroke-opacity:1"/><path style="fill:#97db99;fill-opacity:1;fill-rule:evenodd;stroke-width:.328129" id="path967" d="m 104.12129,938.3139 c -4.08079,-4.43075 -8.161412,-5.24715 -10.564192,-5.285 -1.11559,-0.0176 -1.74646,1.0161 -1.54288,2.10665 0.64172,3.43762 2.07934,10.61017 6.645682,14.92964 2.86876,2.63899 7.80615,2.81187 10.56472,2.66971 1.11569,-0.0575 1.83599,-1.07729 1.52701,-2.15111 -0.80054,-2.78214 -2.71284,-8.00713 -6.63002,-12.26989 m -7.28217,28.13708 c -3.700262,4.65532 -4.646012,8.62188 -5.320302,10.9064 -0.31365,1.0627 0.0882,2.02353 1.20297,2.06954 3.483232,0.14376 10.445322,-0.47393 13.882462,-5.69312 3.11338,-4.55113 4.06108,-9.36164 4.34712,-12.04975 0.1182,-1.1108 -0.78776,-2.01348 -1.89411,-1.86024 -3.05952,0.42381 -8.3804,1.89416 -12.21814,6.62717 z m -18.868742,-5.29667 c 4.70181,0.5006 7.52912,-0.75261 9.06687,-1.82241 0.9153,-0.63677 1.03017,-2.08803 0.23709,-2.86602 -2.19049,-2.14877 -6.89619,-5.7382 -11.95197,-5.7382 -3.09967,0.10657 -6.19894,1.93831 -8.006,3.22292 -0.91048,0.64725 -0.79271,1.67293 0.0745,2.36615 1.99183,1.59232 5.47782,4.36315 10.57956,4.83756 z m -5.79313,3.97267 c -8.98381,-1.45683 -13.78234,-5.49618 -16.02865,-7.61105 -0.81015,-0.76274 -0.90564,-2.00285 -0.0363,-2.7023 3.193,-2.56907 10.88474,-7.36446 19.54019,-7.23139 10.59333,0.3314 18.37196,6.28957 18.37196,6.28957 h 6.785712 c -5.461382,-1.65508 -12.081722,-4.63417 -15.061132,-11.25483 -2.29428,-5.30555 -2.22807,-8.74793 -2.92301,-12.90991 -0.18403,-1.10214 0.51788,-2.04653 1.63537,-2.04541 3.86795,0.004 12.560302,0.58202 19.659602,5.19019 8.60682,5.62742 13.40638,20.52351 13.57207,21.01996 h 5.29601 l -1.06956,-24.46014 a 1.8893701,1.8893701 0 0 1 1.93475,-1.97132 l 2.57402,0.0643 c 1.11736,0.0279 1.89342,0.94848 1.82012,2.06338 -0.66014,10.04036 0.21566,43.93283 0.25127,52.57425 0.005,1.11508 -0.94781,2.14761 -2.06416,2.17304 -0.95779,0.0219 -2.08347,-0.007 -3.00439,-0.1535 -1.06382,-0.16927 -1.71607,-1.734 -1.65466,-2.85003 0.32179,-5.84755 1.24261,-22.3973 1.37898,-22.80613 h -5.13162 c 0,0.33141 -0.49645,14.06853 -10.92342,21.35137 -8.11145,5.66474 -19.026272,5.62111 -23.475282,5.32218 -1.1147,-0.0749 -1.50793,-0.97197 -1.24373,-2.05236 0.59865,-2.4481 0.35363,-5.65277 4.52594,-12.04203 6.1242,-9.26867 14.234242,-12.57916 14.069192,-12.57916 -0.49646,0.16603 -6.785712,0.16603 -6.951742,0.16619 -0.16538,0.16555 -6.62001,8.77237 -21.84751,6.45513 z"/></g><style id="style853" type="text/css"/></svg>