<svg xmlns="http://www.w3.org/2000/svg" xmlns:svg="http://www.w3.org/2000/svg" id="svg2" width="192" height="192" version="1.1" viewBox="0 0 192 192"><metadata id="metadata7"/><g id="layer1" transform="translate(0,-860.36216)"><rect id="rect937" width="152" height="152" x="20" y="880.362" rx="9.935" ry="9.935" style="fill:#99bdfe;fill-opacity:1;fill-rule:evenodd;stroke:none;stroke-width:.993464;stroke-opacity:1"/><g id="g1096" transform="translate(0,-1.0749316)"><path style="font-weight:700;font-size:40px;line-height:1.25;font-family:Now;-inkscape-font-specification:'Now Bold';letter-spacing:0;word-spacing:0;fill:#fff;fill-opacity:1" id="path957" d="m 52.118622,963.153 6.809778,-1.82467 -18.196571,-26.18253 -7.147851,1.91526 -2.667427,31.77302 6.809777,-1.82467 0.324635,-5.9363 10.818369,-2.89877 z m -13.800794,-7.84542 0.638868,-12.49097 6.798761,10.49807 z"/><path style="font-weight:700;font-size:40px;line-height:1.25;font-family:Now;-inkscape-font-specification:'Now Bold';letter-spacing:0;word-spacing:0;fill:#fff;fill-opacity:1" id="path959" d="m 67.557794,937.89645 c -2.221629,0.59529 -3.86878,2.17544 -4.768143,4.22816 l -0.634107,-2.36652 -6.181925,1.65644 5.176381,19.31852 6.181925,-1.65644 -3.002301,-11.20474 c -0.465874,-1.73867 0.633609,-3.4309 2.420572,-3.90971 1.786963,-0.47882 3.392072,0.48872 3.857946,2.22739 l 3.002301,11.20474 6.133629,-1.64351 -3.274061,-12.21896 c -1.138804,-4.25007 -5.09681,-6.6577 -8.912217,-5.63537 z"/><path id="path972" d="m 85.153247,954.3014 6.133629,-1.6435 -5.176381,-19.31852 -6.133629,1.6435 z" style="font-weight:700;font-size:40px;line-height:1.25;font-family:Now;-inkscape-font-specification:'Now Bold';letter-spacing:0;word-spacing:0;fill:#fff;fill-opacity:1"/><path style="font-weight:700;font-size:40px;line-height:1.25;font-family:Now;-inkscape-font-specification:'Now Bold';letter-spacing:0;word-spacing:0;fill:#fff;fill-opacity:1" id="path963" d="m 114.88807,925.21434 c -2.75289,0.73764 -4.54146,2.56274 -5.17946,5.0113 -1.65434,-1.7308 -3.94854,-2.56546 -6.41165,-1.90547 -2.22163,0.59529 -3.72389,2.13662 -4.52666,4.16345 l -0.63411,-2.36651 -6.181921,1.65644 5.176381,19.31852 6.18193,-1.65645 -3.00231,-11.20474 c -0.37528,-1.40059 0.0541,-3.2756 1.93761,-3.7803 1.69037,-0.45293 3.16353,0.60172 3.61647,2.29209 l 3.0023,11.20474 6.18192,-1.65644 -3.0023,-11.20474 c -0.37528,-1.40059 0.0541,-3.2756 1.93761,-3.7803 1.69037,-0.45293 3.21183,0.58878 3.66476,2.27915 l 3.0023,11.20474 6.13363,-1.6435 -3.27406,-12.21896 c -1.20351,-4.49156 -4.37236,-6.85182 -8.62244,-5.71302 z"/><text id="text929" x="-220.24" y="981.711" transform="rotate(-15)" xml:space="preserve" style="font-weight:700;font-size:40px;line-height:1.25;font-family:Now;-inkscape-font-specification:'Now Bold';letter-spacing:0;word-spacing:0;fill:#fff;fill-opacity:1"><tspan id="tspan927" x="-220.24" y="981.711">Lovers</tspan></text></g><path id="path1072" d="m 84.435799,913.14872 c 1.084606,0 1.522582,4.22551 2.400046,4.86302 0.877465,0.63752 5.031505,-0.25169 5.366667,0.77983 0.335162,1.03152 -3.548195,2.75381 -3.883357,3.78533 -0.335161,1.03152 1.794201,4.70747 0.916736,5.34499 -0.877464,0.63751 -3.715487,-2.52356 -4.800092,-2.52356 -1.084606,0 -3.922629,3.16107 -4.800093,2.52356 -0.877465,-0.63752 1.251898,-4.31347 0.916736,-5.34499 -0.335162,-1.03152 -4.218518,-2.75381 -3.883357,-3.78533 0.335162,-1.03153 4.489203,-0.14231 5.366667,-0.77983 0.877465,-0.63751 1.315441,-4.86302 2.400047,-4.86302 z" transform="matrix(1.1639671,0.31188403,-0.31188403,1.1639671,270.22436,-179.89128)" style="fill:#fff;fill-opacity:1;stroke:none;stroke-width:7.77506;stroke-linecap:round;stroke-linejoin:round;stroke-opacity:.5;stop-color:#000"/></g><style id="style853" type="text/css"/><style id="style853-9" type="text/css"/><style id="style853-3" type="text/css"/></svg>