<svg xmlns="http://www.w3.org/2000/svg" xmlns:svg="http://www.w3.org/2000/svg" id="svg2" width="192" height="192" version="1.1" viewBox="0 0 192 192"><metadata id="metadata7"/><g id="layer1" transform="translate(0,-860.36216)"><g id="g879" transform="translate(0,860.36216)" style="display:inline"><rect id="rect2" width="153" height="153" x="19.5" y="19.5" rx="10" ry="10" style="opacity:1;fill:#8c73bd;fill-opacity:1;fill-rule:evenodd;stroke:none;stroke-opacity:1"/><path id="path970" d="m 96.182011,59.502152 c -1.424779,-0.03354 -2.831315,0.325604 -4.065609,1.038097 L 67.231808,74.907364 c -2.40268,1.387366 -3.882825,3.951027 -3.883013,6.725482 v 28.734224 c 1.89e-4,2.77446 1.480333,5.33812 3.883013,6.72548 l 24.884594,14.36713 c 2.402842,1.38709 5.363143,1.38709 7.766007,0 l 24.885801,-14.36713 c 2.40267,-1.38736 3.88282,-3.95102 3.883,-6.72548 V 81.632846 c -1.8e-4,-2.774455 -1.48033,-5.338116 -3.883,-6.725482 L 99.882409,60.540249 c -1.127023,-0.650564 -2.39943,-1.007525 -3.700398,-1.038097 z" style="color:#000;font-style:normal;font-variant:normal;font-weight:400;font-stretch:normal;font-size:medium;line-height:normal;font-family:sans-serif;text-indent:0;text-align:start;text-decoration:none;text-decoration-line:none;text-decoration-style:solid;text-decoration-color:#000;letter-spacing:normal;word-spacing:normal;text-transform:none;writing-mode:lr-tb;direction:ltr;baseline-shift:baseline;text-anchor:start;white-space:normal;clip-rule:nonzero;display:inline;overflow:visible;visibility:visible;isolation:auto;mix-blend-mode:normal;color-interpolation:sRGB;color-interpolation-filters:linearRGB;solid-color:#000;solid-opacity:1;fill:#fff;fill-opacity:1;fill-rule:nonzero;stroke:none;stroke-width:10.7222;stroke-linecap:butt;stroke-linejoin:round;stroke-miterlimit:4;stroke-dasharray:none;stroke-dashoffset:0;stroke-opacity:1;color-rendering:auto;image-rendering:auto;shape-rendering:auto;text-rendering:auto;enable-background:accumulate"/><path style="color:#000;font-style:normal;font-variant:normal;font-weight:400;font-stretch:normal;font-size:medium;line-height:normal;font-family:sans-serif;font-variant-ligatures:normal;font-variant-position:normal;font-variant-caps:normal;font-variant-numeric:normal;font-variant-alternates:normal;font-variant-east-asian:normal;font-feature-settings:normal;font-variation-settings:normal;text-indent:0;text-align:start;text-decoration:none;text-decoration-line:none;text-decoration-style:solid;text-decoration-color:#000;letter-spacing:normal;word-spacing:normal;text-transform:none;writing-mode:lr-tb;direction:ltr;text-orientation:mixed;dominant-baseline:auto;baseline-shift:baseline;text-anchor:start;white-space:normal;shape-padding:0;shape-margin:0;inline-size:0;clip-rule:nonzero;display:inline;overflow:visible;visibility:visible;isolation:auto;mix-blend-mode:normal;color-interpolation:sRGB;color-interpolation-filters:linearRGB;solid-color:#000;solid-opacity:1;vector-effect:none;fill:#8c73bd;fill-opacity:1;fill-rule:nonzero;stroke:none;stroke-width:7.88841;stroke-linecap:round;stroke-linejoin:miter;stroke-miterlimit:4;stroke-dasharray:none;stroke-dashoffset:0;stroke-opacity:1;color-rendering:auto;image-rendering:auto;shape-rendering:auto;text-rendering:auto;enable-background:accumulate;stop-color:#000" id="path972" d="m 91.90635,89.95394 -9.922662,6.958806 c -1.783581,1.250784 -2.215408,3.710674 -0.964485,5.494154 1.250783,1.78359 3.710673,2.21542 5.494159,0.96449 l 5.393147,-3.782682 a 7.1287345,7.1287345 -180 0 1 8.186981,-10e-7 l 5.39315,3.782683 c 1.78349,1.25093 4.24338,0.8191 5.49416,-0.96449 1.25092,-1.78348 0.8191,-4.243368 -0.96448,-5.494154 l -9.92267,-6.958807 a 7.1295747,7.1295747 179.99999 0 0 -8.1873,10e-7 z"/></g></g><style id="style853" type="text/css"/></svg>