<svg xmlns="http://www.w3.org/2000/svg" xmlns:svg="http://www.w3.org/2000/svg" id="svg2" width="192" height="192" version="1.1" viewBox="0 0 192 192"><metadata id="metadata7"/><g id="layer1" transform="translate(0,-860.36216)"><g id="g1301" transform="matrix(0.87500014,0,0,0.87500014,11.99999,119.54513)"><rect style="fill:#575a5c;fill-opacity:1;fill-rule:evenodd;stroke:none;stroke-width:1;stroke-opacity:1" id="rect852" width="116.428" height="160.432" x="18.172" y="868.362" rx="9.168"/><rect style="fill:#4c4c4c;fill-opacity:1;stroke-width:10;stroke-linejoin:round;stroke-dasharray:40,10;paint-order:markers fill stroke" id="rect930" width="45.365" height="6.922" x="31.021" y="1007.519" rx="3.461" ry="3.461"/><rect style="fill:#4c4c4c;fill-opacity:1;stroke-width:9.99992;stroke-linejoin:round;stroke-dasharray:40,9.99992;paint-order:markers fill stroke" id="rect936" width="19.875" height="6.922" x="31.021" y="986.752" rx="3.461" ry="3.461"/><rect style="fill:#4c4c4c;fill-opacity:1;stroke-width:10;stroke-linejoin:round;stroke-dasharray:40,10;paint-order:markers fill stroke" id="rect942" width="54.59" height="6.922" x="31.021" y="965.985" rx="3.461" ry="3.461"/><path style="fill:#fefefe;fill-opacity:1;stroke-width:11.1032;stroke-linejoin:round;stroke-dasharray:44.4129,11.1032;paint-order:markers fill stroke" id="path854" d="m 100.42566,892.55442 14.79475,29.97743 a 19.02113,19.02113 36.000002 0 0 14.32172,10.40535 l 33.08207,4.8071 a 4.935295,4.935295 72.000002 0 1 2.7352,8.4181 l -23.9384,23.33418 a 19.02113,19.02113 108 0 0 -5.47042,16.8362 l 5.65109,32.94842 a 4.935295,4.935295 144 0 1 -7.16086,5.2026 l -29.5895,-15.5561 a 19.02113,19.02113 1.5496478e-6 0 0 -17.702625,0 l -29.589497,15.5561 a 4.935295,4.935295 36.000002 0 1 -7.160863,-5.2026 l 5.651091,-32.94842 a 19.02113,19.02113 72.000002 0 0 -5.470412,-16.8362 L 26.640599,946.1624 a 4.935295,4.935295 108 0 1 2.735207,-8.4181 l 33.082062,-4.8071 a 19.02113,19.02113 144 0 0 14.321728,-10.40535 l 14.794749,-29.97743 a 4.935295,4.935295 1.5496474e-6 0 1 8.851315,0 z" transform="matrix(0.84507842,-0.31144195,0.31144195,0.84507842,-263.87756,195.05076)"/><rect style="fill:#84878d;fill-opacity:1;stroke-width:10;stroke-linejoin:round;stroke-dasharray:40,10;paint-order:markers fill stroke" id="rect882" width="72.926" height="6.922" x="31.021" y="882.405" rx="3.461" ry="3.461"/><rect style="fill:#84878d;fill-opacity:1;stroke-width:10;stroke-linejoin:round;stroke-dasharray:40,10;paint-order:markers fill stroke" id="rect916" width="21.687" height="6.922" x="31.021" y="903.172" rx="3.461" ry="3.461"/><rect style="fill:#84878d;fill-opacity:1;stroke-width:9.99992;stroke-linejoin:round;stroke-dasharray:40,9.99992;paint-order:markers fill stroke" id="rect928" width="40.374" height="6.922" x="31.021" y="923.939" rx="3.461" ry="3.461"/><rect style="fill:#84878d;fill-opacity:1;stroke-width:10;stroke-linejoin:round;stroke-dasharray:40,10;paint-order:markers fill stroke" id="rect946" width="21.687" height="6.922" x="61.102" y="903.172" rx="3.461" ry="3.461"/><path id="path875" d="m 97.441993,942.82727 c -0.219055,2.10996 -0.437601,4.22012 -0.682092,6.32682 -0.318247,2.74224 -1.035283,7.1897 -2.122826,9.72248 -1.804952,4.20357 -4.774502,7.90102 -8.459629,10.62184 -2.217946,1.63756 -6.253548,3.62688 -8.680605,4.94402 -3.138282,1.70311 -6.275948,3.40725 -9.41229,5.1139 -2.425568,1.31987 -2.347179,3.30506 0.176136,4.42682 4.441069,1.97431 8.884867,3.94358 13.305209,5.96254 2.511641,1.14718 6.553206,3.13691 8.651123,4.92477 3.590585,3.05994 6.299548,7.14424 7.781709,11.62924 0.865065,2.6177 1.50331,7.0713 2.006502,9.7865 0.64646,3.4883 1.29356,6.9765 1.94358,10.4641 0.50595,2.7147 2.41907,3.254 4.26546,1.2007 3.2485,-3.6127 6.49159,-7.231 9.77686,-10.8094 1.86735,-2.034 5.0088,-5.2628 7.35688,-6.7065 4.01387,-2.4678 8.72874,-3.7827 13.44672,-3.8108 2.7569,-0.016 7.19042,0.749 9.92838,1.1082 3.5277,0.4627 7.05539,0.9255 10.58309,1.3882 2.73797,0.3591 3.83945,-1.2891 2.45709,-3.6796 -2.41117,-4.1696 -4.82481,-8.33825 -7.19882,-12.52858 -1.36113,-2.40252 -3.47838,-6.37896 -4.13903,-9.05501 -1.13686,-4.60496 -0.94497,-9.53114 0.48982,-14.05851 0.83289,-2.62811 2.93069,-6.60848 4.12094,-9.10022 1.53781,-3.21935 3.07563,-6.43861 4.60945,-9.65984 1.18716,-2.49321 -0.0441,-4.05492 -2.74488,-3.4792 -4.76091,1.01489 -9.52034,2.03867 -14.29123,3.00321 -2.70641,0.54716 -7.14637,1.30934 -9.89434,1.09421 -4.68788,-0.36701 -9.26381,-2.07387 -13.09125,-4.81676 -2.24095,-1.60595 -5.37879,-4.83024 -7.3818,-6.73114 -2.57898,-2.44751 -5.15845,-4.89451 -7.73973,-7.3396 -2.00479,-1.89902 -3.866132,-1.21084 -4.155784,1.53535 -0.206825,1.9609 -0.619489,5.77561 -0.904643,8.52226 z" style="fill:#9bbfff;fill-opacity:1;stroke-width:10;stroke-linejoin:round;stroke-dasharray:40.0001,10;paint-order:markers fill stroke"/></g></g><style id="style853" type="text/css"/></svg>