<svg xmlns="http://www.w3.org/2000/svg" xmlns:svg="http://www.w3.org/2000/svg" id="svg2" width="192" height="192" version="1.1" viewBox="0 0 192 192"><defs id="defs4"><rect id="rect904" width="95.059" height="100.449" x="69.861" y="934.295"/></defs><metadata id="metadata7"/><g id="layer1" transform="translate(0,-860.36216)"><circle style="fill:#99dc9b;fill-opacity:1;stroke:none;stroke-width:.25067;stop-color:#000" id="path925" cx="96" cy="956.362" r="88"/><path style="fill:#fefefe;fill-opacity:1;stroke:none;stroke-width:1.72511995;stroke-linecap:round;stroke-linejoin:round;stroke-miterlimit:4;stroke-dasharray:none;stroke-opacity:1" id="rect4182" d="M 82.576172 59.5 C 82.155022 59.504 81.729115 59.670184 81.396484 59.996094 C 80.73123 60.647914 80.698661 61.685759 81.324219 62.324219 L 85.037109 66.113281 C 83.872217 66.953116 82.819315 67.92608 81.894531 69.003906 C 81.893982 69.001934 81.893127 69.000019 81.892578 68.998047 C 79.307111 72.012328 77.75 75.876342 77.75 80.103516 L 77.75 80.759766 L 84.712891 80.759766 L 114.25 80.759766 L 114.25 80.103516 C 114.25 74.363916 111.38555 69.302091 106.96289 66.113281 L 110.67383 62.324219 C 111.2994 61.685759 111.26876 60.647924 110.60352 59.996094 C 109.93826 59.344274 108.89901 59.334168 108.27344 59.972656 L 103.97266 64.361328 C 101.56363 63.24109 98.866422 62.595703 96 62.595703 C 93.133578 62.595703 90.436364 63.241088 88.027344 64.361328 L 83.726562 59.972656 C 83.413781 59.653426 82.997322 59.49564 82.576172 59.5 z M 70.117188 83.605469 C 67.545841 83.605469 65.474609 85.592777 65.474609 88.060547 L 65.474609 109.9375 C 65.474609 112.40527 67.545843 114.39063 70.117188 114.39062 C 72.688532 114.39062 74.757812 112.40527 74.757812 109.9375 L 74.757812 88.060547 C 74.757812 85.592777 72.688531 83.605469 70.117188 83.605469 z M 121.88281 83.605469 C 119.31146 83.605469 117.24219 85.592777 117.24219 88.060547 L 117.24219 109.9375 C 117.24219 110.06862 117.26975 110.19214 117.28125 110.32031 C 117.48575 112.60413 119.44838 114.39064 121.88281 114.39062 C 124.45415 114.39062 126.52539 112.40527 126.52539 109.9375 L 126.52539 107.58594 L 126.52539 88.060547 C 126.52539 85.592777 124.45415 83.605469 121.88281 83.605469 z M 77.75 83.804688 L 77.75 114.4375 C 77.75 115.94905 79.080444 117.16602 80.732422 117.16602 L 83.708984 117.16602 L 83.708984 128.04492 C 83.708984 130.33439 85.476828 132.20927 87.808594 132.4707 C 87.809194 132.4629 87.809948 132.45506 87.810547 132.44727 C 87.990165 132.46769 88.166049 132.5 88.351562 132.5 C 90.92291 132.5 92.992188 130.5127 92.992188 128.04492 L 92.992188 117.5 L 92.992188 117.16602 L 94.125 117.16602 L 99.007812 117.16602 L 99.007812 128.04492 C 99.007813 130.5127 101.07709 132.5 103.64844 132.5 C 106.21978 132.5 108.29102 130.5127 108.29102 128.04492 L 108.29102 117.16602 L 111.26758 117.16602 C 112.91956 117.16602 114.25 115.94905 114.25 114.4375 L 114.25 111.21484 L 114.25 83.804688 L 85.300781 83.804688 L 77.75 83.804688 z" transform="translate(0,860.36216)"/><circle style="fill:#99dc9b;fill-opacity:1;stroke:none;stroke-width:.0794772;stop-color:#000" id="path892" cx="88.429" cy="933.379" r="1.457"/><circle style="fill:#99dc9b;fill-opacity:1;stroke:none;stroke-width:.0794772;stop-color:#000" id="circle894" cx="103.571" cy="933.379" r="1.457"/></g></svg>