<svg xmlns="http://www.w3.org/2000/svg" xmlns:svg="http://www.w3.org/2000/svg" id="svg2" width="192" height="192" version="1.1" viewBox="0 0 192 192"><metadata id="metadata7"/><g id="layer1" transform="translate(0,-860.36216)"><path id="path1126" d="m 125.08731,1015.2753 a 29.086803,29.086803 0 0 1 -14.5434,25.1899 29.086803,29.086803 0 0 1 -29.086801,0 29.086803,29.086803 0 0 1 -14.543401,-25.1899" style="fill:#708cbd;fill-opacity:1;stroke-width:44.7554;stroke-linecap:square;stop-color:#000"/><path style="fill:#99bdfe;fill-opacity:1;stroke-width:21.6795;stroke-linecap:square;stop-color:#000" id="path1128" d="m 95.687443,868.36284 c -9.87589,0.17099 -17.792371,8.22578 -17.792668,18.10316 2.97e-4,4.62695 1.771913,9.07825 4.951148,12.43997 -31.438608,6.09756 -46.571865,29.47351 -46.571865,58.6182 v 14.46507 c 0,14.47674 -4.815694,28.54216 -13.688604,39.98106 l -0.915412,1.1802 c -2.805053,3.6163 -0.227741,8.8773 4.348972,8.8773 H 165.98099 c 4.57671,0 7.15402,-5.261 4.34897,-8.8773 l -0.9154,-1.1802 c -8.87291,-11.4389 -13.68862,-25.50431 -13.68862,-39.98106 v -14.46507 c 0,-29.14469 -15.13661,-52.52064 -46.57599,-58.6182 3.18073,-3.36108 4.95387,-7.81244 4.95528,-12.43997 -0.001,-9.99897 -8.10833,-18.10363 -18.107297,-18.10316 -0.103418,-8.8e-4 -0.207076,-8.8e-4 -0.31049,0 z"/></g><style id="style853" type="text/css"/><style id="style853-9" type="text/css"/><style id="style853-3" type="text/css"/></svg>