<svg xmlns="http://www.w3.org/2000/svg" xmlns:svg="http://www.w3.org/2000/svg" id="svg2" width="192" height="192" version="1.1" viewBox="0 0 192 192"><metadata id="metadata7"/><g id="layer1" transform="translate(0,-860.36216)"><path id="path937" cx="96" cy="956.362" r="76" style="opacity:1;fill:#000;fill-opacity:.31493506;stroke:none;stroke-width:1.31034482;stroke-miterlimit:4;stroke-dasharray:none;stroke-opacity:1"/><path id="use1652" d="M 0,0 M 0,0"/><g id="g1299" transform="translate(0,-4.9999999e-6)"><rect style="opacity:1;fill:#72a373;fill-opacity:1;stroke:none;stroke-width:1.10720289;stroke-miterlimit:4;stroke-dasharray:none;stroke-opacity:1" id="rect1267-1-7" width="9.395" height="37.58" x="-622.656" y="632.871" ry="4.697" transform="rotate(-45.857145)"/><rect id="rect2302" width="9.395" height="37.58" x="-756.374" y="495.091" ry="4.697" transform="matrix(-0.69644973,-0.71760558,-0.71760558,0.69644973,0,0)" style="opacity:1;fill:#72a373;fill-opacity:1;stroke:none;stroke-width:1.10720289;stroke-miterlimit:4;stroke-dasharray:none;stroke-opacity:1"/><path style="opacity:1;fill:#99dc9b;fill-opacity:1;stroke:none;stroke-width:.8153978;stroke-miterlimit:4;stroke-dasharray:none;stroke-opacity:1" id="path2322" d="m 30.59101,944.88639 h 130.81798 c 5.86742,0 10.59101,4.7236 10.59101,10.591 v 67.17841 c 0,5.8675 -4.72359,10.5911 -10.59101,10.5911 H 30.59101 C 24.72359,1033.2469 20,1028.5233 20,1022.6558 v -67.17841 c 0,-5.8674 4.72359,-10.591 10.59101,-10.591 z"/><path style="opacity:1;fill:#99dc9b;fill-opacity:1;stroke:none;stroke-width:.8153978;stroke-miterlimit:4;stroke-dasharray:none;stroke-opacity:1" id="path1271-5-0" d="m 172,955.47739 c 6e-5,41.97368 -34.02632,76.00011 -76,76.00011 -41.973684,0 -76.000061,-34.02643 -76,-76.00011 2.2e-5,-41.97363 34.026375,-75.99996 76,-75.99996 41.97363,0 75.99998,34.02633 76,75.99996 z"/><path style="opacity:1;fill:#72a373;fill-opacity:1;stroke:none;stroke-width:1.13793099;stroke-miterlimit:4;stroke-dasharray:none;stroke-opacity:1" id="circle1273-5-9" d="m 70.533894,927.73533 a 5.8336306,5.8336306 0 0 1 -5.83363,5.8337 5.8336306,5.8336306 0 0 1 -5.83363,-5.8337 5.8336306,5.8336306 0 0 1 5.83363,-5.8336 5.8336306,5.8336306 0 0 1 5.83363,5.8336 z"/><path id="path1086-3" d="m 133.13326,927.73533 a 5.8336306,5.8336306 0 0 1 -5.83363,5.8337 5.8336306,5.8336306 0 0 1 -5.83363,-5.8337 5.8336306,5.8336306 0 0 1 5.83363,-5.8336 5.8336306,5.8336306 0 0 1 5.83363,5.8336 z" style="opacity:1;fill:#72a373;fill-opacity:1;stroke:none;stroke-width:1.13793099;stroke-miterlimit:4;stroke-dasharray:none;stroke-opacity:1"/><path style="opacity:1;fill:#fff;fill-opacity:.2745098;stroke:none;stroke-width:10.37769032;stroke-miterlimit:4;stroke-dasharray:none;stroke-opacity:1" id="rect3571-6" d="m 44.488281,913.11021 c -2.505043,0 -4.523437,1.56773 -4.523437,3.51367 v 15.13086 c 0,1.94594 2.018394,3.51367 4.523437,3.51367 h 27.945313 c 2.505043,0 4.521484,-1.56773 4.521484,-3.51367 v -5.6211 H 96 115.04492 v 5.6211 c 0,1.94594 2.01644,3.51367 4.52149,3.51367 h 27.94531 c 2.50504,0 4.52344,-1.56773 4.52344,-3.51367 v -15.13086 c 0,-1.94594 -2.0184,-3.51367 -4.52344,-3.51367 h -27.94531 c -2.50505,0 -4.52149,1.56773 -4.52149,3.51367 v 6.68164 H 96 76.955078 v -6.68164 c 0,-1.94594 -2.016441,-3.51367 -4.521484,-3.51367 z"/><rect style="opacity:1;fill:#72a373;fill-opacity:1;stroke:none;stroke-width:1.23249245;stroke-miterlimit:4;stroke-dasharray:none;stroke-opacity:1" id="rect1277-4-0" width="151.998" height="9.714" x="20.002" y="955.248"/><path style="fill:#fdfdfe;fill-opacity:1;stroke:none;stroke-width:.13500001;stroke-linecap:round;stroke-linejoin:round;stroke-miterlimit:4;stroke-dasharray:none;stroke-opacity:1" id="path3715-6" d="m 96,966.32471 c 0.207222,-3.08155 1.389609,-5.99735 6.22746,-7.32991 l 26.61439,-7.33078 10.15303,2.92968 c -29.35624,26.85319 -57.96642,24.79655 -85.989764,0 l 10.153034,-2.92968 26.614394,7.33078 c 4.837847,1.33256 6.020234,4.24836 6.227456,7.32991"/><path style="opacity:1;fill:#f9de82;fill-opacity:1;stroke:none;stroke-width:6.14307737;stroke-miterlimit:4;stroke-dasharray:none;stroke-opacity:1;paint-order:fill markers stroke" id="rect3628-2" d="m 52.044922,954.30943 v 64.30467 l 36.451172,10.5078 1.705078,1.1289 c 2.016585,0.5916 3.945687,0.8579 5.798828,0.8653 1.853141,-0.01 3.782241,-0.2737 5.79883,-0.8653 l 1.70508,-1.1289 36.45117,-10.5078 v -64.30467 l -36.45117,10.50976 -1.70508,1.12695 v 0.002 c -1.879411,0.55923 -3.811834,0.90438 -5.79883,0.92578 -1.986996,-0.0214 -3.919421,-0.36655 -5.798828,-0.92578 l -1.72e-4,-0.002 -1.704906,-1.12695 z"/><rect style="opacity:1;fill:#fdfdfe;fill-opacity:1;stroke:#fff;stroke-width:1.32407844;stroke-linecap:round;stroke-linejoin:round;stroke-miterlimit:4;stroke-dasharray:none;stroke-opacity:1;paint-order:fill markers stroke" id="rect1054-6" width="21.215" height="16.274" x="115.398" y="1004.295" rx="1.034" ry="3.082" transform="matrix(0.96130943,-0.27547082,0,1,0,0)"/></g></g></svg>