<svg xmlns="http://www.w3.org/2000/svg" xmlns:svg="http://www.w3.org/2000/svg" id="svg2" width="192" height="192" version="1.1" viewBox="0 0 192 192"><metadata id="metadata7"/><g id="layer1" transform="translate(0,-860.36216)"><path style="opacity:1;vector-effect:none;fill:#56595b;fill-opacity:1;stroke-width:3.984339;paint-order:stroke fill markers" id="rect1113" d="M 18.5,33.5 C 12.683182,33.5 8,38.183182 8,44 v 106 c 0,5.81682 4.683182,10.5 10.5,10.5 h 155 c 5.81682,0 10.5,-4.68318 10.5,-10.5 V 81.15 L 149,68 136,33.5 Z" transform="translate(0,860.36216)"/><ellipse style="opacity:1;vector-effect:none;fill:#b1b5bd;fill-opacity:1;stroke-width:3.984339;paint-order:stroke fill markers" id="path1119" cx="72" cy="957.268" rx="36" ry="35.719"/><path style="fill:#979797;stroke-width:3.984339" id="path1115" d="m 136.00001,893.86213 c 0,0 0,23.81245 0,35.71867 0,7.93748 3.99999,11.90622 11.99999,11.90622 12.00001,0 36.00001,0 36.00001,0 z"/><rect style="opacity:1;vector-effect:none;fill:#56595b;fill-opacity:1;stroke-width:3.984339;paint-order:stroke fill markers" id="rect1121" width="8" height="7.937" x="68" y="937.425"/><rect style="opacity:1;vector-effect:none;fill:#56595b;fill-opacity:1;stroke-width:3.984339;paint-order:stroke fill markers" id="rect1123" width="8" height="23.812" x="68" y="953.3"/></g><style id="style853" type="text/css"/></svg>