<svg xmlns="http://www.w3.org/2000/svg" xmlns:svg="http://www.w3.org/2000/svg" id="svg2" width="192" height="192" version="1.1" viewBox="0 0 192 192"><metadata id="metadata7"/><g id="layer1" transform="translate(0,-860.36216)"><circle id="circle1383" cx="96" cy="956.362" r="88" style="fill:#f8c18c;fill-opacity:1;fill-rule:evenodd;stroke:none;stroke-opacity:1"/><path style="isolation:isolate;fill:#fff;fill-opacity:1;stroke-width:1.28877" id="path1261" d="m 57.32827,923.87402 c -1.05477,0.11818 -1.73631,1.11489 -1.70409,2.81162 l 0.63935,35.42346 a 12.104481,12.104481 0 0 0 2.87203,6.93216 8.0629092,8.0629092 0 0 0 1.1025,1.07229 l 8.62115,6.83651 23.19024,18.62418 a 6.5227045,6.5227045 0 0 0 7.74518,0.0277 l 31.96996,-25.34995 a 11.887066,11.887066 0 0 0 3.96951,-8.012 l 0.64187,-35.42093 c 0.0478,-2.7135 -1.72267,-3.62715 -3.93175,-2.03384 l -36.34473,26.17806 -36.54357,-26.3165 c -0.82826,-0.5984 -1.59479,-0.84364 -2.22765,-0.77276 z"/><path style="color:#000;font-style:normal;font-variant:normal;font-weight:400;font-stretch:normal;font-size:medium;line-height:normal;font-family:sans-serif;font-variant-ligatures:normal;font-variant-position:normal;font-variant-caps:normal;font-variant-numeric:normal;font-variant-alternates:normal;font-variant-east-asian:normal;font-feature-settings:normal;font-variation-settings:normal;text-indent:0;text-align:start;text-decoration:none;text-decoration-line:none;text-decoration-style:solid;text-decoration-color:#000;letter-spacing:normal;word-spacing:normal;text-transform:none;writing-mode:lr-tb;direction:ltr;text-orientation:mixed;dominant-baseline:auto;baseline-shift:baseline;text-anchor:start;white-space:normal;shape-padding:0;shape-margin:0;inline-size:0;clip-rule:nonzero;display:inline;overflow:visible;visibility:visible;isolation:auto;mix-blend-mode:normal;color-interpolation:sRGB;color-interpolation-filters:linearRGB;solid-color:#000;solid-opacity:1;vector-effect:none;fill:#ececec;fill-opacity:1;fill-rule:nonzero;stroke:none;stroke-width:1.96329px;stroke-linecap:butt;stroke-linejoin:miter;stroke-miterlimit:4;stroke-dasharray:none;stroke-dashoffset:0;stroke-opacity:1;color-rendering:auto;image-rendering:auto;shape-rendering:auto;text-rendering:auto;enable-background:accumulate;stop-color:#000" id="path1334" d="M 94.41051,949.74751 62.949,972.26318 64.54989,973.5318 96.08942,950.95573 Z"/></g><style id="style853" type="text/css"/><style id="style853-9" type="text/css"/><style id="style853-3" type="text/css"/></svg>