<svg xmlns="http://www.w3.org/2000/svg" xmlns:svg="http://www.w3.org/2000/svg" id="svg866" width="192" height="192" version="1.1" viewBox="0 0 192 192"><metadata id="metadata872"/><defs id="defs870"><clipPath id="clipPath5182" clipPathUnits="userSpaceOnUse"><rect id="rect5184" width="76.302" height="127.705" x="38.067" y="-135.02" rx="4.987" transform="scale(1,-1)" style="fill:#96dfd3;fill-opacity:.94117647;fill-rule:evenodd;stroke:#96dfd3;stroke-width:.64517754;stroke-opacity:.94117647"/></clipPath><clipPath id="clipPath5219" clipPathUnits="userSpaceOnUse"><rect style="opacity:1;fill:#96dfd3;fill-opacity:.94117647;stroke:none;stroke-width:.94300002;stroke-miterlimit:4;stroke-dasharray:none;stroke-opacity:1" id="rect5221" width="200.195" height="39.119" x="5.753" y="11.939" rx="10"/></clipPath><clipPath id="clipPath5229" clipPathUnits="userSpaceOnUse"><rect style="opacity:1;fill:#96dfd3;fill-opacity:.94117647;stroke:none;stroke-width:.94300002;stroke-miterlimit:4;stroke-dasharray:none;stroke-opacity:1" id="rect5231" width="70.759" height="60.116" x="104.987" y="7.913" rx="10"/></clipPath></defs><rect style="fill:#9abeff;fill-rule:evenodd;stroke:#9abeff;fill-opacity:1;stroke-opacity:1;stroke-width:1;stroke-miterlimit:4;stroke-dasharray:none" id="rect854" width="153" height="153" x="19.5" y="19.5" rx="10"/><g id="g4" clip-path="url(#clipPath5182)" transform="matrix(2.0183009,0,0,-0.97098478,-57.830186,156.14803)" style="fill:#728dbe;fill-opacity:1;stroke:#728dbe;stroke-opacity:1"><path id="path2" d="m 355.105,118.905 c -14.799,0 -22.337,-6.899 -28.988,-12.986 -6.005,-5.497 -10.749,-9.839 -20.886,-9.839 -10.137,0 -14.881,4.342 -20.887,9.839 -6.65,6.087 -14.188,12.986 -28.988,12.986 -14.8,0 -22.337,-6.899 -28.988,-12.986 -6.005,-5.497 -10.748,-9.839 -20.885,-9.839 -10.136,0 -14.879,4.342 -20.884,9.839 -6.65,6.087 -14.188,12.986 -28.988,12.986 -14.798,0 -22.334,-6.899 -28.984,-12.986 -6.004,-5.497 -10.747,-9.839 -20.882,-9.839 -10.136,0 -14.879,4.342 -20.884,9.839 -6.65,6.087 -14.188,12.986 -28.987,12.986 -14.8,0 -22.338,-6.899 -28.989,-12.986 C 20.88,100.422 16.137,96.08 6,96.08 c -3.313,0 -6,-2.686 -6,-6 0,-3.313 2.687,-6 6,-6 14.799,0 22.337,6.899 28.988,12.986 6.005,5.497 10.749,9.839 20.886,9.839 10.136,0 14.879,-4.342 20.884,-9.838 6.65,-6.088 14.188,-12.987 28.987,-12.987 14.798,0 22.335,6.9 28.985,12.987 6.004,5.497 10.746,9.838 20.881,9.838 10.137,0 14.88,-4.342 20.885,-9.838 6.65,-6.088 14.188,-12.987 28.987,-12.987 14.8,0 22.337,6.899 28.988,12.987 6.005,5.496 10.749,9.838 20.885,9.838 10.138,0 14.881,-4.342 20.886,-9.838 6.651,-6.088 14.189,-12.987 28.989,-12.987 14.8,0 22.338,6.899 28.989,12.987 6.005,5.496 10.748,9.838 20.885,9.838 10.139,0 14.883,-4.342 20.89,-9.839 6.651,-6.087 14.19,-12.986 28.991,-12.986 3.313,0 6,2.687 6,6 0,3.314 -2.687,6 -6,6 -10.139,0 -14.883,4.342 -20.89,9.839 -6.651,6.087 -14.189,12.986 -28.991,12.986 z" style="fill:#728dbe;fill-opacity:1;stroke:#728dbe;stroke-opacity:1"/></g><rect id="rect5193" width="153" height="153" x="19.5" y="19.5" clip-path="url(#clipPath5219)" rx="10" style="fill:#728dbe;fill-opacity:1;fill-rule:evenodd;stroke:#728dbe;stroke-opacity:1"/><rect id="rect5223" width="153" height="153" x="19.5" y="19.5" clip-path="url(#clipPath5229)" rx="10" transform="matrix(1,0,0,0.92373275,0,1.4490777)" style="fill:#728dbe;fill-opacity:1;fill-rule:evenodd;stroke:#728dbe;stroke-opacity:1"/><text id="text29" x="35.614" y="121.862" transform="scale(0.99637648,1.0036367)" xml:space="preserve" style="font-style:normal;font-variant:normal;font-weight:500;font-stretch:normal;font-size:46.80761719px;line-height:1.25;font-family:Now;-inkscape-font-specification:'Now, Medium';font-variant-ligatures:normal;font-variant-caps:normal;font-variant-numeric:normal;font-feature-settings:normal;text-align:start;letter-spacing:0;word-spacing:0;writing-mode:lr-tb;text-anchor:start;fill:#fff;fill-opacity:1;stroke:none;stroke-width:1.1701715;stroke-opacity:1"><tspan id="tspan31" x="35.614" y="121.862" style="stroke-width:1.1701715">aqua</tspan></text></svg>