<svg xmlns="http://www.w3.org/2000/svg" xmlns:svg="http://www.w3.org/2000/svg" id="svg2" width="192" height="192" version="1.1" viewBox="0 0 192 192"><metadata id="metadata7"/><g id="layer1" transform="translate(0,-860.36216)"><rect id="rect1011" width="153" height="153" x="19.5" y="879.862" rx="10" style="fill:#708cbd;fill-opacity:1;fill-rule:evenodd;stroke:none;stroke-opacity:1"/><text id="text983" x="53.898" y="965.716" xml:space="preserve" style="font-weight:700;font-size:24.4682px;line-height:1.25;font-family:Now;-inkscape-font-specification:'Now Bold';letter-spacing:0;word-spacing:0;stroke-width:.611706;fill:#fff;fill-opacity:1"><tspan style="stroke-width:.611706;fill:#fff;fill-opacity:1" id="tspan981" x="53.898" y="965.716">ARD</tspan></text><path id="path985" d="m 105.65603,945.16864 a 17.349312,17.349312 0 0 1 19.13776,-5.128 17.349312,17.349312 0 0 1 11.46604,16.15796 17.349312,17.349312 0 0 1 -11.15921,16.37138 17.349312,17.349312 0 0 1 -19.23108,-4.76609" style="opacity:1;fill:none;stroke:#fff;stroke-width:4.4788;stroke-linecap:square;stroke-linejoin:bevel;stroke-miterlimit:4;stroke-dasharray:none;stroke-opacity:1;stop-color:#000"/><path style="opacity:1;fill:#fff;fill-opacity:1;stroke:none;stroke-width:7.60474;stroke-linecap:square;stroke-linejoin:bevel;stroke-miterlimit:4;stroke-dasharray:none;stroke-opacity:1;stop-color:#000" id="path987" d="m 123.94469,946.46341 -13.875,4.84557 a 1.7980449,1.7980449 0 0 0 -1.20522,1.69751 v 2.45098 a 0.90659916,0.90659916 0 0 0 1.20532,0.85597 l 3.86744,-1.34966 v 10.1904 a 0.90638367,0.90638367 0 0 0 1.20522,0.85571 l 8.80224,-3.07403 a 1.7980476,1.7980476 0 0 0 1.20522,-1.69751 v -13.91924 a 0.90638507,0.90638507 0 0 0 -1.20522,-0.8557 z"/></g><style id="style853" type="text/css"/></svg>