<svg xmlns="http://www.w3.org/2000/svg" xmlns:xlink="http://www.w3.org/1999/xlink" id="Слой_1" x="0" y="0" enable-background="new 0 0 192 192" version="1.1" viewBox="0 0 192 192" xml:space="preserve"><image width="241" height="241" overflow="visible" transform="matrix(0.7734 0 0 0.7734 2.215 -221)" xlink:href="30E0AF75.jpg"/><circle cx="96.4" cy="96" r="96" fill="#88BFFF"/><g><path fill="#FFF" d="M96.4,94.8c-3.9,10.7-7.9,21.5-11.8,32.2c-2.7,7.3-5.1,14.7-7.9,21.9c-2.8,7.2-11.3,10.9-17.9,8.2 c-8-3.2-11.7-11.1-8.8-19c11.3-30.9,22.6-61.7,34-92.6c2.2-6,7.8-9.9,13.4-9.5c6.1,0.4,10.8,3.3,13,9.3 c6.8,18.8,13.5,37.6,20.4,56.3c2.5,6.9-2.7,14.9-9.5,17.1c-6.4,2.1-13.7-0.7-16.9-7.4c-2.5-5.4-4.4-11.1-6.6-16.7 C97.2,94.8,96.8,94.8,96.4,94.8z"/><path fill="#FFF" d="M145.4,143.4c0,7.6-7.1,14.8-14.7,14.7c-7.7-0.1-13.4-6.4-13.8-14.5c-0.5-8.1,5.8-14.3,14.2-14.5 C138.6,128.9,145.3,135.9,145.4,143.4z"/></g></svg>