<svg xmlns="http://www.w3.org/2000/svg" xmlns:xlink="http://www.w3.org/1999/xlink" style="isolation:isolate" width="256" height="256" viewBox="0 0 192 192"><defs><clipPath id="_clipPath_PUdffMWXayjLpUY3CVLKPHUP5yq66ivn"><rect width="192" height="192"/></clipPath></defs><g clip-path="url(#_clipPath_PUdffMWXayjLpUY3CVLKPHUP5yq66ivn)"><g style="isolation:isolate"><circle cx="96" cy="96" r="88" fill="#4A4A4A" vector-effect="non-scaling-stroke"/><g style="isolation:isolate"><path fill="#9ABEFF" d="M 61.587 112.413 L 67.4 122.462 L 67.402 122.463 C 68.547 124.731 70.896 126.287 73.609 126.287 L 73.614 126.286 L 73.614 126.287 L 112.2 126.287 L 104.193 112.413 L 61.587 112.413 Z"/><path fill="#9ABEFF" d="M 130.413 112.484 C 130.413 111.095 130.004 109.802 129.302 108.716 L 106.691 69.41 C 105.524 67.211 103.212 65.713 100.549 65.713 L 88.599 65.713 L 123.525 126.226 L 129.03 116.691 C 130.117 114.865 130.413 114.056 130.413 112.484 Z"/><path fill="#9ABEFF" d="M 98.499 102.555 L 82.888 75.517 L 67.278 102.555 L 98.499 102.555 Z"/></g></g></g></svg>