<svg xmlns="http://www.w3.org/2000/svg" xmlns:svg="http://www.w3.org/2000/svg" id="svg2" width="192" height="192" version="1.1" viewBox="0 0 192 192"><metadata id="metadata7"/><g id="layer1" transform="translate(0,-860.36216)"><rect style="fill:#ba6662;fill-opacity:1" id="rect871" width="152" height="152" x="20" y="880.362" fill="#728dbe" rx="10"/><rect id="rect873" width="146" height="146" x="23" y="883.362" fill="#fff" rx="10"/><path style="fill:#fe837e;fill-opacity:1" id="path875" fill="#9abeff" fill-rule="evenodd" d="m 20,890.31676 c 0,-5.5229 4.4772,-9.9546 10,-9.9546 h 132 c 5.523,0 10,4.4772 10,10 v 112.00004 c 0,5.523 -4.477,10 -10,10 H 37.1016 c 0,0 -17.1016,-1 -17.1016,11 0,-44.51804 0,-108.62824 0,-133.04544 z" clip-rule="evenodd"/><path id="path954" d="m 110.87171,950.83723 -20.920992,13.12535 a 2.6300572,2.857949 0 0 1 -3.94508,-2.47506 v -26.25071 a 2.6300572,2.857949 0 0 1 3.94508,-2.47506 l 20.920992,13.12536 a 2.6300572,2.857949 0 0 1 0,4.95012 z" style="fill:#fff;fill-opacity:1;stroke:none;stroke-width:.992997;stroke-linecap:round;stop-color:#000"/></g><style id="style853" type="text/css"/><style id="style853-5" type="text/css"/><style id="style853-9" type="text/css"/><style id="style853-3" type="text/css"/></svg>