<svg xmlns="http://www.w3.org/2000/svg" xmlns:svg="http://www.w3.org/2000/svg" id="svg2" width="192" height="192" version="1.1" viewBox="0 0 192 192"><defs id="defs4"><mask id="mask0" width="174" height="174" x="9" y="9" mask-type="alpha" maskUnits="userSpaceOnUse"><path id="path929" fill="#fff" fill-rule="evenodd" d="m 96,183 c 48.049,0 87,-38.951 87,-87 C 183,47.9512 144.049,9 96,9 47.9512,9 9,47.9512 9,96 c 0,48.049 38.9512,87 87,87 z" clip-rule="evenodd"/></mask></defs><metadata id="metadata7"/><g id="layer1" transform="translate(0,-860.36216)"><path style="fill:#fff;fill-opacity:1" id="path970" fill="#9abeff" d="m 157.58131,1002.0921 -40.53,-79.41996 v -12.62 h 3.92 a 5.45,5.45 0 0 0 5.45,-5.45 v -9.3 a 9.47,9.47 0 0 0 -9.48,-9.48 H 75.381311 a 9.81,9.81 0 0 0 -9.81,9.81 v 9 a 5.45,5.45 0 0 0 5.45,5.45 h 3.29 v 12.6 l -40,79.46996 a 17.09,17.09 0 0 0 15.32,24.75 h 92.839999 a 17,17 0 0 0 15.13,-24.81 z"/><g style="fill:#ff837d;fill-opacity:1;stroke-width:1.262" id="g934" mask="url(#mask0)" transform="matrix(0.79239448,0,0,0.79239448,14.476645,904.91648)"><path style="fill:#ff837d;fill-opacity:1;stroke-width:1.59264" id="path932" fill="#ff837d" fill-rule="evenodd" d="m 124.08539,65 -42.406205,9.2002 v 33.1178 c -1.419,-0.591 -2.976,-0.917 -4.6094,-0.917 -6.6188,0 -11.9844,5.355 -11.9844,11.96 0,6.606 5.3656,11.96 11.9844,11.96 6.6188,0 11.9844,-5.354 11.9844,-11.96 V 79.9603 l 27.656205,-6.0001 v 25.9972 c -1.419,-0.5905 -2.976,-0.9167 -4.609,-0.9167 -6.619,0 -11.985,5.3553 -11.985,11.9603 0,6.605 5.366,11.96 11.985,11.96 6.618,0 11.984,-5.355 11.984,-11.96 V 72.3602 Z" clip-rule="evenodd"/></g></g><style id="style853" type="text/css"/><style id="style853-9" type="text/css"/><style id="style853-3" type="text/css"/></svg>