<svg xmlns="http://www.w3.org/2000/svg" xmlns:svg="http://www.w3.org/2000/svg" id="svg2" width="192" height="192" version="1.1" viewBox="0 0 192 192"><metadata id="metadata7"/><g id="layer1" transform="translate(0,-860.36216)"><rect id="rect898" width="153" height="153" x="19.5" y="879.862" rx="10" style="fill:#575a5c;fill-opacity:1;fill-rule:evenodd;stroke:none;stroke-opacity:1"/><path style="fill:#f7c18c;fill-opacity:1;stroke-width:2.03717" id="path900" d="m 60.454921,954.14113 c 0,0 1.62973,-0.20371 2.24088,0.40744 0.61116,0.61114 0.20372,2.24088 -0.61115,2.24088 -0.81486,0 -1.83344,0.20372 -2.24088,-0.40744 -0.61115,-0.61115 -0.40743,-2.03716 0.61115,-2.24088 m 17.92709,9.98213 c -0.20372,0 -0.40744,0 -0.40744,-0.20372 -1.2223,-1.62973 -1.62974,-7.33381 -2.24089,-7.74124 -0.61115,-0.40744 -2.64831,3.05575 -6.72265,2.85204 -1.62974,-0.20372 -3.46319,-1.2223 -4.48177,-2.03717 0,-1.22231 0.20372,-4.27806 2.64831,-3.25947 1.62975,0.61115 4.27806,2.24088 6.51895,-0.61115 2.64831,-3.25947 3.87062,-2.24089 4.8892,-1.62974 0.81487,0.61115 0.20372,4.27805 1.62973,3.25947 1.2223,-1.01858 6.31522,-7.33381 6.31522,-7.33381 0,0 3.87062,-4.07433 4.48177,0.20372 0.61116,4.27805 3.25948,8.75982 3.87062,8.75982 0.61115,-0.20371 8.556109,-16.29734 9.778409,-17.31592 1.2223,-1.01859 4.88921,-0.81487 4.68549,1.83345 -0.20372,2.64832 -0.61115,19.35309 -0.61115,19.35309 0,0 -0.40743,4.68549 0.20372,2.24089 0.20371,-1.01859 0.61115,-2.03717 1.01858,-3.05575 2.03717,-6.31522 5.29664,-16.9085 6.92638,-22.61257 0.40743,-1.2223 0.61114,-2.4446 1.01858,-3.25947 v 0 c 0,-0.40743 0.20371,-0.81487 0.20371,-1.01859 0.20372,-0.40743 0.20372,-0.81486 0.20372,-0.81486 0,-0.20372 0.20372,-0.40743 0.61115,-0.40743 0.20372,-0.20372 0.61115,-0.20372 1.01858,-0.20372 1.01859,0 2.03718,0 3.25947,0.40743 0.40744,0 0.61115,0.20372 1.01859,0.40744 v 0 0 0 l 0.20371,0.20371 v 0 l 0.20372,0.20372 c 0.61115,0.81487 1.01859,2.44461 0.61115,5.29664 -0.81487,7.13009 -1.62973,21.7977 -1.62973,21.7977 0,0 -0.20372,0.61115 1.42602,-2.4446 0,-0.20372 0.20371,-0.20372 0.20371,-0.20372 l 0.20372,-0.20372 c 0.81487,-1.01858 3.25947,-1.62973 5.09292,-1.62973 0.81487,0 1.2223,0.20371 1.62974,0.40743 0.61114,1.01858 0.20371,4.68549 0.20371,4.68549 -1.42601,0.20371 -4.07434,0.81486 -5.09292,1.01858 -1.01858,0.20372 -2.4446,6.31523 -4.48177,5.70407 -2.03717,-0.61115 -6.51893,-3.46318 -6.51893,-3.87061 0,-0.40744 0.40743,-4.48177 0.40743,-5.50036 v -0.20372 0 0 c 0,-0.81487 0,-1.2223 -0.40743,-0.40743 -0.40744,0.81487 -1.83346,5.29664 -3.46319,10.38956 -0.20372,0.40743 -3.25947,9.57469 -3.66691,10.79699 -0.40743,1.2223 -0.81486,2.24088 -1.2223,2.85203 -0.40743,0.61116 -1.01858,1.01859 -1.83345,0.61116 -2.03717,-0.61116 -4.48177,-3.25947 -4.48177,-4.07434 0,-3.87062 0.20372,-24.44602 -0.81487,-22.61257 -1.018579,1.83345 -8.352379,13.85275 -8.352379,13.85275 -0.20372,0 -0.20372,0 -0.40744,0 -0.61115,0 -1.42602,-0.20372 -1.62974,-0.81487 v 0 c 0,0 0,0 0,-0.20372 0,-0.40743 -0.20371,-0.61115 -0.20371,-1.01858 -0.40744,-1.01859 -0.81487,-2.64832 -1.42602,-4.27805 -0.81486,-2.85204 -1.62973,-5.70408 -1.83345,-5.9078 -0.20372,-0.61115 -0.61115,-0.40743 -1.01859,0 -0.81486,1.22231 -4.27805,7.33381 -7.53751,7.74125" class="st1"/></g><style id="style853" type="text/css"/><style id="style873" type="text/css">.st1{fill-rule:evenodd;clip-rule:evenodd;fill:url(#SVGID_1_)}</style></svg>