<svg xmlns="http://www.w3.org/2000/svg" xmlns:svg="http://www.w3.org/2000/svg" id="svg2" width="192" height="192" version="1.1" viewBox="0 0 192 192"><metadata id="metadata7"/><g style="display:inline;fill:#fefefe;fill-opacity:1" id="layer1-7" transform="matrix(0.90318658,0,0,0.90318694,9.2940916,-770.25428)"><g id="g31" transform="matrix(8,0,0,8,0,860.36216)" style="fill:#fefefe;fill-opacity:1"><path style="fill:#fefefe;fill-opacity:1;stroke-width:7.09647" id="path934" d="m 57.707031,21.25 c -1.107617,-0.0073 -2.171965,0.429563 -2.955078,1.212891 -1.617184,1.616842 -1.617184,4.238626 0,5.855468 l 11.990235,11.990235 c -12.336467,9.013563 -20.417969,23.482671 -20.417969,39.9375 v 2.955078 c 0,2.293553 1.847067,4.140625 4.140625,4.140625 h 91.070316 c 2.29356,0 4.14062,-1.847072 4.14062,-4.140625 v -2.955078 c 0,-16.454829 -8.0815,-30.923937 -20.41797,-39.9375 l 11.99024,-11.990235 c 1.61718,-1.616842 1.61718,-4.238626 0,-5.855468 -1.61662,-1.615888 -4.2369,-1.615888 -5.85352,0 L 117.97461,35.880859 C 111.31049,32.553048 103.93812,30.570313 96,30.570312 c -7.948047,0 -15.328018,1.986924 -21.927734,5.322266 L 60.605469,22.462891 C 59.836235,21.693438 58.795019,21.257727 57.707031,21.25 Z" transform="matrix(0.14091512,0,0,0.14091507,-1.5278519,-1.3078477)"/><path id="path949" d="m 15,9 c -0.55,0 -1,-0.45 -1,-1 0,-0.55 0.45,-1 1,-1 0.55,0 1,0.45 1,1 0,0.55 -0.45,1 -1,1 z" style="fill:#f9de82;fill-opacity:1"/><path id="path947" d="M 9,9 C 8.45,9 8,8.55 8,8 8,7.45 8.45,7 9,7 9.55,7 10,7.45 10,8 10,8.55 9.55,9 9,9 Z" style="fill:#fed5d4;fill-opacity:1"/><path style="fill:#fefefe;fill-opacity:1;stroke-width:7.09647" id="path19" d="m 50.464844,94.439453 c -2.293501,0 -4.140625,1.845172 -4.140625,4.138672 V 122.82422 C 46.324219,150.28757 68.53666,172.5 96,172.5 c 27.46334,0 49.67578,-22.21243 49.67578,-49.67578 V 98.578125 c 0,-2.2935 -1.84712,-4.138672 -4.14062,-4.138672 z" transform="matrix(0.14091512,0,0,0.14091507,-1.5278519,-1.3078477)"/></g><g style="fill:#fefefe;fill-opacity:1" id="g1134" transform="matrix(0.22629524,0,0,0.22629524,-121.45257,1190.7919)"><path id="path1126" d="m 1066.9516,-785.08707 -211.60558,0.0229" style="opacity:1;fill:#96ded3;fill-opacity:1;stroke:#96ded3;stroke-width:64.7947;stroke-linecap:round;stroke-linejoin:bevel;stroke-miterlimit:4;stroke-dasharray:none;stroke-opacity:1"/><path style="opacity:1;fill:#fefefe;fill-opacity:1;stroke:#f9de82;stroke-width:64.7947;stroke-linecap:round;stroke-linejoin:bevel;stroke-miterlimit:4;stroke-dasharray:none;stroke-opacity:1" id="path1128" d="m 961.16864,-968.35402 105.78296,183.26695"/><path style="opacity:1;fill:#fefefe;fill-opacity:1;stroke:#fed5d4;stroke-width:64.7947;stroke-linecap:round;stroke-linejoin:bevel;stroke-miterlimit:4;stroke-dasharray:none;stroke-opacity:1" id="path1130" d="M 961.16864,-968.35402 855.38565,-785.08707"/><path id="path1132" d="m 961.16797,-1677.834 -105.82617,0.012 a 32.400567,32.400567 0 1 0 0.008,64.795 l 105.81836,-0.012 z" transform="translate(0,860.36216)" style="color:#000;font-style:normal;font-variant:normal;font-weight:400;font-stretch:normal;font-size:medium;line-height:normal;font-family:sans-serif;font-variant-ligatures:normal;font-variant-position:normal;font-variant-caps:normal;font-variant-numeric:normal;font-variant-alternates:normal;font-feature-settings:normal;text-indent:0;text-align:start;text-decoration:none;text-decoration-line:none;text-decoration-style:solid;text-decoration-color:#000;letter-spacing:normal;word-spacing:normal;text-transform:none;writing-mode:lr-tb;direction:ltr;text-orientation:mixed;dominant-baseline:auto;baseline-shift:baseline;text-anchor:start;white-space:normal;shape-padding:0;clip-rule:nonzero;display:inline;overflow:visible;visibility:visible;opacity:1;isolation:auto;mix-blend-mode:normal;color-interpolation:sRGB;color-interpolation-filters:linearRGB;solid-color:#000;solid-opacity:1;vector-effect:none;fill:#96ded3;fill-opacity:1;fill-rule:nonzero;stroke:none;stroke-width:64.7947;stroke-linecap:round;stroke-linejoin:bevel;stroke-miterlimit:4;stroke-dasharray:none;stroke-dashoffset:0;stroke-opacity:1;color-rendering:auto;image-rendering:auto;shape-rendering:auto;text-rendering:auto;enable-background:accumulate"/></g></g><style id="style853" type="text/css"/></svg>