<svg xmlns="http://www.w3.org/2000/svg" xmlns:svg="http://www.w3.org/2000/svg" id="svg23" width="192" height="192" fill="none" version="1.1" viewBox="0 0 192 192"><metadata id="metadata27"/><g id="g16" clip-path="url(#clip0)"><rect id="rect2" width="152" height="84.507" x="0" y="0" fill="#98dc9a" rx="10" transform="matrix(1,0,0,-1,20,172.507)" style="fill:#fff;fill-opacity:1"/><path id="path4" stroke="#71a372" stroke-linecap="round" stroke-width="10" d="m 147.736,45.1069 18.017,-18.017" style="fill:none;fill-opacity:1;stroke:#ccc;stroke-opacity:1"/><path id="path6" stroke="#71a372" stroke-linecap="round" stroke-width="10" d="M 45.2639,44.1069 27.0465,25.8896" style="fill:none;fill-opacity:1;stroke:#ccc;stroke-opacity:1"/><path id="path8" fill="#98dc9a" fill-rule="evenodd" d="m 20,96 c 0,-41.9736 34.0264,-76 76,-76 41.974,0 76,34.0264 76,76 z" clip-rule="evenodd" style="fill:#fff;fill-opacity:1"/><path id="path10" fill="#71a372" fill-rule="evenodd" d="m 135,63 c 3.314,0 6,-2.6863 6,-6 0,-3.3137 -2.686,-6 -6,-6 -3.314,0 -6,2.6863 -6,6 0,3.3137 2.686,6 6,6 z" clip-rule="evenodd" style="fill:#f9de82;fill-opacity:1"/><path id="path12" fill="#71a372" fill-rule="evenodd" d="m 57,63 c 3.3137,0 6,-2.6863 6,-6 0,-3.3137 -2.6863,-6 -6,-6 -3.3137,0 -6,2.6863 -6,6 0,3.3137 2.6863,6 6,6 z" clip-rule="evenodd" style="fill:#fed5d4;fill-opacity:1"/><path id="path14" stroke="#71a372" stroke-width="10" d="M 20.5,99 H 171.53" style="fill:none;fill-opacity:1;stroke:#ccc;stroke-opacity:1"/><g id="g1134" transform="matrix(0.20073718,0,0,0.20073726,-96.893214,314.24109)" style="display:inline;fill:#fefefe;fill-opacity:1"><path style="opacity:1;fill:#96ded3;fill-opacity:1;stroke:#96ded3;stroke-width:64.7947;stroke-linecap:round;stroke-linejoin:bevel;stroke-miterlimit:4;stroke-dasharray:none;stroke-opacity:1" id="path1126" d="m 1066.9516,-785.08707 -211.60558,0.0229"/><path id="path1128" d="m 961.16864,-968.35402 105.78296,183.26695" style="opacity:1;fill:#fefefe;fill-opacity:1;stroke:#f9de82;stroke-width:64.7947;stroke-linecap:round;stroke-linejoin:bevel;stroke-miterlimit:4;stroke-dasharray:none;stroke-opacity:1"/><path id="path1130" d="M 961.16864,-968.35402 855.38565,-785.08707" style="opacity:1;fill:#fefefe;fill-opacity:1;stroke:#fed5d4;stroke-width:64.7947;stroke-linecap:round;stroke-linejoin:bevel;stroke-miterlimit:4;stroke-dasharray:none;stroke-opacity:1"/><path style="color:#000;font-style:normal;font-variant:normal;font-weight:400;font-stretch:normal;font-size:medium;line-height:normal;font-family:sans-serif;font-variant-ligatures:normal;font-variant-position:normal;font-variant-caps:normal;font-variant-numeric:normal;font-variant-alternates:normal;font-feature-settings:normal;text-indent:0;text-align:start;text-decoration:none;text-decoration-line:none;text-decoration-style:solid;text-decoration-color:#000;letter-spacing:normal;word-spacing:normal;text-transform:none;writing-mode:lr-tb;direction:ltr;text-orientation:mixed;dominant-baseline:auto;baseline-shift:baseline;text-anchor:start;white-space:normal;shape-padding:0;clip-rule:nonzero;display:inline;overflow:visible;visibility:visible;opacity:1;isolation:auto;mix-blend-mode:normal;color-interpolation:sRGB;color-interpolation-filters:linearRGB;solid-color:#000;solid-opacity:1;vector-effect:none;fill:#96ded3;fill-opacity:1;fill-rule:nonzero;stroke:none;stroke-width:64.7947;stroke-linecap:round;stroke-linejoin:bevel;stroke-miterlimit:4;stroke-dasharray:none;stroke-dashoffset:0;stroke-opacity:1;color-rendering:auto;image-rendering:auto;shape-rendering:auto;text-rendering:auto;enable-background:accumulate" id="path1132" d="m 961.16797,-1677.834 -105.82617,0.012 a 32.400567,32.400567 0 1 0 0.008,64.795 l 105.81836,-0.012 z" transform="translate(0,860.36216)"/></g></g><defs id="defs21"><clipPath id="clip0"><rect id="rect18" width="192" height="192" fill="#fff"/></clipPath></defs></svg>