<svg xmlns="http://www.w3.org/2000/svg" xmlns:svg="http://www.w3.org/2000/svg" id="svg14" width="192" height="192" version="1.1" viewBox="0 0 192 192"><metadata id="metadata20"/><defs id="defs18"><linearGradient id="SVGID_3_" x1="-3543.115" x2="-3738.738" y1="2839.111" y2="2891.894" gradientTransform="rotate(180,-1745.2764,1520.168)" gradientUnits="userSpaceOnUse"><stop id="stop33" offset="0" style="stop-color:#004884"/><stop id="stop35" offset=".077" style="stop-color:#004c89"/><stop id="stop37" offset=".422" style="stop-color:#005b9b"/><stop id="stop39" offset=".739" style="stop-color:#0065a6"/><stop id="stop41" offset="1" style="stop-color:#0068aa"/></linearGradient><linearGradient id="SVGID_4_" x1="282.196" x2="86.572" y1="74.451" y2="127.234" gradientTransform="matrix(0.53902811,0,0,0.58374458,5.778013,15.538399)" gradientUnits="userSpaceOnUse"><stop id="stop48" offset="0" style="stop-color:#e40428"/><stop id="stop50" offset=".319" style="stop-color:#e10627"/><stop id="stop52" offset=".572" style="stop-color:#d80d23"/><stop id="stop54" offset=".802" style="stop-color:#c9141e"/><stop id="stop56" offset="1" style="stop-color:#b71918"/></linearGradient></defs><circle style="fill:#fff;fill-rule:evenodd;stroke:#fff;fill-opacity:1;stroke-opacity:1" id="circle4" cx="96" cy="96" r="88"/><g id="g46" transform="matrix(0.53902811,0,0,0.58374458,5.778013,15.538399)" style="fill:#4a4a4a;fill-opacity:1"><linearGradient id="linearGradient4656" x1="-3543.115" x2="-3738.738" y1="2839.111" y2="2891.894" gradientTransform="rotate(180,-1745.2764,1520.168)" gradientUnits="userSpaceOnUse"><stop id="stop4646" offset="0" style="stop-color:#004884"/><stop id="stop4648" offset=".077" style="stop-color:#004c89"/><stop id="stop4650" offset=".422" style="stop-color:#005b9b"/><stop id="stop4652" offset=".739" style="stop-color:#0065a6"/><stop id="stop4654" offset="1" style="stop-color:#0068aa"/></linearGradient><path style="fill:#4a4a4a;fill-opacity:1" id="path44" d="m 207.118,206.938 0.049,-0.029 c 0.402,0.016 0.804,0.029 1.209,0.029 12.214,0 22.632,-7.664 26.725,-18.444 l 17.591,-42.227 H 75.438 l -25.367,60.671 z"/></g><path style="fill:#e85e5c;stroke-width:.56094092;stroke:none;stroke-opacity:1;fill-opacity:1" id="path59" d="m 74.579561,55.662666 -0.02695,0.0181 c -0.21669,-0.01051 -0.433379,-0.0181 -0.651685,-0.0181 -6.583151,0 -12.199285,4.473235 -14.404449,10.765418 l -9.48366,24.650949 H 145.55878 L 159.23231,55.66325 H 74.579561 Z"/></svg>