<svg xmlns="http://www.w3.org/2000/svg" xmlns:svg="http://www.w3.org/2000/svg" id="svg2" width="192" height="192" version="1.1" viewBox="0 0 192 192"><metadata id="metadata7"/><g id="layer1" transform="translate(1826.334,-3463.549)"><g id="g1628"><rect id="rect1562" width="153" height="153" x="-1806.834" y="3483.049" rx="10" style="fill:#bd9afe;fill-opacity:1;fill-rule:evenodd;stroke:none"/><g id="g1618" transform="matrix(0.20405765,0,0,0.20405765,-1377.2461,2833.1998)"><path style="opacity:1;fill:#fed5d4;fill-opacity:1;stroke:none;stroke-width:2.88901806;stroke-linecap:round;stroke-linejoin:round;stroke-miterlimit:4;stroke-dasharray:none;stroke-dashoffset:0;stroke-opacity:1;paint-order:normal" id="path1474" d="m 12.470703,-42.083984 c -47.8984,0 -94.179828,41.21217463 -92.736328,98.109375 1.6015,63.122999 46.941744,125.318779 93.777344,152.359379 24.3018,14.0306 51.16205,25.66015 82.488281,25.66015 31.32623,0 58.18648,-11.62955 82.48828,-25.66015 46.8356,-27.0406 92.17585,-89.23638 93.77734,-152.359379 1.44351,-56.89720037 -44.83792,-98.109375 -92.73632,-98.109375 -34.9901,0 -65.762,16.012331 -83.5293,50.5820309 C 78.2327,-26.071653 47.460803,-42.083984 12.470703,-42.083984 Z" transform="translate(-1826.334,3463.549)"/><path style="color:#000;font-style:normal;font-variant:normal;font-weight:400;font-stretch:normal;font-size:medium;line-height:normal;font-family:sans-serif;font-variant-ligatures:normal;font-variant-position:normal;font-variant-caps:normal;font-variant-numeric:normal;font-variant-alternates:normal;font-feature-settings:normal;text-indent:0;text-align:start;text-decoration:none;text-decoration-line:none;text-decoration-style:solid;text-decoration-color:#000;letter-spacing:normal;word-spacing:normal;text-transform:none;writing-mode:lr-tb;direction:ltr;text-orientation:mixed;dominant-baseline:auto;baseline-shift:baseline;text-anchor:start;white-space:normal;shape-padding:0;clip-rule:nonzero;display:inline;overflow:visible;visibility:visible;opacity:1;isolation:auto;mix-blend-mode:normal;color-interpolation:sRGB;color-interpolation-filters:linearRGB;solid-color:#000;solid-opacity:1;vector-effect:none;fill:#bd9afe;fill-opacity:1;fill-rule:nonzero;stroke:none;stroke-width:34.77165222;stroke-linecap:square;stroke-linejoin:round;stroke-miterlimit:4;stroke-dasharray:none;stroke-dashoffset:0;stroke-opacity:1;paint-order:normal;color-rendering:auto;image-rendering:auto;shape-rendering:auto;text-rendering:auto;enable-background:accumulate" id="path1478" d="m 14.009766,52.619141 c -18.3497004,-10e-5 -18.3440879,0.02308 -15.8671879,17.050781 4.389,29.5927 22.0480309,55.966538 48.3945309,71.177738 15.2916,8.8286 32.377191,13.24218 49.462891,13.24218 17.0857,0 34.17129,-4.41358 49.46289,-13.24218 26.3465,-15.2112 44.00553,-41.585038 48.39453,-71.177738 2.4769,-17.0277 2.48251,-17.050881 -15.86719,-17.050781 h -2.55273 c -13.4174,0 -13.46194,0.02449 -16.90234,16.90039 -3.9299,17.1711 -14.81969,32.185449 -30.45899,41.214849 -9.9366,5.7369 -21.00637,8.60546 -32.07617,8.60546 -11.0698,0 -22.139572,-2.86856 -32.076172,-8.60546 C 48.284528,101.70498 37.394744,86.690631 33.464844,69.519531 30.024444,52.643631 29.9799,52.619141 16.5625,52.619141 Z" transform="translate(-1826.334,3463.549)"/></g></g></g></svg>