<svg xmlns="http://www.w3.org/2000/svg" xmlns:svg="http://www.w3.org/2000/svg" id="svg2" width="192" height="192" version="1.1" viewBox="0 0 192 192"><metadata id="metadata7"/><g id="layer1" transform="translate(0,-860.36216)"><rect id="rect999" width="153" height="153" x="19.5" y="879.862" rx="10" style="fill:#fff;fill-opacity:1;fill-rule:evenodd;stroke:none;stroke-opacity:1"/><path style="fill:#aaaafe;fill-opacity:1;stroke-width:.107713;stroke-linecap:round;stroke-linejoin:round;stop-color:#000" id="path1003" d="m 95.999954,1007.143 v 6.6679 h 15.418406 c 1.84703,0 3.33391,-1.4869 3.33391,-3.3339 0,-1.8471 -1.48688,-3.334 -3.33391,-3.334 z"/><path style="fill:#fe827c;fill-opacity:1;stroke-width:.107713;stroke-linecap:round;stroke-linejoin:round;stop-color:#000" id="path1005" d="M 80.581743,1007.143 H 95.99988 v 6.6679 H 80.581743 c -1.847031,0 -3.333986,-1.4869 -3.333986,-3.3339 0,-1.8471 1.486955,-3.334 3.333986,-3.334 z"/><g id="g844" transform="translate(0.35460885,0.77401389)"><path style="opacity:1;fill:#aaaafe;fill-opacity:1;stroke-width:.21;stroke-linecap:round;stroke-linejoin:round;stop-color:#000" id="path1020" d="m 96.000002,949.6688 c -8.65801,0.37362 -11.630774,10.87311 -20.146484,17.73828 -5.58828,4.50514 -8.38253,5.06558 -9.1875,11.48438 4.4e-4,7.56785 6.135275,13.70268 13.703125,13.70312 6.16211,3.6e-4 11.290779,-1.88832 15.630859,-2.04492 4.340078,0.1566 9.468748,2.04528 15.630858,2.04492 7.56785,-4.4e-4 13.70268,-6.13527 13.70312,-13.70312 -0.80497,-6.4188 -3.59922,-6.97924 -9.1875,-11.48438 -8.51571,-6.86517 -11.48847,-17.36466 -20.146478,-17.73828 z"/><ellipse id="ellipse1009" cx="3.624" cy="935.005" rx="9.175" ry="12.572" transform="rotate(-5)" style="fill:#aaaafe;fill-opacity:1;stroke-width:.113917;stroke-linecap:round;stroke-linejoin:round;stop-color:#000"/><ellipse id="ellipse1011" cx="186.939" cy="918.333" rx="9.175" ry="12.572" transform="rotate(5)" style="fill:#aaaafe;fill-opacity:1;stroke-width:.113917;stroke-linecap:round;stroke-linejoin:round;stop-color:#000"/><ellipse id="ellipse1015" cx="363.38" cy="887.571" rx="9.175" ry="12.572" transform="rotate(15)" style="fill:#aaaafe;fill-opacity:1;stroke-width:.113917;stroke-linecap:round;stroke-linejoin:round;stop-color:#000"/><ellipse id="ellipse1017" cx="-178.608" cy="937.081" rx="9.175" ry="12.572" transform="rotate(-15)" style="fill:#aaaafe;fill-opacity:1;stroke-width:.113917;stroke-linecap:round;stroke-linejoin:round;stop-color:#000"/></g></g><style id="style853" type="text/css"/></svg>