<svg xmlns="http://www.w3.org/2000/svg" xmlns:svg="http://www.w3.org/2000/svg" id="svg2" width="192" height="192" version="1.1" viewBox="0 0 192 192"><metadata id="metadata7"/><g id="layer1" transform="translate(0,-860.36216)"><path style="fill:#ff837d;fill-opacity:1;stroke-width:3.52232" id="path1261" d="m 29.935547,880.36216 c -5.067983,0 -9.217001,3.76021 -9.84375,8.65234 -0.04454,0.46232 -0.07422,0.90331 -0.07422,1.29883 v 66.47266 l 54.173829,-23.54492 v -17.4043 c 16.968403,-2.6509 32.427154,-11.2874 43.582034,-24.3457 l 54.20898,44.25195 v -45.79883 c -0.18634,-5.33748 -4.53345,-9.58203 -9.91797,-9.58203 z"/><path style="stroke-width:3.52232" id="path1259" fill="#004e9c" d="M 171.99967,1032.3083 H 20.000004 v 0.036 H 171.99967 Z"/><path style="stroke-width:3.52232" id="path1263" fill="#fff" d="M 74.262349,1006.9927 H 117.77324 V 891.49155 c -11.16047,13.04491 -26.619555,21.6672 -43.5827,24.30858 v 17.44006 l -54.190536,23.51748 v 17.08077 l 54.190536,-23.7693 v -16.82895 l 17.404436,-7.65928 v 16.82894 l -17.332627,7.58742 -0.03533,16.68524 17.403943,-7.62336 v 16.61302 l -17.368614,7.5515 -0.03533,-16.54116 L 20,990.37961 v 16.61309 l 54.262345,-23.76903 z"/><path style="fill:#f8c18c;fill-opacity:1;stroke-width:3.52232" id="path1265" fill="#ee8600" d="m 74.22702,966.68251 0.03533,-16.61337 h -0.07148 l -54.190535,23.7693 v 16.61303 z"/><path style="fill:#f8c18c;fill-opacity:1;stroke-width:3.52232" id="path1267" fill="#ee8600" d="m 74.262349,983.22367 -54.262345,23.76973 v 0.036 h 54.262345 z"/><path style="fill:#f8c18c;fill-opacity:1;stroke-width:3.90747" id="path1269" fill="#ee8600" d="m 91.594976,942.40985 v -16.82894 l -17.404436,7.65928 v 16.82895 z"/><path style="fill:#f8c18c;fill-opacity:1;stroke-width:3.52232" id="path1271" fill="#ee8600" d="m 74.262431,983.22367 17.368614,-7.5515 v -16.61302 l -17.404025,7.62336 z"/><path style="fill:#f8c18c;fill-opacity:1;stroke-width:3.52232" id="path1273" fill="#ee8600" d="M 117.84546,1006.9927 H 172 v -71.27139 l -54.22643,-44.22976 z"/><path style="stroke-width:3.52232" id="path1275" fill="#ff6b00" d="m 117.77357,1006.9927 h 0.0715 l -0.0715,-115.50115 z"/><path style="fill:#99bdfe;fill-opacity:1;stroke-width:3.52232" id="path1277" d="m 20.017578,1006.993 v 15.7871 c 0.186341,5.3375 4.533453,9.5821 9.917969,9.5821 H 162.06445 c 5.38452,0 9.73163,-4.2446 9.91797,-9.5821 v -15.7871 h -54.13867 -0.0703 -43.509768 z"/></g><style id="style853" type="text/css"/><style id="style853-9" type="text/css"/><style id="style853-3" type="text/css"/><style id="style909" type="text/css"/></svg>