<svg xmlns="http://www.w3.org/2000/svg" xmlns:svg="http://www.w3.org/2000/svg" id="svg2" width="192" height="192" version="1.1" viewBox="0 0 192 192"><metadata id="metadata7"/><g id="layer1" transform="translate(0,-860.36216)"><rect id="rect943" width="152" height="152" x="20" y="880.362" rx="9.935" ry="9.935" style="fill:#ff837d;fill-opacity:1;fill-rule:evenodd;stroke:none;stroke-width:.993464;stroke-opacity:1"/><path style="fill:#fff;fill-opacity:1;stroke-width:3.9446;stroke-linecap:square;stroke-linejoin:bevel;stop-color:#000" id="path945" d="m 99.974933,933.11248 a 32.5251,10.695723 0 0 0 -32.525067,10.69636 32.5251,10.695723 0 0 0 23.84429,10.30702 l 5.666956,-17.8559 0.954752,18.22295 a 32.5251,10.695723 0 0 0 2.059069,0.0212 A 32.5251,10.695723 0 0 0 132.5,943.80882 32.5251,10.695723 0 0 0 99.974933,933.11246 Z m -8.823988,21.45424 A 32.5251,12.682499 0 0 0 59.5,967.24364 32.5251,12.682499 0 0 0 83.253059,979.45592 Z m 6.779768,0.2058 1.300578,24.83935 A 32.5251,12.682499 0 0 0 124.55014,967.24364 32.5251,12.682499 0 0 0 97.930713,954.77252 Z"/></g><style id="style853" type="text/css"/><style id="style853-9" type="text/css"/><style id="style853-3" type="text/css"/></svg>