<svg xmlns="http://www.w3.org/2000/svg" xmlns:svg="http://www.w3.org/2000/svg" id="svg2" width="192" height="192" version="1.1" viewBox="0 0 192 192"><metadata id="metadata7"/><g id="layer1" transform="translate(0,-860.36216)"><rect id="rect1018" width="152" height="152" x="20" y="880.362" rx="9.935" ry="9.935" style="fill:#fff;fill-opacity:1;fill-rule:evenodd;stroke:none;stroke-width:.993464;stroke-opacity:1"/><path style="fill:#f8c18c;fill-opacity:1;stroke-width:9.76726;stroke-linecap:square;stop-color:#000" id="path1007" d="m 80.747344,950.85776 c -9.43961,5.44958 -15.254603,15.5214 -15.2543,26.42113 h 30.506952 15.137324 c -1.34374,-15.79592 -12.515893,-19.49851 -17.610078,-20.36625 -1.376483,-0.23446 -1.453362,-0.68412 -0.08795,-0.97635 5.005556,-1.07132 9.643168,0.32409 13.368358,2.22324 4.37147,2.22861 10.95327,7.99365 12.13886,19.11936 h 7.56043 c 6.4e-4,-10.8994 -5.81368,-20.97114 -15.25266,-26.42113 -9.43888,-5.44954 -21.068058,-5.44954 -30.506941,0 z"/><path style="color:#000;font-style:normal;font-variant:normal;font-weight:400;font-stretch:normal;font-size:medium;line-height:normal;font-family:sans-serif;font-variant-ligatures:normal;font-variant-position:normal;font-variant-caps:normal;font-variant-numeric:normal;font-variant-alternates:normal;font-variant-east-asian:normal;font-feature-settings:normal;font-variation-settings:normal;text-indent:0;text-align:start;text-decoration:none;text-decoration-line:none;text-decoration-style:solid;text-decoration-color:#000;letter-spacing:normal;word-spacing:normal;text-transform:none;writing-mode:lr-tb;direction:ltr;text-orientation:mixed;dominant-baseline:auto;baseline-shift:baseline;text-anchor:start;white-space:normal;shape-padding:0;shape-margin:0;inline-size:0;clip-rule:nonzero;display:inline;overflow:visible;visibility:visible;isolation:auto;mix-blend-mode:normal;color-interpolation:sRGB;color-interpolation-filters:linearRGB;solid-color:#000;solid-opacity:1;vector-effect:none;fill:#56595b;fill-opacity:1;fill-rule:nonzero;stroke:none;stroke-width:3.35075;stroke-linecap:square;stroke-linejoin:miter;stroke-miterlimit:4;stroke-dasharray:none;stroke-dashoffset:0;stroke-opacity:1;color-rendering:auto;image-rendering:auto;shape-rendering:auto;text-rendering:auto;enable-background:accumulate;stop-color:#000" id="path1011" d="M 96.000822,935.44263 C 72.514251,935.44263 53.5,953.79234 53.5,976.5892 v 0.68867 h 0.0972 c 1.371066,-20.8965 18.746499,-37.45663 40.378833,-38.43478 0.670738,-0.0326 1.34517,-0.0494 2.02479,-0.0494 21.747887,0 39.149787,16.85875 39.149787,37.79554 a 0.76999334,0.76999334 0 0 0 0.84353,0.68865 h 1.66233 A 0.76999334,0.76999334 0 0 0 138.5,976.5892 c 0,-22.79687 -19.0126,-41.14658 -42.499178,-41.14658 z"/></g><style id="style853" type="text/css"/><style id="style853-9" type="text/css"/><style id="style853-3" type="text/css"/></svg>