<svg xmlns="http://www.w3.org/2000/svg" xmlns:svg="http://www.w3.org/2000/svg" id="svg2" width="192" height="192" version="1.1" viewBox="0 0 192 192"><metadata id="metadata7"/><g id="layer1" transform="translate(0,-860.36216)"><rect id="rect939" width="153" height="153" x="19.5" y="879.862" rx="10" style="fill:#73ada4;fill-opacity:1;fill-rule:evenodd;stroke:#728dbe;stroke-opacity:0"/><text id="text943" x="57.33" y="950.012" xml:space="preserve" style="font-style:normal;font-variant:normal;font-weight:700;font-stretch:normal;font-size:35.0649px;line-height:1.25;font-family:Now;-inkscape-font-specification:'Now, Bold';font-variant-ligatures:normal;font-variant-caps:normal;font-variant-numeric:normal;font-feature-settings:normal;text-align:start;letter-spacing:0;word-spacing:0;writing-mode:lr-tb;text-anchor:start;fill:#fff;fill-opacity:1;stroke:none;stroke-width:.876623"><tspan style="stroke-width:.876623" id="tspan941" x="57.33" y="950.012">BBC</tspan></text><g id="g1031" transform="translate(0,-1.4142136)"><path id="path977" d="m 45.999617,977.8179 v -13.90533 h -2.543141 v 16.39135 h 8.018678 v -2.48602 z" style="font-style:normal;font-variant:normal;font-weight:500;font-stretch:normal;font-size:21.3007px;line-height:1.25;font-family:Now;-inkscape-font-specification:'Now Medium';font-variant-ligatures:normal;font-variant-caps:normal;font-variant-numeric:normal;font-feature-settings:normal;text-align:center;letter-spacing:0;word-spacing:0;writing-mode:lr-tb;text-anchor:middle;fill:#fff;fill-opacity:1;stroke:none;stroke-width:.532507"/><path id="path979" d="m 62.374296,966.34396 v -2.43139 h -8.926942 v 16.39135 h 8.926942 v -2.43139 h -6.383801 v -4.53493 h 5.527437 v -2.45871 h -5.527437 v -4.53493 z" style="font-style:normal;font-variant:normal;font-weight:500;font-stretch:normal;font-size:21.3007px;line-height:1.25;font-family:Now;-inkscape-font-specification:'Now Medium';font-variant-ligatures:normal;font-variant-caps:normal;font-variant-numeric:normal;font-feature-settings:normal;text-align:center;letter-spacing:0;word-spacing:0;writing-mode:lr-tb;text-anchor:middle;fill:#fff;fill-opacity:1;stroke:none;stroke-width:.532507"/><path id="path981" d="m 74.856413,980.30392 h 2.750745 l -5.63124,-16.39135 h -2.828595 l -5.63124,16.39135 h 2.750744 l 1.115868,-3.4695 h 6.357851 z m -6.721156,-5.81893 2.439338,-7.6493 2.439339,7.6493 z" style="font-style:normal;font-variant:normal;font-weight:500;font-stretch:normal;font-size:21.3007px;line-height:1.25;font-family:Now;-inkscape-font-specification:'Now Medium';font-variant-ligatures:normal;font-variant-caps:normal;font-variant-numeric:normal;font-feature-settings:normal;text-align:center;letter-spacing:0;word-spacing:0;writing-mode:lr-tb;text-anchor:middle;fill:#fff;fill-opacity:1;stroke:none;stroke-width:.532507"/><path id="path983" d="m 86.352432,973.17368 c 1.94628,-0.4371 3.373553,-2.24015 3.373553,-4.45298 0,-2.67726 -1.972231,-4.80813 -4.489422,-4.80813 h -6.098346 v 16.39135 h 2.54314 v -6.88436 h 2.153884 l 4.126116,6.88436 h 2.854545 z m -4.671075,-2.07623 v -4.69886 h 3.243802 c 1.32347,0 2.309587,0.95616 2.309587,2.34943 0,1.39326 -0.986117,2.34943 -2.309587,2.34943 z" style="font-style:normal;font-variant:normal;font-weight:500;font-stretch:normal;font-size:21.3007px;line-height:1.25;font-family:Now;-inkscape-font-specification:'Now Medium';font-variant-ligatures:normal;font-variant-caps:normal;font-variant-numeric:normal;font-feature-settings:normal;text-align:center;letter-spacing:0;word-spacing:0;writing-mode:lr-tb;text-anchor:middle;fill:#fff;fill-opacity:1;stroke:none;stroke-width:.532507"/><path id="path985" d="m 103.76514,963.91257 v 12.15692 l -8.641489,-12.15692 h -2.543139 v 16.39135 h 2.543139 v -12.18423 l 8.615539,12.18423 h 2.54314 v -16.39135 z" style="font-style:normal;font-variant:normal;font-weight:500;font-stretch:normal;font-size:21.3007px;line-height:1.25;font-family:Now;-inkscape-font-specification:'Now Medium';font-variant-ligatures:normal;font-variant-caps:normal;font-variant-numeric:normal;font-feature-settings:normal;text-align:center;letter-spacing:0;word-spacing:0;writing-mode:lr-tb;text-anchor:middle;fill:#fff;fill-opacity:1;stroke:none;stroke-width:.532507"/><path id="path987" d="m 109.83751,980.30392 h 2.54314 v -16.39135 h -2.54314 z" style="font-style:normal;font-variant:normal;font-weight:500;font-stretch:normal;font-size:21.3007px;line-height:1.25;font-family:Now;-inkscape-font-specification:'Now Medium';font-variant-ligatures:normal;font-variant-caps:normal;font-variant-numeric:normal;font-feature-settings:normal;text-align:center;letter-spacing:0;word-spacing:0;writing-mode:lr-tb;text-anchor:middle;fill:#fff;fill-opacity:1;stroke:none;stroke-width:.532507"/><path id="path989" d="m 127.09454,963.91257 v 12.15692 l -8.64149,-12.15692 h -2.54314 v 16.39135 h 2.54314 v -12.18423 l 8.61553,12.18423 h 2.54315 v -16.39135 z" style="font-style:normal;font-variant:normal;font-weight:500;font-stretch:normal;font-size:21.3007px;line-height:1.25;font-family:Now;-inkscape-font-specification:'Now Medium';font-variant-ligatures:normal;font-variant-caps:normal;font-variant-numeric:normal;font-feature-settings:normal;text-align:center;letter-spacing:0;word-spacing:0;writing-mode:lr-tb;text-anchor:middle;fill:#fff;fill-opacity:1;stroke:none;stroke-width:.532507"/><path id="path991" d="m 140.45898,971.45259 v 2.24016 h 5.29388 c -0.62281,2.45869 -2.72479,4.17978 -5.26793,4.17978 -3.0881,0 -5.50149,-2.51334 -5.50149,-5.76428 0,-3.25095 2.41339,-5.76429 5.50149,-5.76429 2.10198,0 3.89256,1.17471 4.82678,2.97776 l 2.17983,-1.22936 c -1.34942,-2.62261 -3.99636,-4.39834 -7.00661,-4.39834 -4.43753,0 -7.99273,3.77001 -7.99273,8.41423 0,4.64421 3.5552,8.41422 7.99273,8.41422 4.41156,0 7.99273,-3.77001 7.99273,-8.41422 v -0.65566 z" style="font-style:normal;font-variant:normal;font-weight:500;font-stretch:normal;font-size:21.3007px;line-height:1.25;font-family:Now;-inkscape-font-specification:'Now Medium';font-variant-ligatures:normal;font-variant-caps:normal;font-variant-numeric:normal;font-feature-settings:normal;text-align:center;letter-spacing:0;word-spacing:0;writing-mode:lr-tb;text-anchor:middle;fill:#fff;fill-opacity:1;stroke:none;stroke-width:.532507"/></g><g id="g1040" transform="translate(0,-6.4982831)"><path id="path993" d="m 60.791339,993.79836 v -2.43139 h -8.926942 v 16.39133 h 8.926942 v -2.4314 h -6.383802 v -4.5349 h 5.527439 v -2.45871 h -5.527439 v -4.53493 z" style="font-style:normal;font-variant:normal;font-weight:500;font-stretch:normal;font-size:21.3007px;line-height:1.25;font-family:Now;-inkscape-font-specification:'Now Medium';font-variant-ligatures:normal;font-variant-caps:normal;font-variant-numeric:normal;font-feature-settings:normal;text-align:center;letter-spacing:0;word-spacing:0;writing-mode:lr-tb;text-anchor:middle;fill:#fff;fill-opacity:1;stroke:none;stroke-width:.532507"/><path id="path995" d="m 75.012135,991.36697 v 12.15693 l -8.641487,-12.15693 h -2.543141 v 16.39133 h 2.543141 v -12.18422 l 8.615537,12.18422 h 2.54314 v -16.39133 z" style="font-style:normal;font-variant:normal;font-weight:500;font-stretch:normal;font-size:21.3007px;line-height:1.25;font-family:Now;-inkscape-font-specification:'Now Medium';font-variant-ligatures:normal;font-variant-caps:normal;font-variant-numeric:normal;font-feature-settings:normal;text-align:center;letter-spacing:0;word-spacing:0;writing-mode:lr-tb;text-anchor:middle;fill:#fff;fill-opacity:1;stroke:none;stroke-width:.532507"/><path id="path997" d="m 88.376574,998.907 v 2.2401 h 5.293884 c -0.62281,2.4587 -2.724793,4.1798 -5.267933,4.1798 -3.088099,0 -5.501488,-2.5133 -5.501488,-5.76425 0,-3.25095 2.413389,-5.76429 5.501488,-5.76429 2.101984,0 3.892562,1.17471 4.826776,2.97776 l 2.179835,-1.22936 c -1.349422,-2.62261 -3.996364,-4.39834 -7.006611,-4.39834 -4.437521,0 -7.992727,3.77001 -7.992727,8.41423 0,4.64425 3.555206,8.41425 7.992727,8.41425 4.41157,0 7.992727,-3.77 7.992727,-8.41425 V 998.907 Z" style="font-style:normal;font-variant:normal;font-weight:500;font-stretch:normal;font-size:21.3007px;line-height:1.25;font-family:Now;-inkscape-font-specification:'Now Medium';font-variant-ligatures:normal;font-variant-caps:normal;font-variant-numeric:normal;font-feature-settings:normal;text-align:center;letter-spacing:0;word-spacing:0;writing-mode:lr-tb;text-anchor:middle;fill:#fff;fill-opacity:1;stroke:none;stroke-width:.532507"/><path id="path999" d="m 101.79291,1005.2723 v -13.90533 h -2.543143 v 16.39133 h 8.018673 v -2.486 z" style="font-style:normal;font-variant:normal;font-weight:500;font-stretch:normal;font-size:21.3007px;line-height:1.25;font-family:Now;-inkscape-font-specification:'Now Medium';font-variant-ligatures:normal;font-variant-caps:normal;font-variant-numeric:normal;font-feature-settings:normal;text-align:center;letter-spacing:0;word-spacing:0;writing-mode:lr-tb;text-anchor:middle;fill:#fff;fill-opacity:1;stroke:none;stroke-width:.532507"/><path id="path1001" d="m 109.24065,1007.7583 h 2.54313 v -16.39133 h -2.54313 z" style="font-style:normal;font-variant:normal;font-weight:500;font-stretch:normal;font-size:21.3007px;line-height:1.25;font-family:Now;-inkscape-font-specification:'Now Medium';font-variant-ligatures:normal;font-variant-caps:normal;font-variant-numeric:normal;font-feature-settings:normal;text-align:center;letter-spacing:0;word-spacing:0;writing-mode:lr-tb;text-anchor:middle;fill:#fff;fill-opacity:1;stroke:none;stroke-width:.532507"/><path id="path1003" d="m 119.64676,1007.9769 c 2.80265,0 5.08628,-1.7484 5.08628,-4.6989 0,-5.81892 -7.36992,-4.39833 -7.36992,-7.75855 0,-1.28399 0.96016,-1.88501 2.10198,-1.88501 1.03802,0 1.97224,0.49174 2.67289,1.42059 l 1.79058,-1.72109 c -0.98611,-1.284 -2.62098,-2.18552 -4.46347,-2.18552 -2.43933,0 -4.64512,1.61181 -4.64512,4.56226 0,5.43642 7.36992,4.09784 7.36992,7.56732 0,1.3386 -1.06397,2.1309 -2.51719,2.1309 -1.58298,0 -2.7767,-0.9289 -3.32165,-2.3221 l -2.17984,1.3932 c 0.90827,2.049 2.9843,3.4969 5.47554,3.4969 z" style="font-style:normal;font-variant:normal;font-weight:500;font-stretch:normal;font-size:21.3007px;line-height:1.25;font-family:Now;-inkscape-font-specification:'Now Medium';font-variant-ligatures:normal;font-variant-caps:normal;font-variant-numeric:normal;font-feature-settings:normal;text-align:center;letter-spacing:0;word-spacing:0;writing-mode:lr-tb;text-anchor:middle;fill:#fff;fill-opacity:1;stroke:none;stroke-width:.532507"/><path id="path1005" d="m 137.08542,991.36697 v 6.93901 h -7.44778 v -6.93901 h -2.54313 v 16.39133 h 2.54313 v -6.9663 h 7.44778 v 6.9663 h 2.54313 v -16.39133 z" style="font-style:normal;font-variant:normal;font-weight:500;font-stretch:normal;font-size:21.3007px;line-height:1.25;font-family:Now;-inkscape-font-specification:'Now Medium';font-variant-ligatures:normal;font-variant-caps:normal;font-variant-numeric:normal;font-feature-settings:normal;text-align:center;letter-spacing:0;word-spacing:0;writing-mode:lr-tb;text-anchor:middle;fill:#fff;fill-opacity:1;stroke:none;stroke-width:.532507"/></g></g><style id="style853" type="text/css"/></svg>