<svg xmlns="http://www.w3.org/2000/svg" xmlns:svg="http://www.w3.org/2000/svg" id="svg2" width="192" height="192" version="1.1" viewBox="0 0 192 192"><metadata id="metadata7"/><g id="layer1" transform="translate(0,-860.36216)"><path style="fill:#738dbe;fill-opacity:1;fill-rule:evenodd;stroke:none;stroke-opacity:1" id="rect900" d="M 29.5 19.5 C 23.96 19.5 19.5 23.96 19.5 29.5 L 19.5 162.5 C 19.5 168.04 23.96 172.5 29.5 172.5 L 90.949219 172.5 L 114.89844 105.97266 L 146.0293 19.5 L 29.5 19.5 z" transform="translate(0,860.36216)"/><path style="font-weight:700;font-size:31.1093px;line-height:1.25;font-family:Now;-inkscape-font-specification:'Now Bold';letter-spacing:0;word-spacing:0;stroke-width:3.19918;fill:#9bbfff;fill-opacity:1" id="path929" d="M 146.0293 19.5 L 114.89844 105.97266 L 90.949219 172.5 L 162.5 172.5 C 168.04 172.5 172.5 168.04 172.5 162.5 L 172.5 29.5 C 172.5 23.96 168.04 19.5 162.5 19.5 L 146.0293 19.5 z" transform="translate(0,860.36216)"/><path id="path912" d="m 68.584977,957.88501 c 1.749898,-0.93328 2.87761,-2.56652 2.87761,-5.01638 0,-4.12198 -3.11093,-6.49406 -7.038479,-6.49406 h -9.877203 v 23.33197 H 65.3185 c 3.888663,0 6.92182,-2.25542 6.92182,-6.3774 0,-2.83873 -1.477692,-4.58863 -3.655343,-5.44413 z m -2.255424,-4.47196 c 0,1.36103 -1.127713,2.52763 -2.527631,2.52763 H 59.67994 v -5.01638 h 4.121982 c 1.399918,0 2.527631,1.08883 2.527631,2.48875 z m -1.749899,11.74376 H 59.67994 v -5.01638 h 4.899714 c 1.438806,0 2.527631,1.1666 2.527631,2.52763 0,1.39992 -1.088825,2.48875 -2.527631,2.48875 z" style="font-weight:700;font-size:31.1093px;line-height:1.25;font-family:Now;-inkscape-font-specification:'Now Bold';letter-spacing:0;word-spacing:0;fill:#fff;fill-opacity:1;stroke-width:.777733"/><path id="path914" d="m 89.700387,957.88501 c 1.749898,-0.93328 2.87761,-2.56652 2.87761,-5.01638 0,-4.12198 -3.11093,-6.49406 -7.038479,-6.49406 h -9.877203 v 23.33197 H 86.43391 c 3.888663,0 6.921819,-2.25542 6.921819,-6.3774 0,-2.83873 -1.477691,-4.58863 -3.655342,-5.44413 z m -2.255425,-4.47196 c 0,1.36103 -1.127712,2.52763 -2.52763,2.52763 h -4.121983 v -5.01638 h 4.121983 c 1.399918,0 2.52763,1.08883 2.52763,2.48875 z m -1.749898,11.74376 h -4.899715 v -5.01638 h 4.899715 c 1.438805,0 2.527631,1.1666 2.527631,2.52763 0,1.39992 -1.088826,2.48875 -2.527631,2.48875 z" style="font-weight:700;font-size:31.1093px;line-height:1.25;font-family:Now;-inkscape-font-specification:'Now Bold';letter-spacing:0;word-spacing:0;fill:#fff;fill-opacity:1;stroke-width:.777733"/><path id="path916" d="m 110.8158,946.37457 -5.56079,16.68236 -5.560788,-16.68236 h -5.716334 l 8.399512,23.33197 h 5.75522 l 8.39951,-23.33197 z" style="font-weight:700;font-size:31.1093px;line-height:1.25;font-family:Now;-inkscape-font-specification:'Now Bold';letter-spacing:0;word-spacing:0;fill:#fff;fill-opacity:1;stroke-width:.777733"/><path id="path918" d="m 130.53128,961.94097 1.4388,4.39419 h 5.48302 l -8.39951,-23.33197 h -5.75522 l -8.39952,23.33197 h 5.48302 l 1.4388,-4.39419 1.36104,-4.27752 2.99427,-9.25502 2.99427,9.25502 z" style="font-weight:700;font-size:31.1093px;line-height:1.25;font-family:Now;-inkscape-font-specification:'Now Bold';letter-spacing:0;word-spacing:0;fill:#fff;fill-opacity:1;stroke-width:.777733"/></g><style id="style853" type="text/css"/><style id="style873" type="text/css"/></svg>