<svg xmlns="http://www.w3.org/2000/svg" xmlns:svg="http://www.w3.org/2000/svg" id="svg2" width="192" height="192" version="1.1" viewBox="0 0 192 192"><metadata id="metadata7"/><g id="layer1" transform="translate(0,-860.36216)"><rect id="rect1001" width="153" height="153" x="19.5" y="879.862" rx="10" style="fill:#708cbd;fill-opacity:1;fill-rule:evenodd;stroke:none;stroke-opacity:1"/><path style="fill:#fff;fill-opacity:1;stroke-width:.689738" id="path1169" d="m 41.132661,943.30212 c 1.172555,-0.55179 2.689979,-0.2759 3.586639,0.62076 1.379476,1.86229 1.44845,4.13843 1.379476,6.27663 -0.06897,1.72434 -0.344869,3.44868 -1.034607,5.03509 -2.34511,-2.68999 -5.310985,-4.82817 -8.690702,-6.3456 0.827686,-2.27614 2.345111,-4.4833 4.759194,-5.58688" class="st3"/><path style="fill:#fff;fill-opacity:1;stroke-width:.689738" id="path1171" d="m 146.73159,943.30212 c 1.17255,-0.55179 2.68998,-0.2759 3.58663,0.62076 1.37948,1.86229 1.44845,4.13843 1.37948,6.27663 -0.069,1.72434 -0.34487,3.44868 -1.0346,5.03509 -2.34511,-2.68999 -5.31099,-4.82817 -8.69071,-6.3456 0.82769,-2.27614 2.34511,-4.4833 4.7592,-5.58688" class="st4"/><path style="stroke-width:.689738;fill:#f8c18c;fill-opacity:1" id="path1173" d="m 44.029561,943.02622 c 3.448692,2.00025 6.138671,4.82817 8.414807,7.93199 1.862293,2.55203 2.069215,6.20765 0.275895,8.82866 -2.207162,3.44868 -5.448931,6.13867 -8.828649,8.62172 -1.862294,1.3105 -4.13843,2.89691 -6.621487,2.27614 -2.34511,-0.55179 -3.793561,-2.48306 -4.828167,-4.41432 4.966115,-2.75896 9.863256,-6.41457 11.863496,-11.65658 0.68974,-1.65537 0.965635,-3.4487 1.034608,-5.17304 0.06897,-2.20716 0,-4.55227 -1.310503,-6.41457" class="st5"/><path style="stroke-width:.689738;fill:#f8c18c;fill-opacity:1" id="path1175" d="m 149.62849,943.02622 c 3.44868,2.00025 6.13866,4.82817 8.4148,7.93199 1.86229,2.55203 2.06922,6.20765 0.2759,8.82866 -2.20716,3.44868 -5.44894,6.13867 -8.82865,8.62172 -1.8623,1.3105 -4.13843,2.89691 -6.62149,2.27614 -2.34511,-0.55179 -3.79356,-2.48306 -4.82817,-4.41432 4.96612,-2.75896 9.86326,-6.41457 11.8635,-11.65658 0.68973,-1.65537 0.96564,-3.4487 1.03461,-5.17304 0.069,-2.20716 0,-4.55227 -1.3105,-6.41457" class="st5"/><text id="text1179" x="53.012" y="971.034" xml:space="preserve" style="font-weight:700;font-size:39.1254px;line-height:1.25;font-family:Now;-inkscape-font-specification:'Now Bold';letter-spacing:0;word-spacing:0;fill:#fff;fill-opacity:1;stroke-width:.978136"><tspan style="font-style:italic;font-variant:normal;font-weight:700;font-stretch:normal;font-family:Now;-inkscape-font-specification:'Now Bold Italic';fill:#fff;fill-opacity:1;stroke-width:.978136" id="tspan1177" x="53.012" y="971.034">BCP</tspan></text></g><style id="style853" type="text/css"/><style id="style907" type="text/css">.st3{fill:url(#Fill-8_1_)}.st4{fill:url(#Fill-8-Copy_1_)}.st5{fill:#f67d31}</style></svg>