<svg xmlns="http://www.w3.org/2000/svg" xmlns:svg="http://www.w3.org/2000/svg" id="svg2" width="192" height="192" version="1.1" viewBox="0 0 192 192"><metadata id="metadata7"/><g id="layer1" transform="translate(0,-860.36216)"><rect id="rect923" width="152" height="152" x="20" y="880.362" rx="9.935" ry="9.935" style="fill:#fff;fill-opacity:1;fill-rule:evenodd;stroke:none;stroke-width:.993464;stroke-opacity:1"/><text id="text927" x="50.702" y="973.217" xml:space="preserve" style="font-style:italic;font-variant:normal;font-weight:700;font-stretch:normal;font-size:44.945px;line-height:1.25;font-family:Now;-inkscape-font-specification:'Now Bold Italic';letter-spacing:0;word-spacing:0;fill:#708cbd;fill-opacity:1;stroke-width:1.12362"><tspan style="fill:#708cbd;fill-opacity:1;stroke-width:1.12362" id="tspan925" x="50.702" y="973.217">BCR</tspan></text><path id="path933" d="m 77.724979,956.13745 c 2.809062,-1.34835 4.887768,-3.70796 5.618125,-7.24738 1.179806,-5.95521 -2.640519,-9.38227 -8.314825,-9.38227 H 60.758241 l -6.74175,33.70875 h 15.562206 c 5.618125,0 10.674438,-3.25851 11.854244,-9.21372 0.786538,-4.10123 -0.842719,-6.62939 -3.707962,-7.86538 z m -1.966344,-6.46084 c -0.393269,1.96634 -2.359613,3.65178 -4.382138,3.65178 h -5.955212 l 1.460712,-7.24738 h 5.955213 c 2.022525,0 3.314694,1.57307 2.921425,3.5956 z m -5.955213,16.96674 h -7.078837 l 1.460712,-7.24738 h 7.078838 c 2.078706,0 3.314694,1.68543 2.921425,3.65178 -0.393269,2.02252 -2.303431,3.5956 -4.382138,3.5956 z" style="font-style:italic;font-variant:normal;font-weight:700;font-stretch:normal;font-size:44.945px;line-height:1.25;font-family:Now;-inkscape-font-specification:'Now Bold Italic';letter-spacing:0;word-spacing:0;fill:#708cbd;fill-opacity:1;stroke-width:1.12362"/><path style="fill:#ff837d;fill-opacity:1;stroke:none;stroke-width:1px;stroke-linecap:butt;stroke-linejoin:miter;stroke-opacity:1" id="path945" d="m 20,939.50864 v 33.70704 h 26.890625 l 6.740234,-33.70704 z"/></g><style id="style853" type="text/css"/><style id="style853-9" type="text/css"/><style id="style853-3" type="text/css"/></svg>