<svg xmlns="http://www.w3.org/2000/svg" xmlns:svg="http://www.w3.org/2000/svg" id="svg2" width="192" height="192" version="1.1" viewBox="0 0 192 192"><metadata id="metadata7"/><g id="layer1" transform="translate(0,-860.36216)"><rect id="rect939" width="152" height="152" x="20" y="880.362" rx="9.935" ry="9.935" style="fill:#708cbd;fill-opacity:1;fill-rule:evenodd;stroke:none;stroke-width:.993464;stroke-opacity:1"/><path id="path941" d="m 74.126433,956.13363 c 2.571163,-1.37129 4.228139,-3.77105 4.228139,-7.37067 0,-6.05652 -4.570956,-9.54188 -10.341789,-9.54188 H 53.5 v 34.28217 h 15.826932 c 5.713698,0 10.170382,-3.31395 10.170382,-9.37046 0,-4.17099 -2.171211,-6.74216 -5.370881,-7.99916 z m -3.313942,-6.57076 c 0,1.9998 -1.656967,3.7139 -3.713896,3.7139 h -6.056523 v -7.37067 h 6.056523 c 2.056929,0 3.713896,1.59985 3.713896,3.65677 z m -2.571163,17.25536 h -7.199256 v -7.37067 h 7.199256 c 2.114074,0 3.713904,1.71411 3.713904,3.71391 0,2.05693 -1.59983,3.65676 -3.713904,3.65676 z" style="font-style:normal;font-variant:normal;font-weight:700;font-stretch:normal;font-size:50.5607px;line-height:1.25;font-family:Now;-inkscape-font-specification:'Now Bold';letter-spacing:0;word-spacing:0;fill:#fff;fill-opacity:1;stroke-width:1.14274"/><path id="path943" d="m 79.156911,973.50325 h 11.313113 c 9.427591,0 17.141086,-7.65634 17.141086,-17.14109 0,-9.48472 -7.713495,-17.14108 -17.141086,-17.14108 H 79.156911 Z m 7.542072,-6.68502 V 945.9061 h 3.713904 c 5.428008,0 9.656143,4.51382 9.656143,10.45606 0,5.94224 -4.228135,10.45607 -9.656143,10.45607 z" style="font-style:normal;font-variant:normal;font-weight:700;font-stretch:normal;font-size:50.5607px;line-height:1.25;font-family:Now;-inkscape-font-specification:'Now Bold';letter-spacing:0;word-spacing:0;fill:#fff;fill-opacity:1;stroke-width:1.14274"/><path id="path945" d="m 120.90182,973.96034 c 9.77042,0 17.59818,-7.88489 17.59818,-17.59818 0,-9.71328 -7.82776,-17.59817 -17.59818,-17.59817 -9.71328,0 -17.59819,7.88489 -17.59819,17.59817 0,9.71329 7.88491,17.59818 17.59819,17.59818 z m 0,-7.37066 c -5.77084,0 -10.17039,-4.45668 -10.17039,-10.22752 0,-5.77082 4.39955,-10.2275 10.17039,-10.2275 5.82797,0 10.22751,4.45668 10.22751,10.2275 0,5.77084 -4.39954,10.22752 -10.22751,10.22752 z" style="font-style:normal;font-variant:normal;font-weight:700;font-stretch:normal;font-size:50.5607px;line-height:1.25;font-family:Now;-inkscape-font-specification:'Now Bold';letter-spacing:0;word-spacing:0;fill:#f9de81;fill-opacity:1;stroke-width:1.14274"/></g><style id="style853" type="text/css"/><style id="style853-9" type="text/css"/><style id="style853-3" type="text/css"/><style id="style853-1" type="text/css"/></svg>