<svg xmlns="http://www.w3.org/2000/svg" xmlns:svg="http://www.w3.org/2000/svg" id="svg2" width="192" height="192" version="1.1" viewBox="0 0 192 192"><metadata id="metadata7"/><g id="layer1" transform="translate(0,-860.36216)"><rect id="rect960" width="153" height="153" x="19.5" y="879.862" rx="10" style="fill:#ffb0ac;fill-opacity:1;fill-rule:evenodd;stroke:none;stroke-opacity:1"/><path style="color:#000;font-style:normal;font-variant:normal;font-weight:400;font-stretch:normal;font-size:medium;line-height:normal;font-family:sans-serif;font-variant-ligatures:normal;font-variant-position:normal;font-variant-caps:normal;font-variant-numeric:normal;font-variant-alternates:normal;font-variant-east-asian:normal;font-feature-settings:normal;font-variation-settings:normal;text-indent:0;text-align:start;text-decoration:none;text-decoration-line:none;text-decoration-style:solid;text-decoration-color:#000;letter-spacing:normal;word-spacing:normal;text-transform:none;writing-mode:lr-tb;direction:ltr;text-orientation:mixed;dominant-baseline:auto;baseline-shift:baseline;text-anchor:start;white-space:normal;shape-padding:0;shape-margin:0;inline-size:0;clip-rule:nonzero;display:inline;overflow:visible;visibility:visible;isolation:auto;mix-blend-mode:normal;color-interpolation:sRGB;color-interpolation-filters:linearRGB;solid-color:#000;solid-opacity:1;vector-effect:none;fill:#fff;fill-opacity:1;fill-rule:nonzero;stroke:none;stroke-width:13.5833;stroke-linecap:round;stroke-linejoin:round;stroke-miterlimit:4;stroke-dasharray:none;stroke-dashoffset:0;stroke-opacity:1;color-rendering:auto;image-rendering:auto;shape-rendering:auto;text-rendering:auto;enable-background:accumulate;stop-color:#000" id="path962" d="m 64.91016,879.86216 -2.92383,15.01172 -4.03515,20.71875 -4.03321,20.7207 -4.03515,20.71875 c -1.07868,5.53935 -0.51544,10.75449 0.32617,15.30469 0.89229,4.82411 2.5165,9.45585 4.79101,13.74215 2.27452,4.2864 5.20062,8.2268 8.69532,11.67 3.49468,3.44308 7.5603,6.38728 12.10156,8.66988 18.165,9.1299 40.18245,5.7698 54.79687,-8.36328 14.61442,-14.1331 18.71017,-36.02585 10.19336,-54.48633 -8.51681,-18.46047 -27.83128,-29.55317 -48.06836,-27.60742 a 6.7916498,6.7916498 0 0 0 -6.10937,7.41016 6.7916498,6.7916498 0 0 0 7.41016,6.11132 c 14.53897,-1.39789 28.31484,6.51278 34.43358,19.77539 6.11876,13.26262 3.19675,28.87953 -7.30273,39.03318 -10.49948,10.1537 -26.20354,12.54948 -39.2539,5.9903 -3.26258,-1.6399 -6.16653,-3.7445 -8.66797,-6.209 -2.50144,-2.4646 -4.59786,-5.2884 -6.22852,-8.3614 -1.63065,-3.07293 -2.79491,-6.39264 -3.43359,-9.84565 -0.68934,-3.72692 -0.94232,-7.20456 -0.35156,-10.23828 l 4.03515,-20.71875 4.03516,-20.71875 4.0332,-20.72071 3.42969,-17.60742 z"/></g><style id="style853" type="text/css"/></svg>