<svg xmlns="http://www.w3.org/2000/svg" xmlns:svg="http://www.w3.org/2000/svg" id="svg2" width="192" height="192" version="1.1" viewBox="0 0 192 192"><metadata id="metadata7"/><g id="layer1" transform="translate(0,-860.36216)"><rect style="fill:#fefefe;fill-opacity:1;fill-rule:evenodd;stroke:none;stroke-opacity:1" id="rect893" width="153" height="153" x="19.5" y="879.862" rx="10"/><g id="g952" transform="translate(0.04011051,-0.05784642)"><path style="fill:#98db9a;fill-opacity:1" id="polygon895" d="M 817.63552,301.68166 876.16448,90.518339 a 1.9284099,1.9284099 174.40126 0 1 3.58129,-0.351069 l 51.00846,101.46546 a 6.7228779,6.7228779 99.949784 0 1 -1.38645,7.9034 L 819.93222,303.06387 a 1.3911843,1.3911843 31.040512 0 1 -2.2967,-1.38221 z" transform="matrix(0.33061594,0,0,0.33061594,-186.70969,891.52837)"/><path style="fill:#f8c28d;fill-opacity:1" id="polygon897" d="M 778.53754,301.68222 837.16246,90.517777 a 1.9296178,1.9296178 174.4133 0 1 3.58331,-0.350507 l 51.00846,101.46546 a 6.7198771,6.7198771 99.962034 0 1 -1.38792,7.90185 L 780.83369,303.06542 a 1.3912033,1.3912033 31.06481 0 1 -2.29615,-1.3832 z" transform="matrix(0.33061594,0,0,0.33061594,-186.70969,891.52837)"/></g></g><style id="style853" type="text/css"/></svg>