<svg xmlns="http://www.w3.org/2000/svg" xmlns:svg="http://www.w3.org/2000/svg" id="svg2" width="192" height="192" version="1.1" viewBox="0 0 192 192"><metadata id="metadata7"/><g id="layer1" transform="translate(0,-860.36216)"><rect id="rect1006" width="153" height="153" x="19.5" y="879.862" rx="10" style="fill:#fff;fill-opacity:1;fill-rule:evenodd;stroke:none;stroke-opacity:1"/><g id="g1022" transform="matrix(0.738481,0,0,0.738481,25.105824,249.82345)"><path style="opacity:1;fill:#97db99;fill-opacity:1;stroke:none;stroke-width:16.4622;stroke-linecap:round;stroke-linejoin:round;stroke-miterlimit:4;stroke-dasharray:none;stroke-opacity:1;stop-color:#000" id="rect982" d="m 58.601562,65.476562 c -6.663245,0 -12.027343,5.364094 -12.027343,12.027344 v 37.757814 c 0,6.66325 5.364097,12.0293 12.027343,12.0293 h 74.796878 c 6.66325,0 12.02734,-5.36605 12.02734,-12.0293 V 77.503906 c 0,-6.66325 -5.36409,-12.027344 -12.02734,-12.027344 H 105.125 l -9.111328,11.97461 -9.113281,-11.97461 z" transform="translate(0,860.36216)"/><rect id="rect995" width="74.884" height="37.859" x="58.571" y="937.814" rx="0" ry="0" style="opacity:1;fill:#fff;fill-opacity:1;stroke:none;stroke-width:11.6572;stroke-linecap:round;stroke-linejoin:round;stroke-miterlimit:4;stroke-dasharray:none;stroke-opacity:1;stop-color:#000"/><path id="rect937" width="12.584" height="12.584" x="71.317" y="950.423" d="m 71.317444,950.4231 h 12.584392 v 12.58439 H 71.317444 Z" rx="0" ry="0" style="opacity:1;fill:#97db99;fill-opacity:1;stroke:none;stroke-width:23.9592;stroke-linecap:round;stroke-linejoin:round;stroke-miterlimit:4;stroke-dasharray:none;stroke-opacity:1;stop-color:#000"/><path id="path949" width="12.584" height="12.584" x="108.098" y="950.423" d="m 108.09816,950.4231 h 12.58439 v 12.58439 h -12.58439 z" rx="0" ry="0" style="opacity:1;fill:#97db99;fill-opacity:1;stroke:none;stroke-width:23.9592;stroke-linecap:round;stroke-linejoin:round;stroke-miterlimit:4;stroke-dasharray:none;stroke-opacity:1;stop-color:#000"/></g></g><style id="style853" type="text/css"/></svg>