<svg xmlns="http://www.w3.org/2000/svg" xmlns:svg="http://www.w3.org/2000/svg" id="svg2" width="192" height="192" version="1.1" viewBox="0 0 192 192"><metadata id="metadata7"/><g id="layer1" transform="translate(0,-860.36216)"><path style="fill:#56595b;fill-opacity:1;stroke:none;stroke-width:.654782;stroke-linecap:butt;stroke-linejoin:miter;stroke-miterlimit:4;stroke-dasharray:none;stroke-opacity:1" id="path1033" d="M 52.258293,880.85327 39.588985,950.2376 c -5.350447,1.27072 -22.083182,5.44916 -31.1609774,13.8246 -1.5681115,1.44678 0.9684097,3.86177 11.0161994,4.49138 15.068894,0.94424 36.699295,1.04612 76.555793,1.04612 39.8565,0 61.48691,-0.10188 76.55579,-1.04612 10.04781,-0.62961 12.58431,-3.0446 11.0162,-4.49138 -9.07778,-8.37544 -25.81053,-12.55388 -31.16098,-13.8246 l -12.6693,-69.38433 a 3.1213337,3.1213337 0 0 0 -3.50912,-2.52969 l -38.747469,5.49865 a 10.570086,10.570086 0 0 1 -2.970242,0 l -38.747466,-5.49865 a 3.1213339,3.1213339 0 0 0 -3.50912,2.52969 z"/><path id="path1035" d="m 114.79611,987.86548 a 18.796152,18.796152 0 0 1 -9.39807,16.27792 18.796152,18.796152 0 0 1 -18.796155,0 18.796152,18.796152 0 0 1 -9.398075,-16.27792 h 18.796152 z" style="fill:#56595b;fill-opacity:1;stroke:none;stroke-width:.654782;stroke-linecap:round;stroke-miterlimit:4;stroke-dasharray:none;stop-color:#000"/><path style="color:#000;font-style:normal;font-variant:normal;font-weight:400;font-stretch:normal;font-size:medium;line-height:normal;font-family:sans-serif;font-variant-ligatures:normal;font-variant-position:normal;font-variant-caps:normal;font-variant-numeric:normal;font-variant-alternates:normal;font-variant-east-asian:normal;font-feature-settings:normal;font-variation-settings:normal;text-indent:0;text-align:start;text-decoration:none;text-decoration-line:none;text-decoration-style:solid;text-decoration-color:#000;letter-spacing:normal;word-spacing:normal;text-transform:none;writing-mode:lr-tb;direction:ltr;text-orientation:mixed;dominant-baseline:auto;baseline-shift:baseline;text-anchor:start;white-space:normal;shape-padding:0;shape-margin:0;inline-size:0;clip-rule:nonzero;display:inline;overflow:visible;visibility:visible;isolation:auto;mix-blend-mode:normal;color-interpolation:sRGB;color-interpolation-filters:linearRGB;solid-color:#000;solid-opacity:1;vector-effect:none;fill:#56595b;fill-opacity:1;fill-rule:nonzero;stroke:none;stroke-width:13.0956;stroke-linecap:butt;stroke-linejoin:miter;stroke-miterlimit:4;stroke-dasharray:none;stroke-dashoffset:0;stroke-opacity:1;color-rendering:auto;image-rendering:auto;shape-rendering:auto;text-rendering:auto;enable-background:accumulate;stop-color:#000" id="path1037" d="m 37.657221,977.10419 c -0.0013,0.16853 -0.0131,0.33501 -0.0131,0.50388 0,31.60073 26.282091,57.21423 58.354906,57.21423 32.072803,0 58.354893,-25.6135 58.354913,-57.21423 0,-0.16802 -0.0118,-0.33365 -0.0131,-0.50132 -4.36315,0.0733 -8.72709,0.11747 -13.09052,0.1637 8.6e-4,0.11302 0.008,0.22445 0.008,0.33762 -2e-5,24.36403 -20.10813,44.11853 -45.259271,44.11853 -25.151139,0 -45.259263,-19.7545 -45.259263,-44.11853 0,-0.10202 0.0065,-0.20251 0.0079,-0.30437 -4.363809,-0.0414 -8.728037,-0.0982 -13.090523,-0.19951 z"/></g><style id="style853" type="text/css"/><style id="style853-9" type="text/css"/><style id="style853-3" type="text/css"/></svg>