<svg xmlns="http://www.w3.org/2000/svg" xmlns:svg="http://www.w3.org/2000/svg" id="svg2" width="192" height="192" version="1.1" viewBox="0 0 192 192"><defs id="defs4"><style id="style907"/></defs><metadata id="metadata7"/><g id="layer1" transform="translate(0,-860.36216)"><path id="path962" d="m 95.999989,1006.5447 20.660551,20.6606 -14.67939,14.6794 a 8.458649,8.458649 0 0 1 -11.962336,0 l -14.679379,-14.6794 z m -50.18259,-50.18254 35.38082,-35.41335 -20.627953,-20.66049 -35.413403,35.4134 -14.67938,14.67938 a 8.4586482,8.4586482 0 0 0 0,11.96234 l 14.67933,14.67932 35.413427,35.42974 20.627953,-20.66053 z m 29.522038,-70.84313 20.660548,20.66054 20.660565,-20.66056 -14.67938,-14.67938 a 8.4586482,8.4586482 0 0 0 -11.962335,0 z m 70.843143,70.84314 -35.42972,35.42971 20.66055,20.66052 35.42971,-35.42968 14.6794,-14.6794 a 8.4586507,8.4586507 0 0 0 0,-11.96234 l -14.67938,-14.67938 -35.4297,-35.41342 -20.66055,20.66055 z m -29.52206,0 -20.660535,-20.66054 -20.660536,20.66054 20.660536,20.66053 z" style="stroke-width:1.63196;fill:#f9de81;fill-opacity:1"/></g><style id="style853" type="text/css"/></svg>