<svg xmlns="http://www.w3.org/2000/svg" xmlns:svg="http://www.w3.org/2000/svg" id="svg2" width="192" height="192" version="1.1" viewBox="0 0 192 192"><defs id="defs4"><rect id="rect927" width="75.198" height="82.278" x="300.958" y="760.739"/></defs><metadata id="metadata7"/><g id="layer1" transform="translate(0,-860.36216)"><rect id="rect967" width="152" height="152" x="20" y="880.362" rx="9.935" ry="9.935" style="fill:#ff837d;fill-opacity:1;fill-rule:evenodd;stroke:none;stroke-width:.993464;stroke-opacity:1"/><g style="font-weight:700;font-size:40px;line-height:1.25;font-family:Now;-inkscape-font-specification:'Now Bold';letter-spacing:0;word-spacing:0;white-space:pre;shape-inside:url(#rect927);fill:#fff;fill-opacity:1" id="text925" aria-label="B" transform="matrix(2.8333277,0,0,2.8333277,-797.29737,-1254.6531)"><path style="fill:#fff;fill-opacity:1" id="path931" d="m 321.95703,780.1599 c 2.25,-1.2 3.7,-3.3 3.7,-6.45 0,-5.3 -4,-8.35 -9.05,-8.35 l -12.7,-6e-5 h -3.22601 a 0.3706752,0.3706752 110.33849 0 0 -0.2416,0.65179 l 3.46761,2.9802 v 26.36807 h 13.85 c 5,0 8.9,-2.9 8.9,-8.2 0,-3.65 -1.9,-5.9 -4.7,-7 z m -2.9,-5.75 c 0,1.75 -1.45,3.25 -3.25,3.25 h -5.3 v -6.45 h 5.3 c 1.8,0 3.25,1.4 3.25,3.2 z m -2.25,15.1 h -6.3 v -6.45 h 6.3 c 1.85,0 3.25,1.5 3.25,3.25 0,1.8 -1.4,3.2 -3.25,3.2 z"/></g></g><style id="style853" type="text/css"/><style id="style853-9" type="text/css"/><style id="style853-3" type="text/css"/></svg>