<svg xmlns="http://www.w3.org/2000/svg" xmlns:svg="http://www.w3.org/2000/svg" xmlns:xlink="http://www.w3.org/1999/xlink" id="svg2" width="192" height="192" version="1.1" viewBox="0 0 192 192"><defs id="defs4"><path id="SVGID_1_" d="M1.42,0C0.665,0,0.05,0.604,0.031,1.355l0.013,42.329c0.57,23.292,19.375,42.41,42.793,42.583 c0.03,0.002,0.061,0.002,0.09,0.002h0.477C67.118,86.14,86.3,66.877,86.3,43.134c0-23.505-18.802-42.619-42.186-43.124h-0.01 c-0.875-0.018-1.595,0.686-1.595,1.563v34.542c0,0.768,0.622,1.39,1.39,1.39h12.532c10.881,0,19.614,9.194,18.853,20.238 c-0.643,9.316-8.193,16.867-17.511,17.512C46.729,76.013,37.534,67.281,37.534,56.4v-2.004V37.503V1.389 c0-0.767-0.623-1.389-1.39-1.389H1.42z"/><linearGradient id="linearGradient992" x1="57.989" x2="24.456" y1="83.656" y2="-8.474" gradientUnits="userSpaceOnUse" xlink:href="#SVGID_2_"/></defs><metadata id="metadata7"/><g id="layer1" transform="translate(0,-860.36216)"><rect id="rect952" width="153" height="153" x="19.5" y="879.862" rx="10" style="fill:#fefefe;fill-opacity:1;fill-rule:evenodd;stroke:none;stroke-opacity:1"/><g id="g924" transform="matrix(0.8461904,0,0,0.8461904,59.473768,919.86216)"><linearGradient id="SVGID_2_" x1="57.989" x2="24.456" y1="83.656" y2="-8.474" gradientUnits="userSpaceOnUse"><stop id="stop910" offset="0" style="stop-color:#bc99fe;stop-opacity:1"/><stop id="stop912" offset=".283" style="stop-color:#aaaafe;stop-opacity:1"/><stop id="stop914" offset=".538" style="stop-color:#99bdfe;stop-opacity:1"/><stop id="stop916" offset="1" style="stop-color:#95ded2;stop-opacity:1"/></linearGradient><use style="fill:url(#linearGradient992)" id="use919" width="100%" height="100%" x="0" y="0" fill="url(#SVGID_2_)" overflow="visible" xlink:href="#SVGID_1_"/><clipPath id="SVGID_3_"><use id="use921" width="100%" height="100%" x="0" y="0" overflow="visible" xlink:href="#SVGID_1_"/></clipPath></g></g><style id="style853" type="text/css"/></svg>