<svg xmlns="http://www.w3.org/2000/svg" xmlns:svg="http://www.w3.org/2000/svg" id="svg2" width="192" height="192" version="1.1" viewBox="0 0 192 192"><metadata id="metadata7"/><g id="layer1" transform="translate(0,-860.36216)"><rect id="rect925" width="153" height="153" x="19.5" y="879.862" rx="10" style="fill:#feb0ac;fill-opacity:1;fill-rule:evenodd;stroke:none;stroke-opacity:1"/><g style="fill:#fefefe;fill-opacity:1;stroke-width:5.69715" id="g966" transform="matrix(0.1755264,0,0,0.1755264,-9.6408991,853.68243)"><path style="fill:#fefefe;fill-opacity:1;stroke-width:68.6028" id="path855" d="m 774.50404,512.6479 -13.5829,36.79906 48.8767,-0.8429 z"/><path style="fill:#fefefe;fill-opacity:1;stroke-width:68.6028" id="path853" d="m 484.31412,776.52703 55.25882,-193.89347 28.0087,126.1836 z"/><path style="fill:#fefefe;fill-opacity:1;stroke-width:68.6028" id="path851" d="m 591.88154,682.34976 128.9652,-51.7787 5.4669,-16.4368 z"/><path style="fill:#fefefe;fill-opacity:1;stroke-width:68.6028" id="path849" d="m 766.62884,511.97357 -32.8615,89.14379 -53.296,-73.67036 z"/><path style="fill:#fefefe;fill-opacity:1;stroke-width:68.6028" id="path847" d="m 471.56209,498.12576 -77.65611,-73.21277 h 20.41047 z"/><path style="fill:#fefefe;fill-opacity:1;stroke-width:68.6028" id="path845" d="M 539.46454,572.22966 399.50531,393.43632 582.79014,415.33994 Z"/><path style="fill:#fefefe;fill-opacity:1;stroke-width:68.6028" id="path843" d="M 724.92884,602.11676 591.36374,416.56818 547.73704,574.38506 Z"/><path style="fill:#fefefe;fill-opacity:1;stroke-width:68.6028" id="path4" d="m 718.04104,610.32916 -169.8705,-27.0454 22.9874,100.2943 z"/></g></g><style id="style853" type="text/css"/></svg>