<svg xmlns="http://www.w3.org/2000/svg" xmlns:svg="http://www.w3.org/2000/svg" id="svg2" width="192" height="192" version="1.1" viewBox="0 0 192 192"><metadata id="metadata7"/><g id="layer1" transform="translate(0,-860.36216)"><rect style="fill:#56595b;fill-opacity:1;fill-rule:evenodd;stroke:none;stroke-width:1.17647;stroke-opacity:1" id="rect1046" width="152" height="152" x="20" y="880.362" rx="9.935" ry="9.935"/><path id="path1048" d="m 121.91994,913.00994 a 5.0666666,5.0666666 0 0 0 -7.16534,0 l -6.6767,6.6767 16.83344,16.83343 6.67669,-6.6767 a 5.0666666,5.0666666 0 0 0 0,-7.16534 z m -18.41368,11.24834 -45.901851,45.90186 a 12.257359,12.257359 0 0 0 -3.589674,8.6488 l -0.01047,6.72566 a 5.0518684,5.0518684 0 0 0 5.059126,5.05916 l 6.725687,-0.0101 a 12.257359,12.257359 0 0 0 8.648792,-3.58974 l 45.90185,-45.90182 z" style="fill:#96dfd3;fill-opacity:1;stroke:none;stroke-width:5.70104;stroke-linecap:round;stroke-miterlimit:4;stroke-dasharray:none;stop-color:#000"/><path style="fill:none;stroke:#96dfd3;stroke-width:5;stroke-linecap:round;stroke-linejoin:miter;stroke-miterlimit:4;stroke-dasharray:none;stroke-opacity:1" id="path1050" d="M 56.115367,999.03559 H 135.48247"/></g><style id="style853" type="text/css"/><style id="style853-9" type="text/css"/><style id="style853-3" type="text/css"/></svg>