<svg xmlns="http://www.w3.org/2000/svg" xmlns:svg="http://www.w3.org/2000/svg" id="svg2" width="192" height="192" version="1.1" viewBox="0 0 192 192"><metadata id="metadata20"/><style id="style3349" type="text/css">.st0{fill:#00aee6}.st1{fill:#123962}.st2{fill:#b1d4e5}.st3{fill:#2754ba}.st4{fill:#799eb2}</style><g id="g4274"><path style="fill:#9abeff;fill-opacity:1" id="Shape" d="M 76.157539,96.039409 44.201573,127.97073 84.357537,168.1267 c 6.462658,6.45649 16.929823,6.45649 23.392483,0 L 147.87518,127.97073 115.86993,96.039409 96.081502,76.115447 76.157539,96.039409 Z" class="st0"/><path style="fill:#54688c;fill-opacity:1" id="Shape_1_" d="M 44.201573,63.960228 23.846356,84.27232 c -6.456497,6.462658 -6.456497,16.92982 0,23.39248 L 44.201573,127.97073 76.157539,96.039409 96.081502,76.115447 64.00232,44.159481 44.201573,63.960228 Z" class="st1"/><path style="fill:#b1d4e5" id="Shape_2_" d="m 128.00666,108.1207 19.86236,19.85003 20.30593,-20.30593 c 6.4565,-6.46266 6.4565,-16.929822 0,-23.39248 l -8.15071,-8.150712 -32.01758,31.999092 z" class="st2"/><polygon style="fill:#b1d4e5" id="Shape_3_" points="1769.3 408.4 1769.3 408.4 1249.9 927.8 1572 1250 1572 1250 1249.9 927.8" class="st2" transform="matrix(0.0616078,0,0,0.0616078,19.003983,18.95573)"/><polygon style="fill:#728dbe;fill-opacity:1" id="Shape_4_" points="2288.8 927.8 2091.8 730.5 1769.3 408.4 1249.9 927.8 1572 1250 1769.3 1447.3" class="st3" transform="matrix(0.0616078,0,0,0.0616078,19.003983,18.95573)"/><path style="fill:#799eb2" id="Shape_5_" d="M 128.00666,44.159481 107.70073,23.804264 c -6.46266,-6.456498 -16.929821,-6.456498 -23.392479,0 L 64.00232,44.159481 96.081502,76.115447 128.00666,44.159481 Z" class="st4"/></g></svg>