<svg xmlns="http://www.w3.org/2000/svg" xmlns:svg="http://www.w3.org/2000/svg" id="svg2" width="192" height="192" version="1.1" viewBox="0 0 192 192"><metadata id="metadata7"/><g id="layer3" style="display:inline"><path style="display:inline;fill:#f7c18c;fill-opacity:1;fill-rule:evenodd;stroke:none;stroke-width:.577986px;stroke-linecap:butt;stroke-linejoin:round;stroke-opacity:1" id="path857" d="M 93.107508,17.341043 C 74.894068,25.88694 55.485757,35.10318 40.566247,27.718456 39.08248,26.984035 36.88195,25.428068 35.676021,24.294544 34.289826,22.991578 32.69094,21.394949 31.161997,20.20071 c -1.30047,-1.015782 -2.705894,-0.209313 -2.926883,1.432705 -1.152266,8.561712 -2.995691,16.861484 -3.863539,24.403918 -0.18932,1.645375 -0.400901,4.323543 -0.494938,5.977694 -1.853452,32.602782 8.708417,55.061183 21.78782,74.278123 0.932233,1.36968 2.473405,3.57024 3.455527,4.90458 15.123211,20.54694 37.344749,38.47176 44.690305,43.95181 1.326011,0.98925 3.502053,0.87371 4.789921,-0.16867 17.40333,-14.08601 31.44136,-26.42542 46.7473,-47.97397 0.95943,-1.35074 2.48974,-3.55874 3.40598,-4.93917 15.4512,-23.279183 20.52255,-45.075294 19.44218,-67.686134 -0.0791,-1.654929 -0.27105,-4.334714 -0.42022,-5.984814 -0.75223,-8.321093 -2.19179,-17.108263 -4.18498,-26.749601 -0.33543,-1.622523 -1.81584,-2.303736 -3.11648,-1.27977 -0.7613,0.599365 -1.31388,1.151611 -1.7803,1.670661 -1.10651,1.231393 -2.99564,3.15445 -4.40352,4.023473 -9.23076,5.69777 -27.98107,5.618458 -55.806229,-8.6046 -1.475275,-0.754099 -3.876484,-0.819691 -5.376433,-0.115902 z m 5.51026,17.447137 c 29.407712,12.87125 41.089322,11.458438 52.149192,9.682779 1.63586,-0.262637 3.08772,0.862568 3.21907,2.514197 1.39606,17.555101 0.11063,27.425079 -2.2032,35.188291 -0.47321,1.587694 -2.00706,2.060604 -3.34323,1.0809 C 127.71109,68.055795 107.75076,53.173634 89.820899,39.127489 88.516754,38.10583 88.690957,36.733613 90.207331,36.065948 l 2.923329,-1.287152 c 1.516374,-0.667665 3.969279,-0.654944 5.487108,0.0094 z M 41.494709,45.173496 134.98765,106.158 a 0.28210487,0.28210487 117.744 0 1 -0.2615,0.49716 L 40.375588,67.820613 c -1.532147,-0.630629 -2.841432,-2.483706 -2.803186,-4.138149 0.09441,-4.083824 0.457369,-11.521648 1.049458,-17.170473 0.172673,-1.647391 1.485124,-2.243694 2.872849,-1.338495 z m -1.197516,30.440226 c 23.664963,20.995542 49.901818,42.147448 72.882777,62.545548 1.23877,1.09954 1.29759,2.95234 0.12382,4.1217 -7.46256,7.43454 -11.71044,10.91151 -15.425476,13.71643 -1.322033,0.99816 -3.392832,0.8796 -4.608458,-0.2462 C 65.232998,129.78614 45.860584,110.37516 38.646198,76.560432 38.3005,74.940101 39.057806,74.514138 40.297193,75.613722 Z"/></g></svg>