<svg xmlns="http://www.w3.org/2000/svg" xmlns:svg="http://www.w3.org/2000/svg" id="svg8" width="192" height="192" version="1.1" viewBox="0 0 50.8 50.8"><metadata id="metadata5"/><g id="layer1"><g style="stroke-width:2.36547" id="g3133" transform="matrix(0.42036052,0,0,0.42036052,29.951449,72.977989)"><path id="path3876" d="m 37.140326,-117.42792 a 23.450911,23.450911 0 0 1 -32.0345392,8.58363 23.450911,23.450911 0 0 1 -8.5836283,-32.03454 23.450911,23.450911 0 0 1 32.0345385,-8.58363 23.450911,23.450911 0 0 1 8.583629,32.03454" style="opacity:1;fill:#748ebf;fill-opacity:1;stroke-width:.62685;stroke-linecap:round;stroke-linejoin:round;stroke-miterlimit:4;stroke-dasharray:none"/><path id="path1593" d="m 9.4821594,-133.39637 a 23.450911,23.450911 0 0 1 -32.0345394,8.58363 23.450911,23.450911 0 0 1 -8.583628,-32.03454 23.450911,23.450911 0 0 1 32.03453861,-8.58363 23.450911,23.450911 0 0 1 8.58362879,32.03454" style="opacity:1;fill:#55698c;fill-opacity:1;stroke-width:.62685;stroke-linecap:round;stroke-linejoin:round;stroke-miterlimit:4;stroke-dasharray:none"/><path id="path4461" d="m -18.181054,-117.42928 a 23.450911,23.450911 0 0 1 -32.03454,8.58363 23.450911,23.450911 0 0 1 -8.583628,-32.03454 23.450911,23.450911 0 0 1 32.034539,-8.58363 23.450911,23.450911 0 0 1 8.583629,32.03454" style="opacity:1;fill:#9bbfff;fill-opacity:1;stroke-width:.62685;stroke-linecap:round;stroke-linejoin:round;stroke-miterlimit:4;stroke-dasharray:none"/><path id="path4596" d="m -18.177341,-85.488715 a 23.450911,23.450911 0 0 1 -32.034539,8.58363 23.450911,23.450911 0 0 1 -8.583628,-32.034535 23.450911,23.450911 0 0 1 32.034539,-8.58363 23.450911,23.450911 0 0 1 8.583628,32.034535" style="opacity:1;fill:#748ebf;fill-opacity:1;stroke-width:.62685;stroke-linecap:round;stroke-linejoin:round;stroke-miterlimit:4;stroke-dasharray:none"/><path id="path4716" d="m 9.4808261,-69.520265 a 23.450911,23.450911 0 0 1 -32.0345391,8.58363 23.450911,23.450911 0 0 1 -8.583628,-32.03454 23.450911,23.450911 0 0 1 32.03453833,-8.583625 23.450911,23.450911 0 0 1 8.58362877,32.034535" style="opacity:1;fill:#55698c;fill-opacity:1;stroke-width:.62685;stroke-linecap:round;stroke-linejoin:round;stroke-miterlimit:4;stroke-dasharray:none"/><path id="path3733" d="m 37.144034,-85.487326 a 23.450911,23.450911 0 0 1 -32.0345392,8.583629 23.450911,23.450911 0 0 1 -8.5836283,-32.034543 23.450911,23.450911 0 0 1 32.0345385,-8.58362 23.450911,23.450911 0 0 1 8.583629,32.034534" style="opacity:1;fill:#9bbfff;fill-opacity:1;stroke-width:.62685;stroke-linecap:round;stroke-linejoin:round;stroke-miterlimit:4;stroke-dasharray:none"/><path style="opacity:1;fill:#748ebf;fill-opacity:1;stroke-width:.62685;stroke-linecap:round;stroke-linejoin:round;stroke-miterlimit:4;stroke-dasharray:none" id="path3124" d="m 37.140325,-140.87883 c 6.475791,11.2164 2.63277,25.55875 -8.583626,32.03454 -11.216398,6.47579 -25.5587499,2.63277 -32.0345399,-8.58363"/></g></g></svg>