<svg xmlns="http://www.w3.org/2000/svg" xmlns:svg="http://www.w3.org/2000/svg" id="svg11380" width="192" height="192" version="1.1" viewBox="0 0 192 192"><metadata id="metadata11386"/><circle style="fill:#54688c;fill-rule:evenodd;stroke:none;fill-opacity:1" id="circle11370" cx="96" cy="96" r="88"/><path style="fill:#fdf5d9;fill-rule:evenodd;stroke:none;stroke-width:1.8767122;fill-opacity:1" id="circle11372" d="M 121.87695 33.613281 A 67.561646 67.561646 0 0 1 130.77148 66.949219 A 67.561646 67.561646 0 0 1 63.208984 134.50977 A 67.561646 67.561646 0 0 1 37.330078 129.33398 A 67.561646 67.561646 0 0 0 96 163.5625 A 67.561646 67.561646 0 0 0 163.5625 96 A 67.561646 67.561646 0 0 0 121.87695 33.613281 z"/><path style="opacity:1;fill:#fdf5d9;fill-opacity:1;fill-rule:evenodd;stroke:none;stroke-width:2.57634115;stroke-miterlimit:4;stroke-dasharray:none;stroke-dashoffset:0;stroke-opacity:1" id="path11955" d="m 38.113075,114.62586 -1.671078,-3.38598 -3.736644,-0.54296 2.703861,-2.63562 -0.638295,-3.72154 3.342156,1.75707 3.342157,-1.75707 -0.638295,3.72154 2.703861,2.63562 -3.736645,0.54296 z"/><path style="opacity:1;fill:#fdf5d9;fill-opacity:1;fill-rule:evenodd;stroke:none;stroke-width:5.15389681;stroke-miterlimit:4;stroke-dasharray:none;stroke-dashoffset:0;stroke-opacity:1" id="path11955-7" d="m 51.870919,84.590785 -3.342945,-6.773545 -7.47505,-1.086188 5.408997,-5.27247 -1.276891,-7.444846 6.685889,3.51498 6.685888,-3.51498 -1.276891,7.444847 5.408997,5.272468 -7.475051,1.086189 z"/></svg>