<svg xmlns="http://www.w3.org/2000/svg" xmlns:svg="http://www.w3.org/2000/svg" id="svg2" width="192" height="192" version="1.1" viewBox="0 0 192 192"><metadata id="metadata7"/><g id="layer1" transform="translate(0,-860.36216)"><circle style="fill:#fe837e;fill-opacity:1;fill-rule:evenodd;stroke:none;stroke-opacity:1" id="circle864" cx="96" cy="956.362" r="88"/><path id="rect899" d="m 59.504651,967.337 h 72.990699 v 20.04409 a 3,3 135 0 1 -3,3 H 62.504651 a 3,3 45 0 1 -3,-3 z" style="fill:#fff;stroke-width:.417467"/><path id="path901" fill="#fff" d="m 93.626674,932.9002 c 0.953199,1.21684 1.764432,1.57683 2.621297,1.59204 0.872076,-0.0203 1.642747,-0.3245 2.595947,-1.59204 0,0 12.193852,-16.02693 12.832682,-16.7976 1.64782,-2.04837 3.63535,-2.04837 5.28316,-0.0101 l 13.68086,17.32313 a 8.6391545,8.6391545 70.850125 0 1 1.85933,5.35434 v 28.57218 l -15.43371,-19.81943 c -1.81007,-2.27145 -3.87871,-2.28159 -5.70398,0 -0.6135,0.80109 -12.462571,16.49338 -12.462571,16.49338 -1.840485,2.32722 -3.609988,2.32722 -5.430192,0 0,0 -12.133005,-15.77341 -12.675518,-16.49338 -1.769502,-2.23597 -3.751953,-2.28159 -5.678632,0 l -15.606098,19.81943 -0.0092,-28.47584 c -5.33e-4,-1.65685 0.836627,-4.05 1.870112,-5.34502 4.02634,-5.04528 13.209556,-16.5471 13.947969,-17.42372 1.678238,-2.03822 3.70125,-2.03822 5.354138,-0.0152 0.745321,0.96841 12.95438,16.81788 12.95438,16.81788" style="stroke-width:.417467"/></g></svg>