<svg xmlns="http://www.w3.org/2000/svg" xmlns:svg="http://www.w3.org/2000/svg" id="svg2" width="192" height="192" version="1.1" viewBox="0 0 192 192"><defs id="defs4"><clipPath id="clipPath6267" clipPathUnits="userSpaceOnUse"><rect style="fill:#00f;fill-rule:evenodd;stroke:#000;stroke-width:1px;stroke-linecap:butt;stroke-linejoin:miter;stroke-opacity:1" id="rect6269" width="359.21" height="383.252" x="-698.622" y="1422.886" rx="11.569"/></clipPath></defs><metadata id="metadata7"/><g id="layer4" style="display:inline;opacity:1"><g id="g6468"><circle style="opacity:1;fill:#f9de81;fill-opacity:1;stroke:none;stroke-width:13.19662285;stroke-linecap:round;stroke-linejoin:round;stroke-miterlimit:4;stroke-dasharray:none;stroke-opacity:1" id="circle6409" cx="96" cy="96" r="88.5"/><path id="rect6378" d="m 33.722656,158.78516 a 88.5,88.5 0 0 0 5.263672,4.90429 88.5,88.5 0 0 0 7.042969,5.35352 88.5,88.5 0 0 0 7.541015,4.62305 88.5,88.5 0 0 0 7.966797,3.84765 88.5,88.5 0 0 0 8.308594,3.03321 88.5,88.5 0 0 0 8.572266,2.18945 88.5,88.5 0 0 0 8.746093,1.32226 A 88.5,88.5 0 0 0 96,184.5 a 88.5,88.5 0 0 0 6.25977,-0.22266 88.5,88.5 0 0 0 8.7832,-1.06445 88.5,88.5 0 0 0 8.63086,-1.9375 88.5,88.5 0 0 0 8.39453,-2.78906 88.5,88.5 0 0 0 8.07422,-3.61524 88.5,88.5 0 0 0 7.67383,-4.40039 88.5,88.5 0 0 0 7.19531,-5.14648 88.5,88.5 0 0 0 6.64648,-5.83789 88.5,88.5 0 0 0 0.61914,-0.66406 l 0,-3.68165 -0.002,0 c 1e-5,-0.0115 0.002,-0.0217 0.002,-0.0332 l 0,-4.16797 c 0,-20.36477 -14.51182,-36.75976 -32.53711,-36.75976 l -59.480464,0 c -18.025288,0 -32.53711,16.39499 -32.53711,36.75976 l 0,4.16797 c 0,0.0115 0.002,0.0217 0.002,0.0332 l -0.002,0 0,3.64454 z" style="display:inline;opacity:1;fill:#56595b;fill-opacity:1;fill-rule:evenodd;stroke:none;stroke-width:1px;stroke-linecap:butt;stroke-linejoin:miter;stroke-opacity:1"/><circle id="path6271" cx="96" cy="95.616" r="40.266" style="display:inline;opacity:1;fill:#fff;fill-opacity:1;stroke:#56595b;stroke-width:6.4333415;stroke-linecap:round;stroke-linejoin:round;stroke-miterlimit:4;stroke-dasharray:none;stroke-opacity:1"/><path id="rect6283" d="m 77.71361,84.096699 c -3.297013,0 -5.951725,2.37702 -5.951725,5.329276 l 0,2.600418 c 0,0.13737 0.01214,0.272153 0.02342,0.406845 -0.0083,0.140749 -0.02342,0.28003 -0.02342,0.42278 0,4.187914 3.617997,7.559412 8.111557,7.559412 l 5.135226,0 c 4.493559,0 8.111556,-3.371498 8.111556,-7.559412 0,-0.08672 -0.0078,-0.171586 -0.01406,-0.256857 l 5.547697,0 c -0.0062,0.08527 -0.01406,0.170133 -0.01406,0.256857 0,4.187914 3.617999,7.559412 8.111559,7.559412 l 5.13523,0 c 4.49356,0 8.11155,-3.371498 8.11155,-7.559412 0,-0.14275 -0.0151,-0.282031 -0.0234,-0.42278 0.0113,-0.134692 0.0234,-0.269475 0.0234,-0.406845 l 0,-2.600418 c 0,-2.952256 -2.65471,-5.329276 -5.95172,-5.329276 l -9.45489,0 c -3.00305,0 -5.465748,1.974279 -5.88236,4.556833 l -5.658309,0 C 92.634243,86.070978 90.17155,84.096699 87.1685,84.096699 l -9.45489,0 z" style="fill:#56595b;fill-opacity:1;fill-rule:evenodd;stroke:none;stroke-width:1px;stroke-linecap:butt;stroke-linejoin:miter;stroke-opacity:1"/></g></g></svg>