<svg xmlns="http://www.w3.org/2000/svg" xmlns:xlink="http://www.w3.org/1999/xlink" id="Layer_1" width="192" height="192" x="0" y="0" enable-background="new 0 0 192 192" version="1.1" viewBox="0 0 192 192" xml:space="preserve"><g><path fill="#F9DE90" d="M184.762,173.474c0,6.523-5.287,11.81-11.81,11.81H19.92c-6.521,0-11.809-5.286-11.809-11.81V20.442 c0-6.522,5.288-11.809,11.809-11.809h153.032c6.522,0,11.81,5.287,11.81,11.809V173.474z"/><g><path fill="#56595B" d="M152.218,185.17v-34.863c0-26.147-22.661-33.47-22.661-33.47H63.315c0,0-22.661,7.322-22.661,33.47v34.863 H152.218z"/><g><circle cx="96.436" cy="99.754" r="39.396" fill="#56595B"/><circle cx="96.436" cy="99.754" r="33.12" fill="#FFF"/><path fill="#56595B" d="M113.171,89.121h-2.354h-4.707h-2.352c0,0-4.399,0.466-4.917,4.445h-4.811 c-0.517-3.979-4.916-4.445-4.916-4.445h-2.354h-4.707h-2.354c0,0-4.968,0.522-4.968,5.229v3.748c0,0,0.61,6.275,7.845,6.275 h3.661c7.234,0,7.844-6.275,7.844-6.275v-1.221h4.707v1.221c0,0,0.609,6.275,7.845,6.275h3.66c7.234,0,7.845-6.275,7.845-6.275 v-3.748C118.14,89.644,113.171,89.121,113.171,89.121z"/></g></g></g></svg>