<svg xmlns="http://www.w3.org/2000/svg" xmlns:svg="http://www.w3.org/2000/svg" id="svg2" width="192" height="192" version="1.1" viewBox="0 0 192 192"><metadata id="metadata7"/><g id="layer1" transform="translate(0,-860.36216)"><path style="fill:#bd9aff;fill-opacity:1;stroke-width:25.5821;stroke-linecap:round;stop-color:#000" id="path1035" d="m 161.5001,1021.8622 c 14.91525,-14.9153 13.39994,-38.03574 -1.12349,-52.55917 -6.6193,-6.6193 -23.66459,-13.60223 -40.92098,-19.27834 -7.17468,-2.35996 -14.75632,-9.94163 -17.1164,-17.11633 -5.676602,-17.25692 -12.660728,-34.30344 -19.280087,-40.9228 -14.523444,-14.52343 -37.643976,-16.03874 -52.559245,-1.12349 -14.915252,14.91527 -13.39994,38.0358 1.123487,52.55925 6.6194,6.6194 23.665918,13.60352 40.922883,19.28011 7.174658,2.36007 14.756298,9.94171 17.11626,17.11645 5.676095,17.25637 12.659012,34.30152 19.278332,40.92092 14.52343,14.5234 37.64397,16.0387 52.55924,1.1234 z"/><path style="fill:#ffb0ac;fill-opacity:1;stroke-width:25.5821;stroke-linecap:round;stop-color:#000" id="path1039" d="m 161.5001,890.86207 c -14.91527,-14.91525 -38.03581,-13.39994 -52.55924,1.1235 -6.6193,6.61929 -13.602237,23.66458 -19.278349,40.92098 -2.359962,7.17468 -9.941627,14.75632 -17.116326,17.1164 -17.256923,5.6766 -34.303441,12.66072 -40.9228,19.28008 -14.523427,14.52344 -16.038739,37.64387 -1.123487,52.55917 14.915269,14.9153 38.035801,13.4 52.559245,-1.1234 6.6194,-6.6195 13.603518,-23.66595 19.280107,-40.92291 2.36006,-7.17466 9.94172,-14.75628 17.11646,-17.11625 17.25637,-5.67609 34.3016,-12.659 40.9209,-19.27832 14.52343,-14.52343 16.03874,-37.64398 1.12349,-52.55925 z"/></g><style id="style853" type="text/css"/><style id="style853-9" type="text/css"/><style id="style853-3" type="text/css"/></svg>