<svg xmlns="http://www.w3.org/2000/svg" xmlns:svg="http://www.w3.org/2000/svg" id="svg4279" width="192" height="192" version="1.1" viewBox="0 0 192 192"><metadata id="metadata4284"/><g id="layer1" transform="translate(0,-860.36216)"><g id="g4804" transform="translate(-172.57144,383.99998)"><circle id="path4226" cx="268.571" cy="572.362" r="88.5" style="opacity:.98000004;fill:#fff;fill-opacity:1;stroke:none;stroke-width:4;stroke-linecap:butt;stroke-linejoin:miter;stroke-miterlimit:4;stroke-dasharray:none;stroke-opacity:1"/><rect style="opacity:.98000004;fill:#98db9a;fill-opacity:1;stroke:#fff;stroke-width:3.02034903;stroke-linecap:butt;stroke-linejoin:miter;stroke-miterlimit:4;stroke-dasharray:none;stroke-opacity:1" id="rect4216" width="84.592" height="16.948" x="-310.867" y="-597.857" rx="6.729" ry="7.175" transform="scale(-1,-1)"/><rect style="opacity:.98000004;fill:#98db9a;fill-opacity:1;stroke:#fff;stroke-width:3.02034903;stroke-linecap:butt;stroke-linejoin:miter;stroke-miterlimit:4;stroke-dasharray:none;stroke-opacity:1" id="rect4218" width="84.592" height="16.948" x="530.066" y="-260.024" rx="6.729" ry="7.175" transform="matrix(0,1,-1,0,0,0)"/><rect id="rect4220" width="84.592" height="16.948" x="-310.867" y="-563.815" rx="6.729" ry="7.175" transform="scale(-1,-1)" style="opacity:.98000004;fill:#98db9a;fill-opacity:1;stroke:#fff;stroke-width:3.02034903;stroke-linecap:butt;stroke-linejoin:miter;stroke-miterlimit:4;stroke-dasharray:none;stroke-opacity:1"/><rect id="rect4222" width="84.592" height="16.948" x="530.066" y="-294.066" rx="6.729" ry="7.175" transform="matrix(0,1,-1,0,0,0)" style="opacity:.98000004;fill:#98db9a;fill-opacity:1;stroke:#fff;stroke-width:3.02034903;stroke-linecap:butt;stroke-linejoin:miter;stroke-miterlimit:4;stroke-dasharray:none;stroke-opacity:1"/><path style="opacity:.98000004;fill:#98db9a;fill-opacity:1;stroke:#fff;stroke-width:3.02034903;stroke-linecap:butt;stroke-linejoin:miter;stroke-miterlimit:4;stroke-dasharray:none;stroke-opacity:1" id="path4224" d="m 271.31698,597.85738 32.82129,0 c 3.72806,0 6.72949,-3.20122 6.72949,-7.17628 l 0,-2.59716 c 0,-3.97505 -3.00143,-7.1748 -6.72949,-7.1748 l -32.82129,0"/></g></g></svg>