<svg xmlns="http://www.w3.org/2000/svg" xmlns:svg="http://www.w3.org/2000/svg" id="svg14" width="192" height="192" version="1.1" viewBox="0 0 192 192"><metadata id="metadata20"/><defs id="defs18"><mask id="mask-2" fill="#fff"><polygon id="use9" points="0 58.696 0 0 222.87 0 222.87 58.696"/></mask><mask id="mask-2-3" fill="#fff"><polygon id="use9-6" points="0 58.696 0 0 222.87 0 222.87 58.696"/></mask></defs><g id="g19"><circle id="circle4487" cx="96" cy="96" r="88.5" style="fill:#fff;fill-opacity:1;fill-rule:evenodd;stroke:none"/><path id="path2" d="m 114.88864,111.39388 -17.212416,9.49761 a 1.4262638,1.4262638 0 0 1 -1.264187,0 l -21.29672,-11.63702 a 2.625622,2.625622 0 0 1 -1.329012,-2.26905 V 84.781087 a 2.5932068,2.5932068 0 0 1 1.361433,-2.269055 l 10.826638,-5.737471 a 3.2415086,3.2415086 0 0 1 4.765016,2.852527 v 14.100564 l 24.116818,13.257768 a 2.5932068,2.5932068 0 0 1 0,4.53811 M 140.5938,95.315991 110.80433,78.946372 V 44.748456 a 2.5932068,2.5932068 0 0 0 -3.79256,-2.301471 L 55.569031,68.087318 a 5.1539987,5.1539987 0 0 0 -2.852533,4.700188 v 46.645304 a 2.625622,2.625622 0 0 0 1.296607,2.26906 l 41.588557,23.50094 a 5.2836591,5.2836591 0 0 0 5.056748,0 l 39.93539,-21.65327 a 5.1539987,5.1539987 0 0 0 2.69044,-4.53812 V 99.78927 a 5.1539987,5.1539987 0 0 0 -2.65804,-4.505692" style="fill:#9abefe;fill-opacity:1;fill-rule:evenodd;stroke-width:3.24150872"/></g></svg>