<svg xmlns="http://www.w3.org/2000/svg" xmlns:svg="http://www.w3.org/2000/svg" id="svg2" width="192" height="192" version="1.1" viewBox="0 0 192 192"><metadata id="metadata7"/><g id="layer1" transform="translate(0,-860.36216)"><path style="fill:#feb0ac;fill-opacity:1;stroke-width:3.97278" id="path922" fill="#e31e52" fill-rule="evenodd" d="M 86.52109,962.85403 68.461614,888.50602 C 66.352066,879.91261 57.384661,874.9249 48.967884,877.65775 l -19.545615,6.34894 c -8.41675,2.73283 -12.739411,12.04325 -9.39349,20.23139 l 29.094997,70.76313 c 3.013395,7.38818 11.211908,11.19133 18.807868,8.7286 l 8.510099,-2.76426 c 7.585631,-2.46233 11.981118,-10.35983 10.079347,-18.11152 z m 2.701492,71.93517 c -10.983155,3.5644 -22.787485,-2.4417 -26.351468,-13.4252 -3.564381,-10.9832 2.441672,-22.7875 13.425225,-26.35149 10.983155,-3.56438 22.787485,2.44168 26.351861,13.42519 3.57432,10.9832 -2.44207,22.7875 -13.425618,26.3515 z m 43.393118,-19.0876 c 26.7988,-8.7076 48.43299,-39.60033 37.66794,-72.72698 -10.76545,-33.12665 -46.42753,-45.3985 -73.215606,-36.69079 -6.234489,2.02627 -9.861242,8.51025 -8.291993,14.89054 l 2.743207,11.13889 c 1.735311,7.06599 9.112772,11.17067 16.023032,8.92605 l 1.07026,-0.35318 c 12.32358,-4.01092 23.78505,3.33555 26.95454,13.37318 3.34588,9.97566 -1.61096,22.65241 -13.94487,26.66373 l -1.07026,0.35318 c -6.91026,2.24462 -10.46392,9.90256 -7.72071,16.63603 l 4.32279,10.61965 c 2.48338,6.0787 9.23751,9.1962 15.46167,7.1697 z" clip-rule="evenodd"/></g><style id="style853" type="text/css"/><style id="style853-9" type="text/css"/><style id="style853-3" type="text/css"/></svg>