<svg xmlns="http://www.w3.org/2000/svg" xmlns:svg="http://www.w3.org/2000/svg" id="svg2" width="192" height="192" version="1.1" viewBox="0 0 192 192"><metadata id="metadata7"/><g id="layer1" transform="translate(0,-860.36216)"><path id="path1023" d="m 51.396114,993.45 h 6.761567 c 4.762911,0 8.597313,3.22712 8.597313,7.2358 v 25.8531 c 0,4.0087 -3.834402,7.2358 -8.597313,7.2358 h -6.761567 c -4.762912,0 -8.597313,-3.2271 -8.597313,-7.2358 v -25.8531 c 0,-4.00868 3.834401,-7.2358 8.597313,-7.2358 z" style="fill:#708cbd;fill-opacity:1;stroke-width:1.70661;stroke-linecap:round;stroke-linejoin:round;stop-color:#000"/><path id="path1025" d="m 140.60389,993.45 h -6.76158 c -4.76291,0 -8.5973,3.22712 -8.5973,7.2358 v 25.8531 c 0,4.0087 3.83439,7.2358 8.5973,7.2358 h 6.76158 c 4.76291,0 8.59731,-3.2271 8.59731,-7.2358 v -25.8531 c 0,-4.00868 -3.8344,-7.2358 -8.59731,-7.2358 z" style="fill:#708cbd;fill-opacity:1;stroke-width:1.70661;stroke-linecap:round;stroke-linejoin:round;stop-color:#000"/><rect id="rect1027" width="136.814" height="136.814" x="27.593" y="878.95" rx="8.942" style="fill:#708cbd;fill-opacity:1;fill-rule:evenodd;stroke:none;stroke-width:.894211;stroke-opacity:1"/><path id="path1029" d="M 73.09141,992.5295 A 12.983625,12.983625 0 0 1 60.107785,1005.5132 12.983625,12.983625 0 0 1 47.124159,992.5295 12.983625,12.983625 0 0 1 60.107785,979.5459 12.983625,12.983625 0 0 1 73.09141,992.5295 Z" style="fill:#fff;fill-opacity:1;stroke-width:1.70661;stroke-linecap:round;stroke-linejoin:round;stop-color:#000"/><rect id="rect1031" width="109.312" height="65.807" x="41.344" y="895.475" rx="7.145" style="fill:#fff;fill-opacity:1;fill-rule:evenodd;stroke:none;stroke-width:.554345;stroke-opacity:1"/><rect id="rect1033" width="5.253" height="71.38" x="884.586" y="-131.69" rx="2.627" ry="2.627" transform="rotate(90)" style="fill:#fff;fill-opacity:1;stroke-width:1.51818;stroke-linecap:round;stroke-linejoin:round;stop-color:#000"/><path id="path1035" d="m 118.90859,992.5295 a 12.983625,12.983625 0 0 0 12.98362,12.9837 12.983625,12.983625 0 0 0 12.98363,-12.9837 12.983625,12.983625 0 0 0 -12.98363,-12.9836 12.983625,12.983625 0 0 0 -12.98362,12.9836 z" style="fill:#fff;fill-opacity:1;stroke-width:1.70661;stroke-linecap:round;stroke-linejoin:round;stop-color:#000"/></g><style id="style853" type="text/css"/></svg>