<svg xmlns="http://www.w3.org/2000/svg" xmlns:osb="http://www.openswatchbook.org/uri/2009/osb" xmlns:svg="http://www.w3.org/2000/svg" id="svg2" width="192" height="192" version="1.1" viewBox="0 0 192 192"><defs id="defs4"><linearGradient id="linearGradient6082" osb:paint="solid"><stop style="stop-color:#3b5472;stop-opacity:1" id="stop6084" offset="0"/></linearGradient><clipPath id="clipPath4728" clipPathUnits="userSpaceOnUse"><path style="fill:#00f;fill-rule:evenodd;stroke:none;stroke-width:1px;stroke-linecap:butt;stroke-linejoin:miter;stroke-opacity:1" id="path4730" d="m 39.35977,39.358949 0,113.282001 113.281,0 0.1046,-113.282001 z"/></clipPath></defs><metadata id="metadata7"/><g id="layer3" style="display:inline"><path style="opacity:1;fill:none;fill-opacity:1;stroke:none;stroke-width:1;stroke-linecap:round;stroke-linejoin:round;stroke-miterlimit:4;stroke-dasharray:none;stroke-opacity:1" id="path15751" d="m -1335.3229,44.537621 c -36.2708,2.03923 -68.6682,31.405386 -73.8019,67.431149 -6.832,36.94825 16.3342,76.46501 51.9051,88.56148 35.0302,13.61897 78.1581,-1.79073 96.6921,-34.47188 19.6942,-31.59513 12.9849,-76.321403 -15.0988,-100.760473 -15.9507,-14.733556 -38.0758,-22.223696 -59.6965,-20.760276 z"/><path style="fill:#f8c18c;fill-opacity:1;fill-rule:nonzero;stroke:none;stroke-width:.166951;stroke-linecap:round;stroke-linejoin:round;stroke-miterlimit:4;stroke-dasharray:none;stroke-opacity:1" id="path6381" d="M 184.5,95.999995 A 33.644805,33.644805 0 0 1 150.85519,129.6448 33.644805,33.644805 0 0 1 117.21039,95.999995 33.644805,33.644805 0 0 1 150.85519,62.355191 33.644805,33.644805 0 0 1 184.5,95.999995 Z"/><path style="fill:#f8c18c;fill-opacity:1;fill-rule:nonzero;stroke:none;stroke-width:.166951;stroke-linecap:round;stroke-linejoin:round;stroke-miterlimit:4;stroke-dasharray:none;stroke-opacity:1" id="path6383" d="m 168.43114,134.79061 a 33.644805,33.644805 0 0 1 -33.64481,33.6448 33.644805,33.644805 0 0 1 -33.6448,-33.6448 33.644805,33.644805 0 0 1 33.6448,-33.64481 33.644805,33.644805 0 0 1 33.64481,33.64481 z"/><path style="fill:#f8c18c;fill-opacity:1;fill-rule:nonzero;stroke:none;stroke-width:.166951;stroke-linecap:round;stroke-linejoin:round;stroke-miterlimit:4;stroke-dasharray:none;stroke-opacity:1" id="path6385" d="M 129.63878,150.8552 A 33.644805,33.644805 0 0 1 95.993975,184.5 33.644805,33.644805 0 0 1 62.349169,150.8552 33.644805,33.644805 0 0 1 95.993975,117.21039 33.644805,33.644805 0 0 1 129.63878,150.8552 Z"/><path style="fill:#f8c18c;fill-opacity:1;fill-rule:nonzero;stroke:none;stroke-width:.166951;stroke-linecap:round;stroke-linejoin:round;stroke-miterlimit:4;stroke-dasharray:none;stroke-opacity:1" id="path6387" d="m 90.84997,134.78215 a 33.644805,33.644805 0 0 1 -33.644805,33.6448 33.644805,33.644805 0 0 1 -33.644806,-33.6448 33.644805,33.644805 0 0 1 33.644806,-33.64481 33.644805,33.644805 0 0 1 33.644805,33.64481 z"/><path style="fill:#f8c18c;fill-opacity:1;fill-rule:nonzero;stroke:none;stroke-width:.166951;stroke-linecap:round;stroke-linejoin:round;stroke-miterlimit:4;stroke-dasharray:none;stroke-opacity:1" id="path6389" d="M 74.789608,95.988105 A 33.644805,33.644805 0 0 1 41.144803,129.63291 33.644805,33.644805 0 0 1 7.4999968,95.988105 33.644805,33.644805 0 0 1 41.144803,62.343301 33.644805,33.644805 0 0 1 74.789608,95.988105 Z"/><path style="fill:#f8c18c;fill-opacity:1;fill-rule:nonzero;stroke:none;stroke-width:.166951;stroke-linecap:round;stroke-linejoin:round;stroke-miterlimit:4;stroke-dasharray:none;stroke-opacity:1" id="path6391" d="M 90.86258,57.205232 A 33.644805,33.644805 0 0 1 57.217775,90.850038 33.644805,33.644805 0 0 1 23.572969,57.205232 33.644805,33.644805 0 0 1 57.217775,23.560428 33.644805,33.644805 0 0 1 90.86258,57.205232 Z"/><path style="fill:#f8c18c;fill-opacity:1;fill-rule:nonzero;stroke:none;stroke-width:.166951;stroke-linecap:round;stroke-linejoin:round;stroke-miterlimit:4;stroke-dasharray:none;stroke-opacity:1" id="path6393" d="M 129.65068,41.144805 A 33.644805,33.644805 0 0 1 96.005875,74.789611 33.644805,33.644805 0 0 1 62.361069,41.144805 33.644805,33.644805 0 0 1 96.005875,7.500001 33.644805,33.644805 0 0 1 129.65068,41.144805 Z"/><path style="fill:#f8c18c;fill-opacity:1;fill-rule:nonzero;stroke:none;stroke-width:.166951;stroke-linecap:round;stroke-linejoin:round;stroke-miterlimit:4;stroke-dasharray:none;stroke-opacity:1" id="path6395" d="m 168.43534,57.213591 a 33.644805,33.644805 0 0 1 -33.64481,33.644806 33.644805,33.644805 0 0 1 -33.6448,-33.644806 33.644805,33.644805 0 0 1 33.6448,-33.644804 33.644805,33.644805 0 0 1 33.64481,33.644804 z"/><path style="fill:#f8c18c;fill-opacity:1;fill-rule:nonzero;stroke:none;stroke-width:.166951;stroke-linecap:round;stroke-linejoin:round;stroke-miterlimit:4;stroke-dasharray:none;stroke-opacity:1" id="path6397" d="M 184.5,95.999995 A 33.644805,33.644805 0 0 1 150.85519,129.6448 33.644805,33.644805 0 0 1 117.21039,95.999995 33.644805,33.644805 0 0 1 150.85519,62.355191 33.644805,33.644805 0 0 1 184.5,95.999995 Z"/><path id="path6399" d="M 169.79128,96.000001 A 73.791283,73.791283 0 0 1 96.000001,169.79127 73.791283,73.791283 0 0 1 22.208711,96.000001 73.791283,73.791283 0 0 1 96.000001,22.208731 73.791283,73.791283 0 0 1 169.79128,96.000001 Z" style="fill:none;fill-opacity:1;fill-rule:nonzero;stroke:#f8c18c;stroke-width:4.59115;stroke-linecap:round;stroke-linejoin:round;stroke-miterlimit:4;stroke-dasharray:none;stroke-opacity:1"/><path style="fill:#f8c18c;fill-opacity:1;fill-rule:nonzero;stroke:none;stroke-width:2;stroke-linecap:round;stroke-linejoin:round;stroke-miterlimit:4;stroke-dasharray:none;stroke-opacity:1" id="path6401" d="M 20.907206,96.000021 A 75.092765,75.092765 0 0 1 95.999996,20.90725 75.092765,75.092765 0 0 1 171.09279,96.000021 75.092765,75.092765 0 0 1 95.999996,171.09275 75.092765,75.092765 0 0 1 20.907206,96.000021 Z"/><path style="fill:#fe837e;fill-opacity:1;fill-rule:evenodd;stroke:none;stroke-width:1px;stroke-linecap:butt;stroke-linejoin:miter;stroke-opacity:1" id="path4738" d="m 39.359375,62.015625 h 22.65625 v -22.65625 c -13.31042,0 -22.656018,9.345612 -22.65625,22.65625 z m 90.625005,-22.65625 v 22.65625 h 22.65624 c 0,-13.311004 -9.3456,-22.656501 -22.65624,-22.65625 z m 22.65624,90.625005 h -22.65624 v 22.65624 c 13.31083,0 22.65633,-9.34545 22.65624,-22.65624 z m -90.624995,22.65657 v -22.65657 h -22.65625 c 0,13.31025 9.346342,22.65657 22.65625,22.65657 z M 84.671875,39.359375 v 22.65625 h 22.656245 v -22.65625 z m -45.3125,45.3125 v 22.656245 h 22.65625 V 84.671875 Z m 45.3125,0 V 107.32812 H 107.32812 V 84.671875 Z m 45.312505,0 v 22.656245 h 22.65624 V 84.671875 Z M 84.671875,129.98438 v 22.65624 h 22.656245 v -22.65624 z" clip-path="url(#clipPath4728)" transform="translate(-1.9500033e-4,-1.6249747e-4)"/></g></svg>