<svg xmlns="http://www.w3.org/2000/svg" xmlns:svg="http://www.w3.org/2000/svg" id="svg2" width="192" height="192" version="1.1" viewBox="0 0 192 192"><metadata id="metadata7"/><g id="layer1" transform="translate(0,-860.36216)"><path id="path2622" d="m 95.822978,883.60308 c -27.810002,0 -51.076547,18.71329 -57.975002,44.28359 H 153.79798 c -6.89845,-25.5703 -30.1648,-44.28359 -57.975002,-44.28359 z" style="fill:#f8dd81;fill-opacity:1;stroke-width:22.9597;stroke-linecap:round;stroke-linejoin:round;stop-color:#000"/><path id="path2624" d="m 33.074325,972.17425 a 47.255259,47.255259 0 0 1 -7.095822,13.09712 l -11.013147,14.34037 a 10.46862,10.46862 0 0 0 8.096671,16.84626 H 168.73245 a 10.468876,10.468876 0 0 0 8.30405,-16.84626 l -11.37305,-14.80557 a 47.256764,47.256764 0 0 1 -6.93168,-12.63192 z" style="fill:#f8dd81;fill-opacity:1;stroke-width:9.48143;stroke-linecap:round;stroke-linejoin:round;stop-color:#000"/><path id="path2626" d="M 89.342278,1040.6346 74.949263,1016.458 h 42.100727 l -14.39301,24.1766 a 7.6871247,7.454918 0 0 1 -13.314702,0 z" style="fill:#585b5d;fill-opacity:1;stroke-width:7.24659;stroke-linecap:round;stroke-linejoin:round;stop-color:#000"/><path id="path2628" d="m 37.847976,927.88667 c -1.356151,5.02726 -2.091575,10.31555 -2.091575,15.78299 v 12.81948 a 47.255259,47.255259 0 0 1 -2.682076,15.68511 H 158.73177 a 47.256764,47.256764 0 0 1 -2.84221,-16.1503 v -12.35429 c 0,-5.46724 -0.73543,-10.75593 -2.09158,-15.78299 z" style="fill:#585b5d;fill-opacity:1;stroke-width:22.9597;stroke-linecap:round;stroke-linejoin:round;stop-color:#000"/><g id="g2634" transform="matrix(2.0016988,0,0,2.0016988,-4210.1542,-3827.4635)"><path style="fill:none;stroke:#585b5d;stroke-width:3.61144;stroke-linecap:round;stroke-linejoin:round;stroke-miterlimit:4;stroke-dasharray:none;stroke-opacity:1" id="path2630" d="m 2131.2014,2350.6547 c 0,0 3.1634,0.6623 5.7738,3.1909 2.6103,2.5286 3.1907,5.7737 3.1907,5.7737"/><circle style="fill:#585b5d;fill-opacity:1;stroke-width:5.21786;stroke-linecap:round;stroke-linejoin:round;stop-color:#000" id="circle2632" cx="1718.963" cy="2666.977" r="4.734" transform="matrix(-0.25881904,0.96592583,0.96592583,0.25881904,0,0)"/></g><g id="g2640" transform="matrix(-2.0016988,0,0,2.0016988,4401.9603,-3827.4635)"><path style="fill:none;stroke:#585b5d;stroke-width:3.61144;stroke-linecap:round;stroke-linejoin:round;stroke-miterlimit:4;stroke-dasharray:none;stroke-opacity:1" id="path2636" d="m 2131.2014,2350.6547 c 0,0 3.1634,0.6623 5.7738,3.1909 2.6103,2.5286 3.1907,5.7737 3.1907,5.7737"/><circle style="fill:#585b5d;fill-opacity:1;stroke-width:5.21786;stroke-linecap:round;stroke-linejoin:round;stop-color:#000" id="circle2638" cx="1718.963" cy="2666.977" r="4.734" transform="matrix(-0.25881904,0.96592583,0.96592583,0.25881904,0,0)"/></g></g></svg>