<svg xmlns="http://www.w3.org/2000/svg" xmlns:svg="http://www.w3.org/2000/svg" id="svg2" width="192" height="192" version="1.1" viewBox="0 0 192 192"><metadata id="metadata7"/><g id="layer1" transform="translate(0,-860.36216)"><rect id="rect937" width="153" height="153" x="19.5" y="879.862" rx="10" style="fill:#8b70bc;fill-opacity:1;fill-rule:evenodd;stroke:none;stroke-opacity:1"/><rect id="rect980" width="46.325" height="46.325" x="59.5" y="919.882" rx="3.028" style="fill:#97db99;fill-opacity:1;fill-rule:evenodd;stroke:none;stroke-width:.302779;stroke-opacity:1"/><circle id="circle982" cx="105.855" cy="966.198" r="26.645" style="fill:#fe827c;fill-opacity:1;fill-rule:evenodd;stroke:none;stroke-width:.302779;stroke-opacity:1"/><path style="fill:#fefefe;fill-opacity:.75;fill-rule:evenodd;stroke:none;stroke-width:.302779;stroke-opacity:1" id="path984" d="m 105.8256,939.55327 a 26.64456,26.64456 0 0 0 -26.614282,26.64427 26.64456,26.64456 0 0 0 0,0.01 h 23.586222 c 1.67739,0 3.02806,-1.35066 3.02806,-3.02805 z"/><path style="fill:#fefefe;fill-opacity:.75;fill-rule:evenodd;stroke:none;stroke-width:.302779;stroke-opacity:1" id="path1016" d="m 105.8256,939.55327 a 26.64456,26.64456 0 0 0 -26.614282,26.64427 26.64456,26.64456 0 0 0 0,0.01 h 23.586222 c 1.67739,0 3.02806,-1.35066 3.02806,-3.02805 z"/></g><style id="style853" type="text/css"/></svg>