<svg xmlns="http://www.w3.org/2000/svg" xmlns:svg="http://www.w3.org/2000/svg" id="svg5165" width="192" height="192" version="1.1" viewBox="0 0 192 192"><metadata id="metadata5170"/><g id="layer1" transform="translate(0,-860.3622)"><rect id="rect5793" width="152" height="152" x="20" y="880.362" rx="9.935" style="display:inline;fill:#ff837d;fill-opacity:1;fill-rule:evenodd;stroke:none;stroke-width:.993464"/><rect style="fill:none;fill-opacity:1;stroke:#fff;stroke-width:5;stroke-linecap:butt;stroke-linejoin:round;stroke-miterlimit:4;stroke-dasharray:none;stroke-opacity:1" id="rect5787" width="14.281" height="23.107" x="964.544" y="-123.659" rx="6.149" ry="6.149" transform="rotate(90)"/><path id="path5789" d="m 68.925252,958.7402 c -1.481499,0 -2.709302,1.0368 -3.009766,2.4258 h -0.07422 v 0.6582 6.5606 3.2793 c 0,13.3574 9.531613,24.1113 21.371099,24.1113 h 6.89453 c 11.839475,0 21.371085,-10.7539 21.371085,-24.1113 v -3.2793 -6.5606 -0.6582 h -0.0742 c -0.30046,-1.389 -1.52827,-2.4258 -3.00976,-2.4258 H 68.925271 Z" style="fill:#fff;fill-opacity:1;stroke:none;stroke-width:5;stroke-linecap:butt;stroke-linejoin:round;stroke-miterlimit:4;stroke-dasharray:none;stroke-opacity:1"/><path style="fill:#fff;fill-opacity:1;fill-rule:evenodd;stroke:#fff;stroke-width:2.5;stroke-linecap:round;stroke-linejoin:round;stroke-miterlimit:4;stroke-dasharray:none;stroke-opacity:1" id="path5795" d="m 91.897695,930.41327 c -1.049008,3.83818 -5.449077,6.3927 -5.968433,10.33762 -0.558075,4.23903 3.319834,12.38977 3.319834,12.38977 0,0 -1.079195,-8.48152 0,-12.50916 1.059469,-3.95399 5.605885,-6.57669 6.140196,-10.63513 0.565186,-4.29306 -3.362137,-12.54766 -3.362137,-12.54766 0,0 1.009907,8.79572 -0.12946,12.96456 z"/><path style="fill:#fff;fill-opacity:1;fill-rule:evenodd;stroke:#fff;stroke-width:2.5;stroke-linecap:round;stroke-linejoin:round;stroke-miterlimit:4;stroke-dasharray:none;stroke-opacity:1" id="path5797" d="m 105.65989,931.35085 c -0.84752,3.10097 -4.40246,5.16485 -4.82206,8.35205 -0.45089,3.42484 2.68218,10.01005 2.68218,10.01005 0,0 -0.87191,-6.85246 0,-10.1065 0.85598,-3.19454 4.52916,-5.31349 4.96084,-8.59242 0.45663,-3.46848 -2.71636,-10.13761 -2.71636,-10.13761 0,0 0.81593,7.10631 -0.1046,10.47443 z"/><path id="path5799" d="m 77.659896,931.35085 c -0.84752,3.10097 -4.40246,5.16485 -4.82206,8.35205 -0.45089,3.42484 2.68218,10.01005 2.68218,10.01005 0,0 -0.87191,-6.85246 0,-10.1065 0.85598,-3.19454 4.52916,-5.31349 4.96084,-8.59242 0.45663,-3.46848 -2.71636,-10.13761 -2.71636,-10.13761 0,0 0.81593,7.10631 -0.1046,10.47443 z" style="fill:#fff;fill-opacity:1;fill-rule:evenodd;stroke:#fff;stroke-width:2.5;stroke-linecap:round;stroke-linejoin:round;stroke-miterlimit:4;stroke-dasharray:none;stroke-opacity:1"/></g></svg>