<svg xmlns="http://www.w3.org/2000/svg" xmlns:svg="http://www.w3.org/2000/svg" id="svg2" width="192" height="192" version="1.1" viewBox="0 0 192 192"><metadata id="metadata7"/><g id="layer1" transform="translate(0,-860.36216)"><rect id="rect1003" width="153" height="153" x="19.5" y="879.862" rx="10" ry="10" style="fill:#708cbd;fill-opacity:1;fill-rule:evenodd;stroke:none;stroke-opacity:1"/><g style="stroke-width:.984455" id="g968" transform="matrix(1.0157906,0,0,1.0157906,-163.73601,-29.625569)"><path style="fill:#fff;fill-opacity:1;stroke-width:7.31115" id="polygon934" d="m 552.75338,408.43133 42.86624,71.01134 A 1.6932625,1.6932625 119.44129 0 1 594.17,482.011 h -61.097 a 5.3153622,5.3153622 29.440461 0 1 -4.55046,-2.56829 L 485.65346,408.43129 A 1.6932054,1.6932054 119.44046 0 1 487.103,405.863 h 61.1 a 5.315183,5.315183 29.441288 0 1 4.55038,2.56833 z" transform="matrix(0.3669485,0,0,0.3669485,64.449037,823.90065)"/><path style="fill:#f8c18c;fill-opacity:1;stroke-width:7.31115" id="polygon936" d="m 562.29601,391.81595 56.50098,-71.1269 A 1.4482377,1.4482377 64.231263 0 0 617.663,318.34 h -63.352 a 6.2145136,6.2145136 154.23149 0 0 -4.86603,2.34903 l -56.50194,71.12694 a 1.4482228,1.4482228 64.231495 0 0 1.13397,2.34903 h 63.353 a 6.2144494,6.2144494 154.23126 0 0 4.86601,-2.34905 z" transform="matrix(0.3669485,0,0,0.3669485,64.449037,823.90065)"/><path style="fill:#f8c18c;fill-opacity:1;stroke-width:7.31115" id="polygon938" d="m 492.92904,480.11692 56.52992,-72.03684 A 1.4592279,1.4592279 64.061281 0 0 548.311,405.72 h -63.353 a 6.1675821,6.1675821 154.06105 0 0 -4.85202,2.36009 l -56.52896,72.03682 a 1.4592428,1.4592428 64.06105 0 0 1.14798,2.36009 h 63.352 a 6.1676453,6.1676453 154.06128 0 0 4.85204,-2.36008 z" transform="matrix(0.3669485,0,0,0.3669485,64.449037,823.90065)"/><path style="fill:#fff;fill-opacity:1;stroke-width:7.31115" id="polygon940" d="m 512.96476,320.01364 41.33948,71.55372 A 1.7314657,1.7314657 119.99162 0 1 552.805,394.165 h -58.728 a 5.1979083,5.1979083 29.991619 0 1 -4.50076,-2.59764 L 448.23676,320.01364 A 1.7314657,1.7314657 119.99162 0 1 449.736,317.416 h 58.728 a 5.1979083,5.1979083 29.991619 0 1 4.50076,2.59764 z" transform="matrix(0.3669485,0,0,0.3669485,64.449037,823.90065)"/></g></g><style id="style853" type="text/css"/></svg>