<svg xmlns="http://www.w3.org/2000/svg" xmlns:svg="http://www.w3.org/2000/svg" id="svg8" width="192" height="192" version="1.1" viewBox="0 0 50.8 50.8"><metadata id="metadata5"/><g id="layer1"><g id="g863" transform="translate(-9.5367446e-8,60.120766)"><rect style="fill:#ffb1ad;fill-opacity:1;fill-rule:evenodd;stroke:none;stroke-width:.264583;stroke-opacity:1" id="rect956" width="40.481" height="40.481" x="5.159" y="-54.961" rx="2.646"/><path style="fill:#fff;fill-opacity:1;stroke:none;stroke-width:.207922;stroke-linecap:round;stroke-linejoin:round" id="path958" d="m 25.239027,-44.377692 c -1.192999,0.0687 -2.273982,0.734241 -3.077591,1.587341 -0.393533,0.380874 -0.741655,0.883902 -1.309512,1.007109 -1.027912,0.285927 -2.117907,0.531787 -2.962386,1.224366 -1.149112,0.941966 -1.609977,2.580929 -1.243531,4.004241 0.102974,0.689455 0.496071,1.341699 0.391019,2.055385 -0.108854,0.677617 -0.377575,1.365318 -0.46487,2.066337 -0.128552,0.868981 0.01674,1.785956 0.474326,2.542438 0.525541,0.902357 1.420191,1.565765 2.421968,1.847573 0.620799,0.197912 1.294342,0.269521 1.862016,0.607572 0.608015,0.4575 1.052579,1.097947 1.680064,1.53332 0.819852,0.615884 1.87662,0.967573 2.903152,0.794461 1.121161,-0.165899 2.115331,-0.829394 2.846605,-1.675375 0.359617,-0.389879 0.760464,-0.802295 1.303493,-0.907819 0.957104,-0.277596 1.976284,-0.492643 2.772908,-1.12998 1.066514,-0.831112 1.579991,-2.256063 1.407942,-3.583188 -0.07663,-0.684189 -0.342989,-1.326851 -0.480311,-1.997499 -0.07503,-0.381684 0.02547,-0.762373 0.127906,-1.12807 0.235935,-0.911528 0.500317,-1.865608 0.314875,-2.813531 -0.255879,-1.428482 -1.402259,-2.616774 -2.780145,-3.026212 -0.622538,-0.216418 -1.298732,-0.282219 -1.888373,-0.588033 -0.523736,-0.358338 -0.897534,-0.886176 -1.388031,-1.284265 -0.750726,-0.672701 -1.723956,-1.142697 -2.746768,-1.136213 -0.05491,2.32e-4 -0.109861,-8.67e-4 -0.164756,4.2e-5 z"/><path id="path960" d="m 25.399687,-42.242921 c 1.284053,0 1.971774,1.538136 3.083796,2.180162 1.112023,0.642027 2.787948,0.468543 3.429975,1.580566 0.642026,1.112022 -0.346178,2.476674 -0.346178,3.760727 0,1.284053 0.988204,2.648705 0.346178,3.760728 -0.642027,1.112022 -2.317952,0.938538 -3.429974,1.580564 -1.112023,0.642027 -1.799744,2.180163 -3.083797,2.180163 -1.284053,0 -1.971774,-1.538136 -3.083797,-2.180162 -1.112022,-0.642027 -2.787948,-0.468543 -3.429974,-1.580566 -0.642027,-1.112022 0.346177,-2.476674 0.346177,-3.760727 0,-1.284053 -0.988204,-2.648705 -0.346177,-3.760728 0.642026,-1.112022 2.317951,-0.938538 3.429974,-1.580565 1.112023,-0.642026 1.799744,-2.180162 3.083797,-2.180162 z" style="fill:#ffb1ad;fill-opacity:1;stroke:none;stroke-width:.207922;stroke-linecap:round;stroke-linejoin:round"/><path id="path962" d="m -67.545627,145.4787 0,-15.51645 a 2.4441161,2.4441161 150 0 1 3.666175,-2.11666 l 13.437634,7.75822 a 2.4441161,2.4441161 90 0 1 0,4.23333 l -13.437634,7.75822 a 2.4441161,2.4441161 30 0 1 -3.666175,-2.11666 z" transform="matrix(-0.11811566,-0.20458231,0.20458231,-0.11811566,-9.9490298,-30.847811)" style="fill:#fefefe;fill-opacity:1;stroke:none;stroke-width:1.32292;stroke-linecap:round;stroke-linejoin:round"/></g></g></svg>