<svg xmlns="http://www.w3.org/2000/svg" xmlns:svg="http://www.w3.org/2000/svg" id="svg2" width="192" height="192" version="1.1" viewBox="0 0 192 192"><metadata id="metadata7"/><g id="layer1" transform="translate(0,-860.36216)"><g id="g1057" transform="translate(132.86899,342.92489)"><path id="path1047" fill="#9abeff" fill-rule="evenodd" d="m -117.86899,613.43727 v 71 c 0,5.523 4.4772,10 10,10 h 70.999999 3 c 0.548,0 1.086,-0.044 1.611,-0.129 42.589,-2.39 76.389,-37.683 76.389,-80.871 0,-44.7351 -36.2650004,-81 -81,-81 -44.2205,0 -80.164499,35.4354 -80.985599,79.4596 -0.01,0.1789 -0.0144,0.3591 -0.0144,0.5404 z" clip-rule="evenodd" style="fill:#fefefe;fill-opacity:1"/><g id="g1055" transform="translate(9.8609977,-16.90857)"><path id="path1049" d="m -76.278268,607.82264 a 5.8792059,7.2339565 0 0 1 -5.87924,7.23395 5.8792059,7.2339565 0 0 1 -5.87918,-7.23395 5.8792059,7.2339565 0 0 1 5.87918,-7.23396 5.8792059,7.2339565 0 0 1 5.87924,7.23396 z" style="fill:#99bdfe;fill-opacity:1;stroke-width:3.51343;stop-color:#000"/><path id="path1051" d="m -5.4232784,607.82264 a 5.8792059,7.2339565 0 0 1 -5.8792496,7.23395 5.8792059,7.2339565 0 0 1 -5.87917,-7.23395 5.8792059,7.2339565 0 0 1 5.87917,-7.23396 5.8792059,7.2339565 0 0 1 5.8792496,7.23396 z" style="fill:#99bdfe;fill-opacity:1;stroke-width:3.51343;stop-color:#000"/><path style="fill:#99bdfe;fill-opacity:1;stroke-width:2.63744;stop-color:#000" id="path1053" d="m -3.6177484,635.33413 c -1.56479,13.54232 -9.4387896,25.68342 -21.4126096,32.5965 -13.42777,7.75253 -29.97148,7.75253 -43.39926,0 -11.97381,-6.91308 -19.84781,-19.05418 -21.4126,-32.5965 -0.31675,-2.74128 1.95128,-4.98829 4.71231,-4.98829 h 76.7998396 c 2.76104,0 5.02907,2.24701 4.71232,4.98829 z"/></g></g></g><style id="style853" type="text/css"/></svg>