<svg xmlns="http://www.w3.org/2000/svg" xmlns:svg="http://www.w3.org/2000/svg" id="svg8" width="192" height="192" version="1.1" viewBox="0 0 50.8 50.8"><metadata id="metadata5"/><g id="layer1"><path style="fill:#585b5d;fill-opacity:1;stroke-width:.0999846;stroke-linecap:round;stroke-linejoin:round;stroke-miterlimit:4;stroke-dasharray:none" id="path977-3" d="m -95.658151,-49.209948 13.289466,0.105641 a 4.6680212,4.6680212 30.000003 0 1 3.986839,2.301802 l 6.736219,11.456195 a 332.84294,332.84294 60.000003 0 1 2.645749,4.582573 l 6.553246,11.561836 a 4.6680212,4.6680212 90.000003 0 1 -10e-7,4.603604 l -6.553245,11.5618345 a 332.84294,332.84294 120 0 1 -2.64575,4.5825728 l -6.736221,11.4561947 a 4.6680212,4.6680212 150 0 1 -3.986839,2.301802 l -13.289465,0.10564 a 332.84294,332.84294 2.914012e-6 0 1 -5.291497,0 l -13.28947,-0.105641 a 4.6680212,4.6680212 30.000003 0 1 -3.98684,-2.301803 l -6.73622,-11.4561941 a 332.84294,332.84294 60.000003 0 1 -2.64575,-4.5825731 L -134.16117,-14.5983 a 4.6680212,4.6680212 90.000003 0 1 0,-4.603605 l 6.55324,-11.561834 a 332.84294,332.84294 120 0 1 2.64575,-4.582573 l 6.73623,-11.456195 a 4.6680212,4.6680212 150 0 1 3.98683,-2.301802 l 13.28947,-0.105639 a 332.84294,332.84294 2.914012e-6 0 1 5.291499,0 z" transform="matrix(0.54568011,0.31504856,-0.31504856,0.54568011,73.718131,65.592551)"/><path style="fill:#f8dd81;fill-opacity:1;stroke-width:.0194983;stroke-linecap:round;stroke-linejoin:round" id="path897-6" d="m 18.163188,18.004621 -1.946634,0.967626 A 0.85397257,0.85397257 121.78455 0 0 15.7427,19.736956 v 11.326046 a 0.85397521,0.85397521 58.21553 0 0 0.473853,0.76471 l 1.946636,0.967634 a 1.0644087,1.0644087 179.99697 0 0 0.947681,-5e-5 l 1.945918,-0.967534 a 0.85404561,0.85404561 121.78052 0 0 0.473811,-0.76476 l -3.62e-4,-11.325666 a 0.85425647,0.85425647 58.222145 0 0 -0.473808,-0.764835 l -1.945596,-0.967754 a 1.0642027,1.0642027 0.00761027 0 0 -0.947645,-1.26e-4 z m 13.525959,1.25e-4 -1.945604,0.967756 a 0.85425315,0.85425315 121.77783 0 0 -0.473808,0.764834 l -3.38e-4,11.325666 a 0.8540484,0.8540484 58.21944 0 0 0.473812,0.764761 l 1.945912,0.967532 a 1.0644091,1.0644091 0.00308582 0 0 0.947681,5.1e-5 l 1.946644,-0.967634 a 0.85397416,0.85397416 121.7845 0 0 0.473853,-0.76471 V 19.736956 A 0.85397021,0.85397021 58.215379 0 0 34.583445,18.972248 L 32.636793,18.00462 a 1.0642079,1.0642079 179.99236 0 0 -0.947646,1.26e-4 z m -9.183113,2.21742 v 7.477826 a 0.85402301,0.85402301 58.216966 0 0 0.473841,0.764734 l 1.946276,0.967576 a 1.0644161,1.0644161 0 0 0 0.947682,0 l 1.946276,-0.967576 a 0.85402301,0.85402301 121.78303 0 0 0.473841,-0.764734 v -7.477826 a 0.32788035,0.32788035 31.783034 0 0 -0.473841,-0.2936 l -1.946276,0.967576 a 1.0644161,1.0644161 0 0 1 -0.947682,0 l -1.946276,-0.967576 a 0.32788035,0.32788035 148.21697 0 0 -0.473841,0.2936 z"/></g></svg>