<svg xmlns="http://www.w3.org/2000/svg" xmlns:svg="http://www.w3.org/2000/svg" id="svg2" width="192" height="192" version="1.1" viewBox="0 0 192 192"><metadata id="metadata7"/><g id="layer1" transform="translate(0,-860.36216)"><path style="fill:#000" id="path862"/><path style="fill:#000" id="path860"/><path style="fill:#000" id="path858"/><path style="fill:#000" id="path856"/><path style="fill:#000" id="path854"/><g id="g925"><rect id="rect1375" width="153" height="153" x="19.5" y="879.862" rx="10" style="fill:#ff837d;fill-opacity:1;fill-rule:evenodd;stroke:none"/><path style="opacity:.996;fill:#f8dd81;fill-opacity:1;stroke:none" id="path1377" d="m 121.73649,931.02891 c -10.93987,-3.14467 -18.96074,6.23895 -28.72967,8.97965 -10.48386,2.94124 -22.12888,-1.89046 -31.09959,5.98591 -11.77002,10.33404 -7.16294,29.31052 7.41722,34.04455 19.40576,6.30274 44.68332,-1.07064 59.91441,-13.78513 12.79428,-10.68074 8.62877,-30.58812 -7.50237,-35.22498 z"/><path id="path1387" d="m 135.2499,955.77621 c -3.189,0.0158 -6.39852,0.25087 -9.62891,0.70117 -3.23038,0.45031 -6.48075,1.11525 -9.75195,1.99414 -3.2712,0.8789 -6.56354,1.97189 -9.875,3.27344 -3.31146,1.30155 -6.64299,2.81296 -9.99414,4.53125 -3.45076,1.89551 -6.85371,3.44708 -10.21484,4.69726 -3.36114,1.25017 -6.68041,2.19883 -9.9629,2.88282 -3.2825,0.68398 -6.52929,1.10387 -9.74414,1.30078 -3.21484,0.19693 -6.39844,0.16999 -9.55664,-0.041 -3.15819,-0.21102 -6.28981,-0.60666 -9.40234,-1.14648 -3.11252,-0.53982 -6.20535,-1.22419 -9.2832,-2.01368 -6.1557,-1.57898 -12.25301,-3.57681 -18.33594,-5.67968 v 47.39257 9.1934 c 0,5.54 4.46,10 10,10 h 133 c 5.54,0 10,-4.46 10,-10 v -9.1934 -47.39257 c -3.01784,-1.78147 -6.05767,-3.33298 -9.11914,-4.65625 -3.06147,-1.32327 -6.14545,-2.42003 -9.25,-3.29102 -3.10455,-0.871 -6.22988,-1.51677 -9.37696,-1.94141 -3.14706,-0.42463 -6.3149,-0.62712 -9.5039,-0.61132 z" style="fill:#bd9aff;fill-opacity:.75;fill-rule:evenodd;stroke:none"/></g></g></svg>