<svg xmlns="http://www.w3.org/2000/svg" xmlns:svg="http://www.w3.org/2000/svg" id="svg2" width="192" height="192" version="1.1" viewBox="0 0 192 192"><metadata id="metadata7"/><g id="layer1" transform="translate(0,-860.36216)"><g id="g1269" transform="translate(-472.88696,319.57291)"><rect style="fill:#fefefe;fill-opacity:1;fill-rule:evenodd;stroke:none;stroke-opacity:1" id="rect1255" width="153" height="153" x="492.387" y="560.289" rx="10" ry="10"/><g style="fill:#fe837e;fill-opacity:1;stroke-width:2.01643" id="g1263" transform="matrix(0.35067482,-0.35067482,0.35067482,0.35067482,292.65657,585.25986)"><path id="path1257" d="m -307.60352,443.11523 c -20.37142,0 -36.99414,16.62077 -36.99414,36.99219 a 5,5 0 0 0 5,5 5,5 0 0 0 5,-5 c 0,-14.96702 12.02712,-26.99219 26.99414,-26.99219 a 5,5 0 0 0 5,-5 5,5 0 0 0 -5,-5 z" transform="scale(-1,1)" style="color:#000;font-style:normal;font-variant:normal;font-weight:400;font-stretch:normal;font-size:medium;line-height:normal;font-family:sans-serif;font-variant-ligatures:normal;font-variant-position:normal;font-variant-caps:normal;font-variant-numeric:normal;font-variant-alternates:normal;font-variant-east-asian:normal;font-feature-settings:normal;font-variation-settings:normal;text-indent:0;text-align:start;text-decoration:none;text-decoration-line:none;text-decoration-style:solid;text-decoration-color:#000;letter-spacing:normal;word-spacing:normal;text-transform:none;writing-mode:lr-tb;direction:ltr;text-orientation:mixed;dominant-baseline:auto;baseline-shift:baseline;text-anchor:start;white-space:normal;shape-padding:0;shape-margin:0;inline-size:0;clip-rule:nonzero;display:inline;overflow:visible;visibility:visible;opacity:1;isolation:auto;mix-blend-mode:normal;color-interpolation:sRGB;color-interpolation-filters:linearRGB;solid-color:#000;solid-opacity:1;vector-effect:none;fill:#fe837e;fill-opacity:1;fill-rule:nonzero;stroke:none;stroke-width:20.1643;stroke-linecap:round;stroke-linejoin:round;stroke-miterlimit:4;stroke-dasharray:none;stroke-dashoffset:0;stroke-opacity:1;color-rendering:auto;image-rendering:auto;shape-rendering:auto;text-rendering:auto;enable-background:accumulate;stop-color:#000;stop-opacity:1"/><path id="path1259" d="m -307.60352,417.24609 c -34.65887,0 -62.86327,28.20246 -62.86328,62.86133 a 5,5 0 0 0 5,5 5,5 0 0 0 5,-5 c 10e-6,-29.25447 23.60881,-52.86133 52.86328,-52.86133 a 5,5 0 0 0 5,-5 5,5 0 0 0 -5,-5 z" transform="scale(-1,1)" style="color:#000;font-style:normal;font-variant:normal;font-weight:400;font-stretch:normal;font-size:medium;line-height:normal;font-family:sans-serif;font-variant-ligatures:normal;font-variant-position:normal;font-variant-caps:normal;font-variant-numeric:normal;font-variant-alternates:normal;font-variant-east-asian:normal;font-feature-settings:normal;font-variation-settings:normal;text-indent:0;text-align:start;text-decoration:none;text-decoration-line:none;text-decoration-style:solid;text-decoration-color:#000;letter-spacing:normal;word-spacing:normal;text-transform:none;writing-mode:lr-tb;direction:ltr;text-orientation:mixed;dominant-baseline:auto;baseline-shift:baseline;text-anchor:start;white-space:normal;shape-padding:0;shape-margin:0;inline-size:0;clip-rule:nonzero;display:inline;overflow:visible;visibility:visible;opacity:1;isolation:auto;mix-blend-mode:normal;color-interpolation:sRGB;color-interpolation-filters:linearRGB;solid-color:#000;solid-opacity:1;vector-effect:none;fill:#fe837e;fill-opacity:1;fill-rule:nonzero;stroke:none;stroke-width:20.1643;stroke-linecap:round;stroke-linejoin:round;stroke-miterlimit:4;stroke-dasharray:none;stroke-dashoffset:0;stroke-opacity:1;color-rendering:auto;image-rendering:auto;shape-rendering:auto;text-rendering:auto;enable-background:accumulate;stop-color:#000;stop-opacity:1"/><path id="path1261" d="m -307.60352,391.375 c -48.94632,0 -88.73242,39.7861 -88.73242,88.73242 a 5,5 0 0 0 5,5 5,5 0 0 0 5,-5 c 0,-43.54192 35.1905,-78.73242 78.73242,-78.73242 a 5,5 0 0 0 5,-5 5,5 0 0 0 -5,-5 z" transform="scale(-1,1)" style="color:#000;font-style:normal;font-variant:normal;font-weight:400;font-stretch:normal;font-size:medium;line-height:normal;font-family:sans-serif;font-variant-ligatures:normal;font-variant-position:normal;font-variant-caps:normal;font-variant-numeric:normal;font-variant-alternates:normal;font-variant-east-asian:normal;font-feature-settings:normal;font-variation-settings:normal;text-indent:0;text-align:start;text-decoration:none;text-decoration-line:none;text-decoration-style:solid;text-decoration-color:#000;letter-spacing:normal;word-spacing:normal;text-transform:none;writing-mode:lr-tb;direction:ltr;text-orientation:mixed;dominant-baseline:auto;baseline-shift:baseline;text-anchor:start;white-space:normal;shape-padding:0;shape-margin:0;inline-size:0;clip-rule:nonzero;display:inline;overflow:visible;visibility:visible;opacity:1;isolation:auto;mix-blend-mode:normal;color-interpolation:sRGB;color-interpolation-filters:linearRGB;solid-color:#000;solid-opacity:1;vector-effect:none;fill:#fe837e;fill-opacity:1;fill-rule:nonzero;stroke:none;stroke-width:20.1643;stroke-linecap:round;stroke-linejoin:round;stroke-miterlimit:4;stroke-dasharray:none;stroke-dashoffset:0;stroke-opacity:1;color-rendering:auto;image-rendering:auto;shape-rendering:auto;text-rendering:auto;enable-background:accumulate;stop-color:#000;stop-opacity:1"/></g><text id="text1267" x="517.975" y="667.261" xml:space="preserve" style="font-style:normal;font-variant:normal;font-weight:700;font-stretch:normal;font-size:31.127px;line-height:1.25;font-family:'Now alt';-inkscape-font-specification:'Now alt Bold';letter-spacing:0;word-spacing:0;fill:#fe837e;fill-opacity:1;stroke-width:.778176"><tspan style="fill:#fe837e;fill-opacity:1;stroke-width:.778176" id="tspan1265" x="517.975" y="667.261">Canon</tspan></text></g></g><style id="style853" type="text/css"/></svg>