<svg xmlns="http://www.w3.org/2000/svg" xmlns:svg="http://www.w3.org/2000/svg" id="svg2" width="192" height="192" version="1.1" viewBox="0 0 192 192"><metadata id="metadata7"/><g id="layer1" transform="translate(0,-860.36216)"><rect style="fill:#fff;fill-opacity:1;fill-rule:evenodd;stroke:none;stroke-opacity:1" id="rect988" width="153" height="153" x="19.5" y="879.862" rx="10" ry="10"/><path id="path961" d="m 69.263522,929.86436 c -5.349589,0 -9.763511,4.41283 -9.763522,9.76241 l 0,2.29622 a 4.8498681,4.8498681 58.260162 0 0 2.684328,4.33955 l 0.73374,0.36615 3.418067,1.70681 15.924281,7.94878 -15.924281,7.9488 -3.418067,1.7068 -0.734088,0.36657 A 4.8512775,4.8512775 121.73239 0 0 59.5,970.64669 v 2.44976 c 0,5.34958 4.413939,9.76351 9.763522,9.76351 H 109.556 c 4.79968,0 8.83454,-3.55604 9.61554,-8.15016 l 10.64433,5.31374 A 1.8554153,1.8554153 148.26438 0 0 132.5,978.36348 V 976.724 a 4.8506228,4.8506228 58.264151 0 0 -2.68414,-4.33992 l -10.49745,-5.24031 V 945.4248 l 10.49745,-5.24031 A 4.8506228,4.8506228 121.73585 0 0 132.5,935.84457 v -1.63947 a 1.8554845,1.8554845 31.736577 0 0 -2.68418,-1.66015 l -10.66765,5.32494 c -0.84003,-4.52419 -4.84259,-8.00553 -9.59217,-8.00553 z m 0,6.83614 H 109.556 c 1.68062,0 2.92628,1.24566 2.92628,2.92627 v 1.57106 l -22.570155,11.26672 -23.57599,-11.76963 v -1.06815 c 0,-1.68061 1.246769,-2.92627 2.927387,-2.92627 z m 43.218758,12.13792 v 14.89173 l -14.916224,-7.44587 z m -22.569044,11.26671 22.569044,11.26561 v 1.72572 c 0,1.68061 -1.24566,2.92739 -2.92628,2.92739 H 69.263522 c -1.680618,0 -2.927375,-1.24677 -2.927387,-2.92739 v -1.2228 z" style="color:#000;font-style:normal;font-variant:normal;font-weight:400;font-stretch:normal;font-size:medium;line-height:normal;font-family:sans-serif;font-variant-ligatures:normal;font-variant-position:normal;font-variant-caps:normal;font-variant-numeric:normal;font-variant-alternates:normal;font-variant-east-asian:normal;font-feature-settings:normal;font-variation-settings:normal;text-indent:0;text-align:start;text-decoration:none;text-decoration-line:none;text-decoration-style:solid;text-decoration-color:#000;letter-spacing:normal;word-spacing:normal;text-transform:none;writing-mode:lr-tb;direction:ltr;text-orientation:mixed;dominant-baseline:auto;baseline-shift:baseline;text-anchor:start;white-space:normal;shape-padding:0;shape-margin:0;inline-size:0;clip-rule:nonzero;display:inline;overflow:visible;visibility:visible;opacity:1;isolation:auto;mix-blend-mode:normal;color-interpolation:sRGB;color-interpolation-filters:linearRGB;solid-color:#000;solid-opacity:1;vector-effect:none;fill:#575a5c;fill-opacity:1;fill-rule:nonzero;stroke:none;stroke-width:6.83614;stroke-linecap:round;stroke-linejoin:round;stroke-miterlimit:4;stroke-dasharray:none;stroke-dashoffset:0;stroke-opacity:1;paint-order:normal;color-rendering:auto;image-rendering:auto;shape-rendering:auto;text-rendering:auto;enable-background:accumulate;stop-color:#000;stop-opacity:1"/></g><style id="style853" type="text/css"/></svg>