<svg xmlns="http://www.w3.org/2000/svg" xmlns:svg="http://www.w3.org/2000/svg" id="svg2" width="192" height="192" version="1.1" viewBox="0 0 192 192"><metadata id="metadata7"/><g id="layer1" transform="translate(0,-860.36216)"><rect style="fill:#ff837d;fill-opacity:1;fill-rule:evenodd;stroke:none;stroke-width:.927823;stroke-opacity:1" id="rect921" width="141.957" height="141.957" x="25.022" y="890.977" rx="9.278"/><rect style="fill:#ff837d;fill-opacity:1;fill-rule:evenodd;stroke:none;stroke-width:.150565;stroke-opacity:1" id="rect925" width="31.023" height="17.106" x="121.336" y="879.79" rx="3.944" ry="3.944"/><path style="color:#000;font-style:normal;font-variant:normal;font-weight:400;font-stretch:normal;font-size:medium;line-height:normal;font-family:sans-serif;font-variant-ligatures:normal;font-variant-position:normal;font-variant-caps:normal;font-variant-numeric:normal;font-variant-alternates:normal;font-variant-east-asian:normal;font-feature-settings:normal;font-variation-settings:normal;text-indent:0;text-align:start;text-decoration:none;text-decoration-line:none;text-decoration-style:solid;text-decoration-color:#000;letter-spacing:normal;word-spacing:normal;text-transform:none;writing-mode:lr-tb;direction:ltr;text-orientation:mixed;dominant-baseline:auto;baseline-shift:baseline;text-anchor:start;white-space:normal;shape-padding:0;shape-margin:0;inline-size:0;clip-rule:nonzero;display:inline;overflow:visible;visibility:visible;isolation:auto;mix-blend-mode:normal;color-interpolation:sRGB;color-interpolation-filters:linearRGB;solid-color:#000;solid-opacity:1;vector-effect:none;fill:#fff;fill-opacity:1;fill-rule:nonzero;stroke:none;stroke-width:19.6232;stroke-linecap:square;stroke-linejoin:miter;stroke-miterlimit:4;stroke-dasharray:none;stroke-dashoffset:0;stroke-opacity:1;color-rendering:auto;image-rendering:auto;shape-rendering:auto;text-rendering:auto;enable-background:accumulate;stop-color:#000" id="path1003" d="M 97.211569,1008.6535 C 81.211867,1009.0661 65.8608,1001.2038 56.91987,987.55766 46.701669,971.96203 46.752319,951.7077 57.047625,936.16287 67.34293,920.61804 85.972892,912.66643 104.31941,915.98915 l 4.73376,0.85768 a 5.0006821,5.0006821 55.265711 0 1 4.02917,5.81142 l -1.7144,9.4696 a 4.9995237,4.9995237 145.26453 0 1 -5.81067,4.02882 l -4.73604,-0.85789 c -10.681206,-1.93447 -21.420105,2.64765 -27.413958,11.69773 -5.993854,9.0501 -6.023295,20.72682 -0.07433,29.80648 5.948968,9.07966 16.667557,13.71634 27.358218,11.83479 l 4.7386,-0.83381 a 4.9999937,4.9999937 35.02033 0 1 5.79084,4.05785 l 1.66762,9.47728 a 5.0000022,5.0000022 125.02035 0 1 -4.05786,5.7908 l -4.73859,0.8338 c -2.29534,0.404 -4.594528,0.6309 -6.880201,0.6898 z"/><rect style="fill:#fff;fill-opacity:1;stroke:none;stroke-width:21.6305;stroke-linecap:square;stroke-miterlimit:4;stroke-dasharray:none;stroke-opacity:1;stop-color:#000" id="rect963" width="19.623" height="8.325" x="123.086" y="957.794" rx="4.162" ry="4.162"/><rect style="fill:#fff;fill-opacity:1;stroke:none;stroke-width:21.6305;stroke-linecap:square;stroke-miterlimit:4;stroke-dasharray:none;stroke-opacity:1;stop-color:#000" id="rect1007" width="19.623" height="8.325" x="506.055" y="835.583" rx="4.162" ry="4.162" transform="rotate(24.000001)"/><rect style="fill:#fff;fill-opacity:1;stroke:none;stroke-width:21.6305;stroke-linecap:square;stroke-miterlimit:4;stroke-dasharray:none;stroke-opacity:1;stop-color:#000" id="rect1009" width="19.623" height="8.325" x="806.206" y="568.17" rx="4.162" ry="4.162" transform="rotate(48)"/><rect style="fill:#fff;fill-opacity:1;stroke:none;stroke-width:21.6305;stroke-linecap:square;stroke-miterlimit:4;stroke-dasharray:none;stroke-opacity:1;stop-color:#000" id="rect1011" width="19.623" height="8.325" x="-276.481" y="913.672" rx="4.162" ry="4.162" transform="rotate(-24.000001)"/><rect style="fill:#fff;fill-opacity:1;stroke:none;stroke-width:21.6305;stroke-linecap:square;stroke-miterlimit:4;stroke-dasharray:none;stroke-opacity:1;stop-color:#000" id="rect1013" width="19.623" height="8.325" x="-623.558" y="710.846" rx="4.162" ry="4.162" transform="rotate(-48)"/></g><style id="style853" type="text/css"/></svg>