<svg xmlns="http://www.w3.org/2000/svg" xmlns:svg="http://www.w3.org/2000/svg" id="svg12" width="192" height="192" version="1.1" viewBox="0 0 14.804 14.804"><metadata id="metadata18"/><g id="g940" transform="translate(-88.976171,88.976168)"><rect id="rect835" width="11.874" height="11.874" x="90.441" y="-87.511" rx=".776" style="fill:#f9de82;fill-opacity:1;fill-rule:evenodd;stroke:none;stroke-width:.07710242;stroke-opacity:1"/><g style="stroke-width:.90928626" id="g896" transform="matrix(1.0997637,0,0,1.0997637,-9.6150256,-187.56737)"><path style="clip-rule:evenodd;fill:#fff;fill-opacity:1;fill-rule:evenodd;stroke-width:.9092862" id="path6" d="m 95.480674,94.542882 c 0.325526,0 0.631777,0.08572 0.897203,0.235376 a 1.8490002,1.8490002 0 0 0 -0.55276,0.477694 1.1661009,1.1661009 0 0 0 -0.344443,-0.05172 c -0.646504,0 -1.173883,0.527259 -1.173883,1.174002 0,0.646264 0.527259,1.173644 1.173883,1.173644 0.119723,0 0.235495,-0.01796 0.344443,-0.05148 a 1.8561835,1.8561835 0 0 0 0.55276,0.477454 1.8218231,1.8218231 0 0 1 -0.897203,0.235256 c -1.010581,0 -1.835113,-0.824292 -1.835113,-1.834873 0,-1.01094 0.824532,-1.835352 1.835113,-1.835353 z m 1.450442,0.71295 a 1.8255345,1.8255345 0 0 1 0.38467,1.122283 c 0,0.421783 -0.143787,0.811361 -0.384909,1.122162 a 1.180707,1.180707 0 0 1 -0.553,-0.36707 1.1670586,1.1670586 0 0 0 0.27668,-0.755092 c 0,-0.287335 -0.10404,-0.551085 -0.27668,-0.755452 a 1.1815451,1.1815451 0 0 1 0.553239,-0.366831 z"/><path style="clip-rule:evenodd;fill:#738dbe;fill-opacity:1;fill-rule:evenodd;stroke-width:.9092862" id="path8" d="m 97.275323,94.542886 a 1.8234992,1.8234992 0 0 0 -0.897438,0.235371 1.8554652,1.8554652 0 0 1 0.553225,0.4777 c 0.108948,-0.03364 0.22449,-0.05173 0.344213,-0.05173 0.646624,0 1.173877,0.52738 1.173877,1.174004 0,0.646384 -0.527373,1.173643 -1.173877,1.173643 -0.119723,0 -0.235265,-0.01807 -0.344213,-0.05147 a 1.8597752,1.8597752 0 0 1 -0.553225,0.477448 1.8233795,1.8233795 0 0 0 0.897438,0.235262 c 1.010581,0 1.835114,-0.824299 1.835114,-1.83488 0,-1.01094 -0.824533,-1.835349 -1.835114,-1.835348 z m -1.450211,0.712944 c -0.241122,0.310562 -0.384904,0.700016 -0.384904,1.122278 a 1.8255345,1.8255345 0 0 0 0.384904,1.12217 1.1767562,1.1767562 0 0 0 0.552773,-0.367073 c -0.172401,-0.204367 -0.27644,-0.468001 -0.27644,-0.755097 a 1.1688544,1.1688544 0 0 1 0.27644,-0.755438 1.1780732,1.1780732 0 0 0 -0.552773,-0.36684 z"/></g></g></svg>