<svg xmlns="http://www.w3.org/2000/svg" xmlns:svg="http://www.w3.org/2000/svg" id="svg2" width="192" height="192" version="1.1" viewBox="0 0 192 192"><metadata id="metadata7"/><g id="layer1" transform="translate(0,-860.36216)"><rect id="rect1026" width="152" height="152" x="20" y="880.362" rx="9.935" style="fill:#8c72bd;fill-opacity:1;fill-rule:evenodd;stroke:none;stroke-width:.993464;stroke-opacity:1"/><path style="fill:#fff;fill-opacity:1;stroke-width:.794144;stroke-linecap:square;stroke-linejoin:round;stop-color:#000" id="path956" d="m 101.58517,916.49081 c -12.39199,0 -22.64188,8.84025 -24.81663,20.58374 H 71.6873 c -10.07582,0 -18.1873,8.11168 -18.1873,18.1875 0,10.07582 8.11148,18.18729 18.1873,18.18729 h 48.6252 c 10.07582,0 18.1875,-8.11147 18.1875,-18.18729 0,-0.0973 -0.002,-0.1942 -0.004,-0.29114 0.002,-0.0969 0.004,-0.19383 0.004,-0.29114 0,-7.90624 -4.99489,-14.60221 -12.01373,-17.11963 -1.97857,-11.98448 -12.33893,-21.06933 -24.9011,-21.06933 z"/><circle id="circle958" cx="126.622" cy="964.019" r="2.479" style="fill:#ff837d;fill-opacity:1;stroke-width:1.05022;stroke-linecap:square;stroke-linejoin:round;stop-color:#000"/><rect id="rect960" width="56.228" height="22.468" x="67.261" y="944.065" rx="11.234" ry="11.234" style="fill:#56595b;fill-opacity:1;stroke-width:.973185;stroke-linecap:square;stroke-linejoin:round;stop-color:#000"/><path style="fill:#fff;fill-opacity:1;stroke-width:.941302;stroke-linecap:square;stroke-linejoin:round;stop-color:#000" id="path962" d="m 96.706,948.82437 c -0.29885,10e-6 -0.58489,0.12132 -0.7926,0.33616 l -10.15391,10.50186 c -0.24287,0.25101 -0.065,0.67062 0.28428,0.67061 h 5.53038 c 0.59436,2e-5 1.16151,-0.24914 1.56354,-0.6869 l 3.41981,-3.7239 c 0.0799,-0.087 0.2171,-0.087 0.29699,0 l 3.4198,3.7239 c 0.40203,0.43776 0.96918,0.68692 1.56354,0.6869 h 5.53038 c 0.34927,10e-6 0.52715,-0.4196 0.28429,-0.67061 L 97.49859,949.16053 c -0.20772,-0.21484 -0.49376,-0.33615 -0.79259,-0.33616 z"/><path style="fill:#f9de81;fill-opacity:1;stroke-width:2.67586;stroke-linecap:round;stroke-linejoin:round;stroke-miterlimit:4;stroke-dasharray:none;stop-color:#000" id="path964" d="m 89.47331,978.96612 -4.12227,5.84704 a 1.6314375,1.6314375 0 0 0 1.33337,2.57149 h 5.93199 l -4.56972,6.53513 a 1.4708509,1.4708509 0 0 0 1.99895,2.08129 l 15.16384,-9.71683 a 1.382293,1.382293 0 0 0 -0.74578,-2.54614 h -6.26244 l 2.7386,-3.54183 a 1.5311372,1.5311372 0 0 0 -1.21128,-2.46772 h -7.86854 a 2.9202645,2.9202645 0 0 0 -2.38672,1.23757 z"/></g><style id="style853" type="text/css"/></svg>