<svg xmlns="http://www.w3.org/2000/svg" xmlns:svg="http://www.w3.org/2000/svg" id="svg2" width="192" height="192" version="1.1" viewBox="0 0 192 192"><metadata id="metadata7"/><g id="layer1" transform="translate(0,-860.36216)"><circle id="circle923" cx="96" cy="956.362" r="88" style="fill:#708cbd;fill-opacity:1;fill-rule:evenodd;stroke:none;stroke-opacity:1"/><path id="path952" d="m 75.011924,977.87412 c 8.311436,0 15.505368,-4.67955 19.067412,-11.52426 l -7.962216,-4.12079 c -2.025476,3.9811 -6.146272,6.63517 -11.105196,6.63517 -7.054244,0 -12.432232,-5.44783 -12.432232,-12.50207 0,-7.05424 5.377988,-12.50208 12.432232,-12.50208 4.958924,0 9.07972,2.65408 11.105196,6.63518 l 7.962216,-4.12079 c -3.562044,-6.84471 -10.755976,-11.52426 -19.067412,-11.52426 -11.87348,0 -21.511951,9.63847 -21.511951,21.51195 0,11.87348 9.638471,21.51195 21.511951,21.51195 z" style="font-style:normal;font-variant:normal;font-weight:700;font-stretch:normal;font-size:55.8752px;line-height:1.25;font-family:Now;-inkscape-font-specification:'Now Bold';letter-spacing:0;word-spacing:0;fill:#f8c18c;fill-opacity:1;stroke-width:1.39688"/><path id="path954" d="m 126.20749,977.31537 h 12.29254 l -20.18492,-23.25805 18.0896,-18.64835 h -11.87348 l -13.68942,14.80693 h -1.60642 v -14.80693 h -9.2194 v 41.9064 h 9.2194 v -19.13726 h 1.32704 z" style="font-style:normal;font-variant:normal;font-weight:700;font-stretch:normal;font-size:55.8752px;line-height:1.25;font-family:Now;-inkscape-font-specification:'Now Bold';letter-spacing:0;word-spacing:0;fill:#fff;fill-opacity:1;stroke-width:1.39688"/></g><style id="style853" type="text/css"/><style id="style853-9" type="text/css"/><style id="style853-3" type="text/css"/><style id="style853-5" type="text/css"/></svg>