<svg xmlns="http://www.w3.org/2000/svg" xmlns:xlink="http://www.w3.org/1999/xlink" width="100%" height="100%" version="1.1" viewBox="0 0 192 192" xml:space="preserve" style="fill-rule:evenodd;clip-rule:evenodd;stroke-linejoin:round;stroke-miterlimit:2"><g id="Layer1"><g><path d="M164.5,21.5C164.5,15.981 160.019,11.5 154.5,11.5L21.5,11.5C15.981,11.5 11.5,15.981 11.5,21.5L11.5,154.5C11.5,160.019 15.981,164.5 21.5,164.5L154.5,164.5C160.019,164.5 164.5,160.019 164.5,154.5L164.5,21.5Z" transform="matrix(1,0,0,1,8,8)" style="fill:#fff"/></g><path d="M172.5,141.203L172.5,162.5C172.5,165.226 171.407,167.7 169.635,169.504L169.504,169.635C167.7,171.407 165.226,172.5 162.5,172.5L141.203,172.5L172.5,141.203Z" style="fill:#96dfd3"/><path d="M172.5,90.333L172.5,115.768L115.768,172.5L90.333,172.5L172.5,90.333Z" style="fill:#728dbe"/><path d="M172.5,141.203L141.203,172.5L115.768,172.5L172.5,115.768L172.5,141.203Z" style="fill:#9abeff"/><g><text x="29.5" y="108.243" transform="matrix(1.0792,0,0,1,-2.74366,0)" style="font-family:'CascadiaMono-Regular','Cascadia Mono',monospace;font-size:57.225px;fill:#9abeff">E<tspan x="64.461 99.422" y="108.243 108.243">DU</tspan></text></g><g><text x="150.334" y="87.936" transform="matrix(1,0,0,1,-7.51339,-3.79393)" style="font-family:'CascadiaMono-Regular','Cascadia Mono',monospace;font-size:48px;fill:#9abeff">+</text></g></g></svg>