<svg xmlns="http://www.w3.org/2000/svg" xmlns:svg="http://www.w3.org/2000/svg" id="svg2" width="192" height="192" version="1.1" viewBox="0 0 192 192"><metadata id="metadata7"/><g id="layer1" transform="translate(0,-860.36216)"><circle id="circle1155" cx="96" cy="956.362" r="88" style="fill:#72aca3;fill-opacity:1;fill-rule:evenodd;stroke:none;stroke-width:1;stroke-opacity:1"/><g style="fill:#fefefe;fill-opacity:1" id="g1163" transform="matrix(1.838849,0,0,1.838849,-80.52955,-800.15491)"><circle id="circle1157" cx="96" cy="960.048" r="23.948" style="fill:#fefefe;fill-opacity:1;stroke:#fff;stroke-width:0;stroke-linecap:round;stroke-linejoin:round;stroke-opacity:.5;stop-color:#000"/><path style="fill:#fefefe;fill-opacity:1;stroke:none;stroke-width:.30301;stop-color:#000" id="path1159" d="m 73.803332,931.20333 c 6.957863,4.10923 13.915726,8.21847 20.87359,12.3277 -7.117475,4.74418 -14.234951,9.48835 -21.352426,14.23252 -1.119643,-8.07613 -2.264059,-16.14948 -3.368212,-24.22736 -0.158546,-1.70499 1.696986,-3.14659 3.309884,-2.57151 0.187447,0.0585 0.368098,0.13878 0.537164,0.23865 z"/><path style="fill:#fefefe;fill-opacity:1;stroke:none;stroke-width:.30301;stop-color:#000" id="path1161" d="m 118.19667,931.20333 c -6.95787,4.10923 -13.91573,8.21847 -20.873598,12.3277 7.117478,4.74418 14.234948,9.48835 21.352428,14.23252 1.11964,-8.07613 2.26406,-16.14948 3.36822,-24.22736 0.15854,-1.70499 -1.697,-3.14659 -3.30989,-2.57151 -0.18745,0.0585 -0.3681,0.13878 -0.53716,0.23865 z"/></g><path style="fill:none;fill-opacity:1;fill-rule:evenodd;stroke:#fefefe;stroke-width:9.6183;stroke-linecap:round;stroke-linejoin:round;stroke-miterlimit:4;stroke-dasharray:none;stroke-opacity:1" id="path1165" d="M 57.9046,889.94754 H 38.267 c -4.80955,0 -8.6816,3.87195 -8.6816,8.68155 v 17.05"/><path style="fill:none;fill-opacity:1;fill-rule:evenodd;stroke:#fefefe;stroke-width:9.6183;stroke-linecap:round;stroke-linejoin:round;stroke-miterlimit:4;stroke-dasharray:none;stroke-opacity:1;paint-order:normal" id="path1167" d="m 134.0953,889.94754 h 19.6376 c 4.80955,0 8.6816,3.87195 8.6816,8.68155 v 17.05"/><path style="fill:none;fill-opacity:1;fill-rule:evenodd;stroke:#fefefe;stroke-width:9.6183;stroke-linecap:round;stroke-linejoin:round;stroke-miterlimit:4;stroke-dasharray:none;stroke-opacity:1" id="path1170" d="M 57.9046,1022.7766 H 38.267 c -4.80955,0 -8.6816,-3.8717 -8.6816,-8.6816 v -17.04991"/><path id="path1172" d="m 134.0953,1022.7766 h 19.6376 c 4.80955,0 8.6816,-3.8717 8.6816,-8.6816 v -17.04991" style="fill:none;fill-opacity:1;fill-rule:evenodd;stroke:#fefefe;stroke-width:9.6183;stroke-linecap:round;stroke-linejoin:round;stroke-miterlimit:4;stroke-dasharray:none;stroke-opacity:1"/></g><style id="style853" type="text/css"/></svg>