<svg xmlns="http://www.w3.org/2000/svg" xmlns:svg="http://www.w3.org/2000/svg" xmlns:xlink="http://www.w3.org/1999/xlink" id="svg2" width="192" height="192" version="1.1" viewBox="0 0 192 192"><defs id="defs4"><linearGradient id="linearGradient1257"><stop id="stop1253" offset="0" style="stop-color:#97db99;stop-opacity:1"/><stop id="stop1259" offset=".5" style="stop-color:#95ded2;stop-opacity:1"/><stop id="stop1255" offset="1" style="stop-color:#99bdfe;stop-opacity:1"/></linearGradient><linearGradient id="linearGradient1231" x1="96" x2="96" y1="879.862" y2="1032.862" gradientTransform="matrix(0.99346405,0,0,0.99346405,0.62748882,6.2506599)" gradientUnits="userSpaceOnUse" xlink:href="#linearGradient1257"/></defs><metadata id="metadata7"/><g id="layer1" transform="translate(0,-860.36216)"><rect id="rect1213" width="152" height="152" x="20" y="880.362" rx="9.935" style="fill:url(#linearGradient1231);fill-opacity:1;fill-rule:evenodd;stroke:none;stroke-width:.993464;stroke-opacity:1"/><g id="g1221" transform="matrix(0.88693863,0,0,0.88693863,10.853932,108.24676)"><circle id="circle1215" cx="96" cy="960.048" r="23.948" style="fill:#fefefe;fill-opacity:1;stroke:#fff;stroke-width:0;stroke-linecap:round;stroke-linejoin:round;stroke-opacity:.5;stop-color:#000"/><path style="fill:#fefefe;fill-opacity:1;stroke:none;stroke-width:.30301;stop-color:#000" id="path1217" d="m 73.803332,931.20333 c 6.957863,4.10923 13.915726,8.21847 20.87359,12.3277 -7.117475,4.74418 -14.234951,9.48835 -21.352426,14.23252 -1.119643,-8.07613 -2.264059,-16.14948 -3.368212,-24.22736 -0.158546,-1.70499 1.696986,-3.14659 3.309884,-2.57151 0.187447,0.0585 0.368098,0.13878 0.537164,0.23865 z"/><path style="fill:#fefefe;fill-opacity:1;stroke:none;stroke-width:.30301;stop-color:#000" id="path1219" d="m 118.19667,931.20333 c -6.95787,4.10923 -13.91573,8.21847 -20.873598,12.3277 7.117478,4.74418 14.234948,9.48835 21.352428,14.23252 1.11964,-8.07613 2.26406,-16.14948 3.36822,-24.22736 0.15854,-1.70499 -1.697,-3.14659 -3.30989,-2.57151 -0.18745,0.0585 -0.3681,0.13878 -0.53716,0.23865 z"/></g><path style="fill:none;fill-opacity:1;fill-rule:evenodd;stroke:#fefefe;stroke-width:6.67558;stroke-linecap:round;stroke-linejoin:round;stroke-miterlimit:4;stroke-dasharray:none;stroke-opacity:1" id="path1223" d="m 76.97824,923.1999 h -9.8055 c -2.4015,0 -4.3349,1.93336 -4.3349,4.33489 v 8.51343"/><path style="fill:none;fill-opacity:1;fill-rule:evenodd;stroke:#fefefe;stroke-width:6.67558;stroke-linecap:round;stroke-linejoin:round;stroke-miterlimit:4;stroke-dasharray:none;stroke-opacity:1" id="path1225" d="m 115.02184,923.1999 h 9.8055 c 2.4015,0 4.3349,1.93336 4.3349,4.33489 v 8.51343"/><path style="fill:none;fill-opacity:1;fill-rule:evenodd;stroke:#fefefe;stroke-width:6.67558;stroke-linecap:round;stroke-linejoin:round;stroke-miterlimit:4;stroke-dasharray:none;stroke-opacity:1" id="path1227" d="m 76.97824,989.5243 h -9.8055 c -2.4015,0 -4.3349,-1.9333 -4.3349,-4.3349 v -8.5134"/><path id="path1229" d="m 115.02184,989.5243 h 9.8055 c 2.4015,0 4.3349,-1.9333 4.3349,-4.3349 v -8.5134" style="fill:none;fill-opacity:1;fill-rule:evenodd;stroke:#fefefe;stroke-width:6.67558;stroke-linecap:round;stroke-linejoin:round;stroke-miterlimit:4;stroke-dasharray:none;stroke-opacity:1"/></g><style id="style853" type="text/css"/></svg>