<svg xmlns="http://www.w3.org/2000/svg" xmlns:xlink="http://www.w3.org/1999/xlink" id="Слой_1" x="0" y="0" enable-background="new 0 0 192 192" version="1.1" viewBox="0 0 192 192" xml:space="preserve"><line x1=".2" x2=".2" y1="192.3" y2=".3" fill="#87BEFF"/><image width="241" height="241" overflow="visible" transform="matrix(1 0 0 1 -274.3333 -179)" xlink:href="30E0AF75.jpg"/><g><path fill="#88BFFF" d="M147.2,7.9C113.1,7.8,79,7.8,44.9,7.9C36,8,32.1,12.4,32.1,21.3c0,49.4,0.2,98.8-0.2,148.2 c-0.1,11.5,5.6,15.4,15.4,15.3c19.7-0.2,39.4,0,59.2-0.1c1.9,0,3.9,0.7,5.6-0.9c0-11.2,0-22.4,0-33.5c0-9.6,4.7-14.2,14.5-14.3 c10.8-0.1,21.6-0.1,32.5-0.1c0,0,0,0,0,0c0.3,0.1,0.6,0.1,0.9,0.2c0-0.5,0.1-0.9,0.1-1.4c0-37.8,0.1-75.7,0.1-113.5 C160.1,12.4,156.1,8,147.2,7.9z M64.1,40.1c21.3,0,42.6,0,63.9,0c0,2.7,0,5.5,0.1,8.2c-21.3,0-42.7,0-64,0 C64.1,45.5,64.1,42.8,64.1,40.1z M64.1,96.3c0-2.7,0-5.5,0.1-8.2c16,0,31.9,0,47.9,0c0,2.7,0,5.4,0.1,8.2 C96.1,96.3,80.1,96.3,64.1,96.3z M120,80.4c-15.9,0-31.9,0-47.8,0c-8.5,0-8.5,0-8-8.4c21.3,0,42.6,0,63.9,0 C128.5,80.4,128.5,80.4,120,80.4z M127.9,64.6C127.9,64.6,127.9,64.6,127.9,64.6c-21.2,0-42.4,0-63.6,0c-0.7-2.8-0.4-5.7-0.1-8.6 c21.3,0,42.6,0,63.9,0C128.3,58.8,128.6,61.7,127.9,64.6z"/><rect width="63.9" height="8.2" x="64" y="40" fill="#FFF"/><rect width="63.9" height="8.2" x="64" y="72.1" fill="#FFF"/><rect width="63.9" height="8.2" x="64.1" y="56.3" fill="#FFF"/><rect width="48" height="8.2" x="64" y="87.6" fill="#FFF"/><path fill="#65E1D4" d="M112.1,183.8c0-11.2,0-22.4,0-33.5c0-9.6,4.7-14.2,14.5-14.3c10.8-0.1,21.6-0.1,32.5-0.1 c0.3,0.1,0.6,0,0.9,0c-12.8,14.1-26.8,27.2-40.1,40.8C117.3,179.2,115.3,182.1,112.1,183.8z"/></g></svg>