<svg xmlns="http://www.w3.org/2000/svg" xmlns:svg="http://www.w3.org/2000/svg" id="Layer_1" x="0" y="0" version="1.1" viewBox="0 0 192 192" xml:space="preserve" style="enable-background:new 0 0 192 192"><metadata id="metadata21"/><style id="style2" type="text/css">.st1{fill:#fff}</style><rect style="fill:#9abefe;fill-opacity:1;fill-rule:evenodd;stroke:none" id="rect846" width="153" height="153" x="19.5" y="19.5" rx="10"/><g id="g14" transform="matrix(0.51489937,0,0,0.51489937,46.576334,46.576364)"><path id="path6" d="m 147,62.4 c -7.9,-22.7 -31.2,-39.8 -59.1,-37 -9,0.9 -17.3,3.8 -24.8,8.7 -7.6,4.9 -17,15.1 -17.7,19 22.4,-17.8 51.2,-15.1 69.2,-1.9 9.4,6.9 16.2,15.7 20.1,26.6 5,14.3 4,28.4 -2.2,42.3 C 146.7,108 154.7,84.9 147,62.4 Z" class="st1"/><path id="path8" d="m 25.4,92.5 c -2.1,19.6 10,44.7 24.8,51 C 42.8,132.8 39.2,121.2 39.9,108.4 40.6,95.6 45.4,84.3 54,74.7 61.8,66 71.4,60.2 82.8,57.5 97.4,54 111.4,56.1 124.7,63.2 115.6,50.5 94.6,38.9 70.4,43.6 46,48.3 28,67.9 25.4,92.5 Z" class="st1"/><path id="path10" d="m 101.2,166.8 c 23.9,-1.3 40.7,-17.1 45.9,-28.7 -21.7,15.7 -44.8,18.7 -67.6,3.5 -25.2,-16.7 -30.7,-40.8 -21,-68.8 -12.9,11.2 -21,33.6 -13.9,55.5 7.7,24 31.2,39.8 56.6,38.5 z" class="st1"/><path id="path12" d="m 166.8,95 c 0.5,-23.8 -14.9,-41.6 -25.7,-47.2 7.8,11.1 11.5,23.1 10.7,36.3 -0.9,13.3 -6.1,24.8 -15.2,34.5 C 123,133 95.8,143.9 67.4,129 c 12.4,15.7 36.1,24.8 59.5,17.9 23.2,-6.9 39.4,-28.3 39.9,-51.9 z" class="st1"/></g></svg>