<svg xmlns="http://www.w3.org/2000/svg" xmlns:svg="http://www.w3.org/2000/svg" id="svg2" width="192" height="192" version="1.1" viewBox="0 0 192 192"><metadata id="metadata7"/><g id="layer1" transform="translate(0,-860.36216)"><circle id="circle3115" cx="96" cy="956.362" r="88" style="fill:#545859;fill-opacity:1;fill-rule:evenodd;stroke:none;stroke-opacity:1"/><path style="opacity:1;fill:#fff;fill-opacity:1;stroke:none;stroke-width:.890938;stroke-linecap:round;stroke-linejoin:round;stop-color:#000" id="path3117" d="m 95.891265,919.86234 a 36.621229,36.621229 0 0 0 -36.391727,36.62147 36.621229,36.621229 0 0 0 32.419201,36.37835 v -16.66408 a 20.158335,20.158335 0 0 1 -15.955882,-19.71427 20.158335,20.158335 0 0 1 20.158147,-20.15926 20.158335,20.158335 0 0 1 19.715386,15.957 h 16.66407 a 36.621229,36.621229 0 0 0 -36.379456,-32.41921 36.621229,36.621229 0 0 0 -0.229739,0 z m 19.945125,40.82261 a 20.158335,20.158335 0 0 1 -15.51312,15.51425 v 16.66296 a 36.621229,36.621229 0 0 0 32.17719,-32.17721 z"/></g><style id="style853" type="text/css"/></svg>