<svg xmlns="http://www.w3.org/2000/svg" xmlns:svg="http://www.w3.org/2000/svg" id="svg2" width="192" height="192" version="1.1" viewBox="0 0 192 192"><metadata id="metadata7"/><g id="layer1" transform="translate(0,-860.36216)"><g id="g4225" transform="matrix(0.95371829,0,0,0.95371829,212.73612,39.09366)"><path style="opacity:1;fill:#98db9a;fill-opacity:1;fill-rule:evenodd;stroke:none;stroke-width:1px;stroke-linecap:butt;stroke-linejoin:miter;stroke-opacity:1" id="rect4195" d="m -190.69403,889.06113 c -7.47537,0 -13.49218,5.2582 -13.49218,11.7891 v 102.40247 c 0,6.5308 6.01681,11.789 13.49218,11.789 h 32.79883 v 14.8047 a 2.6313702,4.6563004 0 0 0 3.94531,4.0332 l 18.43946,-18.8379 h 81.400393 c 7.47538,0 13.49414,-5.2582 13.49414,-11.789 V 900.85023 c 0,-6.5309 -6.01876,-11.7891 -13.49414,-11.7891 z"/><circle id="circle4215" cx="-142.131" cy="933.377" r="9.711" style="opacity:1;fill:#738dbe;fill-opacity:1;stroke:none;stroke-width:5;stroke-linecap:round;stroke-linejoin:round;stroke-miterlimit:4;stroke-dasharray:none;stroke-opacity:1"/><circle style="opacity:1;fill:#738dbe;fill-opacity:1;stroke:none;stroke-width:5;stroke-linecap:round;stroke-linejoin:round;stroke-miterlimit:4;stroke-dasharray:none;stroke-opacity:1" id="circle4217" cx="-102.629" cy="933.377" r="9.711"/><path id="path4219" d="m -155.56358,963.01531 c 19.18752,17.59998 45.49679,18.17306 66.781947,0" style="opacity:1;fill:none;fill-rule:evenodd;stroke:#738dbe;stroke-width:12.7852;stroke-linecap:round;stroke-linejoin:round;stroke-miterlimit:4;stroke-dasharray:none;stroke-opacity:1"/></g></g></svg>