<svg xmlns="http://www.w3.org/2000/svg" xmlns:svg="http://www.w3.org/2000/svg" id="svg2" width="192" height="192" version="1.1" viewBox="0 0 192 192"><metadata id="metadata7"/><g id="layer1" transform="translate(0,-860.36216)"><g id="g2429" transform="matrix(0.85,0,0,0.85,14.4,143.45431)"><rect id="rect2228" width="180" height="180" x="6" y="866.362" rx="11.765" style="fill:#f7c08b;fill-opacity:1;fill-rule:evenodd;stroke:none;stroke-width:1.17647;stroke-opacity:1"/><path style="fill:#fefefe;fill-opacity:1;fill-rule:evenodd;stroke-width:3.73043" id="path2280" d="m 162.7011,866.36215 -37.4492,37.82032 c -8.5966,-6.9566 -28.6344,-20.58564 -53.5449,-14.83594 -8.8943,2.3459 -17.8317,7.71447 -22.3399,16.16797 -7.3919,12.4325 -8.6274,28.47175 -16.3925,35.68945 -3.6733,3.38154 -15.3031,5.89637 -26.9746,8.46289 v 10.16602 c 12.4096,-2.53539 26.8457,-5.80187 33.1308,-10.55664 13.0137,-10.136 12.8451,-38.49096 30.7559,-48.44336 21.9338,-11.9269 40.6058,2.41882 49.3828,9.29492 l -31.793,32.02734 c -2.2036,2.1618 3.1289,6.8272 4.9473,4.7168 2.2357,-2.3318 42.0285,-42.34401 79.8945,-80.50977 z m 21.7696,5.96094 -83.2442,85.45898 c -1.8398,2.04761 4.3524,6.70601 5.7735,5.50391 1.3636,-1.5853 31.7983,-33.21786 31.9277,-33.16015 32.3737,34.6347 -0.4533,64.75692 -16.543,69.86132 -11.4401,3.57395 -19.2014,9.52225 -21.2285,22.26565 -1.4372,8.9439 -2.7133,16.9339 -4.1816,24.1094 h 11.4668 c 3.5468,-15.9591 4.8089,-29.37 10.7207,-32.7598 15.0156,-8.6583 31.569,-10.8601 41.1152,-33.21876 6.4236,-14.6995 2.4379,-39.41536 -13.9277,-56.72266 -0.072,-0.0289 18.6408,-19.66128 39.6504,-41.68164 v -3.85156 c 0,-2.1155 -0.5597,-4.09288 -1.5293,-5.80469 z M 70.8476,954.42075 c -0.9031,-0.005 -1.8159,0.0361 -2.7363,0.125 -2.7055,0.1996 -5.2837,0.81203 -7.6777,1.77343 -10.3743,4.1661 -17.3016,14.87485 -16.1465,26.83985 1.0633,14.427 13.8902,25.23707 28.6172,23.81447 14.4281,-1.0636 25.2402,-13.88535 23.8183,-28.61135 -0.9968,-13.52568 -12.3279,-23.87297 -25.875,-23.9414 z m 1.9805,6.47461 c 7.3352,0.34743 13.9682,4.93387 16.5137,12.00195 3.5665,9.9035 -1.4513,20.55625 -11.3555,24.12305 -9.4248,3.39414 -20.08,-1.61398 -23.6465,-11.51758 -3.3939,-9.4241 1.6201,-20.08246 11.0449,-23.47656 2.4761,-0.89168 4.9983,-1.24668 7.4434,-1.13086 z"/></g></g><style id="style853" type="text/css"/></svg>