<svg xmlns="http://www.w3.org/2000/svg" xmlns:svg="http://www.w3.org/2000/svg" id="svg2" width="192" height="192" version="1.1" viewBox="0 0 192 192"><metadata id="metadata7"/><g id="layer1" transform="translate(0,-860.36216)"><path style="fill:#fff;fill-opacity:1;stroke-width:29.9868;stroke-linejoin:round;stop-color:#000" id="path996" d="M 24.539062 29.015625 A 5.0383944 5.0383944 0 0 0 20.46875 37.023438 L 57.654297 87.992188 A 13.586732 13.586732 0 0 1 60.265625 96 L 172.5 96 A 13.586732 13.586732 0 0 0 169.88867 87.992188 L 132.70312 37.023438 A 19.503298 19.503298 0 0 0 116.94727 29.015625 L 24.539062 29.015625 z" transform="translate(0,860.36216)"/><path style="fill:#ff837d;fill-opacity:1;stroke-width:29.9868;stroke-linejoin:round;stop-color:#000" id="path1039" d="m 24.539062,1023.3465 a 5.0383944,5.0383944 0 0 1 -4.070312,-8.0078 l 37.185547,-50.96872 a 13.586732,13.586732 0 0 0 2.611328,-8.00782 H 172.5 a 13.586732,13.586732 0 0 1 -2.61133,8.00782 l -37.18555,50.96872 a 19.503298,19.503298 0 0 1 -15.75585,8.0078 z"/></g><style id="style853" type="text/css"/></svg>