<svg xmlns="http://www.w3.org/2000/svg" xmlns:svg="http://www.w3.org/2000/svg" xmlns:xlink="http://www.w3.org/1999/xlink" id="svg2" width="192" height="192" version="1.1" viewBox="0 0 192 192"><defs id="defs4"><linearGradient id="linearGradient1357"><stop id="stop1353" offset="0" style="stop-color:#fff;stop-opacity:0"/><stop id="stop1355" offset="1" style="stop-color:#fff;stop-opacity:.9917466"/></linearGradient><linearGradient id="linearGradient1317-5"><stop id="stop1313" offset="0" style="stop-color:#f7c08b;stop-opacity:1"/><stop id="stop1315" offset="1" style="stop-color:#f48f8a;stop-opacity:1"/></linearGradient><linearGradient id="linearGradient1412" x1="593.083" x2="510.273" y1="934.54" y2="851.729" gradientTransform="translate(-456.55527,65.076882)" gradientUnits="userSpaceOnUse" xlink:href="#linearGradient1317-5"/><radialGradient id="radialGradient1414" cx="96" cy="956.362" r="26.219" fx="96" fy="956.362" gradientTransform="matrix(1.1205162,1.1205162,-1.1737964,1.1737964,1567.5601,-1199.2213)" gradientUnits="userSpaceOnUse" xlink:href="#linearGradient1357"/></defs><metadata id="metadata7"/><g id="layer1" transform="translate(0,-860.36216)"><rect id="rect1402" width="153" height="153" x="19.5" y="879.862" rx="10" style="fill:url(#linearGradient1412);fill-opacity:1;fill-rule:evenodd;stroke:none;stroke-opacity:1"/><g id="g1408" transform="matrix(1,0,0,1.0000124,-456.55527,65.066244)"><path style="fill:url(#radialGradient1414);fill-opacity:1;stroke:none;stroke-width:.634631px;stroke-linecap:butt;stroke-linejoin:miter;stroke-opacity:1" id="path1404" d="m 531.16211,4.4667969 c -1.55887,0.00781 -2.83665,0.13312 -3.65625,0.2441406 -0.55157,0.0747 -1.08736,0.6120525 -1.16211,1.1640625 -0.59211,4.37253 -1.62039,21.812878 17.24023,25.048828 -18.86175,3.23613 -17.83234,20.677628 -17.24023,25.048828 0.0747,0.55156 0.6101,1.08736 1.16211,1.16211 4.37254,0.59211 21.81289,1.620365 25.04883,-17.240235 3.23614,18.86176 20.67957,17.832315 25.05078,17.240235 0.55156,-0.0747 1.08736,-0.61009 1.16211,-1.16211 0.59207,-4.37255 1.62034,-21.812908 -17.24024,-25.048828 18.86176,-3.23614 17.83232,-20.679581 17.24024,-25.0507811 -0.0747,-0.55157 -0.61204,-1.0873494 -1.16406,-1.1621094 C 573.23099,4.1188275 555.79064,3.0905219 552.55469,21.951172 549.92532,6.6259838 537.91721,4.4329415 531.16211,4.4667969 Z m 21.39258,22.1914061 a 4.2648959,4.2648964 0 0 1 4.26562,4.265625 4.2648959,4.2648964 0 0 1 -4.26562,4.263672 4.2648959,4.2648964 0 0 1 -4.26367,-4.263672 4.2648959,4.2648964 0 0 1 4.26367,-4.265625 z" transform="translate(0,860.36216)"/><path style="fill:#fefefe;fill-opacity:1;stroke:none;stroke-width:.634631px;stroke-linecap:butt;stroke-linejoin:miter;stroke-opacity:1" id="path1406" d="m 552.55469,-5.5761719 c -0.30008,8.75e-5 -0.60067,0.083218 -0.82227,0.2519531 -3.51052,2.67319 -16.56979,14.2777138 -5.52148,29.9023438 -15.62558,-11.04898 -27.23013,2.013838 -29.90235,5.523437 -0.33719,0.442841 -0.33748,1.199379 0,1.642579 2.67316,3.51053 14.27772,16.571747 29.90235,5.523437 -11.04897,15.62557 2.01384,27.230124 5.52344,29.902344 0.44284,0.33719 1.19938,0.33747 1.64257,0 3.51052,-2.67317 16.57174,-14.277724 5.52344,-29.902344 15.62557,11.04898 27.2301,-2.013857 29.90234,-5.523437 0.33719,-0.44285 0.33747,-1.199389 0,-1.642579 -2.67319,-3.510509 -14.27775,-16.571737 -29.90234,-5.523437 11.04898,-15.62558 -2.01386,-27.2301038 -5.52344,-29.9023438 -0.22142,-0.1685949 -0.52218,-0.2520406 -0.82226,-0.2519531 z m 0,32.2343749 a 4.2648959,4.2648964 0 0 1 4.26562,4.265625 4.2648959,4.2648964 0 0 1 -4.26562,4.263672 4.2648959,4.2648964 0 0 1 -4.26367,-4.263672 4.2648959,4.2648964 0 0 1 4.26367,-4.265625 z" transform="translate(0,860.36216)"/></g></g><style id="style853" type="text/css"/></svg>