<svg xmlns="http://www.w3.org/2000/svg" xmlns:xlink="http://www.w3.org/1999/xlink" width="100%" height="100%" version="1.1" viewBox="0 0 192 192" xml:space="preserve" style="fill-rule:evenodd;clip-rule:evenodd;stroke-linejoin:round;stroke-miterlimit:2"><g id="Layer1"><g><path d="M164.5,21.5C164.5,15.981 160.019,11.5 154.5,11.5L21.5,11.5C15.981,11.5 11.5,15.981 11.5,21.5L11.5,154.5C11.5,160.019 15.981,164.5 21.5,164.5L154.5,164.5C160.019,164.5 164.5,160.019 164.5,154.5L164.5,21.5Z" transform="matrix(1,0,0,1,8,8)" style="fill:#f9de81"/></g><g><path d="M95.636,147.651C64.744,137.723 56.488,113.596 55.47,103.903C54.448,94.172 61.159,83.15 61.308,75.206C61.457,67.262 55.47,52.697 55.47,52.697L136.53,52.697C136.53,52.697 130.543,67.262 130.692,75.206C130.841,83.15 137.552,94.172 136.53,103.903C135.508,113.634 127.192,137.912 96,147.767L95.636,147.651Z" transform="matrix(0.986286,-0.165048,0.165048,0.986286,-15.6957,16.3319)" style="fill:#fff"/></g><g><text x="33.147" y="109.688" transform="matrix(0.929086,0,0,0.929086,2.46138,7.79104)" style="font-family:'Montserrat-Bold','Montserrat';font-weight:700;font-size:30px;fill:#4a4a4a">C<tspan x="54.687 80.007 97.767" y="109.688 109.688 109.688">OLO</tspan>UR</text></g><g><text x="74.728" y="85.981" transform="matrix(1,0,0,1,1.72109,0)" style="font-family:'Montserrat-Bold','Montserrat';font-weight:700;font-size:18.194px;fill:#4a4a4a">CIT<tspan x="104.639" y="85.981">A</tspan>DEL</text></g></g></svg>