<svg xmlns="http://www.w3.org/2000/svg" xmlns:svg="http://www.w3.org/2000/svg" id="svg147" width="192" height="192" version="1.1" viewBox="0 0 192 192" xml:space="preserve"><metadata id="metadata2"/><g id="g1229" transform="translate(314.50026)"><circle id="circle1161" cx="-218.5" cy="96" r="88" style="fill:#f8dd81;fill-opacity:1;stroke:none;stroke-width:.55515;stroke-miterlimit:4;stroke-dasharray:none;stroke-opacity:1"/><path style="fill:#fff;fill-opacity:1;stroke:none;stroke-width:.477328;stroke-miterlimit:4;stroke-dasharray:none;stroke-opacity:1" id="circle1163" d="M -218.85742,20.337891 A 75.663033,75.663033 0 0 0 -294.16406,96 75.663033,75.663033 0 0 0 -218.5,171.66211 75.663033,75.663033 0 0 0 -142.83789,96 75.663033,75.663033 0 0 0 -218.5,20.337891 a 75.663033,75.663033 0 0 0 -0.35742,0 z m 0.35742,6.617187 c 9.785,5e-6 19.57029,2.526502 22.11328,7.578125 5.08596,10.103088 -11.94129,43.925781 -22.11328,43.925781 -10.17194,4e-5 -27.19932,-33.822653 -22.11328,-43.925781 2.54297,-5.051603 12.32828,-7.57813 22.11328,-7.578125 z m -42.17578,19.160156 c 11.29256,0.646964 32.07036,32.306036 26.98437,41.115235 -5.08597,8.809165 -42.89108,6.641711 -49.09765,-2.814453 -6.20666,-9.456168 10.82065,-38.947786 22.11328,-38.300782 z m 84.35156,0 c 11.29261,-0.647038 28.31995,28.84456 22.11328,38.300782 -6.20655,9.45611 -44.01166,11.623652 -49.09765,2.814453 -5.08601,-8.809145 15.69179,-40.468304 26.98437,-41.115235 z m -77.44531,53.085938 c 9.36455,-0.03884 17.853,1.714338 20.07812,5.568358 5.08597,8.80916 -15.69181,40.46828 -26.98437,41.11524 -11.29261,0.64704 -28.31992,-28.84459 -22.11328,-38.30079 3.49119,-5.31909 16.97939,-8.332869 29.01953,-8.382808 z m 70.53711,0 c 12.04014,0.04994 25.5303,3.063698 29.02148,8.382808 6.20665,9.45617 -10.82061,38.94782 -22.11328,38.30079 -11.2925,-0.64697 -32.07037,-32.30604 -26.98437,-41.11524 2.2251,-3.85402 10.71161,-5.607202 20.07617,-5.568358 z M -218.5,113.54102 c 10.17195,0 27.19928,33.82265 22.11328,43.92578 -5.08595,10.1032 -39.14057,10.1032 -44.22656,0 -5.086,-10.10313 11.9413,-43.92578 22.11328,-43.92578 z"/></g></svg>