<svg xmlns="http://www.w3.org/2000/svg" xmlns:svg="http://www.w3.org/2000/svg" id="svg2" width="192" height="192" version="1.1" viewBox="0 0 192 192"><metadata id="metadata7"/><g id="layer1" transform="translate(0,-860.36216)"><path style="fill:#fe827c;fill-opacity:1;stroke-width:.164924;stroke-linecap:round;stroke-linejoin:round;stop-color:#000" id="path981" d="m 45.448502,878.50747 c -5.234679,0 -9.448879,4.2142 -9.448879,9.44888 v 23.6222 H 156.00038 v -23.6222 c 0,-5.23468 -4.2142,-9.44888 -9.44888,-9.44888 h -3.03952 v 9.49686 c 0,2.9409 -2.36856,5.30946 -5.30945,5.30946 h -8.38773 c -2.94089,0 -5.30761,-2.36856 -5.30761,-5.30946 v -9.49686 h -6.33555 v 9.49686 c 0,2.9409 -2.36671,5.30946 -5.3076,5.30946 h -8.38773 c -2.9409,0 -5.309458,-2.36856 -5.30946,-5.30946 v -9.49686 h -6.3337 v 9.49686 c 0,2.9409 -2.36857,5.30946 -5.309458,5.30946 h -8.387725 c -2.940906,0 -5.307612,-2.36856 -5.307612,-5.30946 v -9.49686 h -6.335547 v 9.49686 c 0,2.9409 -2.366714,5.30946 -5.307611,5.30946 h -8.387725 c -2.940897,0 -5.309458,-2.36856 -5.309458,-5.30946 v -9.49686 z"/><path style="fill:#f59831;fill-opacity:1;stroke-width:.164924;stroke-linecap:round;stroke-linejoin:round;stop-color:#000" id="path983" d="m 35.999623,911.57788 v 33.07108 H 156.00038 v -33.07108 z"/><path style="fill:#fecc47;fill-opacity:1;stroke-width:.164924;stroke-linecap:round;stroke-linejoin:round;stop-color:#000" id="path985" d="m 35.999623,944.64896 v 33.07107 H 156.00038 v -33.07107 z"/><path style="fill:#78bd4b;fill-opacity:1;stroke-width:.164924;stroke-linecap:round;stroke-linejoin:round;stop-color:#000" id="path987" d="m 35.999623,977.72003 v 33.07107 H 156.00038 v -33.07107 z"/><path style="fill:#4397d0;fill-opacity:1;stroke-width:.164924;stroke-linecap:round;stroke-linejoin:round;stop-color:#000" id="path989" d="m 35.999623,1010.7911 v 23.6222 c 0,5.2347 4.2142,9.4489 9.448879,9.4489 H 146.5515 c 5.23468,0 9.44888,-4.2142 9.44888,-9.4489 v -23.6222 z"/><path style="fill:#f7c08b;fill-opacity:1;stroke-width:.164924;stroke-linecap:round;stroke-linejoin:round;stop-color:#000" id="path993" d="m 35.999623,911.57788 v 33.07108 H 156.00038 v -33.07108 z"/><path style="fill:#f8dd7f;fill-opacity:1;stroke-width:.164924;stroke-linecap:round;stroke-linejoin:round;stop-color:#000" id="path995" d="m 35.999623,944.64896 v 33.07107 H 156.00038 v -33.07107 z"/><path style="fill:#97db99;fill-opacity:1;stroke-width:.164924;stroke-linecap:round;stroke-linejoin:round;stop-color:#000" id="path997" d="m 35.999623,977.72003 v 33.07107 H 156.00038 v -33.07107 z"/><path style="fill:#99bdfe;fill-opacity:1;stroke-width:.164924;stroke-linecap:round;stroke-linejoin:round;stop-color:#000" id="path999" d="m 35.999623,1010.7911 v 23.6222 c 0,5.2347 4.2142,9.4489 9.448879,9.4489 H 146.5515 c 5.23468,0 9.44888,-4.2142 9.44888,-9.4489 v -23.6222 z"/><path style="fill:#cbcbcb;fill-opacity:1;fill-rule:evenodd;stroke:none;stroke-width:.0748214;stroke-opacity:1" id="path1009" d="m 131.91227,868.86214 h 4.19381 c 1.47045,0 2.65424,1.18379 2.65424,2.65426 v 13.98083 c 0,1.47045 -1.18379,2.65425 -2.65424,2.65425 h -4.19381 c -1.47045,0 -2.65424,-1.1838 -2.65424,-2.65425 V 871.5164 c 0,-1.47047 1.18379,-2.65426 2.65424,-2.65426 z"/><path style="fill:#cbcbcb;fill-opacity:1;fill-rule:evenodd;stroke:none;stroke-width:.0748214;stroke-opacity:1" id="path1011" d="m 106.57281,868.86214 h 4.19382 c 1.47045,0 2.65424,1.18379 2.65424,2.65426 v 13.98083 c 0,1.47045 -1.18379,2.65425 -2.65424,2.65425 h -4.19382 c -1.47044,0 -2.65423,-1.1838 -2.65423,-2.65425 V 871.5164 c 0,-1.47047 1.18379,-2.65426 2.65423,-2.65426 z"/><path style="fill:#cbcbcb;fill-opacity:1;fill-rule:evenodd;stroke:none;stroke-width:.0748214;stroke-opacity:1" id="path1013" d="m 81.233369,868.86214 h 4.193809 c 1.470453,0 2.654237,1.18379 2.654237,2.65426 v 13.98083 c 0,1.47045 -1.183784,2.65425 -2.654237,2.65425 h -4.193809 c -1.470454,0 -2.654247,-1.1838 -2.654247,-2.65425 V 871.5164 c 0,-1.47047 1.183793,-2.65426 2.654247,-2.65426 z"/><path style="fill:#cbcbcb;fill-opacity:1;fill-rule:evenodd;stroke:none;stroke-width:.0748214;stroke-opacity:1" id="path1015" d="m 55.893915,868.86214 h 4.193819 c 1.470444,0 2.654237,1.18379 2.654237,2.65427 v 13.98083 c 0,1.47045 -1.183793,2.65425 -2.654237,2.65425 h -4.193819 c -1.470444,0 -2.654237,-1.1838 -2.654237,-2.65425 v -13.98083 c 0,-1.47048 1.183793,-2.65427 2.654237,-2.65427 z"/></g><style id="style853" type="text/css"/></svg>