<svg xmlns="http://www.w3.org/2000/svg" xmlns:svg="http://www.w3.org/2000/svg" id="svg5165" width="192" height="192" version="1.1" viewBox="0 0 192 192"><metadata id="metadata5170"/><g id="layer1" transform="translate(0,-860.3622)"><g id="g848"><rect id="rect7038" width="127" height="175" x="32.5" y="868.862" rx="10" style="fill:#d3b69a;fill-rule:evenodd;stroke:none;fill-opacity:1"/><g style="stroke-width:6.08977318" id="g7189" transform="matrix(0.16420974,0,0,0.16420974,351.93656,878.10995)"><path id="path7180" d="m -1305.4532,588.94806 -194.6996,112.40986 -194.6997,-112.40986 V 364.12832 l 194.6997,-112.40989 194.6996,112.40989 z" style="opacity:1;fill:#fdf5d9;fill-opacity:1;stroke:none;stroke-width:60.89772415;stroke-linecap:butt;stroke-linejoin:round;stroke-miterlimit:4;stroke-dasharray:none;stroke-opacity:1"/><path id="path7182" d="m -1500.1539,251.71628 -194.701,112.41236 194.701,112.40714 194.701,-112.40714 z" style="opacity:1;fill:#f9de82;fill-opacity:1;stroke:none;stroke-width:60.89772415;stroke-linecap:butt;stroke-linejoin:round;stroke-miterlimit:4;stroke-dasharray:none;stroke-opacity:1"/><path id="path7184" d="m -1305.4529,364.12864 -194.701,112.40714 v 224.82475 l 194.701,-112.41239 z" style="opacity:1;fill:#c39a55;fill-opacity:1;stroke:none;stroke-width:60.89772415;stroke-linecap:butt;stroke-linejoin:round;stroke-miterlimit:4;stroke-dasharray:none;stroke-opacity:1"/></g><g style="fill:#ebebeb;fill-opacity:1" id="g7221"><path style="opacity:1;fill:#ebebeb;fill-opacity:1;stroke:none;stroke-width:10;stroke-linecap:butt;stroke-linejoin:round;stroke-miterlimit:4;stroke-dasharray:none;stroke-opacity:1" id="rect7191" d="M 115.0918 8.5 L 159.5 53.603516 L 159.5 31.597656 L 136.75781 8.5 L 115.0918 8.5 z" transform="translate(0,860.3622)"/><path style="opacity:1;fill:#ebebeb;fill-opacity:1;stroke:none;stroke-width:10;stroke-linecap:butt;stroke-linejoin:round;stroke-miterlimit:4;stroke-dasharray:none;stroke-opacity:1" id="rect7193" d="M 159.5 138.39648 L 115.0918 183.5 L 136.75781 183.5 L 159.5 160.40234 L 159.5 138.39648 z" transform="translate(0,860.3622)"/></g><path id="rect7207" d="M 42.5 8.5 C 36.96 8.5 32.5 12.96 32.5 18.5 L 32.5 173.5 C 32.5 179.04 36.96 183.5 42.5 183.5 L 51.693359 183.5 L 51.693359 8.5 L 42.5 8.5 z" transform="translate(0,860.3622)" style="opacity:1;fill:#8e7061;fill-opacity:1;stroke:none;stroke-width:10;stroke-linecap:butt;stroke-linejoin:round;stroke-miterlimit:4;stroke-dasharray:none;stroke-opacity:1"/><rect style="fill:#d3b69a;fill-rule:evenodd;stroke:none;fill-opacity:1" id="rect12535" width="127" height="175" x="32.5" y="868.862" rx="10"/><g id="g12543" transform="matrix(0.16420974,0,0,0.16420974,351.93656,878.10995)" style="stroke-width:6.08977318"><path style="opacity:1;fill:#fdf5d9;fill-opacity:1;stroke:none;stroke-width:60.89772415;stroke-linecap:butt;stroke-linejoin:round;stroke-miterlimit:4;stroke-dasharray:none;stroke-opacity:1" id="path12537" d="m -1305.4532,588.94806 -194.6996,112.40986 -194.6997,-112.40986 V 364.12832 l 194.6997,-112.40989 194.6996,112.40989 z"/><path style="opacity:1;fill:#f9de82;fill-opacity:1;stroke:none;stroke-width:60.89772415;stroke-linecap:butt;stroke-linejoin:round;stroke-miterlimit:4;stroke-dasharray:none;stroke-opacity:1" id="path12539" d="m -1500.1539,251.71628 -194.701,112.41236 194.701,112.40714 194.701,-112.40714 z"/><path style="opacity:1;fill:#c39a55;fill-opacity:1;stroke:none;stroke-width:60.89772415;stroke-linecap:butt;stroke-linejoin:round;stroke-miterlimit:4;stroke-dasharray:none;stroke-opacity:1" id="path12541" d="m -1305.4529,364.12864 -194.701,112.40714 v 224.82475 l 194.701,-112.41239 z"/></g><g id="g12549" style="fill:#ebebeb;fill-opacity:1"><path id="path12545" d="M 115.0918 8.5 L 159.5 53.603516 L 159.5 31.597656 L 136.75781 8.5 L 115.0918 8.5 z" transform="translate(0,860.3622)" style="opacity:1;fill:#ebebeb;fill-opacity:1;stroke:none;stroke-width:10;stroke-linecap:butt;stroke-linejoin:round;stroke-miterlimit:4;stroke-dasharray:none;stroke-opacity:1"/><path id="path12547" d="M 159.5 138.39648 L 115.0918 183.5 L 136.75781 183.5 L 159.5 160.40234 L 159.5 138.39648 z" transform="translate(0,860.3622)" style="opacity:1;fill:#ebebeb;fill-opacity:1;stroke:none;stroke-width:10;stroke-linecap:butt;stroke-linejoin:round;stroke-miterlimit:4;stroke-dasharray:none;stroke-opacity:1"/></g><path style="opacity:1;fill:#8e7061;fill-opacity:1;stroke:none;stroke-width:10;stroke-linecap:butt;stroke-linejoin:round;stroke-miterlimit:4;stroke-dasharray:none;stroke-opacity:1" id="path12551" d="M 42.5 8.5 C 36.96 8.5 32.5 12.96 32.5 18.5 L 32.5 173.5 C 32.5 179.04 36.96 183.5 42.5 183.5 L 51.693359 183.5 L 51.693359 8.5 L 42.5 8.5 z" transform="translate(0,860.3622)"/></g></g></svg>