<svg xmlns="http://www.w3.org/2000/svg" xmlns:svg="http://www.w3.org/2000/svg" id="svg2" width="192" height="192" version="1.1" viewBox="0 0 192 192"><metadata id="metadata7"/><g id="layer1" transform="translate(0,-860.36216)"><circle id="circle953" cx="-608.368" cy="744.132" r="88" transform="rotate(-45)" style="fill:#d2d2d2;fill-opacity:1;stroke-width:0;stroke-linecap:square;stroke-linejoin:round;stop-color:#000"/><path style="fill:#b1b5bd;fill-opacity:1;stroke-width:0;stroke-linecap:square;stroke-linejoin:round;stop-color:#000" id="path955" d="m 33.691816,894.21978 a 87.999822,87.999822 0 0 0 0.08256,124.36752 87.999822,87.999822 0 0 0 124.451204,0 87.999822,87.999822 0 0 0 5.21242,-5.6923 118.73863,118.73863 0 0 1 -89.314365,-34.65701 118.73863,118.73863 0 0 1 -34.657038,-89.31435 87.999822,87.999822 0 0 0 -5.691662,5.21297 87.999822,87.999822 0 0 0 -0.08312,0.0832 z"/><circle id="circle959" cx="-615.887" cy="739.958" r="15.878" transform="rotate(-45)" style="fill:#b1b5bd;fill-opacity:1;stroke-width:0;stroke-linecap:square;stroke-linejoin:round;stop-color:#000"/><circle id="circle963" cx="-599.11" cy="692.126" r="5.307" transform="rotate(-45)" style="fill:#b1b5bd;fill-opacity:1;stroke-width:0;stroke-linecap:square;stroke-linejoin:round;stop-color:#000"/><circle id="circle966" cx="-567.279" cy="735.337" r="5.307" transform="rotate(-45)" style="fill:#b1b5bd;fill-opacity:1;stroke-width:0;stroke-linecap:square;stroke-linejoin:round;stop-color:#000"/><circle id="circle969" cx="-583.949" cy="764.999" r="5.307" transform="rotate(-45)" style="fill:#b1b5bd;fill-opacity:1;stroke-width:0;stroke-linecap:square;stroke-linejoin:round;stop-color:#000"/><circle id="circle971" cx="-591.109" cy="801.89" r="9.974" transform="rotate(-45)" style="fill:#b1b5bd;fill-opacity:1;stroke-width:0;stroke-linecap:square;stroke-linejoin:round;stop-color:#000"/><circle id="circle973" cx="-564.478" cy="694.265" r="11.773" transform="rotate(-45)" style="fill:#b1b5bd;fill-opacity:1;stroke-width:0;stroke-linecap:square;stroke-linejoin:round;stop-color:#000"/><circle id="circle975" cx="-542.771" cy="760.601" r="8.568" transform="rotate(-45)" style="fill:#b1b5bd;fill-opacity:1;stroke-width:0;stroke-linecap:square;stroke-linejoin:round;stop-color:#000"/></g><style id="style853" type="text/css"/><style id="style853-9" type="text/css"/><style id="style853-3" type="text/css"/></svg>