<svg xmlns="http://www.w3.org/2000/svg" xmlns:svg="http://www.w3.org/2000/svg" id="svg14" width="192" height="192" version="1.1" viewBox="0 0 192 192"><metadata id="metadata20"/><g id="g886"><circle id="circle4487" cx="96" cy="96" r="88.5" style="fill:#9abefe;fill-opacity:1;fill-rule:evenodd;stroke:none"/><path id="path2" d="m 132.51155,105.78335 a 5.2823574,5.2823574 0 0 1 -5.38569,0.36162 c -1.98895,-1.12363 -3.0609,-3.75835 -3.0609,-7.348809 V 87.792323 c 0,-5.282359 -2.09229,-9.040711 -5.59235,-10.06102 -5.9152,-1.730651 -10.33225,5.514834 -12.03705,8.239959 L 95.974168,102.90322 V 82.238743 c -0.116237,-4.765744 -1.666074,-7.620026 -4.597846,-8.472436 -1.937296,-0.568273 -4.843237,-0.335798 -7.671689,3.977912 L 60.315027,115.28901 A 41.328958,41.328958 0 0 1 55.613858,95.993533 c 0,-22.6276 18.08142,-41.031902 40.36031,-41.031902 22.278892,0 40.424882,18.404302 40.424882,41.031902 v 0.116231 c 0,0 0,0.07748 0,0.116241 0.21956,4.378295 -1.20112,7.865435 -3.8746,9.557345 z m 12.9153,-9.7769 V 95.78688 C 145.24603,68.212729 123.13504,45.84343 95.974168,45.84343 c -27.160874,0 -49.40102,22.498451 -49.40102,50.150104 0,27.651676 22.162654,50.163036 49.40102,50.163036 a 48.832746,48.832746 0 0 0 33.579772,-13.38026 4.5978465,4.5978465 0 0 0 0.23248,-6.45765 4.4299476,4.4299476 0 0 0 -6.27683,-0.29704 39.94702,39.94702 0 0 1 -57.563491,-2.68638 l 21.051937,-33.8381 v 15.61461 c 0,7.50379 2.905943,9.93185 5.346933,10.64221 2.440991,0.71033 6.173514,0.21955 10.086861,-6.13477 l 11.62376,-18.817609 c 0.36164,-0.607009 0.71033,-1.123631 1.0203,-1.57566 v 9.570241 c 0,7.013018 2.81554,12.618258 7.74918,15.382118 a 14.206829,14.206829 0 0 0 14.47806,-0.58119 c 5.42441,-3.52587 8.38203,-9.90603 8.07205,-17.59064 z" style="fill:#fff;stroke-width:1.29153001"/></g></svg>