<svg xmlns="http://www.w3.org/2000/svg" xmlns:svg="http://www.w3.org/2000/svg" id="svg2" width="192" height="192" version="1.1" viewBox="0 0 192 192"><metadata id="metadata7"/><g id="layer1" transform="translate(0,-860.36216)"><rect id="rect923" width="152" height="152" x="20" y="880.362" rx="9.935" ry="9.935" style="fill:#99bdfe;fill-opacity:1;fill-rule:evenodd;stroke:none;stroke-width:.993464;stroke-opacity:1"/><path id="path933" d="m 46.368431,966.04638 c 3.518096,0 6.468758,-2.26974 7.490141,-5.44738 h -2.496714 c -0.907896,1.85363 -2.799345,3.10198 -4.993427,3.10198 -3.064149,0 -5.523033,-2.42105 -5.523033,-5.52303 0,-3.10198 2.458884,-5.52304 5.523033,-5.52304 2.194082,0 4.085531,1.24836 4.993427,3.10198 h 2.496714 c -1.021383,-3.17763 -3.972045,-5.44737 -7.490141,-5.44737 -4.350335,0 -7.868431,3.51809 -7.868431,7.86843 0,4.35033 3.518096,7.86843 7.868431,7.86843 z" style="font-style:normal;font-variant:normal;font-weight:400;font-stretch:normal;font-size:35.2632px;line-height:1.25;font-family:Now;-inkscape-font-specification:Now;letter-spacing:0;word-spacing:0;fill:#fff;fill-opacity:1;stroke-width:.756579"/><path id="path935" d="m 64.412822,966.04638 c 4.350334,0 7.868431,-3.5181 7.868431,-7.86843 0,-4.35034 -3.518097,-7.86843 -7.868431,-7.86843 -4.350335,0 -7.868432,3.51809 -7.868432,7.86843 0,4.35033 3.518097,7.86843 7.868432,7.86843 z m 0,-2.3454 c -3.064149,0 -5.523034,-2.45888 -5.523034,-5.52303 0,-3.06415 2.458885,-5.52304 5.523034,-5.52304 3.026319,0 5.523033,2.45889 5.523033,5.52304 0,3.06415 -2.496714,5.52303 -5.523033,5.52303 z" style="font-style:normal;font-variant:normal;font-weight:400;font-stretch:normal;font-size:35.2632px;line-height:1.25;font-family:Now;-inkscape-font-specification:Now;letter-spacing:0;word-spacing:0;fill:#fff;fill-opacity:1;stroke-width:.756579"/><path id="path960" d="m 77.047697,965.74375 h 2.345398 v -15.1316 h -2.345398 z" style="font-style:normal;font-variant:normal;font-weight:400;font-stretch:normal;font-size:35.2632px;line-height:1.25;font-family:Now;-inkscape-font-specification:Now;letter-spacing:0;word-spacing:0;fill:#fff;fill-opacity:1;stroke-width:.756579"/><path id="path937" d="m 78.220396,947.77497 c 0.870067,0 1.626647,-0.71874 1.626647,-1.58881 0,-0.94573 -0.75658,-1.62665 -1.626647,-1.62665 -0.907896,0 -1.664476,0.68092 -1.664476,1.62665 0,0.87007 0.75658,1.58881 1.664476,1.58881 z" style="font-style:normal;font-variant:normal;font-weight:400;font-stretch:normal;font-size:35.2632px;line-height:1.25;font-family:Now;-inkscape-font-specification:Now;letter-spacing:0;word-spacing:0;fill:#f8c18c;fill-opacity:1;stroke-width:.756579"/><path id="path939" d="m 91.195726,950.30952 c -1.399673,0 -2.685859,0.56743 -3.669413,1.51316 v -1.21053 h -2.345397 v 15.13161 h 2.345397 v -9.64641 c 0,-1.92928 1.550989,-3.44244 3.480268,-3.44244 1.929278,0 3.442438,1.51316 3.442438,3.44244 v 9.6464 h 2.345398 v -9.6464 c 0,-3.21546 -2.685859,-5.78783 -5.598691,-5.78783 z" style="font-style:normal;font-variant:normal;font-weight:400;font-stretch:normal;font-size:35.2632px;line-height:1.25;font-family:Now;-inkscape-font-specification:Now;letter-spacing:0;word-spacing:0;fill:#fff;fill-opacity:1;stroke-width:.756579"/><path id="path941" d="m 105.87336,966.04638 c 2.64803,0 4.84211,-1.77796 4.84211,-4.38816 0,-2.72369 -2.26974,-3.7829 -4.23684,-4.57731 -1.85362,-0.79441 -2.79935,-1.21053 -2.79935,-2.53455 0,-1.28618 0.87007,-1.89145 2.11842,-1.89145 0.98356,0 1.85363,0.41612 2.26974,1.21053 l 2.04277,-1.05921 c -0.56743,-1.36184 -2.49671,-2.49671 -4.42599,-2.49671 -2.23191,0 -4.38817,1.55099 -4.38817,4.3125 0,2.38323 1.58882,3.59376 4.27468,4.61514 1.81579,0.71875 2.79935,1.21053 2.79935,2.42106 0,1.32401 -1.13487,2.08059 -2.49672,2.08059 -1.39967,0 -2.76151,-0.79441 -2.98849,-1.89145 l -2.26974,0.9079 c 0.56744,1.81579 2.83718,3.29112 5.25823,3.29112 z" style="font-style:normal;font-variant:normal;font-weight:400;font-stretch:normal;font-size:35.2632px;line-height:1.25;font-family:Now;-inkscape-font-specification:Now;letter-spacing:0;word-spacing:0;fill:#fff;fill-opacity:1;stroke-width:.756579"/><path id="path943" d="m 115.48191,966.04638 c 1.13487,0 2.0806,-0.94573 2.0806,-2.0806 0,-1.13486 -0.94573,-2.08059 -2.0806,-2.08059 -1.09704,0 -2.08059,0.94573 -2.08059,2.08059 0,1.13487 0.98355,2.0806 2.08059,2.0806 z" style="font-style:normal;font-variant:normal;font-weight:400;font-stretch:normal;font-size:35.2632px;line-height:1.25;font-family:Now;-inkscape-font-specification:Now;letter-spacing:0;word-spacing:0;fill:#fff;fill-opacity:1;stroke-width:.756579"/><path id="path945" d="m 129.7434,950.30952 c -2.15625,0 -4.08553,0.87007 -5.52303,2.26974 v -1.96711 h -2.3454 v 24.21056 h 2.3454 v -11.04607 c 1.4375,1.39967 3.36678,2.26974 5.52303,2.26974 4.35034,0 7.86844,-3.5181 7.86844,-7.86843 0,-4.35034 -3.5181,-7.86843 -7.86844,-7.86843 z m 0,13.39147 c -3.06414,0 -5.52303,-2.45888 -5.52303,-5.52303 0,-3.06415 2.45889,-5.52304 5.52303,-5.52304 3.06415,0 5.52304,2.45889 5.52304,5.52304 0,3.06415 -2.45889,5.52303 -5.52304,5.52303 z" style="font-style:normal;font-variant:normal;font-weight:400;font-stretch:normal;font-size:35.2632px;line-height:1.25;font-family:Now;-inkscape-font-specification:Now;letter-spacing:0;word-spacing:0;fill:#fff;fill-opacity:1;stroke-width:.756579"/><path id="path947" d="m 147.78782,950.30952 c -1.24836,0 -2.42105,0.41612 -3.36678,1.09704 V 937.9016 h -2.3454 v 27.84215 h 2.3454 v -9.68423 c 0,-1.92927 1.51316,-3.40461 3.36678,-3.40461 1.85362,0 3.40461,1.47534 3.40461,3.40461 v 9.68423 H 153.5 v -9.68423 c 0,-3.21546 -2.53454,-5.75 -5.71218,-5.75 z" style="font-style:normal;font-variant:normal;font-weight:400;font-stretch:normal;font-size:35.2632px;line-height:1.25;font-family:Now;-inkscape-font-specification:Now;letter-spacing:0;word-spacing:0;fill:#fff;fill-opacity:1;stroke-width:.756579"/></g><style id="style853" type="text/css"/><style id="style853-9" type="text/css"/><style id="style853-3" type="text/css"/></svg>