<svg xmlns="http://www.w3.org/2000/svg" xmlns:svg="http://www.w3.org/2000/svg" id="svg2" width="192" height="192" version="1.1" viewBox="0 0 192 192"><metadata id="metadata7"/><g id="layer1" transform="translate(0,-860.36216)"><circle id="circle951" cx="96" cy="956.362" r="88" style="fill:#575a5c;fill-opacity:1;fill-rule:evenodd;stroke:none;stroke-opacity:1"/><circle id="path985" cx="94.097" cy="956.362" r="33.038" style="fill:none;fill-opacity:.994394;stroke:#fe827c;stroke-width:3.11717;stroke-linecap:round;stroke-linejoin:round;stroke-miterlimit:4;stroke-dasharray:none;stroke-opacity:1;stop-color:#000"/><path style="fill:none;fill-opacity:.994394;stroke:#fe827c;stroke-width:3.11717;stroke-linecap:round;stroke-linejoin:round;stroke-miterlimit:4;stroke-dasharray:none;stroke-opacity:1;stop-color:#000" id="circle1001" d="m 106.43458,928.2801 a 28.082446,28.082446 0 0 0 -27.951005,28.08252 28.082446,28.082446 0 0 0 28.081305,28.08252 28.082446,28.082446 0 0 0 5.91287,-0.63074 33.038171,33.038171 0 0 0 14.65678,-27.45178 33.038171,33.038171 0 0 0 -14.65556,-27.453 28.082446,28.082446 0 0 0 -5.91409,-0.62952 28.082446,28.082446 0 0 0 -0.1303,0 z"/><path style="fill:none;fill-opacity:.994394;stroke:#fe827c;stroke-width:3.11717;stroke-linecap:round;stroke-linejoin:round;stroke-miterlimit:4;stroke-dasharray:none;stroke-opacity:1;stop-color:#000" id="circle1003" d="m 117.02687,932.57716 a 23.870079,23.870079 0 0 0 -21.862793,23.78546 23.870079,23.870079 0 0 0 21.861583,23.78423 33.038171,33.038171 0 0 0 10.10887,-23.78423 33.038171,33.038171 0 0 0 -10.10766,-23.78546 z"/><path style="fill:none;fill-opacity:.994394;stroke:#fe827c;stroke-width:3.11717;stroke-linecap:round;stroke-linejoin:round;stroke-miterlimit:4;stroke-dasharray:none;stroke-opacity:1;stop-color:#000" id="circle1005" d="m 121.88649,938.49614 a 20.289567,20.289567 0 0 0 -10.67387,17.86648 20.289567,20.289567 0 0 0 10.67508,17.86527 33.038171,33.038171 0 0 0 5.24683,-17.86527 33.038171,33.038171 0 0 0 -5.24804,-17.86648 z"/><path id="path1025" d="m 305.91749,796.14268 -21.62281,-3.2223 -17.11476,13.60199 3.2223,-21.6228 -13.60199,-17.11476 21.6228,3.2223 17.11476,-13.60199 -3.2223,21.6228 z" transform="matrix(0.35019653,-0.20218606,0.20218606,0.35019653,-137.15851,718.19114)" style="fill:#4c4c4c;fill-opacity:1;stroke:#fe827c;stroke-width:7.70866;stroke-linecap:round;stroke-linejoin:round;stroke-miterlimit:4;stroke-dasharray:none;stroke-opacity:1;stop-color:#000"/></g><style id="style853" type="text/css"/></svg>