<svg xmlns="http://www.w3.org/2000/svg" xmlns:svg="http://www.w3.org/2000/svg" id="svg2" width="192" height="192" version="1.1" viewBox="0 0 192 192"><metadata id="metadata7"/><g id="layer1" transform="translate(0,-860.36216)"><path style="fill:#8c72bd;fill-opacity:1;fill-rule:evenodd;stroke:none;stroke-width:.845707;stroke-opacity:1" id="path961" d="m 74.87498,868.36198 c -2.16179,0 -4.324,0.82791 -5.98047,2.48438 l -32.69727,32.69726 c 10.89882,10.89883 21.79649,21.79845 32.69532,32.69727 2.77965,2.91564 5.82312,5.5791 8.4414,8.64648 5.51201,6.52574 5.29636,17.00545 -0.32617,23.39649 -13.56202,13.673 -27.18542,27.28573 -40.8086,40.89844 l 32.69532,32.6953 c 3.31295,3.313 8.64604,3.313 11.95898,0 l 79.53516,-79.53515 c 3.31295,-3.31294 3.31295,-8.64604 0,-11.95898 L 80.85349,870.84636 c -1.65647,-1.65647 -3.81673,-2.48438 -5.97851,-2.48438 z"/><path style="fill:#d2d2d2;fill-opacity:1;fill-rule:evenodd;stroke:none;stroke-width:.845707;stroke-opacity:1" id="path963" d="m 29.12663,910.61437 39.76806,39.76805 c 3.31294,3.31295 3.31294,8.64587 0,11.95882 l -39.76806,39.76806 z"/></g><style id="style853" type="text/css"/></svg>