<svg xmlns="http://www.w3.org/2000/svg" xmlns:svg="http://www.w3.org/2000/svg" id="svg10" version="1.1" viewBox="0 0 192 192"><metadata id="metadata16"/><defs id="defs14"><style id="style3744"/></defs><title id="title2">Yandex.Taxi</title><g id="g30"><g id="g4599"><path id="path4" d="M 96.123047 8.8378906 A 8.3774979 8.3774979 0 0 0 90.076172 11.289062 L 11.289062 90.076172 A 8.3774979 8.3774979 0 0 0 11.289062 101.92383 L 50.683594 141.31641 L 90.076172 180.71094 A 8.3774979 8.3774979 0 0 0 101.92383 180.71094 L 180.71094 101.92383 A 8.3774979 8.3774979 0 0 0 180.71094 90.076172 L 141.31641 50.683594 L 101.92383 11.289062 A 8.3774979 8.3774979 0 0 0 96.123047 8.8378906 z" style="fill:#f9de81;stroke-width:.83774978"/><path id="path8" d="m 137.92255,101.08358 27.50296,-26.431265 15.35653,15.423899 c 3.26445,3.278774 3.27162,8.575959 0,11.847576 l -79.41106,79.3408 c -1.57687,1.26323 -3.329358,1.82399 -5.193534,1.93799 z" style="fill:#56595b;stroke-width:.83774978"/></g></g></svg>