<svg xmlns="http://www.w3.org/2000/svg" xmlns:svg="http://www.w3.org/2000/svg" id="svg2" width="192" height="192" version="1.1" viewBox="0 0 192 192"><metadata id="metadata7"/><g id="layer1" transform="translate(0,-860.36216)"><rect id="rect968" width="153" height="153" x="19.5" y="879.862" rx="10" style="fill:#99bdfe;fill-opacity:1;fill-rule:evenodd;stroke:none;stroke-opacity:1"/><path style="opacity:1;fill:#fff;stroke-width:16.1448;stroke-linecap:round;stroke-linejoin:round;stop-color:#000;fill-opacity:1" id="path993" d="m 55.392475,909.47211 h 81.215065 a 6,6 45 0 1 6,6 v 53.25956 a 6,6 135 0 1 -6,6 H 55.392475 a 6,6 45 0 1 -6,-6 v -53.25956 a 6,6 135 0 1 6,-6 z"/><path style="opacity:1;fill:#fff;fill-opacity:1;stroke-width:4.17483;stroke-linecap:round;stroke-linejoin:round;stop-color:#000" id="rect995" d="M 81.507812 119.25977 L 81.507812 127.17578 L 67.115234 127.17578 A 3 3 0 0 0 64.115234 130.17578 L 64.115234 130.29492 A 3 3 0 0 0 67.115234 133.29492 L 81.507812 133.29492 L 110.49219 133.29492 L 124.88477 133.29492 A 3 3 0 0 0 127.88477 130.29492 L 127.88477 130.17578 A 3 3 0 0 0 124.88477 127.17578 L 110.49219 127.17578 L 110.49219 119.25977 L 81.507812 119.25977 z" transform="translate(0,860.36216)"/><text id="text1001" x="83.492" y="956.94" xml:space="preserve" style="font-weight:700;font-size:33.1887px;line-height:1.25;font-family:Now;-inkscape-font-specification:'Now Bold';letter-spacing:0;word-spacing:0;stroke-width:.829718;fill:#99bdfe;fill-opacity:1;opacity:1"><tspan style="stroke-width:.829718;fill:#99bdfe;fill-opacity:1" id="tspan999" x="83.492" y="956.94">11</tspan></text><path style="opacity:1;fill:#ff837d;fill-opacity:1;fill-rule:evenodd;stroke:none;stroke-width:.873388;stroke-opacity:1" id="path1003" d="m 104.73387,1000.7856 c -4.83856,0 -8.73387,3.8953 -8.73387,8.7338 v 23.3427 h 67.76608 c 4.83857,0 8.73388,-3.8953 8.73388,-8.7339 v -23.3426 z"/><text id="text1007" x="110.822" y="1024.302" xml:space="preserve" style="font-weight:700;font-size:18.3482px;line-height:1.25;font-family:Now;-inkscape-font-specification:'Now Bold';letter-spacing:0;word-spacing:0;opacity:1;fill:#fff;fill-opacity:1;stroke-width:.458704"><tspan style="fill:#fff;fill-opacity:1;stroke-width:.458704" id="tspan1005" x="110.822" y="1024.302">BETA</tspan></text></g><style id="style853" type="text/css"/></svg>