<svg xmlns="http://www.w3.org/2000/svg" xmlns:svg="http://www.w3.org/2000/svg" id="svg2" width="192" height="192" version="1.1" viewBox="0 0 192 192"><metadata id="metadata7"/><g id="layer1" transform="translate(0,-860.36216)"><rect id="rect1068" width="152" height="152" x="20" y="880.362" rx="9.935" ry="9.935" style="fill:#f8c18c;fill-opacity:1;fill-rule:evenodd;stroke:none;stroke-width:.993464;stroke-opacity:1"/><path id="path1070" d="M 69.960762,1001.4635 A 52.078461,52.078461 0 0 1 44.026189,953.06221 52.078461,52.078461 0 0 1 75.8741,908.32975 a 52.078461,52.078461 0 0 1 54.22311,8.66816" style="fill:none;stroke:#fff;stroke-width:16.0444;stroke-linecap:round;stroke-linejoin:round;stroke-miterlimit:4;stroke-dasharray:none;stroke-opacity:1;stop-color:#000"/><circle id="circle1072" cx="130.491" cy="917.253" r="7.586" style="fill:#f8c18c;fill-opacity:1;stroke:#fff;stroke-width:6.75556;stroke-linecap:round;stroke-linejoin:round;stroke-miterlimit:4;stroke-dasharray:none;stroke-opacity:1;stop-color:#000"/><rect id="rect1074" width="2.903" height="5.924" x="-172.779" y="994.892" transform="rotate(-16)" style="fill:#fff;fill-opacity:1;stroke:none;stroke-width:9.38271;stroke-linecap:round;stroke-linejoin:round;stroke-miterlimit:4;stroke-dasharray:none;stop-color:#000"/><rect id="rect1076" width="2.903" height="5.924" x="-426.833" y="911.03" transform="rotate(-32)" style="fill:#fff;fill-opacity:1;stroke:none;stroke-width:9.38271;stroke-linecap:round;stroke-linejoin:round;stroke-miterlimit:4;stroke-dasharray:none;stop-color:#000"/><rect id="rect1078" width="2.903" height="5.924" x="-647.93" y="760.39" transform="rotate(-48)" style="fill:#fff;fill-opacity:1;stroke:none;stroke-width:9.38271;stroke-linecap:round;stroke-linejoin:round;stroke-miterlimit:4;stroke-dasharray:none;stop-color:#000"/><rect id="rect1080" width="2.903" height="5.924" x="-818.94" y="554.642" transform="rotate(-64)" style="fill:#fff;fill-opacity:1;stroke:none;stroke-width:9.38271;stroke-linecap:round;stroke-linejoin:round;stroke-miterlimit:4;stroke-dasharray:none;stop-color:#000"/><rect id="rect1082" width="2.903" height="5.924" x="94.549" y="1005.479" style="fill:#fff;fill-opacity:1;stroke:none;stroke-width:9.38271;stroke-linecap:round;stroke-linejoin:round;stroke-miterlimit:4;stroke-dasharray:none;stop-color:#000"/><rect id="rect1084" width="2.903" height="5.924" x="354.439" y="941.97" transform="rotate(16)" style="fill:#fff;fill-opacity:1;stroke:none;stroke-width:9.38271;stroke-linecap:round;stroke-linejoin:round;stroke-miterlimit:4;stroke-dasharray:none;stop-color:#000"/><path style="fill:#fff;fill-opacity:1;stroke:none;stroke-width:7.93948;stroke-linecap:round;stroke-linejoin:round;stroke-miterlimit:4;stroke-dasharray:none;stop-color:#000" id="path1086" d="m 137.2211,947.93867 -11.49897,3.1325 v 10.58194 l 11.49897,3.13249 a 14.951042,14.951042 0 0 0 3.92968,0.52567 h 30.84921 V 947.413 h -30.84921 a 14.951003,14.951003 0 0 0 -3.92968,0.52567 z m -15.19176,4.13857 -10.90846,2.97098 a 1.3617789,1.3617789 0 0 0 0,2.62784 l 10.90846,2.97098 z"/></g><style id="style853" type="text/css"/><style id="style853-9" type="text/css"/><style id="style853-3" type="text/css"/></svg>