<svg xmlns="http://www.w3.org/2000/svg" xmlns:svg="http://www.w3.org/2000/svg" xmlns:xlink="http://www.w3.org/1999/xlink" id="svg2" width="192" height="192" version="1.1" viewBox="0 0 192 192"><defs id="defs4"><linearGradient id="linearGradient3275"><stop style="stop-color:#abd9f5;stop-opacity:1" id="stop3271" offset="0"/><stop style="stop-color:#fe837e;stop-opacity:.99746585" id="stop3273" offset="1"/></linearGradient><linearGradient id="linearGradient3410" x1="103.734" x2="110.33" y1="148.167" y2="148.167" gradientTransform="matrix(0,5.2057685,-5.2057685,0,861.94552,405.41832)" gradientUnits="userSpaceOnUse" xlink:href="#linearGradient3275"/></defs><metadata id="metadata7"/><g id="layer1" transform="translate(0,-860.36216)"><g id="g1294"><circle id="circle3412" cx="96" cy="956.362" r="88" style="fill:#fefefe;fill-opacity:1;fill-rule:evenodd;stroke:none;stroke-opacity:1"/><path style="fill:url(#linearGradient3410);fill-opacity:1;stroke:none;stroke-width:1.83647" id="path3406" d="m 96.97304,968.48581 v 6.38461 c 1.17649,0.42323 2.02296,1.54237 2.02296,2.86952 0,1.67865 -1.36298,3.0417 -3.0345,3.0417 -1.67865,0 -3.034496,-1.36305 -3.034496,-3.0417 0,-1.32715 0.846511,-2.44624 2.023016,-2.86952 v -6.38461 c -2.596898,-0.215 -4.957034,-1.24824 -6.829399,-2.83361 l -4.505121,4.51944 c 0.538016,1.12627 0.344103,2.51798 -0.58825,3.45773 -1.190819,1.18368 -3.106229,1.18368 -4.297049,0 -1.183686,-1.19082 -1.183686,-3.11336 0,-4.30424 0.939746,-0.93256 2.324273,-1.12627 3.457721,-0.58825 l 4.505122,-4.51944 c -1.585412,-1.87955 -2.61126,-4.24687 -2.82647,-6.84377 h -6.377431 c -0.41594,1.1837 -1.535178,2.03015 -2.855156,2.03015 -1.678652,0 -3.034493,-1.36298 -3.034493,-3.04162 0,-1.67866 1.355841,-3.04168 3.034493,-3.04168 1.319978,0 2.439061,0.84651 2.855156,2.03014 h 6.377431 c 0.215,-2.5969 1.241058,-4.96422 2.82647,-6.84376 l -4.505122,-4.51944 c -1.133448,0.53801 -2.517975,0.34462 -3.457721,-0.58826 -1.183686,-1.19082 -1.183686,-3.11341 0,-4.30423 1.19082,-1.18369 3.10623,-1.18369 4.297049,0 0.932614,0.93975 1.126266,2.33145 0.58825,3.45772 l 4.505121,4.51949 c 1.872365,-1.58541 4.232501,-2.61845 6.829399,-2.83365 v -6.38461 c -1.176505,-0.42323 -2.023016,-1.54237 -2.023016,-2.86952 0,-1.67866 1.355846,-3.04169 3.034496,-3.04169 1.67152,0 3.0345,1.36303 3.0345,3.04169 0,1.32715 -0.84647,2.44624 -2.02296,2.86952 v 6.38461 c 1.894742,0.1569 3.66507,0.74911 5.21196,1.67781 1.41692,0.85067 3.3049,0.89357 4.475,-0.27946 l 12.92943,-12.96185 c 1.1701,-1.17303 1.17762,-3.08617 -0.0839,-4.15961 -6.34551,-5.39957 -14.56452,-8.65326 -23.54406,-8.65326 -20.11514,0 -36.421068,16.34179 -36.421068,36.50004 0,20.15819 16.305928,36.49996 36.421068,36.49996 8.97955,0 17.19855,-3.25367 23.54406,-8.6532 1.26149,-1.07343 1.25397,-2.98656 0.0839,-4.1596 L 106.66,967.08746 c -1.1701,-1.17304 -3.05807,-1.13014 -4.47496,-0.27943 -1.54691,0.92878 -3.317244,1.52104 -5.212,1.67778 z"/></g></g></svg>