<svg xmlns="http://www.w3.org/2000/svg" xmlns:svg="http://www.w3.org/2000/svg" id="svg2" width="192" height="192" version="1.1" viewBox="0 0 192 192"><metadata id="metadata7"/><g id="layer1" transform="translate(0,-860.36216)"><path style="stroke-width:1;fill:#ff837d;fill-opacity:1" id="path1008" d="m 168.22306,886.9366 c -11.94641,-2.97062 -24.96157,-4.53227 -37.97673,-4.53227 -52.891043,0 -101.07569,33.39309 -109.367931,75.30252 -8.068128,40.78885 25.773183,72.61315 77.31955,72.61315 10.209351,0 30.566561,-1.376 43.141041,-4.2786 2.68965,-0.6208 5.33018,-3.5037 5.96014,-6.1924 l 10.2691,-43.82713 c 0.62996,-2.6886 -0.71467,-3.61245 -3.08487,-2.19608 -10.90506,6.51658 -22.6331,10.55071 -36.1151,10.55071 -19.722083,0 -34.289534,-12.10222 -31.151929,-28.01433 3.137604,-15.46393 21.739109,-28.01434 41.237089,-28.01434 12.73334,0 23.30761,4.98252 31.72277,11.23022 2.21676,1.6458 4.27505,0.90426 4.72357,-1.8205 l 7.34035,-44.59263 c 0.44852,-2.72476 -1.33739,-5.56199 -4.01705,-6.22832 z"/></g><style id="style853" type="text/css"/><style id="style853-9" type="text/css"/><style id="style853-3" type="text/css"/><style id="style918" type="text/css"/></svg>