<svg xmlns="http://www.w3.org/2000/svg" xmlns:svg="http://www.w3.org/2000/svg" id="svg2" width="192" height="192" version="1.1" viewBox="0 0 192 192"><metadata id="metadata7"/><g id="layer1" transform="translate(0,-860.36216)"><g id="g865" transform="matrix(0.86158197,0,0,0.86133897,13.28814,132.61017)"><rect style="fill:#9abefe;fill-opacity:1;fill-rule:evenodd;stroke:none;stroke-width:.999999;stroke-opacity:1" id="rect866" width="162.359" height="162.359" x="14.821" y="869.923" rx="10.612" ry="10.612"/><rect style="fill:#738dbe;fill-opacity:1;fill-rule:evenodd;stroke:none;stroke-width:.999998;stroke-opacity:1" id="rect886" width="68.078" height="68.078" x="7.5" y="974.724" rx="10.612" ry="10.612"/><rect style="fill:#738dbe;fill-opacity:1;fill-rule:evenodd;stroke:none;stroke-width:.999998;stroke-opacity:1" id="rect888" width="68.078" height="68.078" x="116.422" y="974.724" rx="10.612" ry="10.612"/><g id="g985" transform="translate(-1.0344715,-0.39797878)"><rect style="fill:#fefefe;fill-opacity:1;stroke-width:9.99993;stroke-linejoin:round;stroke-dasharray:40.0001,9.99993;paint-order:markers fill stroke" id="rect955" width="6.507" height="27.737" x="1005.907" y="-56.442" rx="3.254" ry="3.254" transform="rotate(90)"/><rect style="fill:#fefefe;fill-opacity:1;stroke-width:9.99993;stroke-linejoin:round;stroke-dasharray:40.0001,9.99993;paint-order:markers fill stroke" id="rect957" width="6.507" height="27.737" x="39.32" y="995.292" rx="3.254" ry="3.254"/></g><rect style="fill:#fefefe;fill-opacity:1;stroke-width:9.99993;stroke-linejoin:round;stroke-dasharray:40.0001,9.99993;paint-order:markers fill stroke" id="rect894" width="6.507" height="27.737" x="1005.509" y="-164.33" rx="3.254" ry="3.254" transform="rotate(90)"/><path id="rect896" d="m 100.17044,917.33835 -5.349832,1.90987 a 891112.69,891112.69 160.35375 0 1 -5.650718,2.01728 l -8.442945,3.01404 a 4.2564023,4.2564023 125.17697 0 0 -2.825362,4.00863 v 3.39028 a 2.1144632,2.1144632 35.176988 0 0 2.825363,1.99138 l 11.268306,-4.02267 v 46.40206 a 3,3 45 0 0 3,3 H 99.9958 a 3,3 135 0 0 3,-3 V 919.3297 a 2.1144467,2.1144467 35.176777 0 0 -2.82536,-1.99135 z" style="fill:#fff;fill-opacity:1;stroke-width:9.99994;stroke-linejoin:round;stroke-dasharray:40.0001,9.99994;paint-order:markers fill stroke"/></g></g><style id="style853" type="text/css"/></svg>