<svg xmlns="http://www.w3.org/2000/svg" xmlns:svg="http://www.w3.org/2000/svg" id="svg5173" width="192" height="192" version="1.1" viewBox="0 0 192 192"><metadata id="metadata5178"/><g id="layer1" transform="translate(0,-860.36216)"><g id="g5155" transform="matrix(0.99346395,0,0,0.99346395,0.62745512,6.2507402)"><rect id="rect4609" width="153" height="153" x="19.5" y="879.862" rx="10" style="display:inline;fill:#fff;fill-opacity:1;fill-rule:evenodd;stroke:none"/><g id="g8268" transform="matrix(0.192217,0,0,0.192217,161.65412,862.62436)"><path style="opacity:1;fill:#96ded3;fill-opacity:1;stroke:none;stroke-width:2.5;stroke-linecap:round;stroke-linejoin:round;stroke-miterlimit:4;stroke-dasharray:none;stroke-opacity:1" id="path8250" d="m -276.75781,-551.83984 c -44.10578,0 -79.61328,34.50207 -79.61328,77.35742 0,0.80105 0.0164,1.59755 0.041,2.39258 h -0.041 v 35.61718 29.34571 c 1.3e-4,1.36578 0.28226,2.67364 0.79297,3.86718 0.5107,1.19355 1.24968,2.27117 2.1582,3.17969 0.90852,0.90852 1.98809,1.64751 3.18164,2.1582 1.19354,0.51072 2.5014,0.79479 3.86719,0.79493 h 29.3457 37.80469 v -0.0391 c 0.81829,0.0239 1.63842,0.0391 2.46289,0.0391 44.10576,0 79.61328,-34.50011 79.61328,-77.35547 0,-42.85535 -35.50752,-77.35742 -79.61328,-77.35742 z" transform="translate(0,860.36222)"/><path style="opacity:1;fill:#98db9a;fill-opacity:1;stroke:none;stroke-width:2.5;stroke-linecap:round;stroke-linejoin:round;stroke-miterlimit:4;stroke-dasharray:none;stroke-opacity:1" id="path8259" d="m -346.37109,-375.48633 c -1.36579,1.4e-4 -2.67365,0.28226 -3.86719,0.79297 -1.19355,0.51072 -2.27312,1.24968 -3.18164,2.1582 -0.90852,0.90851 -1.6475,1.98809 -2.1582,3.18164 -0.51071,1.19354 -0.79284,2.50141 -0.79297,3.86719 v 29.34571 48.80664 h 0.0469 c -0.0289,0.93492 -0.0469,1.87244 -0.0469,2.81445 0,50.39626 41.75435,90.96875 93.62109,90.96875 51.86672,0 93.62305,-40.57249 93.62305,-90.96875 0,-50.39629 -41.75633,-90.9668 -93.62305,-90.9668 -0.96955,0 -1.9342,0.0168 -2.89648,0.0449 v -0.0449 h -51.37891 z" transform="translate(0,860.36222)"/><path style="opacity:1;fill:#f8c28d;fill-opacity:1;stroke:none;stroke-width:2.5;stroke-linecap:round;stroke-linejoin:round;stroke-miterlimit:4;stroke-dasharray:none;stroke-opacity:1" id="path8237" d="m -446.75977,-527.79297 c -37.25036,0 -67.23828,29.13968 -67.23828,65.33399 0,36.19429 29.98792,65.33203 67.23828,65.33203 0.69632,0 1.38898,-0.013 2.08008,-0.0332 v 0.0332 h 25.81446 29.3457 c 1.36579,-1.4e-4 2.67364,-0.28421 3.86719,-0.79493 1.19354,-0.5107 2.27117,-1.24968 3.17968,-2.1582 0.90852,-0.90852 1.64749,-1.98614 2.15821,-3.17969 0.51071,-1.19354 0.79478,-2.5014 0.79492,-3.86718 v -29.34571 -23.96679 h -0.0352 c 0.0208,-0.67145 0.0352,-1.34299 0.0352,-2.01953 0,-36.19431 -29.98986,-65.33399 -67.24024,-65.33399 z" transform="translate(0,860.36222)"/><circle style="opacity:1;fill:#fff;fill-opacity:1;stroke:none;stroke-width:2.5;stroke-linecap:round;stroke-linejoin:round;stroke-miterlimit:4;stroke-dasharray:none;stroke-opacity:1" id="path8167" cx="-286.25" cy="396.612" r="30.713"/><circle id="circle8171" cx="-246.652" cy="-592.62" r="46.977" transform="scale(1,-1)" style="opacity:1;fill:#fff;fill-opacity:1;stroke:none;stroke-width:2.5;stroke-linecap:round;stroke-linejoin:round;stroke-miterlimit:4;stroke-dasharray:none;stroke-opacity:1"/><circle id="circle8175" cx="421.193" cy="424.013" r="22.935" transform="scale(-1,1)" style="opacity:1;fill:#fff;fill-opacity:1;stroke:none;stroke-width:2.5;stroke-linecap:round;stroke-linejoin:round;stroke-miterlimit:4;stroke-dasharray:none;stroke-opacity:1"/></g></g></g></svg>