<svg xmlns="http://www.w3.org/2000/svg" xmlns:svg="http://www.w3.org/2000/svg" id="svg5165" width="192" height="192" version="1.1" viewBox="0 0 192 192"><metadata id="metadata5170"/><g id="layer1" transform="translate(0,-860.3622)"><circle id="path19877" cx="96" cy="956.362" r="88" style="fill:#f8c18c;fill-opacity:1;stroke:none;stroke-width:.99435;stroke-linecap:round;stroke-linejoin:round;stroke-miterlimit:4;stroke-dasharray:none;stroke-opacity:1"/><path style="fill:#fff;fill-opacity:1;fill-rule:evenodd;stroke:none;stroke-width:.99435;stroke-linecap:butt;stroke-linejoin:round;stroke-miterlimit:4;stroke-dasharray:none;stroke-opacity:1" id="path20013" d="m 102.0189,934.53226 2.19707,14.09793 c 11.14829,-2.07521 15.05828,-3.70357 14.17807,-10.18899 -0.88022,-6.48543 -9.50553,-5.41443 -16.37514,-3.90894 z m 3.96913,23.58815 2.43745,16.90696 c 12.10908,-1.59489 16.65734,-4.05337 15.62463,-11.54596 -1.0327,-7.49268 -10.66608,-6.98186 -18.06208,-5.361 z m -17.283907,-20.95678 6.425306,39.10536 c -10.762903,2.56997 -24.109438,1.213 -26.920409,-15.18709 -2.810972,-16.40016 8.107938,-22.51042 20.495103,-23.91827 z m 23.889757,-14.40232 c 20.88214,-0.97144 25.45102,18.92821 11.94539,26.55146 10.39614,-0.3221 23.15642,17.17001 5.5305,30.03874 -6.30233,4.60129 -32.939136,8.95102 -41.594439,10.24044 -40.450982,6.02601 -51.377052,-56.99402 -4.772442,-63.72864 7.721004,-1.11573 17.079291,-2.5525 28.890991,-3.102 z"/></g></svg>