<svg xmlns="http://www.w3.org/2000/svg" xmlns:svg="http://www.w3.org/2000/svg" id="svg2" width="192" height="192" version="1.1" viewBox="0 0 192 192"><metadata id="metadata7"/><g id="layer1" transform="translate(0,-860.36216)"><rect id="rect921" width="153" height="153" x="19.5" y="879.862" rx="10" style="fill:#54688c;fill-opacity:1;fill-rule:evenodd;stroke:none;stroke-opacity:1"/><path style="fill:#96dfd3;fill-opacity:1;stroke-width:.223945" id="path999" d="m 59.810588,956.39676 c 0,7.4999 0.826352,15.34243 3.233749,21.5345 4.127301,10.73366 10.939687,12.72899 22.428028,14.24285 3.627559,0.46865 7.282004,0.69832 10.939695,0.68753 3.68082,0.013 7.35849,-0.21669 11.00909,-0.68753 11.96984,-1.51386 18.91882,-4.74765 22.90951,-14.24285 0.64696,-1.63816 1.15285,-3.32728 1.5128,-5.04892 0.226,-1.08101 -0.5272,-2.16802 -1.60428,-2.41291 l -10.61786,-2.41413 c -1.07708,-0.24489 -2.15224,0.43019 -2.48011,1.4848 -1.66642,5.36004 -4.00608,6.58796 -9.58345,7.7014 -3.67549,0.67389 -7.40976,0.97401 -11.1457,0.89578 -3.670808,-0.002 -7.333385,-0.34728 -10.939695,-1.03238 -5.641155,-1.03015 -6.810141,-2.40741 -8.187402,-7.16622 -1.030146,-3.58312 -1.513865,-8.59948 -1.513865,-13.5531 0,-4.95366 0.483719,-9.97673 1.513865,-13.55313 1.377261,-4.74761 2.546247,-6.12486 8.187402,-7.15501 3.60585,-0.68834 7.268733,-1.03401 10.939695,-1.03239 3.73493,-0.0463 7.46611,0.25357 11.1457,0.89578 5.57718,1.11543 7.91687,2.3435 9.58328,7.70145 0.32798,1.05457 1.40243,1.7263 2.47857,1.47731 l 10.62128,-2.45747 c 1.07614,-0.24899 1.82846,-1.33932 1.6024,-2.42031 -0.36004,-1.72161 -0.86587,-3.41073 -1.51263,-5.04895 -4.05786,-9.56243 -10.93967,-12.72676 -22.90951,-14.24062 -3.65076,-0.46941 -7.32829,-0.69982 -11.00909,-0.68977 -3.65774,-0.01 -7.312184,0.22038 -10.939695,0.68977 -11.488341,1.51386 -18.300727,3.58311 -22.428028,14.24062 -2.405161,6.3309 -3.233749,14.10401 -3.233749,21.6039 z"/><path style="fill:#96dfd3;fill-opacity:1;stroke:none;stroke-width:5.45079;stroke-linecap:round;stroke-linejoin:round;stop-color:#000" id="path1001" d="m 104.50671,957.36215 -11.225876,6.48126 a 1.1547007,1.1547007 30.000003 0 1 -1.732051,-1 v -12.96252 a 1.1547007,1.1547007 150 0 1 1.732051,-1 l 11.225876,6.48126 a 1.1547002,1.1547002 90 0 1 0,2 z"/></g><style id="style853" type="text/css"/></svg>