<svg xmlns="http://www.w3.org/2000/svg" xmlns:svg="http://www.w3.org/2000/svg" id="svg2" width="192" height="192" version="1.1" viewBox="0 0 192 192"><metadata id="metadata7"/><g id="layer1" transform="translate(0,-860.36216)"><g id="g968" transform="matrix(0.84999625,0,0,0.84999625,14.400362,143.45791)"><g id="g1138" transform="translate(-622.81064,234.82959)"><rect id="rect1129" width="180" height="180" x="628.811" y="631.532" rx="11.765" style="fill:#b1b5bd;fill-opacity:1;fill-rule:evenodd;stroke:none;stroke-width:1.17647;stroke-opacity:1"/><path style="opacity:.607218;fill:#99bdfe;fill-opacity:1;stroke-width:12.0161;stroke-linecap:round;stroke-linejoin:round;stop-color:#000" id="path1131" d="m 640.57587,631.53291 c -6.51765,0 -11.76563,5.24603 -11.76563,11.76367 v 63.48828 a 64.536352,195.64398 88.180309 0 0 52.63672,0.59375 64.536352,195.64398 88.180309 0 0 127.36328,-20.11133 v -43.9707 c 0,-6.51764 -5.24602,-11.76367 -11.76367,-11.76367 z"/><path style="opacity:.607218;fill:#97db99;fill-opacity:1;stroke-width:8.45339;stroke-linecap:round;stroke-linejoin:round;stop-color:#000" id="path1133" d="m 677.43329,729.86494 a 43.341889,144.1781 88.375526 0 0 -14.08203,0.22656 43.341889,144.1781 88.375526 0 0 -34.54102,2.33203 v 67.34375 c 0,6.5176 5.24798,11.76563 11.76563,11.76563 h 83.45312 a 43.341889,144.1781 88.375526 0 0 84.78125,-36.59375 V 764.44111 A 43.341889,144.1781 88.375526 0 0 677.43329,729.86494 Z"/></g><path id="path1104" d="m 26.538026,933.04942 c 0,0 86.403914,8.6827 108.004904,-24.77769 0,0 -3.81194,18.6361 30.91904,13.97717 0,0 -77.509392,24.35398 -138.923944,10.80052" style="opacity:1;fill:#f9de81;fill-opacity:1;fill-rule:nonzero;stroke:none;stroke-width:.84709"/><text id="text1102" x="29.859" y="1000.047" xml:space="preserve" style="font-weight:700;font-size:103.244px;line-height:1.25;font-family:Now;-inkscape-font-specification:'Now Bold';letter-spacing:0;word-spacing:0;fill:#fff;fill-opacity:1;stroke-width:2.58112"><tspan style="fill:#fff;fill-opacity:1;stroke-width:2.58112" id="tspan1100" x="29.859" y="1000.047">cb</tspan></text></g></g><style id="style853" type="text/css"/></svg>