<svg xmlns="http://www.w3.org/2000/svg" xmlns:svg="http://www.w3.org/2000/svg" id="svg2" width="192" height="192" version="1.1" viewBox="0 0 192 192"><metadata id="metadata7"/><g id="layer1" transform="translate(0,-860.36216)"><path style="fill:#9abeff;fill-opacity:1;fill-rule:evenodd;stroke:none;stroke-opacity:1" id="rect985" d="m 29.5,879.86218 h 133 c 5.54,0 10,4.46 10,10 v 133.00002 c 0,5.54 -4.46,10 -10,10 h -133 c -5.54,0 -10,-4.46 -10,-10 V 889.86218 c 0,-5.54 4.46,-10 10,-10 z"/><path id="path828-5-0" d="M 102 28 L 94 32 L 86 36 L 78 40 L 70 44 L 62 48 L 54 52 L 46 56 L 46 172.5 L 94 172.5 L 94 80 L 102 76 L 110 72 L 118 68 L 126 64 L 134 60 L 142 56 L 150 52 L 142 48 L 134 44 L 126 40 L 118 36 L 110 32 L 102 28 z" transform="translate(0,860.36216)" style="opacity:1;fill:#fff"/><path id="path828-9-15-9" d="M 172.5 112.75 L 166 116 L 166 126 L 172.5 122.75 L 172.5 112.75 z" transform="translate(0,860.36216)" style="fill:#ececec"/><path id="path939-7" d="M 150 100 L 142 104 L 150 108 L 142 112 L 134 116 L 126 120 L 134 124 L 142 128 L 150 132 L 158 128 L 166 124 L 172.5 120.75 L 172.5 119.25 L 166 116 L 172.5 112.75 L 172.5 111.25 L 166 108 L 158 104 L 150 100 z" transform="translate(0,860.36216)" style="fill:#fff"/><path id="path828-5" d="M 150 52 L 94 80 L 94 172.5 L 150 172.5 L 150 158 L 158 154 L 166 150 L 172.5 146.75 L 172.5 120.75 L 166 124 L 158 128 L 150 132 L 150 52 z" transform="translate(0,860.36216)" style="fill:#ececec"/><path id="path828" d="m 110,952.36216 v 10 l 8,-4 v -10 z" style="fill:#4a4a4a"/><path id="path828-9" d="M 118 33 L 110 37 L 102 41 L 94 45 L 86 49 L 86 59 L 86 69 L 94 65 L 102 61 L 110 57 L 118 53 L 118 43 L 118 33 z" transform="translate(0,860.36216)" style="fill:#dc505e"/><path id="path828-3" d="M 70 41 L 70 51 L 70 61 L 78 65 L 86 69 L 86 59 L 86 49 L 78 45 L 70 41 z" transform="translate(0,860.36216)" style="fill:#ff837d"/><path id="path939" d="M 102 25 L 94 29 L 86 33 L 78 37 L 70 41 L 78 45 L 86 49 L 94 45 L 102 41 L 110 37 L 118 33 L 110 29 L 102 25 z" transform="translate(0,860.36216)" style="fill:#ffb0ac"/><path id="path939-7-6" d="M 158 138 L 150 142 L 142 146 L 134 150 L 126 154 L 118 158 L 110 162 L 118 166 L 126 170 L 134 166 L 142 162 L 150 158 L 158 154 L 166 150 L 172.5 146.75 L 172.5 145.25 L 166 142 L 158 138 z" transform="translate(0,860.36216)" style="fill:#fff"/><path id="path828-9-15-6" d="M 172.5 146.75 L 166 150 L 158 154 L 150 158 L 142 162 L 134 166 L 126 170 L 126 172.5 L 162.5 172.5 C 168.04 172.5 172.5 168.04 172.5 162.5 L 172.5 146.75 z" transform="translate(0,860.36216)" style="fill:#ececec"/><path id="path828-3-54-6" d="M 110 162 L 110 172 L 110 172.5 L 126 172.5 L 126 170 L 118 166 L 110 162 z" transform="translate(0,860.36216)" style="fill:#fff"/><path id="path828-3-54-1-2" d="m 46,972.36216 v 10 10 l 8,4 8,4.00004 v -10.00004 -10 l -8,-4 z" style="fill:#ff837d"/><path id="path828-3-54-1" d="M 38 96 L 38 106 L 38 116 L 46 120 L 54 124 L 54 114 L 54 104 L 46 100 L 38 96 z" transform="translate(0,860.36216)" style="fill:#f9de81"/><path id="path828-9-15-3-9" d="M 78 92 L 70 96 L 62 100 L 54 104 L 54 114 L 54 124 L 62 120 L 70 116 L 78 112 L 78 102 L 78 92 z" transform="translate(0,860.36216)" style="fill:#f8c18c"/><path id="path939-7-0" d="M 62 84 L 54 88 L 46 92 L 38 96 L 46 100 L 54 104 L 62 100 L 70 96 L 78 92 L 70 88 L 62 84 z" transform="translate(0,860.36216)" style="fill:#f9de81"/><path id="path828-9-15-3-9-8" d="M 78 112 L 70 116 L 62 120 L 62 130 L 62 140 L 70 136 L 78 132 L 78 122 L 78 112 z" transform="translate(0,860.36216)" style="fill:#dc505e"/><path id="path828-3-54-1-6" d="m 38,956.36216 v 10 10 l 8,4 8,4 v -10 -10 l -8,-4 z" style="fill:#fff;opacity:.25"/></g><style id="style853" type="text/css"/><style id="style907" type="text/css"/></svg>