<svg xmlns="http://www.w3.org/2000/svg" xmlns:svg="http://www.w3.org/2000/svg" id="svg2" width="192" height="192" version="1.1" viewBox="0 0 192 192"><metadata id="metadata7"/><g id="layer1" transform="translate(0,-860.36216)"><path id="path921" d="m 165.94336,1006.744 -61.2831,35.3818 a 17.320516,17.320516 0 0 1 -17.320515,0 l -61.28311,-35.3818 a 17.320504,17.320504 59.999994 0 1 -8.660255,-15 v -70.76366 a 17.320508,17.320508 120 0 1 8.660254,-15 l 61.283112,-35.38182 a 17.320509,17.320509 0 0 1 17.320504,0 l 61.28312,35.38182 a 17.320508,17.320508 60 0 1 8.66025,15 V 991.744 a 17.320504,17.320504 120.00001 0 1 -8.66026,15 z" style="fill:#708cbd;fill-opacity:1;stroke-width:.169439;stroke-linecap:round;stroke-linejoin:round;stop-color:#000"/><polygon id="polygon1011" d="M 76.086927,65.114516 66.086434,111.52843 a 2.4241831,2.4241831 51.099575 0 0 2.36811,2.93479 l 115.090916,0.0801 a 2.3962473,2.3962473 128.65598 0 0 2.33903,-2.92419 L 175.37894,65.1081 a 3.753192,3.753192 38.636031 0 0 -3.66097,-2.926282 H 79.718816 a 3.7152364,3.7152364 141.07962 0 0 -3.631889,2.932698 z" points="76.719 62.182 65.455 114.461 186.545 114.545 174.718 62.182" transform="matrix(0.38457853,0,0,0.38457853,46.913794,899.72423)" style="fill:#fff;fill-rule:nonzero;stroke:none;stroke-width:1"/><polygon id="polygon1013" d="M 63.619361,132.67436 35.15293,153.39082 a 3.3051564,3.3051564 101.72557 0 0 -0.90288,4.35006 l 42.439701,72.03797 a 5.249294,5.249294 29.748201 0 0 4.522777,2.58479 h 12.128774 a 7.7315959,7.7315959 158.79284 0 0 5.21486,-2.02346 l 17.047158,-15.57401 a 6.8042133,6.8042133 113.79284 0 0 2.21486,-5.02346 l 0,-3.7307 a 6.9240033,6.9240033 66.574104 0 0 -2.18876,-5.05166 L 97.713451,184.16658 a 6.9240033,6.9240033 66.574104 0 1 -2.188761,-5.05166 v -26.86106 a 5.4002897,5.4002897 60.946701 0 0 -2.547098,-4.58502 L 68.592116,132.49411 a 4.4528218,4.4528218 177.92407 0 0 -4.972755,0.18025 z" points="66.045 130.909 32.727 155.156 78.213 232.364 96.341 232.364 117.818 212.743 117.818 203.012 95.525 182.115 95.525 149.254" transform="matrix(0.38457853,0,0,0.38457853,46.913794,899.72423)" style="fill:#fff;fill-rule:nonzero;stroke:none;stroke-width:1"/><polygon id="polygon1015" d="m 159.79502,152.49314 v 26.86106 a 6.8960259,6.8960259 113.51064 0 1 -2.19482,5.04518 l -17.95084,16.72697 a 6.818484,6.818484 113.27272 0 0 -2.16991,5.04508 l 0.0323,3.89042 a 6.7792015,6.7792015 65.653332 0 0 2.26195,4.99881 l 17.12718,15.30407 a 7.8598239,7.8598239 20.891252 0 0 5.23704,1.99891 l 11.98737,0 a 5.2537527,5.2537527 150.27275 0 0 4.52467,-2.58368 l 42.37081,-71.80091 a 3.3130159,3.3130159 78.384053 0 0 -0.89551,-4.35645 l -28.58822,-20.94074 a 4.3987487,4.3987487 1.9281413 0 0 -4.95411,-0.16678 l -24.254,15.37207 a 5.4531827,5.4531827 118.81684 0 0 -2.53393,4.60599 z" points="159.795 149.493 159.795 182.354 137.455 203.172 137.537 213.062 159.138 232.364 177.125 232.364 222.545 155.395 189.117 130.909" transform="matrix(0.38457853,0,0,0.38457853,46.913794,899.72423)" style="fill:#fff;fill-rule:nonzero;stroke:none;stroke-width:1"/><polygon id="polygon1017" d="m 157.36364,121.09091 -59.454549,0 a 2.0392605,2.0392605 124.20604 0 0 -1.896215,2.78956 l 8.811984,22.27027 a 12.109048,12.109048 82.326859 0 1 0.77762,5.77178 l -2.74466,25.09526 a 2.6854571,2.6854571 48.075022 0 0 2.67383,2.97742 l 44.20943,-0.0707 a 2.7149215,2.7149215 132.05268 0 0 2.69667,-2.98943 l -2.54178,-25.01018 a 12.521184,12.521184 97.670689 0 1 0.77883,-5.78265 l 8.60668,-22.25335 a 2.0562807,2.0562807 55.572211 0 0 -1.91784,-2.79802 z" points="160.364 121.091 94.909 121.091 105.929 148.94 102.532 180 152.741 179.92 149.593 148.94" transform="matrix(0.38457853,0,0,0.38457853,46.913794,899.72423)" style="fill:#fff;fill-rule:nonzero;stroke:none;stroke-width:1"/></g><style id="style853" type="text/css"/></svg>