<svg xmlns="http://www.w3.org/2000/svg" xmlns:svg="http://www.w3.org/2000/svg" id="svg2" width="192" height="192" version="1.1" viewBox="0 0 192 192"><metadata id="metadata7"/><g id="layer1" transform="translate(0,-860.36216)"><circle id="circle1062" cx="96" cy="956.362" r="88" style="fill:#f8c18c;fill-opacity:1;fill-rule:evenodd;stroke:none;stroke-opacity:1"/><path style="color:#000;font-style:normal;font-variant:normal;font-weight:400;font-stretch:normal;font-size:medium;line-height:normal;font-family:sans-serif;font-variant-ligatures:normal;font-variant-position:normal;font-variant-caps:normal;font-variant-numeric:normal;font-variant-alternates:normal;font-variant-east-asian:normal;font-feature-settings:normal;font-variation-settings:normal;text-indent:0;text-align:start;text-decoration:none;text-decoration-line:none;text-decoration-style:solid;text-decoration-color:#000;letter-spacing:normal;word-spacing:normal;text-transform:none;writing-mode:lr-tb;direction:ltr;text-orientation:mixed;dominant-baseline:auto;baseline-shift:baseline;text-anchor:start;white-space:normal;shape-padding:0;shape-margin:0;inline-size:0;clip-rule:nonzero;display:inline;overflow:visible;visibility:visible;isolation:auto;mix-blend-mode:normal;color-interpolation:sRGB;color-interpolation-filters:linearRGB;solid-color:#000;solid-opacity:1;vector-effect:none;fill:#fff;fill-opacity:1;fill-rule:nonzero;stroke:none;stroke-width:11.8891;stroke-linecap:round;stroke-linejoin:round;stroke-miterlimit:4;stroke-dasharray:none;stroke-dashoffset:0;stroke-opacity:1;color-rendering:auto;image-rendering:auto;shape-rendering:auto;text-rendering:auto;enable-background:accumulate;stop-color:#000" id="path1009" d="m 78.244617,915.84368 -0.05508,36.16082 c 0,7.68096 4.988091,14.27968 11.865898,16.7539 v 9.56509 a 1.9815204,1.9815204 0 0 0 1.981521,1.98154 h 7.9261 a 1.9815204,1.9815204 0 0 0 1.981514,-1.98154 v -9.56509 c 6.87782,-2.47422 11.8659,-9.07294 11.8659,-16.7539 l -0.0551,-36.16082 a 1.9845389,1.9845389 0 0 0 -1.98452,-1.98152 h -7.96866 a 1.9762998,1.9762998 0 0 0 -1.97629,1.98152 l 0.0954,36.16082 c 0,3.38312 -2.538206,5.92134 -5.921337,5.92134 -3.383138,0 -5.921347,-2.53821 -5.921347,-5.92134 l 0.09541,-36.16082 a 1.9762998,1.9762998 0 0 0 -1.976289,-1.98152 h -7.968646 a 1.9845389,1.9845389 0 0 0 -1.984532,1.98152 z"/><circle id="circle1011" cx="96" cy="992.21" r="6.652" style="fill:#fff;fill-opacity:1;stroke:none;stroke-width:19.91;stroke-linecap:round;stroke-linejoin:round;stroke-miterlimit:4;stroke-dasharray:none;stroke-opacity:1;stop-color:#000"/></g><style id="style853" type="text/css"/><style id="style853-9" type="text/css"/><style id="style853-3" type="text/css"/></svg>