<svg xmlns="http://www.w3.org/2000/svg" xmlns:svg="http://www.w3.org/2000/svg" id="svg2" width="192" height="192" version="1.1" viewBox="0 0 192 192"><metadata id="metadata7"/><g id="layer1" transform="translate(0,-860.36216)"><path style="clip-rule:evenodd;fill:#ff837d;fill-opacity:1;fill-rule:evenodd;stroke-width:2.69938" id="path953" d="m 57.467605,885.3939 c -5.288108,0 -10.573491,2.03264 -14.439016,6.10061 l -29.080493,29.0805 c -7.9307966,7.9308 -7.9307966,20.94454 0,29.0805 l 74.84576,74.66129 a 10.321443,10.321443 0 0 0 14.596724,-0.019 l 74.66131,-74.84574 c 7.93082,-7.93079 7.93082,-20.94454 0,-29.08049 L 148.9714,891.49624 c -4.06797,-4.06797 -9.35338,-6.10062 -14.43902,-6.10062 -5.28809,0 -10.5735,2.03265 -14.64146,6.10062 L 96.098532,915.49099 72.103678,891.49614 c -4.067969,-4.06797 -9.353374,-6.10062 -14.641481,-6.10062 z"/></g><style id="style853" type="text/css"/></svg>