<svg xmlns="http://www.w3.org/2000/svg" xmlns:xlink="http://www.w3.org/1999/xlink" width="100%" height="100%" version="1.1" viewBox="0 0 192 192" xml:space="preserve" style="fill-rule:evenodd;clip-rule:evenodd;stroke-linejoin:round;stroke-miterlimit:2"><g id="Layer1"><g><path d="M164.5,21.5C164.5,15.981 160.019,11.5 154.5,11.5L21.5,11.5C15.981,11.5 11.5,15.981 11.5,21.5L11.5,154.5C11.5,160.019 15.981,164.5 21.5,164.5L154.5,164.5C160.019,164.5 164.5,160.019 164.5,154.5L164.5,21.5Z" transform="matrix(1,0,0,1,8,8)" style="fill:#9abeff"/></g><g><path d="M127.342,119.292L95.524,136.612L95.145,136.612L64.658,119.312L64.658,100.282L95.692,118.199L127.342,100.239L127.342,119.292Z" transform="matrix(0.840852,0,0,0.840852,15.2782,15.2735)" style="fill:#fff"/><path d="M144.869,82.245L144.876,82.245L144.876,117.701L135.928,117.701L135.928,87.325L95.692,110.158L47.124,82.117L95.423,55.328L144.869,82.245Z" transform="matrix(0.840852,0,0,0.840852,15.2782,15.2735)" style="fill:#fff"/></g></g></svg>