<svg xmlns="http://www.w3.org/2000/svg" xmlns:svg="http://www.w3.org/2000/svg" id="svg2" width="192" height="192" version="1.1" viewBox="0 0 192 192"><metadata id="metadata7"/><g id="layer1" transform="translate(0,-860.36216)"><rect id="rect1059" width="152" height="152" x="20" y="880.363" rx="9.935" ry="9.935" style="fill:#54688c;fill-opacity:1;fill-rule:evenodd;stroke:none;stroke-width:.993464;stroke-opacity:1"/><path style="fill:#fff;fill-opacity:1;fill-rule:evenodd;stroke:none;stroke-width:.993464;stroke-opacity:1" id="path1061" d="m 20,976.43789 v 45.98911 c -10e-6,5.5038 4.43163,9.9355 9.93542,9.9355 h 132.12916 c 5.50378,0 9.93541,-4.4316 9.93542,-9.9355 v -45.98911 z"/><path style="fill:#708cbd;fill-opacity:1;stroke:none;stroke-width:3.65963;stroke-linecap:round;stroke-linejoin:round;stop-color:#000" id="path1063" d="M 116.21059,880.3625 172,936.15191 l -1e-5,-45.854 c 1e-5,-5.50378 -4.43161,-9.93541 -9.93541,-9.93541 z"/><text id="text1067" x="40.001" y="962.865" xml:space="preserve" style="font-style:normal;font-variant:normal;font-weight:700;font-stretch:normal;font-size:30.3313px;line-height:1.25;font-family:'Now alt';-inkscape-font-specification:'Now alt Bold';letter-spacing:0;word-spacing:0;fill:#fff;fill-opacity:1;stroke-width:.758281"><tspan style="fill:#fff;fill-opacity:1;stroke-width:.758281" id="tspan1065" x="40.001" y="962.865">Danske</tspan></text><path style="fill:#f9de81;fill-opacity:1;stroke:none;stroke-width:4.51712;stroke-linecap:round;stroke-linejoin:round;stop-color:#000" id="path1069" d="M 127.7953,880.3625 172,924.56718 V 914.04957 L 138.31292,880.3625 Z"/><path style="fill:#f9de81;fill-opacity:1;stroke:none;stroke-width:4.51712;stroke-linecap:round;stroke-linejoin:round;stop-color:#000" id="path1071" d="m 166.38488,881.3417 c -1.30408,-0.62694 -2.77189,-0.97993 -4.32061,-0.97993 h -5.22042 l -11.89929,11.89928 -8.4176,8.41761 5.26048,5.26048 8.41761,-8.4176 z"/><text id="text1075" x="56.475" y="1012.767" xml:space="preserve" style="font-style:normal;font-variant:normal;font-weight:700;font-stretch:normal;font-size:30.3313px;line-height:1.25;font-family:'Now alt';-inkscape-font-specification:'Now alt Bold';letter-spacing:0;word-spacing:0;fill:#54688c;fill-opacity:1;stroke-width:.758281"><tspan style="fill:#54688c;fill-opacity:1;stroke-width:.758281" id="tspan1073" x="56.475" y="1012.767">Bank</tspan></text></g><style id="style853" type="text/css"/><style id="style853-9" type="text/css"/><style id="style853-3" type="text/css"/></svg>