<svg xmlns="http://www.w3.org/2000/svg" xmlns:svg="http://www.w3.org/2000/svg" id="svg2" width="192" height="192" version="1.1" viewBox="0 0 192 192"><metadata id="metadata7"/><g id="layer1" transform="translate(0,-860.36216)"><rect id="rect1030" width="153" height="153" x="19.5" y="879.862" rx="10" ry="10" style="fill:#fff;fill-opacity:1;fill-rule:evenodd;stroke:none;stroke-opacity:1"/><path style="font-weight:700;font-size:136.769px;line-height:1.25;font-family:Now;-inkscape-font-specification:'Now Bold';letter-spacing:0;word-spacing:0;fill:#8c72bd;fill-opacity:1;stroke-width:.999998" id="path1274" d="m 103.53898,982.1061 -22.144525,8.3418 c 2.867408,1.54237 6.135462,2.41406 9.632813,2.41406 4.8456,0 8.849585,-1.68513 12.009762,-4.5293 v 3.79297 l 13.37891,-0.10742 v -5.0625 z"/><path style="fill:#f8c18c;fill-opacity:1;stroke-width:13.8079;stroke-linecap:round;stroke-linejoin:round;stop-color:#000" id="path1262" d="m 91.027268,949.04165 c 0.431725,0 0.853613,0.0176 1.269531,0.0488 -0.416864,-0.029 -0.837755,-0.0488 -1.269531,-0.0488 z m 1.347656,0.0566 c 0.405579,0.0321 0.805978,0.0751 1.201172,0.12695 h 0.002 c 0.01956,0.003 0.03906,0.005 0.05859,0.008 -0.01858,-0.002 -0.03607,-0.007 -0.05469,-0.01 -0.146124,-0.0192 -0.289889,-0.0441 -0.4375,-0.0606 -0.253489,-0.0274 -0.511768,-0.0455 -0.769531,-0.0644 z m -5.208984,0.3125 c -0.416042,0.0802 -0.827747,0.1729 -1.234375,0.27734 -0.0032,8.3e-4 -0.0066,10e-4 -0.0098,0.002 -0.09378,0.0241 -0.186523,0.05 -0.279297,0.0762 0.500558,-0.13653 1.007383,-0.25701 1.523438,-0.35547 z m -1.523438,0.35547 c -0.03903,0.011 -0.07806,0.0223 -0.117187,0.0332 -0.01315,0.004 -0.02593,0.008 -0.03906,0.0117 -0.09292,0.0262 -0.183075,0.0585 -0.27539,0.0859 0.144193,-0.0428 0.286105,-0.0912 0.43164,-0.13086 z m -0.43164,0.13086 c -0.258566,0.0769 -0.517268,0.15331 -0.771485,0.24023 -0.164487,0.0562 -0.329643,0.10958 -0.492187,0.16992 0.413694,-0.15331 0.838036,-0.2837 1.263672,-0.41015 z m 9.71875,-0.44336 c 1.269068,0.2644 2.467131,0.65785 3.595701,1.16601 -1.12704,-0.51131 -2.326091,-0.90259 -3.595701,-1.16601 z m -10.990235,0.85742 c -0.09545,0.0352 -0.192435,0.0667 -0.287109,0.10351 -0.0014,5.3e-4 -0.0025,10e-4 -0.0039,0.002 -0.307191,0.12049 -0.610112,0.25061 -0.910157,0.38477 0.393761,-0.17585 0.794722,-0.33934 1.201172,-0.49024 z m -1.201172,0.49023 c -0.06406,0.0286 -0.131593,0.0508 -0.195312,0.0801 -0.07403,0.034 -0.143312,0.0764 -0.216797,0.11133 0.136751,-0.0649 0.27372,-0.12952 0.412109,-0.19141 z m -0.447265,0.20899 c -0.434458,0.20788 -0.861223,0.42886 -1.277344,0.66797 0.06965,-0.0404 0.138432,-0.0821 0.208985,-0.1211 0.349963,-0.19298 0.706481,-0.37448 1.068359,-0.54687 z m -1.277344,0.66797 c -0.09564,0.0554 -0.191878,0.10988 -0.287109,0.16601 -0.280889,0.16558 -0.557741,0.33699 -0.830078,0.51563 0.364301,-0.23943 0.738612,-0.46411 1.117187,-0.68164 z m -2.779297,1.8789 c -0.02727,0.022 -0.05291,0.0462 -0.08008,0.0684 -0.586951,0.47948 -1.150567,0.98908 -1.683594,1.53125 -0.25199,0.25614 -0.495178,0.51972 -0.734375,0.78906 -3.186478,3.58805 -5.196912,8.33063 -5.503906,13.61133 l 9.554688,3.59961 -8.94336,3.36914 v 0.002 l 12.845703,-4.83985 c -0.01732,-0.244 -0.03516,-0.48742 -0.03516,-0.73633 0,-5.58298 4.424837,-10.00781 10.007813,-10.00781 3.242543,0 6.143325,1.55718 7.978512,3.98047 l 3.38476,-1.27344 -1.73047,-0.65234 -23.138662,-8.7168 -1.917969,-0.72265 z m -7.390625,22.96875 -0.02344,-0.0645 c 0.0054,0.0225 0.0082,0.0459 0.01367,0.0684 z m -0.02344,-0.0645 c -0.08469,-0.35295 -0.157962,-0.71045 -0.226563,-1.07031 0.06726,0.35246 0.136102,0.70489 0.21875,1.05078 z m -0.587891,-6.9043 -0.01758,-0.006 c -0.0268,0.46283 -0.04492,0.92964 -0.04492,1.40039 0,-0.47105 0.03558,-0.93145 0.0625,-1.39453 z m -0.0625,1.39453 c 0,0.48254 0.01457,0.96147 0.04297,1.43555 -0.02832,-0.47411 -0.04297,-0.95305 -0.04297,-1.43555 z m 0.05273,1.53516 c 0.0279,0.43485 0.06422,0.86594 0.115234,1.29297 -0.05088,-0.4269 -0.08743,-0.85828 -0.115234,-1.29297 z m 0.166015,1.63281 c 0.04736,0.35246 0.09555,0.70421 0.158203,1.05078 -0.06257,-0.34655 -0.110941,-0.69832 -0.158203,-1.05078 z"/><path style="fill:#97db99;fill-opacity:1;stroke-width:13.8079;stroke-linecap:round;stroke-linejoin:round;stop-color:#000" id="path1280" d="m 105.02727,963.65102 -3.38672,1.27539 c 1.26452,1.67035 2.02734,3.74767 2.02734,6.02539 0,4.03011 -2.3651,7.44699 -5.738277,9.04102 l 5.609367,2.11328 12.87696,-4.85156 v -9.31446 z m -21.337893,8.03711 -3.90039,1.46875 4.6875,1.76758 c -0.426912,-1.00314 -0.705734,-2.08851 -0.78711,-3.23633 z"/><path style="fill:#bd9aff;fill-opacity:1;stroke-width:13.8079;stroke-linecap:round;stroke-linejoin:round;stop-color:#000" id="path1266" d="m 103.66789,970.9518 c 0,0.30541 -0.0184,0.60636 -0.0449,0.9043 0.0266,-0.29804 0.0449,-0.59866 0.0449,-0.9043 z m -0.0449,0.9043 c -0.009,0.10088 -0.0212,0.20085 -0.0332,0.30078 0.0119,-0.10007 0.0242,-0.19977 0.0332,-0.30078 z m -0.0332,0.30078 c -0.0267,0.22325 -0.0606,0.44388 -0.10157,0.66211 0.0412,-0.21837 0.0748,-0.43865 0.10157,-0.66211 z m -0.10157,0.66211 c -0.0151,0.0801 -0.0279,0.16082 -0.0449,0.24024 0.0169,-0.0794 0.0299,-0.16008 0.0449,-0.24024 z m -0.0449,0.24024 c -0.0597,0.27968 -0.13047,0.5541 -0.21289,0.82421 0.0825,-0.26957 0.15308,-0.54503 0.21289,-0.82421 z m -0.21289,0.82421 c -0.0259,0.0846 -0.0559,0.16647 -0.084,0.25 0.0279,-0.0835 0.0582,-0.16546 0.084,-0.25 z m -0.084,0.25 c -0.0652,0.19492 -0.13626,0.38699 -0.2129,0.57618 0.077,-0.18925 0.14742,-0.38116 0.2129,-0.57618 z m -0.2129,0.57618 c -0.0418,0.10273 -0.0838,0.20569 -0.1289,0.30664 0.045,-0.10122 0.0872,-0.20364 0.1289,-0.30664 z m -0.1289,0.30664 c -0.0407,0.0915 -0.0875,0.17957 -0.13086,0.26953 0.0435,-0.09 0.09,-0.17803 0.13086,-0.26953 z m -0.13086,0.26953 c -0.17214,0.35619 -0.3607,0.70258 -0.57227,1.0332 0.21118,-0.33118 0.40051,-0.67649 0.57227,-1.0332 z m -0.57227,1.0332 c -0.0193,0.0303 -0.037,0.0617 -0.0566,0.0918 0.0197,-0.0301 0.0372,-0.0615 0.0566,-0.0918 z m -0.0566,0.0918 c -0.24863,0.37942 -0.52201,0.74124 -0.81836,1.08203 0.29581,-0.34133 0.57027,-0.70207 0.81836,-1.08203 z m -0.81836,1.08203 c -0.2991,0.34396 -0.62025,0.66669 -0.96289,0.9668 0.34201,-0.30048 0.66444,-0.62243 0.96289,-0.9668 z m -17.537103,-5.80469 c 0.0214,0.30189 0.05766,0.59973 0.105469,0.89258 -0.04678,-0.29324 -0.08408,-0.59088 -0.105469,-0.89258 z m 0.105469,0.89258 c 0.03476,0.21785 0.08456,0.42993 0.132813,0.64258 -0.04926,-0.21232 -0.09728,-0.42494 -0.132813,-0.64258 z m 0.132813,0.64258 c 0.01216,0.0524 0.02024,0.10613 0.0332,0.1582 -0.01271,-0.0521 -0.02129,-0.10572 -0.0332,-0.1582 z m 0.0332,0.1582 c 0.06115,0.25083 0.13357,0.49562 0.21289,0.73828 -0.08012,-0.24192 -0.150653,-0.48835 -0.21289,-0.73828 z m -4.171875,-0.22461 -8.945313,3.3711 c 1.484411,6.0983 5.348326,11.12151 10.550781,13.91992 l 22.144528,-8.3418 -5.609367,-2.11328 c -1.299554,0.61399 -2.744298,0.96484 -4.267582,0.96484 -4.163162,0 -7.667559,-2.46639 -9.185547,-6.0332 l -4.685547,-1.76758 z m 4.402344,1.01758 c 0.08351,0.2506 0.177173,0.49537 0.279296,0.73633 -0.102067,-0.24077 -0.194979,-0.48641 -0.279296,-0.73633 z m 16.048832,4.30664 c -0.692027,0.60227 -1.467637,1.11154 -2.304687,1.50781 0.83847,-0.39686 1.61231,-0.90337 2.304687,-1.50781 z"/><path style="font-weight:700;font-size:136.769px;line-height:1.25;font-family:Now;-inkscape-font-specification:'Now Bold';letter-spacing:0;word-spacing:0;fill:#99bdfe;fill-opacity:1;stroke-width:.999998" id="path1292" d="m 116.41594,921.97133 -12.56446,4.73438 12.56446,4.73437 z"/><path style="fill:#f8c18c;fill-opacity:1;stroke-width:13.8079;stroke-linecap:round;stroke-linejoin:round;stop-color:#000" id="path1270" d="m 70.215308,969.55213 c -0.0268,0.46283 -0.04455,0.92884 -0.04455,1.39959 0,1.9326 0.230855,3.80132 0.663097,5.57911 l 8.953538,-3.37321 z m 9.572105,3.60549 3.902738,-1.4694 v 0 z"/><path style="fill:#000;fill-opacity:.15;stroke-width:13.8079;stroke-linecap:round;stroke-linejoin:round;stop-color:#000" id="path1272" d="m 70.215308,969.55213 c -0.0268,0.46283 -0.04455,0.92884 -0.04455,1.39959 0,1.9326 0.230855,3.80132 0.663097,5.57911 l 8.953538,-3.37321 z m 9.572105,3.60549 3.902738,-1.4694 v 0 z"/><path style="font-weight:700;font-size:136.769px;line-height:1.25;font-family:Now;-inkscape-font-specification:'Now Bold';letter-spacing:0;word-spacing:0;fill:#70a270;fill-opacity:1;stroke-width:.999998" id="path1276" d="m 116.41512,977.25531 -12.87554,4.84983 12.87554,4.85103 z"/><path style="fill:#ff837d;fill-opacity:1;stroke-width:13.8079;stroke-linecap:round;stroke-linejoin:round;stop-color:#000" id="path1278" d="m 78.238205,953.55923 c -0.02509,0.0203 -0.05119,0.0382 -0.07617,0.0586 -0.21878,0.17841 -0.431078,0.3654 -0.642579,0.55273 -0.07657,0.0679 -0.156832,0.13217 -0.232421,0.20117 -0.08779,0.0801 -0.1718,0.16407 -0.257813,0.2461 0.390551,-0.3675 0.792647,-0.72207 1.208983,-1.0586 z"/><path style="fill:#ff837d;fill-opacity:1;stroke-width:13.8079;stroke-linecap:round;stroke-linejoin:round;stop-color:#000" id="path1071" d="m 78.357346,953.46548 c -0.04008,0.0319 -0.0832,0.0596 -0.123047,0.0918 l 0.0039,0.002 c 0.03934,-0.0318 0.07957,-0.0622 0.119141,-0.0937 z"/><path style="fill:#ff837d;fill-opacity:1;stroke-width:13.8079;stroke-linecap:round;stroke-linejoin:round;stop-color:#000" id="path1069" d="m 93.578049,949.22524 0.03906,-0.0156 c -0.177976,-0.0236 -0.362441,-0.0339 -0.542969,-0.0527 0.170583,0.0177 0.335637,0.0463 0.503906,0.0684 z"/><path style="fill:#ff837d;fill-opacity:1;stroke-width:13.8079;stroke-linecap:round;stroke-linejoin:round;stop-color:#000" id="path1067" d="m 75.79094,955.88735 c 0.334454,-0.37379 0.683396,-0.73282 1.042969,-1.08008 -0.06394,0.0625 -0.12989,0.12246 -0.19336,0.18555 -0.0594,0.0591 -0.120956,0.114 -0.179687,0.17383 -0.02108,0.0214 -0.04155,0.0449 -0.0625,0.0664 -0.207587,0.21315 -0.408685,0.43207 -0.607422,0.65429 z"/><path style="fill:#ff837d;fill-opacity:1;stroke-width:13.8079;stroke-linecap:round;stroke-linejoin:round;stop-color:#000" id="path1065" d="m 80.156174,954.28188 -4.417969,1.66211 c 0.01717,-0.0193 0.03551,-0.0374 0.05273,-0.0566 -0.01877,0.021 -0.03991,0.0395 -0.05859,0.0606 z"/><path style="fill:#ff837d;fill-opacity:1;stroke-width:13.8079;stroke-linecap:round;stroke-linejoin:round;stop-color:#000" id="path1063" d="m 103.83,945.36196 -0.79297,0.29883 v 7.91015 c -2.58534,-2.3268 -5.745353,-3.8584 -9.458981,-4.3457 l -13.421875,5.05664 24.873046,9.36914 11.38672,-4.29101 v -9.25586 z"/><path style="fill:#97db99;fill-opacity:1;stroke-width:13.8079;stroke-linecap:round;stroke-linejoin:round;stop-color:#000" id="path1282" d="m 116.41512,959.36025 -11.38809,4.29024 11.38809,4.29024 z"/><path style="fill:#fff;fill-opacity:.25;stroke-width:13.8079;stroke-linecap:round;stroke-linejoin:round;stop-color:#000" id="path1284" d="m 116.41512,959.36025 -11.38809,4.29024 11.38809,4.29024 z"/><path style="fill:#ff837d;fill-opacity:1;stroke-width:13.8079;stroke-linecap:round;stroke-linejoin:round;stop-color:#000" id="path1286" d="m 116.41594,940.62173 -12.58594,4.74023 12.58594,4.74219 z"/><path id="path1120" d="m 116.41594,940.62173 -12.58594,4.74023 12.58594,4.74219 z" style="fill:#fff;fill-opacity:.25;stroke-width:13.8079;stroke-linecap:round;stroke-linejoin:round;stop-color:#000"/><path style="fill:#708cbd;fill-opacity:1;stroke-width:13.8079;stroke-linecap:round;stroke-linejoin:round;stop-color:#000" id="path1290" d="m 103.85148,926.70571 -0.81445,0.30664 v 18.64844 l 13.37891,-5.03906 v -9.18165 z"/><path style="fill:#99bdfe;fill-opacity:1;stroke-width:13.8079;stroke-linecap:round;stroke-linejoin:round;stop-color:#000" id="path1294" d="m 103.03655,919.86236 v 7.1496 l 13.37857,-5.03998 v -2.10962 z"/><path style="fill:#fff;fill-opacity:.25;stroke-width:13.8079;stroke-linecap:round;stroke-linejoin:round;stop-color:#000" id="path1051" d="m 103.03655,919.86236 v 7.1496 l 13.37857,-5.03998 v -2.10962 z"/><path id="path1296" d="m 91.027484,949.04081 c -6.103309,0 -11.513787,2.64426 -15.295641,6.9065 l 17.885432,-6.73682 c -0.834906,-0.11095 -1.697767,-0.16968 -2.589791,-0.16968 z" style="fill:#ff837d;fill-opacity:1;stroke-width:13.8079;stroke-linecap:round;stroke-linejoin:round;stop-color:#000"/><path id="path1298" d="m 91.027484,949.04081 c -6.103309,0 -11.513787,2.64426 -15.295641,6.9065 l 17.885432,-6.73682 c -0.834906,-0.11095 -1.697767,-0.16968 -2.589791,-0.16968 z" style="fill:#ff837d;fill-opacity:1;stroke-width:13.8079;stroke-linecap:round;stroke-linejoin:round;stop-color:#000"/><path style="fill:#f79d3a;fill-opacity:1;stroke-width:13.8079;stroke-linecap:round;stroke-linejoin:round;stop-color:#000" id="path1300" d="m 78.238596,953.5585 c -0.02509,0.0203 -0.05083,0.0398 -0.07581,0.0602 -0.21878,0.17841 -0.43234,0.36385 -0.643841,0.55118 -0.07657,0.0679 -0.15547,0.13317 -0.231059,0.20217 -0.220833,0.20147 -0.435119,0.40992 -0.647447,0.62097 -0.0594,0.0591 -0.121784,0.11467 -0.180515,0.1745 -0.02108,0.0214 -0.04042,0.0447 -0.06137,0.0662 -0.225581,0.23163 -0.44547,0.46894 -0.660682,0.71123 l 4.417803,-1.66314 z"/><path id="path1302" d="m 91.027484,949.04081 c -6.103309,0 -11.513787,2.64426 -15.295641,6.9065 l 17.885432,-6.73682 c -0.834906,-0.11095 -1.697767,-0.16968 -2.589791,-0.16968 z" style="fill:#fff;fill-opacity:.25;stroke-width:13.8079;stroke-linecap:round;stroke-linejoin:round;stop-color:#000"/></g><style id="style853" type="text/css"/></svg>