<svg xmlns="http://www.w3.org/2000/svg" xmlns:svg="http://www.w3.org/2000/svg" id="svg2" width="192" height="192" version="1.1" viewBox="0 0 192 192"><metadata id="metadata7"/><g id="layer1" transform="translate(0,-860.36216)"><path id="path2136" d="m 44.417404,888.65895 -18.834416,27.98818 a 32.771673,32.771673 106.96913 0 0 -5.582992,18.2964 v 87.41857 c 0,5.54 4.46,10 10,10 H 162 c 5.54,0 10,-4.46 10,-10 v -87.41857 a 32.772654,32.772654 73.031352 0 0 -5.58285,-18.29649 l -18.8339,-27.98842 a 18.78236,18.78236 28.031221 0 0 -15.58285,-8.29644 l -72.000004,3.2e-4 a 18.782945,18.782945 151.969 0 0 -15.582992,8.29645 z M 67.048796,899.4383 H 124.9531 c 4.1815,0 7.5469,3.36739 7.5469,7.54883 0,4.18144 -3.3654,7.54687 -7.5469,7.54687 H 67.048796 c -4.1815,0 -7.5488,-3.36543 -7.5488,-7.54687 0,-4.18144 3.3673,-7.54883 7.5488,-7.54883 z" style="fill:#fe827c;fill-opacity:1"/><g style="fill:#fff;fill-opacity:1" id="g2142" transform="matrix(0.73383016,0,0,0.73383016,59.492296,933.99466)"><path id="path2140" d="m 95.64,38.878762 a 25.24,25.24 0 0 0 -22.37,-13.38 H 2.43 a 2.44,2.44 0 0 0 -1.71,4.16 l 15.43,15.52 a 7.26,7.26 0 0 0 5.15,2.14 h 49.94 a 6.440328,6.440328 0 1 1 0.13,12.88 H 36.94 a 2.44,2.44 0 0 0 -1.72,4.16 l 15.44,15.53 a 7.25,7.25 0 0 0 5.15,2.14 h 15.57 c 20.26,0 35.58,-21.66 24.26,-43.16" style="fill:#fff;fill-opacity:1"/></g></g><style id="style853" type="text/css"/></svg>