<svg xmlns="http://www.w3.org/2000/svg" xmlns:svg="http://www.w3.org/2000/svg" id="svg2" width="192" height="192" version="1.1" viewBox="0 0 192 192"><metadata id="metadata7"/><g id="layer1" transform="translate(0,-860.36216)"><path style="fill:#fefefe;fill-opacity:1;fill-rule:evenodd;stroke:none;stroke-opacity:1" id="path2336" d="M 184,956.36219 H 8 c 0,48.60111 39.398942,88.00001 88,88.00001 48.60106,0 88,-39.3989 88,-88.00001 z"/><path style="fill:#ebebeb;fill-opacity:1;fill-rule:evenodd;stroke:none;stroke-opacity:1" id="path2100" d="M 184,956.36218 H 8 c 0,-48.60106 39.398942,-88 88,-88 48.60106,0 88,39.39894 88,88 z"/><rect style="fill:#575a5c;fill-opacity:1;fill-rule:evenodd;stroke:none;stroke-width:.804706px;stroke-linecap:butt;stroke-linejoin:miter;stroke-opacity:1" id="rect4732" width="17.088" height="22.902" x="39.544" y="944.806" rx="12.552" ry="8.28"/><rect style="fill:#575a5c;fill-opacity:1;fill-rule:evenodd;stroke:none;stroke-width:.804706px;stroke-linecap:butt;stroke-linejoin:miter;stroke-opacity:1" id="rect4732-3" width="17.088" height="22.902" x="135.176" y="945.017" rx="12.552" ry="8.28"/><path style="fill:#575a5c;fill-opacity:1;fill-rule:evenodd;stroke:none;stroke-width:1px;stroke-linecap:butt;stroke-linejoin:miter;stroke-opacity:1" id="path4753" d="m 57.858398,986.01841 c -11.78817,0 -11.292601,10.53232 -6.119141,16.24219 12.686986,14.7734 28.492924,22.2608 44.259766,22.2871 6.5e-4,0 0.0013,0 0.002,0 15.766844,-0.026 31.572774,-7.5137 44.259764,-22.2871 5.17346,-5.70987 5.66903,-16.24219 -6.11914,-16.24219 h -38.140624 -0.002 z"/><path style="fill:#ff837d;fill-opacity:1;fill-rule:evenodd;stroke:none;stroke-width:1px;stroke-linecap:butt;stroke-linejoin:miter;stroke-opacity:1" id="path4769" d="m 96,1010.2759 c -11.295257,0.01 -21.143848,3.4393 -23.923828,8.3398 7.676181,3.9795 15.795249,5.9478 23.923828,5.932 8.12858,0.016 16.24765,-1.9525 23.92383,-5.932 -2.77998,-4.9005 -12.62857,-8.3337 -23.92383,-8.3398 z"/></g><style id="style853" type="text/css"/></svg>