<svg xmlns="http://www.w3.org/2000/svg" xmlns:svg="http://www.w3.org/2000/svg" id="svg2" width="192" height="192" version="1.1" viewBox="0 0 192 192"><metadata id="metadata7"/><g id="layer1" transform="translate(0,-860.36216)"><g id="g980" transform="translate(766.94584,558.85562)"><path id="path976" d="m -737.03847,322.75327 h 130.44691 l 8.64385,8.64591 v 51.81479 l -10.7636,14.29254 10.7636,14.29255 v 50.07581 l -8.64385,8.6459 h -130.44691 l -8.64413,-8.6459 v -50.07581 l 12.68469,-14.29254 -12.68469,-14.29255 v -51.81479 z" style="fill:#585b5d;fill-opacity:1;stroke-width:1.0001"/><path id="path978" d="m -604.06385,415.94499 v 43.44018 a 5,5 135 0 1 -5,5 h -123.76271 a 5,5 45 0 1 -5,-5 v -43.44018 a 12.072953,12.072953 112.49684 0 1 3.53514,-8.53592 l 7.05993,-7.06149 c 1.56835,-1.56872 1.56835,-4.11347 0,-5.68217 l -7.05992,-7.06147 a 12.072937,12.072937 67.503136 0 1 -3.53515,-8.53592 v -43.47504 a 5,5 135 0 1 5,-5 h 123.76271 a 5,5 45 0 1 5,5 v 43.44016 a 12.072969,12.072969 112.49681 0 1 -3.53514,8.53593 l -7.05993,7.0615 c -1.56835,1.56868 -1.56835,4.11345 0,5.68215 l 7.06574,7.09055 a 12.101048,12.101048 67.550204 0 1 3.52933,8.54172 z m -143.34706,-84.93847 v 52.663 a 12.072955,12.072955 67.503167 0 0 3.53514,8.53592 l 1.74732,1.74771 a 5.001112,5.001112 89.999964 0 1 0,7.07185 l -1.78217,1.78257 a 12.072977,12.072977 112.4968 0 0 -3.53514,8.53593 v 52.66307 a 10,10 45 0 0 10,10 h 132.96626 a 10,10 135 0 0 10,-10 v -52.66309 a 12.106725,12.106725 67.559688 0 0 -3.52816,-8.54289 l -1.76128,-1.76864 a 5.0109803,5.0109803 90.056533 0 1 0.007,-7.07881 l 1.78217,-1.78256 a 12.068531,12.068531 112.48943 0 0 3.53385,-8.53592 l -0.0136,-52.62815 a 10.002587,10.002587 44.992585 0 0 -10.00259,-10 l -132.94876,1e-5 a 10.000001,10.000001 135 0 0 -10,10 z" class="st0" style="fill:#fefefe;fill-opacity:1;stroke-width:1.0001"/></g><path id="path984" d="m 50.68694,949.97272 h 14.76668 c 12.30556,0 22.37374,-9.99361 22.37374,-22.37375 0,-12.38014 -10.06818,-22.37374 -22.37374,-22.37374 H 50.68694 Z m 9.84445,-8.72576 v -27.29597 h 4.84765 c 7.08501,0 12.60388,5.89175 12.60388,13.64798 0,7.75624 -5.51887,13.64799 -12.60388,13.64799 z" style="font-style:normal;font-variant:normal;font-weight:700;font-stretch:normal;font-size:40px;line-height:1.25;font-family:now;-inkscape-font-specification:'now Bold';letter-spacing:0;word-spacing:0;fill:#fefefe;fill-opacity:1;stroke-width:1.49158"/><path id="path986" d="m 130.79737,949.97272 h 10.51567 l -16.1091,-44.74749 h -11.03772 l -16.1091,44.74749 h 10.51567 l 2.75943,-8.42745 h 16.70572 z m -16.85488,-16.63115 5.74259,-17.74984 5.74259,17.74984 z" style="font-style:normal;font-variant:normal;font-weight:700;font-stretch:normal;font-size:40px;line-height:1.25;font-family:now;-inkscape-font-specification:'now Bold';letter-spacing:0;word-spacing:0;fill:#fefefe;fill-opacity:1;stroke-width:1.49158"/><path id="path988" d="M 86.41036,962.75161 H 53.96843 v 8.72576 h 17.15321 l -19.01769,36.02173 h 34.30641 v -8.72575 H 67.54184 Z" style="font-style:normal;font-variant:normal;font-weight:700;font-stretch:normal;font-size:40px;line-height:1.25;font-family:now;-inkscape-font-specification:'now Bold';letter-spacing:0;word-spacing:0;fill:#fefefe;fill-opacity:1;stroke-width:1.49158"/><path id="path990" d="m 130.87195,962.75161 v 29.60792 L 108.8711,962.75161 H 98.72833 v 44.74749 h 9.84445 v -29.6825 l 21.92627,29.6825 h 10.14278 v -44.74749 z" style="font-style:normal;font-variant:normal;font-weight:700;font-stretch:normal;font-size:40px;line-height:1.25;font-family:now;-inkscape-font-specification:'now Bold';letter-spacing:0;word-spacing:0;fill:#fefefe;fill-opacity:1;stroke-width:1.49158"/></g><style id="style853" type="text/css">.st0{fill:#fff}</style><style id="style852" type="text/css">.st0{fill-rule:evenodd;clip-rule:evenodd;fill:#fff}</style><style id="style853-5" type="text/css">.st0{fill:#fff}</style><style id="style852-6" type="text/css">.st0{fill-rule:evenodd;clip-rule:evenodd;fill:#fff}</style></svg>