<svg xmlns="http://www.w3.org/2000/svg" xmlns:svg="http://www.w3.org/2000/svg" id="Layer_1" width="192" height="192" x="0" y="0" enable-background="new 0 0 192 192" version="1.1" viewBox="0 0 192 192" xml:space="preserve"><metadata id="metadata25"/><rect id="rect927" width="153" height="153" x="19.5" y="19.5" rx="10" style="fill:#fff;fill-opacity:1;fill-rule:evenodd;stroke:none;stroke-opacity:1"/><path id="path917" fill="#ff867f" d="m 132.5,114.53061 c 0,3.89904 -3.16072,7.05976 -7.05976,7.05976 H 66.55976 c -3.899034,0 -7.059759,-3.15989 -7.059759,-7.05976 V 77.469384 c 0,-3.899033 3.160725,-7.059758 7.059759,-7.059758 h 58.88048 c 3.89904,0 7.05976,3.160725 7.05976,7.059758 z" style="fill:#ff847f;fill-opacity:1;stroke-width:.833305"/><path id="path919" fill="#f2f5f9" d="m 127.20518,113.72814 c 0,1.41745 -1.14996,2.56741 -2.56741,2.56741 H 67.361399 c -1.417452,0 -2.566579,-1.14912 -2.566579,-2.56741 V 77.951034 c 0,-1.418284 1.149127,-2.567412 2.566579,-2.567412 h 57.276371 c 1.41745,0 2.56741,1.149128 2.56741,2.567412 z" style="stroke-width:.833305;fill:#fff;fill-opacity:1"/><path id="path921" fill="#ff867f" d="m 95.117949,95.919586 c 0,0 0.641644,-6.898931 -2.727407,-11.872927 C 89.270649,79.441817 82.925033,79.23349 82.925033,79.23349 H 69.608822 v 33.37136 h 13.316211 c 0,0 6.346449,-0.20833 9.465509,-4.81317 3.369051,-4.97316 2.726573,-11.872094 2.727407,-11.872094 z m -8.022225,2.727406 c 0,9.145518 -6.898931,8.823868 -6.898931,8.823868 H 77.469386 V 84.367482 h 2.727407 c 0,0 6.898931,-0.320823 6.898931,8.823863 z" style="fill:#ff847f;fill-opacity:1;stroke-width:.833305"/><path id="path923" fill="#ff867f" d="m 115.96307,95.187112 c 3.6907,-0.872471 6.26811,-3.9357 6.26811,-7.850565 0,-4.652341 -3.7707,-8.102224 -8.42303,-8.102224 H 98.88782 v 33.049707 h 15.88362 c 4.65235,0 8.74387,-3.52988 8.74387,-8.74387 -8.3e-4,-4.909 -3.41488,-7.876399 -7.55224,-8.353048 z m -9.13386,-10.818797 h 3.69071 c 2.21492,0 4.0107,1.795771 4.0107,4.010696 0,2.214925 -1.79578,4.010696 -4.0107,4.010696 h -3.69071 z m 4.31236,22.641725 h -4.15152 v -8.363048 h 4.15152 c 2.49158,0 4.51235,1.872438 4.51235,4.181528 0,2.30908 -2.02077,4.18152 -4.51235,4.18152 z" style="fill:#ff847f;fill-opacity:1;stroke-width:.833305"/></svg>