<svg xmlns="http://www.w3.org/2000/svg" xmlns:svg="http://www.w3.org/2000/svg" id="svg2" width="192" height="192" version="1.1" viewBox="0 0 192 192"><defs id="defs4"><style id="style909"/></defs><metadata id="metadata7"/><g id="layer1" transform="translate(0,-860.36216)"><rect id="rect967" width="152" height="152" x="20" y="880.362" rx="9.935" ry="9.935" style="fill:#99bdfe;fill-opacity:1;fill-rule:evenodd;stroke:none;stroke-width:.993464;stroke-opacity:1"/><path style="fill:#fff;fill-opacity:1;stroke-width:2.281" id="path969" d="m 96.178243,919.86248 c -0.06091,10e-4 -0.121812,0.003 -0.18271,0.005 H 68.026168 a 2,2 0 0 0 -2,2 v 68.99211 a 2,2 0 0 0 2,2 h 27.973816 c 16.339926,0.21384 29.759536,-12.85868 29.973846,-29.1986 V 949.0483 c -0.22034,-16.265 -13.52951,-29.30161 -29.795587,-29.18539 z m 14.915637,14.42558 c 1.8311,1.19363 3.43227,2.70727 4.72686,4.46844 1.74268,3.15167 2.65631,6.69432 2.65522,10.2957 v 14.60824 c 9e-5,0.75155 -0.04,1.50257 -0.12021,2.24983 -0.84432,0.58909 -1.84845,0.90618 -2.87796,0.90884 -0.39642,-0.003 -0.79111,-0.0528 -1.17616,-0.14713 -1.41155,-0.44145 -2.73915,-1.10465 -3.93454,-1.96102 -0.89715,-0.64271 -2.17777,-0.65306 -2.96905,0.11762 l -2.44054,2.37703 c -0.79128,0.77068 -0.7922,2.02452 0.0718,2.712 3.03361,2.41371 6.67752,3.96558 10.54644,4.47058 -4.06597,6.94926 -11.52436,11.20804 -19.575656,11.1778 H 73.519747 v -29.68868 c 14.899343,-1.90758 28.422873,-9.67791 37.574223,-21.58934 z m -5.76488,13.4009 c -5.56001,6.8e-4 -8.34299,6.72251 -4.41194,10.65355 3.93106,3.93103 10.65288,1.14802 10.65353,-4.41199 -8.6e-4,-3.44678 -2.79481,-6.24072 -6.24159,-6.24156 z"/></g><style id="style853" type="text/css"/><style id="style853-9" type="text/css"/><style id="style853-3" type="text/css"/></svg>