<svg xmlns="http://www.w3.org/2000/svg" xmlns:svg="http://www.w3.org/2000/svg" id="svg2" width="192" height="192" version="1.1" viewBox="0 0 192 192"><metadata id="metadata7"/><g id="layer1" transform="translate(0,-860.36216)"><g style="stroke-width:.592533" id="g1096" transform="matrix(1.6876697,0,0,1.6876697,-1312.4334,-775.50162)"><path style="fill:#bd9aff;fill-opacity:1;fill-rule:evenodd;stroke:none;stroke-width:5.92533;stroke-linecap:square;stroke-linejoin:miter;stroke-miterlimit:4;stroke-dasharray:none;stroke-opacity:1;paint-order:normal" id="path1081" d="m 819.36232,982.0068 h 56.361 a 3,3 45 0 1 3,3 v 56.361 a 7.2426092,7.2426092 112.50009 0 1 -2.12133,5.1213 l -21.7568,21.7567 a 3.00001,3.00001 8.125867e-5 0 1 -4.24265,0 l -58.11869,-58.1187 a 2.9999537,2.9999537 90.000428 0 1 3e-5,-4.2426 l 21.75709,-21.75641 a 7.2427963,7.2427963 157.50044 0 1 5.12135,-2.12129 z"/><path style="fill:#ff837d;fill-opacity:1;fill-rule:evenodd;stroke:none;stroke-width:5.92533;stroke-linecap:square;stroke-linejoin:miter;stroke-miterlimit:4;stroke-dasharray:none;stroke-opacity:1;paint-order:normal" id="path1083" d="m 813.36232,988.00684 h 56.361 a 3,3 45 0 1 3,3 v 56.36096 a 7.2425997,7.2425997 112.50011 0 1 -2.12133,5.1213 l -15.7568,15.7567 a 3.0000127,3.0000127 1.0770433e-4 0 1 -4.24265,0 l -58.11869,-58.1187 a 2.999937,2.999937 90.000588 0 1 4e-5,-4.2426 l 15.75707,-15.75638 a 7.2428532,7.2428532 157.50059 0 1 5.12136,-2.12128 z"/><path style="fill:#f8c18c;fill-opacity:1;fill-rule:evenodd;stroke:none;stroke-width:5.92533;stroke-linecap:square;stroke-linejoin:miter;stroke-miterlimit:4;stroke-dasharray:none;stroke-opacity:1;paint-order:normal" id="path1085" d="m 807.36232,994.00684 h 56.361 a 3,3 45 0 1 3,3 v 56.36096 a 7.2425822,7.2425822 112.50016 0 1 -2.12133,5.1213 l -9.7568,9.7567 a 3.0000179,3.0000179 1.5681869e-4 0 1 -4.24265,0 l -58.11869,-58.1187 a 2.9999103,2.9999103 90.000842 0 1 6e-5,-4.2426 l 9.75703,-9.7564 a 7.2429443,7.2429443 157.50085 0 1 5.12138,-2.12126 z"/><path style="fill:#f9de81;fill-opacity:1;stroke:none;stroke-width:5.92533;stroke-linecap:square;stroke-linejoin:miter;stroke-miterlimit:4;stroke-dasharray:none;stroke-opacity:1;paint-order:normal;stop-color:#000" id="path1087" d="m 796.24196,1002.1281 -3.75736,3.7574 a 7.2426407,7.2426407 112.5 0 0 -2.12132,5.1213 v 56.3593 a 3,3 45 0 0 3,3 h 56.36133 a 7.2426727,7.2426727 157.50009 0 0 5.12133,-2.1213 l 3.75539,-3.7554 a 7.2426087,7.2426087 112.50009 0 0 2.12133,-5.1213 v -56.3613 a 3,3 45 0 0 -3,-3 h -56.35938 a 7.2426407,7.2426407 157.5 0 0 -5.12132,2.1213 z"/><rect id="rect1089" width="42.73" height="42.73" x="800.179" y="1017.822" rx="3" ry="3" style="fill:#56595b;fill-opacity:1;stroke:none;stroke-width:5.92533;stroke-linecap:square;stroke-linejoin:miter;stroke-miterlimit:4;stroke-dasharray:none;stroke-opacity:1;paint-order:normal;stop-color:#000"/></g></g><style id="style853" type="text/css"/><style id="style853-9" type="text/css"/><style id="style853-3" type="text/css"/></svg>