<svg xmlns="http://www.w3.org/2000/svg" xmlns:xlink="http://www.w3.org/1999/xlink" width="100%" height="100%" version="1.1" viewBox="0 0 192 192" xml:space="preserve" style="fill-rule:evenodd;clip-rule:evenodd;stroke-linejoin:round;stroke-miterlimit:2"><g id="Layer2"><g><path d="M164.5,21.5C164.5,15.981 160.019,11.5 154.5,11.5L21.5,11.5C15.981,11.5 11.5,15.981 11.5,21.5L11.5,154.5C11.5,160.019 15.981,164.5 21.5,164.5L154.5,164.5C160.019,164.5 164.5,160.019 164.5,154.5L164.5,21.5Z" transform="matrix(1,0,0,1,8,8)" style="fill:#96dfd3"/></g><g><path d="M41.509,103.931L49.016,137.821L122.19,153.127L139.39,116.54L147.407,41.616L117.598,38.191L112.642,88.844L103.022,46.499L74.306,52.403L83.344,95.112L41.509,103.931ZM116.785,106.549C119.43,106.549 121.578,108.697 121.578,111.342C121.578,113.988 119.43,116.135 116.785,116.135C114.14,116.135 111.992,113.988 111.992,111.342C111.992,108.697 114.14,106.549 116.785,106.549ZM96,103.527C98.645,103.527 100.793,105.675 100.793,108.32C100.793,110.965 98.645,113.113 96,113.113C93.355,113.113 91.207,110.965 91.207,108.32C91.207,105.675 93.355,103.527 96,103.527Z" transform="matrix(0.792004,0,0,0.792004,21.1887,20.2379)" style="fill:#fff"/></g></g></svg>