<svg xmlns="http://www.w3.org/2000/svg" xmlns:svg="http://www.w3.org/2000/svg" id="svg2" width="192" height="192" version="1.1" viewBox="0 0 192 192"><metadata id="metadata7"/><g id="layer1" transform="translate(0,-860.36216)"><circle id="circle949" cx="96" cy="956.362" r="88" style="fill:#fff;fill-opacity:1;fill-rule:evenodd;stroke:none;stroke-opacity:1"/><path id="path958" d="m 98.424233,951.64214 h 0.131196 c 1.106963,0 2.213931,-0.13119 3.288091,-0.39085 l 27.17894,-6.58876 a 1.5471783,1.5471783 0 0 0 0.9993,-2.23423 l -3.91376,-7.30579 a 2.5857224,2.5857224 0 0 0 -2.88826,-1.29197 l -24.177793,5.85914 c -0.727042,0.17765 -1.49235,-0.0601 -1.992534,-0.61498 -0.500183,-0.55759 -0.655978,-1.34476 -0.404521,-2.04994 l 4.677788,-15.25261 a 1.4769366,1.4769366 0 0 0 -1.413621,-1.90998 l -8.64113,0.009 a 2.6676716,2.6676716 0 0 0 -2.558634,1.923 l -3.265229,11.22642 c -1.516949,4.24746 -0.88557,8.9623 1.689145,12.66038 2.577447,3.69534 6.783905,5.91747 11.291023,5.96393" style="fill:#ff837d;fill-opacity:1;stroke-width:1"/><path id="path956" d="m 90.331108,956.28592 -0.0656,-0.1148 c -0.554848,-0.95663 -1.22176,-1.84767 -1.984334,-2.65124 L 68.986753,933.27399 a 1.5466883,1.5466883 0 0 0 -2.434051,0.2518 l -4.369333,7.0444 a 2.5866077,2.5866077 0 0 0 0.325445,3.14767 l 17.159911,18.00994 c 0.519315,0.54119 0.694244,1.32289 0.464651,2.03354 -0.232326,0.71064 -0.836372,1.23816 -1.571615,1.37208 l -15.551869,3.58012 a 1.4775823,1.4775823 0 0 0 -0.947473,2.17987 l 4.326974,7.47879 a 2.6670052,2.6670052 0 0 0 2.944045,1.25457 l 11.357519,-2.78687 c 4.436052,-0.80904 8.205194,-3.71174 10.118463,-7.78974 1.91327,-4.08073 1.735609,-8.83658 -0.478317,-12.76424" style="fill:#ff837d;fill-opacity:1;stroke-width:1"/><path id="path939" d="m 98.588236,960.95703 -0.0656,0.1148 c -0.554849,0.95663 -0.992168,1.9816 -1.30649,3.04209 l -7.881962,26.82928 a 1.4970023,1.4970023 0 0 0 1.436303,1.91896 h 8.397871 a 2.6723767,2.6723767 0 0 0 2.563972,-1.91891 l 6.89784,-23.4729 c 0.21046,-0.71885 0.7981,-1.26276 1.53062,-1.42129 0.72977,-0.15306 1.48961,0.1066 1.97339,0.67785 l 10.87376,11.67767 a 1.4772662,1.4772662 0 0 0 2.36123,-0.26937 l 4.31181,-7.48586 a 2.6672894,2.6672894 0 0 0 -0.38575,-3.177 l -8.09215,-8.44226 c -2.91636,-3.43568 -7.31415,-5.24782 -11.80487,-4.86517 -4.49072,0.38266 -8.51952,2.91364 -10.809975,6.79211" style="fill:#ff837d;fill-opacity:1;stroke-width:1"/></g><style id="style853" type="text/css"/></svg>