<svg xmlns="http://www.w3.org/2000/svg" xmlns:svg="http://www.w3.org/2000/svg" id="svg2" width="192" height="192" version="1.1" viewBox="0 0 192 192"><metadata id="metadata7"/><g id="layer1" transform="translate(0,-860.36216)"><path style="display:inline;fill:#98dc9a;fill-opacity:1;fill-rule:evenodd;stroke:none;stroke-width:.993464;stroke-opacity:1" id="rect970-3" d="M 29.934641,880.36213 H 162.06536 c 5.50379,0 9.93464,4.43085 9.93464,9.93464 v 132.13073 c 0,5.5038 -4.43085,9.9347 -9.93464,9.9347 H 29.934641 C 24.43085,1032.3622 20,1027.9313 20,1022.4275 V 890.29677 c 0,-5.50379 4.43085,-9.93464 9.934641,-9.93464 z"/><path style="color:#000;font-style:normal;font-variant:normal;font-weight:400;font-stretch:normal;font-size:medium;line-height:normal;font-family:sans-serif;text-indent:0;text-align:start;text-decoration:none;text-decoration-line:none;text-decoration-style:solid;text-decoration-color:#000;letter-spacing:normal;word-spacing:normal;text-transform:none;writing-mode:lr-tb;direction:ltr;baseline-shift:baseline;text-anchor:start;white-space:normal;clip-rule:nonzero;display:inline;overflow:visible;visibility:visible;isolation:auto;mix-blend-mode:normal;color-interpolation:sRGB;color-interpolation-filters:linearRGB;solid-color:#000;solid-opacity:1;fill:#fff;fill-opacity:1;fill-rule:nonzero;stroke:none;stroke-width:20.3885;stroke-linecap:butt;stroke-linejoin:round;stroke-miterlimit:4;stroke-dasharray:none;stroke-dashoffset:0;stroke-opacity:1;color-rendering:auto;image-rendering:auto;shape-rendering:auto;text-rendering:auto;enable-background:accumulate" id="path4258-6" d="m 96.182016,919.86431 c -1.424785,-0.0335 -2.831329,0.3256 -4.065625,1.03809 l -24.884594,14.36712 c -2.402671,1.38737 -3.882818,3.95103 -3.883004,6.72548 v 28.73423 c 1.87e-4,2.77446 1.480333,5.33812 3.883004,6.72548 l 24.884594,14.36712 c 2.402853,1.3871 5.363152,1.3871 7.766006,0 L 124.7682,977.45471 c 2.40268,-1.38736 3.88282,-3.95102 3.88301,-6.72548 V 941.995 c -1.9e-4,-2.77445 -1.48033,-5.33811 -3.88301,-6.72548 L 99.882397,920.9024 c -1.12702,-0.65056 -2.39943,-1.00752 -3.700381,-1.03809 z"/><path id="path4231-7" d="m 96.132614,929.77047 c -1.038073,-0.0244 -2.062856,0.23723 -2.962144,0.75633 l -18.130477,10.46763 c -1.750543,1.01081 -2.828952,2.87865 -2.829088,4.90007 v 20.93525 c 1.36e-4,2.02142 1.078545,3.88926 2.829088,4.90007 l 18.130477,10.46763 c 1.750678,1.01062 3.907499,1.01062 5.658175,0 l 18.131365,-10.46763 c 1.75054,-1.01081 2.82895,-2.87865 2.82909,-4.90007 V 945.8945 c -1.4e-4,-2.02142 -1.07855,-3.88926 -2.82909,-4.90007 L 98.828645,930.5268 c -0.821127,-0.47398 -1.748182,-0.73406 -2.696031,-0.75633 z" style="color:#000;font-style:normal;font-variant:normal;font-weight:400;font-stretch:normal;font-size:medium;line-height:normal;font-family:sans-serif;text-indent:0;text-align:start;text-decoration:none;text-decoration-line:none;text-decoration-style:solid;text-decoration-color:#000;letter-spacing:normal;word-spacing:normal;text-transform:none;writing-mode:lr-tb;direction:ltr;baseline-shift:baseline;text-anchor:start;white-space:normal;clip-rule:nonzero;display:inline;overflow:visible;visibility:visible;isolation:auto;mix-blend-mode:normal;color-interpolation:sRGB;color-interpolation-filters:linearRGB;solid-color:#000;solid-opacity:1;fill:#98dc9a;fill-opacity:1;fill-rule:nonzero;stroke:none;stroke-width:20.3885;stroke-linecap:butt;stroke-linejoin:round;stroke-miterlimit:4;stroke-dasharray:none;stroke-dashoffset:0;stroke-opacity:1;color-rendering:auto;image-rendering:auto;shape-rendering:auto;text-rendering:auto;enable-background:accumulate"/></g><style id="style853" type="text/css"/></svg>