<svg xmlns="http://www.w3.org/2000/svg" xmlns:svg="http://www.w3.org/2000/svg" xmlns:xlink="http://www.w3.org/1999/xlink" id="svg14" width="192" height="192" version="1.1" viewBox="0 0 192 192"><metadata id="metadata20"/><defs id="defs18"><clipPath id="SVGID_6_"><use id="use17" width="100%" height="100%" x="0" y="0" overflow="visible" xlink:href="#SVGID_5_" style="overflow:visible"/></clipPath><clipPath id="SVGID_24_" clip-path="url(#SVGID_23_)"><use id="use77" width="100%" height="100%" x="0" y="0" overflow="visible" xlink:href="#SVGID_15_" style="overflow:visible"/></clipPath><rect id="SVGID_5_" width="144.311" height="146.554" x=".476" y=".723"/><clipPath id="SVGID_6_-3"><use id="use17-6" width="100%" height="100%" x="0" y="0" overflow="visible" xlink:href="#SVGID_5_-3" style="overflow:visible"/></clipPath><clipPath id="SVGID_24_-7" clip-path="url(#SVGID_23_)"><use id="use77-5" width="100%" height="100%" x="0" y="0" overflow="visible" xlink:href="#SVGID_15_" style="overflow:visible"/></clipPath><rect id="SVGID_5_-3" width="144.311" height="146.554" x=".476" y=".723"/><clipPath id="SVGID_24_-2" clip-path="url(#SVGID_23_)"><use id="use77-9" width="100%" height="100%" x="0" y="0" overflow="visible" xlink:href="#SVGID_15_" style="overflow:visible"/></clipPath><clipPath id="SVGID_6_-9"><use style="overflow:visible" id="use17-3" width="100%" height="100%" x="0" y="0" overflow="visible" xlink:href="#SVGID_5_-6"/></clipPath><rect id="SVGID_5_-6" width="144.311" height="146.554" x=".476" y=".723"/></defs><circle style="fill:none;fill-rule:evenodd;stroke:#b1b5bd" id="circle6" cx="96" cy="96" r="36"/><path id="path80" d="m 0.816,0.723 c -0.114,0 -0.227,0.004 -0.341,0.004 v 146.544 c 0.114,0 0.227,0.004 0.341,0.004 40.47,0 73.277,-32.807 73.277,-73.275 C 74.093,33.532 41.286,0.723 0.816,0.723" clip-path="url(#SVGID_24_-2)" transform="translate(-85.677355,161.23534)" style="fill:#550fed"/><g id="g1015"><rect id="rect2" width="153" height="153" x="19.5" y="19.5" rx="10" style="fill:#bd9afe;fill-rule:evenodd;stroke:none;fill-opacity:1"/><g id="g993" transform="matrix(0.62527794,0,0,0.62527794,85.92824,-38.441591)"><path id="path80-0" d="m -55.706847,141.73493 c -0.114,0 -0.227,0.004 -0.341,0.004 v 146.544 c 0.114,0 0.227,0.004 0.341,0.004 40.470001,0 73.277001,-32.807 73.277001,-73.275 0,-40.468 -32.807,-73.277 -73.277001,-73.277" style="fill:#fff"/><g style="opacity:.3;fill:#fff" id="g24" transform="translate(-56.523847,141.01143)"><g id="g22" style="fill:#fff"><defs id="defs15"><rect id="rect948" width="144.311" height="146.554" x=".476" y=".723"/></defs><clipPath id="clipPath1373"><use style="overflow:visible" id="use1371" width="100%" height="100%" x="0" y="0" overflow="visible" xlink:href="#SVGID_5_-6"/></clipPath><path style="fill:#fff" id="path20" d="m 0.475,147.271 71.035,0.004 c 40.47,0 73.277,-32.808 73.277,-73.275 C 144.787,33.533 111.98,0.724 71.51,0.724 L 0.475,0.728 Z" clip-path="url(#SVGID_6_-9)"/></g></g></g></g></svg>