<svg xmlns="http://www.w3.org/2000/svg" xmlns:svg="http://www.w3.org/2000/svg" id="svg2" width="192" height="192" version="1.1" viewBox="0 0 192 192"><metadata id="metadata7"/><g id="layer1" transform="translate(0,-860.36216)"><rect id="rect1953" width="153" height="153" x="19.5" y="879.862" rx="10" style="fill:#ff837d;fill-opacity:1;fill-rule:evenodd;stroke:none;stroke-opacity:1"/><path id="path1945" d="m 124.62109,70.447266 c -14.15648,0 -25.552731,11.396254 -25.552731,25.552734 0,14.15649 11.396251,25.55273 25.552731,25.55273 H 129.5 a 3,3 135 0 0 3,-3 V 73.447266 a 3,3 45 0 0 -3,-3 z" transform="translate(0,860.36216)" style="fill:#fff;fill-opacity:1;stroke-width:1.83755;stroke-linecap:round;stroke-linejoin:round;stop-color:#000"/><path id="rect1955" d="m 59.5,73.447266 v 45.105464 a 3,3 45 0 0 3,3 h 4.878906 c 14.156486,0 25.552735,-11.39624 25.552735,-25.55273 0,-14.15648 -11.396249,-25.552734 -25.552735,-25.552734 H 62.5 a 3,3 135 0 0 -3,3 z" transform="translate(0,860.36216)" style="fill:#fff;fill-opacity:1;stroke-width:1.83755;stroke-linecap:round;stroke-linejoin:round;stop-color:#000"/></g><style id="style853" type="text/css"/></svg>