<svg xmlns="http://www.w3.org/2000/svg" xmlns:svg="http://www.w3.org/2000/svg" id="svg2" width="192" height="192" version="1.1" viewBox="0 0 192 192"><metadata id="metadata7"/><g id="layer1" transform="translate(0,-860.36216)"><rect id="rect2135" width="153" height="153" x="19.5" y="879.862" rx="10" style="fill:#fefefe;fill-opacity:1;fill-rule:evenodd;stroke:none;stroke-opacity:1"/><g id="g2148" transform="matrix(0.73383016,0,0,0.73383016,59.492237,935.62051)" style="fill:#fe827c;fill-opacity:1"><path style="fill:#fe827c;fill-opacity:1" id="path2137" d="M 95.64,13.38 A 25.24,25.24 0 0 0 73.27,0 H 2.43 A 2.44,2.44 0 0 0 0.72,4.16 l 15.43,15.52 a 7.26,7.26 0 0 0 5.15,2.14 H 71.24 A 6.440328,6.440328 0 1 1 71.37,34.7 H 36.94 a 2.44,2.44 0 0 0 -1.72,4.16 l 15.44,15.53 a 7.25,7.25 0 0 0 5.15,2.14 h 15.57 c 20.26,0 35.58,-21.66 24.26,-43.16"/></g></g><style id="style853" type="text/css"/></svg>