<svg xmlns="http://www.w3.org/2000/svg" xmlns:svg="http://www.w3.org/2000/svg" id="svg2" width="192" height="192" version="1.1" viewBox="0 0 192 192"><metadata id="metadata7"/><g id="layer1" transform="translate(0,-860.36216)"><circle style="fill:#f7c08b;fill-opacity:1;fill-rule:evenodd;stroke:none;stroke-opacity:1" id="circle1062" cx="96" cy="956.362" r="88"/><path style="display:inline;fill:#fe827c;fill-opacity:1;fill-rule:nonzero;stroke:#fe827c;stroke-width:1.08691px;stroke-linecap:butt;stroke-linejoin:miter;stroke-opacity:1" id="path1054" d="m 106.81967,948.60248 h 22.04064 a 0.66287657,0.66287657 71.662827 0 1 0.39591,1.19453 l -18.07721,13.46176 a 2.7648931,2.7648931 107.44536 0 0 -0.97163,3.0919 l 7.11337,21.34015 a 0.67028815,0.67028815 143.03679 0 1 -1.01562,0.76431 L 97.86301,975.77618 a 2.831981,2.831981 179.27804 0 0 -3.267093,0.0412 l -17.368055,12.59661 a 0.69200741,0.69200741 34.961751 0 1 -1.071898,-0.74948 l 5.925427,-20.83458 a 2.90444,2.90444 71.324608 0 0 -1.05491,-3.12101 l -18.3078,-13.68267 a 0.67421743,0.67421743 108.14387 0 1 0.397907,-1.21425 l 22.720119,-0.19254 a 2.7997853,2.7997853 143.9747 0 0 2.632383,-1.91432 l 7.113381,-21.34014 a 0.67566369,0.67566369 179.76834 0 1 1.280233,-0.005 l 7.309186,21.3505 a 2.7986378,2.7986378 35.550866 0 0 2.64778,1.89219 z"/></g><style id="style853" type="text/css"/></svg>