<svg xmlns="http://www.w3.org/2000/svg" xmlns:svg="http://www.w3.org/2000/svg" id="svg2" width="192" height="192" version="1.1" viewBox="0 0 192 192"><metadata id="metadata7"/><g id="layer1" transform="translate(0,-860.36216)"><path id="path1017" d="m 96,875.53142 c -17.470451,0 -35.232281,2.1917 -53.167971,7.46875 -2.53873,0.74694 -4.66605,3.55613 -4.75195,6.20117 -0.0937,2.88524 -0.21014,6.91135 -0.30274,11.62109 -10.8924,-0.10677 -17.30271,0.33564 -22.34179,7.41602 -6.64099,9.33123 -5.34781,28.19049 -1.85352,43.23047 7.20874,31.02746 45.19339,54.95798 68.44531,60.25528 -20.42368,14.7767 -20.35664,20.1989 -18.61132,22.5332 1.46509,1.9597 13.65973,2.9355 32.583981,2.9355 18.92425,0 31.11889,-0.9758 32.58398,-2.9355 1.74532,-2.3343 1.81236,-7.7565 -18.61132,-22.5332 23.25192,-5.2973 61.23657,-29.22782 68.44531,-60.25528 3.49429,-15.03998 4.78747,-33.89924 -1.85352,-43.23047 -5.03908,-7.08038 -11.44939,-7.52279 -22.34179,-7.41602 -0.0926,-4.70974 -0.20904,-8.73585 -0.30274,-11.62109 -0.0859,-2.64504 -2.21322,-5.45423 -4.75195,-6.20117 C 131.23228,877.72312 113.47045,875.53142 96,875.53142 Z m -62.755861,39.54101 4.39453,0.0527 c -0.0225,12.6333 0.2646,26.7459 1.42188,37.68945 2.21341,20.93068 32.72335,43.64016 47.74609,51.83792 -1.53767,0.075 -3.08865,0.1238 -4.75195,-0.1465 -18.546,-3.0123 -49.8748,-25.83577 -55.83203,-51.47657 -2.68438,-11.55396 -4.96222,-27.45322 -0.11328,-34.60352 2.05891,-3.03615 3.54292,-3.35374 7.13476,-3.35352 z m 125.511721,0 c 3.59184,-2.2e-4 5.07586,0.31737 7.13476,3.35352 4.84894,7.1503 2.5711,23.04956 -0.11328,34.60352 -5.95723,25.6408 -37.28603,48.46433 -55.83203,51.47653 -1.6633,0.2703 -3.21428,0.2215 -4.75195,0.1465 15.02274,-8.19772 45.53268,-30.9072 47.74609,-51.83788 1.15728,-10.94355 1.44438,-25.05615 1.42188,-37.68945 z" style="fill:#fe827c;fill-opacity:1;stroke:none;stroke-width:10.6291;stroke-linecap:round;stroke-linejoin:round;stop-color:#000"/><text style="font-style:normal;font-variant:normal;font-weight:700;font-stretch:normal;font-size:70.7013px;line-height:1.25;font-family:now;-inkscape-font-specification:'now Bold';letter-spacing:0;word-spacing:0;fill:#fefefe;fill-opacity:1;stroke-width:1.76753" id="text1021" x="70.78" y="964.046" xml:space="preserve"><tspan id="tspan1019" x="70.78" y="964.046" style="fill:#fefefe;fill-opacity:1;stroke-width:1.76753">D</tspan></text></g><style id="style853" type="text/css"/></svg>