<svg xmlns="http://www.w3.org/2000/svg" xmlns:svg="http://www.w3.org/2000/svg" id="svg2" width="192" height="192" version="1.1" viewBox="0 0 192 192"><metadata id="metadata7"/><g id="layer1" transform="translate(0,-860.36216)"><path style="fill:#97db99;fill-opacity:1;stroke-width:1.37505" id="path948" d="m 178.99991,974.44461 h -51.6724 l 25.83925,44.74539 a 5.0010423,5.0010423 0 0 1 -1.82897,6.8312 l -22.662,13.093 a 4.9985555,4.9985555 0 0 1 -6.82942,-1.8288 L 75.121249,956.3573 121.84482,875.44013 a 5.0012726,5.0012726 0 0 1 6.83086,-1.83085 l 22.66224,13.07804 a 4.9992897,4.9992897 0 0 1 1.83087,6.82941 l -25.84128,44.76426 h 51.6724 a 5,5 0 0 1 5,5 v 26.16362 a 5,5 0 0 1 -5,5 z"/><path style="fill:#bd9aff;fill-opacity:1;stroke-width:1.37505" id="path950" d="m 13.001284,974.44461 h 51.682021 l -25.831536,44.74509 a 5.0017696,5.0017696 0 0 0 1.829474,6.8316 l 22.6607,13.0928 a 4.9980969,4.9980969 0 0 0 6.829064,-1.8289 l 44.217443,-76.59762 a 8.6609106,8.6609106 0 0 0 -2.4e-4,-8.66042 L 70.171249,875.44028 a 5.0007796,5.0007796 0 0 0 -6.830508,-1.83084 l -22.659677,13.07772 a 5.0002158,5.0002158 0 0 0 -1.831412,6.82994 l 25.832273,44.76389 H 12.999903 a 4.9998092,4.9998092 0 0 0 -4.9998084,5 l 9.986e-4,26.16362 a 5.0001908,5.0001908 0 0 0 5.0001908,5 z"/></g><style id="style853" type="text/css"/><style id="style853-9" type="text/css"/><style id="style853-3" type="text/css"/></svg>