<svg xmlns="http://www.w3.org/2000/svg" xmlns:svg="http://www.w3.org/2000/svg" id="svg2" width="192" height="192" version="1.1" viewBox="0 0 192 192"><metadata id="metadata7"/><g id="layer1" transform="translate(0,-860.36216)"><rect id="rect978" width="153" height="153" x="19.5" y="879.862" rx="10" style="fill:#ffb0ac;fill-opacity:1;fill-rule:evenodd;stroke:none;stroke-opacity:1"/><path style="stroke-width:2.5704;fill:#fff;fill-opacity:1" id="path976" d="m 96,919.86216 c -9.510483,0 -16.450369,1.79923 -21.591181,5.3978 -3.598564,2.5704 -7.711419,7.45554 -7.711419,15.93788 v 30.33066 c 0,8.48233 4.112855,13.36545 7.711419,15.93586 5.140812,3.59857 12.080698,5.3978 21.591181,5.3978 7.71121,0 14.13779,-1.28596 18.76452,-2.57116 l 0.77054,-0.25549 c 3.34152,-0.77112 5.39838,-3.8569 4.62726,-7.1984 -0.77113,-3.34154 -3.85486,-5.39839 -7.19638,-4.62727 l -0.77053,0.25752 c -4.62672,0.77112 -10.02643,2.05611 -16.19541,2.05611 -16.964659,0 -16.963922,-6.16752 -16.963922,-8.99497 v -2.82867 l 27.761542,-5.91081 c 11.56682,-2.5704 18.50498,-10.53845 18.50498,-21.59118 -1e-5,-8.48234 -4.11084,-13.36748 -7.7094,-15.93788 -5.14081,-3.59857 -12.08271,-5.3978 -21.5932,-5.3978 z m 0,12.08116 c 17.47874,0 17.48001,6.16907 16.96594,8.73948 0,5.39785 -2.82755,8.48233 -8.73948,9.76753 l -25.190382,5.3978 v -14.9078 c 0,-2.82745 -7.37e-4,-8.99701 16.963922,-8.99701 z"/></g><style id="style853" type="text/css"/><style id="style907" type="text/css"/></svg>