<svg xmlns="http://www.w3.org/2000/svg" xmlns:svg="http://www.w3.org/2000/svg" id="svg2" width="192" height="192" version="1.1" viewBox="0 0 192 192"><metadata id="metadata7"/><g id="layer1" transform="translate(0,-860.36216)"><rect id="rect1118" width="153" height="153" x="19.5" y="879.862" rx="10" style="fill:#ff837d;fill-opacity:1;fill-rule:evenodd;stroke:none;stroke-opacity:1"/><path id="path959" d="m 122.85754,939.04611 h -5.85615 q -1.81743,0 -2.32227,-1.91839 -0.50484,-3.93776 -0.70678,-6.46197 H 90.446755 v 20.19364 h 24.737205 v 10.5007 H 90.446755 v 20.5975 h 23.525585 q 0.20194,-2.5242 0.70678,-6.46196 0.50484,-1.9184 2.32227,-1.9184 h 5.85615 v 19.28493 H 69.142463 v -5.95712 q 0,-2.52421 2.524212,-3.13001 l 0.605801,-0.10098 q 0.302906,0 0.605812,-0.10098 0.403871,-0.10097 0.908718,-0.20193 l 3.029037,-0.50484 v -53.00829 l -3.029037,-0.50485 q -0.504847,-0.10097 -0.908718,-0.20193 -0.302906,-0.10097 -0.605812,-0.10097 l -0.605801,-0.10098 q -2.524212,-0.60579 -2.524212,-3.13 v -5.95712 h 53.715077 z" style="font-style:normal;font-variant:normal;font-weight:700;font-stretch:normal;font-size:91.8929px;line-height:1.25;font-family:aleo;-inkscape-font-specification:'aleo Bold';letter-spacing:0;word-spacing:0;fill:#fff;fill-opacity:1;stroke-width:2.5242"/></g><style id="style853" type="text/css"/></svg>