<svg xmlns="http://www.w3.org/2000/svg" xmlns:svg="http://www.w3.org/2000/svg" id="svg2" width="192" height="192" version="1.1" viewBox="0 0 192 192"><metadata id="metadata7"/><g id="layer1" transform="translate(0,-860.36216)"><rect id="rect1118" width="153" height="153" x="19.5" y="879.862" rx="10" style="fill:#ff837d;fill-opacity:1;fill-rule:evenodd;stroke:none;stroke-opacity:1"/><path style="font-style:normal;font-variant:normal;font-weight:700;font-stretch:normal;font-size:91.8929px;line-height:1.25;font-family:aleo;-inkscape-font-specification:'aleo Bold';letter-spacing:0;word-spacing:0;fill:#fff;fill-opacity:1;stroke-width:1.97668" id="path1120" d="m 90.977388,927.77942 v 0.001 H 53.499915 v 4.66348 c 0,1.31778 0.658505,2.13562 1.976298,2.45187 l 0.475594,0.0789 c 0.158138,0 0.31577,0.0262 0.473909,0.0789 0.210847,0.0527 0.447303,0.10526 0.710862,0.15796 l 2.372903,0.39493 v 41.51075 l -2.372903,0.39492 c -0.263559,0.0526 -0.500015,0.10689 -0.710862,0.15965 -0.158139,0.0527 -0.315771,0.0789 -0.473909,0.0789 l -0.475594,0.0789 c -1.317793,0.31627 -1.976298,1.1324 -1.976298,2.45022 v 4.66514 h 42.06364 v -15.10123 h -4.586167 c -0.948814,0 -1.554773,0.50088 -1.818332,1.5024 -0.263558,2.05575 -0.447467,3.74226 -0.552895,5.06007 H 70.18421 V 960.2768 h 19.371454 v -8.22283 H 70.18421 v -15.8138 h 18.421951 c 0.105422,1.31782 0.289337,3.00431 0.552895,5.06007 0.26356,1.00154 0.869519,1.50239 1.818333,1.50239 h 4.586166 c 0.94881,-0.002 1.55477,-0.50089 1.81833,-1.50239 0.26356,-2.05576 0.44915,-3.74225 0.55457,-5.06007 l 11.462905,-0.001 v 40.87887 l -2.29225,0.39492 c -0.26355,0.0525 -0.50169,0.10526 -0.71254,0.15796 -0.15813,0.0525 -0.31577,0.0789 -0.4739,0.0789 l -0.47392,0.0789 c -1.3178,0.31621 -1.97799,1.13407 -1.97799,2.45188 v 4.66347 h 22.61487 v -4.66344 c 0,-1.31784 -0.68647,-2.1357 -2.05696,-2.45191 l -0.47391,-0.0789 c -0.15814,0 -0.34205,-0.0256 -0.55288,-0.0789 -0.15814,-0.0525 -0.37001,-0.10526 -0.63356,-0.15797 l -2.29224,-0.39492 -10e-4,-40.87888 H 131.541 c 0.10538,1.31781 0.29101,3.00432 0.55458,5.06008 0.26356,1.0015 0.86951,1.49991 1.81833,1.50239 h 4.58618 v -6.56247 h -0.001 l 0.001,-8.45977 z"/></g><style id="style853" type="text/css"/></svg>