<svg xmlns="http://www.w3.org/2000/svg" xmlns:svg="http://www.w3.org/2000/svg" id="svg2" width="192" height="192" version="1.1" viewBox="0 0 192 192"><metadata id="metadata7"/><g id="layer1" transform="translate(0,-860.36216)"><rect style="fill:#fff;fill-opacity:1;fill-rule:evenodd;stroke:none;stroke-width:.993464;stroke-opacity:1" id="rect909" width="152" height="152" x="20" y="880.362" rx="9.935" ry="9.935"/><path id="path962" d="M 55.100047,931.42806 46.648,969.63415 A 2.4088648,2.4088648 51.237105 0 0 49,972.56333 h 44.759766 l -1.93204,8.73294 a 2.4088331,2.4088331 51.237473 0 0 2.351962,2.92917 h 38.601562 a 3.7362816,3.7362816 141.23772 0 0 3.64806,-2.92917 l 8.92263,-40.32916 A 2.408812,2.408812 51.237718 0 0 143,938.03794 l -33.24023,0 1.46301,-6.60995 a 2.4086021,2.4086021 51.240156 0 0 -2.35169,-2.92911 H 58.748047 a 3.7361997,3.7361997 141.23711 0 0 -3.648,2.92918 z" style="fill:#73ada4;fill-opacity:1;stroke-width:10.151;stroke-linecap:round;stroke-linejoin:round;stroke-opacity:.5;stop-color:#000"/><text style="font-style:italic;font-variant:normal;font-weight:500;font-stretch:normal;font-size:38.7284px;line-height:1.25;font-family:Now;-inkscape-font-specification:'Now Medium Italic';letter-spacing:0;word-spacing:0;fill:#fff;fill-opacity:1;stroke-width:.968208" id="text966" x="51.631" y="967.572" xml:space="preserve"><tspan id="tspan964" x="51.631" y="967.572" style="font-style:italic;font-variant:normal;font-weight:500;font-stretch:normal;font-family:Now;-inkscape-font-specification:'Now Medium Italic';fill:#fff;fill-opacity:1;stroke-width:.968208">ed</tspan></text><text style="font-style:italic;font-variant:normal;font-weight:700;font-stretch:normal;font-size:48.1633px;line-height:1.25;font-family:Now;-inkscape-font-specification:'Now Bold Italic';letter-spacing:0;word-spacing:0;fill:#fff;fill-opacity:1;stroke-width:1.20408" id="text972" x="99.099" y="979.193" xml:space="preserve"><tspan id="tspan970" x="99.099" y="979.193" style="font-style:italic;font-variant:normal;font-weight:700;font-stretch:normal;font-family:Now;-inkscape-font-specification:'Now Bold Italic';fill:#fff;fill-opacity:1;stroke-width:1.20408">X</tspan></text></g><style id="style853" type="text/css"/><style id="style853-9" type="text/css"/><style id="style853-3" type="text/css"/></svg>