<svg xmlns="http://www.w3.org/2000/svg" xmlns:svg="http://www.w3.org/2000/svg" id="svg2" width="192" height="192" version="1.1" viewBox="0 0 192 192"><metadata id="metadata7"/><g id="layer1" transform="translate(0,-860.36216)"><rect id="rect981" width="152" height="152" x="20" y="880.362" rx="9.935" ry="9.935" style="fill:#fff;fill-opacity:1;fill-rule:evenodd;stroke:none;stroke-width:.993464;stroke-opacity:1"/><text id="text939" x="65.592" y="971.415" xml:space="preserve" style="font-weight:900;font-size:40.1405px;line-height:1.25;font-family:Now;-inkscape-font-specification:'Now Heavy';letter-spacing:-6.22178px;word-spacing:0;fill:#99bdfe;fill-opacity:1;stroke-width:1.00352"><tspan style="fill:#99bdfe;fill-opacity:1;stroke-width:1.00352" id="tspan937" x="65.592" y="971.415">MAG</tspan></text><path style="font-style:normal;font-variant:normal;font-weight:700;font-stretch:normal;font-size:67.9063px;line-height:1.25;font-family:Now;-inkscape-font-specification:'Now Bold';letter-spacing:0;word-spacing:0;fill:#99bdfe;fill-opacity:1;stroke-width:1.48241" id="path960" d="m 54.806116,940.90775 c -9.561516,0 -16.306112,6.22756 -16.306112,15.49259 0,9.26504 6.670749,15.41585 16.602872,15.41585 5.267077,0 9.401641,-1.79875 12.090157,-4.78046 l -6.243768,-5.50871 c -0.943465,2.04262 -2.990384,3.24895 -5.994773,3.24895 -4.298971,0 -6.522959,-2.59537 -6.893556,-6.82023 h 22.681201 v -1.63044 c 0,-9.26503 -6.374504,-15.41755 -15.936021,-15.41755 z m 0.148376,7.26365 c 3.187178,0 5.039729,1.48359 6.003295,4.0778 H 48.654445 c 0.963567,-2.52009 2.964633,-4.0778 6.300047,-4.0778 z"/></g><style id="style853" type="text/css"/><style id="style853-9" type="text/css"/><style id="style853-3" type="text/css"/></svg>