<svg xmlns="http://www.w3.org/2000/svg" xmlns:xlink="http://www.w3.org/1999/xlink" width="100%" height="100%" version="1.1" viewBox="0 0 192 192" xml:space="preserve" style="fill-rule:evenodd;clip-rule:evenodd;stroke-linejoin:round;stroke-miterlimit:2"><g id="Layer1"><g><path d="M164.5,21.5C164.5,15.981 160.019,11.5 154.5,11.5L21.5,11.5C15.981,11.5 11.5,15.981 11.5,21.5L11.5,154.5C11.5,160.019 15.981,164.5 21.5,164.5L154.5,164.5C160.019,164.5 164.5,160.019 164.5,154.5L164.5,21.5Z" transform="matrix(1,0,0,1,8,8)" style="fill:#fff"/></g><g><path d="M124.057,28.003L40.751,56.629L92.598,73.052L124.057,69.643L152.101,66.31L124.057,28.003Z" transform="matrix(0.813489,0,0,0.813489,18.5583,17.9018)" style="fill:#728dbe"/><g><path d="M124.057,28.003L40.751,56.629L92.598,73.052L124.057,69.643L152.101,66.31L124.057,28.003Z" transform="matrix(0.813489,0,0,0.813489,18.5583,17.9018) matrix(1,0,0,-1,0,192.008)" style="fill:#728dbe"/></g><path d="M124.057,28.003L124.057,164.005L152.101,126.325L152.101,66.31L124.057,28.003Z" transform="matrix(0.813489,0,0,0.813489,18.5583,17.9018)" style="fill:#9abeff"/><g><g><path d="M0.244,-0.13L0.244,-0.292L0.569,-0.292L0.569,-0.418L0.244,-0.418L0.244,-0.57L0.612,-0.57L0.612,-0.7L0.083,-0.7L0.083,0L0.625,0L0.625,-0.13L0.244,-0.13Z" transform="matrix(0.813489,0,0,0.813489,18.5583,17.9018) matrix(1.07123,0,0,0.397728,3.08169,57.5981) matrix(17.8589,0,0,48.1009,40.751,113.097)" style="fill:#4a4a4a;fill-rule:nonzero"/></g><g><path d="M0.872,0L0.87,-0.7L0.737,-0.7L0.479,-0.265L0.217,-0.7L0.083,-0.7L0.083,0L0.235,0L0.235,-0.411L0.44,-0.074L0.513,-0.074L0.719,-0.42L0.72,0L0.872,0Z" transform="matrix(0.813489,0,0,0.813489,18.5583,17.9018) matrix(1.07123,0,0,0.397728,3.08169,57.5981) matrix(17.8589,0,0,48.1009,52.7343,113.097)" style="fill:#4a4a4a;fill-rule:nonzero"/></g><g><path d="M0.597,-0.364C0.654,-0.394 0.69,-0.448 0.69,-0.518C0.69,-0.627 0.6,-0.7 0.425,-0.7L0.083,-0.7L0.083,0L0.445,0C0.629,0 0.725,-0.07 0.725,-0.191C0.725,-0.279 0.675,-0.339 0.597,-0.364ZM0.405,-0.578C0.484,-0.578 0.527,-0.551 0.527,-0.496C0.527,-0.441 0.484,-0.413 0.405,-0.413L0.244,-0.413L0.244,-0.578L0.405,-0.578ZM0.433,-0.122L0.244,-0.122L0.244,-0.295L0.433,-0.295C0.517,-0.295 0.562,-0.267 0.562,-0.208C0.562,-0.148 0.517,-0.122 0.433,-0.122Z" transform="matrix(0.813489,0,0,0.813489,18.5583,17.9018) matrix(1.07123,0,0,0.397728,3.08169,57.5981) matrix(17.8589,0,0,48.1009,69.7896,113.097)" style="fill:#4a4a4a;fill-rule:nonzero"/></g><g><path d="M0.366,-0.415L0.524,-0.595L0.524,-0.7L0.034,-0.7L0.034,-0.57L0.332,-0.57L0.188,-0.407L0.188,-0.3L0.262,-0.3C0.354,-0.3 0.393,-0.267 0.393,-0.214C0.393,-0.157 0.343,-0.124 0.262,-0.124C0.189,-0.124 0.115,-0.147 0.062,-0.187L-0.001,-0.063C0.067,-0.015 0.168,0.012 0.266,0.012C0.465,0.012 0.556,-0.096 0.556,-0.214C0.556,-0.317 0.492,-0.395 0.366,-0.415Z" transform="matrix(0.813489,0,0,0.813489,18.5583,17.9018) matrix(1.07123,0,0,0.397728,3.08169,57.5981) matrix(17.8589,0,0,48.1009,83.4517,113.097)" style="fill:#4a4a4a;fill-rule:nonzero"/></g><g><path d="M0.083,0L0.401,0C0.63,0 0.787,-0.138 0.787,-0.35C0.787,-0.562 0.63,-0.7 0.401,-0.7L0.083,-0.7L0.083,0ZM0.245,-0.133L0.245,-0.567L0.393,-0.567C0.532,-0.567 0.623,-0.484 0.623,-0.35C0.623,-0.216 0.532,-0.133 0.393,-0.133L0.245,-0.133Z" transform="matrix(0.813489,0,0,0.813489,18.5583,17.9018) matrix(1.07123,0,0,0.397728,3.08169,57.5981) matrix(17.8589,0,0,48.1009,94.0241,113.097)" style="fill:#4a4a4a;fill-rule:nonzero"/></g></g></g></g></svg>