<svg xmlns="http://www.w3.org/2000/svg" xmlns:svg="http://www.w3.org/2000/svg" id="svg2" width="192" height="192" version="1.1" viewBox="0 0 192 192"><metadata id="metadata7"/><g id="layer1" transform="translate(0,-860.36216)"><path id="path1006" d="M 85.173815,869.77678 43.99392,910.95839 a 5.0001072,5.0001072 89.999418 0 0 7.2e-5,7.07115 l 3.50117,3.50117 -37.8786838,37.8805 a 5.0001228,5.0001228 89.999329 0 0 8.28e-5,7.07116 l 41.179751,41.17983 a 4.9999906,4.9999906 179.99998 0 0 7.071061,0 l 3.301153,-3.3012 38.58667,38.5867 a 4.999894,4.999894 179.99939 0 0 7.070994,-10e-5 l 41.1799,-41.1817 a 5.0000707,5.0000707 89.999188 0 0 -1e-4,-7.07108 l -3.50115,-3.5011 37.87869,-37.88061 a 5.0001252,5.0001252 89.999265 0 0 -1e-4,-7.07115 L 141.2037,905.06224 a 4.9999942,4.9999942 179.99995 0 0 -7.07107,10e-6 l -3.30115,3.30116 -38.586673,-38.5867 a 4.9998935,4.9998935 179.99941 0 0 -7.070992,7e-5 z" style="fill:#98db9a;fill-opacity:1;stroke-width:.544279;stroke-linecap:round;stroke-linejoin:round;paint-order:markers fill stroke"/><path id="path1010" d="M 131.58739,959.12413 79.938554,988.9436 a 2.8867514,2.8867514 30 0 1 -4.330127,-2.5 v -59.63895 a 2.886751,2.886751 150 0 1 4.330127,-2.5 l 51.648836,29.81948 a 2.8867517,2.8867517 90.000004 0 1 0,5 z" style="fill:#fff;fill-opacity:1;stroke-width:.96822;stroke-linecap:round;stroke-linejoin:round;paint-order:markers fill stroke"/></g><style id="style853" type="text/css"/></svg>