<svg xmlns="http://www.w3.org/2000/svg" xmlns:svg="http://www.w3.org/2000/svg" id="svg17" width="192" height="192" fill="none" version="1.1" viewBox="0 0 192 192"><metadata id="metadata21"/><rect id="rect2746" width="152" height="104" x="20" y="62" fill="#56595b" rx="10"/><path id="path2748" fill="#b1b5bd" fill-rule="evenodd" d="m 36,78.99999 c -2.7614,0 -5,2.2386 -5,5 0,2.7614 2.2386,5 5,5 2.7614,0 5,-2.2386 5,-5 0,-2.7614 -2.2386,-5 -5,-5 z m 120,42 c -2.761,0 -5,2.239 -5,5 0,2.761 2.239,5 5,5 2.761,0 5,-2.239 5,-5 0,-2.761 -2.239,-5 -5,-5 z m -5,-16 c 0,-2.761 2.239,-5 5,-5 2.761,0 5,2.239 5,5 0,2.761 -2.239,5 -5,5 -2.761,0 -5,-2.239 -5,-5 z m 5,-26 c -2.761,0 -5,2.2386 -5,5 0,2.7614 2.239,5 5,5 2.761,0 5,-2.2386 5,-5 0,-2.7614 -2.239,-5 -5,-5 z m -25,47 c 0,-2.761 2.239,-5 5,-5 2.761,0 5,2.239 5,5 0,2.761 -2.239,5 -5,5 -2.761,0 -5,-2.239 -5,-5 z m 5,-26 c -2.761,0 -5,2.239 -5,5 0,2.761 2.239,5 5,5 2.761,0 5,-2.239 5,-5 0,-2.761 -2.239,-5 -5,-5 z m -5,-16 c 0,-2.7614 2.239,-5 5,-5 2.761,0 5,2.2386 5,5 0,2.7614 -2.239,5 -5,5 -2.761,0 -5,-2.2386 -5,-5 z m -15,37 c -2.761,0 -5,2.239 -5,5 0,2.761 2.239,5 5,5 2.761,0 5,-2.239 5,-5 0,-2.761 -2.239,-5 -5,-5 z m -5,-16 c 0,-2.761 2.239,-5 5,-5 2.761,0 5,2.239 5,5 0,2.761 -2.239,5 -5,5 -2.761,0 -5,-2.239 -5,-5 z m 5,-26 c -2.761,0 -5,2.2386 -5,5 0,2.7614 2.239,5 5,5 2.761,0 5,-2.2386 5,-5 0,-2.7614 -2.239,-5 -5,-5 z m -25,47 c 0,-2.761 2.2386,-5 5,-5 2.7614,0 5,2.239 5,5 0,2.761 -2.2386,5 -5,5 -2.7614,0 -5,-2.239 -5,-5 z m 5,-26 c -2.7614,0 -5,2.239 -5,5 0,2.761 2.2386,5 5,5 2.7614,0 5,-2.239 5,-5 0,-2.761 -2.2386,-5 -5,-5 z m -5,-16 c 0,-2.7614 2.2386,-5 5,-5 2.7614,0 5,2.2386 5,5 0,2.7614 -2.2386,5 -5,5 -2.7614,0 -5,-2.2386 -5,-5 z m -15,37 c -2.7614,0 -5,2.239 -5,5 0,2.761 2.2386,5 5,5 2.7614,0 5,-2.239 5,-5 0,-2.761 -2.2386,-5 -5,-5 z m -5,-16 c 0,-2.761 2.2386,-5 5,-5 2.7614,0 5,2.239 5,5 0,2.761 -2.2386,5 -5,5 -2.7614,0 -5,-2.239 -5,-5 z m 5,-26 c -2.7614,0 -5,2.2386 -5,5 0,2.7614 2.2386,5 5,5 2.7614,0 5,-2.2386 5,-5 0,-2.7614 -2.2386,-5 -5,-5 z m -25,47 c 0,-2.761 2.2386,-5 5,-5 2.7614,0 5,2.239 5,5 0,2.761 -2.2386,5 -5,5 -2.7614,0 -5,-2.239 -5,-5 z m 5,-26 c -2.7614,0 -5,2.239 -5,5 0,2.761 2.2386,5 5,5 2.7614,0 5,-2.239 5,-5 0,-2.761 -2.2386,-5 -5,-5 z m -5,-16 c 0,-2.7614 2.2386,-5 5,-5 2.7614,0 5,2.2386 5,5 0,2.7614 -2.2386,5 -5,5 -2.7614,0 -5,-2.2386 -5,-5 z m -15,37 c -2.7614,0 -5,2.239 -5,5 0,2.761 2.2386,5 5,5 2.7614,0 5,-2.239 5,-5 0,-2.761 -2.2386,-5 -5,-5 z m -5,-16 c 0,-2.761 2.2386,-5 5,-5 2.7614,0 5,2.239 5,5 0,2.761 -2.2386,5 -5,5 -2.7614,0 -5,-2.239 -5,-5 z m 29,40 c -2.7614,0 -5,2.239 -5,5 0,2.761 2.2386,5 5,5 h 75 c 2.761,0 5,-2.239 5,-5 0,-2.761 -2.239,-5 -5,-5 z" clip-rule="evenodd"/><path id="path2750" fill="#9abeff" fill-rule="evenodd" d="m 133.007,110.99999 c 5.522,0 9.993,-4.477 9.993,-10.001 v -64.9985 c 0,-5.5204 -4.474,-10.0005 -9.993,-10.0005 H 58.9929 c -5.5223,0 -9.9929,4.4774 -9.9929,10.0005 v 64.9985 c 0,5.521 4.474,10.001 9.9929,10.001 h 18.806 c 2.687,0 5.261,1.081 7.1418,3 l 11.0593,11.284 11.2379,-11.238 c 1.861,-1.86 4.38,-2.913 7.011,-2.928 z" clip-rule="evenodd" style="fill:#f9de81;fill-opacity:1"/><path id="path2752" d="m 116.2896,80.95826 c 0.6712,6.00268 -3.0425,11.78821 -9.5973,14.95152 -6.5549,3.1633 -14.8297,3.1633 -21.3846,0 -6.5549,-3.16331 -10.2686,-8.94884 -9.5974,-14.95152 0,0 13.5265,0 20.2897,0 6.7632,0 20.2896,0 20.2896,0 z" style="fill:#8e6f60;fill-opacity:1;stroke:#8e6f60;stroke-width:3;stroke-linecap:butt;stroke-linejoin:round;stroke-miterlimit:4;stroke-dasharray:none;stroke-opacity:1;stop-color:#000"/><circle style="fill:#8e6f60;fill-opacity:1;stroke-width:13.5957;stroke-linecap:round;stroke-linejoin:round;stop-color:#000" id="circle2754" cx="114.188" cy="55.553" r="7.133"/><circle style="fill:#8e6f60;fill-opacity:1;stroke-width:13.5957;stroke-linecap:round;stroke-linejoin:round;stop-color:#000" id="circle2756" cx="77.812" cy="55.553" r="7.133"/></svg>