<svg xmlns="http://www.w3.org/2000/svg" xmlns:xlink="http://www.w3.org/1999/xlink" width="100%" height="100%" version="1.1" viewBox="0 0 192 192" xml:space="preserve" style="fill-rule:evenodd;clip-rule:evenodd;stroke-linejoin:round;stroke-miterlimit:2"><g id="Layer1"><g><path d="M164.5,21.5C164.5,15.981 160.019,11.5 154.5,11.5L21.5,11.5C15.981,11.5 11.5,15.981 11.5,21.5L11.5,154.5C11.5,160.019 15.981,164.5 21.5,164.5L154.5,164.5C160.019,164.5 164.5,160.019 164.5,154.5L164.5,21.5Z" transform="matrix(1,0,0,1,8,8)" style="fill:#fff"/></g><g><path d="M122.017,92.66C122.017,108.01 116.688,126.168 93.916,146.922L79.689,132.695C79.689,132.695 96.388,117.11 96.388,105.013L70.759,105.013L70.759,53.756L122.017,53.756L122.017,92.66Z" transform="matrix(0.78327,0,0,0.78327,20.8902,21.7464)" style="fill:#4a4a4a"/></g></g></svg>