<svg xmlns="http://www.w3.org/2000/svg" xmlns:svg="http://www.w3.org/2000/svg" id="svg2" width="192" height="192" version="1.1" viewBox="0 0 192 192"><metadata id="metadata7"/><g id="layer1" transform="translate(0,-860.36216)"><rect id="rect1007" width="152" height="152" x="20" y="880.362" rx="9.935" ry="9.935" style="fill:#99bdfe;fill-opacity:1;fill-rule:evenodd;stroke:none;stroke-width:.993464;stroke-opacity:1"/><path id="path993" d="m 122.64408,931.06503 -6.31443,5.1092 c -0.77117,0.62397 -0.67415,1.49064 0.14947,2.04256 5.3469,3.58302 8.74174,10.52231 8.74177,18.14513 -3e-5,7.62276 -3.39487,14.56208 -8.74177,18.14511 -0.82362,0.55188 -0.92064,1.41856 -0.14947,2.04254 l 6.31443,5.1092 c 0.77117,0.62398 2.10562,0.74811 2.93757,0.20827 7.93979,-5.15227 12.91814,-14.88257 12.91835,-25.50512 -2.1e-4,-10.62259 -4.97856,-20.35288 -12.91835,-25.50513 -0.83195,-0.53987 -2.1664,-0.41573 -2.93757,0.20824 z" style="fill:#f8c18c;fill-opacity:1;stroke:none;stroke-width:8.9808;stroke-miterlimit:4;stroke-dasharray:none;stroke-opacity:1;stop-color:#000"/><text id="text997" x="49.202" y="984.161" xml:space="preserve" style="font-style:normal;font-variant:normal;font-weight:700;font-stretch:normal;font-size:110.918px;line-height:1.25;font-family:Now;-inkscape-font-specification:'Now Bold';letter-spacing:0;word-spacing:0;fill:#fff;fill-opacity:1;stroke-width:2.77294"><tspan style="font-style:normal;font-variant:normal;font-weight:700;font-stretch:normal;font-family:Now;-inkscape-font-specification:'Now Bold';fill:#fff;fill-opacity:1;stroke-width:2.77294" id="tspan995" x="49.202" y="984.161">e</tspan></text></g><style id="style853" type="text/css"/><style id="style853-9" type="text/css"/><style id="style853-3" type="text/css"/></svg>