<svg xmlns="http://www.w3.org/2000/svg" xmlns:svg="http://www.w3.org/2000/svg" id="svg2" width="192" height="192" version="1.1" viewBox="0 0 192 192"><metadata id="metadata7"/><g id="layer1" transform="translate(0,-860.36216)"><path style="fill:#97db99;fill-opacity:1;fill-rule:evenodd;stroke:none;stroke-opacity:1" id="circle935" d="m 95.814453,868.36216 a 88,88 0 0 0 -87.814453,88 88,88 0 0 0 88,88.00004 88,88 0 0 0 87.53711,-79.00004 h -24.10742 c -4.986,0 -9,-4.014 -9,-9 0,-4.986 4.014,-9 9,-9 h 24.10937 a 88,88 0 0 0 -87.53906,-79 88,88 0 0 0 -0.185547,0 z"/><text id="text946" x="-108.781" y="998.249" transform="rotate(-8.9533966)" xml:space="preserve" style="font-style:normal;font-variant:normal;font-weight:500;font-stretch:normal;font-size:157.781px;line-height:1.25;font-family:Now;-inkscape-font-specification:'Now Medium';letter-spacing:0;word-spacing:0;fill:#fff;fill-opacity:1;stroke-width:3.94453"><tspan style="font-style:normal;font-variant:normal;font-weight:500;font-stretch:normal;font-family:Now;-inkscape-font-specification:'Now Medium';fill:#fff;fill-opacity:1;stroke-width:3.94453" id="tspan944" x="-108.781" y="998.249">e</tspan></text></g><style id="style853" type="text/css"/><style id="style853-9" type="text/css"/><style id="style853-3" type="text/css"/></svg>