<svg xmlns="http://www.w3.org/2000/svg" xmlns:svg="http://www.w3.org/2000/svg" id="svg2" width="192" height="192" version="1.1" viewBox="0 0 192 192"><defs id="defs4"><rect id="rect27227" width="111.723" height="97.934" x="22.981" y="13.081"/><rect id="rect17727" width="73.539" height="53.74" x="10.607" y="6.01"/></defs><metadata id="metadata7"/><g id="layer1" transform="translate(0,-860.36216)"><rect id="rect980" width="153" height="153" x="19.5" y="879.862" rx="10" style="fill:#4a4a4a;fill-opacity:1;fill-rule:evenodd;stroke:none;stroke-opacity:1"/></g><g id="layer2"><path id="path3218" d="m 62.389274,145.89723 c -8.400167,-2.57917 -12.199599,-10.98054 -8.495718,-18.78589 1.210054,-2.55001 2.306914,-3.30866 6.579349,-4.5507 6.047708,-1.7581 10.73805,-6.1608 11.630329,-10.91706 C 72.907208,107.35804 67.816147,93.20889 59.018481,75.278263 52.86575,62.738305 52.310283,61.146758 52.686249,57.134934 c 0.525743,-5.610043 2.859489,-9.056925 8.330892,-10.979285 6.408623,-1.008493 8.227703,-0.182814 10.844366,0.353396 9.719115,0.938152 34.033943,15.762757 44.841573,22.857172 12.16744,7.987051 22.91666,16.653032 25.10203,20.237156 2.12089,3.478388 2.29321,7.958205 0.44369,11.534787 -3.0365,5.87195 -31.47884,26.47905 -36.54692,26.47905 -3.23069,0 -6.773313,-3.40316 -6.773313,-6.50667 0,-4.41211 1.507753,-6.11193 6.781043,-7.64492 6.39817,-1.85999 8.39974,-4.55839 6.56903,-8.85593 -4.30232,-10.099552 -16.580483,-11.878624 -23.687621,-3.43226 -3.443408,4.09225 -3.804366,7.74897 -1.510411,15.30132 1.722063,5.66951 1.841219,7.10764 0.94614,11.41921 -1.461405,7.03955 -5.329588,11.84657 -12.171641,15.12579 -6.507146,3.1187 -10.141374,3.89421 -13.465833,2.87348 z" style="fill:#98dc9a;fill-opacity:1;stroke-width:.911513"/></g><style id="style853" type="text/css"/></svg>