<svg xmlns="http://www.w3.org/2000/svg" xmlns:svg="http://www.w3.org/2000/svg" id="svg2" width="192" height="192" version="1.1" viewBox="0 0 192 192"><metadata id="metadata7"/><g id="layer1" transform="translate(0,-860.36216)"><path style="fill:#fe827c;fill-opacity:1;stroke-width:.944887" id="path990" d="m 53.743927,1027.1382 c -19.769141,0 -32.378594,-11.1062 -32.378594,-26.541 0,-5.08461 1.50611,-11.29306 7.340888,-23.90535 H 7.9999996 L 27.010424,936.02964 H 159.34167 c 3.01222,0 5.0817,-2.25633 5.0817,-4.88921 0,-2.63852 -2.06948,-4.89769 -5.0817,-4.89769 H 52.234982 l 9.413203,-20.14002 c 5.834779,-12.42259 18.447056,-20.51655 32.186084,-20.51655 h 44.990871 c 25.97477,0 45.17486,17.88085 45.17486,41.21993 0,27.67341 -25.4114,49.88575 -54.7749,49.88575 H 42.261232 c -2.638529,5.45823 0.373702,9.78973 6.774676,9.78973 h 69.269862 c 11.4827,0 20.32969,8.09111 20.32969,18.44412 0,11.8595 -11.47986,22.2124 -24.4715,22.2124 z"/></g><style id="style853" type="text/css"/></svg>