<svg xmlns="http://www.w3.org/2000/svg" xmlns:svg="http://www.w3.org/2000/svg" id="svg8" width="192" height="192" version="1.1" viewBox="0 0 50.8 50.8"><metadata id="metadata5"/><g id="layer1"><g id="g1030"><rect style="opacity:1;fill:#9bbfff;fill-opacity:1;fill-rule:evenodd;stroke:none;stroke-width:.264583;stroke-opacity:1" id="rect858" width="40.481" height="40.481" x="5.159" y="5.159" rx="2.646"/><g id="g967" transform="matrix(0.31933299,0,0,0.31933299,17.228594,17.258768)"><path id="rect895" d="M 1.6047778,1.2122787 H 49.573183 c 3.46686,0 6.25787,2.7896042 6.25787,6.2547179 V 43.521987 c 0,3.465114 -2.79101,6.254718 -6.25787,6.254718 H 1.6047778 c -3.4668603,0 -6.2578707,-2.789604 -6.2578707,-6.254718 V 7.4669966 c 0,-3.4651137 2.7910104,-6.2547179 6.2578707,-6.2547179 z" style="fill:#fff;fill-opacity:1;stroke:none;stroke-width:2.6916;stroke-linecap:round;stroke-linejoin:round;stroke-opacity:1"/><path style="opacity:1;fill:#9abefe;fill-opacity:1;stroke:none;stroke-width:17.9098;stroke-linecap:round;stroke-linejoin:round;stroke-opacity:1" id="path932" d="m 4.1914062,30.450521 v 17.694662 a 4.7706306,4.7706306 60.986868 0 0 2.2444364,4.046882 L 93.831736,106.74739 a 4.2385407,4.2385407 3.081115e-7 0 0 4.488872,0 L 185.7165,52.192065 a 4.7706305,4.7706305 119.01313 0 0 2.24444,-4.046882 V 30.450521 a 1.4674287,1.4674287 29.013571 0 0 -2.24446,-1.244818 L 98.32063,83.759141 a 4.2386852,4.2386852 3.0810672e-7 0 1 -4.488916,0 L 6.435864,29.205703 a 1.4674287,1.4674287 150.98643 0 0 -2.2444578,1.244818 z" transform="scale(0.26458333)"/></g></g></g></svg>