<svg xmlns="http://www.w3.org/2000/svg" xmlns:svg="http://www.w3.org/2000/svg" id="svg2" width="192" height="192" version="1.1" viewBox="0 0 192 192"><metadata id="metadata7"/><g id="layer1" transform="translate(0,-860.36216)"><rect id="rect1676" width="152" height="152" x="20" y="880.362" rx="10" style="fill:#99bdfe;fill-opacity:1;stroke-width:5.85194;stop-color:#000"/><path style="fill:#fec4c1;fill-opacity:1;stroke-width:5.6902;stop-color:#000" id="path1678" d="m 67.277055,896.45305 -9.574218,4.87815 -9.574219,4.87814 9.574219,4.87814 9.574218,-4.87814 9.574222,-4.87814 z"/><path style="fill:#fec4c1;fill-opacity:1;stroke-width:5.6902;stop-color:#000" id="path1680" d="m 48.128618,906.20917 9.574219,4.87831 v 11.72656 l -9.574219,-4.87831 z"/><path style="fill:#000;fill-opacity:.15;stroke-width:5.6902;stop-color:#000" id="path1682" d="m 48.128618,906.20917 9.574219,4.87831 v 11.72656 l -9.574219,-4.87831 z"/><path style="fill:#fed5d4;fill-opacity:1;stroke-width:5.6902;stop-color:#000" id="path1684" d="m 95.999712,890.58985 -9.574219,4.87815 -9.574219,4.87814 -9.574219,4.87814 -9.574218,4.87815 -9.57364,4.87756 -9.574219,4.87814 9.574219,4.87815 9.57364,4.87814 9.573637,-4.87756 -9.573637,4.87814 9.574218,4.87815 9.574219,4.87814 9.574219,4.87814 9.574219,4.87814 9.574218,-4.87814 9.57422,-4.87814 9.57422,-4.87814 9.57422,-4.87815 9.57422,-4.87814 9.57422,-4.87815 -9.57422,-4.87814 -9.57422,-4.87814 -9.57422,-4.87815 -9.57422,-4.87814 -9.57422,-4.87814 z m -9.574219,43.9033 9.574219,4.87756 9.574218,-4.87756 -9.574218,4.87814 z"/><path style="fill:#feb0ac;fill-opacity:1;stroke-width:5.6902;stop-color:#000" id="path1686" d="m 38.554978,919.85813 v 11.72657 11.72656 11.72656 11.72656 11.72657 11.72656 11.72659 11.7265 11.7266 6.965 h 57.444734 v -1.1487 -11.7266 -11.7265 -11.72658 -11.72656 -11.72656 -11.72656 -11.72657 l -9.574219,-4.87814 -9.574219,-4.87814 -9.574219,-4.87814 -9.574218,-4.87873 -9.574219,-4.87814 z"/><path style="fill:#000;fill-opacity:.15;stroke-width:5.6902;stop-color:#000" id="path1688" d="m 38.554978,919.85813 v 11.72657 11.72656 11.72656 11.72656 11.72657 11.72656 11.72659 11.7265 11.7266 6.965 h 57.444734 v -1.1487 -11.7266 -11.7265 -11.72658 -11.72656 -11.72656 -11.72656 -11.72657 l -9.574219,-4.87814 -9.574219,-4.87814 -9.574219,-4.87814 -9.574218,-4.87873 -9.574219,-4.87814 z"/><path style="fill:#fed5d4;fill-opacity:1;stroke-width:5.6902;stop-color:#000" id="path1690" d="m 143.87021,983.36909 -9.57362,4.87814 -9.57422,4.87815 -9.57422,4.87872 -9.57422,4.8781 -9.574218,4.8782 -9.574219,4.8781 v 11.7266 7.9971 h 57.444717 v -2.0869 -11.7265 -11.7266 -11.72655 z"/><path style="fill:#feb0ac;fill-opacity:1;stroke-width:5.6902;stop-color:#000" id="path1692" d="m 115.14815,908.13215 -9.57422,4.87815 -9.574218,4.87814 9.574218,4.87814 9.57422,-4.87814 9.57422,-4.87814 z"/><path style="fill:#feb0ac;fill-opacity:1;stroke-width:5.6902;stop-color:#000" id="path1694" d="m 124.72237,913.00971 -9.57422,4.87873 -9.57422,4.87814 v 11.72657 l 9.57422,-4.87815 9.57422,-4.87872 z"/><path style="fill:#feb0ac;fill-opacity:1;stroke-width:5.6902;stop-color:#000" id="path1696" d="m 105.57422,903.25343 -9.574217,4.87872 -9.574219,4.87815 v 11.72656 l 9.574219,-4.87815 9.574217,-4.87872 z"/><path style="fill:#feb0ac;fill-opacity:1;stroke-width:5.6902;stop-color:#000" id="path1698" d="m 96.000003,898.37557 -9.574219,4.87815 -9.574219,4.87814 9.574219,4.87815 9.574219,-4.87815 9.574217,-4.87814 z"/><path style="fill:#feb0ac;fill-opacity:1;stroke-width:5.6902;stop-color:#000" id="path1700" d="m 86.425496,894.48236 -9.574222,4.87873 -9.574219,4.87814 v 11.72656 l 9.574219,-4.87814 9.574222,-4.87873 z"/><path style="fill:#feb0ac;fill-opacity:1;stroke-width:5.6902;stop-color:#000" id="path1702" d="m 76.851274,889.6048 -9.574219,4.87814 -9.574218,4.87815 9.574218,4.87814 9.574219,-4.87814 9.574222,-4.87815 z"/><path style="fill:#fff;fill-opacity:1;stroke-width:5.6902;stop-color:#000" id="path1704" d="m 48.129197,936.94874 -9.574219,4.87814 9.574219,4.87815 9.574219,-4.87815 z m 9.574219,4.87872 -9.574219,4.87815 9.574219,4.87814 9.574218,4.87815 v 11.72656 11.72656 11.72656 l 9.574219,-4.87814 v -11.72656 -11.72657 -11.72656 l -9.574219,-4.87814 z"/><path style="fill:#d8d8d8;fill-opacity:1;stroke-width:5.6902;stop-color:#000" id="path1706" d="m 38.554978,941.82688 v 11.72657 11.72656 11.72656 l 9.574219,4.87814 9.574219,4.87873 9.574218,4.87814 V 979.91502 968.18846 956.4619 l -9.574218,-4.87815 -9.574219,-4.87872 z"/><path style="fill:#56595b;fill-opacity:1;stroke-width:5.6902;stop-color:#000" id="path1708" d="m 51.040573,956.73479 9.574219,4.87831 v 11.72656 l -9.574219,-4.87831 z"/><path style="fill:#feb0ac;fill-opacity:1;stroke-width:5.6902;stop-color:#000" id="path1710" d="m 115.14798,974.55089 -9.57422,4.87831 v 11.72656 l 9.57422,-4.8783 z"/><path style="fill:#fff;fill-opacity:1;stroke-width:5.6902;stop-color:#000" id="path1712" d="m 115.14798,998.00411 -9.57422,4.87829 v 11.7266 l 9.57422,-4.8783 z"/><path style="fill:#fff;fill-opacity:1;stroke-width:5.6902;stop-color:#000" id="path1714" d="m 143.87081,983.36892 -9.57422,4.87831 v 11.72657 l 9.57422,-4.87831 z"/><path style="fill:#feb0ac;fill-opacity:1;stroke-width:5.6902;stop-color:#000" id="path1716" d="m 143.87081,995.09565 -9.57422,4.87815 v 11.7266 11.7265 8.9353 h 9.57422 v -2.0869 -11.7265 -11.7266 z"/><path style="fill:#feb0ac;fill-opacity:1;stroke-width:5.6902;stop-color:#000" id="path1718" d="m 143.87054,959.91596 -9.57419,4.87831 v 11.72657 l 9.57419,-4.87831 z"/><path style="fill:#d8d8d8;fill-opacity:1;stroke-width:5.6902;stop-color:#000" id="path1720" d="m 95.99954,998.00411 9.57422,4.87829 v 11.7266 l -9.57422,-4.8783 z"/><path style="fill:#ccc;fill-opacity:1;stroke-width:5.6902;stop-color:#000" id="path1722" d="m 124.72237,983.36892 9.57422,4.87831 v 11.72657 l -9.57422,-4.87831 z"/><path style="fill:#feb0ac;fill-opacity:1;stroke-width:5.6902;stop-color:#000" id="path1724" d="m 86.425493,1002.8822 v 11.7266 11.7266 6.0268 h 9.574219 v -1.1487 -11.7266 -11.7265 z"/><path style="fill:#feb0ac;fill-opacity:1;stroke-width:5.6902;stop-color:#000" id="path1726" d="m 153.44443,919.85813 -9.57362,4.87815 -9.57422,4.87814 -9.57422,4.87873 -9.57422,4.87814 -9.57422,4.87814 -9.574218,4.87814 v 11.72657 11.72656 11.72656 11.72656 11.72658 l 9.574218,-4.8782 9.57422,-4.8781 9.57422,-4.87814 9.57422,-4.87873 9.57422,-4.87814 9.57362,-4.87814 V 966.76438 955.03782 943.31126 931.5847 Z"/><path style="fill:#fff;fill-opacity:.25;stroke-width:5.6902;stop-color:#000" id="path1728" d="m 153.44443,919.85813 -9.57362,4.87815 -9.57422,4.87814 -9.57422,4.87873 -9.57422,4.87814 -9.57422,4.87814 -9.574218,4.87814 v 11.72657 11.72656 11.72656 11.72656 11.72658 l 9.574218,-4.8782 9.57422,-4.8781 9.57422,-4.87814 9.57422,-4.87873 9.57422,-4.87814 9.57362,-4.87814 V 966.76438 955.03782 943.31126 931.5847 Z"/><path style="fill:#000;fill-opacity:.15;stroke-width:5.6902;stop-color:#000" id="path1730" d="m 115.14798,974.55089 -9.57422,4.87831 v 11.72656 l 9.57422,-4.8783 z"/><path style="fill:#000;fill-opacity:.15;stroke-width:5.6902;stop-color:#000" id="path1732" d="m 143.87054,959.91596 -9.57419,4.87831 v 11.72657 l 9.57419,-4.87831 z"/><path style="fill:#fff;fill-opacity:.25;stroke-width:5.6902;stop-color:#000" id="path1734" d="m 115.14815,908.13215 -9.57422,4.87815 -9.574218,4.87814 9.574218,4.87814 9.57422,-4.87814 9.57422,-4.87814 z"/><path style="fill:#fff;fill-opacity:.25;stroke-width:5.6902;stop-color:#000" id="path1736" d="m 96.000003,898.37557 -9.574219,4.87815 -9.574219,4.87814 9.574219,4.87815 9.574219,-4.87815 9.574217,-4.87814 z"/><path style="fill:#fff;fill-opacity:.25;stroke-width:5.6902;stop-color:#000" id="path1738" d="m 76.851274,889.6048 -9.574219,4.87814 -9.574218,4.87815 9.574218,4.87814 9.574219,-4.87814 9.574222,-4.87815 z"/><path style="fill:#fec4c1;fill-opacity:1;stroke-width:5.6902;stop-color:#000" id="path1740" d="m 76.851565,908.13199 9.574219,4.87831 v 11.72656 l -9.574219,-4.87831 z"/><path style="fill:#fec4c1;fill-opacity:1;stroke-width:5.6902;stop-color:#000" id="path1742" d="m 95.999712,917.88827 9.574218,4.87831 v 11.72657 l -9.574218,-4.87831 z"/><path style="fill:#fec4c1;fill-opacity:1;stroke-width:5.6902;stop-color:#000" id="path1744" d="m 57.702837,899.36092 9.574218,4.87831 v 11.72656 l -9.574218,-4.87831 z"/><path style="fill:#000;fill-opacity:.15;stroke-width:5.6902;stop-color:#000" id="path1746" d="m 76.851565,908.13199 9.574219,4.87831 v 11.72656 l -9.574219,-4.87831 z"/><path style="fill:#000;fill-opacity:.15;stroke-width:5.6902;stop-color:#000" id="path1748" d="m 95.999712,917.88827 9.574218,4.87831 v 11.72657 l -9.574218,-4.87831 z"/><path style="fill:#000;fill-opacity:.15;stroke-width:5.6902;stop-color:#000" id="path1750" d="m 57.702837,899.36092 9.574218,4.87831 v 11.72656 l -9.574218,-4.87831 z"/></g><style id="style853" type="text/css"/><style id="style853-9" type="text/css"/><style id="style853-3" type="text/css"/></svg>