<svg xmlns="http://www.w3.org/2000/svg" xmlns:svg="http://www.w3.org/2000/svg" id="svg2" width="192" height="192" version="1.1" viewBox="0 0 192 192"><metadata id="metadata7"/><g id="layer1" transform="translate(0,-860.36216)"><circle id="circle987" cx="96" cy="956.362" r="88" style="fill:#ff837d;fill-opacity:1;fill-rule:evenodd;stroke:none;stroke-opacity:1"/><circle id="path923" cx="96" cy="956.362" r="79.033" style="fill:none;stroke:#fff;stroke-width:17.933;stroke-linecap:square;stroke-linejoin:round;stroke-miterlimit:4;stroke-dasharray:none;stroke-opacity:.5;stop-color:#000"/><path id="circle925" d="m 96.386967,877.32999 a 79.033142,79.033142 0 0 1 76.193543,59.4974 79.033142,79.033142 0 0 1 -38.38401,88.72461 79.033142,79.033142 0 0 1 -95.532779,-14.7947" style="fill:none;stroke:#fff;stroke-width:17.933;stroke-linecap:round;stroke-linejoin:round;stroke-miterlimit:4;stroke-dasharray:none;stroke-opacity:1;stop-color:#000"/><path style="fill:#fff;fill-opacity:1;stroke:none;stroke-width:1.28093px;stroke-linecap:butt;stroke-linejoin:miter;stroke-opacity:1" id="path949" d="m 95.917084,914.60187 c -2.771473,0 -5.003626,2.23214 -5.003626,5.00362 v 7.08764 27.26476 c 0,2.31398 -1.864039,4.17552 -4.178028,4.17552 -2.313988,0 -4.175522,-1.86154 -4.175526,-4.17552 L 82.900152,918.93 c 0.02961,-3.05345 -2.386765,-4.14828 -4.643365,-4.21555 -3.747262,-0.1117 -5.017142,3.16489 -5.258811,6.27204 -0.839617,10.795 -2.364202,36.85298 -2.048986,37.56222 0.04287,12.3491 3.396775,17.48294 11.320704,21.62818 7.923929,4.14525 7.698079,10.65149 7.698079,12.78676 0,11.23085 -2.974656,33.56185 -2.974656,33.56185 h 9.006526 9.006527 c 0,0 -2.97466,-22.331 -2.97466,-33.56185 0,-2.13527 -0.22584,-8.64151 7.69808,-12.78676 7.92393,-4.14524 11.27779,-9.27908 11.3207,-21.62818 0.31522,-0.70924 -1.20936,-26.76722 -2.04898,-37.56222 -0.24167,-3.10715 -1.51155,-6.38374 -5.25881,-6.27204 -2.2566,0.0673 -4.67296,1.1621 -4.64337,4.21555 l 0.34026,35.02789 c 0,2.31398 -1.86154,4.17552 -4.17554,4.17552 -2.31398,0 -4.17802,-1.86154 -4.17802,-4.17552 v -27.26476 -7.08764 c 0,-2.77148 -2.232155,-5.00362 -5.003627,-5.00362 -0.02827,0 -0.0544,0.007 -0.08256,0.008 -0.02815,-4.6e-4 -0.05429,-0.008 -0.08256,-0.008 z"/></g><style id="style853" type="text/css"/><style id="style853-9" type="text/css"/><style id="style853-3" type="text/css"/></svg>