<svg xmlns="http://www.w3.org/2000/svg" xmlns:svg="http://www.w3.org/2000/svg" id="svg2" width="192" height="192" version="1.1" viewBox="0 0 192 192"><metadata id="metadata7"/><g id="layer1" transform="translate(0,-860.36216)"><rect style="fill:#fefefe;fill-opacity:1;fill-rule:evenodd;stroke:none;stroke-opacity:1" id="rect2260" width="153" height="153" x="19.5" y="879.862" rx="10"/><path id="path2250" d="m 95.360934,920.15598 -21.103312,25.39785 a 1.2035053,1.2035053 90.000101 0 0 -2e-6,1.53828 l 7.702531,9.27007 -7.702532,9.27008 a 1.2035056,1.2035056 89.99988 0 0 4e-6,1.53828 l 21.10331,25.39784 a 0.83090941,0.83090941 180 0 0 1.278167,0 l 21.10331,-25.39784 a 1.2033631,1.2033631 89.996778 0 0 -9e-5,-1.53821 l -7.70442,-9.27015 5.57556,-6.70984 a 1.2035918,1.2035918 90.003592 0 0 9e-5,-1.53832 l -5.48859,-6.60687 c -1.51979,-1.75592 -1.99225,-2.99562 -0.65605,-5.54933 0.0639,-0.1222 0.0464,-0.30625 -0.0419,-0.41246 l -0.38884,-0.46814 a 0.20771586,0.20771586 0.00823361 0 0 -0.31953,-4e-5 l -8.18382,9.84689 -3.895699,-4.68773 a 0.83096672,0.83096672 179.99747 0 0 -1.27822,5e-5 l -10.025366,12.06579 -4.329084,-5.21007 a 1.2035117,1.2035117 89.999831 0 1 -4e-6,-1.53828 l 14.354452,-17.27586 a 0.83085821,0.83085821 0.00130677 0 1 1.278121,3e-5 l 4.65213,5.59945 a 0.20783258,0.20783258 0.01730621 0 0 0.31964,9e-5 l 0.41429,-0.49804 c 0.0883,-0.10615 0.0905,-0.28005 0.005,-0.38842 -2.84819,-3.60739 -4.692635,-5.95774 -3.066308,-8.51372 0.29609,-0.46534 0.323348,-1.13543 -0.02966,-1.56017 l -2.294931,-2.76129 a 0.8310094,0.8310094 179.9966 0 0 -1.278258,8e-5 z m 8.939146,24.02816 c 0.96972,-0.0842 1.69574,0.58725 2.44946,1.38301 l 2.11694,2.54702 a 1.2032519,1.2032519 89.997887 0 1 6e-5,1.53815 l -2.20209,2.64986 -5.19569,-6.25226 c 1.17471,-1.27643 2.07708,-1.80027 2.83132,-1.86578 z m -7.660903,4.17417 6.651833,8.00387 -6.651918,8.00578 a 0.83089014,0.83089014 179.99999 0 1 -1.27815,0 l -6.651921,-8.00578 6.651836,-8.00387 a 0.83107767,0.83107767 5.7943467e-6 0 1 1.27832,0 z m 10.025273,12.06388 4.32909,5.21007 a 1.2035111,1.2035111 89.999822 0 1 0,1.53828 l -14.354445,17.27585 a 0.83089707,0.83089707 180 0 1 -1.278156,0 L 81.006487,967.17054 a 1.2033121,1.2033121 90.004826 0 1 1.29e-4,-1.53817 l 4.328959,-5.2082 10.025366,12.06578 a 0.83082832,0.83082832 179.99782 0 0 1.278093,-5e-5 z" style="color:#000;font-style:normal;font-variant:normal;font-weight:400;font-stretch:normal;font-size:medium;line-height:normal;font-family:sans-serif;font-variant-ligatures:normal;font-variant-position:normal;font-variant-caps:normal;font-variant-numeric:normal;font-variant-alternates:normal;font-variant-east-asian:normal;font-feature-settings:normal;font-variation-settings:normal;text-indent:0;text-align:start;text-decoration:none;text-decoration-line:none;text-decoration-style:solid;text-decoration-color:#000;letter-spacing:normal;word-spacing:normal;text-transform:none;writing-mode:lr-tb;direction:ltr;text-orientation:mixed;dominant-baseline:auto;baseline-shift:baseline;text-anchor:start;white-space:normal;shape-padding:0;shape-margin:0;inline-size:0;clip-rule:nonzero;display:inline;overflow:visible;visibility:visible;isolation:auto;mix-blend-mode:normal;color-interpolation:sRGB;color-interpolation-filters:linearRGB;solid-color:#000;solid-opacity:1;vector-effect:none;fill:#f8dd7f;fill-opacity:1;fill-rule:nonzero;stroke:none;stroke-width:5.23503;stroke-linecap:butt;stroke-linejoin:miter;stroke-miterlimit:4;stroke-dasharray:none;stroke-dashoffset:0;stroke-opacity:1;color-rendering:auto;image-rendering:auto;shape-rendering:auto;text-rendering:auto;enable-background:accumulate;stop-color:#000"/></g><style id="style853" type="text/css"/></svg>