<svg xmlns="http://www.w3.org/2000/svg" xmlns:svg="http://www.w3.org/2000/svg" id="svg2" width="192" height="192" version="1.1" viewBox="0 0 192 192"><metadata id="metadata7"/><g id="layer1" transform="translate(0,-860.36216)"><g style="opacity:1;fill:none;fill-opacity:1;fill-rule:evenodd;stroke:#000;stroke-opacity:1" id="g4186" transform="translate(-1255.5532,1044.669)"><rect style="fill:none;fill-opacity:1;stroke:#000;stroke-opacity:1" id="rect4188" width="153" height="153" x="11.5" y="11.5" rx="10" ry="10"/><circle style="fill:none;fill-opacity:1;stroke:#000;stroke-opacity:1" id="circle4190" cx="88" cy="88" r="88"/><circle style="fill:none;fill-opacity:1;stroke:#000;stroke-opacity:1" id="circle4192" cx="88" cy="88" r="36"/><rect style="fill:none;fill-opacity:1;stroke:#000;stroke-opacity:1" id="rect4194" width="127" height="175" x="24.5" y=".5" rx="10" ry="10"/><rect style="fill:none;fill-opacity:1;stroke:#000;stroke-opacity:1" id="rect4196" width="127" height="175" x="24.5" y=".5" rx="10" ry="10" transform="rotate(90,88,88)"/></g><path id="path1133" d="m 23.26362,896.27049 v 80.04232 a 5.6144398,5.6144398 60.860357 0 0 2.662484,4.77576 l 63.919221,39.50923 a 11.70532,11.70532 2.4484498e-4 0 0 12.308745,10e-5 l 63.92056,-39.50935 a 5.6144524,5.6144524 119.14019 0 0 2.66253,-4.77574 l 8.4e-4,-80.04232 a 5.8915886,5.8915886 29.140372 0 0 -8.98919,-5.01162 L 95.99968,930.66166 32.252838,891.259 a 5.8915601,5.8915601 150.86035 0 0 -8.989218,5.01149 z" style="fill:#f7c18c;fill-opacity:1;stroke:none;stroke-width:1px;stroke-linecap:butt;stroke-linejoin:miter;stroke-opacity:1"/><path id="path1135" d="m 162.71259,890.37956 c -1.04824,0.024 -2.07106,0.3275 -2.96289,0.8789 l -63.75146,39.4023 72.73583,45.8535 0.004,-80.2441 c 3.1e-4,-3.3064 -2.71981,-5.9657 -6.02539,-5.8906 z" style="fill:#fbebdb;fill-opacity:1;stroke:none;stroke-width:15.1;stroke-linecap:round;stroke-linejoin:round;paint-order:markers fill stroke"/><path id="path1137" d="m 29.1506,890.37866 c -3.25232,0 -5.88815,2.6383 -5.88867,5.8906 l 0.004,80.2422 72.73231,-45.8507 -63.74599,-39.4032 c -0.93204,-0.5757 -2.0061,-0.88 -3.10156,-0.8789 z" style="fill:#fbebdb;fill-opacity:1;stroke:none;stroke-width:15.1;stroke-linecap:round;stroke-linejoin:round;paint-order:markers fill stroke"/><path id="path1139" d="m 37.5705,894.54556 58.42969,101.7636 58.42969,-101.7636 -58.43164,36.1152 z" style="fill:#f7c18c;fill-opacity:1;stroke:none;stroke-width:15.1;stroke-linecap:round;stroke-linejoin:round;paint-order:markers fill stroke"/><circle style="fill:#4c4c4c;fill-opacity:1;stroke:none;stroke-width:15.1;stroke-linecap:round;stroke-linejoin:round;paint-order:markers fill stroke" id="circle1141" cx="117.143" cy="981.405" r="6.893"/><circle style="fill:#4c4c4c;fill-opacity:1;stroke:none;stroke-width:15.1;stroke-linecap:round;stroke-linejoin:round;paint-order:markers fill stroke" id="circle1143" cx="74.858" cy="981.405" r="6.893"/><circle style="fill:#4c4c4c;fill-opacity:1;stroke:none;stroke-width:15.1;stroke-linecap:round;stroke-linejoin:round;paint-order:markers fill stroke" id="circle1145" cx="96" cy="1014.069" r="7.961"/><circle style="fill:#575a5c;fill-opacity:1;stroke:none;stroke-width:15.1;stroke-linecap:round;stroke-linejoin:round;paint-order:markers fill stroke" id="circle1147" cx="117.143" cy="981.405" r="6.893"/><circle style="fill:#575a5c;fill-opacity:1;stroke:none;stroke-width:15.1;stroke-linecap:round;stroke-linejoin:round;paint-order:markers fill stroke" id="circle1149" cx="74.858" cy="981.405" r="6.893"/><circle style="fill:#575a5c;fill-opacity:1;stroke:none;stroke-width:15.1;stroke-linecap:round;stroke-linejoin:round;paint-order:markers fill stroke" id="circle1151" cx="96" cy="1014.069" r="7.961"/></g><style id="style853" type="text/css"/></svg>