<svg xmlns="http://www.w3.org/2000/svg" xmlns:svg="http://www.w3.org/2000/svg" id="svg2" width="192" height="192" version="1.1" viewBox="0 0 192 192"><metadata id="metadata7"/><g id="layer1" transform="translate(0,-860.36216)"><g id="g894"><circle id="circle939" cx="96" cy="956.362" r="88" style="fill:#fefefe;fill-opacity:1;fill-rule:evenodd;stroke:none;stroke-width:1;stroke-opacity:1"/><path style="fill:#72a373;fill-opacity:1;fill-rule:evenodd;stroke:none;stroke-width:1;stroke-opacity:1" id="circle886" d="M 95.814453 8 A 87.999947 87.999947 0 0 0 8 96 A 87.999947 87.999947 0 0 0 62.71875 177.46289 L 81.904297 118.25195 L 124.15039 118.25195 L 114.91602 112.26367 L 83.298828 112.26367 L 83.275391 112.23828 L 95.630859 72.527344 L 74.685547 106.1543 L 80.951172 110.58203 L 71.912109 110.58203 L 63.960938 123.23047 L 30.097656 140.96289 L 29.625 141.20703 C 29.376172 141.30393 29.299026 141.05583 29.529297 140.86133 L 71.816406 104.94141 L 18 111.21484 C 17.844307 111.21765 17.715784 111.01195 18 110.86133 L 70.169922 95.533203 L 17.716797 80.1875 C 17.526955 80.1012 17.526955 79.935974 17.716797 79.833984 L 71.816406 85.548828 L 29.433594 50.746094 C 29.370223 50.646304 29.522772 50.476794 29.710938 50.558594 L 77.365234 76.595703 L 52.154297 28.59375 C 52.118615 28.39293 52.334775 28.357702 52.439453 28.507812 L 85.765625 71.882812 L 81.873047 15.75 C 81.867368 15.48321 82.131378 15.37026 82.257812 15.75 L 96.388672 69.865234 L 112.52734 17.326172 C 112.68532 16.906532 112.94565 17.154167 112.90625 17.429688 L 106.16797 71.537109 L 141.25977 30.351562 C 141.41013 30.175592 141.55377 30.291461 141.42578 30.525391 L 114.56641 77.912109 L 163.22266 53.246094 C 163.43322 53.152464 163.79343 53.143333 163.48242 53.408203 L 120.28125 86.115234 L 175.5957 82.513672 C 175.7613 82.510212 175.71376 82.73255 175.50977 82.78125 L 121.58984 95.800781 L 173.47656 113.99609 L 173.86328 114.12305 C 174.03003 114.18019 173.91182 114.50542 173.57031 114.45312 L 118.54102 106.06055 L 161.08789 142.79297 C 161.2954 143.02397 161.13265 143.29075 160.90625 143.18555 L 128.42188 125.06836 L 151.81445 164.0332 A 87.999947 87.999947 0 0 0 184 96 A 87.999947 87.999947 0 0 0 96 8 A 87.999947 87.999947 0 0 0 95.814453 8 z" transform="translate(0,860.36216)"/></g></g><style id="style853" type="text/css"/></svg>