<svg xmlns="http://www.w3.org/2000/svg" xmlns:xlink="http://www.w3.org/1999/xlink" id="Слой_1" x="0" y="0" enable-background="new 0 0 192 192" version="1.1" viewBox="0 0 192 192" xml:space="preserve"><g><circle cx="96" cy="96" r="96" fill="#9ABEFF"/><path fill="#FFF" d="M145.3,71.4c-2.8-2.8-6.2-4.2-10.2-4.2H91.9v-0.1h-0.4l-8.9-15.5c-1.6-0.6-3.3-0.9-5.1-0.9H56.9 c-4,0-7.3,1.4-10.2,4.2c-2.8,2.8-4.2,6.2-4.2,10.2v61.8c0,3.9,1.4,7.3,4.2,10.2c2.8,2.8,6.2,4.3,10.2,4.3h78.3 c4,0,7.3-1.4,10.2-4.3c2.8-2.8,4.2-6.2,4.2-10.2V81.6C149.6,77.6,148.2,74.2,145.3,71.4z"/></g></svg>