<svg xmlns="http://www.w3.org/2000/svg" xmlns:svg="http://www.w3.org/2000/svg" id="svg2" width="192" height="192" version="1.1" viewBox="0 0 192 192"><metadata id="metadata7"/><g id="layer1" transform="translate(0,-860.36216)"><g id="g1020" transform="translate(-253.80906,-299.19241)"><rect id="rect888" width="152" height="152" x="273.809" y="1179.555" fill="#728dbe" rx="10" ry="10" style="fill:#c49b56;fill-opacity:1"/><path id="path890" fill="#9abeff" fill-rule="evenodd" d="m 273.80906,1202.5544 c 0,-5.5228 4.4752,-10 9.9981,-10 11.1769,0 28.3903,0 33.5687,0 8.4587,0 11.5737,13.2564 15.366,13.2564 21.0057,0 63.7042,0 83.0912,0 5.523,0 9.976,4.4772 9.976,10 v 105.7436 c 0,5.523 -4.477,10 -10,10 h -132 c -5.5228,0 -10,-4.477 -10,-10 z" clip-rule="evenodd" style="fill:#f8dd81;fill-opacity:1"/><g id="g971" transform="translate(88.767797,21.788419)"><rect style="fill:#fff;stroke-width:.479172;stroke-linecap:round;stroke-linejoin:round;paint-order:markers fill stroke" id="rect892" width="55.37" height="11.757" x="-289.226" y="-1246.329" rx="2.987" ry="2.987" transform="scale(-1)"/><rect style="fill:#fff;stroke-width:.479172;stroke-linecap:round;stroke-linejoin:round;paint-order:markers fill stroke" id="rect894" width="55.37" height="11.757" x="1212.766" y="-267.42" rx="2.987" ry="2.987" transform="rotate(90)"/></g></g></g><style id="style853" type="text/css"/></svg>