<svg xmlns="http://www.w3.org/2000/svg" xmlns:svg="http://www.w3.org/2000/svg" id="svg2" width="192" height="192" version="1.1" viewBox="0 0 192 192"><metadata id="metadata7"/><g id="layer1" transform="translate(0,-860.36216)"><g style="stroke-width:.934105" id="g962" transform="matrix(1.0705438,0,0,1.0705438,-6.7722088,-67.465477)"><path style="fill:#b1b5bd;fill-opacity:1;stroke-width:.934105" id="path1179" d="m 157.681,1020.7837 9e-5,-108.84311 c 0,-5.54 -4.46,-10 -10,-10 H 44.31891 c -5.54,0 -10,4.46 -10,10 v 108.84311 c 0,5.54 4.46,10.0005 10,10.0005 l 103.36218,-5e-4 c 5.54,0 9.99991,-4.46 9.99991,-10 z"/><path style="fill:#d7d7d7;fill-opacity:1;stroke-width:.872552" id="path1181" fill="#9abeff" fill-rule="evenodd" d="m 147.72649,1030.7842 c 5.5229,0 9.95451,-4.4777 9.95451,-10.0005 V 891.94059 c 0,-5.523 -4.47711,-10 -9.99991,-10 H 54.06587 c -5.523,0 -10,4.477 -10,10 l 4e-5,121.74151 v 12.702 c 0,4.4007 -2.3597,4.0576 -2.3597,4.0576 0.714517,0.2169 1.761667,0.3425 2.3597,0.3425 z" clip-rule="evenodd"/><rect id="rect1183" width="65.04" height="4.051" x="55.039" y="1009.673" rx="2.563" ry="2.502" style="fill:#83868c;fill-opacity:1;stroke:#84878d;stroke-width:.698789;stroke-linecap:round;stroke-linejoin:round;stroke-opacity:1;paint-order:markers fill stroke"/><rect id="rect1185" width="77.409" height="4.051" x="55.039" y="945.381" rx="2.104" ry="2.502" style="fill:#83868c;fill-opacity:1;stroke:#84878d;stroke-width:.762353;stroke-linecap:round;stroke-linejoin:round;stroke-opacity:1;paint-order:markers fill stroke"/><rect id="rect1187" width="36.718" height="4.051" x="55.039" y="966.812" rx="2.104" ry="2.502" style="fill:#83868c;fill-opacity:1;stroke:#84878d;stroke-width:.525042;stroke-linecap:round;stroke-linejoin:round;stroke-opacity:1;paint-order:markers fill stroke"/><rect id="rect1189" width="40.161" height="4.051" x="55.039" y="988.242" rx="2.104" ry="2.502" style="fill:#83868c;fill-opacity:1;stroke:#84878d;stroke-width:.549112;stroke-linecap:round;stroke-linejoin:round;stroke-opacity:1;paint-order:markers fill stroke"/><rect id="rect1193" width="60.309" height="30.657" x="69.539" y="898.627" rx="3.787" ry="3.787" style="fill:#b1b5bd;fill-opacity:1;stroke:none;stroke-width:.640796;stroke-linecap:round;stroke-linejoin:round;stroke-miterlimit:4;stroke-dasharray:none;stroke-opacity:1;paint-order:markers fill stroke"/><rect id="rect1191" width="33.657" height="33.657" x="108.409" y="962.731" rx="3.787" ry="3.787" style="fill:#b1b5bd;fill-opacity:1;stroke:none;stroke-width:.640796;stroke-linecap:round;stroke-linejoin:round;stroke-miterlimit:4;stroke-dasharray:none;stroke-opacity:1;paint-order:markers fill stroke"/><path id="path1195" d="m 115.41241,988.81963 c 6.58714,-8.56855 6.58714,-8.56855 6.58714,-8.56855 l 4.39143,7.04459 8.67188,-16.997" style="fill:none;stroke:#83868c;stroke-width:2.33526;stroke-linecap:round;stroke-linejoin:round;stroke-miterlimit:4;stroke-dasharray:none;stroke-opacity:1"/></g></g><style id="style853" type="text/css"/><style id="style853-6" type="text/css"/></svg>