<svg xmlns="http://www.w3.org/2000/svg" xmlns:svg="http://www.w3.org/2000/svg" xmlns:xlink="http://www.w3.org/1999/xlink" id="svg60" width="192" height="192" version="1.1" viewBox="0 0 192 192"><metadata id="metadata64"/><defs id="defs25"><path id="firefox_beta-a" d="M110.06051,0 C113.009017,4.76297245 115.918942,9.17871164 118.790286,13.2472176 C124.3588,21.1374377 129.782208,27.7216985 135.06051,33 C143.06051,41 149.06051,51 153.06051,63 C152.362922,58.0623061 151.362922,53.3956394 150.06051,49 C148.758098,44.6043606 147.091432,40.2710273 145.06051,36 C147.744751,37.2903925 151.078085,40.6237258 155.06051,46 C158.232052,50.2815814 160.991921,54.9587474 163.340118,60.031498 C166.995493,69.4837292 169,79.7577758 169,90.5 C169,137.168061 131.168061,175 84.5,175 C37.8319386,175 0,137.168061 0,90.5 C0,82.1447949 1.21264396,74.072818 3.47153414,66.4504669 C7.40559172,56.7921857 11.2685836,49.3086968 15.0605099,44 C19.30481,38.0579799 24.9714766,32.7246465 32.0605099,28 C32.4392091,32.3096754 32.7725425,35.9763421 33.0605099,39 C33.3484773,42.0236579 34.015144,45.3569913 35.0605099,49 C40.7554011,43.3131729 44.7554011,39.6465063 47.0605099,38 C49.3656187,36.3534937 52.3656187,34.6868271 56.0605099,33 C54.7271766,38 54.0605099,41.6666667 54.0605099,44 C54.0605099,46.1810422 54.3517514,48.9445676 54.9342345,52.290576 C55.0136231,52.7466298 55.2487548,53.1610221 55.5995305,53.4630883 C60.0359021,57.2834148 63.8562286,60.7957187 67.0605099,64 C70.0299629,66.969453 75.1156522,69.6743765 82.3175778,72.1147704 C83.3637168,72.4692608 83.9244118,73.6046938 83.5699241,74.6508337 C83.4929428,74.878016 83.375721,75.0894972 83.2238591,75.275174 C81.9689364,76.8095283 80.9144866,78.051137 80.0605099,79 C78.9661277,80.2159803 77.8011641,81.3954285 76.5656191,82.5383446 C76.2436231,82.83619 75.832645,83.0199293 75.3959701,83.0612609 C67.3260182,83.8250888 61.2141981,85.1380018 57.0605099,87 C50.6600789,89.8691587 47.0605099,94 47.0605099,98 C47.0605099,108 60.0605099,128 83.0605099,128 C103.06051,128 119.06051,115 119.06051,95 C119.06051,81.6666667 112.727177,71 100.06051,63 C104.687114,62.8634773 106.687114,63.1968106 110.06051,64 C113.433905,64.8031894 116.433905,66.1365227 119.06051,68 C114.06051,60 109.837312,55.0997476 104.06051,52 C98.2837076,48.9002524 90.617041,46.2335858 81.0605099,46 C82.6207461,34.6819079 85.6207461,26.3485745 90.0605099,19 C92.5986314,14.7989713 95.8645434,10.929741 99.8582458,7.3923092 C102.850503,4.74191785 106.251237,2.27783287 110.06051,0 Z"/><linearGradient id="firefox_beta-b" x1="155.936" x2="112.279" y1="84.984" y2="181.391" gradientTransform="scale(1.1026456,0.9069097)" gradientUnits="userSpaceOnUse"><stop id="stop3" offset="0%" stop-color="#F9DE81"/><stop id="stop5" offset="61.27%" stop-color="#FF837D" stop-opacity="0"/><stop id="stop7" offset="100%" stop-color="#8C72BD"/></linearGradient><linearGradient id="firefox_beta-d" x1="100.093" x2="49.129" y1="70.381" y2="164.522" gradientTransform="scale(1.0240893,0.97647733)" gradientUnits="userSpaceOnUse"><stop id="stop10" offset="0%" stop-color="#F9DE81"/><stop id="stop12" offset="100%" stop-color="#F9C28D" stop-opacity=".15"/></linearGradient><linearGradient id="firefox_beta-e" x1="181.948" x2="179.832" y1="37.725" y2="80.247" gradientTransform="scale(0.71014812,1.4081569)" gradientUnits="userSpaceOnUse"><stop id="stop15" offset="0%" stop-color="#F9DE81"/><stop id="stop17" offset="100%" stop-color="#F9DE81" stop-opacity="0"/></linearGradient><linearGradient id="firefox_beta-f" x1="141.12" x2="137.119" y1="75.981" y2="103.253" gradientTransform="scale(0.82735954,1.2086644)" gradientUnits="userSpaceOnUse"><stop id="stop20" offset="0%" stop-color="#F9DE81"/><stop id="stop22" offset="100%" stop-color="#F9DE81" stop-opacity="0"/></linearGradient></defs><ellipse style="fill:#ffd6d4;fill-rule:evenodd;fill-opacity:1;stroke:#dc505e;stroke-opacity:1;stroke-width:1.8;stroke-miterlimit:4;stroke-dasharray:none" id="ellipse29" cx="97.617" cy="98" rx="40.617" ry="41"/><g style="fill:#fff;fill-rule:evenodd;stroke:#dc505e;stroke-opacity:1;fill-opacity:1;stroke-width:2;stroke-miterlimit:4;stroke-dasharray:none" id="g50" transform="translate(13.94,11)"><mask id="firefox_beta-c" fill="#fff"><use id="use31" width="100%" height="100%" x="0" y="0" xlink:href="#firefox_beta-a"/></mask><use style="fill:#fff;stroke:#dc505e;stroke-opacity:1;fill-opacity:1;stroke-width:2;stroke-miterlimit:4;stroke-dasharray:none" id="use34" width="100%" height="100%" x="0" y="0" xlink:href="#firefox_beta-a"/><path style="fill:#fff;stroke:#dc505e;stroke-opacity:1;fill-opacity:1;stroke-width:2;stroke-miterlimit:4;stroke-dasharray:none" id="path36" d="m 145.06051,36 c 2.68424,1.290393 6.01757,4.623726 10,10 3.17154,4.281581 5.93141,8.958747 8.27961,14.031498 C 166.99549,69.483729 169,79.757776 169,90.5 169,137.16806 131.16806,175 84.5,175 37.831939,175 0,137.16806 0,90.5 0,88.4095 0.07591355,86.336731 0.22513435,84.284299 L 0.06050989,90 C 10.727177,136 38.06051,159.66667 82.06051,161 c 30.82283,0.93402 63.56341,-16.47195 74,-53 4,-14 3,-29 -3,-45 v 0 c -0.69759,-4.937694 -1.69759,-9.604361 -3,-14 -1.30241,-4.395639 -2.96908,-8.728973 -5,-13 z" mask="url(#firefox_beta-c)"/><path style="fill:#fff;fill-opacity:1;stroke:#dc505e;stroke-opacity:1;stroke-width:2;stroke-miterlimit:4;stroke-dasharray:none" id="path38" d="m 70.06051,126 c 20.666667,6.66667 40.66667,2.66667 60,-12 19.33333,-14.666667 27,-31.666667 23,-51 6,16 7,31 3,45 -10.43659,36.52805 -43.17717,53.93402 -74,53 -44,-1.33333 -71.333333,-25 -82.00000011,-71 L 2.0605099,21 35.06051,10 v 39 c 7.471655,-0.128763 16.471655,1.871237 27,6 10.528345,4.128763 18.528345,8.795429 24,14 3.333333,22 5,33 5,33 0,0 -7,8 -21,24 z" mask="url(#firefox_beta-c)"/><path style="fill:#fff;stroke:#dc505e;stroke-opacity:1;fill-opacity:1;stroke-width:2;stroke-miterlimit:4;stroke-dasharray:none" id="path40" d="m 35.06051,49 c 10,0.666667 17,2 21,4 4,2 8.666667,-8.666667 14,-32 l -25,2 z" mask="url(#firefox_beta-c)"/><path style="fill:#fff;stroke:#dc505e;stroke-opacity:1;fill-opacity:1;stroke-width:2;stroke-miterlimit:4;stroke-dasharray:none" id="path42" d="m 84.06051,75 c -4,1.333333 -9.666667,2 -17,2 -11,0 -17.447052,-7.593492 -27,-8 -6.368632,-0.271006 -12.701965,1.728994 -19,6 3.778913,3.930542 6.778913,6.597208 9,8 2.221087,1.402792 5.55442,2.736125 10,4 0,3.333333 2,10 6,20 4,10 16,17 36,21 z" mask="url(#firefox_beta-c)"/><path style="fill:#fff;stroke:#dc505e;stroke-opacity:1;fill-opacity:1;stroke-width:2;stroke-miterlimit:4;stroke-dasharray:none" id="path44" d="m 119.06051,68 c 8,6.666667 13,13.666667 15,21 2,7.333333 1.66667,15.33333 -1,24 11.33333,-12 18,-22 20,-30 2,-8 2,-14.666667 0,-20 l -20,-53 c -10,-8.6666667 -15.66667,-13 -17,-13 -1.33333,0 -3.33333,1 -6,3 -6,5.3333333 -10.333333,13.333333 -13,24 -2.666667,10.666667 0,21 8,31 z" mask="url(#firefox_beta-c)"/><path style="fill:#fff;stroke:#dc505e;stroke-opacity:1;fill-opacity:1;stroke-width:2;stroke-miterlimit:4;stroke-dasharray:none" id="path46" d="m 134.06051,111 c -6.66667,5.33333 -14.33333,10 -23,14 -8.66667,4 -17,5 -25,3 4,-40.666667 6,-61.666667 6,-63 0,-1.333333 1.333333,-4 4,-8 l 17,5 6,6 c 6.66667,5.333333 11.33333,11.333333 14,18 2.66667,6.666667 3,15 1,25 z" mask="url(#firefox_beta-c)"/><path style="fill:#fff;stroke:#dc505e;stroke-opacity:1;fill-opacity:1;stroke-width:2;stroke-miterlimit:4;stroke-dasharray:none" id="path48" d="M 102.18492,51.043418 C 96.658487,48.368799 89.617017,46.209143 81.06051,46 c 1.560236,-11.318092 4.560236,-19.651425 9,-27 2.538121,-4.201029 5.804033,-8.070259 9.797736,-11.6076908 C 102.8505,4.7419178 106.25124,2.2778329 110.06051,0 c -6,5.3333333 -10.333333,13.333333 -13,24 -2.316503,9.266013 -0.608366,18.280485 5.12441,27.043418 z" mask="url(#firefox_beta-c)"/></g></svg>