<svg xmlns="http://www.w3.org/2000/svg" xmlns:xlink="http://www.w3.org/1999/xlink" id="Layer_1" width="192" height="192" x="0" y="0" enable-background="new 0 0 192 192" version="1.1" viewBox="0 0 192 192" xml:space="preserve"><g><circle cx="96.589" cy="96.092" r="88.922" fill="#99BEF9"/><path fill="#F9DE90" d="M72.146,77h48.791l26.327-54.189c-14.378-9.99-31.842-15.746-50.676-15.746 c-18.862,0-36.349,5.721-50.738,15.736L72.146,77z"/><path fill="#FFF" d="M121.2,76H71.884C66.089,76,61,80.542,61,86.337v21.773c0,0,0.595,9.594,6.639,17.487 c6.296,8.22,11.361,13.99,11.361,18.45v39.267c5,1.112,11.605,1.699,17.546,1.699c5.91,0,11.454-0.582,17.454-1.681v-39.285 c0-4.46,4.565-10.23,10.861-18.45c6.044-7.894,6.139-17.487,6.139-17.487V86.337C131,80.542,126.995,76,121.2,76z"/><rect width="70" height="15" x="61" y="91" fill="#B6D4FF"/><g><path fill="#99BEF9" d="M104,172.738c0,4.011-3.251,7.262-7.261,7.262h-0.478c-4.01,0-7.261-3.251-7.261-7.262v-14.477 c0-4.011,3.251-7.262,7.261-7.262h0.478c4.01,0,7.261,3.251,7.261,7.262V172.738z"/><circle cx="96.615" cy="158.301" r="5.247" fill="#FFF"/></g></g></svg>