<svg xmlns="http://www.w3.org/2000/svg" xmlns:svg="http://www.w3.org/2000/svg" id="svg2" width="192" height="192" version="1.1" viewBox="0 0 192 192"><metadata id="metadata7"/><g id="layer1" transform="translate(0,-860.36216)"><path id="path1140" d="m 59.380362,870.22334 c -4.837806,8.00039 -15.093762,25.97552 -22.00618,44.91278 -7.78191,21.3193 -10.454021,39.39116 -4.082934,56.18763 3.8262,10.08724 15.739978,27.00432 26.217611,39.30275 9.780526,11.5016 21.650986,22.8981 32.588842,32.3477 2.142068,1.8507 5.662571,1.8507 7.804655,0 10.937844,-9.4496 22.808284,-20.8461 32.588794,-32.3477 10.47763,-12.29843 22.39142,-29.21551 26.21761,-39.30275 6.37108,-16.79647 3.69897,-34.86833 -4.08293,-56.18763 -6.9126,-18.93777 -17.16893,-36.91337 -22.00656,-44.91344 -1.46449,-2.42184 -4.04378,-2.4789 -5.6863,-0.17334 l -20.52743,28.8139 c 0,0 -2.38037,-1.08606 -10.405526,-1.08606 -8.025161,0 -10.405549,1.08606 -10.405549,1.08606 l -20.52741,-28.8139 c -1.642517,-2.30556 -4.221993,-2.24822 -5.686693,0.174 z" style="fill:#fff;fill-opacity:1;stroke:none;stroke-width:.178336px;stroke-linecap:butt;stroke-linejoin:miter;stroke-opacity:1"/><path style="font-variation-settings:normal;vector-effect:none;fill:#56595b;fill-opacity:1;stroke:none;stroke-width:2.70796;stroke-linecap:round;stroke-linejoin:round;stroke-miterlimit:4;stroke-dasharray:none;stroke-dashoffset:0;stroke-opacity:.5;stop-color:#000" id="path1142" d="m 143.44113,968.47512 c -11.17106,13.53361 -25.60853,20.18761 -32.24697,14.8621 -6.63846,-5.32551 -2.72945,-20.89808 8.44161,-34.4317 11.17106,-13.53362 25.3739,-19.90338 32.01237,-14.57788 6.63845,5.32552 -0.18157,24.42473 -8.20701,34.14748 z"/><path style="font-variation-settings:normal;vector-effect:none;fill:#56595b;fill-opacity:1;stroke:none;stroke-width:2.70796;stroke-linecap:round;stroke-linejoin:round;stroke-miterlimit:4;stroke-dasharray:none;stroke-dashoffset:0;stroke-opacity:.5;stop-color:#000" id="path1144" d="m 49.104826,968.47512 c 11.17106,13.53361 25.60852,20.18761 32.246987,14.8621 6.638449,-5.32551 2.729428,-20.89808 -8.441613,-34.4317 -11.171077,-13.53362 -25.373918,-19.90338 -32.012366,-14.57788 -6.638468,5.32552 0.181546,24.42473 8.206992,34.14748 z"/><path id="path1146" d="m 92.774506,995.4175 c -0.405378,0.44403 -15.819732,18.1498 -15.819732,18.1498 -1.140946,1.2919 -1.018518,3.2641 0.273425,4.4051 1.291945,1.1409 3.26419,1.0185 4.405137,-0.2734 l 14.372135,-16.2733 14.372149,16.2733 c 1.14093,1.2919 3.11318,1.4143 4.40512,0.2734 1.29196,-1.141 1.41437,-3.1132 0.27343,-4.4051 0,0 -15.350386,-17.67546 -15.819733,-18.1498 -0.469348,-0.47434 -1.259826,-1.10668 -3.308043,-1.10668 -2.048218,0 -2.748493,0.66265 -3.153888,1.10668 z" style="color:#000;font-style:normal;font-variant:normal;font-weight:400;font-stretch:normal;font-size:medium;line-height:normal;font-family:sans-serif;font-variant-ligatures:normal;font-variant-position:normal;font-variant-caps:normal;font-variant-numeric:normal;font-variant-alternates:normal;font-variant-east-asian:normal;font-feature-settings:normal;font-variation-settings:normal;text-indent:0;text-align:start;text-decoration:none;text-decoration-line:none;text-decoration-style:solid;text-decoration-color:#000;letter-spacing:normal;word-spacing:normal;text-transform:none;writing-mode:lr-tb;direction:ltr;text-orientation:mixed;dominant-baseline:auto;baseline-shift:baseline;text-anchor:start;white-space:normal;shape-padding:0;shape-margin:0;inline-size:0;clip-rule:nonzero;display:inline;overflow:visible;visibility:visible;isolation:auto;mix-blend-mode:normal;color-interpolation:sRGB;color-interpolation-filters:linearRGB;solid-color:#000;solid-opacity:1;vector-effect:none;fill:#56595b;fill-opacity:1;fill-rule:nonzero;stroke:none;stroke-width:6.24179;stroke-linecap:round;stroke-linejoin:round;stroke-miterlimit:4;stroke-dasharray:none;stroke-dashoffset:0;stroke-opacity:1;color-rendering:auto;image-rendering:auto;shape-rendering:auto;text-rendering:auto;enable-background:accumulate;stop-color:#000"/></g><style id="style853" type="text/css"/><style id="style853-9" type="text/css"/><style id="style853-3" type="text/css"/></svg>