<svg xmlns="http://www.w3.org/2000/svg" xmlns:svg="http://www.w3.org/2000/svg" id="svg2" width="192" height="192" version="1.1" viewBox="0 0 192 192"><metadata id="metadata7"/><g id="layer1" transform="translate(0,-860.36216)"><circle id="circle1429" cx="96" cy="956.362" r="88" style="fill:#ffb0ac;fill-opacity:1;fill-rule:evenodd;stroke:none;stroke-opacity:1"/><circle id="circle1431" cx="119.907" cy="929.1" r="8.218" style="fill:#ffb0ac;fill-opacity:1;fill-rule:evenodd;stroke:#fff;stroke-width:2.825;stroke-miterlimit:4;stroke-dasharray:none;stroke-opacity:1"/><circle id="circle1433" cx="72.093" cy="929.1" r="8.218" style="fill:#ffb0ac;fill-opacity:1;fill-rule:evenodd;stroke:#fff;stroke-width:2.825;stroke-miterlimit:4;stroke-dasharray:none;stroke-opacity:1"/><circle id="circle1435" cx="96" cy="956.756" r="36.5" style="fill:#fff;fill-opacity:1;fill-rule:evenodd;stroke:none;stroke-width:.414773;stroke-opacity:1"/><path id="path1437" d="m 104.89258,965.97003 a 8.9667988,7.8809013 0 0 1 -4.4834,6.82506 8.9667988,7.8809013 0 0 1 -8.966798,0 8.9667988,7.8809013 0 0 1 -4.4834,-6.82506" style="fill:#ffb0ac;fill-opacity:1;stroke:#fff;stroke-width:0;stroke-linecap:round;stroke-linejoin:round;stroke-miterlimit:4;stroke-dasharray:none;stroke-opacity:1;stop-color:#000"/><path style="fill:#ffb0ac;fill-opacity:1;fill-rule:evenodd;stroke:none;stroke-width:.349038;stroke-opacity:1" id="path1439" d="m 95.925778,957.38799 c 0.82662,0 2.40843,0.0766 3.7832,0.33984 0.687392,0.1316 1.323242,0.30933 1.787112,0.54883 0.46388,0.2395 0.75586,0.54054 0.75586,0.91601 0,0.68009 -0.35998,1.31156 -0.91015,1.875 -0.55018,0.56344 -1.29045,1.05797 -2.046882,1.46289 -1.51285,0.80985 -3.09483,1.26101 -3.36914,1.18555 -0.27616,0.0754 -1.86294,-0.37571 -3.38086,-1.18555 -0.75896,-0.40492 -1.50077,-0.89945 -2.05273,-1.46289 -0.55196,-0.56344 -0.91406,-1.19491 -0.91406,-1.875 0,-0.37179 0.29381,-0.66881 0.75976,-0.90625 0.46595,-0.23743 1.10477,-0.41619 1.79492,-0.54687 1.3803,-0.26136 2.96635,-0.33594 3.79297,-0.33594 z"/><path style="fill:#ffb0ac;fill-opacity:1;fill-rule:evenodd;stroke:none;stroke-width:.349038;stroke-opacity:1" id="path1441" d="m 110.52148,938.88994 c -2.4339,-0.15292 -5.19023,0.50694 -6.61112,2.65875 -1.38104,1.7672 -1.74236,4.3939 -0.44397,6.30935 1.30133,1.76428 2.85569,3.33609 4.11873,5.13522 1.61185,2.17001 3.03257,4.55173 3.61947,7.21842 0.43805,1.58006 1.47786,3.24545 3.2324,3.5069 2.02632,0.50837 3.94924,-0.77835 5.35618,-2.1286 3.82481,-3.65681 4.90909,-9.77078 2.6421,-14.5397 -1.6878,-3.56658 -4.79882,-6.64299 -8.69465,-7.63375 -1.04987,-0.2902 -2.13073,-0.47363 -3.21914,-0.52659 z m -0.65039,6.16015 c 1.46196,-0.0683 2.45493,1.79191 1.57801,2.96639 -0.75431,1.24425 -2.83143,1.0416 -3.33316,-0.32326 -0.54812,-1.2095 0.42512,-2.68029 1.75515,-2.64313 z"/><path style="fill:#ffb0ac;fill-opacity:1;fill-rule:evenodd;stroke:none;stroke-width:.349038;stroke-opacity:1" id="path1443" d="m 81.32813,938.88994 c -3.09455,0.16347 -6.20644,1.25655 -8.44264,3.44792 -3.26695,2.93405 -5.18083,7.44672 -4.54725,11.84233 0.5039,3.83234 2.80641,7.55745 6.3413,9.26057 1.82808,0.88117 4.35337,0.25721 5.27992,-1.632 0.8772,-1.57821 0.99675,-3.44839 1.9103,-5.01535 1.6184,-3.17595 3.997178,-5.86637 6.273838,-8.57604 1.36265,-1.72383 1.36504,-4.23524 0.20049,-6.05936 -0.95479,-1.74513 -2.75762,-2.9129 -4.723408,-3.15405 -0.75717,-0.12083 -1.52726,-0.15029 -2.29255,-0.11402 z m 1.23632,6.16015 c 0.86201,-10e-4 1.716578,0.64473 1.867188,1.53125 0.0947,0.90272 -0.388328,1.89644 -1.308498,2.19107 -1.38151,0.50016 -2.87873,-0.99587 -2.37868,-2.37767 0.24817,-0.7998 1.04253,-1.244 1.81999,-1.34465 z"/></g><style id="style853" type="text/css"/></svg>