<svg xmlns="http://www.w3.org/2000/svg" xmlns:svg="http://www.w3.org/2000/svg" id="svg6214" width="192" height="192" version="1.1" viewBox="0 0 192 192"><metadata id="metadata6219"/><g id="layer1" transform="translate(0,-860.36222)"><rect id="rect4609" width="152" height="152" x="20" y="880.362" rx="9.935" style="display:inline;fill:#a0a5af;fill-opacity:1;fill-rule:evenodd;stroke:none;stroke-width:.993464"/><path id="path4303" d="m 96.582117,932.22377 c -9.062339,0.008 -17.122282,4.83872 -20.076698,12.03171 -9.501997,0.41038 -17.00019,8.40063 -17.005419,18.12139 -1.44e-4,10.02319 7.949785,18.07389 17.756144,18.07323 14.058809,0.12823 28.677176,-0.0387 40.996856,0.0496 7.90718,5.4e-4 14.24656,-6.77683 14.247,-15.07643 3.8e-4,-8.30021 -6.4103,-15.0289 -14.31806,-15.02836 -0.11713,0.002 -0.23423,0.007 -0.35127,0.0124 0.006,-0.11084 0.0106,-0.22171 0.014,-0.33261 -0.26233,-9.59707 -9.62103,-17.75008 -21.262579,-17.85094 z" style="display:inline;fill:#fff;fill-opacity:1;stroke:none;stroke-width:.906311;stroke-linecap:round;stroke-linejoin:round;stroke-miterlimit:4;stroke-dasharray:none;stroke-opacity:1"/></g></svg>