<svg xmlns="http://www.w3.org/2000/svg" xmlns:svg="http://www.w3.org/2000/svg" id="svg2" width="192" height="192" version="1.1" viewBox="0 0 192 192"><metadata id="metadata7"/><g id="layer1" transform="translate(0,-860.36216)"><circle id="circle971" cx="96" cy="956.362" r="88" style="fill:#fefefe;fill-opacity:1;fill-rule:evenodd;stroke:none;stroke-opacity:1"/><path style="fill:#95ded2;fill-opacity:1;fill-rule:evenodd;stroke:none;stroke-width:4.51375" id="path965" d="m 97.796466,921.29933 c -6.06195,-0.28405 -20.194527,1.74227 -25.173146,5.45714 -8.183474,6.10252 10.358991,10.40863 15.576861,11.86213 11.12643,3.10096 18.668879,6.65781 22.613919,11.01357 11.90282,13.14392 -12.548182,34.79643 -22.631952,41.16534 2.351693,0.42862 4.7666,0.65382 7.235627,0.65382 6.143205,0 12.715165,-1.69712 18.596585,-4.70327 10.17845,-5.65125 20.57364,-18.03694 18.12266,-30.42724 -0.41455,-2.126 -1.15154,-4.06237 -2.13048,-5.81373 -3.19564,-5.74146 -9.03203,-9.60065 -15.24291,-12.27733 -7.62818,-3.28598 -16.290052,-5.19088 -22.839498,-6.73905 -19.625795,-4.62663 -0.08953,-8.39102 5.872334,-10.19203"/><path style="fill:#f7c08b;fill-opacity:1;fill-rule:evenodd;stroke:none;stroke-width:4.51375" id="path967" d="m 75.505753,985.91536 c 16.497711,-7.87652 31.582737,-22.27984 31.086177,-30.48135 -0.2751,-4.12559 -3.5342,-6.80215 -6.653217,-8.56706 -10.259818,-5.82731 -31.014006,-7.8178 -31.469891,-14.46654 -3.267939,10.34095 15.179713,11.90717 20.501487,16.29006 6.924074,5.68284 -11.054264,12.50315 -22.776411,16.21789 -1.05174,0.33394 -3.624534,1.01974 -6.693894,1.82813 3.055792,8.07049 8.729557,14.7599 16.005749,19.17887"/></g><style id="style853" type="text/css"/></svg>