<svg xmlns="http://www.w3.org/2000/svg" xmlns:svg="http://www.w3.org/2000/svg" id="svg2" width="192" height="192" version="1.1" viewBox="0 0 192 192"><metadata id="metadata7"/><g id="layer1" transform="translate(0,-860.36216)"><rect id="rect982" width="149.295" height="149.295" x="-683.015" y="669.485" rx="63.416" ry="63.416" transform="rotate(-45)" style="fill:#99bdfe;fill-opacity:1;stroke:none;stroke-width:0;stroke-linejoin:round;stroke-miterlimit:4;stroke-dasharray:none;stop-color:#000"/><circle id="circle984" cx="96" cy="956.362" r="52.614" style="fill:#fff;fill-opacity:1;stroke:none;stroke-width:23.9725;stroke-linejoin:round;stop-color:#000"/><path id="path929" d="m 70.067748,948.92845 c 0,0 1.648508,-4.61708 7.764951,-10.73352 6.116443,-6.11644 10.733517,-7.76495 10.733517,-7.76495" style="fill:#000;fill-opacity:0;stroke:#99bdfe;stroke-width:7.61931;stroke-linecap:round;stroke-linejoin:round;stroke-miterlimit:4;stroke-dasharray:none;stroke-opacity:1"/><rect id="rect931" width="18.255" height="73.02" x="-617.495" y="774.389" rx="9.127" ry="9.127" transform="rotate(-45)" style="fill:#99bdfe;fill-opacity:1;stroke:none;stroke-width:0;stroke-linecap:round;stroke-linejoin:round;stroke-miterlimit:4;stroke-dasharray:none;stop-color:#000"/><path style="fill:#99bdfe;fill-opacity:1;stroke-width:.355449;stroke-miterlimit:4;stroke-dasharray:none" id="path971" d="m 71.59163,974.78885 c -0.700539,0.77956 -1.287633,1.64357 -1.600342,2.66186 -0.102886,0.37112 -0.132482,0.76274 -0.0965,1.14597 0.290234,2.23826 2.106434,3.81574 3.691205,5.23526 3.843631,3.2667 8.877648,4.91078 13.876231,5.12266 0.260448,0.004 0.848297,0.0264 1.238454,0.0201 1.355257,-0.008 2.888433,-0.13498 4.115428,-0.3036 8.845394,-1.25351 16.951724,-6.01156 23.045964,-12.44679 6.43523,-6.09423 11.19328,-14.20057 12.4468,-23.04595 0.1686,-1.227 0.29648,-2.76018 0.30359,-4.11544 0.006,-0.39015 -0.0161,-0.97799 -0.0201,-1.23844 -0.21186,-4.9986 -1.85597,-10.03262 -5.12265,-13.87625 -1.41945,-1.58484 -2.99701,-3.40095 -5.23525,-3.69121 -0.38323,-0.0359 -0.77485,-0.006 -1.14598,0.0965 -1.01828,0.31271 -1.88228,0.89984 -2.66185,1.60035 -0.77953,0.70052 -1.47287,1.51579 -2.15526,2.28385 -2.07878,2.46827 -4.41614,4.70893 -6.4134,7.24572 -1.11811,1.40661 -1.97101,3.39111 -1.14195,5.14276 1.22934,2.23895 3.49837,3.78869 5.90475,4.53763 1.9389,0.65991 4.00345,0.52191 6.00928,0.36389 0.63375,-0.14787 -8.9e-4,0.74647 0.0221,1.09973 -0.74541,3.27533 -2.03724,6.42432 -3.88823,9.23206 -1.46629,2.22671 -3.21307,4.2757 -5.16892,6.09774 -1.82195,1.95593 -3.87103,3.70259 -6.09774,5.16891 -2.807723,1.85097 -5.956721,3.14281 -9.232061,3.88823 -0.35326,-0.023 -1.247594,0.61163 -1.09973,-0.0221 0.158029,-2.00583 0.296025,-4.07039 -0.363883,-6.0093 -0.748947,-2.40636 -2.298691,-4.67541 -4.537624,-5.90474 -1.751654,-0.82907 -3.736165,0.0239 -5.142766,1.14194 -2.536791,1.99727 -4.777447,4.33462 -7.245725,6.4134 -0.768145,0.68231 -1.583416,1.37565 -2.283839,2.15526 z"/><path style="fill:#fff;fill-opacity:1;stroke:none;stroke-width:7.61931;stroke-linecap:round;stroke-linejoin:round;stroke-miterlimit:4;stroke-dasharray:none;stop-color:#000" id="rect1000" d="m 117.39449,977.75671 c -3.57557,3.57558 -3.57557,9.33237 0,12.90794 l 24.93547,24.93545 12.90795,-12.9079 -24.93548,-24.93549 c -3.57557,-3.57557 -9.33236,-3.57557 -12.90794,0 z"/><path id="path1021" d="m 70.067748,948.92845 c 0,0 1.648508,-4.61708 7.764951,-10.73352 6.116443,-6.11644 10.733517,-7.76495 10.733517,-7.76495" style="fill:#000;fill-opacity:0;stroke:#99bdfe;stroke-width:7.61931;stroke-linecap:round;stroke-linejoin:round;stroke-miterlimit:4;stroke-dasharray:none;stroke-opacity:1"/></g><style id="style853" type="text/css"/><style id="style853-9" type="text/css"/><style id="style853-3" type="text/css"/><style id="style853-5" type="text/css"/></svg>