<svg xmlns="http://www.w3.org/2000/svg" xmlns:svg="http://www.w3.org/2000/svg" id="svg2" width="192" height="192" version="1.1" viewBox="0 0 192 192"><metadata id="metadata7"/><g id="layer1" transform="translate(0,-860.36216)"><path style="opacity:1;fill:#ababff;fill-opacity:1;stroke-width:13.808;stroke-linecap:round;stroke-linejoin:round;stop-color:#000" id="path839" d="m 165.5379,961.61619 -44.28519,25.56806 a 5.7735028,5.7735028 30.000001 0 1 -8.66025,-5 v -51.13611 a 5.7735036,5.7735036 150 0 1 8.66025,-5 l 44.28519,25.56805 a 5.7735016,5.7735016 89.999997 0 1 0,10 z"/><path style="opacity:1;fill:#ababff;fill-opacity:1;stroke-width:13.808;stroke-linecap:round;stroke-linejoin:round;stop-color:#000" id="path837" d="m 49.688437,961.61619 44.28516,25.56806 a 5.7735017,5.7735017 150 0 0 8.660253,-5 v -51.13611 a 5.7735025,5.7735025 29.999999 0 0 -8.660254,-5 l -44.285158,25.56805 a 5.7735039,5.7735039 90.000003 0 0 -10e-7,10 z"/><path style="opacity:1;fill:#ababff;fill-opacity:1;stroke-width:13.808;stroke-linecap:round;stroke-linejoin:round;stop-color:#000" id="path835" d="M 44.709128,881.85567 88.9943,907.42372 a 5.7735013,5.7735013 90.000002 0 1 -10e-7,10 l -44.28518,25.56805 a 5.7735027,5.7735027 30.000008 0 1 -8.660254,-5 l 8e-6,-51.1361 a 5.7735041,5.7735041 150 0 1 8.660255,-5 z"/><path style="opacity:1;fill:#ababff;fill-opacity:1;stroke-width:13.808;stroke-linecap:round;stroke-linejoin:round;stop-color:#000" id="path928" d="m 44.709116,1031.3768 44.285186,-25.5681 a 5.7735081,5.7735081 89.999997 0 0 0,-10 L 44.709116,970.24061 a 5.7735004,5.7735004 150.00001 0 0 -8.660252,5 v 51.13619 a 5.7734996,5.7734996 29.999987 0 0 8.660252,5 z"/></g><style id="style853" type="text/css"/></svg>