<svg xmlns="http://www.w3.org/2000/svg" xmlns:svg="http://www.w3.org/2000/svg" id="svg2" width="192" height="192" version="1.1" viewBox="0 0 192 192"><metadata id="metadata7"/><g id="layer1" transform="translate(0,-860.36216)"><path style="opacity:1;fill:#99bdfe;fill-opacity:1;stroke:none;stroke-width:2.50001;stroke-linecap:round;stroke-linejoin:round;stop-color:#000" id="path2217" d="m 70.397133,893.96407 c -27.686727,-0.49868 -53.881276,19.85617 -60.366068,46.75169 -7.0931052,25.86164 4.902053,55.29953 28.029789,68.85834 11.9004,7.6414 26.222078,9.2813 40.097124,9.0444 22.582922,-0.3857 45.189312,0.5969 67.760902,-0.1176 20.11326,-0.6367 37.41791,-18.85141 37.98012,-38.96681 1.50171,-20.09917 -13.92924,-39.58588 -33.8464,-42.69643 -6.82946,-1.09409 -13.77156,-0.47999 -20.65729,-0.64143 -8.18029,-24.8285 -32.811669,-42.56675 -58.998177,-42.23214 z"/><path style="opacity:1;fill:#fff;stroke:none;stroke-width:2.50001;stroke-linecap:round;stroke-linejoin:round;stop-color:#000;fill-opacity:1" id="circle2134" d="M 70.34375 62.732422 A 33.221275 33.221275 0 0 0 37.121094 95.953125 A 33.221275 33.221275 0 0 0 70.34375 129.17578 A 33.221275 33.221275 0 0 0 88.476562 123.78906 L 107.12891 142.44141 C 108.48896 143.80146 110.67901 143.80146 112.03906 142.44141 L 116.23633 138.24414 C 117.59638 136.88408 117.59638 134.69404 116.23633 133.33398 L 97.701172 114.79883 A 33.221275 33.221275 0 0 0 103.56445 95.953125 A 33.221275 33.221275 0 0 0 70.34375 62.732422 z M 70.232422 75.59375 A 20.359875 20.359875 0 0 1 70.234375 75.59375 A 20.359875 20.359875 0 0 1 70.34375 75.59375 A 20.359875 20.359875 0 0 1 90.703125 95.953125 A 20.359875 20.359875 0 0 1 70.34375 116.31445 A 20.359875 20.359875 0 0 1 49.982422 95.953125 A 20.359875 20.359875 0 0 1 70.232422 75.59375 z" transform="translate(0,860.36216)"/></g><style id="style853" type="text/css"/></svg>