<svg xmlns="http://www.w3.org/2000/svg" xmlns:svg="http://www.w3.org/2000/svg" id="svg14" width="192" height="192" version="1.1" viewBox="0 0 192 192"><metadata id="metadata20"/><g id="g865"><rect style="fill:#fff;fill-opacity:1;fill-rule:evenodd;stroke:none" id="rect2" width="153" height="153" x="19.5" y="19.5" rx="10"/><g id="g859" transform="matrix(0.95668744,0,0,0.9087007,-325.08698,-15.590144)"><path style="fill:#f9de81;fill-opacity:1" id="path11" d="m 398.42604,172.80194 a 8.22,8.22 0 0 1 -8.22,-8.22999 v -17.77 a 8.22,8.22 0 0 1 8.22,-8.2 h 23.35 v -26 a 8.22,8.22 0 0 1 8.22,-8.23 h 25.94 v 68.42999 z" class="cls-1"/><path style="fill:#ffc364;fill-opacity:1" id="path13" d="m 481.88604,172.80194 h -25.95 V 81.03195 a 8.22,8.22 0 0 1 8.27,-8.23 h 17.68 a 8.21,8.21 0 0 1 8.21,8.23 v 83.54 a 8.5,8.5 0 0 1 -8.21,8.22999 z" class="cls-2"/></g></g></svg>