<svg xmlns="http://www.w3.org/2000/svg" xmlns:svg="http://www.w3.org/2000/svg" id="svg2" width="192" height="192" version="1.1" viewBox="0 0 192 192"><metadata id="metadata7"/><g id="layer1" transform="translate(0,-860.36216)"><path style="stroke-width:.728158;fill:#ff847f;fill-opacity:1" id="path875" fill="#ea4335" d="m 26.45637,960.58548 8.66508,8.66508 18.713658,-18.64084 -8.592263,-8.66508 v 0 l -3.932053,-3.93206 c -3.131079,-3.13108 -4.805842,-7.20876 -4.805842,-11.65052 0,-3.85924 1.310684,-7.3544 3.567974,-10.1214 v 0 0 0 0 c 3.058263,-3.85924 7.718474,-6.33497 12.961211,-6.33497 4.441763,0 8.519447,1.74758 11.723342,4.87866 l 3.859237,3.7136 8.66508,8.7379 18.786474,-18.64085 -8.737895,-8.66508 -3.932053,-3.78642 c -7.79129,-7.79129 -18.495211,-12.59713 -30.364185,-12.59713 -23.810765,0 -43.034134,19.22337 -43.034134,42.8885 0,5.89808 1.165053,11.5049 3.349526,16.67482 2.184474,5.16992 5.315553,9.75731 9.247606,13.61655 l 3.859237,3.85924"/><polyline style="fill:#f8dd81;fill-opacity:1" id="polyline877" fill="#fbbc04" points="81.5 122.2 118.2 85.7 92.4 60 60.2 92.1 60.2 92.1 34.5 117.7 48.3 131.6 60.2 143.4 72.6 131" transform="matrix(0.72815793,0,0,0.72815793,10.000001,883.54637)"/><polygon style="fill:#99dc9b;fill-opacity:1" id="polygon879" fill="#34a853" points="118.1 200 118.1 200 143.9 175.6 143.9 175.6 143.8 175.6 201.8 117.7 176 92.1 118.1 149.9 85.9 117.8 60.2 143.4 92.4 175.6 92.3 175.7 118.1 200" transform="matrix(0.72815793,0,0,0.72815793,10.000001,883.54637)"/><path style="stroke-width:.728158;fill:#9abefe;fill-opacity:1" id="path881" fill="#4285f4" d="m 169.39377,956.72624 c 8.7379,-8.73789 13.76219,-22.136 12.37869,-35.67974 -2.03885,-20.53405 -19.07774,-35.971 -39.75743,-37.3545 -13.03402,-0.87379 -24.97581,4.00487 -33.42245,12.4515 l -31.310786,31.09235 18.713659,18.71365 31.310787,-31.16515 c 3.78642,-3.71361 9.02916,-5.46119 14.41753,-4.5874 6.99032,1.09224 12.66995,6.84468 13.61655,13.835 0.72816,5.24274 -1.01942,10.33984 -4.73302,14.05345 l -12.4515,12.52432 18.78647,18.64084 z"/></g><style id="style853" type="text/css"/></svg>