<svg xmlns="http://www.w3.org/2000/svg" xmlns:xlink="http://www.w3.org/1999/xlink" id="Layer_1" width="192" height="192" x="0" y="0" baseProfile="tiny" version="1.1" viewBox="0 0 192 192" xml:space="preserve"><g><g><g><path fill="#9ABEFC" d="M172,162.041c0,6.053-4.906,10.959-10.959,10.959H29.959C23.906,173,19,168.094,19,162.041V30.959 C19,24.906,23.906,20,29.959,20h131.082C167.094,20,172,24.906,172,30.959V162.041z"/></g></g><circle cx="97.089" cy="97.36" r="56.293" fill="#FFF"/><g><circle cx="38.824" cy="39.813" r="6.813" fill="#B3D6FF"/><circle cx="154.459" cy="39.813" r="6.813" fill="#B3D6FF"/><circle cx="38.824" cy="154.551" r="6.812" fill="#B3D6FF"/><circle cx="154.459" cy="154.551" r="6.812" fill="#B3D6FF"/></g><path fill="#9ABEFC" d="M98,91v11h16.051c-2.347,7-9.133,12.849-17.141,12.849c-9.952,0-18.019-8.261-18.019-18.485 s8.067-18.499,18.019-18.499c4.541,0,8.689,1.734,11.859,4.583l8.19-8.027c-5.243-5.053-12.295-8.148-20.05-8.148 c-16.189,0-29.313,13.485-29.313,30.119c0,16.632,13.124,30.117,29.313,30.117c16.188,0,29.312-13.391,29.312-30.026 c0-1.904-0.174-3.482-0.503-5.482H98z"/></g></svg>