<svg xmlns="http://www.w3.org/2000/svg" xmlns:svg="http://www.w3.org/2000/svg" id="svg10" width="192" height="192" fill="none" version="1.1" viewBox="0 0 192 192"><metadata id="metadata16"/><path id="path2" fill="#98dc9a" d="m 12.999965,117.49358 c 2.423562,-2.71067 7.642606,-9.86307 7.642606,-21.181924 0,-11.136385 -5.905184,-19.100584 -8.793646,-22.330073 C 10.862519,72.878678 9.8822716,71.753947 9.3136779,70.387947 8.0702858,67.400725 6.5608092,61.67054 10.793158,57.438201 c 4.145138,-4.145139 9.727133,-3.022102 12.761693,-1.943015 1.490073,0.529877 2.736286,1.533524 3.730465,2.763293 4.090925,5.059692 14.899837,20.125059 14.899837,38.053177 0,20.084694 -13.566325,34.510064 -16.054066,36.985554 -0.258112,0.25711 -0.527086,0.49131 -0.827752,0.6966 -1.690484,1.15403 -7.967288,4.80148 -13.513606,-0.31791 -4.8669252,-4.49254 -2.4204723,-10.67328 -0.902794,-13.46866 0.550008,-1.01351 1.344574,-1.85362 2.11303,-2.71366 z" style="stroke-width:.996571"/><path id="path4" fill="#9abeff" d="m 42.461801,149.97184 c 0.920533,-1.08029 21.893276,-25.98859 21.893276,-53.279793 0,-26.410534 -20.086791,-51.928239 -22.236994,-54.584201 -0.131348,-0.162242 -0.24685,-0.306247 -0.365243,-0.478155 -0.997069,-1.448317 -5.590167,-8.877557 0.677669,-14.697633 6.280192,-5.831636 12.802652,-1.163397 14.04139,-0.174101 0.143805,0.114905 0.256318,0.218449 0.386869,0.348103 2.425455,2.40941 28.922591,29.645603 28.922591,69.585987 0,38.437853 -24.541664,63.681003 -28.549475,67.547703 -0.374312,0.36076 -0.756398,0.67169 -1.200968,0.94076 -2.102367,1.27761 -8.880347,4.68289 -14.098693,-0.72152 -5.973847,-6.18771 -0.08102,-13.73873 0.459419,-14.40344 0.02521,-0.0309 0.03757,-0.0448 0.06039,-0.0718 z" style="stroke-width:.996571"/><path id="path6" fill="#f9de81" d="m 150.28224,42.027821 c -0.92083,1.080084 -21.89367,25.988486 -21.89367,53.280088 0,26.410131 20.08689,51.928341 22.23749,54.584201 0.13055,0.16244 0.24615,0.30595 0.36474,0.47836 0.99757,1.44801 5.58977,8.87745 -0.67766,14.69743 -6.2804,5.83193 -12.80296,1.163 -14.04169,0.1744 -0.14351,-0.1156 -0.25612,-0.21825 -0.38667,-0.3488 -2.42566,-2.40871 -28.92249,-29.64501 -28.92249,-69.585591 0,-38.438352 24.54156,-63.681303 28.54977,-67.547301 0.37371,-0.361058 0.7564,-0.67159 1.20087,-0.941561 2.10177,-1.276707 8.88044,-4.682589 14.09849,0.722016 5.97345,6.187312 0.0807,13.738432 -0.45942,14.403046 -0.0249,0.03109 -0.0379,0.04564 -0.0608,0.07235 z" style="stroke-width:.996571"/><path id="path8" fill="#ff837d" d="m 179.00044,73.786454 c -2.42367,2.711073 -7.64271,9.863266 -7.64271,21.182121 0,11.136185 5.90469,19.100785 8.79375,22.329675 0.9856,1.10321 1.96623,2.22833 2.53527,3.59364 1.24273,2.98772 2.75253,8.718 -1.47991,12.95044 -4.14474,4.14474 -9.72753,3.0216 -12.76209,1.94232 -1.48987,-0.52918 -2.73558,-1.53273 -3.73016,-2.7625 -4.09093,-5.06059 -14.89974,-20.12575 -14.89974,-38.053575 0,-20.085095 13.56632,-34.509766 16.05377,-36.986047 0.25811,-0.256916 0.52718,-0.490412 0.82815,-0.695806 1.69018,-1.154727 7.96758,-4.802078 13.5135,0.317607 4.86726,4.492544 2.42068,10.67278 0.9029,13.468661 -0.55011,1.013214 -1.34438,1.853922 -2.11273,2.713464 z" style="stroke-width:.996571"/></svg>