<svg xmlns="http://www.w3.org/2000/svg" xmlns:svg="http://www.w3.org/2000/svg" id="svg2" width="192" height="192" version="1.1" viewBox="0 0 192 192"><metadata id="metadata7"/><g id="layer1" transform="translate(0,-860.36216)"><path id="path1351" d="m 71.565236,1016.7222 v 24.3177 a 3,3 45 0 0 3,3 h 11.731641 a 1.237557,1.237557 112.41708 0 0 0.872548,-2.1152 l -6.315484,-6.279 v -18.9235 z" style="fill:#f9de81;fill-opacity:1;stroke-width:1.01569;stroke-linecap:square;stroke-linejoin:round;stop-color:#000"/><path id="path1353" d="m 92.317606,1016.7222 v 24.3177 a 3,3 45 0 0 3,3 h 11.731644 a 1.2375566,1.2375566 112.41707 0 0 0.87255,-2.1152 l -6.31549,-6.279 v -18.9235 z" style="fill:#f9de81;fill-opacity:1;stroke-width:1.01569;stroke-linecap:square;stroke-linejoin:round;stop-color:#000"/><path id="path1355" d="m 170.16988,1007.2978 c -8.20932,3.1492 -17.41807,2.005 -24.76078,-3.2244 -8.17068,-5.81918 -12.78948,-15.81304 -12.1165,-26.21687 0.67298,-10.40383 6.53544,-19.63717 15.37909,-24.22184 l 22.97442,49.71051 c 0.69509,1.504 0.0699,3.3595 -1.47623,3.9526 z" style="fill:#ccc;fill-opacity:1;stroke-width:1.90146;stroke-linecap:square;stroke-linejoin:round;stop-color:#000"/><path id="path1357" d="m 50.181945,868.68442 c -1.833229,0 -3.309918,1.47671 -3.309918,3.30992 v 9.80297 134.34909 a 3,3 45 0 0 3,3 h 54.981883 c 12.95647,0 26.15095,-7.5661 35.05876,-16.474 8.90782,-8.90791 15.3089,-22.03888 15.3089,-34.67363 v -86.20146 -9.80297 c 0,-1.83321 -1.47426,-3.30992 -3.30743,-3.30992 -1.93334,0 -1.34584,0.73404 -13.72469,13.11289 H 63.904212 C 51.525354,869.41846 52.115342,868.68442 50.182005,868.68442 Z" style="fill:#fff;fill-opacity:1;stroke-width:1.26373;stroke-linecap:square;stroke-linejoin:round;stop-color:#000"/><path style="color:#000;font-style:normal;font-variant:normal;font-weight:400;font-stretch:normal;font-size:medium;line-height:normal;font-family:sans-serif;font-variant-ligatures:normal;font-variant-position:normal;font-variant-caps:normal;font-variant-numeric:normal;font-variant-alternates:normal;font-variant-east-asian:normal;font-feature-settings:normal;font-variation-settings:normal;text-indent:0;text-align:start;text-decoration:none;text-decoration-line:none;text-decoration-style:solid;text-decoration-color:#000;letter-spacing:normal;word-spacing:normal;text-transform:none;writing-mode:lr-tb;direction:ltr;text-orientation:mixed;dominant-baseline:auto;baseline-shift:baseline;text-anchor:start;white-space:normal;shape-padding:0;shape-margin:0;inline-size:0;clip-rule:nonzero;display:inline;overflow:visible;visibility:visible;isolation:auto;mix-blend-mode:normal;color-interpolation:sRGB;color-interpolation-filters:linearRGB;solid-color:#000;solid-opacity:1;vector-effect:none;fill:#56595b;fill-opacity:1;fill-rule:nonzero;stroke:none;stroke-width:2.95924;stroke-linecap:butt;stroke-linejoin:miter;stroke-miterlimit:4;stroke-dasharray:none;stroke-dashoffset:0;stroke-opacity:1;color-rendering:auto;image-rendering:auto;shape-rendering:auto;text-rendering:auto;enable-background:accumulate;stop-color:#000" id="path1359" d="m 118.85577,914.96373 -63.501415,10e-4 h -9.284558 c -3.47104,0 -6.182617,2.15331 -7.963245,4.52251 -1.3655,1.8168 -2.283186,3.71727 -2.636889,5.41846 -0.168347,0.80969 0.508623,1.48853 1.33705,1.48853 0.80544,0 1.522965,-0.67559 1.78088,-1.46012 0.352799,-1.07316 0.989772,-2.47883 1.884896,-3.6698 1.435816,-1.91036 3.366192,-3.34126 5.597308,-3.34126 h 9.284558 63.501415 z"/><circle style="fill:#56595b;fill-opacity:1;stroke-width:2.8139;stroke-linecap:square;stroke-linejoin:round;stop-color:#000" id="circle1361" cx="80.614" cy="916.333" r="24.221"/><circle style="fill:#f9de81;fill-opacity:1;stroke-width:2.45145;stroke-linecap:square;stroke-linejoin:round;stop-color:#000" id="circle1363" cx="80.614" cy="916.333" r="21.101"/><path id="path1367" d="m 104.42886,969.18374 c -0.52008,1.9666 -1.80382,3.67909 -3.61187,4.72296 -2.393951,1.38215 -5.34342,1.38215 -7.737375,0 -1.808039,-1.04388 -3.091749,-2.75636 -3.611816,-4.72295 -0.281613,-1.06489 0.638558,-1.97783 1.743127,-1.97783 h 11.474814 c 1.10457,0 2.02474,0.91293 1.74312,1.97782 z" style="fill:#ccc;fill-opacity:1;stroke-width:.518722;stroke-linecap:square;stroke-linejoin:round;stop-color:#000"/><path id="path1369" d="m 128.84877,969.18374 c -0.52007,1.96659 -1.80378,3.67908 -3.61182,4.72296 -2.39396,1.38215 -5.34343,1.38215 -7.73738,0 -1.80805,-1.04387 -3.09179,-2.75636 -3.61187,-4.72295 -0.28162,-1.06489 0.63855,-1.97783 1.74312,-1.97783 h 11.47482 c 1.10457,0 2.02474,0.91293 1.74313,1.97782 z" style="fill:#ccc;fill-opacity:1;stroke-width:.518722;stroke-linecap:square;stroke-linejoin:round;stop-color:#000"/><path id="path1371" d="m 116.63885,985.52405 c -0.52006,1.9666 -1.80377,3.67909 -3.61182,4.72297 -2.39396,1.38217 -5.34348,1.38217 -7.73744,0 -1.80804,-1.04388 -3.09175,-2.75637 -3.61182,-4.72296 -0.28161,-1.06489 0.63856,-1.97783 1.74313,-1.97783 h 11.47482 c 1.10457,0 2.02474,0.91293 1.74313,1.97782 z" style="fill:#ccc;fill-opacity:1;stroke-width:.518722;stroke-linecap:square;stroke-linejoin:round;stop-color:#000"/><path id="path1373" d="m 21.944249,1006.8397 c 14.625884,4.2001 22.030757,-0.5023 26.797734,-4.337 3.972115,-3.19524 7.124051,-7.38249 9.132677,-10.49517 l 5.180325,2.31671 c 1.512494,0.67641 3.179308,-0.0461 3.598371,-1.64877 2.36573,-9.04731 1.77829,-18.82335 -1.710385,-27.47383 v -0.002 c -3.070665,-8.86103 -10.3293,-16.03023 -18.070944,-19.08201 l -26.52369,57.09607 c -0.69804,1.5027 0.0036,3.1687 1.595912,3.626 z" style="fill:#ccc;fill-opacity:1;stroke-width:2.43087;stroke-linecap:square;stroke-linejoin:round;stop-color:#000"/><path id="path1375" d="m 80.602899,906.27161 a 10.060721,10.060721 0 0 0 -10.049173,10.06134 10.060721,10.060721 0 0 0 10.058947,10.06135 10.060721,10.060721 0 0 0 10.061318,-10.06135 10.060721,10.060721 0 0 0 -0.01481,-0.54353 h -4.599245 c -2.763231,0 -4.986824,-2.22605 -4.986824,-4.98924 v -2.49583 c 0,-0.71076 0.151111,-1.38298 0.416783,-1.99376 a 10.060721,10.060721 0 0 0 -0.8774,-0.0389 10.060721,10.060721 0 0 0 -0.01007,0 z" style="fill:#56595b;fill-opacity:1;stroke-width:1.16881;stroke-linecap:square;stroke-linejoin:round;stop-color:#000"/><circle style="fill:#56595b;fill-opacity:1;stroke-width:2.8139;stroke-linecap:square;stroke-linejoin:round;stop-color:#000" id="circle1377" cx="138.219" cy="916.333" r="24.221"/><circle style="fill:#f9de81;fill-opacity:1;stroke-width:2.45145;stroke-linecap:square;stroke-linejoin:round;stop-color:#000" id="circle1379" cx="138.219" cy="916.333" r="21.101"/><path id="path1381" d="m 138.20769,906.27161 a 10.060721,10.060721 0 0 0 -10.04917,10.06134 10.060721,10.060721 0 0 0 10.05894,10.06135 10.060721,10.060721 0 0 0 10.06132,-10.06135 10.060721,10.060721 0 0 0 -0.0148,-0.54353 h -4.5993 c -2.76317,0 -4.98677,-2.22605 -4.98677,-4.98924 v -2.49583 c 0,-0.71076 0.15111,-1.38298 0.41679,-1.99376 a 10.060721,10.060721 0 0 0 -0.87746,-0.0389 10.060721,10.060721 0 0 0 -0.0101,0 z" style="fill:#56595b;fill-opacity:1;stroke-width:1.16881;stroke-linecap:square;stroke-linejoin:round;stop-color:#000"/><path style="fill:#f9de81;fill-opacity:1;stroke-width:1.62327;stroke-linecap:square;stroke-linejoin:round;stop-color:#000" id="path1365" d="m 118.02244,942.36139 -11.51938,6.65072 a 1.1547005,1.1547005 30 0 1 -1.73205,-1 v -13.30144 a 1.1547005,1.1547005 150 0 1 1.73205,-1 l 11.51938,6.65072 a 1.1547005,1.1547005 90 0 1 0,2 z"/></g><style id="style853" type="text/css"/><style id="style853-9" type="text/css"/><style id="style853-3" type="text/css"/></svg>