<svg xmlns="http://www.w3.org/2000/svg" xmlns:svg="http://www.w3.org/2000/svg" id="svg2" width="192" height="192" version="1.1" viewBox="0 0 192 192"><metadata id="metadata7"/><g id="layer1" transform="translate(0,-860.36216)"><g id="g939" transform="matrix(1.0194965,0,0,1.0194965,-227.7242,40.526404)"><path id="path933" d="m 256.98242,-4.6582031 c -6.094,0 -11,4.90599997 -11,11 V 23.541016 76.527344 106.84961 a 5.6564622,5.6564622 22.000334 0 0 9.72533,3.92936 l 22.45436,-23.251626 h 67.89844 c 6.094,0 11,-4.906 11,-11 V 6.3417969 c 0,-6.09400003 -4.906,-11 -11,-11 z" transform="translate(0,860.36216)" style="fill:#99dc9b;fill-opacity:1;stroke-width:9.10996;paint-order:markers fill stroke"/><rect style="fill:#e0f4e0;fill-opacity:1;stroke-width:9.10996;paint-order:markers fill stroke" id="rect935" width="111.079" height="92.186" x="278.006" y="823.775" rx="11" ry="11"/><path id="path937" d="M 278.00586,-4.6582031 V 44.599609 c 0,6.094 4.906,11 11,11 h 68.05469 V 6.3417969 c 0,-6.09400006 -4.906,-11 -11,-11 z" transform="translate(0,860.36216)" style="fill:#73a474;fill-opacity:1;stroke-width:9.10996;paint-order:markers fill stroke"/></g></g><style id="style853" type="text/css"/></svg>