<svg xmlns="http://www.w3.org/2000/svg" xmlns:svg="http://www.w3.org/2000/svg" id="svg2" width="192" height="192" version="1.1" viewBox="0 0 192 192"><metadata id="metadata7"/><g id="layer1" transform="translate(0,-860.36216)"><g id="g1256" transform="translate(-1061.6391,-63.772915)"><path style="fill:#f8dd7f;fill-opacity:1;stroke-width:.273093;stroke-linecap:round;stroke-linejoin:round;stop-color:#000" id="path1238" d="m 1104.1392,932.63505 c -1.3856,0 -2.7028,0.2781 -3.9004,0.78321 -2.3932,1.00932 -4.3071,2.92324 -5.3164,5.3164 -0.5051,1.19759 -0.7832,2.51481 -0.7832,3.90039 v 33.76172 87.47653 h 43.6602 v -87.47653 h 39.6797 v -43.76172 h -39.6797 z"/><path style="fill:#99bdfe;fill-opacity:1;stroke-width:.193709;stroke-linecap:round;stroke-linejoin:round;stop-color:#000" id="path1240" d="m 1177.4791,976.39677 v 87.47653 h 43.6602 v -87.47653 z"/><path style="fill:#97db99;fill-opacity:1;stroke-width:.273093;stroke-linecap:round;stroke-linejoin:round;stop-color:#000" id="path1242" d="m 1137.7991,1107.6351 v -43.7617 h 39.6796 v 43.7617 z"/><path style="fill:#70a270;fill-opacity:1;stroke-width:.273093;stroke-linecap:round;stroke-linejoin:round;stop-color:#000" id="path1244" d="m 1104.1389,1107.6351 c -1.3856,0 -2.7028,-0.2781 -3.9004,-0.7832 -2.3932,-1.0093 -4.3071,-2.9233 -5.3164,-5.3164 -0.5051,-1.1976 -0.7832,-2.5148 -0.7832,-3.9004 v -33.7617 h 43.6602 v 43.7617 z"/><path style="fill:#708cbd;fill-opacity:1;stroke-width:.273093;stroke-linecap:round;stroke-linejoin:round;stop-color:#000" id="path1246" d="m 1211.1388,1107.6351 c 1.3856,0 2.7028,-0.2781 3.9004,-0.7832 2.3932,-1.0093 4.3071,-2.9233 5.3164,-5.3164 0.5051,-1.1976 0.7832,-2.5148 0.7832,-3.9004 v -33.7617 h -43.6602 v 43.7617 z"/><path style="fill:#fe827c;fill-opacity:1;stroke-width:.155028;stroke-linecap:round;stroke-linejoin:round;stop-color:#000" id="path1248" d="m 1177.4791,932.63505 43.6597,43.76172 h -43.6597 z"/></g></g><style id="style853" type="text/css"/></svg>