<svg xmlns="http://www.w3.org/2000/svg" xmlns:svg="http://www.w3.org/2000/svg" id="svg2" width="192" height="192" version="1.1" viewBox="0 0 192 192"><metadata id="metadata7"/><g id="layer1" transform="translate(0,-860.36216)"><g id="g859" transform="matrix(0.93023255,0,0,0.93023255,6.697676,66.722945)"><path style="fill:#73a474;fill-opacity:1;stroke-width:1.96549" id="path873" fill="#00832d" d="m 107.29174,956.36216 16.76563,19.16352 22.54416,14.40704 3.93098,-33.45263 -3.93098,-32.70575 -22.97657,12.65775 z"/><path style="fill:#738dbe;fill-opacity:1;stroke-width:1.96549" id="path875" fill="#0066da" d="m 9.9999982,986.82725 v 28.49965 c 0,6.5155 5.2773398,11.7929 11.7929378,11.7929 h 28.499601 l 5.896469,-21.5418 -5.896469,-18.75075 -19.556622,-5.89647 z"/><path style="fill:#fe837e;fill-opacity:1;stroke-width:1.96549" id="path877" fill="#e94235" d="m 50.292537,885.60453 -40.2925388,40.29254 20.7359168,5.89647 19.556622,-5.89647 5.798195,-18.49526 z"/><path style="fill:#9abefe;fill-opacity:1;stroke-width:1.96549" id="path879" fill="#2684fc" d="M 50.292537,925.89707 H 9.9999982 v 60.93018 H 50.292537 Z"/><path style="fill:#98db9a;fill-opacity:1;stroke-width:1.96549" id="path881" fill="#00ac47" d="m 172.34945,902.66498 -25.74792,21.10936 v 66.15838 l 25.86585,21.20768 c 3.87201,3.0268 9.53262,0.2653 9.53262,-4.6583 v -99.25718 c 0,-4.98252 -5.78837,-7.71455 -9.65055,-4.55994 z m -65.05771,53.69718 v 30.46509 H 50.292537 v 40.29255 h 84.516053 c 6.5156,0 11.79294,-5.2774 11.79294,-11.7929 v -25.39418 z"/><path style="fill:#f9de82;fill-opacity:1;stroke-width:1.96549" id="path883" fill="#ffba00" d="M 134.80859,885.60453 H 50.292537 v 40.29254 h 56.999203 v 30.46509 l 39.30979,-32.56817 v -26.39652 c 0,-6.5156 -5.27734,-11.79294 -11.79294,-11.79294 z"/></g></g><style id="style853" type="text/css"/></svg>