<svg xmlns="http://www.w3.org/2000/svg" xmlns:svg="http://www.w3.org/2000/svg" xmlns:xlink="http://www.w3.org/1999/xlink" id="svg2" width="192" height="192" version="1.1" viewBox="0 0 192 192"><defs id="defs4"><radialGradient id="c-6" cx="-65.57" cy="-40.88" r="142.7" fx="-65.57" fy="-40.88" gradientUnits="userSpaceOnUse" spreadMethod="pad"><stop id="stop1439" offset="0%" stop-color="#FFF"/><stop id="stop1441" offset="50%" stop-color="#FFF"/><stop id="stop1443" offset="100%" stop-color="#FFF"/></radialGradient><radialGradient id="a-7" cx="-65.57" cy="-40.88" r="142.7" fx="-65.57" fy="-40.88" gradientUnits="userSpaceOnUse" spreadMethod="pad"><stop id="stop1446" offset="0%" stop-color="#FFF" stop-opacity=".1"/><stop id="stop1448" offset="50%" stop-color="#FFF" stop-opacity=".05"/><stop id="stop1450" offset="100%" stop-color="#FFF" stop-opacity="0"/></radialGradient><mask id="p-5"><path style="fill:url(#a-7)" id="path1453" fill="url(#a)" d="M51.89 1.16l-45.29 59a8.37 8.37 0 0 1-13.28 0l-45.28-59a8.38 8.38 0 0 1 .98-11.27l45.28-41.5a8.38 8.38 0 0 1 11.31 0L50.9-10.1l.6.6a8.37 8.37 0 0 1 .39 10.67z"/></mask><mask id="n-3"><path id="path1456" fill="#fcd835" d="M51.89 1.16l-45.29 59a8.37 8.37 0 0 1-13.28 0l-45.28-59a8.38 8.38 0 0 1 .98-11.27l45.28-41.5a8.38 8.38 0 0 1 11.31 0L50.9-10.1l.6.6a8.37 8.37 0 0 1 .39 10.67z" display="block" transform="translate(718.4 223.8)"/></mask><clipPath id="o-5"><path id="path1459" d="M0 0h1440v810H0z"/></clipPath><clipPath id="l-6"><path id="path1462" fill="#fff" d="M67.59 30.12l-67-6.43-67 6.43V-4.07l67-5.8 67 6.05v33.94"/></clipPath><clipPath id="k-2"><path id="path1465" fill="#fff" d="M57.93-57.3H-61.49V.93H57.93V-57.3"/></clipPath><clipPath id="m-3"><path style="fill:url(#radialGradient2237)" id="use1486" fill="url(#q)" d="m 51.89,1.16 -45.29,59 a 8.37,8.37 0 0 1 -13.28,0 l -45.28,-59 a 8.38,8.38 0 0 1 0.98,-11.27 l 45.28,-41.5 a 8.38,8.38 0 0 1 11.31,0 l 45.29,41.51 0.6,0.6 a 8.37,8.37 0 0 1 0.39,10.67 z" display="block" mask="url(#p-5)" transform="translate(718.4,223.8)"/></clipPath><radialGradient id="radialGradient2237" cx="-65.57" cy="-40.88" r="142.7" fx="-65.57" fy="-40.88" gradientUnits="userSpaceOnUse" spreadMethod="pad" xlink:href="#c-6"/></defs><metadata id="metadata7"/><g id="layer1" transform="translate(0,-860.36216)"><g id="g2203" transform="matrix(1.29181,0,0,1.29181,-186.74394,588.86478)"><path style="opacity:1;fill:#d8d8d8;fill-opacity:1;stroke-width:.424516" id="path2131" fill="#bdc1c6" d="m 255.81904,329.20028 -17.86362,23.40355 h 9.18228 c 1.54948,0.0127 3.02255,-0.67498 3.97771,-1.91881 l 16.3481,-21.37012 -11.64022,-0.10613 z"/><path style="opacity:1;fill:#d8d8d8;fill-opacity:1;stroke-width:.707526" id="path2133" fill="#bdc1c6" d="m 226.41121,301.91868 -29.77271,39.00593 h 15.3038 c 2.58247,0.0212 5.03758,-1.12497 6.62952,-3.19802 l 27.24684,-35.61687 -19.40037,-0.17689 z"/><path style="opacity:1;fill:#d8d8d8;fill-opacity:1;stroke-width:.424516" id="path2135" fill="#bdc1c6" d="m 217.62961,335.6232 c -1.52401,-0.0127 -2.96312,0.67074 -3.90555,1.94429 l -0.75139,1.01459 4.87344,1.19713 2.81878,3.97347 5.98992,-8.12948 z"/><path style="opacity:1;fill:#f9de81;fill-opacity:1;stroke-width:1.0046" id="path2137" fill="#fcd835" d="m 269.37222,271.5795 -45.50829,59.28133 a 8.4084853,8.4084853 0 0 1 -13.35111,0 l -45.48819,-59.27128 a 8.4185312,8.4185312 0 0 1 0.99455,-11.33187 l 45.48819,-41.69081 a 8.4185312,8.4185312 0 0 1 11.36201,0 l 45.4882,41.69081 0.60275,0.60276 a 8.4084853,8.4084853 0 0 1 0.40184,10.71906 z" display="block"/><path style="opacity:1;fill:#fff;fill-opacity:1;stroke-width:.424516" id="path2139" fill="#dadce0" d="m 247.09525,352.60383 c -1.54524,-0.0127 -2.99284,-0.70045 -3.92253,-1.94852 l -9.60255,-12.96047 c -0.92969,-1.25232 -2.37728,-2.05466 -3.92252,-2.07164 h -11.58079 c 1.54524,0.0127 2.99283,0.71319 3.92252,1.96127 l 9.60255,12.96046 c 0.92969,1.25232 2.37729,2.04192 3.92253,2.0589 z"/><path style="opacity:1;fill:#d8d8d8;fill-opacity:1;stroke-width:.707526" id="path2141" fill="#bdc1c6" d="m 162.76215,312.62356 c -2.54002,-0.0212 -4.93854,1.11789 -6.50924,3.24047 l -1.25233,1.69098 8.12241,1.99523 4.69797,6.62244 9.9832,-13.54912 z"/><g style="opacity:1;fill:#73ada4;fill-opacity:1" id="g2145" clip-path="url(#k-2)" display="block" transform="matrix(1.004598,0,0,1.004598,217.23358,270.41417)"><path style="fill:#73ada4;fill-opacity:1" id="path2143" fill="#009687" d="m 51.89,1.16 -45.29,59 a 8.37,8.37 0 0 1 -13.28,0 l -45.28,-59 a 8.38,8.38 0 0 1 0.98,-11.27 l 45.28,-41.5 a 8.38,8.38 0 0 1 11.31,0 l 45.29,41.51 0.6,0.6 a 8.37,8.37 0 0 1 0.39,10.67 z" display="block"/></g><g style="opacity:1;fill:#97db99;fill-opacity:1" id="g2149" clip-path="url(#l-6)" display="block" transform="matrix(1.004598,0,0,1.004598,217.23358,270.41417)"><path style="fill:#97db99;fill-opacity:1" id="path2147" fill="#00e575" d="m 51.89,1.16 -45.29,59 a 8.37,8.37 0 0 1 -13.28,0 l -45.28,-59 a 8.38,8.38 0 0 1 0.98,-11.27 l 45.28,-41.5 a 8.38,8.38 0 0 1 11.31,0 l 45.29,41.51 0.6,0.6 a 8.37,8.37 0 0 1 0.39,10.67 z" display="block"/></g><g style="opacity:1;fill:#000" id="g2157" clip-path="url(#m-3)" mask="url(#n-3)" transform="matrix(1.004598,0,0,1.004598,-504.46962,45.585137)"><g style="fill:#000" id="g2155" fill="none" stroke-opacity=".04" clip-path="url(#o-5)" display="block" transform="translate(0,12)"><path style="fill:#000" id="path2151" stroke="#fff" d="M 717.5,167.5 V 290.88" display="block"/><path style="fill:#000" id="path2153" stroke="#bf350c" d="M 718.5,167.63 V 291" display="block"/></g></g><path style="opacity:1;fill:#fff;fill-opacity:1;stroke-width:.707526" id="path2159" fill="#dadce0" d="m 211.87155,340.92461 c -2.5754,-0.0212 -4.98807,-1.16742 -6.53755,-3.24755 l -16.00424,-21.60078 c -1.54948,-2.0872 -3.96215,-3.42442 -6.53754,-3.45272 H 163.4909 c 2.57539,0.0212 4.98806,1.18864 6.53754,3.26877 l 16.00425,21.60077 c 1.54948,2.08721 3.96214,3.40321 6.53754,3.43151 z"/><path style="opacity:1;fill:#f9de81;fill-opacity:1;stroke-width:.602759" id="path2161" fill="#fcd835" d="m 281.70945,310.96309 -27.30498,35.56879 a 5.0450911,5.0450911 0 0 1 -8.01066,0 l -27.29292,-35.56277 a 5.0511187,5.0511187 0 0 1 0.59673,-6.79911 l 27.29292,-25.01449 a 5.0511187,5.0511187 0 0 1 6.8172,0 l 27.29292,25.01449 0.36165,0.36165 a 5.0450911,5.0450911 0 0 1 0.24111,6.43144 z" display="block"/><g style="opacity:1;fill:#708cbd;fill-opacity:1" id="g2165" clip-path="url(#k-2)" display="block" transform="matrix(0.60275879,0,0,0.60275879,250.42626,310.26389)"><path style="fill:#708cbd;fill-opacity:1" id="path2163" fill="#009687" d="m 51.89,1.16 -45.29,59 a 8.37,8.37 0 0 1 -13.28,0 l -45.28,-59 a 8.38,8.38 0 0 1 0.98,-11.27 l 45.28,-41.5 a 8.38,8.38 0 0 1 11.31,0 l 45.29,41.51 0.6,0.6 a 8.37,8.37 0 0 1 0.39,10.67 z" display="block"/></g><g style="opacity:1;fill:#99bdfe;fill-opacity:1" id="g2169" clip-path="url(#l-6)" display="block" transform="matrix(0.60275879,0,0,0.60275879,250.42626,310.26389)"><path style="fill:#99bdfe;fill-opacity:1" id="path2167" fill="#00e575" d="m 51.89,1.16 -45.29,59 a 8.37,8.37 0 0 1 -13.28,0 l -45.28,-59 a 8.38,8.38 0 0 1 0.98,-11.27 l 45.28,-41.5 a 8.38,8.38 0 0 1 11.31,0 l 45.29,41.51 0.6,0.6 a 8.37,8.37 0 0 1 0.39,10.67 z" display="block"/></g><g style="opacity:1;fill:#000" id="g2177" clip-path="url(#m-3)" mask="url(#n-3)" transform="matrix(0.60275879,0,0,0.60275879,-182.59565,175.36647)"><g style="fill:#000" id="g2175" fill="none" stroke-opacity=".04" clip-path="url(#o-5)" display="block" transform="translate(0,12)"><path style="fill:#000" id="path2171" stroke="#fff" d="M 717.5,167.5 V 290.88" display="block"/><path style="fill:#000" id="path2173" stroke="#bf350c" d="M 718.5,167.63 V 291" display="block"/></g></g></g></g><style id="style853" type="text/css"/></svg>