<svg xmlns="http://www.w3.org/2000/svg" xmlns:svg="http://www.w3.org/2000/svg" id="svg2" width="192" height="192" version="1.1" viewBox="0 0 192 192"><defs id="defs4"><clipPath id="clip0"><rect id="rect917" width="192" height="192" fill="#fff"/></clipPath></defs><metadata id="metadata7"/><g id="layer1" transform="translate(0,-860.36216)"><circle id="circle981" cx="96" cy="956.362" r="88" style="fill:#fff;fill-opacity:1;fill-rule:evenodd;stroke:none;stroke-opacity:1"/><g id="g993" transform="matrix(0.43975904,0,0,0.43975904,53.78316,899.8299)" style="fill:none"><g id="g991" clip-path="url(#clip0)"><path id="path983" fill="#9abeff" fill-rule="evenodd" d="M 58.5,111 C 83.629,111 104,90.629 104,65.5 104,40.371 83.629,20 58.5,20 33.371,20 13,40.371 13,65.5 13,90.629 33.371,111 58.5,111 Z" clip-rule="evenodd"/><path id="path985" fill="#f9de81" fill-rule="evenodd" d="m 133.5,171 c 14.636,0 26.5,-11.864 26.5,-26.5 0,-14.636 -11.864,-26.5 -26.5,-26.5 -14.636,0 -26.5,11.864 -26.5,26.5 0,14.636 11.864,26.5 26.5,26.5 z" clip-rule="evenodd"/><path id="path987" fill="#ff837d" fill-rule="evenodd" d="M 133.5,112 C 146.479,112 157,101.479 157,88.5 157,75.5213 146.479,65 133.5,65 120.521,65 110,75.5213 110,88.5 c 0,12.979 10.521,23.5 23.5,23.5 z" clip-rule="evenodd"/><path id="path989" fill="#98dc9a" fill-rule="evenodd" d="m 167,74 c 6.627,0 12,-5.3726 12,-12 0,-6.6274 -5.373,-12 -12,-12 -6.627,0 -12,5.3726 -12,12 0,6.6274 5.373,12 12,12 z" clip-rule="evenodd"/></g></g><text id="text997" x="69.283" y="1010.705" xml:space="preserve" style="font-weight:700;font-size:30.9091px;line-height:1.25;font-family:Now;-inkscape-font-specification:'Now Bold';letter-spacing:0;word-spacing:0;fill:#82858b;fill-opacity:1;stroke-width:.772727"><tspan style="fill:#82858b;fill-opacity:1;stroke-width:.772727" id="tspan995" x="69.283" y="1010.705">GO</tspan></text></g><style id="style853" type="text/css"/><style id="style853-5" type="text/css"/></svg>