<svg xmlns="http://www.w3.org/2000/svg" xmlns:xlink="http://www.w3.org/1999/xlink" id="Layer_1" width="192" height="192" x="0" y="0" baseProfile="tiny" overflow="visible" version="1.1" viewBox="0 0 192 192" xml:space="preserve"><g><g><path fill="#99BEF9" d="M142.077,180.953H49.713c-3.871,0-7.302-2.492-8.499-6.174l-29.29-92.867 c-1.196-3.681,0.114-7.716,3.246-9.991l75.473-57.527c3.131-2.276,7.373-2.276,10.503,0l75.473,57.527 c3.131,2.275,4.441,6.31,3.244,9.991l-29.288,92.867C149.378,178.461,145.948,180.953,142.077,180.953z"/></g><polygon fill="#FFF" points="143.801 78.146 134.846 69.19 82.315 121.72 56.403 95.808 46.942 105.271 81.81 140.139 81.81 140.139 81.81 140.139"/></g></svg>