<svg xmlns="http://www.w3.org/2000/svg" xmlns:svg="http://www.w3.org/2000/svg" id="svg2" width="192" height="192" version="1.1" viewBox="0 0 192 192"><metadata id="metadata7"/><g id="layer1" transform="translate(0,-860.36216)"><circle id="circle2103" cx="96" cy="956.362" r="88" style="fill:#fefefe;fill-opacity:1;fill-rule:evenodd;stroke:none;stroke-opacity:1"/><path style="opacity:1;fill:#97db99;fill-opacity:1;stroke:none;stroke-width:7.38997;stroke-linecap:butt;stroke-linejoin:round;stroke-miterlimit:4;stroke-dasharray:none;stroke-opacity:1;paint-order:normal" id="rect2163" d="m 92.370544,979.52563 h 7.27603 l 0,11.83653 a 1.5,1.5 135 0 1 -1.5,1.5 l -4.27603,0 a 1.5,1.5 45 0 1 -1.5,-1.5 z"/><path id="path2214" d="m 114.14779,957.85966 c -0.55407,6.76304 -4.83049,12.69428 -11.17904,15.32393 -6.813497,2.82224 -14.628928,1.26952 -19.84375,-3.94531 l -5.09375,5.0918 c 7.260164,7.26017 18.207494,9.43698 27.69336,5.50781 9.02186,-3.73697 15.07116,-12.31405 15.64139,-21.97743 0.0488,-0.82687 -0.62741,-1.49913 -1.45584,-1.49913 l -4.20118,0 c -0.82843,0 -1.49357,0.6729 -1.56119,1.49833 z" style="color:#000;font-style:normal;font-variant:normal;font-weight:400;font-stretch:normal;font-size:medium;line-height:normal;font-family:sans-serif;font-variant-ligatures:normal;font-variant-position:normal;font-variant-caps:normal;font-variant-numeric:normal;font-variant-alternates:normal;font-variant-east-asian:normal;font-feature-settings:normal;font-variation-settings:normal;text-indent:0;text-align:start;text-decoration:none;text-decoration-line:none;text-decoration-style:solid;text-decoration-color:#000;letter-spacing:normal;word-spacing:normal;text-transform:none;writing-mode:lr-tb;direction:ltr;text-orientation:mixed;dominant-baseline:auto;baseline-shift:baseline;text-anchor:start;white-space:normal;shape-padding:0;shape-margin:0;inline-size:0;clip-rule:nonzero;display:inline;overflow:visible;visibility:visible;isolation:auto;mix-blend-mode:normal;color-interpolation:sRGB;color-interpolation-filters:linearRGB;solid-color:#000;solid-opacity:1;vector-effect:none;fill:#fe827c;fill-opacity:1;fill-rule:nonzero;stroke:none;stroke-width:7.20274;stroke-linecap:butt;stroke-linejoin:round;stroke-miterlimit:4;stroke-dasharray:none;stroke-dashoffset:0;stroke-opacity:1;paint-order:normal;color-rendering:auto;image-rendering:auto;shape-rendering:auto;text-rendering:auto;enable-background:accumulate;stop-color:#000;stop-opacity:1;opacity:1"/><path id="path2219" d="m 70.634072,957.86046 c 0.365738,6.19184 2.987231,12.05967 7.397178,16.46962 l 5.09375,-5.0918 c -3.06073,-3.06073 -4.919123,-7.09714 -5.27231,-11.37864 -0.06809,-0.82539 -0.733247,-1.49831 -1.561674,-1.49831 h -4.201172 c -0.828427,0 -1.504613,0.67226 -1.455772,1.49913 z" style="color:#000;font-style:normal;font-variant:normal;font-weight:400;font-stretch:normal;font-size:medium;line-height:normal;font-family:sans-serif;font-variant-ligatures:normal;font-variant-position:normal;font-variant-caps:normal;font-variant-numeric:normal;font-variant-alternates:normal;font-variant-east-asian:normal;font-feature-settings:normal;font-variation-settings:normal;text-indent:0;text-align:start;text-decoration:none;text-decoration-line:none;text-decoration-style:solid;text-decoration-color:#000;letter-spacing:normal;word-spacing:normal;text-transform:none;writing-mode:lr-tb;direction:ltr;text-orientation:mixed;dominant-baseline:auto;baseline-shift:baseline;text-anchor:start;white-space:normal;shape-padding:0;shape-margin:0;inline-size:0;clip-rule:nonzero;display:inline;overflow:visible;visibility:visible;isolation:auto;mix-blend-mode:normal;color-interpolation:sRGB;color-interpolation-filters:linearRGB;solid-color:#000;solid-opacity:1;vector-effect:none;fill:#f8dd7f;fill-opacity:1;fill-rule:nonzero;stroke:none;stroke-width:7.20274;stroke-linecap:butt;stroke-linejoin:round;stroke-miterlimit:4;stroke-dasharray:none;stroke-dashoffset:0;stroke-opacity:1;paint-order:normal;color-rendering:auto;image-rendering:auto;shape-rendering:auto;text-rendering:auto;enable-background:accumulate;stop-color:#000;stop-opacity:1;opacity:1"/><path style="fill:#99bdfe;fill-opacity:1;stroke-width:.171201" id="path2079" d="m 95.999999,967.13069 v 0 c -6.026266,0 -10.905487,-4.87922 -10.905487,-10.90549 v -25.45755 c 0,-6.02627 4.879221,-10.90549 10.905487,-10.90549 v 0 c 6.026271,0 10.905491,4.87922 10.905491,10.90549 v 25.45755 c 0,6.02627 -4.87922,10.90549 -10.905491,10.90549 z" class="st0"/></g><style id="style853" type="text/css">.st0{fill:#fff}</style><style id="style2076" type="text/css">.st0{fill:#4285f4}</style></svg>