<svg xmlns="http://www.w3.org/2000/svg" xmlns:svg="http://www.w3.org/2000/svg" id="svg15" width="192" height="192" fill="none" version="1.1" viewBox="0 0 192 192"><metadata id="metadata19"/><path id="path2" fill="#9abeff" fill-rule="evenodd" d="M 36.708,122.6 V 172 h 112.728 c 3.617,0 6.952,-1.954 8.722,-5.108 L 182.999,122.6 Z" clip-rule="evenodd"/><path id="path4" fill="#98dc9a" fill-rule="evenodd" d="M 67.6118,19.9998 11.8081,117.685 c -1.742,3.049 -1.7567,6.789 -0.0387,9.852 L 36.7079,172 103.556,56.1103 Z" clip-rule="evenodd"/><path id="path6" fill="#f9de81" fill-rule="evenodd" d="M 67.6118,19.9998 126.8,122.6 h 56.199 L 127.268,25.0396 c -1.781,-3.1164 -5.094,-5.0398 -8.683,-5.0398 z" clip-rule="evenodd"/><path id="path847" d="M 126.49805 122.59961 L 151.73047 166.76953 C 152.55328 168.20929 153.71347 169.37981 155.06641 170.23828 C 156.31754 169.38343 157.39083 168.25997 158.1582 166.89258 L 182.99805 122.59961 L 126.49805 122.59961 z" style="fill:#fe837e;fill-opacity:1"/><path id="path906" d="M 67.6118,19.9998 96.037109,69.273438 123.45508,21.277344 C 121.98995,20.459365 120.32263,20 118.58594,20 Z" style="fill:#72a373;fill-opacity:1"/><path id="path911" d="M 10.492188 122.59961 C 10.484512 124.30055 10.909546 126.00385 11.769531 127.53711 L 36.707031 172 L 65.203125 122.59961 L 10.492188 122.59961 z" style="fill:#748ebf;fill-opacity:1"/></svg>