<svg xmlns="http://www.w3.org/2000/svg" xmlns:svg="http://www.w3.org/2000/svg" id="svg14" width="192" height="192" version="1.1" viewBox="0 0 192 192"><metadata id="metadata20"/><defs id="defs18"><mask id="mask-2" fill="#fff"><polygon id="use9" points="0 58.696 0 0 222.87 0 222.87 58.696"/></mask><mask id="mask-2-3" fill="#fff"><polygon id="use9-6" points="0 58.696 0 0 222.87 0 222.87 58.696"/></mask></defs><g id="g874"><circle style="fill:#fff;fill-opacity:1;fill-rule:evenodd;stroke:none" id="circle4487" cx="96" cy="96" r="88.5"/><g id="g866"><circle style="stroke-width:.179883;fill:#9abeff;fill-opacity:1" id="circle2" cx="78.06" cy="80.117" r="28.11" fill="#4285f4"/><path style="stroke-width:.179883;fill:#98dc9a;fill-opacity:1" id="path4" fill="#34a853" d="m 142.05012,82.859436 c 0,3.155872 -2.55866,5.713453 -5.71345,5.713453 -3.15479,0 -5.71345,-2.557581 -5.71345,-5.713453 0,-3.155693 2.55866,-5.713454 5.71345,-5.713454 3.15479,0 5.71345,2.557761 5.71345,5.713454 z"/><path style="stroke-width:.179883;fill:#ff837d;fill-opacity:1" id="path6-3" fill="#ea4335" d="m 131.76602,96.800212 c 0,6.310488 -5.11552,11.426548 -11.42673,11.426548 -6.31175,0 -11.42691,-5.11606 -11.42691,-11.426548 0,-6.310846 5.11534,-11.426907 11.42691,-11.426907 6.31139,0 11.42673,5.116241 11.42673,11.426907 z"/><path style="stroke-width:.179883;fill:#f9de81;fill-opacity:1" id="path8" fill="#fbbc05" d="m 134.05125,126.28129 c 0,7.57308 -6.13833,13.7116 -13.71214,13.7116 -7.57381,0 -13.71232,-6.13852 -13.71232,-13.7116 0,-7.57273 6.13833,-13.71197 13.71232,-13.71197 7.57381,0 13.71214,6.13924 13.71214,13.71197 z"/></g></g></svg>