<svg xmlns="http://www.w3.org/2000/svg" xmlns:svg="http://www.w3.org/2000/svg" xmlns:xlink="http://www.w3.org/1999/xlink" id="svg2" width="192" height="192" version="1.1" viewBox="0 0 192 192"><defs id="defs4"><radialGradient id="c-6" cx="-65.57" cy="-40.88" r="142.7" fx="-65.57" fy="-40.88" gradientUnits="userSpaceOnUse" spreadMethod="pad"><stop id="stop1439" offset="0%" stop-color="#FFF"/><stop id="stop1441" offset="50%" stop-color="#FFF"/><stop id="stop1443" offset="100%" stop-color="#FFF"/></radialGradient><radialGradient id="radialGradient1559" cx="-65.57" cy="-40.88" r="142.7" fx="-65.57" fy="-40.88" gradientUnits="userSpaceOnUse" spreadMethod="pad" xlink:href="#c-6"/></defs><metadata id="metadata7"/><g id="layer1" transform="translate(0,-860.36216)"><g id="g1537" transform="matrix(0.99999228,0,0,0.99999228,-543.18857,765.97519)"><path style="fill:#d8d8d8;fill-opacity:1" id="path1523" fill="#bdc1c6" d="m 658.12258,223.25871 -42.08,55.13 h 21.63 c 3.65,0.03 7.12,-1.59 9.37,-4.52 l 38.51,-50.34 -27.42,-0.25 z"/><path style="fill:#d8d8d8;fill-opacity:1" id="path1525" fill="#bdc1c6" d="m 568.16258,238.38871 c -3.59,-0.03 -6.98,1.58 -9.2,4.58 l -1.77,2.39 11.48,2.82 6.64,9.36 14.11,-19.15 z"/><path style="fill:#fff;fill-opacity:1" id="path1527" fill="#dadce0" d="m 637.57258,278.38871 c -3.64,-0.03 -7.05,-1.65 -9.24,-4.59 l -22.62,-30.53 c -2.19,-2.95 -5.6,-4.84 -9.24,-4.88 h -27.28 c 3.64,0.03 7.05,1.68 9.24,4.62 l 22.62,30.53 c 2.19,2.95 5.6,4.81 9.24,4.85 z"/><path style="fill:#99bdfe;fill-opacity:1" id="path1529" d="m 645.18164,-757.97266 c -2.88,0 -5.74977,1.03914 -8.00976,3.11914 l -64.13868,58.81055 c -1.28,1.17 -2.24062,2.55859 -2.89062,4.05859 -0.55,1.27001 -0.85945,2.62047 -0.93946,3.98047 l 44.01954,2.09961 31.95898,-8.06836 0.0117,-0.082 v 0.082 l 36.16016,8.06836 39.80859,-2.09961 c -0.08,-1.36 -0.38945,-2.71046 -0.93945,-3.98047 -0.65,-1.5 -1.61063,-2.88859 -2.89063,-4.05859 l -64.13867,-58.81055 c -2.26,-2.08 -5.13,-3.11914 -8,-3.11914 v 0.10547 z" transform="translate(0,860.36216)"/><path style="fill:#97db99;fill-opacity:1" id="path1531" d="m 645.19336,-693.97266 -75.98047,5.96875 c -0.17,2.76 0.61969,5.59141 2.42969,7.94141 l 22.18945,28.93945 6.08008,7.91993 25.23047,1.33007 20.05078,-4.09961 c 0,0.54 15.97852,3.89844 15.97852,3.89844 l 29.30078,-1.13867 6.08007,-7.91992 22.18946,-28.94141 c 1.81,-2.34 2.59968,-5.16969 2.42969,-7.92969 l -36.76954,-3.21875 z" transform="translate(0,860.36216)"/><path style="fill:#f9de81;fill-opacity:1" id="path1533" d="m 645.19336,-645.97266 c -2.29,0 -45.29102,2.76954 -45.29102,2.76954 l 35.88086,46.77929 c 2.37,3.1 5.89016,4.64063 9.41016,4.64063 3.52,0 7.04016,-1.55063 9.41016,-4.64063 l 35.8789,-46.77929 z" transform="translate(0,860.36216)"/><path style="fill:#000;fill-opacity:.15" id="path1535" d="m 645.18164,102.38776 c -2.88,0 -5.74978,1.04109 -8.00976,3.12109 L 573.0332,164.3194 c -1.28,1.17 -2.24062,2.55859 -2.89062,4.05859 -0.55,1.27 -0.85944,2.62047 -0.93946,3.98047 h 0.01 c -0.17,2.76 0.61969,5.58945 2.42969,7.93945 l 22.18945,28.94141 6.08008,7.91992 h -0.01 l 35.88086,46.7793 c 2.37,3.1 5.89016,4.64062 9.41016,4.64062 v -102.1914 h -0.0117 l 0.0117,-0.082 v -63.8125 z"/></g></g><style id="style853" type="text/css"/></svg>