<svg xmlns="http://www.w3.org/2000/svg" xmlns:svg="http://www.w3.org/2000/svg" id="svg2" width="192" height="192" version="1.1" viewBox="0 0 192 192"><metadata id="metadata7"/><g id="layer1" transform="translate(0,-860.36216)"><g id="g1137"><circle id="circle4190" cx="96" cy="956.362" r="88" style="fill:#fff;fill-opacity:1;fill-rule:evenodd;stroke:none;stroke-opacity:1"/><path style="opacity:1;fill:#98db9a;fill-opacity:1;stroke-width:1.89516;stroke-linecap:round;stroke-linejoin:round" id="rect1009" d="m 117.65427,952.06364 c -5.00839,-5.00839 -13.05264,-5.02803 -18.036699,-0.044 l -3.617442,3.61744 18.612511,18.61251 3.61744,-3.61743 c 4.98406,-4.98406 4.96416,-13.02858 -0.0442,-18.03697 z"/><path style="opacity:1;fill:#72a373;fill-opacity:1;stroke-width:1.89516;stroke-linecap:round;stroke-linejoin:round" id="rect1001" d="m 743.61981,607.85516 h 26.32195 v 24.32226 a 2,2 135 0 1 -2,2 h -24.32195 z" transform="rotate(45)"/><path style="opacity:1;fill:#98db9a;fill-opacity:1;stroke-width:1.89516;stroke-linecap:round;stroke-linejoin:round" id="path1016" d="m 92.382687,952.01967 c -4.984052,-4.98406 -13.02883,-4.96442 -18.037216,0.044 l -0.531583,0.53158 c -5.008386,5.00839 -5.027763,13.05291 -0.04371,18.03695 l 3.617442,3.61745 18.61251,-18.61251 z"/><circle style="opacity:1;fill:#73a474;fill-opacity:1;stroke-width:1.89516;stroke-linecap:round;stroke-linejoin:round" id="circle858" cx="727.629" cy="591.865" r="13.161" transform="rotate(45)"/></g></g></svg>