<svg xmlns="http://www.w3.org/2000/svg" xmlns:svg="http://www.w3.org/2000/svg" id="svg2" width="192" height="192" version="1.1" viewBox="0 0 192 192"><metadata id="metadata7"/><g id="layer1" transform="translate(0,-860.36216)"><g id="g1067" transform="translate(-659.45444,76.105061)"><path style="fill:#97db99;fill-opacity:1;fill-rule:evenodd;stroke:none;stroke-opacity:1" id="path1052" d="m 842.95442,850.59702 -39.77343,29.83008 v 63.33008 h 27.84179 1.93164 c 5.54,0 10,-4.46 10,-10 v -1.93164 z"/><path style="fill:#99bdfe;fill-opacity:1;fill-rule:evenodd;stroke:none;stroke-opacity:1" id="path1054" d="m 667.95442,850.59702 v 81.22852 1.93164 c 0,5.54 4.46,10 10,10 h 1.93164 27.8418 V 880.4271 Z"/><path style="fill:#f8dd7f;fill-opacity:1;stroke-width:1.98864" id="path1056" fill="#fbbc04" d="m 803.18173,828.72269 v 51.70454 l 39.77273,-29.82954 V 834.6886 c 0,-14.75569 -16.84375,-23.16762 -28.63637,-14.31819"/><path style="fill:#fe827c;fill-opacity:1;stroke-width:1.98864" id="path1058" fill="#ea4335" d="m 707.72718,880.42723 v -51.70454 l 47.72727,35.79545 47.72728,-35.79545 v 51.70454 l -47.72728,35.79546"/><path style="fill:#b96460;fill-opacity:1;stroke-width:1.98864" id="path1060" fill="#c5221f" d="m 667.95445,834.6886 v 15.90909 l 39.77273,29.82954 v -51.70454 l -11.13636,-8.35228 c -11.8125,-8.84943 -28.63637,-0.4375 -28.63637,14.31819"/></g></g><style id="style853" type="text/css"/></svg>