<svg xmlns="http://www.w3.org/2000/svg" xmlns:svg="http://www.w3.org/2000/svg" id="svg8256" width="192" height="192" version="1.1" viewBox="0 0 192 192"><metadata id="metadata8261"/><g id="layer1" transform="translate(0,-860.36216)"><g id="g8197" transform="translate(-41.216003,819.14616)"><rect id="rect8136" width="153" height="153" x="60.716" y="60.716" rx="10" style="opacity:1;fill:#56595b;fill-opacity:1;fill-rule:evenodd;stroke:none"/><g id="g8173" transform="matrix(0.85984312,0,0,0.85984312,19.43733,21.437336)"><path id="path8128" d="m 126.95761,82.446702 -34.431911,0.138293 0,53.327715 c 0,0.73135 0.280101,1.43984 0.479863,2.15535 0.199767,0.71551 0.438854,1.42881 0.717554,2.14011 0.557405,1.4226 1.271988,2.83866 2.138311,4.25509 0.866327,1.41643 1.88434,2.83332 3.050502,4.25779 1.166161,1.42446 2.479771,2.85594 3.936681,4.30263 1.45691,1.4467 4.52061,3.94673 6.25919,5.42986 -2.60144,-3.85953 -5.83199,-8.78102 -5.83199,-13.66531 l 0,-51.591306 57.8709,0 0,-10.750222 z" style="opacity:1;fill:#98db9a;fill-opacity:1;stroke:none;stroke-width:4;stroke-linecap:butt;stroke-linejoin:miter;stroke-miterlimit:4;stroke-dasharray:none;stroke-opacity:1"/><path style="opacity:1;fill:#fff;fill-opacity:1;stroke:none;stroke-width:4;stroke-linecap:butt;stroke-linejoin:miter;stroke-miterlimit:4;stroke-dasharray:none;stroke-opacity:1" id="path8105" d="m 147.47448,102.88932 -34.43183,0.13813 0,53.32771 c 0,0.73135 0.2801,1.43984 0.47987,2.15535 0.19976,0.71551 0.43885,1.42881 0.71755,2.14011 0.55741,1.4226 1.27199,2.83866 2.13831,4.25509 0.86633,1.41643 1.88434,2.83332 3.0505,4.25779 1.16617,1.42446 2.47977,2.85593 3.93669,4.30263 1.4569,1.4467 3.05737,2.9083 4.79595,4.39143 1.73857,1.48313 3.61537,2.98772 5.62652,4.52149 2.01115,1.53377 4.15644,3.09689 6.43108,4.69549 2.27463,1.5986 4.67879,3.23312 7.20783,4.91076 l 0.0475,-0.0502 0.0475,0.0502 c 2.52904,-1.67764 4.93319,-3.31216 7.20783,-4.91076 2.27463,-1.5986 4.41993,-3.16172 6.43108,-4.69549 2.01115,-1.53377 3.88795,-3.03836 5.62652,-4.52149 1.73857,-1.48313 3.33904,-2.94473 4.79595,-4.39143 1.45691,-1.4467 2.77052,-2.87817 3.93668,-4.30263 1.16616,-1.42447 2.18418,-2.84136 3.0505,-4.25779 0.86632,-1.41643 1.5809,-2.83249 2.13831,-4.25509 0.2787,-0.7113 0.51779,-1.4246 0.71756,-2.14011 0.19976,-0.71551 0.47986,-1.42401 0.47986,-2.15535 l 0,-53.32771 z"/><path style="opacity:1;fill:#56595b;fill-opacity:1;stroke:none;stroke-width:4;stroke-linecap:butt;stroke-linejoin:miter;stroke-miterlimit:4;stroke-dasharray:none;stroke-opacity:1" id="path8118" d="m 147.47448,113.24093 -23.75104,0.10135 0,39.41883 c 0.0479,10.80457 14.59851,19.76556 23.71875,26.33602 l 0.0323,-0.0368 0.0323,0.0368 c 9.12025,-6.57046 23.67082,-15.53145 23.71874,-26.33602 l 0,-39.41883 -23.75103,-0.10135 z"/></g></g></g></svg>