<svg xmlns="http://www.w3.org/2000/svg" xmlns:svg="http://www.w3.org/2000/svg" id="svg2" width="192" height="192" version="1.1" viewBox="0 0 192 192"><metadata id="metadata7"/><g id="layer1" transform="translate(0,-860.36216)"><path style="fill:#54688c;fill-opacity:1;fill-rule:evenodd;stroke:none;stroke-opacity:1" id="rect985" d="m 29.5,879.86218 h 133 c 5.54,0 10,4.46 10,10 v 133.00002 c 0,5.54 -4.46,10 -10,10 h -133 c -5.54,0 -10,-4.46 -10,-10 V 889.86218 c 0,-5.54 4.46,-10 10,-10 z"/><rect id="rect889" width="32" height="32" x="60" y="920.362" ry="8" style="opacity:1;vector-effect:none;fill:#f4806d;fill-opacity:1;stroke-width:4;paint-order:stroke fill markers"/><rect id="rect891" width="32" height="32" x="100" y="920.362" ry="8" style="opacity:1;vector-effect:none;fill:#bd9aff;fill-opacity:1;stroke-width:4;paint-order:stroke fill markers"/><rect id="rect893" width="32" height="32" x="60" y="960.362" ry="8" style="opacity:1;vector-effect:none;fill:#f8c18c;fill-opacity:1;stroke-width:4;paint-order:stroke fill markers"/><rect id="rect895" width="32" height="32" x="100" y="960.362" ry="8" style="opacity:1;vector-effect:none;fill:#9abeff;fill-opacity:1;stroke-width:4;paint-order:stroke fill markers"/><path id="path907" d="m 76,965.36185 a 11,11 0 0 0 -11,11 11,11 0 0 0 11,11 11,11 0 0 0 11,-11 11,11 0 0 0 -11,-11 z m 0,3 a 8,8 0 0 1 8,8 8,8 0 0 1 -8,8 8,8 0 0 1 -8,-8 8,8 0 0 1 8,-8 z" style="opacity:1;vector-effect:none;fill:#ba6561;fill-opacity:1;stroke-width:3.66666651;paint-order:stroke fill markers"/><path id="path907-3" d="m 115.79688,925.56505 a 11,11 0 0 0 -11,11 11,11 0 0 0 11,11 11,11 0 0 0 11,-11 11,11 0 0 0 -11,-11 z m 0,3 a 8,8 0 0 1 8,8 8,8 0 0 1 -8,8 8,8 0 0 1 -8,-8 8,8 0 0 1 8,-8 z" style="opacity:1;vector-effect:none;fill:#8c72bd;fill-opacity:1;stroke-width:3.66666651;paint-order:stroke fill markers"/><path id="path907-3-7" d="m 116,965.36185 a 11,11 0 0 0 -11,11 11,11 0 0 0 11,11 11,11 0 0 0 11,-11 11,11 0 0 0 -11,-11 z m 0,3 a 8,8 0 0 1 8,8 8,8 0 0 1 -8,8 8,8 0 0 1 -8,-8 8,8 0 0 1 8,-8 z" style="opacity:1;vector-effect:none;fill:#728dbe;fill-opacity:1;stroke-width:3.66666651;paint-order:stroke fill markers"/><path id="path968" d="m 116,965.36185 v 3 a 8,8 0 0 1 6.64844,3.5628 l 2.5,-1.6644 A 11,11 0 0 0 116,965.36185 Z" style="fill:#fff;stroke:none;stroke-width:4px;stroke-linecap:butt;stroke-linejoin:miter;stroke-opacity:1"/><rect id="rect951" width="22" height="4" x="65" y="934.362" ry="2" style="opacity:1;vector-effect:none;fill:#b02a3c;fill-opacity:1;stroke-width:3.8297081;paint-order:stroke fill markers"/><rect id="rect951-3" width="11" height="4" x="65" y="934.362" ry="2" style="opacity:1;vector-effect:none;fill:#fff;fill-opacity:1;stroke-width:3.24061465;paint-order:stroke fill markers"/></g><style id="style853" type="text/css"/><style id="style907" type="text/css"/></svg>