<svg xmlns="http://www.w3.org/2000/svg" xmlns:xlink="http://www.w3.org/1999/xlink" width="100%" height="100%" version="1.1" viewBox="0 0 192 192" xml:space="preserve" style="fill-rule:evenodd;clip-rule:evenodd;stroke-linejoin:round;stroke-miterlimit:2"><g id="Layer1"><g><path d="M164.5,21.5C164.5,15.981 160.019,11.5 154.5,11.5L21.5,11.5C15.981,11.5 11.5,15.981 11.5,21.5L11.5,154.5C11.5,160.019 15.981,164.5 21.5,164.5L154.5,164.5C160.019,164.5 164.5,160.019 164.5,154.5L164.5,21.5Z" transform="matrix(1,0,0,1,8,8)" style="fill:#fff"/></g><g><g><path d="M77.746,39.812C91.761,47.372 101.176,61.361 101.176,77.355C101.176,93.348 91.761,107.338 77.746,114.898L77.746,39.812Z" transform="matrix(0.707107,-0.707107,0.707107,0.707107,-39.7172,95.9441)" style="fill:#e0f4e0"/><g><path d="M77.746,39.812C91.761,47.372 101.176,61.361 101.176,77.355C101.176,93.348 91.761,107.338 77.746,114.898L77.746,39.812Z" transform="matrix(0.707107,-0.707107,0.707107,0.707107,-39.7172,95.9441) matrix(-1,0,0,1,155.492,0)" style="fill:#98dc9a"/></g></g><g><g><path d="M77.746,39.812C91.761,47.372 101.176,61.361 101.176,77.355C101.176,93.348 91.761,107.338 77.746,114.898L77.746,39.812Z" transform="matrix(0.707107,-0.707107,0.707107,0.707107,-39.7172,95.9441) matrix(6.91744e-17,1.1297,-1.1297,6.91744e-17,199.113,23.9745)" style="fill:#71a372"/></g><g><path d="M77.746,39.812C91.761,47.372 101.176,61.361 101.176,77.355C101.176,93.348 91.761,107.338 77.746,114.898L77.746,39.812Z" transform="matrix(0.707107,-0.707107,0.707107,0.707107,-39.7172,95.9441) matrix(-6.91744e-17,-1.1297,-1.1297,6.91744e-17,199.113,199.634)" style="fill:#98dc9a"/></g></g></g></g></svg>