<svg xmlns="http://www.w3.org/2000/svg" xmlns:xlink="http://www.w3.org/1999/xlink" width="100%" height="100%" version="1.1" viewBox="0 0 192 192" xml:space="preserve" style="fill-rule:evenodd;clip-rule:evenodd;stroke-linejoin:round;stroke-miterlimit:2"><g id="Layer1"><g><path d="M164.5,21.5C164.5,15.981 160.019,11.5 154.5,11.5L21.5,11.5C15.981,11.5 11.5,15.981 11.5,21.5L11.5,154.5C11.5,160.019 15.981,164.5 21.5,164.5L154.5,164.5C160.019,164.5 164.5,160.019 164.5,154.5L164.5,21.5Z" transform="matrix(1,0,0,1,8,8)" style="fill:#73ada4"/></g><g><g><g><path d="M43.79,115.293L43.79,67.578L68.568,91.551L64.518,95.469L64.518,106.647L68.677,106.647L71.305,120.921L49.418,120.921L43.79,115.293Z" transform="matrix(0.802916,0,0,0.802916,18.92,20.0477) matrix(1,0,0,1,-0.238237,0)" style="fill:#f9de81"/><g><path d="M43.79,115.293L43.79,67.578L68.568,91.551L64.518,95.469L64.518,106.647L68.677,106.647L71.305,120.921L49.418,120.921L43.79,115.293Z" transform="matrix(0.802916,0,0,0.802916,18.92,20.0477) matrix(1,0,0,1,-0.238237,0) matrix(-1,0,0,1,192.476,0)" style="fill:#f9de81"/></g></g><g><g transform="matrix(0.802916,0,0,0.802916,18.92,20.0477) matrix(1,0,0,1,0.0847951,0) matrix(0.707107,-0.707107,0.707107,0.707107,-77.9927,129.575)"><rect width="29.168" height="29.168" x="131.267" y="85.628" style="fill:#f9de81"/></g><g><g><path d="M96,80.067L96,114.539L78.764,97.303L96,80.067Z" transform="matrix(0.802916,0,0,0.802916,18.92,20.0477) matrix(1,0,0,1,0.0847951,0) matrix(0.843242,0,0,0.843242,15.0488,15.2531) matrix(1,0,0,1,-0.0847951,0)" style="fill:#9abeff"/></g><g><path d="M96,80.067L96.085,79.983L113.405,97.303L96.085,114.624L96,114.539L96,80.067Z" transform="matrix(0.802916,0,0,0.802916,18.92,20.0477) matrix(1,0,0,1,0.0847951,0) matrix(0.843242,0,0,0.843242,15.0488,15.2531) matrix(1,0,0,1,-0.0847951,0)" style="fill:#ff837d"/></g></g><path d="M73.76,99.163L95.517,120.921L73.76,120.921L73.76,99.163ZM118.071,120.921L96.483,120.921L118.071,99.333L118.071,120.921ZM73.76,69.505L95.915,48.826L118.071,69.505L118.071,95.273L96,73.203L73.76,95.443L73.76,69.505Z" transform="matrix(0.802916,0,0,0.802916,18.92,20.0477) matrix(1,0,0,1,0.0847951,0)" style="fill:#f9de81"/></g></g><g><path d="M45.425,130.832L51.085,123.484L141.246,123.484L146.906,130.832L45.425,130.832Z" transform="matrix(0.802916,0,0,0.802916,18.92,20.0477) matrix(1,0,0,1,-0.16531,0)" style="fill:#f9de81"/><g><path d="M45.425,130.832L51.085,123.484L141.246,123.484L146.906,130.832L45.425,130.832Z" transform="matrix(0.802916,0,0,0.802916,18.92,20.0477) matrix(1,0,0,1,-0.16531,0) matrix(1,0,0,1,0,9.53251)" style="fill:#f9de81"/></g></g></g></g></svg>