<svg xmlns="http://www.w3.org/2000/svg" xmlns:svg="http://www.w3.org/2000/svg" id="svg2" width="192" height="192" version="1.1" viewBox="0 0 192 192"><metadata id="metadata7"/><g id="layer1" transform="translate(0,-860.36216)"><path style="fill:#d8d8d8;fill-opacity:1;fill-rule:evenodd;stroke:none;stroke-opacity:1" id="rect985" d="m 29.5,879.86218 h 133 c 5.54,0 10,4.46 10,10 v 133.00002 c 0,5.54 -4.46,10 -10,10 h -133 c -5.54,0 -10,-4.46 -10,-10 V 889.86218 c 0,-5.54 4.46,-10 10,-10 z"/><g id="text822" aria-label="Esc" transform="matrix(4.0130668,0,0,3.9478871,-0.47062796,863.18065)" style="font-style:normal;font-variant:normal;font-weight:400;font-stretch:normal;font-size:13.33158112px;line-height:1.25;font-family:Now;-inkscape-font-specification:Now;letter-spacing:0;word-spacing:0;fill:#4a4a4a;fill-opacity:1;stroke:none;stroke-width:.3332895"><path id="path824" d="m 19.804268,20.019965 v -1.483138 h -5.732579 v 9.998686 h 5.732579 v -1.483138 h -4.099461 v -2.766304 h 3.549534 v -1.499802 h -3.549534 v -2.766304 z" style="font-style:normal;font-variant:normal;font-weight:500;font-stretch:normal;font-family:Now;-inkscape-font-specification:'Now Medium';fill:#4a4a4a;stroke-width:.3332895"/><path id="path826" d="m 23.630849,28.668829 c 1.333158,0 2.283033,-0.849889 2.283033,-2.049731 0,-1.2665 -1.066526,-1.766434 -1.966408,-2.133053 -0.649915,-0.266631 -0.96654,-0.399947 -0.96654,-0.816559 0,-0.383283 0.266632,-0.599921 0.716573,-0.599921 0.433276,0 0.816559,0.199973 0.999868,0.499934 l 0.999869,-0.816559 c -0.349954,-0.566593 -1.199842,-1.016533 -2.099724,-1.016533 -1.249836,0 -2.183046,0.849888 -2.183046,2.016401 0,1.183178 0.983204,1.683112 1.983072,2.049731 0.699908,0.283296 1.016533,0.466605 1.016533,0.849888 0,0.416612 -0.366618,0.649915 -0.833223,0.649915 -0.48327,0 -1.016533,-0.233303 -1.216507,-0.749902 l -1.283165,0.583257 c 0.316625,0.916546 1.433145,1.533132 2.549665,1.533132 z" style="font-style:normal;font-variant:normal;font-weight:500;font-stretch:normal;font-family:Now;-inkscape-font-specification:'Now Medium';fill:#4a4a4a;stroke-width:.3332895"/><path id="path828" d="m 30.540357,28.668829 c 1.766435,0 3.099593,-1.083191 3.466211,-2.616323 h -1.649783 c -0.316625,0.683243 -0.999869,1.149849 -1.816428,1.149849 -1.11652,0 -1.999737,-0.866553 -1.999737,-1.999737 0,-1.133185 0.883217,-1.999738 1.999737,-1.999738 0.816559,0 1.499803,0.466606 1.816428,1.149849 h 1.649783 c -0.366618,-1.533131 -1.699776,-2.616322 -3.466211,-2.616322 -2.066395,0 -3.582862,1.516467 -3.582862,3.466211 0,1.949743 1.516467,3.466211 3.582862,3.466211 z" style="font-style:normal;font-variant:normal;font-weight:500;font-stretch:normal;font-family:Now;-inkscape-font-specification:'Now Medium';fill:#4a4a4a;stroke-width:.3332895"/></g></g><style id="style853" type="text/css"/><style id="style907" type="text/css"/></svg>