<svg xmlns="http://www.w3.org/2000/svg" xmlns:svg="http://www.w3.org/2000/svg" id="svg2" width="192" height="192" version="1.1" viewBox="0 0 192 192"><metadata id="metadata7"/><g id="layer1" transform="translate(0,-860.36216)"><rect id="rect921" width="153" height="153" x="19.5" y="879.862" rx="10" style="fill:#708cbd;fill-opacity:1;fill-rule:evenodd;stroke:none;stroke-opacity:1"/><text id="text991" x="47.063" y="964.785" xml:space="preserve" style="font-weight:700;font-size:22.8744px;line-height:1.25;font-family:Now;-inkscape-font-specification:'Now Bold';letter-spacing:0;word-spacing:0;fill:#fff;fill-opacity:1;stroke-width:.571862"><tspan style="fill:#fff;fill-opacity:1;stroke-width:.571862" id="tspan989" x="47.063" y="964.785">HALIFAX</tspan></text><path id="path1088" d="m 67.851808,968.1194 -15.148449,15.4257 a 1.6292925,1.6292925 0 0 0 1.162484,2.77089 h 25.437514 a 9.2568106,9.2568106 0 0 0 6.604641,-2.77089 l 15.148442,-15.4257 z" style="fill:#fff;fill-opacity:1;stroke-width:14.0132;stroke-linecap:round;stroke-linejoin:round;stop-color:#000"/><path id="path1086" d="m 106.09199,929.17932 -8.295252,8.44776 6.851952,6.97784 h 19.49936 l 15.14845,-15.4257 a 1.6292925,1.6292925 0 0 0 -1.16248,-2.77089 h -25.4375 a 9.2562919,9.2562919 0 0 0 -6.60453,2.77099 z" style="fill:#fff;fill-opacity:1;stroke-width:14.0132;stroke-linecap:round;stroke-linejoin:round;stop-color:#000"/><path id="path1084" d="m 104.64869,968.1194 -6.851952,6.97784 8.295252,8.44776 a 9.2562919,9.2562919 0 0 0 6.60453,2.77099 h 25.4375 a 1.6292925,1.6292925 0 0 0 1.16248,-2.77089 l -15.14845,-15.4257 z" style="fill:#fff;fill-opacity:1;stroke-width:14.0132;stroke-linecap:round;stroke-linejoin:round;stop-color:#000"/><path id="path999" d="m 52.703359,929.17922 15.148449,15.4257 h 33.204632 l -15.148442,-15.4257 a 9.2568106,9.2568106 0 0 0 -6.604641,-2.77089 H 53.865843 a 1.6292925,1.6292925 0 0 0 -1.162484,2.77089 z" style="fill:#fff;fill-opacity:1;stroke-width:14.0132;stroke-linecap:round;stroke-linejoin:round;stop-color:#000"/></g><style id="style853" type="text/css"/></svg>