<svg xmlns="http://www.w3.org/2000/svg" xmlns:svg="http://www.w3.org/2000/svg" id="Слой_1" x="0" y="0" enable-background="new 0 0 192 192" version="1.1" viewBox="0 0 192 192" xml:space="preserve"><metadata id="metadata153"/><rect style="opacity:1;fill:#56595b;fill-opacity:1;fill-rule:evenodd;stroke:none;stroke-width:.993464;stroke-opacity:1" id="rect962" width="152" height="152" x="20" y="20" rx="9.935" ry="9.935"/><g id="g5211" transform="matrix(0.58321898,0,0,0.58321898,40.01098,40.010963)" style="opacity:1"><circle id="circle26" cx="96" cy="19.5" r="5.6" fill="#98dc9a" style="fill:#97db99;fill-opacity:1"/><circle id="circle30" cx="96" cy="34.8" r="5.6" fill="#98dc9a" style="fill:#97db99;fill-opacity:1"/><circle id="circle2214" cx="80.7" cy="34.8" r="5.6" fill="#98dc9a" style="fill:#97db99;fill-opacity:1"/><circle id="circle2310" cx="111.3" cy="34.8" r="5.6" fill="#98dc9a" style="fill:#97db99;fill-opacity:1"/><circle id="circle38" cx="96" cy="50.1" r="5.6" fill="#98dc9a" style="fill:#97db99;fill-opacity:1"/><circle id="circle2216" cx="80.7" cy="50.1" r="5.6" fill="#98dc9a" style="fill:#97db99;fill-opacity:1"/><circle id="circle2240" cx="65.4" cy="50.1" r="5.6" fill="#98dc9a" style="fill:#97db99;fill-opacity:1"/><circle id="circle2312" cx="111.3" cy="50.1" r="5.6" fill="#98dc9a" style="fill:#97db99;fill-opacity:1"/><circle id="circle2336" cx="126.6" cy="50.1" r="5.6" fill="#98dc9a" style="fill:#97db99;fill-opacity:1"/><circle id="circle48" cx="96" cy="80.7" r="5.6" fill="#b1b5bd" style="fill:#b1b5bd;fill-opacity:1"/><circle id="circle2218" cx="80.7" cy="80.7" r="5.6" fill="#b1b5bd" style="fill:#b1b5bd;fill-opacity:1"/><circle id="circle2242" cx="65.4" cy="80.7" r="5.6" fill="#b1b5bd" style="fill:#b1b5bd;fill-opacity:1"/><circle id="circle2266" cx="50.1" cy="80.7" r="5.6" fill="#b1b5bd" style="fill:#ff837d;fill-opacity:1"/><circle id="circle2290" cx="34.8" cy="80.7" r="5.6" fill="#b1b5bd" style="fill:#ff837d;fill-opacity:1"/><circle id="circle2314" cx="111.3" cy="80.7" r="5.6" fill="#b1b5bd" style="fill:#b1b5bd;fill-opacity:1"/><circle id="circle2338" cx="126.6" cy="80.7" r="5.6" fill="#b1b5bd" style="fill:#b1b5bd;fill-opacity:1"/><circle id="circle2362" cx="141.9" cy="80.7" r="5.6" fill="#b1b5bd" style="fill:#bd9aff;fill-opacity:1"/><circle id="circle2386" cx="157.2" cy="80.7" r="5.6" fill="#b1b5bd" style="fill:#bd9aff;fill-opacity:1"/><circle id="circle4" cx="19.5" cy="95.9" r="5.6" fill="#ff837d" style="fill:#ff837d;fill-opacity:1"/><circle id="circle124" cx="172.5" cy="96.1" r="5.6" fill="#bd9aff" style="fill:#bd9aff;fill-opacity:1"/><circle id="circle60" cx="96" cy="96" r="5.6" fill="#b1b5bd" style="fill:#b1b5bd;fill-opacity:1"/><circle id="circle2220" cx="80.7" cy="96" r="5.6" fill="#b1b5bd" style="fill:#b1b5bd;fill-opacity:1"/><circle id="circle2244" cx="65.4" cy="96" r="5.6" fill="#b1b5bd" style="fill:#b1b5bd;fill-opacity:1"/><circle id="circle2268" cx="50.1" cy="96" r="5.6" fill="#b1b5bd" style="fill:#ff837d;fill-opacity:1"/><circle id="circle2292" cx="34.8" cy="96" r="5.6" fill="#b1b5bd" style="fill:#ff837d;fill-opacity:1"/><circle id="circle2316" cx="111.3" cy="96" r="5.6" fill="#b1b5bd" style="fill:#b1b5bd;fill-opacity:1"/><circle id="circle2340" cx="126.6" cy="96" r="5.6" fill="#b1b5bd" style="fill:#b1b5bd;fill-opacity:1"/><circle id="circle2364" cx="141.9" cy="96" r="5.6" fill="#b1b5bd" style="fill:#bd9aff;fill-opacity:1"/><circle id="circle2388" cx="157.2" cy="96" r="5.6" fill="#b1b5bd" style="fill:#bd9aff;fill-opacity:1"/><circle id="circle72" cx="96" cy="111.3" r="5.6" fill="#b1b5bd" style="fill:#b1b5bd;fill-opacity:1"/><circle id="circle2222" cx="80.7" cy="111.3" r="5.6" fill="#b1b5bd" style="fill:#b1b5bd;fill-opacity:1"/><circle id="circle2246" cx="65.4" cy="111.3" r="5.6" fill="#b1b5bd" style="fill:#b1b5bd;fill-opacity:1"/><circle id="circle2270" cx="50.1" cy="111.3" r="5.6" fill="#b1b5bd" style="fill:#ff837d;fill-opacity:1"/><circle id="circle2294" cx="34.8" cy="111.3" r="5.6" fill="#b1b5bd" style="fill:#ff837d;fill-opacity:1"/><circle id="circle2318" cx="111.3" cy="111.3" r="5.6" fill="#b1b5bd" style="fill:#b1b5bd;fill-opacity:1"/><circle id="circle2342" cx="126.6" cy="111.3" r="5.6" fill="#b1b5bd" style="fill:#b1b5bd;fill-opacity:1"/><circle id="circle2366" cx="141.9" cy="111.3" r="5.6" fill="#b1b5bd" style="fill:#bd9aff;fill-opacity:1"/><circle id="circle2390" cx="157.2" cy="111.3" r="5.6" fill="#b1b5bd" style="fill:#bd9aff;fill-opacity:1"/><circle id="circle84" cx="96" cy="126.6" r="5.6" fill="#b1b5bd" style="fill:#b1b5bd;fill-opacity:1"/><circle id="circle2224" cx="80.7" cy="126.6" r="5.6" fill="#b1b5bd" style="fill:#b1b5bd;fill-opacity:1"/><circle id="circle2248" cx="65.4" cy="126.6" r="5.6" fill="#b1b5bd" style="fill:#b1b5bd;fill-opacity:1"/><circle id="circle2272" cx="50.1" cy="126.6" r="5.6" fill="#b1b5bd" style="fill:#ff837d;fill-opacity:1"/><circle id="circle2320" cx="111.3" cy="126.6" r="5.6" fill="#b1b5bd" style="fill:#b1b5bd;fill-opacity:1"/><circle id="circle2344" cx="126.6" cy="126.6" r="5.6" fill="#b1b5bd" style="fill:#b1b5bd;fill-opacity:1"/><circle id="circle2368" cx="141.9" cy="126.6" r="5.6" fill="#b1b5bd" style="fill:#bd9aff;fill-opacity:1"/><circle id="circle96" cx="96" cy="65.4" r="5.6" fill="#b1b5bd" style="fill:#b1b5bd;fill-opacity:1"/><circle id="circle2226" cx="80.7" cy="65.4" r="5.6" fill="#b1b5bd" style="fill:#b1b5bd;fill-opacity:1"/><circle id="circle2250" cx="65.4" cy="65.4" r="5.6" fill="#b1b5bd" style="fill:#b1b5bd;fill-opacity:1"/><circle id="circle2274" cx="50.1" cy="65.4" r="5.6" fill="#b1b5bd" style="fill:#ff837d;fill-opacity:1"/><circle id="circle2322" cx="111.3" cy="65.4" r="5.6" fill="#b1b5bd" style="fill:#b1b5bd;fill-opacity:1"/><circle id="circle2346" cx="126.6" cy="65.4" r="5.6" fill="#b1b5bd" style="fill:#b1b5bd;fill-opacity:1"/><circle id="circle2370" cx="141.9" cy="65.4" r="5.6" fill="#b1b5bd" style="fill:#bd9aff;fill-opacity:1"/><circle id="circle102" cx="96" cy="172.5" r="5.6" fill="#9abeff" style="fill:#99bdfe;fill-opacity:1"/><circle id="circle106" cx="96" cy="157.2" r="5.6" fill="#9abeff" style="fill:#99bdfe;fill-opacity:1"/><circle id="circle2230" cx="80.7" cy="157.2" r="5.6" fill="#9abeff" style="fill:#99bdfe;fill-opacity:1"/><circle id="circle2326" cx="111.3" cy="157.2" r="5.6" fill="#9abeff" style="fill:#99bdfe;fill-opacity:1"/><circle id="circle114" cx="96" cy="141.9" r="5.6" fill="#9abeff" style="fill:#99bdfe;fill-opacity:1"/><circle id="circle2232" cx="80.7" cy="141.9" r="5.6" fill="#9abeff" style="fill:#99bdfe;fill-opacity:1"/><circle id="circle2256" cx="65.4" cy="141.9" r="5.6" fill="#9abeff" style="fill:#99bdfe;fill-opacity:1"/><circle id="circle2328" cx="111.3" cy="141.9" r="5.6" fill="#9abeff" style="fill:#99bdfe;fill-opacity:1"/><circle id="circle2352" cx="126.6" cy="141.9" r="5.6" fill="#9abeff" style="fill:#99bdfe;fill-opacity:1"/></g><g id="g5627" transform="translate(-250.54311,-6.9548187)"><path id="path5483" fill="#f8c18c" d="m 192,167 c 0,13.8 -11.2,25 -25,25 H 25 C 11.2,192 0,180.8 0,167 V 25 C 0,11.2 11.2,0 25,0 h 142 c 13.8,0 25,11.2 25,25 z"/><g id="g5505"><g id="g5503"><circle id="circle5485" cx="19.5" cy="95.9" r="5.6" fill="#ff837d"/><circle id="circle5487" cx="34.5" cy="80.9" r="5.6" fill="#ff837d"/><circle id="circle5489" cx="35.4" cy="95.9" r="5.6" fill="#ff837d"/><circle id="circle5491" cx="50.2" cy="65.2" r="5.6" fill="#ff837d"/><circle id="circle5493" cx="50.3" cy="80.9" r="5.6" fill="#ff837d"/><circle id="circle5495" cx="35.8" cy="111.3" r="5.6" fill="#ff837d"/><circle id="circle5497" cx="50.8" cy="96.3" r="5.6" fill="#ff837d"/><circle id="circle5499" cx="50.1" cy="110.7" r="5.6" fill="#ff837d"/><circle id="circle5501" cx="50.1" cy="126.5" r="5.6" fill="#ff837d"/></g></g><circle id="circle5507" cx="95.9" cy="19.5" r="5.6" fill="#98dc9a"/><circle id="circle5509" cx="80.9" cy="34.5" r="5.6" fill="#98dc9a"/><circle id="circle5511" cx="95.9" cy="35.4" r="5.6" fill="#98dc9a"/><circle id="circle5513" cx="65.2" cy="50.2" r="5.6" fill="#98dc9a"/><circle id="circle5515" cx="80.9" cy="50.3" r="5.6" fill="#98dc9a"/><circle id="circle5517" cx="111.3" cy="35.8" r="5.6" fill="#98dc9a"/><circle id="circle5519" cx="96.3" cy="50.8" r="5.6" fill="#98dc9a"/><circle id="circle5521" cx="110.7" cy="50.1" r="5.6" fill="#98dc9a"/><circle id="circle5523" cx="126.5" cy="50.1" r="5.6" fill="#98dc9a"/><g id="g5535"><circle id="circle5525" cx="65" cy="81.1" r="5.6" fill="#b1b5bd"/><circle id="circle5527" cx="80.7" cy="81.2" r="5.6" fill="#b1b5bd"/><circle id="circle5529" cx="96.1" cy="81.7" r="5.6" fill="#b1b5bd"/><circle id="circle5531" cx="110.5" cy="81" r="5.6" fill="#b1b5bd"/><circle id="circle5533" cx="126.3" cy="81" r="5.6" fill="#b1b5bd"/></g><g id="g5547"><circle id="circle5537" cx="65" cy="96.1" r="5.6" fill="#b1b5bd"/><circle id="circle5539" cx="80.7" cy="96.2" r="5.6" fill="#b1b5bd"/><circle id="circle5541" cx="96.1" cy="96.7" r="5.6" fill="#b1b5bd"/><circle id="circle5543" cx="110.5" cy="96" r="5.6" fill="#b1b5bd"/><circle id="circle5545" cx="126.3" cy="96" r="5.6" fill="#b1b5bd"/></g><g id="g5559"><circle id="circle5549" cx="65.7" cy="111.1" r="5.6" fill="#b1b5bd"/><circle id="circle5551" cx="81.4" cy="111.2" r="5.6" fill="#b1b5bd"/><circle id="circle5553" cx="96.8" cy="111.6" r="5.6" fill="#b1b5bd"/><circle id="circle5555" cx="111.1" cy="111" r="5.6" fill="#b1b5bd"/><circle id="circle5557" cx="127" cy="111" r="5.6" fill="#b1b5bd"/></g><g id="g5571"><circle id="circle5561" cx="65" cy="126.3" r="5.6" fill="#b1b5bd"/><circle id="circle5563" cx="80.7" cy="126.4" r="5.6" fill="#b1b5bd"/><circle id="circle5565" cx="96.1" cy="126.9" r="5.6" fill="#b1b5bd"/><circle id="circle5567" cx="110.5" cy="126.2" r="5.6" fill="#b1b5bd"/><circle id="circle5569" cx="126.3" cy="126.2" r="5.6" fill="#b1b5bd"/></g><circle id="circle5573" cx="65" cy="65.2" r="5.6" fill="#b1b5bd"/><circle id="circle5575" cx="80.7" cy="65.4" r="5.6" fill="#b1b5bd"/><circle id="circle5577" cx="96.1" cy="65.8" r="5.6" fill="#b1b5bd"/><circle id="circle5579" cx="110.5" cy="65.1" r="5.6" fill="#b1b5bd"/><circle id="circle5581" cx="126.3" cy="65.1" r="5.6" fill="#b1b5bd"/><g id="g5603"><g id="g5601"><circle id="circle5583" cx="96.1" cy="172.5" r="5.6" fill="#9abeff"/><circle id="circle5585" cx="111.1" cy="157.5" r="5.6" fill="#9abeff"/><circle id="circle5587" cx="96.1" cy="156.6" r="5.6" fill="#9abeff"/><circle id="circle5589" cx="126.8" cy="141.8" r="5.6" fill="#9abeff"/><circle id="circle5591" cx="111.1" cy="141.7" r="5.6" fill="#9abeff"/><circle id="circle5593" cx="80.7" cy="156.2" r="5.6" fill="#9abeff"/><circle id="circle5595" cx="95.7" cy="141.2" r="5.6" fill="#9abeff"/><circle id="circle5597" cx="81.3" cy="141.9" r="5.6" fill="#9abeff"/><circle id="circle5599" cx="65.5" cy="141.9" r="5.6" fill="#9abeff"/></g></g><g id="g5625"><g id="g5623"><circle id="circle5605" cx="172.5" cy="96.1" r="5.6" fill="#bd9aff"/><circle id="circle5607" cx="157.5" cy="111.1" r="5.6" fill="#bd9aff"/><circle id="circle5609" cx="156.6" cy="96.1" r="5.6" fill="#bd9aff"/><circle id="circle5611" cx="141.8" cy="126.8" r="5.6" fill="#bd9aff"/><circle id="circle5613" cx="141.7" cy="111.1" r="5.6" fill="#bd9aff"/><circle id="circle5615" cx="156.2" cy="80.7" r="5.6" fill="#bd9aff"/><circle id="circle5617" cx="141.2" cy="95.7" r="5.6" fill="#bd9aff"/><circle id="circle5619" cx="141.9" cy="81.3" r="5.6" fill="#bd9aff"/><circle id="circle5621" cx="141.9" cy="65.5" r="5.6" fill="#bd9aff"/></g></g></g></svg>