<svg xmlns="http://www.w3.org/2000/svg" xmlns:xlink="http://www.w3.org/1999/xlink" width="100%" height="100%" version="1.1" viewBox="0 0 192 192" xml:space="preserve" style="fill-rule:evenodd;clip-rule:evenodd;stroke-linejoin:round;stroke-miterlimit:2"><g id="Layer1"><g><path d="M164.5,21.5C164.5,15.981 160.019,11.5 154.5,11.5L21.5,11.5C15.981,11.5 11.5,15.981 11.5,21.5L11.5,154.5C11.5,160.019 15.981,164.5 21.5,164.5L154.5,164.5C160.019,164.5 164.5,160.019 164.5,154.5L164.5,21.5Z" transform="matrix(1,0,0,1,5.57576,8)" style="fill:#fff"/></g><g><g><path d="M70.969,35.204C70.969,35.204 76.116,47.544 92.088,43.037C92.088,43.037 83.4,51.601 84.517,76.426C84.517,76.426 123.333,72.217 104.466,43.901C104.466,43.901 119.162,48.53 122.418,36.4C122.418,36.4 133.381,42.493 140.133,36.4C140.133,36.4 135.685,47.703 127.82,41.587C127.82,41.587 146.701,69.569 104.466,80.829L132.027,94.427C132.027,94.427 131.168,99.516 123.472,102.743C115.777,105.97 104.466,104.605 104.466,104.605C104.466,104.605 105.921,74.146 81.196,83.678L71.465,86.756C71.465,86.756 72.756,49.342 69.678,41.587C69.678,41.587 65.507,53.038 55.379,39.901C55.379,39.901 64.018,43.743 70.969,35.204" transform="matrix(0.644396,0,0,0.644396,31.4672,34.7904) matrix(0.91133,-0.411677,0.411677,0.91133,-31.3811,46.8679)" style="fill:#f8c18c"/></g><g><path d="M142.032,86.015L47.235,86.015L47.235,146.099C47.235,151.808 49.503,157.283 53.539,161.32C57.576,165.357 63.052,167.624 68.761,167.624C84.24,167.624 105.027,167.624 120.506,167.624C126.215,167.624 131.691,165.357 135.727,161.32C139.764,157.283 142.032,151.808 142.032,146.099C142.032,121.92 142.032,86.015 142.032,86.015Z" transform="matrix(0.644396,0,0,0.644396,31.4672,34.7904) matrix(1,0,0,1,1.36653,0)" style="fill:#9abeff"/></g></g></g></svg>