<svg xmlns="http://www.w3.org/2000/svg" xmlns:svg="http://www.w3.org/2000/svg" id="Слой_1" x="0" y="0" enable-background="new 0 0 192 192" version="1.1" viewBox="0 0 192 192" xml:space="preserve"><metadata id="metadata17"/><rect id="rect866" width="153" height="153" x="19.5" y="19.5" rx="10" ry="10" style="opacity:1;fill:#99bdfe;fill-opacity:1;fill-rule:evenodd;stroke:none"/><line id="line2" x1=".2" x2=".2" y1="192.3" y2=".3" fill="#87BEFF"/><g style="stroke-width:2.01136" id="g899" transform="matrix(0.497175,0,0,0.497175,48.279732,48.198046)"><path style="stroke-width:4.04559" id="path8" fill="#fafbfc" d="m 48,112.4 c 0.9,-10.6 4.9,-19 8.2,-27.7 7.4,-19.6 16.5,-38.5 26.9,-56.7 1.4,-2.4 2.3,-6.1 6.1,-5.1 3.6,0.9 3,4.5 3.4,7.3 1.2,8.7 2.4,17.3 3.6,26 0.5,3.6 2.1,5.6 6.1,6.2 10.7,1.6 21.4,3.7 32.1,5.5 2.3,0.4 4.6,0.8 6.2,3.4 C 110,84.9 79.5,98.4 48,112.4 Z"/><path style="stroke-width:4.04559" id="path10" fill="#fafbfc" d="m 143.5,80.4 c 1.3,4.4 -0.4,8 -1.7,11.6 -8.4,24.9 -19.1,48.7 -32.1,71.5 -0.6,1 -1.2,2 -1.8,3 -1,1.8 -2.2,3.4 -4.5,3 -2.5,-0.5 -3.4,-2.5 -3.5,-4.7 -0.5,-9.3 -2.7,-18.5 -3.7,-27.7 -0.5,-4.7 -2.5,-6.6 -7.1,-7.2 -11.4,-1.7 -22.6,-3.9 -34,-5.8 -1.5,-0.3 -2.6,-0.6 -2.9,-2.1 -0.3,-1.6 1.4,-1.7 2.2,-2.1 29.7,-13.2 59.3,-26.3 89.1,-39.5 z"/></g></svg>