<svg xmlns="http://www.w3.org/2000/svg" xmlns:svg="http://www.w3.org/2000/svg" id="svg15" width="192" height="192" fill="none" version="1.1" viewBox="0 0 192 192"><metadata id="metadata19"/><rect style="fill:#8b6fbc;fill-opacity:1" id="rect2" width="152" height="152" x="20" y="20" fill="#56595b" rx="10"/><g id="g1036"><path id="path4" fill="#fff" d="m 80.839,74 v 7.23 h -7.32 V 74 h -3.96 v 18 h 3.96 v -7.26 h 7.32 V 92 h 3.93 V 74 Z m 18.323,8.88 c 1.35,-0.72 2.22,-1.98 2.22,-3.87 0,-3.18 -2.4,-5.01 -5.4296,-5.01 h -7.62 v 18 h 8.31 c 2.9996,0 5.3396,-1.74 5.3396,-4.92 0,-2.19 -1.14,-3.54 -2.82,-4.2 z m -1.7396,-3.45 c 0,1.05 -0.87,1.95 -1.95,1.95 h -3.18 v -3.87 h 3.18 c 1.08,0 1.95,0.84 1.95,1.92 z m -1.35,9.06 h -3.78 v -3.87 h 3.78 c 1.11,0 1.9496,0.9 1.9496,1.95 0,1.08 -0.8396,1.92 -1.9496,1.92 z m 17.1286,3.75 c 5.13,0 9.24,-4.14 9.24,-9.24 0,-5.1 -4.11,-9.24 -9.24,-9.24 -5.1,0 -9.239,4.14 -9.239,9.24 0,5.1 4.139,9.24 9.239,9.24 z m 0,-3.87 c -3.029,0 -5.34,-2.34 -5.34,-5.37 0,-3.03 2.311,-5.37 5.34,-5.37 3.06,0 5.37,2.34 5.37,5.37 0,3.03 -2.31,5.37 -5.37,5.37 z"/><g style="fill:#bd9afe;fill-opacity:1" id="g881" transform="matrix(0.59954776,0,0,0.59954776,-38.376915,21.623591)"><path style="font-style:normal;font-variant:normal;font-weight:700;font-stretch:normal;font-size:40px;line-height:1.25;font-family:now;-inkscape-font-specification:'now Bold';letter-spacing:0;word-spacing:0;fill:#bd9afe;fill-opacity:1" id="path865" d="m 204.73051,126.14504 -9.55,20.75 -9.45,-20.75 h -7.15 v 30 h 6.6 v -17.9 l 8.1,17.9 h 3.8 l 8.15,-17.85 v 17.85 h 6.6 v -30 z"/><path style="font-style:normal;font-variant:normal;font-weight:700;font-stretch:normal;font-size:40px;line-height:1.25;font-family:now;-inkscape-font-specification:'now Bold';letter-spacing:0;word-spacing:0;fill:#bd9afe;fill-opacity:1" id="path867" d="m 236.08044,156.14504 h 7.05 l -10.8,-30 h -7.4 l -10.8,30 h 7.05 l 1.85,-5.65 h 11.2 z m -11.3,-11.15 3.85,-11.9 3.85,11.9 z"/><path style="font-style:normal;font-variant:normal;font-weight:700;font-stretch:normal;font-size:40px;line-height:1.25;font-family:now;-inkscape-font-specification:'now Bold';letter-spacing:0;word-spacing:0;fill:#bd9afe;fill-opacity:1" id="path869" d="m 269.68041,156.14504 -10.35,-15.5 9.8,-14.5 h -7.55 l -5.8,9.1 -5.8,-9.1 h -7.55 l 9.8,14.55 -10.4,15.45 h 7.6 l 6.35,-10.05 6.35,10.05 z"/></g></g><defs id="defs13"><clipPath id="clip0"><rect id="rect10" width="192" height="192" fill="#fff"/></clipPath><path id="XMLID_2_-6" d="m 3333.2,-130.8 c -1,-45.2 -33,-69.1 -72.2,-69.1 -21.5,0 -40.9,7.2 -54.1,21.2 -13.2,-14 -32.6,-21.2 -54.1,-21.2 -39.2,0 -71.2,24 -72.2,69.2 0,0.1 0,0.2 0,0.3 v 103.1 c 0,9.5 7.7,17.1 17.1,17.1 h 16.2 c 1.6,0 2.9,-1.3 2.9,-2.9 v -117.4 0 c 0.7,-22.3 16.5,-34.1 36,-34.1 19.5,0 35.3,11.8 36,34.1 v 0 103.1 c 0,9.5 7.7,17.1 17.1,17.1 h 16.2 c 1.6,0 2.9,-1.3 2.9,-2.9 v -117.4 0 c 0.7,-22.3 16.5,-34.1 36,-34.1 19.5,0 35.3,11.8 36,34.1 v 0 103.1 c 0,9.5 7.7,17.1 17.1,17.1 h 16.2 c 1.6,0 2.9,-1.3 2.9,-2.9 v -117.4 c 0.1,0.1 0,0 0,-0.1 z m 364.7,-66.2 h -27.5 c -7.6,0 -14.7,3.8 -19,10.1 l -30.4,45 c -4,5.9 -12.6,5.9 -16.6,0 l -30.4,-45 c -4.2,-6.3 -11.4,-10.1 -19,-10.1 h -27.5 c -1.7,0 -2.7,1.9 -1.8,3.3 l 54.2,80.4 c 3.9,5.8 3.9,13.4 0,19.2 l -54.2,80.4 c -1,1.4 0.1,3.3 1.8,3.3 h 27.5 c 7.6,0 14.7,-3.8 19,-10.1 l 30.4,-45 c 4,-5.9 12.6,-5.9 16.6,0 l 30.4,45 c 4.2,6.3 11.4,10.1 19,10.1 h 27.5 c 1.7,0 2.7,-1.9 1.8,-3.3 L 3645.4,-94 c -3.9,-5.8 -3.9,-13.4 0,-19.2 l 54.2,-80.4 c 1,-1.4 0,-3.4 -1.7,-3.4 z m -184.6,0 h -16.2 c -8.2,0 -15.1,5.8 -16.8,13.5 -14.4,-11 -32.5,-16.6 -52,-16.6 -47.4,0 -85.9,33 -85.9,95.3 0,62.3 38.4,95.3 85.9,95.3 19.4,0 37.3,-5.5 51.7,-16.3 0.8,8.7 8.1,15.6 17.1,15.6 h 16.2 c 1.6,0 2.9,-1.3 2.9,-2.9 v -181 c -0.1,-1.6 -1.3,-2.9 -2.9,-2.9 z m -85,152.1 c -28.3,0 -51.3,-20.7 -51.3,-59.8 0,-39.1 23,-59.8 51.3,-59.8 28.3,0 51.3,20.7 51.3,59.8 0,39.1 -23,59.8 -51.3,59.8 z"/></defs><style id="style853" type="text/css"/><style id="style3439" type="text/css"/></svg>