<svg xmlns="http://www.w3.org/2000/svg" xmlns:xlink="http://www.w3.org/1999/xlink" viewBox="0 0 192 192"><title>Her</title><defs><linearGradient id="a" x1="8" x2="184" y1="96" y2="96" gradientUnits="userSpaceOnUse"><stop offset="0" stop-color="#ff837d"/><stop offset=".16" stop-color="#f8c18c"/><stop offset=".34" stop-color="#f9de81"/><stop offset=".5" stop-color="#98dc9a"/><stop offset=".67" stop-color="#73ada4"/><stop offset=".84" stop-color="#9abeff"/><stop offset="1" stop-color="#bd9aff"/></linearGradient></defs><rect width="176" height="127" x="8" y="32.5" fill="url(#a)" rx="10"/><path fill="#fff" d="M79.18,78.39v35.22H75.42V97.88H56v15.73H52.23V78.39H56V94.12H75.42V78.39Z"/><polygon fill="#fff" points="107.3 82.03 107.3 78.39 88.05 78.39 88.05 113.61 107.3 113.61 107.3 109.97 91.8 109.97 91.8 98.41 91.8 97.82 91.8 94.18 91.8 93.26 91.8 82.03 107.3 82.03"/><rect width="13.5" height="3.64" x="91.8" y="99.22" fill="#fff"/><rect width="13.5" height="3.64" x="91.8" y="89.13" fill="#fff"/><path fill="#fff" d="M139.77,113.61h-4.28l-10-15.91h-6.63v15.91h-3.76V78.39h12.63a9.79,9.79,0,0,1,9.8,9.86,9.37,9.37,0,0,1-8.16,9.28ZM127.5,94.12c3.58,0,6.28-2.41,6.28-6a6,6,0,0,0-6.28-6h-8.63v12Z"/></svg>