<svg xmlns="http://www.w3.org/2000/svg" xmlns:xlink="http://www.w3.org/1999/xlink" width="100%" height="100%" version="1.1" viewBox="0 0 192 192" xml:space="preserve" style="fill-rule:evenodd;clip-rule:evenodd;stroke-linejoin:round;stroke-miterlimit:2"><g id="Layer1"><g><path d="M164.5,21.5C164.5,15.981 160.019,11.5 154.5,11.5L21.5,11.5C15.981,11.5 11.5,15.981 11.5,21.5L11.5,154.5C11.5,160.019 15.981,164.5 21.5,164.5L154.5,164.5C160.019,164.5 164.5,160.019 164.5,154.5L164.5,21.5Z" transform="matrix(1,0,0,1,8,8)" style="fill:#4a4a4a"/></g><g><g transform="matrix(0.851919,0,0,0.851919,14.2158,14.2158) matrix(6.12323e-17,-1,0.954855,5.8468e-17,4.15134,171.423)"><rect width="10.166" height="60.961" x="80.76" y="65.521" style="fill:#9abeff"/></g><g transform="matrix(0.851919,0,0,0.851919,14.2158,14.2158) matrix(6.12323e-17,-1,0.954855,5.8468e-17,4.15134,191.993)"><rect width="10.166" height="60.961" x="80.76" y="65.521" style="fill:#9abeff"/></g><path d="M80.76,71.03L90.927,65.521L90.927,126.481L80.76,120.972L80.76,126.481L80.76,65.521L80.76,71.03Z" transform="matrix(0.851919,0,0,0.851919,14.2158,14.2158)" style="fill:#9abeff"/><g><path d="M80.76,71.03L90.927,65.521L90.927,126.481L80.76,120.972L80.76,126.481L80.76,65.521L80.76,71.03Z" transform="matrix(0.851919,0,0,0.851919,14.2158,14.2158) matrix(-1,0,0,1,191.977,0)" style="fill:#9abeff"/></g><path d="M96,155.162L42.792,125.581L42.792,66.419L96,36.838L149.208,66.419L149.208,101.066L138.727,101.066L138.727,72.246L96,48.492L53.273,72.246L53.273,119.754L96,143.508L96,155.162Z" transform="matrix(0.851919,0,0,0.851919,14.2158,14.2158)" style="fill:#96dfd3"/></g></g></svg>