<svg xmlns="http://www.w3.org/2000/svg" xmlns:svg="http://www.w3.org/2000/svg" id="svg14" width="192" height="192" version="1.1" viewBox="0 0 192 192"><metadata id="metadata20"/><g id="g1064" transform="matrix(0.42468163,0,0,0.42468163,187.71978,61.367229)"><path style="fill:#8e6f60;fill-opacity:1;stroke:none;stroke-width:3.5;stroke-linecap:butt;stroke-linejoin:miter;stroke-miterlimit:4;stroke-dasharray:none;stroke-opacity:1" id="path1040" d="m -334.68993,-95.507293 c 3.81331,-6.133497 42.06457,6.234099 58.84638,15.259197 41.41744,-26.572724 71.30344,-27.833314 120.80739,-0.431455 21.07844,-15.079498 42.81285,-18.440174 59.74418,-15.557054 l -0.09785,360.033215 c -114.83176,1.16609 -218.93273,-78.82285 -239.27543,-212.01948 -1.1205,-15.05125 -3.83799,-141.150924 -0.0247,-147.284423 z"/><g id="g1036"><path id="path1026" d="m -243.66102,38.290486 29.28814,29.234938 29.28813,-31.637809 c -1.78718,-15.137628 -1.39783,-30.7589972 -29.88385,-37.8442147 -16.03121,3.3347738 -30.74786,8.7187056 -28.69242,40.2470857 z" style="fill:#f9de81;fill-opacity:1;stroke:none;stroke-width:.99222469px;stroke-linecap:butt;stroke-linejoin:miter;stroke-opacity:1"/><g id="g1022"><g id="g1010"><circle id="path941" cx="-266.927" cy="-1.867" r="51.775" style="opacity:1;fill:#fff;fill-opacity:1;stroke:none;stroke-width:1.31868136;stroke-opacity:1"/><path id="path963" d="m -266.92779,-35.808513 a 33.941128,33.941128 0 0 0 -33.93946,33.9414069 33.941128,33.941128 0 0 0 33.93946,33.9414061 33.941128,33.941128 0 0 0 33.9414,-33.9414061 33.941128,33.941128 0 0 0 -0.97851,-7.9296875 18.8402,18.8402 0 0 1 -15.56055,8.2167969 18.8402,18.8402 0 0 1 -18.83984,-18.8398443 18.8402,18.8402 0 0 1 7.25781,-14.851562 33.941128,33.941128 0 0 0 -5.82031,-0.53711 z" style="opacity:1;fill:#3b312f;fill-opacity:1;stroke:none;stroke-width:1.21025646;stroke-opacity:1"/></g><g id="g1014"><circle id="path941-5" cx="163.378" cy="-1.867" r="51.775" transform="scale(-1,1)" style="opacity:1;fill:#fff;fill-opacity:1;stroke:none;stroke-width:1.31868136;stroke-opacity:1"/><path id="path963-3" d="m -163.37665,-35.808513 a 33.941128,33.941128 0 0 1 33.93946,33.9414069 33.941128,33.941128 0 0 1 -33.93946,33.9414061 33.941128,33.941128 0 0 1 -33.9414,-33.9414061 33.941128,33.941128 0 0 1 0.97851,-7.9296875 18.8402,18.8402 0 0 0 15.56055,8.2167969 18.8402,18.8402 0 0 0 18.83984,-18.8398443 18.8402,18.8402 0 0 0 -7.25781,-14.851562 33.941128,33.941128 0 0 1 5.82031,-0.53711 z" style="opacity:1;fill:#3b312f;fill-opacity:1;stroke:none;stroke-width:1.21025646;stroke-opacity:1"/></g></g></g></g></svg>