<svg xmlns="http://www.w3.org/2000/svg" xmlns:xlink="http://www.w3.org/1999/xlink" width="100%" height="100%" version="1.1" viewBox="0 0 192 192" xml:space="preserve" style="fill-rule:evenodd;clip-rule:evenodd;stroke-linejoin:round;stroke-miterlimit:2"><g id="Layer1"><g><path d="M164.5,21.5C164.5,15.981 160.019,11.5 154.5,11.5L21.5,11.5C15.981,11.5 11.5,15.981 11.5,21.5L11.5,154.5C11.5,160.019 15.981,164.5 21.5,164.5L154.5,164.5C160.019,164.5 164.5,160.019 164.5,154.5L164.5,21.5Z" transform="matrix(1,0,0,1,8,8)" style="fill:#f9de81"/></g><g><g><g><path d="M74.426,116.037C74.426,115.124 74.331,114.248 74.163,113.603C73.995,112.957 73.767,112.595 73.529,112.595C71.625,112.595 67.197,112.595 65.293,112.595C65.055,112.595 64.827,112.957 64.659,113.603C64.491,114.248 64.397,115.124 64.397,116.037C64.397,121.528 64.397,132.209 64.397,137.7C64.397,138.613 64.491,139.489 64.659,140.134C64.827,140.78 65.055,141.142 65.293,141.142C67.197,141.142 71.625,141.142 73.529,141.142C73.767,141.142 73.995,140.78 74.163,140.134C74.331,139.489 74.426,138.613 74.426,137.7C74.426,132.209 74.426,121.528 74.426,116.037Z" transform="matrix(3.83887,0,0,1,-193.101,0)" style="fill:#fff"/></g><g><path d="M74.426,114.311C74.426,113.363 74.024,112.595 73.529,112.595L65.293,112.595C64.798,112.595 64.397,113.363 64.397,114.311L64.397,139.426C64.397,140.374 64.798,141.142 65.293,141.142L73.529,141.142C74.024,141.142 74.426,140.374 74.426,139.426L74.426,114.311Z" transform="matrix(3.83887,0,0,2.00543,-193.101,-175.112)" style="fill:#fff"/></g></g><g><g><path d="M74.426,116.037C74.426,115.124 74.331,114.248 74.163,113.603C73.995,112.957 73.767,112.595 73.529,112.595C71.625,112.595 67.197,112.595 65.293,112.595C65.055,112.595 64.827,112.957 64.659,113.603C64.491,114.248 64.397,115.124 64.397,116.037C64.397,121.528 64.397,132.209 64.397,137.7C64.397,138.613 64.491,139.489 64.659,140.134C64.827,140.78 65.055,141.142 65.293,141.142C67.197,141.142 71.625,141.142 73.529,141.142C73.767,141.142 73.995,140.78 74.163,140.134C74.331,139.489 74.426,138.613 74.426,137.7C74.426,132.209 74.426,121.528 74.426,116.037Z" transform="matrix(1,0,0,-1,45.2818,191.832) matrix(3.83887,0,0,1,-193.101,0)" style="fill:#fff"/></g><g><path d="M74.426,114.311C74.426,113.363 74.024,112.595 73.529,112.595L65.293,112.595C64.798,112.595 64.397,113.363 64.397,114.311L64.397,139.426C64.397,140.374 64.798,141.142 65.293,141.142L73.529,141.142C74.024,141.142 74.426,140.374 74.426,139.426L74.426,114.311Z" transform="matrix(1,0,0,-1,45.2818,191.832) matrix(3.83887,0,0,2.00543,-193.101,-175.112)" style="fill:#fff"/></g></g></g></g></svg>