<svg xmlns="http://www.w3.org/2000/svg" xmlns:svg="http://www.w3.org/2000/svg" id="svg2" width="192" height="192" version="1.1" viewBox="0 0 192 192"><metadata id="metadata7"/><g id="layer1" transform="translate(0,-860.36216)"><g id="g1030" transform="translate(-643.04807,-1.7990964e-5)"><path style="fill:#99bdfe;fill-opacity:1;fill-rule:evenodd;stroke:none;stroke-width:.603777;stroke-opacity:1" id="path1024" d="m 800.1868,885.09011 c -0.20946,0.0125 -0.42118,0.0411 -0.63599,0.087 l -65.58627,14.01995 c -2.17607,0.46519 -3.90276,4.11877 -3.90286,8.1981 l -0.002,97.93574 c -1.1e-4,4.0796 1.72515,7.7328 3.90128,8.198 l 65.58943,14.0184 c 3.43719,0.7346 6.25536,-2.8905 6.25536,-8.1427 V 893.31983 c 0,-4.9235 -2.47766,-8.41761 -5.61937,-8.22972 z"/><path style="fill:#8c72bd;fill-opacity:1;fill-rule:evenodd;stroke:none;stroke-width:.670863;stroke-opacity:1" id="path1016" d="m 779.56224,877.17097 c -0.23273,0.0139 -0.46797,0.0457 -0.70665,0.0967 l -72.87363,15.57773 c -2.41786,0.51687 -4.3364,4.57641 -4.33652,9.10899 l -0.002,108.81741 c -1.2e-4,4.5329 1.91684,8.5921 4.33476,9.1089 l 72.87715,15.576 c 3.8191,0.8163 6.9504,-3.2116 6.9504,-9.0474 V 886.31511 c 0,-5.47056 -2.75296,-9.3529 -6.24375,-9.14414 z"/><rect id="rect987" width="22.517" height="88.373" x="701.955" y="913.45" style="fill:#fff;fill-opacity:1;stroke-width:.0774315;stroke-linecap:round;stroke-linejoin:round;stroke-opacity:.04;stop-color:#000"/><path style="fill:#bd9aff;fill-opacity:1;fill-rule:evenodd;stroke:none;stroke-width:.745403;stroke-opacity:1" id="path989" d="m 677.11136,885.78805 c -2.6865,0.5743 -4.81783,5.08429 -4.81796,10.12048 l -0.003,120.90927 c -1.3e-4,5.0365 2.13104,9.5467 4.81762,10.1209 l 80.97392,17.3068 c 4.24344,0.9069 7.72381,-3.5693 7.72381,-10.0535 l 0,-155.66086 c 0,-6.48362 -3.4802,-10.95931 -7.72343,-10.05223 z m 36.09335,33.21913 c 0.51371,-0.0524 1.12748,0.12143 1.84354,0.52106 0.59886,0.34549 1.09903,0.83737 1.50044,1.47559 0.48284,0.76767 0.82642,1.58353 1.02834,2.44812 0.28306,1.13045 0.42402,2.17131 0.424,3.12334 -10e-6,0.95203 -0.14099,1.98432 -0.42409,3.09233 -0.24229,0.96777 -0.58583,1.83875 -1.02841,2.61357 -0.48161,0.84315 -0.98157,1.44821 -1.50049,1.8174 -0.59693,0.44019 -1.21109,0.67794 -1.84356,0.71516 -0.6303,0.0371 -1.23936,-0.1273 -1.82634,-0.49313 -0.46821,-0.30519 -0.93531,-0.84211 -1.40111,-1.61115 -0.42595,-0.70322 -0.75403,-1.5105 -0.98551,-2.42332 -0.2312,-0.91167 -0.3464,-1.89904 -0.34638,-2.95963 10e-6,-1.06059 0.11524,-2.09692 0.34648,-3.11207 0.19289,-0.88014 0.52093,-1.74004 0.98558,-2.58184 0.42697,-0.77356 0.89397,-1.35283 1.40116,-1.73708 0.70462,-0.53893 1.31408,-0.83609 1.82635,-0.88835 z m -7.99138,23.36843 11.63687,-0.45454 -5.7e-4,42.09891 1.82002,0.64728 c 0.20335,0.0837 0.36622,0.16479 0.48844,0.24235 0.16309,0.0808 0.30639,0.12517 0.4289,0.13459 l 0.36772,0.13217 c 1.02606,0.49053 1.54207,1.59386 1.54205,3.30998 l -8e-5,6.07518 -16.28421,-1.66039 10e-5,-5.81106 c 3e-5,-1.64151 0.47344,-2.62113 1.42241,-2.94232 l 0.34259,-0.0738 0.85936,-0.2313 1.73337,-0.36677 5e-4,-31.40118 -1.73335,-0.4758 c -0.19146,-0.0637 -0.36322,-0.12785 -0.51609,-0.19181 -0.11457,-0.0645 -0.22881,-0.0951 -0.34325,-0.0935 l -0.34258,-0.0934 c -0.94895,-0.3809 -1.42232,-1.39221 -1.4223,-3.03369 z"/></g></g><style id="style853" type="text/css"/></svg>