<svg xmlns="http://www.w3.org/2000/svg" xmlns:svg="http://www.w3.org/2000/svg" id="Layer_1" x="0" y="0" version="1.1" viewBox="0 0 192 192" xml:space="preserve" style="enable-background:new 0 0 192 192"><metadata id="metadata17"/><style id="style2" type="text/css">.st1{fill:#64ffff}</style><circle style="fill:#fff;stroke:#fefefe;stroke-width:12.2373;stroke-linecap:round;stroke-linejoin:round;stop-color:#000" id="path845" cx="96" cy="96" r="81.881"/><g id="g8" transform="matrix(1.00128,0,0,0.99829836,-0.135396,0.01361269)" style="fill:#56595b;fill-opacity:1"><path id="path6" d="M 183.6,91.7 C 182.43917,59.13253 161.41068,28.407822 131.50879,15.49082 99.862762,1.0385887 59.812866,7.9041157 35.2,32.6 11.785258,54.430218 2.4990797,89.618185 11.4,120.3 c 8.533581,31.78415 36.515792,57.21687 69,62.6 17.582735,3.19746 36.16701,0.86999 52.4,-6.6 -7.28764,-14.48212 -14.02742,-29.26197 -21.34048,-43.7116 -6.17975,-8.5503 -17.987048,-8.07356 -26.923778,-11.83977 C 73.883676,118.01394 63.135566,112.08195 59.175659,101.17345 53.487813,88.718292 59.701053,73.729154 71.128516,67.018979 85.240779,57.102558 106.1676,54.321456 120.58281,65.03125 c 11.74618,9.334505 13.57412,26.288681 8.82562,39.74604 -3.23495,12.89485 1.63392,25.89773 8.27922,36.82776 4.25141,7.96357 7.72794,16.96595 12.01235,24.49495 22.51593,-17.31803 36.05496,-45.94395 33.9,-74.4 z" style="fill:#56595b;fill-opacity:1"/></g><path id="path10" d="M-93.8,239c-0.5,0.3-1.1,0.7-1.7,1C-94.9,239.7-94.4,239.3-93.8,239z" class="st1"/></svg>