<svg xmlns="http://www.w3.org/2000/svg" xmlns:svg="http://www.w3.org/2000/svg" id="svg2" width="192" height="192" version="1.1" viewBox="0 0 192 192"><metadata id="metadata8"/><g id="g4215"><rect id="rect3338" width="152" height="152" x="20" y="20" rx="12" ry="12" style="opacity:1;fill:#98dc9a;fill-rule:evenodd;stroke:none;stroke-width:1px;stroke-linecap:butt;stroke-linejoin:miter;stroke-opacity:1"/><path id="path4138" d="M 89.472656 20 C 84.962037 43.798256 74.449249 70.414935 66.746094 92.541016 C 77.759702 92.835329 76.431922 93.38903 84.626953 100.37891 C 89.798266 75.556378 99.651842 45.072887 106.60938 20 L 89.472656 20 z M 134.09961 20 L 125.5332 40.615234 C 137.37679 40.89976 135.86432 40.981431 144.64062 48.208984 C 146.64171 40.608527 150.77412 28.722784 153.66602 20 L 134.09961 20 z M 129.97461 44.208984 C 128.23712 44.20951 126.0612 44.289062 123.08398 44.289062 C 117.09477 72.048924 105.86613 96.063215 94.669922 121.93555 C 106.76992 123.10609 104.93275 122.40151 113.04102 130.50977 C 121.40185 103.17293 132.66176 76.992406 143.66016 50.658203 C 136.46313 44.92141 135.18708 44.207405 129.97461 44.208984 z M 63.806641 96.214844 C 59.703589 121.481 50.849587 147.90132 39.519531 172 L 57.847656 172 C 64.564292 150.93746 74.552659 123.86289 84.138672 105.2793 C 74.761917 97.274751 76.232958 96.142844 63.806641 96.214844 z M 90.996094 125.36523 C 87.953691 139.49066 79.750217 157.85244 73.345703 172 L 93.146484 172 C 97.380532 160.05812 105.13715 142.84039 112.79688 134.42773 C 102.92907 126.67447 103.86985 125.72985 90.996094 125.36523 z" style="fill:#fff;fill-rule:evenodd;stroke:none;stroke-width:1px;stroke-linecap:butt;stroke-linejoin:miter;stroke-opacity:1"/></g></svg>