<svg xmlns="http://www.w3.org/2000/svg" xmlns:svg="http://www.w3.org/2000/svg" id="svg2" width="192" height="192" version="1.1" viewBox="0 0 192 192"><metadata id="metadata7"/><g id="layer1" transform="translate(0,-860.36216)"><rect id="rect995" width="153" height="153" x="19.5" y="879.862" rx="10" style="fill:#fff;fill-opacity:1;fill-rule:evenodd;stroke:none;stroke-opacity:1"/><g id="g839" transform="matrix(1.0958904,0,0,1.0958904,-9.2054784,-91.705958)"><path style="opacity:1;fill:#97db99;fill-opacity:1;stroke-width:7.54478;stroke-linecap:round;stroke-linejoin:round;stop-color:#000" id="path979" d="m 75.80465,950.15519 16.30465,16.30465 -8.622804,8.6228 a 10.863775,10.863775 0 0 1 -15.363698,10e-6 L 59.5,966.45985 Z"/><path style="opacity:1;fill:#99bdfe;fill-opacity:1;stroke-width:7.54478;stroke-linecap:round;stroke-linejoin:round;stop-color:#000" id="path981" d="m 96.000005,962.56914 16.304655,-16.30465 -8.62281,-8.6228 a 10.863775,10.863775 0 0 0 -15.363702,0 l -8.622798,8.6228 z"/><path style="opacity:1;fill:#ababff;fill-opacity:1;stroke-width:7.54478;stroke-linecap:round;stroke-linejoin:round;stop-color:#000" id="path983" d="m 116.19536,950.15519 -16.304655,16.30465 8.622795,8.6228 a 10.863775,10.863775 0 0 0 15.3637,10e-6 l 8.6228,-8.6228 z"/></g></g><style id="style853" type="text/css"/></svg>