<svg xmlns="http://www.w3.org/2000/svg" xmlns:xlink="http://www.w3.org/1999/xlink" width="100%" height="100%" version="1.1" viewBox="0 0 192 192" xml:space="preserve" style="fill-rule:evenodd;clip-rule:evenodd;stroke-linejoin:round;stroke-miterlimit:2"><g id="Layer1"><g><path d="M164.5,21.5C164.5,15.981 160.019,11.5 154.5,11.5L21.5,11.5C15.981,11.5 11.5,15.981 11.5,21.5L11.5,154.5C11.5,160.019 15.981,164.5 21.5,164.5L154.5,164.5C160.019,164.5 164.5,160.019 164.5,154.5L164.5,21.5Z" transform="matrix(1,0,0,1,8,8)" style="fill:#fff"/></g><g><g><g transform="matrix(0.857752,0,0,0.857752,4.74886,11.9445) matrix(0.811304,0,0,0.811304,31.3676,18.8748) matrix(0.888083,0,0,1,11.433,-7.10543e-15)"><rect width="128.155" height="52.596" x="38.078" y="71.224" style="fill:#ff837d"/></g><g><text x="53.283" y="123.821" transform="matrix(0.857752,0,0,0.857752,4.74886,11.9445) matrix(0.811304,0,0,0.811304,31.3676,18.8748) matrix(0.832753,0,0,0.832753,10.0858,12.2523)" style="font-family:'Now-Bold','Now';font-weight:700;font-size:72.055px;fill:#fff">Car</text></g></g><g><text x="16.512" y="123.821" transform="matrix(0.857752,0,0,0.857752,4.74886,11.9445) matrix(0.643244,0,0,0.643244,38.9921,33.2282)" style="font-family:'Now-Bold','Now';font-weight:700;font-size:72.055px;fill:#4a4a4a">i</text></g></g></g></svg>