<svg xmlns="http://www.w3.org/2000/svg" xmlns:svg="http://www.w3.org/2000/svg" xmlns:xlink="http://www.w3.org/1999/xlink" id="svg2" width="192" height="192" version="1.1" viewBox="0 0 192 192"><defs id="defs4"><linearGradient id="linearGradient2790" x1="229.938" x2="299.768" y1="564.595" y2="862.763" gradientUnits="userSpaceOnUse"><stop id="stop2786" offset="0%" style="stop-color:#708cbd;stop-opacity:1"/><stop id="stop2788" offset="100%" style="stop-color:#54688c;stop-opacity:1"/></linearGradient><linearGradient id="linearGradient2784" x1="986.657" x2="796.136" y1="1202.575" y2="1143.976" gradientUnits="userSpaceOnUse"><stop id="stop2780" offset="0%" style="stop-color:#708cbd;stop-opacity:1"/><stop id="stop2782" offset="100%" style="stop-color:#54688c;stop-opacity:1"/></linearGradient><linearGradient id="linearGradient2778" x1="553.935" x2="487.939" y1="1186.036" y2="1542.49" gradientUnits="userSpaceOnUse"><stop id="stop2774" offset="0%" style="stop-color:#708cbd;stop-opacity:1"/><stop id="stop2776" offset="100%" style="stop-color:#54688c;stop-opacity:1"/></linearGradient><linearGradient id="linearGradient2772" x1="246.877" x2="478.993" y1="738.358" y2="1203.411" gradientUnits="userSpaceOnUse"><stop id="stop2768" offset="0%" style="stop-color:#708cbd;stop-opacity:1"/><stop id="stop2770" offset="100%" style="stop-color:#54688c;stop-opacity:1"/></linearGradient><linearGradient id="linearGradient2766" x1="365.566" x2="387.579" y1="619.419" y2="685.033" gradientUnits="userSpaceOnUse"><stop id="stop2762" offset="0%" style="stop-color:#708cbd;stop-opacity:1"/><stop id="stop2764" offset="100%" style="stop-color:#54688c;stop-opacity:1"/></linearGradient><radialGradient id="radialGradient2760" cx="503.497" cy="1205.256" r="435.755" gradientUnits="userSpaceOnUse"><stop id="stop2756" offset="0%" style="stop-color:#708cbd;stop-opacity:1"/><stop id="stop2758" offset="100%" style="stop-color:#96dfd3;stop-opacity:1"/></radialGradient><radialGradient id="radialGradient1118" cx="503.497" cy="1205.256" r="435.755" gradientTransform="matrix(0.20431741,0,0,0.20431741,-8.1474635,746.89038)" gradientUnits="userSpaceOnUse" xlink:href="#radialGradient2760"/><linearGradient id="linearGradient1387" x1="365.566" x2="387.579" y1="619.419" y2="685.033" gradientTransform="matrix(0.20431741,0,0,0.20431741,-8.1474635,746.89038)" gradientUnits="userSpaceOnUse" xlink:href="#linearGradient2766"/><linearGradient id="linearGradient1389" x1="986.657" x2="796.136" y1="1202.575" y2="1143.976" gradientTransform="matrix(0.20431741,0,0,0.20431741,-12.661583,746.89038)" gradientUnits="userSpaceOnUse" xlink:href="#linearGradient2784"/><linearGradient id="linearGradient1391" x1="229.938" x2="299.768" y1="564.595" y2="862.763" gradientTransform="matrix(0.20431741,0,0,0.20431741,-8.1474635,746.89038)" gradientUnits="userSpaceOnUse" xlink:href="#linearGradient2790"/><linearGradient id="linearGradient1393" x1="246.877" x2="478.993" y1="738.358" y2="1203.411" gradientTransform="matrix(0.20431741,0,0,0.20431741,-8.1474635,746.89038)" gradientUnits="userSpaceOnUse" xlink:href="#linearGradient2772"/><linearGradient id="linearGradient1395" x1="550.635" x2="484.674" y1="1206.203" y2="1557.929" gradientTransform="matrix(0.20431741,0,0,0.20431741,-12.661583,746.89038)" gradientUnits="userSpaceOnUse" xlink:href="#linearGradient2778"/></defs><metadata id="metadata7"/><g id="layer1" transform="translate(0,-860.36216)"><path style="fill:url(#radialGradient1118);fill-opacity:1;stroke-width:.999999;stroke-linejoin:miter" id="path934" d="m 167.8418,985.6875 q -6.81223,13.66781 -22.7033,25.4629 -14.82349,10.2354 -33.9377,12.1131 -39.281516,2.3777 -64.406212,-30.62552 -10.173564,-13.90392 -12.220098,-35.77903 -0.504564,-20.99387 7.068295,-35.18345 11.257759,-20.40895 26.020641,-28.99495 15.935184,-9.76576 34.597604,-10.73185 40.4025,-0.31137 63.00262,33.18022 20.15803,33.92109 2.57815,70.55858"/><path style="fill:url(#linearGradient1395);fill-opacity:1;stroke-width:.999999;stroke-linejoin:miter" id="path940" d="m 166.72073,915.63888 c 6.10072,19.58677 9.04574,29.41917 -0.38662,51.58079 -15.7991,37.12053 -45.59744,34.14083 -60.03234,32.32788 -9.175229,-1.00384 -15.745555,3.21865 -8.948366,-2.53605 7.491476,-6.45481 11.745386,-10.3332 13.042936,-11.3382 2.88638,-2.23556 6.12119,-4.31208 9.88185,-5.93552 8.61803,-3.72028 21.62081,-6.68619 38.9405,-9.05654 l -4.18671,-1.74681 c -12.4447,-5.39285 -19.47877,-7.95543 -21.04779,-8.21318 -3.7212,-0.61128 -6.11285,-1.17588 -7.27167,-1.17588 -0.10901,0 -0.20764,0.0131 -0.29447,0.01 -0.57563,-0.021 -1.1584,-0.0461 -1.75081,-0.0461 -1.26814,0 -2.57511,0.0715 -3.9223,0.21435 -1.97657,0.20959 -4.04043,0.61342 -6.18993,1.21395 l -3.28928,1.06555 c -2.23619,0.81736 -4.56637,1.73844 -6.94314,2.86861 -37.676156,19.99517 -59.331103,15.58303 -92.438359,3.63583 2.358728,8.8029 4.408683,24.93913 25.633753,45.48044 21.22507,20.5414 48.923908,24.9826 48.923908,24.9826 46.729298,8.2199 81.292528,-17.1433 94.311358,-57.75865 6.83942,-21.33715 1.33965,-45.9004 -2.52204,-63.19943 l -0.28846,19.18879 -11.22001,-21.56661 z"/><path style="fill:url(#linearGradient1389);fill-opacity:1;stroke-width:.999999;stroke-linejoin:miter" id="path956" d="m 145.23031,1028.9624 5.35677,-23.726 q 18.34514,-26.32462 22.10982,-39.88521 2.97277,-9.074 3.85456,-18.14659 0.48993,-4.58769 0.68228,-8.9397 0.30091,-6.63175 0.25497,-19.25732 0.0621,-1.61629 0.33489,-1.64446 0.69356,0.83732 1.26129,3.19197 1.76866,7.37107 2.17568,10.36682 1.58508,8.99011 2.25903,20.22093 0.29614,5.50927 0.11957,10.94169 l -0.33561,5.30706 q -0.49891,5.19881 -1.56723,9.89959 -2.20328,9.39809 -5.88423,16.8455 -3.68094,7.44732 -7.77301,12.99922 -10.50223,14.5164 -22.84878,21.8265"/><path style="fill:url(#linearGradient1393);fill-opacity:1;stroke-width:.999999;stroke-linejoin:miter" id="path946" d="m 31.871346,987.94398 v 1.8e-4 2.1e-4 2e-4 2.1e-4 1.8e-4 2e-4 2.1e-4 2e-4 1.9e-4 2e-4 0 0 0 1.8e-4 0 c -4.080848,-1.87878 0,-0.003 0,-0.003 v 1.8e-4 -1.8e-4 1.8e-4 -1.8e-4 1.8e-4 -1.8e-4 1.8e-4 -1.8e-4 1.8e-4 -1.8e-4 1.8e-4 -1.8e-4 1.8e-4 -1.8e-4 1.8e-4 z M 75.25561,872.87039 v 2e-4 2.1e-4 1.9e-4 2e-4 2e-4 2.1e-4 1.9e-4 2e-4 2e-4 2e-4 2e-4 2e-4 2e-4 2e-4 2e-4 c -3.436096,-0.26381 -8.34449,2.06574 -8.34449,2.06574 -9.350509,4.43782 -25.396622,12.24753 -25.396622,12.24753 -7.326889,4.99976 -17.653249,15.63806 -33.5145012,31.99066 l 16.5502722,-11.25053 4.09e-4,2e-4 c -7.706919,10.02809 -13.196475,24.8121 -14.007307,41.68465 -0.371981,7.74051 0.581573,22.28521 5.292762,32.99641 4.472478,10.16846 5.84714,14.79642 17.103476,26.70445 12.18888,8.8568 31.445545,10.117 37.890872,9.9262 19.709275,-0.5835 30.255249,-7.7407 35.273359,-11.0239 8.84463,-5.7867 16.98615,-14.16537 22.26055,-29.05392 l 0.99316,-2.61303 v 0 c -6.5394,1.62602 -11.75414,3.92898 -15.71301,6.49897 -2.64546,1.71735 -4.77803,3.00457 -6.16528,4.18109 -7.39549,6.27201 -11.510451,9.78562 -12.444388,10.43553 -3.254094,2.26449 -6.027928,3.89796 -8.317954,4.93946 -5.991255,2.7249 -12.558721,4.1343 -19.745402,4.1343 -1.227539,0 -2.476106,0 -3.735568,-0.1206 -4.898263,-0.4758 -8.701672,-1.6184 -11.648634,-2.7746 -1.622376,-0.6365 -4.774381,-2.127 -9.006953,-5.37782 -3.884544,-2.98348 -6.860272,-6.00315 -9.20659,-8.70658 l -1.502151,-1.81334 4.08e-4,2.1e-4 c 3.0877,1.41907 15.834058,7.45683 46.799224,-0.8274 18.642264,-4.98741 29.479998,-14.75685 39.611528,-24.45059 6.8047,-6.51067 12.52529,-17.51905 16.59629,-33.63381 l -0.001,2e-4 c -12.58937,10.24797 -24.23869,16.34217 -34.87078,18.64857 -6.807517,1.47675 -12.995331,2.39754 -18.646004,2.39754 -7.101528,0 -13.311208,-1.26227 -18.629043,-3.78676 -5.935811,-12.2827 -7.226361,-23.16003 -3.493274,-32.4834 1.701002,-4.24826 4.284918,-8.20913 7.376633,-12.03933 l 20.709784,-29.16103 -12.069323,0.26193 v 2e-4 -2e-4 2e-4 -2e-4 2e-4 -2e-4 2e-4 -2e-4 2e-4 -2e-4 2e-4 -2e-4 2e-4 -2e-4 2e-4 z"/><path style="fill:url(#linearGradient1387);fill-opacity:1;stroke-width:.999999;stroke-linejoin:miter" id="path960" d="m 53.950676,881.55859 1.013016,0.007 q 6.753695,-0.0765 9.582956,1.19851 1.036733,0.35766 2.401118,1.9508 0.922344,1.17551 1.910486,3.77487 4.937731,-6.44351 8.046964,-9.01843 2.994966,-2.69033 10.265683,-6.77733 -4.698091,-0.50842 -7.16153,-0.48352 -2.470377,-0.0185 -5.120917,0.40269 -2.66157,0.43297 -5.54996,1.47965 -4.258702,1.36715 -15.387816,7.46582"/><path style="fill:url(#linearGradient1391);fill-opacity:1;stroke-width:.999999;stroke-linejoin:miter" id="path950" d="m 69.029062,898.5932 -2.011262,0.59217 q -11.121751,3.16841 -17.311972,6.49704 -4.346301,2.48978 -5.081966,3.18268 -3.226021,2.37902 -5.911479,5.31898 -2.685462,2.93992 -4.722006,6.2829 -2.37918,4.2311 -2.63054,5.1548 -2.666644,6.14999 -3.635585,16.65886 l -0.476517,5.74575 q 7.652424,-5.7083 13.767146,-5.74697 7.264166,-0.24735 21.696041,4.00753 -3.846946,-8.66759 -4.944486,-13.53972 -0.953228,-4.88004 -0.827931,-5.87332 -0.07598,-1.9687 0.182207,-3.95565 0.268323,-1.98752 0.870813,-3.99331 0.137955,-0.99396 2.407476,-6.05012 2.41381,-5.06405 8.630061,-14.28162"/></g><style id="style853" type="text/css"/><style id="style853-9" type="text/css"/><style id="style853-3" type="text/css"/></svg>