<svg xmlns="http://www.w3.org/2000/svg" xmlns:svg="http://www.w3.org/2000/svg" id="svg2" width="192" height="192" version="1.1" viewBox="0 0 192 192"><metadata id="metadata7"/><g id="layer1" transform="translate(0,-860.36216)"><g id="g1509"><circle id="ellipse1179" cx="96" cy="956.362" r="88" style="fill:#738dbe;fill-opacity:1;stroke:none;stroke-width:10;stroke-linejoin:round;stroke-miterlimit:4;stroke-dasharray:40.0001,10;stroke-dashoffset:0;stroke-opacity:1;paint-order:markers fill stroke"/><path style="fill:#98db9a;fill-opacity:1;stroke:none;stroke-width:10;stroke-linejoin:round;stroke-miterlimit:4;stroke-dasharray:40.0001,10;stroke-dashoffset:0;stroke-opacity:1;paint-order:markers fill stroke" id="ellipse1314" d="m 95.81564,868.3622 a 88.001236,88.000378 0 0 0 -66.347388,30.40052 88.001236,88.000378 0 0 0 66.530987,30.40052 88.001236,88.000378 0 0 0 66.530981,-30.40052 88.001236,88.000378 0 0 0 -66.530981,-30.40052 88.001236,88.000378 0 0 0 -0.183599,0 z M 8.7042708,967.42093 c 0.1855889,1.47142 0.4080429,2.93618 0.6666852,4.3944 2.200383,12.47572 7.134923,24.43129 14.394373,34.82107 l 8.197142,-5.7263 c -6.4137,-9.17934 -10.798917,-19.80409 -12.743954,-30.83641 l -2.24e-4,-0.002 -2.24e-4,-0.002 c -0.229854,-1.2959 -0.427024,-2.59799 -0.591451,-3.90168 z m -0.7015307,-10.55826 9.9995849,-0.0802 c -0.09193,-11.53458 2.456873,-23.11396 7.37823,-33.54821 l -2.25e-4,-0.002 0.0018,-0.002 c 0.417237,-0.88649 0.848138,-1.76229 1.295823,-2.62664 l -8.880197,-4.59817 c -0.508207,0.98118 -0.994305,1.96979 -1.462208,2.96382 l -0.0015,0.004 c -5.56759,11.80586 -8.4353569,24.83467 -8.3313068,37.88944 z m 22.3287169,58.07853 c 9.42099,10.5592 21.380079,18.7808 34.628013,23.7748 l 3.52825,-9.3569 c -11.712103,-4.415 -22.359427,-11.7326 -30.695108,-21.0755 z m -7.1145,-108.03029 8.273602,5.61593 c 7.033588,-10.35941 16.619403,-19.01792 27.651067,-24.92223 l -4.719139,-8.81573 c -12.487713,6.6836 -23.257697,16.41607 -31.20553,28.12203 z m 51.857237,134.94119 c 13.763138,3.3862 28.275966,3.3235 42.006236,-0.05 l -2.38684,-9.7118 c -12.16867,2.99 -25.083599,3.0404 -37.229726,0.052 z m 48.599856,-12.5516 3.51303,9.3626 c 0.42404,-0.159 0.83134,-0.3178 1.22241,-0.472 12.77457,-5.0376 24.27326,-13.1215 33.37121,-23.3856 l -7.48414,-6.6328 c -8.0493,9.0812 -18.27545,16.2667 -29.55466,20.7145 -0.37015,0.146 -0.72578,0.285 -1.06785,0.4133 z m 9.03759,-141.75627 c 11.04636,5.89423 20.66894,14.51351 27.72461,24.85213 l 8.26027,-5.63712 C 160.71619,895.06572 149.904,885.38482 137.41868,878.72278 Z m 27.39846,113.23507 8.21121,5.7074 c 0.28577,-0.4112 0.56628,-0.8218 0.84001,-1.2308 l -0.004,5e-4 c 7.60269,-11.34262 12.5128,-24.44348 14.1787,-38.01237 l -9.92604,-1.21943 c -1.47071,11.97901 -5.83243,23.63048 -12.55811,33.66465 l -0.002,2.2e-4 v 0 c -0.24599,0.36753 -0.4929,0.72973 -0.74039,1.08593 z m 5.15124,-80.31819 c 5.30583,10.19848 8.27456,21.64001 8.68675,33.15145 l 2.2e-4,0.002 c 0.0367,1.01298 0.0542,2.02576 0.0514,3.03486 l 9.99998,0.0278 c 0.003,-1.14313 -0.0166,-2.28546 -0.0579,-3.42329 -0.46495,-12.98586 -3.79722,-25.85139 -9.80958,-37.40792 z"/><g style="stroke-width:1.06036" id="g1199" transform="matrix(0.9430785,0,0,0.94307204,-202.17058,169.5536)"><rect id="rect1185" width="12.252" height="34.993" x="331.284" y="827.127" rx="7.827" ry="6.917" style="fill:#fff;stroke-width:43.0685;stroke-dashoffset:7.55603"/><rect id="rect1187" width="37.829" height="23.897" x="305.706" y="842.183" rx="11.28" ry="10.713" style="fill:#fff;stroke-width:45.111;stroke-dashoffset:7.55603"/><rect id="rect1189" width="12.252" height="41.725" x="313.388" y="820.395" rx="7.827" ry="6.917" style="fill:#fff;stroke-width:47.0293;stroke-dashoffset:7.55603"/><rect id="rect1191" width="12.252" height="64.238" x="304.441" y="797.882" rx="7.827" ry="6.917" style="fill:#fff;stroke-width:58.3531;stroke-dashoffset:7.55603"/><rect id="rect1193" width="12.252" height="38.143" x="322.336" y="823.977" rx="7.827" ry="6.917" style="fill:#fff;stroke-width:44.9649;stroke-dashoffset:7.55603"/><path style="fill:#fff;stroke-width:42.6925;stroke-dashoffset:7.55603" id="path1195" d="m 290.93291,833.67269 c 2.5677,-1.85416 6.36777,-0.96871 8.52034,1.98534 0,0 5.34474,6.15325 7.8548,9.36142 2.42883,3.10435 6.96384,9.55672 6.96384,9.55672 2.15257,2.95404 0.92742,7.02023 -1.64028,8.87439 -2.56769,1.85416 -6.36776,0.96869 -8.52032,-1.98535 0,0 -3.82442,-6.65219 -6.0729,-9.75204 -2.39163,-3.29739 -7.85479,-9.36141 -7.85479,-9.36141 -2.15258,-2.95405 -1.81838,-6.82491 0.74931,-8.67907 z"/><rect id="rect1197" width="30.341" height="27.018" x="308.98" y="843.864" rx="0" ry="0" style="fill:#fff;stroke:none;stroke-width:1.95734;stroke-miterlimit:4;stroke-dasharray:none;stroke-dashoffset:7.55603;stroke-opacity:1"/></g></g></g><style id="style853" type="text/css"/></svg>