<svg xmlns="http://www.w3.org/2000/svg" xmlns:svg="http://www.w3.org/2000/svg" id="svg2" width="192" height="192" version="1.1" viewBox="0 0 192 192"><metadata id="metadata7"/><g id="layer1" transform="translate(0,-860.36216)"><rect id="rect1014" width="152" height="152" x="20" y="880.362" rx="9.935" ry="9.935" style="fill:#99bdfe;fill-opacity:1;fill-rule:evenodd;stroke:none;stroke-width:.993464;stroke-opacity:1"/><path style="fill:#f8c18c;fill-opacity:1;stroke-width:23.7632;stroke-linecap:round;stroke-linejoin:round;stop-color:#000" id="rect923" d="m 106.07762,923.02032 c -10.886678,0 -20.117331,7.28841 -23.665863,17.5615 -2.200494,-1.93675 -5.025626,-3.0981 -8.11353,-3.0981 -7.058068,0 -12.741483,6.06446 -12.741483,13.59826 v 1.46972 c -9.394743,1.87428 -16.379043,9.3499 -16.379043,18.34646 0,10.41806 9.362012,18.80576 20.991964,18.80576 h 59.660675 c 11.62995,0 20.99195,-8.3877 20.99195,-18.80576 0,-8.72059 -6.56167,-16.01454 -15.52059,-18.16107 v -2.79415 c 0,-14.91579 -11.25015,-26.92262 -25.22408,-26.92262 z"/><path style="fill:#56595b;fill-opacity:1;stroke-width:70.5872;stroke-linecap:round;stroke-linejoin:round;stop-color:#000" id="rect937" d="m 81.177526,969.54787 v 6.96111 a 2,2 45 0 0 2,2 l 32.370594,0 a 2,2 135 0 0 2,-2 v -6.96111 a 2,2 45 0 0 -2,-2 h -9.8513 c -0.73361,0.72282 -1.4692,1.44365 -2.1979,2.17118 -1.72022,2.10371 -5.109774,2.57855 -7.276792,0.89687 -1.084779,-1.0004 -2.140946,-2.03075 -3.191634,-3.06805 l -9.852968,0 a 2,2 135 0 0 -2,2 z"/><path style="fill:#fff;fill-opacity:1;stroke-width:38.6624;stroke-linecap:round;stroke-linejoin:round;stop-color:#000" id="rect931" d="m 136.52923,906.70392 v 8.05089 h -8.05088 a 2,2 135 0 0 -2,2 v 2.84255 a 2,2 45 0 0 2,2 h 8.05088 v 8.05089 a 2,2 45 0 0 2,2 h 2.84256 a 2,2 135 0 0 2,-2 v -8.05089 h 8.05089 a 2,2 135 0 0 2,-2 v -2.84255 a 2,2 45 0 0 -2,-2 l -8.05089,0 v -8.05089 a 2,2 45 0 0 -2,-2 l -2.84256,0 a 2,2 135 0 0 -2,2 z"/><path style="fill:#56595b;fill-opacity:1;stroke-width:38.1046;stroke-linecap:round;stroke-linejoin:round;stop-color:#000" id="rect935" d="m 95.473906,945.63982 v 10.05675 h -5.979495 a 1.4707112,1.4707112 0 0 0 -1.034155,2.51642 l 9.571085,9.4653 a 1.894621,1.894621 0 0 0 2.664549,-9e-5 l 9.56966,-9.46505 a 1.4708413,1.4708413 0 0 0 -1.03432,-2.51658 h -5.97949 v -10.05675 a 1.3987242,1.3987242 0 0 0 -1.39872,-1.39873 h -4.98039 a 1.3987242,1.3987242 0 0 0 -1.398724,1.39873 z"/><circle id="circle1024" cx="108.055" cy="974.831" r="1.967" style="fill:#f8c18c;fill-opacity:1;stroke-width:30.8173;stroke-linecap:round;stroke-linejoin:round;stop-color:#000"/><circle id="circle1026" cx="113.871" cy="974.831" r="1.967" style="fill:#f8c18c;fill-opacity:1;stroke-width:30.8173;stroke-linecap:round;stroke-linejoin:round;stop-color:#000"/></g><style id="style853" type="text/css"/><style id="style853-9" type="text/css"/><style id="style853-3" type="text/css"/></svg>