<svg xmlns="http://www.w3.org/2000/svg" xmlns:svg="http://www.w3.org/2000/svg" id="svg2" width="192" height="192" version="1.1" viewBox="0 0 192 192"><metadata id="metadata7"/><g id="layer1" transform="translate(0,-860.36216)"><g id="g998"><path id="rect911" d="m 92.245449,883.66515 -68.490898,60.2358 A 11.055943,11.055943 114.33465 0 0 20,952.20297 v 75.15823 a 5,5 45 0 0 5,5 h 142 a 5,5 135 0 0 5,-5 v -75.15823 a 11.055943,11.055943 65.665355 0 0 -3.75455,-8.30202 l -68.490899,-60.2358 a 5.685232,5.685232 0 0 0 -7.509102,0 z" style="fill:#728dbe;stroke-width:.748503"/><path id="path913" fill="#f9de81" d="m 49.7,984.0043 h 6.885 v -27 H 49.7 Z m 31.8094,0 h 9.135 l -13.05,-15.165 11.385,-11.835 h -8.775 l -8.145,9.045 h -0.765 v -9.045 h -6.885 v 27 h 6.885 v -12.06 h 0.45 z m 30.1626,-21.015 v -5.985 h -16.74 v 27 h 16.74 v -5.985 h -9.855 v -4.545 h 8.325 v -5.94 h -8.325 v -4.545 z m 23.248,21.015 h 7.38 l -9.765,-27 h -7.695 l -9.765,27 h 7.425 l 1.485,-4.725 h 9.45 z m -9.18,-10.305 2.97,-9.54 3.015,9.54 z"/></g></g><style id="style853" type="text/css"/></svg>