<svg xmlns="http://www.w3.org/2000/svg" xmlns:xlink="http://www.w3.org/1999/xlink" width="100%" height="100%" version="1.1" viewBox="0 0 192 192" xml:space="preserve" style="fill-rule:evenodd;clip-rule:evenodd;stroke-linejoin:round;stroke-miterlimit:2"><g transform="matrix(1,0,0,1,8,8)"><circle cx="88" cy="88" r="88" style="fill:#fff"/></g><g><g transform="matrix(0.977528,0,0,0.977528,2.1573,7.5948) matrix(1.55078,0,0,1.55078,-28.0625,-33.7187)"><circle cx="80" cy="72" r="16" style="fill:#dc505e"/></g><g><g transform="matrix(0.977528,0,0,0.977528,2.1573,7.5948) matrix(0.778792,0,0,0.778792,13.8374,31.7144) matrix(0.5,0,0,0.5,29,78)"><circle cx="80" cy="72" r="16" style="fill:#54688c"/></g><g transform="matrix(0.977528,0,0,0.977528,2.1573,7.5948) matrix(0.778792,0,0,0.778792,13.8374,31.7144) matrix(0.5,0,0,0.5,102,78)"><circle cx="80" cy="72" r="16" style="fill:#54688c"/></g><g transform="matrix(0.977528,0,0,0.977528,2.1573,7.5948) matrix(0.778792,0,0,0.778792,13.8374,31.7144) matrix(1.40385,0,0,1,-27.8654,0)"><rect width="52" height="16" x="69" y="106" style="fill:#54688c"/></g></g></g></svg>