<svg xmlns="http://www.w3.org/2000/svg" xmlns:svg="http://www.w3.org/2000/svg" id="svg2" width="192" height="192" version="1.1" viewBox="0 0 192 192"><metadata id="metadata7"/><g id="layer1" transform="translate(0,-860.36216)"><rect id="rect1048" width="152" height="152" x="20" y="880.362" rx="9.935" ry="9.935" style="fill:#56595b;fill-opacity:1;fill-rule:evenodd;stroke:none;stroke-width:.993464;stroke-opacity:1"/><path style="color:#000;font-style:normal;font-variant:normal;font-weight:400;font-stretch:normal;font-size:medium;line-height:normal;font-family:sans-serif;font-variant-ligatures:normal;font-variant-position:normal;font-variant-caps:normal;font-variant-numeric:normal;font-variant-alternates:normal;font-variant-east-asian:normal;font-feature-settings:normal;font-variation-settings:normal;text-indent:0;text-align:start;text-decoration:none;text-decoration-line:none;text-decoration-style:solid;text-decoration-color:#000;letter-spacing:normal;word-spacing:normal;text-transform:none;writing-mode:lr-tb;direction:ltr;text-orientation:mixed;dominant-baseline:auto;baseline-shift:baseline;text-anchor:start;white-space:normal;shape-padding:0;shape-margin:0;inline-size:0;clip-rule:evenodd;display:inline;overflow:visible;visibility:visible;isolation:auto;mix-blend-mode:normal;color-interpolation:sRGB;color-interpolation-filters:linearRGB;solid-color:#000;solid-opacity:1;vector-effect:none;fill:#96dfd3;fill-opacity:1;fill-rule:evenodd;stroke:none;stroke-width:12;stroke-linecap:butt;stroke-linejoin:miter;stroke-miterlimit:4;stroke-dasharray:none;stroke-dashoffset:0;stroke-opacity:1;color-rendering:auto;image-rendering:auto;shape-rendering:auto;text-rendering:auto;enable-background:accumulate;stop-color:#000" id="path1050" d="m 104.50903,919.87084 c -15.226552,0 -27.690447,12.27498 -27.984376,27.44019 -0.003,0.0854 -0.0067,0.17128 -0.0067,0.25609 l -0.0014,0.29344 v 0.001 19.78153 h -4.410868 -0.314771 c -0.192729,0 -0.369847,0.0245 -0.549526,0.044 -6.532931,0.44788 -11.74141,5.93974 -11.74141,12.56169 0,6.91333 5.692406,12.60575 12.605707,12.60575 6.833776,0 12.475975,-5.55597 12.603043,-12.36833 0.0014,-0.0314 0.0027,-0.0536 0.0027,-0.12671 v -0.007 -0.10137 -0.003 -4.39619 h 19.797541 0.8843 c 0.29386,-1e-5 0.58459,-0.0333 0.87364,-0.0694 14.61404,-0.91053 26.23311,-13.10227 26.23311,-27.92168 0,-15.41072 -12.58034,-27.99106 -27.99105,-27.99106 z m 0,8.19485 c 10.98189,0 19.79621,8.81432 19.79621,19.79621 0,10.60211 -8.23516,19.18014 -18.66648,19.76552 l -0.21341,0.012 -0.1147,0.0187 h -0.80162 -19.797534 v -19.79354 l 0.0014,-0.27609 v -0.02 l 0.0014,-0.016 0.0013,-0.068 c 0.201415,-10.7985 8.93796,-19.41874 19.793534,-19.41874 z m -32.543291,47.77258 h 0.140043 4.410869 v 4.41087 0.0173 0.0333 l -0.0013,0.0347 c -0.04541,2.43613 -1.95363,4.3255 -4.409537,4.3255 -2.484486,0 -4.410861,-1.92637 -4.410861,-4.41086 0,-2.39856 1.814543,-4.27279 4.156111,-4.4042 z"/></g><style id="style853" type="text/css"/><style id="style853-9" type="text/css"/><style id="style853-3" type="text/css"/><style id="style853-5" type="text/css"/></svg>