<svg xmlns="http://www.w3.org/2000/svg" xmlns:svg="http://www.w3.org/2000/svg" id="svg2" width="192" height="192" version="1.1" viewBox="0 0 192 192"><metadata id="metadata7"/><g id="layer1" transform="translate(0,-860.36216)"><circle id="circle2150" cx="96" cy="956.362" r="88" style="fill:#55698c;fill-opacity:1;fill-rule:evenodd;stroke:none;stroke-opacity:1"/><path id="path2152" d="m 117.50195,937.38672 c -5.06353,0 -10.14951,1.57237 -14.22656,4.74023 -2.86045,2.22247 -5.600706,5.62504 -7.27539,7.79493 -1.674683,-2.16989 -4.414962,-5.57248 -7.275391,-7.79493 -4.088833,-3.17706 -9.18021,-4.63281 -14.226562,-4.63281 -5.046482,0 -10.137883,1.45591 -14.226563,4.63281 -4.123728,3.20393 -6.773437,7.93161 -6.773437,13.54883 0,5.61712 2.649496,10.34656 6.773437,13.55078 8.130829,6.31746 20.322278,6.31747 28.453125,0 2.860543,-2.22263 5.600782,-5.62667 7.275391,-7.79687 1.674611,2.1702 4.41484,5.57422 7.27539,7.79687 8.13083,6.31746 20.32228,6.31746 28.45313,0 4.12391,-3.20422 6.77343,-7.93366 6.77343,-13.55078 0,-5.61723 -2.64976,-10.34492 -6.77343,-13.54883 -4.07707,-3.16786 -9.16282,-4.74023 -14.22657,-4.74023 z m -43.003903,8.56055 c 4.160324,0 8.236296,1.25898 11.175781,3.54296 1.817442,1.41216 4.012673,4.04255 5.730469,6.18555 -1.717796,2.143 -3.913043,4.7734 -5.730469,6.18555 -5.891162,4.57727 -16.458559,4.57726 -22.349609,0 -2.925377,-2.27294 -3.748047,-4.69217 -3.748047,-6.18555 0,-1.49351 0.822637,-3.91258 3.748047,-6.18555 2.939688,-2.28414 7.013263,-3.54296 11.173828,-3.54296 z m 43.003903,0.10742 c 4.18133,0 8.2466,1.16108 11.17383,3.43554 2.92539,2.27296 3.74805,4.69204 3.74805,6.18555 0,1.49351 -0.8229,3.91463 -3.74805,6.1875 -5.89103,4.57727 -16.45846,4.57727 -22.34961,0 -1.81738,-1.41212 -4.01253,-4.04399 -5.73047,-6.1875 1.71781,-2.14299 3.91305,-4.7734 5.73047,-6.18555 2.92706,-2.2743 6.99458,-3.43554 11.17578,-3.43554 z" style="color:#000;font-style:normal;font-variant:normal;font-weight:400;font-stretch:normal;font-size:medium;line-height:normal;font-family:sans-serif;font-variant-ligatures:normal;font-variant-position:normal;font-variant-caps:normal;font-variant-numeric:normal;font-variant-alternates:normal;font-variant-east-asian:normal;font-feature-settings:normal;font-variation-settings:normal;text-indent:0;text-align:start;text-decoration:none;text-decoration-line:none;text-decoration-style:solid;text-decoration-color:#000;letter-spacing:normal;word-spacing:normal;text-transform:none;writing-mode:lr-tb;direction:ltr;text-orientation:mixed;dominant-baseline:auto;baseline-shift:baseline;text-anchor:start;white-space:normal;shape-padding:0;shape-margin:0;inline-size:0;clip-rule:nonzero;display:inline;overflow:visible;visibility:visible;isolation:auto;mix-blend-mode:normal;color-interpolation:sRGB;color-interpolation-filters:linearRGB;solid-color:#000;solid-opacity:1;vector-effect:none;fill:#9abefe;fill-opacity:1;fill-rule:nonzero;stroke:none;stroke-width:2.25724;stroke-linecap:round;stroke-linejoin:round;stroke-miterlimit:4;stroke-dasharray:none;stroke-dashoffset:0;stroke-opacity:1;paint-order:markers fill stroke;color-rendering:auto;image-rendering:auto;shape-rendering:auto;text-rendering:auto;enable-background:accumulate;stop-color:#000"/><path id="path2156" d="m 129.66762,976.58534 -4.48362,-1.18216 a 1.8027248,1.8027249 29.999999 0 0 -1.72928,0.46334 l -3.29177,3.26566 a 0.60088281,0.60088284 29.999999 0 1 -1.00298,-0.26875 l -1.21793,-4.47403 a 1.8027248,1.8027249 29.999999 0 0 -1.26593,-1.2659 l -4.47401,-1.21803 a 0.60088281,0.60088284 29.999999 0 1 -0.26875,-1.00298 l 3.26567,-3.29178 a 1.8027248,1.8027249 29.999999 0 0 0.46336,-1.72926 l -1.18226,-4.48361 a 0.60088281,0.60088284 29.999999 0 1 0.73423,-0.73423 l 4.48359,1.18226 a 1.8027248,1.8027249 29.999999 0 0 1.72928,-0.46335 l 3.29178,-3.26567 a 0.60088281,0.60088284 29.999999 0 1 1.00298,0.26874 l 1.21792,4.47405 a 1.8027248,1.8027249 29.999999 0 0 1.26593,1.26592 l 4.47403,1.21792 a 0.60088281,0.60088284 29.999999 0 1 0.26876,1.00298 l -3.26563,3.2918 a 1.8027248,1.8027249 29.999999 0 0 -0.46336,1.72928 l 1.18222,4.48357 a 0.60088281,0.60088284 29.999999 0 1 -0.73423,0.73423 z" style="fill:#fdf5d9;fill-opacity:1;stroke-width:11.1718;stroke-linecap:round;stroke-linejoin:round;stroke-miterlimit:4;stroke-dasharray:none;paint-order:markers fill stroke"/><ellipse id="circle2164" cx="-182.075" cy="927.4" rx="9.506" ry="9.506" transform="rotate(-15.000006)" style="fill:#fdf5d9;fill-opacity:1;stroke-width:47.5318;stroke-linecap:round;stroke-linejoin:round;stroke-miterlimit:4;stroke-dasharray:none;paint-order:markers fill stroke"/></g><style id="style853" type="text/css"/></svg>