<svg xmlns="http://www.w3.org/2000/svg" xmlns:svg="http://www.w3.org/2000/svg" id="svg2" width="192" height="192" version="1.1" viewBox="0 0 192 192"><metadata id="metadata7"/><g id="layer1" transform="translate(0,-860.36216)"><path style="stroke-width:.405661;fill:#f8c18c;fill-opacity:1" id="path906" fill="#ff8200" d="m 119.17199,941.17668 c 9.11288,9.12075 16.53636,23.99768 12.269,32.85292 -11.37984,23.68771 -96.284196,65.2188 -103.485493,58.0019 -7.201301,-7.1728 34.495142,-91.78471 58.277145,-103.11947 8.846136,-4.20616 23.826668,3.18796 32.939348,12.26465 0,-0.0443 0,0 0,0 z"/><path style="stroke-width:.405661;fill:#97db99;fill-opacity:1" id="path908" fill="#0aad0a" d="m 164.15846,931.21455 c 0,-0.0443 0,-0.0443 0,0 -1.46691,-5.44602 -5.24524,-10.93629 -10.8908,-11.60048 -10.31305,-1.1954 -26.58266,16.95778 -25.42675,21.2969 1.15571,4.29486 24.13767,11.91023 32.71706,5.75598 4.44519,-3.18795 5.06761,-10.00659 3.60049,-15.4524 z m -31.96127,-50.34217 c 7.64577,2.08097 15.42511,7.30557 16.31407,15.18676 1.6892,14.38973 -23.87092,37.1035 -29.96106,35.50962 -6.08994,-1.63833 -16.75845,-33.6943 -8.13481,-45.69316 4.48986,-6.19868 14.13603,-7.08421 21.7818,-5.00322 0,-0.0443 0,-0.0443 0,0 z"/></g><style id="style853" type="text/css"/></svg>