<svg xmlns="http://www.w3.org/2000/svg" xmlns:svg="http://www.w3.org/2000/svg" id="svg14" width="192" height="192" version="1.1" viewBox="0 0 192 192"><metadata id="metadata20"/><rect id="rect2" width="153" height="153" x="19.5" y="19.5" rx="10" style="fill:#4a4a4a;fill-rule:evenodd;stroke:none;fill-opacity:1"/><g style="fill:#fff;fill-opacity:1" id="layer1" transform="matrix(9.6131798,0,0,9.5611012,111.99902,4.7088215)"><g id="g2111" transform="matrix(1.1699016,0,0,1.1699016,-111.93342,-507.70771)" style="fill:#fff;fill-opacity:1"><path style="fill:#fff;fill-opacity:1" id="path2117" d="m 98.166,443.657 c 0,0.575 -0.215575,1.12573 -0.807,1.86488 -0.626565,0.78306 -1.154,1.23125 -1.849,1.75825 V 443.848 c 0.158,-0.399 0.391,-0.722 0.7,-0.97 0.308,-0.247 0.62,-0.371 0.936,-0.371 0.522,0 0.853,0.296 0.996,0.886 0.016,0.048 0.024,0.136 0.024,0.264 z m -0.075,-2.4 c -0.431,0 -0.869,0.119 -1.315,0.358 -0.446,0.238 -0.868,0.557 -1.266,0.954 v -7.27167 h -0.563 v 12.4548 c 0,0.352 0.096,0.528 0.288,0.528 0.111,0 0.248913,-0.093 0.455,-0.216 0.58334,-0.34815 0.946935,-0.58081 1.342,-0.82625 0.450617,-0.27996 0.958,-0.60688 1.629,-1.24688 0.463,-0.465 0.798,-0.934 1.006,-1.406 0.207,-0.473 0.311,-0.941 0.311,-1.406 0,-0.688 -0.183,-1.177 -0.549,-1.466 -0.414,-0.304 -0.861,-0.456 -1.338,-0.456 z"/></g></g></svg>