<svg xmlns="http://www.w3.org/2000/svg" xmlns:svg="http://www.w3.org/2000/svg" id="svg2" width="192" height="192" version="1.1" viewBox="0 0 192 192"><metadata id="metadata7"/><g id="layer1" transform="translate(0,-860.36216)"><rect id="rect965" width="152" height="152" x="20" y="880.362" rx="9.935" ry="9.935" style="fill:#99bdfe;fill-opacity:1;fill-rule:evenodd;stroke:none;stroke-width:.993464;stroke-opacity:1"/><path style="fill:#fff;fill-opacity:1;stroke-width:6.50925;stroke-linecap:square;stop-color:#000" id="path967" d="m 92.784713,925.69928 c 0.906152,7.44926 7.252227,13.21995 14.946117,13.21995 h 5.71211 v 5.71211 c 0,7.69389 5.77069,14.03998 13.21996,14.94612 1.00901,0.12273 1.8371,-0.71356 1.8371,-1.73064 V 938.91923 927.3711 c 0,-1.93793 -1.571,-3.50894 -3.50894,-3.50894 H 113.44294 94.515351 c -1.017079,0 -1.853376,0.8281 -1.730638,1.83712 z"/><path style="fill:#fff;fill-opacity:1;stroke-width:6.50925;stroke-linecap:square;stop-color:#000" id="path969" d="m 74.14841,944.33568 c 0.906153,7.44927 7.252229,13.21996 14.946124,13.21996 h 5.712102 v 5.71209 c 0,7.6939 5.770694,14.03998 13.219974,14.94613 1.00901,0.12274 1.8371,-0.71356 1.8371,-1.73064 v -18.92758 -11.54813 c 0,-1.93794 -1.571,-3.50894 -3.50895,-3.50894 H 94.806636 75.879048 c -1.017079,0 -1.853375,0.82809 -1.730638,1.83711 z"/><path style="fill:#fff;fill-opacity:1;stroke-width:6.50925;stroke-linecap:square;stop-color:#000" id="path971" d="m 55.511993,962.97199 c 0.906153,7.44927 7.25223,13.21995 14.946123,13.21995 h 5.712103 v 5.71211 c 0,7.69389 5.770694,14.03998 13.219969,14.94612 1.009012,0.12274 1.8371,-0.71356 1.8371,-1.73064 v -18.92759 -11.54812 c 0,-1.93794 -1.571003,-3.50894 -3.508942,-3.50894 H 76.170219 57.242631 c -1.017079,0 -1.853375,0.82809 -1.730638,1.83711 z"/></g><style id="style853" type="text/css"/><style id="style853-9" type="text/css"/><style id="style853-3" type="text/css"/></svg>