<svg xmlns="http://www.w3.org/2000/svg" xmlns:svg="http://www.w3.org/2000/svg" id="svg2" width="192" height="192" version="1.1" viewBox="0 0 192 192"><metadata id="metadata7"/><g id="layer1" transform="translate(0,-860.36216)"><rect id="rect1032" width="84.045" height="139.383" x="20.146" y="892.414" rx="9.876" ry="9.876" style="fill:#83868c;fill-opacity:1;stroke-width:1.25675;stop-color:#000"/><rect id="rect1034" width="70.908" height="105.314" x="26.715" y="909.232" rx="4.599" ry="4.599" style="fill:#56595b;fill-opacity:1;stroke-width:1.16507;stop-color:#000"/><path style="fill:#fff;fill-opacity:1;stroke-width:1.09659;stop-color:#000" id="path1036" d="m 61.867038,951.39495 a 11.001723,11.001723 0 0 0 -10.984755,11.00139 11.001723,11.001723 0 0 0 11.001391,11.00138 11.001723,11.001723 0 0 0 9.762375,-5.92894 H 93.862952 V 957.32389 H 71.646049 a 11.001723,11.001723 0 0 0 -9.762375,-5.92894 11.001723,11.001723 0 0 0 -0.0166,0 z"/><rect id="rect1038" width="84.045" height="139.383" x="87.809" y="880.927" rx="9.876" ry="9.876" style="fill:#a0a5af;fill-opacity:1;stroke-width:1.25675;stop-color:#000"/><rect id="rect1040" width="70.908" height="105.314" x="94.377" y="897.745" rx="4.599" ry="4.599" style="fill:#83868c;fill-opacity:1;stroke-width:1.16507;stop-color:#000"/><path style="fill:#f8c18c;fill-opacity:1;stroke-width:1.09837;stop-color:#000" id="path1042" d="m 118.7326,931.90231 -0.10209,0.10206 a 4.9992716,4.9992716 90.004173 0 0 -5.2e-4,7.07055 l 6.36822,6.36822 H 87.808757 v 10.14697 h 37.187373 l -6.36651,6.36784 a 5.0005226,5.0005226 89.997006 0 0 3.7e-4,7.07143 l 0.10313,0.10313 a 4.9999989,4.9999989 179.99999 0 0 7.07106,0 l 15.07931,-15.07932 a 5.0000011,5.0000011 89.999994 0 0 0,-7.07106 l -15.07931,-15.07931 a 5.0007285,5.0007285 0.00417349 0 0 -7.07158,-5.1e-4 z"/></g><style id="style853" type="text/css"/><style id="style853-9" type="text/css"/><style id="style853-3" type="text/css"/></svg>