<svg xmlns="http://www.w3.org/2000/svg" xmlns:svg="http://www.w3.org/2000/svg" id="svg2" width="192" height="192" version="1.1" viewBox="0 0 192 192"><metadata id="metadata7"/><g id="layer1" transform="translate(0,-860.36216)"><rect style="fill:#98db9a;fill-opacity:1;fill-rule:evenodd;stroke:none;stroke-opacity:1" id="rect842" width="153" height="153" x="19.5" y="879.862" rx="10"/><path id="path873" d="M 60.86982,956.81538 C 59.985145,957.67152 59.5,958.84157 59.5,960.0687 c 0,1.22713 0.456607,2.39719 1.312745,3.28186 l 21.003907,21.37491 c 0.770524,0.79907 1.797889,1.25567 2.88233,1.36982 0.142689,0 0.285379,0.0285 0.399531,0.0285 1.255668,0 2.425723,-0.48514 3.28186,-1.39836 l 42.806887,-43.83421 c 0.85613,-0.88467 1.31274,-2.05473 1.31274,-3.28186 -0.0285,-1.22713 -0.51368,-2.36865 -1.39836,-3.25332 l -6.56372,-6.44957 c -1.82643,-1.76935 -4.73729,-1.74081 -6.50665,0.0856 L 85.069975,961.7239 73.968725,950.42289 c -1.769351,-1.79789 -4.708757,-1.82643 -6.506646,-0.0571 z" class="st1" style="stroke-width:1;fill:#fff;fill-opacity:1"/></g><style id="style853" type="text/css">.st1{fill:#fff}</style></svg>