<svg xmlns="http://www.w3.org/2000/svg" xmlns:svg="http://www.w3.org/2000/svg" id="svg2" width="192" height="192" version="1.1" viewBox="0 0 192 192"><metadata id="metadata7"/><g id="layer1" transform="translate(0,-860.36216)"><rect id="rect1058" width="153" height="153" x="19.5" y="879.862" rx="10" style="fill:#97db99;fill-opacity:1;fill-rule:evenodd;stroke:none;stroke-opacity:1"/><path style="fill:#fff;fill-opacity:1;stroke-width:6.141;stroke-linecap:round;stop-color:#000" id="path1069" d="m 116.6585,951.95549 v 9.00902 h -9.00789 a 1.1572051,1.1572051 0 0 0 -1.15721,1.15721 v 3.36086 a 1.1572051,1.1572051 0 0 0 1.15721,1.15721 h 9.00789 v 9.00902 a 1.1572051,1.1572051 0 0 0 1.1572,1.1572 h 3.36087 a 1.1572051,1.1572051 0 0 0 1.1572,-1.1572 v -9.00902 h 9.00902 A 1.1572051,1.1572051 0 0 0 132.5,965.48258 v -3.36086 a 1.1572051,1.1572051 0 0 0 -1.15721,-1.15721 h -9.00902 v -9.00902 a 1.1572051,1.1572051 0 0 0 -1.1572,-1.15721 h -3.36087 a 1.1572051,1.1572051 0 0 0 -1.1572,1.15721 z"/><path style="fill:#fff;fill-opacity:1;stroke-width:10.0828;stroke-linecap:round;stop-color:#000" id="path1073" d="m 59.5,937.06296 v 38.58584 a 1.1572051,1.1572051 0 0 0 1.157205,1.15721 h 7.413571 a 1.1572051,1.1572051 0 0 0 1.157205,-1.15721 v -38.58584 a 1.1572051,1.1572051 0 0 0 -1.157205,-1.15721 H 60.657205 A 1.1572051,1.1572051 0 0 0 59.5,937.06296 Z"/><path style="fill:#fff;fill-opacity:1;stroke-width:10.553;stroke-linecap:round;stop-color:#000" id="path1077" d="m 87.815132,938.05045 -7.812009,10.25712 -5.077877,6.66752 a 2.2790476,2.2790476 0 0 0 9.4e-5,2.76179 l 5.077783,6.66646 7.812103,10.25818 a 5.4409633,5.4409633 0 0 0 4.328657,2.14449 h 8.406407 a 0.57327067,0.57327067 0 0 0 0.45607,-0.92061 L 86.132694,956.35602 101.00636,936.82665 a 0.57327067,0.57327067 0 0 0 -0.45607,-0.92061 h -8.406407 a 5.4412648,5.4412648 0 0 0 -4.328751,2.14441 z"/></g><style id="style853" type="text/css"/></svg>