<svg xmlns="http://www.w3.org/2000/svg" xmlns:svg="http://www.w3.org/2000/svg" id="svg2" width="192" height="192" version="1.1" viewBox="0 0 192 192"><metadata id="metadata7"/><g id="layer1" transform="translate(0,-860.36216)"><rect id="rect941" width="152" height="152" x="20" y="880.362" rx="9.935" ry="9.935" style="fill:#56595b;fill-opacity:1;fill-rule:evenodd;stroke:none;stroke-width:.993464;stroke-opacity:1"/><circle id="circle951" cx="73.418" cy="978.944" r="14.918" style="fill:#f8c18c;fill-opacity:1;stroke-width:5.52473;stroke-linecap:square;stop-color:#000"/><path style="fill:#ff837d;fill-opacity:1;stroke-width:6.85803;stroke-linecap:square;stop-color:#000" id="rect955" d="M 105.66393,964.02612 H 131.5 a 2,2 0 0 1 2,2 v 25.83607 a 2,2 0 0 1 -2,2 h -25.83607 a 2,2 0 0 1 -2,-2 v -25.83607 a 2,2 0 0 1 2,-2 z"/><path style="fill:#f9de81;fill-opacity:1;stroke-width:6.39953;stroke-linecap:square;stop-color:#000" id="path953" d="m 117.99346,919.78497 15.01163,27.99044 a 0.57148086,0.61520928 0 0 1 -0.49492,0.92282 h -30.02326 a 0.57148086,0.61520928 0 0 1 -0.49492,-0.92282 l 15.01163,-27.99044 a 0.57148086,0.61520928 0 0 1 0.98984,0 z"/><path style="fill:#99bdfe;fill-opacity:1;stroke-width:6.64055;stroke-linecap:square;stop-color:#000" id="path957" d="m 75.80378,920.03776 12.449679,9.04522 a 2.7527638,2.7527638 0 0 1 1,3.07769 l -4.755355,14.63547 a 2.7527638,2.7527638 0 0 1 -2.618034,1.90212 H 66.49142 a 2.7527638,2.7527638 0 0 1 -2.618034,-1.90212 l -4.755355,-14.63547 a 2.7527638,2.7527638 0 0 1 1,-3.07769 l 12.449681,-9.04522 a 2.7527638,2.7527638 0 0 1 3.236068,0 z"/></g><style id="style853" type="text/css"/><style id="style853-9" type="text/css"/><style id="style853-3" type="text/css"/></svg>