<svg xmlns="http://www.w3.org/2000/svg" xmlns:svg="http://www.w3.org/2000/svg" id="svg2" width="192" height="192" version="1.1" viewBox="0 0 192 192"><metadata id="metadata7"/><g id="layer1" transform="translate(0,-860.36216)"><g id="g5332" transform="matrix(0.87005646,0,0,0.87005646,804.22769,366.02473)"><path id="path5319" d="m -861.22852,-270.35742 a 8.086809,8.086809 0 0 0 -0.80664,0.0391 8.086809,8.086809 0 0 0 -0.80078,0.12109 8.086809,8.086809 0 0 0 -0.7832,0.20118 8.086809,8.086809 0 0 0 -0.75781,0.27734 8.086809,8.086809 0 0 0 -0.72852,0.35156 8.086809,8.086809 0 0 0 -0.68945,0.42188 8.086809,8.086809 0 0 0 -0.64258,0.49023 8.086809,8.086809 0 0 0 -0.5918,0.55078 8.086809,8.086809 0 0 0 -0.5332,0.60742 8.086809,8.086809 0 0 0 -0.4707,0.65626 8.086809,8.086809 0 0 0 -0.40235,0.70117 8.086809,8.086809 0 0 0 -0.33007,0.73828 8.086809,8.086809 0 0 0 -0.25391,0.76758 8.086809,8.086809 0 0 0 -0.17774,0.78906 8.086809,8.086809 0 0 0 -0.0977,0.80273 8.086809,8.086809 0 0 0 -0.0195,0.57032 v 5.95312 a 8.086809,8.086809 0 0 1 -8.08594,8.08594 h -5.95313 a 8.086809,8.086809 0 0 0 -0.80664,0.0391 8.086809,8.086809 0 0 0 -0.80078,0.12109 8.086809,8.086809 0 0 0 -0.7832,0.20118 8.086809,8.086809 0 0 0 -0.75781,0.27734 8.086809,8.086809 0 0 0 -0.72852,0.35156 8.086809,8.086809 0 0 0 -0.68945,0.42188 8.086809,8.086809 0 0 0 -0.64258,0.49023 8.086809,8.086809 0 0 0 -0.5918,0.55078 8.086809,8.086809 0 0 0 -0.5332,0.60742 8.086809,8.086809 0 0 0 -0.4707,0.65626 8.086809,8.086809 0 0 0 -0.40235,0.70117 8.086809,8.086809 0 0 0 -0.33007,0.73828 8.086809,8.086809 0 0 0 -0.25391,0.76758 8.086809,8.086809 0 0 0 -0.17774,0.78906 8.086809,8.086809 0 0 0 -0.0977,0.80273 8.086809,8.086809 0 0 0 -0.0195,0.57032 v 14.03906 22.125 22.125 22.125 14.03906 a 8.086809,8.086809 0 0 0 0.041,0.80664 8.086809,8.086809 0 0 0 0.1211,0.79883 8.086809,8.086809 0 0 0 0.19922,0.7832 8.086809,8.086809 0 0 0 0.27734,0.75977 8.086809,8.086809 0 0 0 0.35156,0.72851 8.086809,8.086809 0 0 0 0.42188,0.6875 8.086809,8.086809 0 0 0 0.49023,0.64453 8.086809,8.086809 0 0 0 0.55078,0.5918 8.086809,8.086809 0 0 0 0.60742,0.5332 8.086809,8.086809 0 0 0 0.65821,0.46876 8.086809,8.086809 0 0 0 0.70117,0.40234 8.086809,8.086809 0 0 0 0.73828,0.33008 8.086809,8.086809 0 0 0 0.76563,0.25586 8.086809,8.086809 0 0 0 0.78906,0.17578 8.086809,8.086809 0 0 0 0.80273,0.0977 8.086809,8.086809 0 0 0 0.57031,0.0215 h 5.95313 30.21094 v -22.125 -22.125 -22.125 h 44.25 v -22.125 h 44.25 v -14.03906 a 8.086809,8.086809 0 0 1 8.08593,-8.08594 h 5.95313 a 8.086809,8.086809 0 0 0 0.80664,-0.041 8.086809,8.086809 0 0 0 0.80078,-0.12109 8.086809,8.086809 0 0 0 0.7832,-0.19922 8.086809,8.086809 0 0 0 0.75782,-0.27734 8.086809,8.086809 0 0 0 0.72851,-0.35352 8.086809,8.086809 0 0 0 0.68946,-0.42187 8.086809,8.086809 0 0 0 0.64257,-0.48829 8.086809,8.086809 0 0 0 0.5918,-0.55273 8.086809,8.086809 0 0 0 0.5332,-0.60547 8.086809,8.086809 0 0 0 0.47071,-0.6582 8.086809,8.086809 0 0 0 0.40234,-0.70117 8.086809,8.086809 0 0 0 0.33008,-0.73828 8.086809,8.086809 0 0 0 0.2539,-0.76758 8.086809,8.086809 0 0 0 0.17774,-0.78907 8.086809,8.086809 0 0 0 0.0977,-0.80078 8.086809,8.086809 0 0 0 0.0195,-0.57031 v -5.95312 a 8.086809,8.086809 0 0 0 -0.041,-0.8086 8.086809,8.086809 0 0 0 -0.12109,-0.79883 8.086809,8.086809 0 0 0 -0.19922,-0.7832 8.086809,8.086809 0 0 0 -0.27734,-0.75977 8.086809,8.086809 0 0 0 -0.35157,-0.72656 8.086809,8.086809 0 0 0 -0.42187,-0.68945 8.086809,8.086809 0 0 0 -0.49024,-0.64453 8.086809,8.086809 0 0 0 -0.55078,-0.58985 8.086809,8.086809 0 0 0 -0.60742,-0.53515 8.086809,8.086809 0 0 0 -0.6582,-0.46875 8.086809,8.086809 0 0 0 -0.70118,-0.40235 8.086809,8.086809 0 0 0 -0.73828,-0.33007 8.086809,8.086809 0 0 0 -0.76562,-0.25586 8.086809,8.086809 0 0 0 -0.78906,-0.17578 8.086809,8.086809 0 0 0 -0.80274,-0.0977 8.086809,8.086809 0 0 0 -0.57031,-0.0195 h -116.57813 z" transform="translate(0,860.36216)" style="color:#000;font-style:normal;font-variant:normal;font-weight:400;font-stretch:normal;font-size:medium;line-height:normal;font-family:sans-serif;text-indent:0;text-align:start;text-decoration:none;text-decoration-line:none;text-decoration-style:solid;text-decoration-color:#000;letter-spacing:normal;word-spacing:normal;text-transform:none;writing-mode:lr-tb;direction:ltr;baseline-shift:baseline;text-anchor:start;white-space:normal;clip-rule:nonzero;display:inline;overflow:visible;visibility:visible;opacity:1;isolation:auto;mix-blend-mode:normal;color-interpolation:sRGB;color-interpolation-filters:linearRGB;solid-color:#000;solid-opacity:1;fill:#fefefe;fill-opacity:1;fill-rule:nonzero;stroke:none;stroke-width:16.172;stroke-linecap:butt;stroke-linejoin:round;stroke-miterlimit:4;stroke-dasharray:none;stroke-dashoffset:0;stroke-opacity:1;color-rendering:auto;image-rendering:auto;shape-rendering:auto;text-rendering:auto;enable-background:accumulate"/><path id="path5327" d="m -802.93945,-226.10742 v 22.125 h 44.25 v -22.125 z m 0,22.125 h -44.25 v 22.125 22.125 22.125 h -22.125 v 8.08594 28.07812 a 8.086809,8.086809 0 0 0 0.041,0.80664 8.086809,8.086809 0 0 0 0.1211,0.798829 8.086809,8.086809 0 0 0 0.19922,0.783203 8.086809,8.086809 0 0 0 0.27734,0.759766 8.086809,8.086809 0 0 0 0.35156,0.728516 8.086809,8.086809 0 0 0 0.42188,0.6875 8.086809,8.086809 0 0 0 0.49023,0.644531 8.086809,8.086809 0 0 0 0.55078,0.591797 8.086809,8.086809 0 0 0 0.60742,0.533203 8.086809,8.086809 0 0 0 0.65821,0.46875 8.086809,8.086809 0 0 0 0.70117,0.402344 8.086809,8.086809 0 0 0 0.73828,0.330078 8.086809,8.086809 0 0 0 0.76563,0.255859 8.086809,8.086809 0 0 0 0.78906,0.175782 8.086809,8.086809 0 0 0 0.80273,0.09766 8.086809,8.086809 0 0 0 0.57031,0.02148 h 50.20313 a 8.086809,8.086809 0 0 0 0.80664,-0.04102 8.086809,8.086809 0 0 0 0.80078,-0.121093 8.086809,8.086809 0 0 0 0.7832,-0.199219 8.086809,8.086809 0 0 0 0.75782,-0.277344 8.086809,8.086809 0 0 0 0.72851,-0.353515 8.086809,8.086809 0 0 0 0.68946,-0.421875 8.086809,8.086809 0 0 0 0.64257,-0.488282 8.086809,8.086809 0 0 0 0.5918,-0.552734 8.086809,8.086809 0 0 0 0.5332,-0.605469 8.086809,8.086809 0 0 0 0.47071,-0.658203 8.086809,8.086809 0 0 0 0.40234,-0.701172 8.086809,8.086809 0 0 0 0.33008,-0.738281 8.086809,8.086809 0 0 0 0.2539,-0.767578 8.086809,8.086809 0 0 0 0.17774,-0.789063 8.086809,8.086809 0 0 0 0.0977,-0.80078 8.086809,8.086809 0 0 0 0.0195,-0.57031 v -5.95312 a 8.086809,8.086809 0 0 1 8.08593,-8.08594 h 28.07813 a 8.086809,8.086809 0 0 0 0.80664,-0.041 8.086809,8.086809 0 0 0 0.80078,-0.12109 8.086809,8.086809 0 0 0 0.7832,-0.19922 8.086809,8.086809 0 0 0 0.75782,-0.27734 8.086809,8.086809 0 0 0 0.72851,-0.35352 8.086809,8.086809 0 0 0 0.68946,-0.42187 8.086809,8.086809 0 0 0 0.64257,-0.48829 8.086809,8.086809 0 0 0 0.5918,-0.55273 8.086809,8.086809 0 0 0 0.5332,-0.60547 8.086809,8.086809 0 0 0 0.47071,-0.6582 8.086809,8.086809 0 0 0 0.40234,-0.70117 8.086809,8.086809 0 0 0 0.33008,-0.73828 8.086809,8.086809 0 0 0 0.2539,-0.76758 8.086809,8.086809 0 0 0 0.17774,-0.78907 8.086809,8.086809 0 0 0 0.0977,-0.80078 8.086809,8.086809 0 0 0 0.0195,-0.57031 v -58.28906 h -44.25 v -22.125 z" transform="translate(0,860.36216)" style="color:#000;font-style:normal;font-variant:normal;font-weight:400;font-stretch:normal;font-size:medium;line-height:normal;font-family:sans-serif;text-indent:0;text-align:start;text-decoration:none;text-decoration-line:none;text-decoration-style:solid;text-decoration-color:#000;letter-spacing:normal;word-spacing:normal;text-transform:none;writing-mode:lr-tb;direction:ltr;baseline-shift:baseline;text-anchor:start;white-space:normal;clip-rule:nonzero;display:inline;overflow:visible;visibility:visible;opacity:1;isolation:auto;mix-blend-mode:normal;color-interpolation:sRGB;color-interpolation-filters:linearRGB;solid-color:#000;solid-opacity:1;fill:#f8c28d;fill-opacity:1;fill-rule:nonzero;stroke:none;stroke-width:16.172;stroke-linecap:butt;stroke-linejoin:round;stroke-miterlimit:4;stroke-dasharray:none;stroke-dashoffset:0;stroke-opacity:1;color-rendering:auto;image-rendering:auto;shape-rendering:auto;text-rendering:auto;enable-background:accumulate"/><path id="path5323" d="m -758.68945,-203.98242 h -44.25 v 22.125 h 44.25 z" transform="translate(0,860.36216)" style="color:#000;font-style:normal;font-variant:normal;font-weight:400;font-stretch:normal;font-size:medium;line-height:normal;font-family:sans-serif;text-indent:0;text-align:start;text-decoration:none;text-decoration-line:none;text-decoration-style:solid;text-decoration-color:#000;letter-spacing:normal;word-spacing:normal;text-transform:none;writing-mode:lr-tb;direction:ltr;baseline-shift:baseline;text-anchor:start;white-space:normal;clip-rule:nonzero;display:inline;overflow:visible;visibility:visible;opacity:1;isolation:auto;mix-blend-mode:normal;color-interpolation:sRGB;color-interpolation-filters:linearRGB;solid-color:#000;solid-opacity:1;fill:#000;fill-opacity:1;fill-rule:nonzero;stroke:none;stroke-width:16.172;stroke-linecap:butt;stroke-linejoin:round;stroke-miterlimit:4;stroke-dasharray:none;stroke-dashoffset:0;stroke-opacity:1;color-rendering:auto;image-rendering:auto;shape-rendering:auto;text-rendering:auto;enable-background:accumulate"/><rect style="opacity:1;fill:#585b5d;fill-opacity:1;stroke:none;stroke-width:16.172;stroke-linecap:butt;stroke-linejoin:round;stroke-miterlimit:4;stroke-dasharray:none;stroke-opacity:1" id="rect5282" width="44.25" height="22.125" x="-802.94" y="656.38"/></g></g></svg>