<svg xmlns="http://www.w3.org/2000/svg" xmlns:svg="http://www.w3.org/2000/svg" id="svg2" width="192" height="192" version="1.1" viewBox="0 0 192 192"><defs id="defs4"><style id="style907">.cls-5{fill:none;stroke:#a8aaae;stroke-linecap:round;stroke-miterlimit:10;stroke-width:5px}.cls-6{fill:#a35f27}.cls-7{fill:#ffc31a}</style></defs><metadata id="metadata7"/><g id="layer1" transform="translate(0,-860.36216)"><path id="path960" d="m 104.66026,870.71951 61.17835,35.32134 a 17.320508,17.320508 60.000002 0 1 8.66025,15 v 70.64267 a 17.320508,17.320508 120 0 1 -8.66025,14.99998 l -61.17836,35.3214 a 17.320508,17.320508 1.5352347e-6 0 1 -17.320506,0 l -61.178353,-35.3214 a 17.320508,17.320508 60.000002 0 1 -8.660253,-14.99998 l 2e-6,-70.64268 a 17.320508,17.320508 120 0 1 8.660254,-15 l 61.178354,-35.32133 a 17.320508,17.320508 1.5352347e-6 0 1 17.320512,0 z" style="fill:#73ada4;stroke:none;stroke-width:.908678;stroke-linecap:round;stroke-linejoin:round;stop-color:#000;fill-opacity:1"/><path id="path990-5" d="m 103.80788,955.96187 v 30.86416 c 0,0.55537 -0.18507,1.41681 -0.45348,1.90287 -1.33458,2.41683 -3.511733,4.82945 -4.846289,7.24629 -0.26836,0.48599 -0.76126,0.56862 -1.144406,0.16657 -3.239869,-3.39968 -7.574256,-7.61763 -9.270228,-9.25691 -0.398862,-0.38553 -0.723241,-1.14721 -0.723241,-1.70258 v -2.09828 a 2.4277297,2.4277297 0 0 1 0.711065,-1.71666 l 2.687283,-2.68728 c 0.39271,-0.39272 0.291006,-0.87479 -0.209779,-1.11467 -0.842939,-0.40378 -1.646167,-0.88571 -2.399113,-1.43947 -0.44732,-0.32898 -0.789456,-1.0728 -0.789456,-1.62818 v -4.56385 a 2.0922724,2.0922724 0 0 1 0.785241,-1.6338 l 2.538931,-2.03113 c 0.433676,-0.34694 0.415051,-0.88459 -0.03242,-1.21353 -0.874393,-0.64279 -1.722172,-1.32101 -2.541217,-2.03298 -0.419141,-0.36434 -0.75054,-1.11945 -0.75054,-1.67482 v -6.20763 a 0.95657462,0.95657462 0 0 1 1.004343,-0.95537 l 14.428956,0.72143 a 1.0571336,1.0571336 0 0 1 1.00434,1.05582 z" style="fill:#56595b;fill-opacity:1;stroke-width:.821883"/><path id="path992-3" d="m 103.80788,958.42752 v 30.86417 c 0,0.55537 -0.18602,1.41559 -0.41555,1.92131 -1.0924,2.40674 -2.18479,4.81001 -3.27718,7.20979 -0.23009,0.50547 -0.724606,0.58674 -1.10445,0.18158 L 88.058006,986.92149 a 1.038568,1.038568 0 0 1 0.02329,-1.44469 l 2.687293,-2.68734 a 1.0056062,1.0056062 0 0 0 -5e-6,-1.42213 l -2.687283,-2.68728 a 2.4277297,2.4277297 0 0 1 -0.711065,-1.71667 v -2.9201 a 2.4277256,2.4277256 0 0 1 0.711066,-1.71666 l 2.687281,-2.68727 a 1.0055989,1.0055989 0 0 0 10e-7,-1.42214 l -2.687283,-2.68729 a 2.427734,2.427734 0 0 1 -0.711065,-1.71666 v -6.20762 a 0.95657462,0.95657462 0 0 1 1.004343,-0.95538 l 14.428961,0.72144 a 1.0571336,1.0571336 0 0 1 1.00434,1.05582 z" style="fill:#ececec;fill-opacity:1;stroke-width:.821883"/><line id="line994-5" x1="98.055" x2="98.055" y1="957.422" y2="983.722" class="cls-5" style="fill:none;fill-opacity:1;stroke:#a0a5af;stroke-width:4.10941px;stroke-linecap:round;stroke-miterlimit:10;stroke-opacity:1"/><path id="path996-6" d="M 96.000001,913.86216 A 21.368939,21.368939 0 1 0 117.36894,935.2311 21.368939,21.368939 0 0 0 96.000001,913.86216 Z m 0,18.08141 a 4.1094115,4.1094115 0 1 1 4.109409,-4.10941 4.1094115,4.1094115 0 0 1 -4.109409,4.10941 z" class="cls-6" style="fill:#c39a54;fill-opacity:1;stroke-width:.821883"/><path id="path998-2" d="m 96.000001,917.14969 a 21.368939,21.368939 0 1 0 21.368939,21.36894 21.368939,21.368939 0 0 0 -21.368939,-21.36894 z m 0,18.08141 a 4.1094115,4.1094115 0 1 1 4.109409,-4.10941 4.1094115,4.1094115 0 0 1 -4.109409,4.10941 z" class="cls-7" style="fill:#f9de81;fill-opacity:1;stroke-width:.821883"/></g><style id="style853" type="text/css"/></svg>