<svg xmlns="http://www.w3.org/2000/svg" xmlns:xlink="http://www.w3.org/1999/xlink" width="100%" height="100%" version="1.1" viewBox="0 0 192 192" xml:space="preserve" style="fill-rule:evenodd;clip-rule:evenodd;stroke-linecap:round;stroke-linejoin:round;stroke-miterlimit:1.5"><g id="Layer1"><g><path d="M164.5,21.5C164.5,15.981 160.019,11.5 154.5,11.5L21.5,11.5C15.981,11.5 11.5,15.981 11.5,21.5L11.5,154.5C11.5,160.019 15.981,164.5 21.5,164.5L154.5,164.5C160.019,164.5 164.5,160.019 164.5,154.5L164.5,21.5Z" transform="matrix(1,0,0,1,8,8)" style="fill:#ba6561"/></g><g><g><path d="M146.084,36.153L141.751,41.567L112.945,46.653L110.192,66.519L126.164,64.056L127.824,66.334L125.396,68.756L109.066,71.455L97.446,143.135L92.803,147.511L103.948,73.088L102.187,70.561L105.161,67.589L109.497,42.415L146.084,36.153Z" transform="matrix(0.843863,0,0,0.843863,16.228,15.8328) matrix(1,0,0,1,0,10.2788)" style="fill:#f9de81;stroke:#4a4a4a;stroke-width:1.78px"/></g><g><path d="M71.651,83.404L64.078,135.925L57.648,130.737L64.58,80.682L59.663,76.748L65.855,70.708L69.883,36.311L83.847,21.959L74.609,73.488L117.258,31.175L117.142,39.156L86.003,69.613L105.807,96.77L104.597,108.499L79.526,76.143L71.651,83.404Z" transform="matrix(0.843863,0,0,0.843863,16.228,15.8328) matrix(0.69411,0,0,0.69411,21.7713,34.6046)" style="fill:#f9de81;stroke:#4a4a4a;stroke-width:2.56px"/></g></g></g></svg>