<svg xmlns="http://www.w3.org/2000/svg" xmlns:svg="http://www.w3.org/2000/svg" id="svg2" width="192" height="192" version="1.1" viewBox="0 0 192 192"><metadata id="metadata7"/><g id="layer1" transform="translate(0,-860.36216)"><rect id="rect1003" width="152" height="152" x="20" y="880.362" rx="9.935" ry="9.935" style="fill:#d3b69a;fill-opacity:1;fill-rule:evenodd;stroke:none;stroke-width:.993464;stroke-opacity:1"/><circle id="circle969" cx="96" cy="956.362" r="45.268" style="fill:#8e6f60;fill-opacity:1;fill-rule:evenodd;stroke:none;stroke-width:.720285;stroke-opacity:1"/><path style="fill:#56595b;fill-opacity:1;fill-rule:evenodd;stroke:none;stroke-width:.720567;stroke-miterlimit:4;stroke-dasharray:none;stroke-opacity:1" id="circle989" d="m 95.905533,917.69014 a 45.267961,45.267961 0 0 0 -45.052376,41.96879 45.267961,45.267961 0 0 0 45.146846,41.97117 45.267961,45.267961 0 0 0 45.146837,-41.97117 45.267961,45.267961 0 0 0 -45.146837,-41.96879 45.267961,45.267961 0 0 0 -0.09447,0 z"/><path id="path925" d="m 81.154803,967.24868 c 0,0 3.662643,6.2478 14.845043,6.2478 11.182404,0 14.887924,-6.11639 14.845034,-6.2478" style="fill:none;fill-opacity:1;stroke:#fff;stroke-width:5.22;stroke-linecap:round;stroke-linejoin:round;stroke-miterlimit:4;stroke-dasharray:none;stroke-opacity:1;paint-order:normal"/><ellipse id="path1049" cx="319.091" cy="893.1" rx="3.493" ry="4.586" transform="rotate(15)" style="fill:#fff;fill-opacity:1;stroke:none;stroke-width:4.02226;stroke-linecap:round;stroke-linejoin:round;stroke-miterlimit:4;stroke-dasharray:none;stroke-opacity:1;paint-order:normal;stop-color:#000"/><ellipse id="ellipse1053" cx="133.633" cy="942.794" rx="3.493" ry="4.586" transform="matrix(-0.96592583,0.25881905,0.25881905,0.96592583,0,0)" style="fill:#fff;fill-opacity:1;stroke:none;stroke-width:4.02226;stroke-linecap:round;stroke-linejoin:round;stroke-miterlimit:4;stroke-dasharray:none;stroke-opacity:1;paint-order:normal;stop-color:#000"/></g><style id="style853" type="text/css"/><style id="style853-9" type="text/css"/><style id="style853-3" type="text/css"/></svg>