<svg xmlns="http://www.w3.org/2000/svg" xmlns:svg="http://www.w3.org/2000/svg" id="svg2" width="192" height="192" version="1.1" viewBox="0 0 192 192"><defs id="defs4"><style id="style907"/><style id="style907-0"/></defs><metadata id="metadata7"/><g id="layer1" transform="translate(0,-860.36216)"><path style="fill:#97db99;fill-opacity:1;stroke-width:6.28459" id="path1179" fill="#14bf96" d="M 24.701334,904.82852 A 22.373139,22.373139 0 0 0 14.33176,922.42538 v 67.87358 a 22.373139,22.373139 0 0 0 10.369574,17.59684 l 60.89767,34.0625 a 23.567211,23.567211 0 0 0 20.739146,0 l 60.96051,-34.0625 a 22.373139,22.373139 0 0 0 10.36958,-17.59684 V 922.42538 A 22.373139,22.373139 0 0 0 167.29866,904.82852 L 106.401,870.76605 a 23.567211,23.567211 0 0 0 -20.739146,0 z"/><g id="g1185" transform="matrix(0.9998788,0,0,0.9998788,-75.478224,590.31374)"><path style="fill:#fff;fill-opacity:1;stroke-width:4.24994" id="path1181" d="m 129.12683,356.63815 c -0.072,0.7696 -0.11706,1.59463 -0.12782,2.27425 -0.2782,17.57066 10.7355,33.35634 27.1582,39.60937 4.91814,1.78753 10.10913,2.7048 15.3418,2.7168 5.23267,-0.012 10.42366,-0.92927 15.3418,-2.7168 16.4227,-6.25303 27.4364,-22.03871 27.1582,-39.60937 -0.0108,-0.68009 -0.0559,-1.50578 -0.12796,-2.27583 -0.10272,-1.09785 -1.19389,-1.97943 -2.29703,-1.9255 -21.85423,1.0683 -37.95001,19.58806 -37.95001,42.1525 v 0.97852 h -2.125 -2.125 v -0.97852 c 0,-22.56444 -16.09578,-41.0842 -37.95001,-42.1525 -1.10314,-0.0539 -2.19444,0.82835 -2.29717,1.92708 z"/><circle style="stroke-width:4.24994" id="circle1183" cx="171.287" cy="343.697" r="12.75" fill="#fff"/></g></g><style id="style853" type="text/css"/><style id="style853-9" type="text/css"/><style id="style853-3" type="text/css"/><style id="style853-562" type="text/css"/><style id="style853-9-9" type="text/css"/><style id="style853-3-1" type="text/css"/><style id="style853-56" type="text/css"/><style id="style853-9-2" type="text/css"/><style id="style853-3-9" type="text/css"/><style id="style920" type="text/css"/><style id="style853-5" type="text/css"/><style id="style853-0" type="text/css"/><style id="style853-9-6" type="text/css"/><style id="style853-3-2" type="text/css"/><style id="style920-6" type="text/css"/><style id="style853-5-1" type="text/css"/></svg>