<svg xmlns="http://www.w3.org/2000/svg" xmlns:svg="http://www.w3.org/2000/svg" id="svg2" width="192" height="192" version="1.1" viewBox="0 0 192 192"><metadata id="metadata7"/><g id="layer1" transform="translate(0,-860.36216)"><path style="fill:#ff837d;fill-opacity:1;stroke-width:5.65505;stroke-linecap:round;stroke-linejoin:round;stop-color:#000" id="path949" d="m 64.45169,898.99098 -54.381698,55.19794 a 3.0959684,3.0959684 0 0 0 0,4.34562 l 54.381698,55.19786 a 7.2869303,7.2869303 0 0 0 5.190872,2.1728 H 181.54374 a 1.2767585,1.2767585 0 0 0 0.90951,-2.1728 l -56.52237,-57.37067 56.52237,-57.37075 a 1.2767591,1.2767591 0 0 0 -0.90951,-2.17281 H 69.642562 a 7.2869268,7.2869268 0 0 0 -5.190872,2.17281 z"/><path style="fill:#ba6561;fill-opacity:1;stroke-width:5.65505;stroke-linecap:round;stroke-linejoin:round;stop-color:#000" id="path975" d="m 67.062331,1015.4335 a 7.2869268,7.2869268 0 0 0 2.579553,0.4726 H 181.54368 a 1.2767591,1.2767591 0 0 0 0.9095,-2.1725 l -56.52182,-57.37173 z"/></g><style id="style853" type="text/css"/><style id="style853-9" type="text/css"/><style id="style853-3" type="text/css"/></svg>