<svg xmlns="http://www.w3.org/2000/svg" xmlns:svg="http://www.w3.org/2000/svg" id="svg6550" width="192" height="192" version="1.1" viewBox="0 0 192 192"><metadata id="metadata6555"/><g id="layer3" style="display:inline"><circle style="fill:#96ded3;fill-opacity:1;fill-rule:evenodd;stroke:none" id="circle12581" cx="96" cy="96" r="88"/><path id="path12583" d="M 156.56641 69.007812 C 144.11953 69.135113 125.09075 68.802816 102.00195 83.103516 C 98.164158 85.480616 93.343711 83.98075 91.806641 82.96875 C 86.005221 79.14915 82.655407 77.919237 78.091797 76.898438 C 46.040457 69.728737 18.916277 107.74751 43.998047 136.59961 C 47.856527 141.03801 47.667127 144.7914 45.748047 150.3418 C 43.665477 156.3653 43.248729 161.7884 43.136719 166.2168 C 43.146136 166.27072 43.158445 166.32118 43.167969 166.375 A 88 88 0 0 0 96 184 A 88 88 0 0 0 155.28125 161.03516 C 155.26488 161.00645 155.25282 160.97793 155.23633 160.94922 C 151.04487 142.17322 137.51452 117.76147 110.30469 109.69727 C 106.11732 108.45617 103.3265 101.47614 107.52344 97.744141 C 127.0787 80.354941 147.09612 73.572612 157.00195 70.882812 C 157.54705 70.734813 157.81991 70.299244 157.83398 69.839844 C 157.84898 69.350044 157.14403 69.001812 156.56641 69.007812 z M 78.111328 95.691406 C 80.56559 95.690811 82.555304 97.680504 82.554688 100.13477 C 82.554199 102.58825 80.564809 104.57676 78.111328 104.57617 C 75.658613 104.57568 73.67041 102.58749 73.669922 100.13477 C 73.669305 97.68127 75.657832 95.691894 78.111328 95.691406 z" style="fill:#fff;fill-opacity:1;fill-rule:evenodd;stroke:none;stroke-width:1px;stroke-linecap:butt;stroke-linejoin:miter;stroke-opacity:1"/></g></svg>