<svg xmlns="http://www.w3.org/2000/svg" xmlns:svg="http://www.w3.org/2000/svg" id="svg2" width="192" height="192" version="1.1" viewBox="0 0 192 192"><metadata id="metadata7"/><g id="layer1" transform="translate(0,-860.36216)"><g id="g1055"><circle style="fill:#fefefe;fill-opacity:1;fill-rule:evenodd;stroke:none;stroke-width:1.00568;stroke-opacity:1" id="circle893" cx="96" cy="956.362" r="88.5"/><path id="path867" d="m 112.8688,976.16465 c -0.48896,0.48895 -16.868796,-26.40332 -16.868796,-26.40332 0,0 -16.379841,26.89227 -16.868772,26.40332 L 34.88122,1020.4146 c 15.890885,15.1575 37.404702,24.4476 61.118784,24.4476 23.714086,0 45.227896,-9.2901 61.118786,-24.4476 z" style="stroke-width:2.44475;fill:#98db9a;fill-opacity:1"/><path id="XMLID_104_" d="m 184.5,956.36216 c 0,20.78039 -7.08977,39.84945 -19.06906,54.76244 l -45.2279,-45.22791 c 1.22238,-2.9337 1.71134,-6.11188 1.71134,-9.53453 0,-14.42403 -11.73483,-25.91436 -25.914376,-25.91436 -14.179551,0 -25.914372,11.7348 -25.914372,25.91436 0,3.42265 0.733447,6.60083 1.711334,9.53453 L 26.569067,1011.3691 C 14.589781,996.21161 7.5000053,977.14255 7.5000053,956.36216 c 0,-48.89503 39.6049667,-88.5 88.4999987,-88.5 48.895036,0 88.499996,39.60497 88.499996,88.5 z" style="stroke-width:2.44475;fill:#98db9a;fill-opacity:1"/></g></g><style id="style850" type="text/css"/></svg>