<svg xmlns="http://www.w3.org/2000/svg" xmlns:svg="http://www.w3.org/2000/svg" id="svg2" width="192" height="192" version="1.1" viewBox="0 0 192 192"><metadata id="metadata7"/><g id="layer1" transform="translate(0,-860.36216)"><rect style="fill:#8b70bc;fill-opacity:1;fill-rule:evenodd;stroke:none;stroke-opacity:1" id="rect2132" width="153" height="153" x="19.5" y="879.862" rx="10"/><path id="path2121" d="m 96.485186,904.59927 c -20.315808,0 -36.985187,16.40892 -36.985187,36.98519 v 15.88801 c 0,2.86505 2.344133,5.20918 5.20918,5.20918 2.865053,0 5.209181,-2.34413 5.209181,-5.20918 v -15.88801 c 0,-2.86505 2.344133,-5.20918 5.209185,-5.20918 2.865048,0 5.209181,2.34413 5.209181,5.20918 v 15.88801 c 0,2.86505 2.344133,5.20918 5.20918,5.20918 2.865052,0 5.209181,-2.34413 5.209181,-5.20918 v -15.88801 c 0,-2.86505 2.344133,-5.20918 5.20918,-5.20918 2.865051,0 5.209183,2.34413 5.209183,5.20918 v 15.88801 c 0,2.86505 2.34413,5.20918 5.20918,5.20918 2.86505,0 5.20918,-2.34413 5.20918,-5.20918 v -15.88801 c 0,-2.86505 2.34414,-5.20918 5.20918,-5.20918 2.86506,0 5.20918,2.34413 5.20918,5.20918 v 15.88801 c 0,2.86505 2.34414,5.20918 5.20919,5.20918 2.86505,0 5.20918,-2.34413 5.20918,-5.20918 v -15.88801 c 1.3023,-20.57627 -15.36708,-36.98519 -35.943354,-36.98519 z" class="st0" style="fill:#fefefe;fill-opacity:1;stroke-width:2.60459"/><rect style="fill:#fefefe;fill-opacity:1;stroke-width:13.4684;stroke-linecap:round;stroke-linejoin:round;stop-color:#000" id="rect2126" width="73" height="34.241" x="59.5" y="973.884" rx="5.216" ry="5.216"/><text style="font-style:normal;font-variant:normal;font-weight:700;font-stretch:normal;font-size:29.2019px;line-height:1.25;font-family:Now;-inkscape-font-specification:'Now Bold';letter-spacing:0;word-spacing:0;fill:#8b70bc;fill-opacity:1;stroke-width:.730047" id="text2108" x="64.17" y="1001.955" xml:space="preserve"><tspan id="tspan2106" x="64.17" y="1001.955" style="fill:#8b70bc;fill-opacity:1;stroke-width:.730047">PRO</tspan></text></g><style id="style853" type="text/css">.st0{fill:#fff}</style><style id="style2075" type="text/css">.st0{fill:#5841d8}</style></svg>