<svg xmlns="http://www.w3.org/2000/svg" xmlns:svg="http://www.w3.org/2000/svg" id="svg2" width="192" height="192" version="1.1" viewBox="0 0 192 192"><metadata id="metadata7"/><g id="layer1" transform="translate(0,-860.36216)"><rect style="fill:#bc99fe;fill-opacity:1;fill-rule:evenodd;stroke:none;stroke-opacity:1" id="rect2132" width="153" height="153" x="19.5" y="879.862" rx="10"/><path id="path2121" d="M 96.485187,927.32097 C 76.169379,927.32097 59.5,943.72989 59.5,964.30616 v 15.88801 c 0,2.86505 2.344133,5.20918 5.20918,5.20918 2.865053,0 5.209181,-2.34413 5.209181,-5.20918 v -15.88801 c 0,-2.86505 2.344133,-5.20918 5.209185,-5.20918 2.865048,0 5.209181,2.34413 5.209181,5.20918 v 15.88801 c 0,2.86505 2.344133,5.20918 5.20918,5.20918 2.865052,0 5.209181,-2.34413 5.209181,-5.20918 v -15.88801 c 0,-2.86505 2.344133,-5.20918 5.20918,-5.20918 2.865051,0 5.209182,2.34413 5.209182,5.20918 v 15.88801 c 0,2.86505 2.34413,5.20918 5.20918,5.20918 2.86505,0 5.20918,-2.34413 5.20918,-5.20918 v -15.88801 c 0,-2.86505 2.34414,-5.20918 5.20918,-5.20918 2.86506,0 5.20918,2.34413 5.20918,5.20918 v 15.88801 c 0,2.86505 2.34414,5.20918 5.20919,5.20918 2.86505,0 5.20918,-2.34413 5.20918,-5.20918 v -15.88801 c 1.3023,-20.57627 -15.36708,-36.98519 -35.943353,-36.98519 z" class="st0" style="stroke-width:2.60459;fill:#fefefe;fill-opacity:1"/></g><style id="style853" type="text/css">.st0{fill:#fff}</style><style id="style2075" type="text/css">.st0{fill:#5841d8}</style></svg>