<svg xmlns="http://www.w3.org/2000/svg" xmlns:svg="http://www.w3.org/2000/svg" id="svg2" width="192" height="192" version="1.1" viewBox="0 0 192 192"><metadata id="metadata7"/><g id="layer1" transform="translate(0,-860.36216)"><rect id="rect907" width="153" height="153" x="19.5" y="879.862" rx="10" style="fill:#fff;fill-opacity:1;fill-rule:evenodd;stroke:none;stroke-opacity:1"/><path id="path913" d="M 94.186835,973.86325 79.208422,956.59866 93.004329,942.32975 H 80.942765 L 69.984873,953.68181 V 919.86213 H 59.972987 v 54.00112 h 10.011886 v -14.50541 l 11.115559,14.50541 z" style="font-weight:700;font-size:63.067px;line-height:1.25;font-family:Now;-inkscape-font-specification:'Now Bold';letter-spacing:0;word-spacing:0;fill:#ff837d;fill-opacity:1;stroke-width:1"/><path id="path915" d="m 116.49677,941.69908 c -3.62636,0 -6.62204,1.26134 -8.98705,3.38985 v -2.68034 l -10.090722,-0.0788 v 50.4536 l 10.090722,0.0788 v -21.75812 c 2.36501,2.12851 5.36069,3.38985 8.98705,3.38985 8.67171,0 15.53025,-7.2527 15.53025,-16.39742 0,-9.14471 -6.85854,-16.39742 -15.53025,-16.39742 z m -1.97085,23.88663 c -4.17819,0 -7.4892,-3.31102 -7.4892,-7.48921 0,-4.17819 3.31101,-7.4892 7.4892,-7.4892 4.17819,0 7.48921,3.31101 7.48921,7.4892 0,4.17819 -3.31102,7.48921 -7.48921,7.48921 z" style="font-weight:700;font-size:63.067px;line-height:1.25;font-family:Now;-inkscape-font-specification:'Now Bold';letter-spacing:0;word-spacing:0;fill:#708cbd;fill-opacity:1;stroke-width:1"/></g><style id="style853" type="text/css"/></svg>