<svg xmlns="http://www.w3.org/2000/svg" xmlns:svg="http://www.w3.org/2000/svg" id="Clover" width="192" height="192" x="0" y="0" enable-background="new 0 0 512 512" version="1.1" viewBox="0 0 98304 98304" xml:space="preserve"><metadata id="metadata67"/><linearGradient id="SVGID_1_" x1="143.142" x2="143.142" y1="192" y2="77.72" gradientTransform="translate(98.94701,97.412948)" gradientUnits="userSpaceOnUse"><stop id="stop6" offset="0" stop-color="#298122"/><stop id="stop8" offset=".286" stop-color="#016701"/><stop id="stop10" offset=".286" stop-color="#44942E"/><stop id="stop12" offset="1" stop-color="#85BF5A"/></linearGradient><linearGradient id="SVGID_2_" x1="369.391" x2="369.391" y1="192" y2="77.72" gradientUnits="userSpaceOnUse"><stop id="stop21" offset="0" stop-color="#298122"/><stop id="stop23" offset=".286" stop-color="#016701"/><stop id="stop25" offset=".286" stop-color="#44942E"/><stop id="stop27" offset="1" stop-color="#85BF5A"/></linearGradient><linearGradient id="SVGID_3_" x1="369.391" x2="369.391" y1="413" y2="316.917" gradientUnits="userSpaceOnUse"><stop id="stop36" offset="0" stop-color="#298122"/><stop id="stop38" offset=".286" stop-color="#016701"/><stop id="stop40" offset=".286" stop-color="#44942E"/><stop id="stop42" offset="1" stop-color="#85BF5A"/></linearGradient><linearGradient id="SVGID_4_" x1="157.359" x2="157.359" y1="413" y2="316.917" gradientUnits="userSpaceOnUse"><stop id="stop51" offset="0" stop-color="#298122"/><stop id="stop53" offset=".286" stop-color="#016701"/><stop id="stop55" offset=".286" stop-color="#44942E"/><stop id="stop57" offset="1" stop-color="#85BF5A"/></linearGradient><g id="g1168" transform="translate(-109949,-2010.1992)"><circle id="circle1139" cx="159101" cy="51162.199" r="45056" style="opacity:1;fill:#72a373;fill-opacity:1;fill-rule:evenodd;stroke:none;stroke-width:512"/><path id="path1141" d="m 153645.33,64671.299 c 2349.17,0 4527.69,-1655.207 4296.9,-3993.009 -157.02,-1590.482 -901.38,-3016.585 -716.52,-6614.148 94.91,-1846.897 386.19,-1808.559 -1478.28,-1775.513 -3867.24,0 -10753.69,1650.97 -11069.03,5255.097 -393.4,3440.116 2419.36,5398.733 5138.23,4728.343 689.04,1419.973 2144.4,2399.23 3828.7,2399.23 z" style="opacity:1;fill:#98db9a;fill-opacity:1;stroke:none;stroke-width:3982.48876953;stroke-linecap:round;stroke-linejoin:round;stroke-miterlimit:10;stroke-dasharray:none;stroke-dashoffset:0;stroke-opacity:1;paint-order:normal"/><path style="opacity:1;fill:#98db9a;fill-opacity:1;stroke:none;stroke-width:3982.48876953;stroke-linecap:round;stroke-linejoin:round;stroke-miterlimit:10;stroke-dasharray:none;stroke-dashoffset:0;stroke-opacity:1;paint-order:normal" id="path1143" d="m 173457.75,56219.233 c 0,-2349.167 -1655.21,-4527.69 -3993.01,-4296.892 -1590.48,157.02 -3016.59,901.373 -6614.15,716.511 -1846.9,-94.903 -1808.56,-386.184 -1775.52,1478.281 0,3867.249 1650.98,10753.694 5255.1,11069.038 3440.12,393.391 5398.74,-2419.365 4728.35,-5138.23 1419.97,-689.044 2399.23,-2144.4 2399.23,-3828.708 z"/><path id="path1145" d="m 165005.68,36406.823 c -2349.17,0 -4527.69,1655.206 -4296.89,3993.008 157.02,1590.482 901.37,3016.585 716.51,6614.148 -94.91,1846.897 -386.19,1808.56 1478.28,1775.513 3867.25,0 10753.69,-1650.97 11069.04,-5255.097 393.39,-3440.116 -2419.37,-5398.733 -5138.23,-4728.343 -689.04,-1419.973 -2144.4,-2399.229 -3828.71,-2399.229 z" style="opacity:1;fill:#98db9a;fill-opacity:1;stroke:none;stroke-width:3982.48876953;stroke-linecap:round;stroke-linejoin:round;stroke-miterlimit:10;stroke-dasharray:none;stroke-dashoffset:0;stroke-opacity:1;paint-order:normal"/><path style="opacity:1;fill:#98db9a;fill-opacity:1;stroke:none;stroke-width:3982.48876953;stroke-linecap:round;stroke-linejoin:round;stroke-miterlimit:10;stroke-dasharray:none;stroke-dashoffset:0;stroke-opacity:1;paint-order:normal" id="path1147" d="m 145193.27,44858.888 c 0,2349.167 1655.2,4527.69 3993.01,4296.892 1590.48,-157.02 3016.58,-901.373 6614.14,-716.511 1846.9,94.903 1808.56,386.184 1775.52,-1478.281 0,-3867.249 -1650.97,-10753.694 -5255.1,-11069.038 -3440.12,-393.391 -5398.73,2419.365 -4728.34,5138.23 -1419.98,689.044 -2399.23,2144.4 -2399.23,3828.708 z"/></g></svg>