<svg xmlns="http://www.w3.org/2000/svg" xmlns:xlink="http://www.w3.org/1999/xlink" id="Layer_1" width="192" height="192" x="0" y="0" enable-background="new 0 0 192 192" version="1.1" viewBox="0 0 192 192" xml:space="preserve"><g><circle cx="96.5" cy="96.5" r="86.5" fill="#C5635F"/><path fill="#738DBC" d="M182.018,83.435c-1.206,0.464-2.383,1.183-3.495,1.553c-4.317,1.439-4.796,4.797-7.195,4.797 c-2.397,0-5.275,2.878-7.674,4.797s-5.276,1.918-8.154,1.439c-2.879-0.48-3.357,2.878-3.357,2.878l-2.399,0.479 c-5.755,0.479-11.511,9.113-11.511,9.113c-3.358-7.195-11.512-3.837-22.065,0.959c-10.553,4.798-6.716,17.27-8.154,19.667 c-1.438,2.398-7.194,6.235-9.113,8.154c-1.919,1.919-7.675,2.398-7.675,2.398s-2.878-9.113-7.195-11.513 c-4.317-2.398-12.951-5.755-13.91-7.674c-0.959-1.918-3.358,0.479-9.593,3.357c-6.236,2.879,0,0-2.399,7.194 c-2.397,7.195,0.959,11.992-0.479,12.472c-1.439,0.48-2.878,1.92-2.878,1.92s-2.878-4.317-10.553-5.276 c-7.675-0.96-12.472,3.356-12.472,3.356c0-4.796-6.235-7.674-9.593-7.195c-0.816,0.117-1.689,0.033-2.544-0.158 C33.986,163.978,63.021,183,96.5,183c47.772,0,86.5-38.728,86.5-86.5C183,92.058,182.664,87.696,182.018,83.435z"/><g opacity=".3"><ellipse cx="55.408" cy="46.615" fill="#FF877F" rx=".399" ry=".6"/><ellipse cx="63.082" cy="43.737" fill="#FF877F" rx=".399" ry=".6"/><ellipse cx="58.286" cy="51.411" fill="#FF877F" rx=".399" ry=".6"/><ellipse cx="37.181" cy="58.127" fill="#FF877F" rx=".399" ry=".6"/><ellipse cx="40.059" cy="71.558" fill="#FF877F" rx=".399" ry=".6"/><ellipse cx="44.855" cy="55.249" fill="#FF877F" rx=".399" ry=".599"/><ellipse cx="41.018" cy="64.842" fill="#FF877F" rx=".399" ry=".6"/><ellipse cx="30.465" cy="69.639" fill="#FF877F" rx=".399" ry=".6"/><path fill="#FF877F" d="M29.506,84.389c-0.22,0-0.399,0.268-0.399,0.599c0,0.202,0.07,0.372,0.172,0.479 c-0.102,0.109-0.172,0.278-0.172,0.48c0,0.332,0.179,0.6,0.399,0.6c0.222,0,0.4-0.268,0.4-0.6c0-0.202-0.07-0.371-0.171-0.48 c0.102-0.108,0.171-0.278,0.171-0.479C29.906,84.656,29.728,84.389,29.506,84.389z"/><ellipse cx="39.1" cy="84.029" fill="#FF877F" rx=".399" ry=".599"/><ellipse cx="50.611" cy="76.354" fill="#FF877F" rx=".399" ry=".6"/><ellipse cx="48.693" cy="86.907" fill="#FF877F" rx=".399" ry=".6"/><ellipse cx="41.978" cy="77.313" fill="#FF877F" rx=".399" ry=".599"/><ellipse cx="30.465" cy="77.313" fill="#FF877F" rx=".399" ry=".599"/><ellipse cx="47.733" cy="36.062" fill="#FF877F" rx=".399" ry=".6"/><ellipse cx="55.408" cy="33.184" fill="#FF877F" rx=".399" ry=".599"/><ellipse cx="50.611" cy="40.859" fill="#FF877F" rx=".399" ry=".599"/><ellipse cx="29.506" cy="47.574" fill="#FF877F" rx=".399" ry=".599"/><ellipse cx="32.384" cy="61.005" fill="#FF877F" rx=".399" ry=".599"/><ellipse cx="41.978" cy="51.411" fill="#FF877F" rx=".399" ry=".6"/><ellipse cx="37.181" cy="44.696" fill="#FF877F" rx=".399" ry=".6"/><ellipse cx="33.344" cy="54.289" fill="#FF877F" rx=".399" ry=".599"/><ellipse cx="22.791" cy="59.086" fill="#FF877F" rx=".399" ry=".6"/><ellipse cx="21.832" cy="74.435" fill="#FF877F" rx=".399" ry=".6"/><ellipse cx="31.424" cy="73.476" fill="#FF877F" rx=".399" ry=".6"/><ellipse cx="42.937" cy="65.801" fill="#FF877F" rx=".399" ry=".6"/><ellipse cx="41.018" cy="76.354" fill="#FF877F" rx=".399" ry=".6"/><ellipse cx="34.303" cy="66.761" fill="#FF877F" rx=".399" ry=".6"/><ellipse cx="22.791" cy="66.761" fill="#FF877F" rx=".399" ry=".6"/><ellipse cx="52.53" cy="38.94" fill="#FF877F" rx=".399" ry=".599"/><ellipse cx="60.205" cy="36.062" fill="#FF877F" rx=".4" ry=".6"/><ellipse cx="55.408" cy="43.737" fill="#FF877F" rx=".399" ry=".6"/><ellipse cx="34.303" cy="50.452" fill="#FF877F" rx=".399" ry=".6"/><ellipse cx="37.181" cy="63.883" fill="#FF877F" rx=".399" ry=".6"/><ellipse cx="46.774" cy="54.289" fill="#FF877F" rx=".399" ry=".599"/><ellipse cx="41.978" cy="47.574" fill="#FF877F" rx=".399" ry=".599"/><ellipse cx="38.14" cy="57.167" fill="#FF877F" rx=".399" ry=".6"/><ellipse cx="27.587" cy="61.964" fill="#FF877F" rx=".399" ry=".599"/><ellipse cx="26.628" cy="77.313" fill="#FF877F" rx=".399" ry=".599"/><ellipse cx="36.221" cy="76.354" fill="#FF877F" rx=".399" ry=".6"/><ellipse cx="47.733" cy="68.679" fill="#FF877F" rx=".399" ry=".599"/><ellipse cx="45.815" cy="79.232" fill="#FF877F" rx=".399" ry=".6"/><ellipse cx="27.587" cy="69.639" fill="#FF877F" rx=".399" ry=".6"/><ellipse cx="76.513" cy="36.062" fill="#FF877F" rx=".4" ry=".6"/><ellipse cx="84.188" cy="33.184" fill="#FF877F" rx=".399" ry=".599"/><ellipse cx="79.392" cy="40.859" fill="#FF877F" rx=".399" ry=".599"/><ellipse cx="58.286" cy="47.574" fill="#FF877F" rx=".399" ry=".599"/><ellipse cx="61.164" cy="61.005" fill="#FF877F" rx=".399" ry=".599"/><ellipse cx="70.757" cy="51.411" fill="#FF877F" rx=".399" ry=".6"/><ellipse cx="65.961" cy="44.696" fill="#FF877F" rx=".399" ry=".6"/><ellipse cx="51.571" cy="59.086" fill="#FF877F" rx=".399" ry=".6"/><ellipse cx="50.611" cy="74.435" fill="#FF877F" rx=".399" ry=".6"/><ellipse cx="60.205" cy="73.476" fill="#FF877F" rx=".399" ry=".6"/><ellipse cx="71.717" cy="65.801" fill="#FF877F" rx=".399" ry=".6"/><ellipse cx="63.082" cy="66.761" fill="#FF877F" rx=".399" ry=".6"/><ellipse cx="51.571" cy="66.761" fill="#FF877F" rx=".399" ry=".6"/><ellipse cx="75.554" cy="23.591" fill="#FF877F" rx=".4" ry=".6"/><ellipse cx="83.229" cy="20.713" fill="#FF877F" rx=".399" ry=".6"/><ellipse cx="78.433" cy="28.387" fill="#FF877F" rx=".4" ry=".599"/><ellipse cx="57.327" cy="35.103" fill="#FF877F" rx=".399" ry=".6"/><ellipse cx="60.205" cy="48.534" fill="#FF877F" rx=".399" ry=".6"/><ellipse cx="69.798" cy="38.94" fill="#FF877F" rx=".4" ry=".599"/><ellipse cx="65.002" cy="32.225" fill="#FF877F" rx=".4" ry=".6"/><ellipse cx="61.164" cy="41.818" fill="#FF877F" rx=".399" ry=".599"/><ellipse cx="50.611" cy="46.615" fill="#FF877F" rx=".399" ry=".6"/><ellipse cx="49.652" cy="61.964" fill="#FF877F" rx=".399" ry=".599"/><ellipse cx="59.245" cy="61.005" fill="#FF877F" rx=".399" ry=".599"/><ellipse cx="70.757" cy="53.33" fill="#FF877F" rx=".399" ry=".6"/><path fill="#FF877F" d="M68.839,63.283c-0.221,0-0.399,0.268-0.399,0.6c0,0.202,0.069,0.371,0.171,0.479 c-0.102,0.109-0.171,0.278-0.171,0.479c0,0.332,0.178,0.6,0.399,0.6c0.221,0,0.4-0.268,0.4-0.6c0-0.201-0.071-0.371-0.173-0.479 c0.102-0.108,0.173-0.278,0.173-0.479C69.239,63.551,69.06,63.283,68.839,63.283z"/><ellipse cx="62.123" cy="54.289" fill="#FF877F" rx=".399" ry=".599"/><ellipse cx="50.611" cy="54.289" fill="#FF877F" rx=".399" ry=".599"/><ellipse cx="64.042" cy="37.981" fill="#FF877F" rx=".4" ry=".6"/><ellipse cx="71.717" cy="35.103" fill="#FF877F" rx=".4" ry=".6"/><ellipse cx="66.92" cy="42.778" fill="#FF877F" rx=".4" ry=".6"/><ellipse cx="45.815" cy="49.493" fill="#FF877F" rx=".399" ry=".6"/><ellipse cx="48.693" cy="62.924" fill="#FF877F" rx=".399" ry=".6"/><ellipse cx="58.286" cy="53.33" fill="#FF877F" rx=".399" ry=".6"/><ellipse cx="53.489" cy="46.615" fill="#FF877F" rx=".399" ry=".6"/><ellipse cx="49.652" cy="56.208" fill="#FF877F" rx=".399" ry=".6"/><ellipse cx="39.1" cy="61.005" fill="#FF877F" rx=".399" ry=".599"/><ellipse cx="38.14" cy="76.354" fill="#FF877F" rx=".399" ry=".6"/><ellipse cx="47.733" cy="75.395" fill="#FF877F" rx=".399" ry=".599"/><ellipse cx="59.245" cy="67.72" fill="#FF877F" rx=".399" ry=".599"/><ellipse cx="50.611" cy="68.679" fill="#FF877F" rx=".399" ry=".599"/><path fill="#FF877F" d="M39.1,68.08c-0.221,0-0.399,0.268-0.399,0.599c0,0.202,0.071,0.371,0.172,0.48 c-0.102,0.109-0.172,0.278-0.172,0.479c0,0.332,0.179,0.6,0.399,0.6c0.221,0,0.4-0.268,0.4-0.6c0-0.201-0.071-0.371-0.172-0.479 c0.101-0.109,0.172-0.278,0.172-0.48C39.5,68.348,39.321,68.08,39.1,68.08z"/><ellipse cx="93.782" cy="41.818" fill="#FF877F" rx=".4" ry=".599"/><ellipse cx="101.456" cy="38.94" fill="#FF877F" rx=".4" ry=".599"/><ellipse cx="96.659" cy="46.615" fill="#FF877F" rx=".399" ry=".6"/><ellipse cx="75.554" cy="53.33" fill="#FF877F" rx=".399" ry=".6"/><ellipse cx="78.433" cy="66.761" fill="#FF877F" rx=".4" ry=".6"/><ellipse cx="88.025" cy="57.167" fill="#FF877F" rx=".4" ry=".6"/><ellipse cx="83.229" cy="50.452" fill="#FF877F" rx=".399" ry=".6"/><ellipse cx="79.392" cy="60.045" fill="#FF877F" rx=".399" ry=".6"/><ellipse cx="67.88" cy="80.191" fill="#FF877F" rx=".399" ry=".6"/><ellipse cx="77.473" cy="79.232" fill="#FF877F" rx=".4" ry=".6"/><ellipse cx="87.066" cy="82.11" fill="#FF877F" rx=".399" ry=".599"/><ellipse cx="80.351" cy="72.517" fill="#FF877F" rx=".4" ry=".6"/><ellipse cx="68.839" cy="72.517" fill="#FF877F" rx=".399" ry=".6"/><ellipse cx="103.375" cy="53.33" fill="#FF877F" rx=".399" ry=".6"/><ellipse cx="111.05" cy="50.452" fill="#FF877F" rx=".399" ry=".6"/><ellipse cx="106.252" cy="58.127" fill="#FF877F" rx=".397" ry=".6"/><ellipse cx="85.147" cy="64.842" fill="#FF877F" rx=".399" ry=".6"/><ellipse cx="88.025" cy="78.273" fill="#FF877F" rx=".399" ry=".6"/><ellipse cx="97.619" cy="68.679" fill="#FF877F" rx=".399" ry=".599"/><ellipse cx="92.822" cy="61.964" fill="#FF877F" rx=".4" ry=".599"/><ellipse cx="88.984" cy="71.558" fill="#FF877F" rx=".399" ry=".6"/><ellipse cx="78.433" cy="76.354" fill="#FF877F" rx=".4" ry=".6"/><ellipse cx="77.473" cy="91.704" fill="#FF877F" rx=".4" ry=".6"/><ellipse cx="87.066" cy="90.744" fill="#FF877F" rx=".399" ry=".599"/><ellipse cx="98.578" cy="83.069" fill="#FF877F" rx=".399" ry=".6"/><ellipse cx="96.659" cy="93.622" fill="#FF877F" rx=".399" ry=".6"/><ellipse cx="89.943" cy="84.029" fill="#FF877F" rx=".401" ry=".599"/><ellipse cx="78.433" cy="84.029" fill="#FF877F" rx=".4" ry=".599"/><ellipse cx="120.643" cy="65.801" fill="#FF877F" rx=".399" ry=".6"/><ellipse cx="128.317" cy="62.924" fill="#FF877F" rx=".399" ry=".6"/><ellipse cx="123.521" cy="70.598" fill="#FF877F" rx=".398" ry=".6"/><ellipse cx="102.415" cy="77.313" fill="#FF877F" rx=".399" ry=".599"/><ellipse cx="105.293" cy="90.744" fill="#FF877F" rx=".399" ry=".599"/><ellipse cx="114.887" cy="81.15" fill="#FF877F" rx=".399" ry=".6"/><ellipse cx="110.09" cy="74.435" fill="#FF877F" rx=".4" ry=".6"/><ellipse cx="106.252" cy="84.029" fill="#FF877F" rx=".397" ry=".599"/><ellipse cx="95.7" cy="88.825" fill="#FF877F" rx=".399" ry=".599"/><ellipse cx="94.741" cy="104.174" fill="#FF877F" rx=".399" ry=".6"/><ellipse cx="104.335" cy="103.215" fill="#FF877F" rx=".4" ry=".6"/><ellipse cx="115.846" cy="95.541" fill="#FF877F" rx=".399" ry=".6"/><ellipse cx="113.927" cy="106.093" fill="#FF877F" rx=".398" ry=".6"/><ellipse cx="107.212" cy="96.5" fill="#FF877F" rx=".398" ry=".6"/><ellipse cx="95.7" cy="96.5" fill="#FF877F" rx=".399" ry=".6"/><ellipse cx="81.31" cy="78.273" fill="#FF877F" rx=".4" ry=".6"/><ellipse cx="88.984" cy="75.395" fill="#FF877F" rx=".399" ry=".599"/><ellipse cx="84.188" cy="83.069" fill="#FF877F" rx=".399" ry=".6"/><ellipse cx="63.082" cy="89.784" fill="#FF877F" rx=".399" ry=".6"/><ellipse cx="65.961" cy="103.215" fill="#FF877F" rx=".399" ry=".6"/><ellipse cx="75.554" cy="93.622" fill="#FF877F" rx=".399" ry=".6"/><ellipse cx="70.757" cy="86.907" fill="#FF877F" rx=".399" ry=".6"/><ellipse cx="66.92" cy="96.5" fill="#FF877F" rx=".399" ry=".6"/><ellipse cx="56.367" cy="101.297" fill="#FF877F" rx=".399" ry=".6"/><ellipse cx="55.408" cy="116.646" fill="#FF877F" rx=".399" ry=".6"/><ellipse cx="65.002" cy="115.687" fill="#FF877F" rx=".4" ry=".6"/><ellipse cx="76.513" cy="108.012" fill="#FF877F" rx=".399" ry=".599"/><ellipse cx="74.594" cy="118.564" fill="#FF877F" rx=".399" ry=".6"/><ellipse cx="67.879" cy="108.972" fill="#FF877F" rx=".399" ry=".6"/><ellipse cx="56.367" cy="108.972" fill="#FF877F" rx=".399" ry=".6"/><ellipse cx="62.123" cy="79.232" fill="#FF877F" rx=".399" ry=".6"/><ellipse cx="69.798" cy="76.354" fill="#FF877F" rx=".399" ry=".6"/><ellipse cx="65.002" cy="84.029" fill="#FF877F" rx=".4" ry=".599"/><ellipse cx="43.896" cy="90.744" fill="#FF877F" rx=".399" ry=".599"/><ellipse cx="46.774" cy="104.174" fill="#FF877F" rx=".399" ry=".6"/><ellipse cx="56.367" cy="94.581" fill="#FF877F" rx=".399" ry=".6"/><ellipse cx="51.571" cy="87.866" fill="#FF877F" rx=".399" ry=".6"/><ellipse cx="47.733" cy="97.459" fill="#FF877F" rx=".399" ry=".599"/><ellipse cx="37.181" cy="102.256" fill="#FF877F" rx=".399" ry=".6"/><ellipse cx="36.221" cy="117.605" fill="#FF877F" rx=".399" ry=".6"/><ellipse cx="45.815" cy="116.646" fill="#FF877F" rx=".399" ry=".6"/><ellipse cx="57.327" cy="108.972" fill="#FF877F" rx=".399" ry=".6"/><ellipse cx="55.408" cy="119.524" fill="#FF877F" rx=".399" ry=".6"/><ellipse cx="48.693" cy="109.931" fill="#FF877F" rx=".399" ry=".6"/><ellipse cx="37.181" cy="109.931" fill="#FF877F" rx=".399" ry=".6"/><ellipse cx="51.571" cy="76.354" fill="#FF877F" rx=".399" ry=".6"/><ellipse cx="59.245" cy="73.476" fill="#FF877F" rx=".399" ry=".6"/><ellipse cx="54.449" cy="81.15" fill="#FF877F" rx=".399" ry=".6"/><ellipse cx="33.344" cy="87.866" fill="#FF877F" rx=".399" ry=".6"/><ellipse cx="36.221" cy="101.297" fill="#FF877F" rx=".399" ry=".6"/><ellipse cx="45.815" cy="91.704" fill="#FF877F" rx=".399" ry=".6"/><ellipse cx="41.018" cy="84.988" fill="#FF877F" rx=".399" ry=".6"/><ellipse cx="37.181" cy="94.581" fill="#FF877F" rx=".399" ry=".6"/><ellipse cx="26.628" cy="99.378" fill="#FF877F" rx=".399" ry=".6"/><ellipse cx="25.669" cy="114.727" fill="#FF877F" rx=".399" ry=".599"/><ellipse cx="35.262" cy="113.768" fill="#FF877F" rx=".399" ry=".6"/><ellipse cx="46.774" cy="106.093" fill="#FF877F" rx=".399" ry=".6"/><ellipse cx="44.855" cy="116.646" fill="#FF877F" rx=".399" ry=".6"/><ellipse cx="38.14" cy="107.053" fill="#FF877F" rx=".399" ry=".6"/><ellipse cx="26.628" cy="107.053" fill="#FF877F" rx=".399" ry=".6"/><ellipse cx="49.652" cy="64.842" fill="#FF877F" rx=".399" ry=".6"/><ellipse cx="57.327" cy="61.964" fill="#FF877F" rx=".399" ry=".599"/><ellipse cx="52.53" cy="69.639" fill="#FF877F" rx=".399" ry=".6"/><ellipse cx="31.424" cy="76.354" fill="#FF877F" rx=".399" ry=".6"/><ellipse cx="34.303" cy="89.784" fill="#FF877F" rx=".399" ry=".6"/><ellipse cx="43.896" cy="80.191" fill="#FF877F" rx=".399" ry=".6"/><ellipse cx="39.1" cy="73.476" fill="#FF877F" rx=".399" ry=".6"/><ellipse cx="35.262" cy="83.069" fill="#FF877F" rx=".399" ry=".6"/><ellipse cx="24.709" cy="87.866" fill="#FF877F" rx=".399" ry=".6"/><ellipse cx="23.75" cy="103.215" fill="#FF877F" rx=".399" ry=".6"/><ellipse cx="33.344" cy="102.256" fill="#FF877F" rx=".399" ry=".6"/><ellipse cx="44.855" cy="94.581" fill="#FF877F" rx=".399" ry=".6"/><ellipse cx="42.937" cy="105.134" fill="#FF877F" rx=".399" ry=".6"/><ellipse cx="36.221" cy="95.541" fill="#FF877F" rx=".399" ry=".6"/><ellipse cx="24.709" cy="95.541" fill="#FF877F" rx=".399" ry=".6"/><ellipse cx="75.554" cy="65.801" fill="#FF877F" rx=".399" ry=".6"/><ellipse cx="83.229" cy="62.924" fill="#FF877F" rx=".399" ry=".6"/><ellipse cx="78.433" cy="70.598" fill="#FF877F" rx=".4" ry=".6"/><path fill="#FF877F" d="M57.327,76.714c-0.221,0-0.399,0.268-0.399,0.6c0,0.201,0.071,0.371,0.172,0.479 c-0.101,0.109-0.172,0.278-0.172,0.479c0,0.332,0.178,0.6,0.399,0.6c0.221,0,0.4-0.269,0.4-0.6c0-0.201-0.07-0.371-0.172-0.479 c0.102-0.108,0.172-0.278,0.172-0.479C57.727,76.981,57.548,76.714,57.327,76.714z"/><ellipse cx="60.205" cy="90.744" fill="#FF877F" rx=".399" ry=".599"/><ellipse cx="69.798" cy="81.15" fill="#FF877F" rx=".399" ry=".6"/><ellipse cx="65.002" cy="74.435" fill="#FF877F" rx=".4" ry=".6"/><ellipse cx="61.164" cy="84.029" fill="#FF877F" rx=".399" ry=".599"/><ellipse cx="50.611" cy="88.825" fill="#FF877F" rx=".399" ry=".599"/><ellipse cx="49.652" cy="104.174" fill="#FF877F" rx=".399" ry=".6"/><ellipse cx="59.245" cy="103.215" fill="#FF877F" rx=".399" ry=".6"/><ellipse cx="70.757" cy="95.541" fill="#FF877F" rx=".399" ry=".6"/><ellipse cx="68.839" cy="106.093" fill="#FF877F" rx=".399" ry=".6"/><ellipse cx="62.123" cy="96.5" fill="#FF877F" rx=".399" ry=".6"/><ellipse cx="50.611" cy="96.5" fill="#FF877F" rx=".399" ry=".6"/><ellipse cx="106.252" cy="71.558" fill="#FF877F" rx=".397" ry=".6"/><ellipse cx="113.927" cy="68.679" fill="#FF877F" rx=".398" ry=".599"/><ellipse cx="109.131" cy="76.354" fill="#FF877F" rx=".399" ry=".6"/><ellipse cx="88.025" cy="83.069" fill="#FF877F" rx=".399" ry=".6"/><ellipse cx="90.903" cy="96.5" fill="#FF877F" rx=".399" ry=".6"/><ellipse cx="100.496" cy="86.907" fill="#FF877F" rx=".4" ry=".6"/><ellipse cx="95.7" cy="80.191" fill="#FF877F" rx=".4" ry=".6"/><ellipse cx="91.863" cy="89.784" fill="#FF877F" rx=".399" ry=".6"/><ellipse cx="81.31" cy="94.581" fill="#FF877F" rx=".399" ry=".6"/><ellipse cx="80.351" cy="109.931" fill="#FF877F" rx=".399" ry=".6"/><ellipse cx="89.943" cy="108.972" fill="#FF877F" rx=".399" ry=".6"/><ellipse cx="101.456" cy="101.297" fill="#FF877F" rx=".399" ry=".6"/><ellipse cx="99.537" cy="111.849" fill="#FF877F" rx=".398" ry=".599"/><ellipse cx="92.822" cy="102.256" fill="#FF877F" rx=".4" ry=".6"/><ellipse cx="81.31" cy="102.256" fill="#FF877F" rx=".399" ry=".6"/><ellipse cx="108.079" cy="84.515" fill="#FF877F" rx=".6" ry=".4" transform="matrix(0.6482 0.7614 -0.7614 0.6482 102.3709 -52.5663)"/><ellipse cx="104.1" cy="91.681" fill="#FF877F" rx=".6" ry=".399" transform="matrix(0.648 0.7616 -0.7616 0.648 106.464 -47.0149)"/><ellipse cx="102.779" cy="82.728" fill="#FF877F" rx=".599" ry=".399" transform="matrix(-0.6476 -0.762 0.762 -0.6476 106.2955 214.6179)"/><ellipse cx="114.5" cy="63.935" fill="#FF877F" rx=".6" ry=".399" transform="matrix(0.6489 0.7609 -0.7609 0.6489 88.8451 -64.6718)"/><ellipse cx="103.604" cy="55.572" fill="#FF877F" rx=".6" ry=".399" transform="matrix(0.6482 0.7614 -0.7614 0.6482 78.7581 -59.3396)"/><ellipse cx="102.515" cy="69.095" fill="#FF877F" rx=".599" ry=".398" transform="matrix(0.6476 0.762 -0.762 0.6476 88.7813 -53.7659)"/><ellipse cx="110.52" cy="71.1" fill="#FF877F" rx=".6" ry=".401" transform="matrix(-0.6485 -0.7612 0.7612 -0.6485 128.0714 201.3381)"/><ellipse cx="107.225" cy="61.308" fill="#FF877F" rx=".6" ry=".398" transform="matrix(0.6485 0.7612 -0.7612 0.6485 84.3564 -60.0713)"/><ellipse cx="112.153" cy="50.816" fill="#FF877F" rx=".599" ry=".399" transform="matrix(0.6478 0.7618 -0.7618 0.6478 78.2175 -67.5433)"/><ellipse cx="102.935" cy="38.505" fill="#FF877F" rx=".599" ry=".4" transform="matrix(0.6478 0.7618 -0.7618 0.6478 65.5917 -64.8572)"/><ellipse cx="96.251" cy="45.453" fill="#FF877F" rx=".599" ry=".399" transform="matrix(0.6473 0.7622 -0.7622 0.6473 68.5897 -57.3338)"/><ellipse cx="92.458" cy="58.758" fill="#FF877F" rx=".599" ry=".4" transform="matrix(-0.6473 -0.7622 0.7622 -0.6473 107.5231 167.2665)"/><ellipse cx="87.08" cy="49.478" fill="#FF877F" rx=".6" ry=".4" transform="matrix(-0.648 -0.7616 0.7616 -0.648 105.8283 147.8629)"/><ellipse cx="98.412" cy="52.432" fill="#FF877F" rx=".6" ry=".399" transform="matrix(0.6482 0.7614 -0.7614 0.6482 74.5409 -56.4912)"/><ellipse cx="107.179" cy="44.971" fill="#FF877F" rx=".6" ry=".399" transform="matrix(0.6482 0.7614 -0.7614 0.6482 71.944 -65.7907)"/><ellipse cx="86.014" cy="75.881" fill="#FF877F" rx=".599" ry=".4" transform="matrix(-0.6475 -0.762 0.762 -0.6475 83.8867 190.5632)"/><ellipse cx="82.035" cy="83.047" fill="#FF877F" rx=".6" ry=".4" transform="matrix(-0.6487 -0.761 0.761 -0.6487 72.0507 199.3519)"/><ellipse cx="80.714" cy="74.094" fill="#FF877F" rx=".399" ry=".6" transform="matrix(0.7611 -0.6486 0.6486 0.7611 -28.7769 70.0534)"/><ellipse cx="92.435" cy="55.301" fill="#FF877F" rx=".6" ry=".399" transform="matrix(0.6487 0.7611 -0.7611 0.6487 74.5624 -50.9207)"/><ellipse cx="81.539" cy="46.938" fill="#FF877F" rx=".6" ry=".401" transform="matrix(-0.6485 -0.7612 0.7612 -0.6485 98.6838 139.4464)"/><ellipse cx="80.45" cy="60.461" fill="#FF877F" rx=".6" ry=".399" transform="matrix(0.648 0.7616 -0.7616 0.648 74.3631 -39.9915)"/><ellipse cx="88.456" cy="62.467" fill="#FF877F" rx=".6" ry=".4" transform="matrix(-0.648 -0.7616 0.7616 -0.648 98.2031 170.3157)"/><ellipse cx="85.161" cy="52.674" fill="#FF877F" rx=".6" ry=".399" transform="matrix(0.648 0.7616 -0.7616 0.648 70.0903 -46.3197)"/><ellipse cx="90.088" cy="42.182" fill="#FF877F" rx=".6" ry=".399" transform="matrix(0.6487 0.7611 -0.7611 0.6487 63.7532 -53.7434)"/><ellipse cx="80.871" cy="29.871" fill="#FF877F" rx=".6" ry=".399" transform="matrix(0.6487 0.7611 -0.7611 0.6487 51.1455 -51.0536)"/><ellipse cx="74.187" cy="36.818" fill="#FF877F" rx=".599" ry=".399" transform="matrix(0.648 0.7616 -0.7616 0.648 54.1558 -43.5435)"/><ellipse cx="70.394" cy="50.124" fill="#FF877F" rx=".599" ry=".401" transform="matrix(-0.648 -0.7616 0.7616 -0.648 77.8328 136.2191)"/><ellipse cx="65.015" cy="40.844" fill="#FF877F" rx=".6" ry=".4" transform="matrix(-0.6483 -0.7614 0.7614 -0.6483 76.0639 116.8261)"/><ellipse cx="76.347" cy="43.798" fill="#FF877F" rx=".599" ry=".4" transform="matrix(0.648 0.7616 -0.7616 0.648 60.232 -42.732)"/><ellipse cx="85.114" cy="36.337" fill="#FF877F" rx=".599" ry=".399" transform="matrix(0.648 0.7616 -0.7616 0.648 57.6354 -52.0356)"/><ellipse cx="72.584" cy="85.474" fill="#FF877F" rx=".599" ry=".4" transform="matrix(-0.6477 -0.7619 0.7619 -0.6477 54.4782 196.1381)"/><ellipse cx="68.604" cy="92.64" fill="#FF877F" rx=".6" ry=".399" transform="matrix(0.6485 0.7612 -0.7612 0.6485 94.6318 -19.6602)"/><ellipse cx="67.283" cy="83.687" fill="#FF877F" rx=".6" ry=".399" transform="matrix(0.6483 0.7614 -0.7614 0.6483 87.385 -21.7953)"/><ellipse cx="79.005" cy="64.894" fill="#FF877F" rx=".6" ry=".4" transform="matrix(-0.6487 -0.7611 0.7611 -0.6487 80.8643 167.1173)"/><ellipse cx="68.108" cy="56.531" fill="#FF877F" rx=".6" ry=".4" transform="matrix(-0.6483 -0.7614 0.7614 -0.6483 69.2178 145.0366)"/><ellipse cx="67.02" cy="70.055" fill="#FF877F" rx=".6" ry=".4" transform="matrix(0.648 0.7616 -0.7616 0.648 76.9427 -26.3859)"/><ellipse cx="75.024" cy="72.061" fill="#FF877F" rx=".399" ry=".6" transform="matrix(-0.7617 0.648 -0.648 -0.7617 178.861 78.3333)"/><ellipse cx="71.73" cy="62.267" fill="#FF877F" rx=".6" ry=".399" transform="matrix(0.6482 0.7614 -0.7614 0.6482 72.6442 -32.7147)"/><ellipse cx="76.657" cy="51.776" fill="#FF877F" rx=".399" ry=".6" transform="matrix(0.7611 -0.6486 0.6486 0.7611 -15.2701 62.0906)"/><ellipse cx="67.44" cy="39.464" fill="#FF877F" rx=".6" ry=".4" transform="matrix(0.6487 0.761 -0.761 0.6487 53.7243 -37.4609)"/><ellipse cx="60.755" cy="46.412" fill="#FF877F" rx=".4" ry=".6" transform="matrix(-0.7619 0.6477 -0.6477 -0.7619 137.1055 42.4256)"/><ellipse cx="56.963" cy="59.718" fill="#FF877F" rx=".6" ry=".399" transform="matrix(0.6478 0.7618 -0.7618 0.6478 65.5556 -22.3626)"/><ellipse cx="51.584" cy="50.438" fill="#FF877F" rx=".6" ry=".4" transform="matrix(-0.648 -0.7616 0.7616 -0.648 46.5994 122.4105)"/><ellipse cx="62.916" cy="53.391" fill="#FF877F" rx=".599" ry=".399" transform="matrix(0.648 0.7616 -0.7616 0.648 62.811 -29.1259)"/><ellipse cx="71.683" cy="45.93" fill="#FF877F" rx=".6" ry=".399" transform="matrix(0.6478 0.7618 -0.7618 0.6478 60.2369 -38.4324)"/><ellipse cx="106.16" cy="119.051" fill="#FF877F" rx=".599" ry=".4" transform="matrix(-0.6486 -0.7611 0.7611 -0.6486 84.4111 277.0699)"/><ellipse cx="102.181" cy="126.217" fill="#FF877F" rx=".6" ry=".399" transform="matrix(-0.6474 -0.7622 0.7622 -0.6474 72.1297 285.8056)"/><ellipse cx="100.86" cy="117.264" fill="#FF877F" rx=".6" ry=".4" transform="matrix(-0.6478 -0.7618 0.7618 -0.6478 76.8725 270.0647)"/><ellipse cx="112.581" cy="98.471" fill="#FF877F" rx=".6" ry=".399" transform="matrix(-0.6483 -0.7614 0.7614 -0.6483 110.5943 248.0264)"/><ellipse cx="101.684" cy="90.108" fill="#FF877F" rx=".6" ry=".4" transform="matrix(-0.6485 -0.7612 0.7612 -0.6485 99.0367 225.9459)"/><ellipse cx="100.596" cy="103.631" fill="#FF877F" rx=".599" ry=".4" transform="matrix(0.6478 0.7618 -0.7618 0.6478 114.3837 -40.1357)"/><ellipse cx="108.602" cy="105.637" fill="#FF877F" rx=".6" ry=".4" transform="matrix(-0.6478 -0.7618 0.7618 -0.6478 98.4859 256.8025)"/><ellipse cx="105.306" cy="95.844" fill="#FF877F" rx=".399" ry=".599" transform="matrix(0.7605 -0.6493 0.6493 0.7605 -37.0143 91.3227)"/><ellipse cx="110.234" cy="85.352" fill="#FF877F" rx=".599" ry=".4" transform="matrix(-0.6484 -0.7613 0.7613 -0.6484 116.7394 224.615)"/><ellipse cx="101.017" cy="73.041" fill="#FF877F" rx=".6" ry=".4" transform="matrix(0.6482 0.7614 -0.7614 0.6482 91.1494 -51.225)"/><ellipse cx="94.332" cy="79.989" fill="#FF877F" rx=".6" ry=".399" transform="matrix(0.6478 0.7618 -0.7618 0.6478 94.1596 -43.6913)"/><ellipse cx="90.539" cy="93.294" fill="#FF877F" rx=".599" ry=".4" transform="matrix(-0.648 -0.7616 0.7616 -0.648 78.1529 222.7069)"/><ellipse cx="85.161" cy="84.014" fill="#FF877F" rx=".6" ry=".4" transform="matrix(-0.6485 -0.7612 0.7612 -0.6485 76.4367 203.3238)"/><ellipse cx="96.493" cy="86.968" fill="#FF877F" rx=".599" ry=".399" transform="matrix(0.6475 0.762 -0.762 0.6475 100.2838 -42.8779)"/><ellipse cx="105.26" cy="79.507" fill="#FF877F" rx=".599" ry=".398" transform="matrix(0.6476 0.762 -0.762 0.6476 97.6825 -52.1883)"/><ellipse cx="43.896" cy="67.72" fill="#FF877F" rx=".399" ry=".599"/><ellipse cx="51.571" cy="64.842" fill="#FF877F" rx=".399" ry=".6"/><ellipse cx="46.774" cy="72.517" fill="#FF877F" rx=".399" ry=".6"/><ellipse cx="25.669" cy="79.232" fill="#FF877F" rx=".399" ry=".6"/><ellipse cx="28.547" cy="92.663" fill="#FF877F" rx=".399" ry=".6"/><ellipse cx="38.14" cy="83.069" fill="#FF877F" rx=".399" ry=".6"/><ellipse cx="33.344" cy="76.354" fill="#FF877F" rx=".399" ry=".6"/><ellipse cx="18.954" cy="90.744" fill="#FF877F" rx=".399" ry=".599"/><ellipse cx="17.994" cy="106.093" fill="#FF877F" rx=".399" ry=".6"/><ellipse cx="27.587" cy="105.134" fill="#FF877F" rx=".399" ry=".6"/><ellipse cx="39.1" cy="97.459" fill="#FF877F" rx=".399" ry=".599"/><ellipse cx="37.181" cy="108.012" fill="#FF877F" rx=".399" ry=".599"/><ellipse cx="30.465" cy="98.418" fill="#FF877F" rx=".399" ry=".599"/><ellipse cx="18.954" cy="98.418" fill="#FF877F" rx=".399" ry=".599"/></g><g><path fill="#FFF" d="M99.857,119.764c-5.036-4.557-18.707-23.504-22.064-26.622c0,0,6.368-7.195,11.884-13.19 C95.193,73.956,100,70.118,103,70.118V70H86v0.118c0,0,2.655,1.918-0.942,5.756c0,0-10.058,12.753-14.058,16.309V75.875 c0-4.157,4-5.756,4-5.756V70H57v0.118c0,0,4,1.599,4,5.756v42.691c0,4.156-4,5.755-4,5.755V125h18v-0.68c0,0-4-1.599-4-5.755 V98.981c1-0.068,1.478,0.156,2.437,1.116c2.398,2.398,12.131,15.829,16.208,20.386c4.076,4.557,7.868,5.348,10.741,5.517 c4.078,0.239,8.97-1.08,10.528-3.118l-0.972-0.96C109.943,121.922,104.894,124.32,99.857,119.764z"/><path fill="#FFF" d="M131,70.118V70h-17v0.118c0,0,4,1.599,4,5.756v42.691c0,4.156-4,5.755-4,5.755V125h17v-0.68 c0,0-4-1.599-4-5.755V75.875C127,71.717,131,70.118,131,70.118z"/></g><path fill="#FF877F" d="M96.021,30.306c21.105,18.227,31.658,24.463,43.649,33.577s17.268,13.431,31.179,21.105 c6.112,3.373,9.815,5.726,12.048,7.305C180.701,46.475,142.861,10,96.5,10c-25.997,0-49.312,11.47-65.168,29.624 c3.785-1.989,8.887-4.448,11.926-5c5.276-0.959,14.39-3.357,18.227-5.756s11.512-5.277,14.39-5.277 c2.877,0-2.399-3.837-3.358-5.755C71.557,15.917,74.915,12.079,96.021,30.306z"/></g></svg>