<svg xmlns="http://www.w3.org/2000/svg" xmlns:svg="http://www.w3.org/2000/svg" id="svg2" width="192" height="192" version="1.1" viewBox="0 0 192 192"><metadata id="metadata7"/><g id="layer1" transform="translate(0,-860.36216)"><circle style="fill:#fe827c;fill-opacity:1;fill-rule:evenodd;stroke:none;stroke-opacity:1" id="circle967" cx="96" cy="956.362" r="88"/><path id="path963" d="m 91.00319,970.33086 -1.295132,-3.52046 c -0.381369,-1.03664 -1.305672,-1.22025 -2.168394,-0.53199 -1.799172,1.43534 -5.132114,3.50506 -9.392192,3.50506 -5.770433,0 -9.867367,-5.0173 -9.867367,-13.04491 0,-10.2851 5.183876,-13.9643 10.285422,-13.9643 7.358079,0 9.699184,4.76614 11.706486,10.8707 l 2.676189,8.36205 c 2.675229,8.11058 7.692528,14.63288 22.158488,14.63288 10.36967,0 17.39331,-3.17722 17.39331,-11.53896 0,-6.77312 -3.84706,-10.28542 -11.03856,-11.95796 l -5.35142,-1.17055 c -3.67888,-0.83611 -4.76582,-2.34142 -4.76582,-4.85007 0,-2.84309 2.25717,-4.51563 5.93701,-4.51563 3.19444,0 5.22348,0.95354 6.08746,3.15553 0.40211,1.02485 1.32389,1.83867 2.42059,1.70703 l 4.39023,-0.52696 c 1.0967,-0.13164 1.92481,-1.13675 1.68512,-2.2142 -1.35606,-6.09572 -6.3415,-8.64369 -14.08173,-8.64369 -7.5253,0 -14.88402,2.84309 -14.88402,11.95764 0,5.68618 2.75948,9.28209 9.69918,10.95431 l 5.68683,1.33745 c 4.26447,1.00365 5.68554,2.75948 5.68554,5.18484 0,3.09328 -3.01,4.34777 -8.69618,4.34777 -8.44566,0 -11.957,-4.4317 -13.9643,-10.53626 l -2.759477,-8.36141 c -3.511338,-10.8707 -9.114549,-14.88434 -20.236079,-14.88434 -12.291763,0 -18.814374,7.77645 -18.814374,20.98826 0,12.71045 6.522611,19.56685 18.229738,19.56685 6.220579,0 10.303283,-1.92121 12.366618,-3.2337 0.930442,-0.59186 1.288203,-2.03834 0.906834,-3.07498 z" style="fill:#fefefe;fill-opacity:1;stroke-width:.320348"/></g><style id="style853" type="text/css"/></svg>