<svg xmlns="http://www.w3.org/2000/svg" xmlns:svg="http://www.w3.org/2000/svg" id="svg2" width="192" height="192" version="1.1" viewBox="0 0 192 192"><metadata id="metadata7"/><g id="layer1" transform="translate(0,-860.36216)"><circle id="circle962" cx="96" cy="956.362" r="88" style="fill:#bd9aff;fill-opacity:1;fill-rule:evenodd;stroke:none;stroke-opacity:1"/><path style="fill:#fff;fill-opacity:1;stroke-width:6.56935;stop-color:#000" id="path956" d="m 95.793378,910.28315 c -20.07755,0.1139 -36.293446,16.42212 -36.293378,36.5 1.42e-4,12.73668 6.6265,24.44044 17.291424,31.03738 1.971416,1.21946 3.690399,3.87929 3.690399,6.19867 v 2.78886 h 31.036357 v -2.78886 c 0,-2.31938 1.71898,-4.97921 3.6904,-6.19867 10.66491,-6.59694 17.29128,-18.30071 17.29142,-31.03738 -2.5e-4,-20.15829 -16.34171,-36.49975 -36.5,-36.5 -0.06887,-2e-4 -0.137748,-2e-4 -0.206622,0 z m -15.311556,83.9129 1e-6,3.44675 c 10e-7,2.6583 2.140228,4.7985 4.798543,4.7985 h 21.439264 c 2.65832,0 4.79855,-2.1402 4.79855,-4.7985 v -3.44675 z"/></g><style id="style853" type="text/css"/><style id="style853-9" type="text/css"/><style id="style853-3" type="text/css"/></svg>