<svg xmlns="http://www.w3.org/2000/svg" xmlns:svg="http://www.w3.org/2000/svg" id="svg5" width="192" height="192" version="1.1"><metadata id="metadata11"/><rect id="rect2" width="152" height="79.167%" x="20" y="20" fill="#4a4a4a" rx="10" ry="10" style="stroke-width:.791667;fill:#56595b;fill-opacity:1"/><path id="lhv" fill="#fff" d="m 97.528709,79.530167 c 0,0 -2.02825,13.144833 -2.02825,13.144833 0,0 -11.055625,0 -11.055625,0 0,0 2.022708,-13.139292 2.022708,-13.139292 0,0 -14.181125,0 -14.181125,0 0,0 0,27.924462 0,27.924462 0,0 -14.890458,0 -14.890458,0 0,0 4.22275,-27.924462 4.22275,-27.924462 0,0 -14.469292,0 -14.469292,0 0,0 0,32.729082 0,32.729082 0,0 34.358334,0 34.358334,0 0,0 2.211125,-14.829498 2.211125,-14.829498 0,0 11.088875,0 11.088875,0 0,0 -2.238834,14.829498 -2.238834,14.829498 0,0 11.631963,0 11.631963,0 0,0 4.7215,-27.913373 4.7215,-27.913373 0,0 10.36845,27.913373 10.36845,27.913373 0,0 10.26871,0 10.26871,0 0,0 14.92371,-32.729082 14.92371,-32.729082 0,0 -8.01879,0 -8.01879,0 0,0 -7.45354,17.195792 -7.45354,17.195792 0,0 -0.84788,2.09475 -0.84788,2.09475 0,0 -0.81462,-2.100292 -0.81462,-2.100292 0,0 -6.50592,-17.19025 -6.50592,-17.19025 0,0 -23.313791,-0.0055 -23.313791,-0.0055 z" style="stroke-width:.554167"/></svg>