<svg xmlns="http://www.w3.org/2000/svg" xmlns:svg="http://www.w3.org/2000/svg" id="Слой_1" x="0" y="0" enable-background="new 0 0 192 192" version="1.1" viewBox="0 0 192 192" xml:space="preserve"><path style="fill:#d8d8d8;stroke-width:3.57894731" id="path1900" d="m 52,160 c 0,0 16,-5.6842 16,-12.84212 V 140 h 56 v 7.15788 C 124,154.3158 140,160 140,160 l -44,4 z"/><rect style="opacity:1;vector-effect:none;fill:#ececec;fill-opacity:1;stroke-width:3.63067746;paint-order:stroke fill markers" id="rect1896" width="160" height="116" x="16" y="28" ry="10.875"/><path style="fill:#ececec;stroke-width:3.57894731" id="path1898" d="m 52,160 v 8 h 88 v -8 z"/><rect style="opacity:1;vector-effect:none;fill:#728dbe;fill-opacity:1;stroke-width:3.57894731;paint-order:stroke fill markers" id="rect1902" width="136" height="91.789" x="28" y="40" ry="7.158"/><path style="fill:#9abeff;stroke-width:3.57894731" id="path1904" d="M 35.15625,40 C 31.190776,40 28,43.19076 28,47.15624 V 104 h 28 c 48,0 36,-32 80,-32 h 28 V 47.15624 C 164,43.19076 160.80922,40 156.84375,40 Z"/><path id="path959" d="m 71.809309,57.028929 v 70.013281 c 0,1.65685 1.155764,2.31571 2.581568,1.47176 8.581006,-5.07921 36.873693,-21.82127 59.266353,-35.017151 1.42743,-0.841178 1.42737,-2.204432 -3.1e-4,-3.045206 L 74.394349,55.551285 a 1.7148406,1.7148406 0 0 0 -2.58504,1.477644 z" class="st1" style="fill:#000;fill-opacity:0;stroke-width:1.23197997"/><path id="path961" d="m 83.759532,77.726223 v 28.495487 c 0,1.65685 1.156884,2.3176 2.584183,1.47618 4.769871,-2.81195 15.280555,-9.00491 24.148925,-14.206735 1.42914,-0.838274 1.43036,-2.198188 0.002,-3.038246 L 86.345335,76.247283 a 1.7158382,1.7158382 0 0 0 -2.585803,1.47894 z" class="st0" style="fill:#000;fill-opacity:0;stroke-width:1.23197997"/><rect id="rect963" width="7.638" height="25.872" x="83.76" y="98.873" class="st0" style="fill:#000;fill-opacity:0;stroke-width:1.23197997"/><metadata id="metadata13"/><style id="style824" type="text/css">.st0{fill:#cd201f}.st1{fill:#fff}</style></svg>