<svg xmlns="http://www.w3.org/2000/svg" xmlns:xlink="http://www.w3.org/1999/xlink" width="100%" height="100%" version="1.1" viewBox="0 0 192 192" xml:space="preserve" style="fill-rule:evenodd;clip-rule:evenodd;stroke-linejoin:round;stroke-miterlimit:2"><g id="Layer1"><g><path d="M164.5,21.5C164.5,15.981 160.019,11.5 154.5,11.5L21.5,11.5C15.981,11.5 11.5,15.981 11.5,21.5L11.5,154.5C11.5,160.019 15.981,164.5 21.5,164.5L154.5,164.5C160.019,164.5 164.5,160.019 164.5,154.5L164.5,21.5Z" transform="matrix(1,0,0,1,8,8)" style="fill:#fff"/></g><g><g><path d="M114.764,19.5L162.5,19.5C168.019,19.5 172.5,23.981 172.5,29.5L172.5,43.685L128.601,106.38L78.496,71.296L114.764,19.5Z" transform="matrix(0.819152,0.573576,-0.573576,0.819152,75.4805,-38.4484) matrix(0.819152,-0.573576,0.573576,0.819152,-39.777,74.7889)" style="fill:url(#_Linear1)"/></g><g><path d="M112.989,117.922L82.406,117.922L67.114,93.917L128.281,93.917L112.989,117.922Z" transform="matrix(0.819152,0.573576,-0.573576,0.819152,75.4805,-38.4484) matrix(1,0,0,1,-1.69779,0)" style="fill:url(#_Linear2)"/></g><g transform="matrix(0.819152,0.573576,-0.573576,0.819152,75.4805,-38.4484) matrix(1,0,0,1,-1.85352,0.833333)"><rect width="30.833" height="14.792" x="82.437" y="110.318" style="fill:url(#_Linear3)"/></g><g><path d="M110.562,140.167L85.145,157.964L85.145,131.568L110.562,131.568L110.562,140.167Z" transform="matrix(0.819152,0.573576,-0.573576,0.819152,75.4805,-38.4484) matrix(1,0,0,1,-1.85352,0)" style="fill:url(#_Linear4)"/></g></g></g><defs><linearGradient id="_Linear1" x1="0" x2="1" y1="0" y2="0" gradientTransform="matrix(93.0428,-132.879,132.879,93.0428,63.5148,146.011)" gradientUnits="userSpaceOnUse"><stop offset="0" style="stop-color:#9abeff;stop-opacity:1"/><stop offset="1" style="stop-color:#96dfd3;stop-opacity:1"/></linearGradient><linearGradient id="_Linear2" x1="0" x2="1" y1="0" y2="0" gradientTransform="matrix(9.28064e-16,-162.215,162.215,9.28064e-16,97.6978,157.964)" gradientUnits="userSpaceOnUse"><stop offset="0" style="stop-color:#9abeff;stop-opacity:1"/><stop offset="1" style="stop-color:#96dfd3;stop-opacity:1"/></linearGradient><linearGradient id="_Linear3" x1="0" x2="1" y1="0" y2="0" gradientTransform="matrix(9.28064e-16,-162.215,162.215,9.28064e-16,97.8535,157.131)" gradientUnits="userSpaceOnUse"><stop offset="0" style="stop-color:#9abeff;stop-opacity:1"/><stop offset="1" style="stop-color:#96dfd3;stop-opacity:1"/></linearGradient><linearGradient id="_Linear4" x1="0" x2="1" y1="0" y2="0" gradientTransform="matrix(9.28064e-16,-162.215,162.215,9.28064e-16,97.8535,157.964)" gradientUnits="userSpaceOnUse"><stop offset="0" style="stop-color:#9abeff;stop-opacity:1"/><stop offset="1" style="stop-color:#96dfd3;stop-opacity:1"/></linearGradient></defs></svg>