<svg xmlns="http://www.w3.org/2000/svg" xmlns:svg="http://www.w3.org/2000/svg" id="svg2" width="192" height="192" version="1.1" viewBox="0 0 192 192"><metadata id="metadata7"/><g id="layer1" transform="translate(0,-860.36216)"><path style="fill:#97db99;fill-opacity:1" id="path939" fill="#ff837d" fill-rule="evenodd" d="m 96,1043.3622 c 48.049,0 87,-38.9511 87,-87.00006 0,-48.0488 -38.951,-87 -87,-87 -48.0488,0 -87,38.9512 -87,87 0,48.04896 38.9512,87.00006 87,87.00006 z" clip-rule="evenodd"/><path style="fill:#fff" id="path941" d="m 119.80326,930.75845 -42.4062,9.2002 v 5.5201 1.8401 25.7576 c -1.419,-0.591 -2.976,-0.917 -4.6094,-0.917 -6.6188,0 -11.9844,5.355 -11.9844,11.96 0,6.606 5.3656,11.96 11.9844,11.96 6.6188,0 11.9844,-5.354 11.9844,-11.96 v -38.4007 l 27.6562,-6.0001 v 25.9972 c -1.419,-0.5905 -2.976,-0.9167 -4.609,-0.9167 -6.619,0 -11.985,5.3553 -11.985,11.9603 0,6.605 5.366,11.96 11.985,11.96 6.618,0 11.984,-5.355 11.984,-11.96 v -38.6408 z"/><path style="fill:#fff" id="path943" d="m 119.80326,916.64483 -42.4062,9.2002 v 7.3602 l 42.4062,-9.2002 z"/></g><style id="style853" type="text/css"/><style id="style853-9" type="text/css"/><style id="style853-3" type="text/css"/></svg>