<svg xmlns="http://www.w3.org/2000/svg" xmlns:svg="http://www.w3.org/2000/svg" id="svg2" width="192" height="192" version="1.1" viewBox="0 0 192 192"><metadata id="metadata7"/><g id="layer1" transform="translate(0,-860.36216)"><path id="rect911" width="152" height="152" x="20" y="880.362" d="M 29.934641,880.36218 H 162.06536 c 5.50379,0 9.93464,4.43085 9.93464,9.93464 v 132.13068 c 0,5.5038 -4.43085,9.9347 -9.93464,9.9347 H 29.934641 C 24.43085,1032.3622 20,1027.9313 20,1022.4275 V 890.29682 c 0,-5.50379 4.43085,-9.93464 9.934641,-9.93464 z" rx="9.935" ry="9.935" style="fill:#708cbd;fill-opacity:1;fill-rule:evenodd;stroke:none;stroke-width:.993464;stroke-opacity:1"/><path style="fill:#f9de81;fill-opacity:1;stroke-width:1.89665" id="path949" d="m 142.2717,950.75041 c -2.38097,-3.19043 -6.52131,-1.39238 -9.19109,0.32469 -3.52619,1.66514 -7.11487,5.27036 -11.31807,3.56181 -3.39879,-1.28134 -3.88464,-5.62896 -7.05814,-7.29298 -4.69284,-3.17373 -10.58431,-0.77644 -14.780151,2.07877 -3.911991,2.16706 -7.571753,4.95697 -11.847892,6.35808 -2.987923,0.77572 -6.100975,-0.93217 -7.320903,-3.68564 -2.218224,-4.09469 -7.190198,-6.59147 -11.729767,-5.06323 -5.710167,1.97789 -10.685858,5.57939 -15.947947,8.48675 -2.125636,1.25603 -4.278648,2.466 -6.423076,3.69045 -0.728481,0.41596 -0.860181,1.25968 -0.338836,1.91679 2.040963,2.57239 3.938067,5.64143 7.541344,5.76074 4.413741,-0.12692 7.869453,-3.37694 11.643109,-5.28939 4.60445,-2.94321 10.177544,-6.33609 15.81135,-4.23151 3.416742,1.15612 5.205451,4.43025 7.227936,7.11973 2.360825,2.52562 5.926146,1.46613 8.363714,-0.29435 4.471839,-2.44672 8.691149,-5.39928 13.399259,-7.37741 4.54652,-1.95448 10.27106,-0.80008 13.23096,3.30312 1.59243,3.17691 5.09417,6.62836 8.82135,4.33494 4.32075,-2.47221 8.62599,-4.972 12.93842,-7.45899 0.72676,-0.41912 0.93191,-1.31991 0.43238,-1.99389 -1.0869,-1.46649 -2.25806,-2.87096 -3.45395,-4.24848 z"/></g><style id="style853" type="text/css"/><style id="style853-9" type="text/css"/><style id="style853-3" type="text/css"/></svg>