<svg xmlns="http://www.w3.org/2000/svg" xmlns:xlink="http://www.w3.org/1999/xlink" id="Layer_1" width="192" height="192" x="0" y="0" enable-background="new 0 0 192 192" version="1.1" viewBox="0 0 192 192" xml:space="preserve"><g><path fill="#FF877F" d="M179,168.958c0,6.099-4.943,11.042-11.042,11.042H24.042C17.944,180,13,175.057,13,168.958V25.042 C13,18.944,17.944,14,24.042,14h143.916C174.057,14,179,18.944,179,25.042V168.958z"/><g><path fill="#FFF" d="M96.092,50.991c-25.41,0-46.009,20.599-46.009,46.009s20.599,46.009,46.009,46.009 c25.41,0,46.009-20.599,46.009-46.009S121.502,50.991,96.092,50.991z M96.092,132.703c-19.718,0-35.703-15.985-35.703-35.703 c0-19.718,15.985-35.703,35.703-35.703c19.719,0,35.703,15.985,35.703,35.703C131.795,116.718,115.811,132.703,96.092,132.703z"/><path fill="#FFF" d="M96.092,70.131c-5.67,0-10.929,1.758-15.264,4.756c0.533-0.101,1.083-0.155,1.646-0.155 c4.878,0,8.833,3.955,8.833,8.833s-3.955,8.833-8.833,8.833c-4.879,0-8.834-3.955-8.834-8.833c0-0.523,0.048-1.034,0.135-1.532 C70.9,86.311,69.223,91.459,69.223,97c0,14.84,12.03,26.869,26.869,26.869c14.84,0,26.869-12.029,26.869-26.869 C122.961,82.161,110.932,70.131,96.092,70.131z"/></g></g></svg>