<svg xmlns="http://www.w3.org/2000/svg" xmlns:svg="http://www.w3.org/2000/svg" id="Layer_1" x="0" y="0" version="1.1" viewBox="0 0 192 192" xml:space="preserve" style="enable-background:new 0 0 192 192"><metadata id="metadata21"/><style id="style2" type="text/css">.st0{fill:#54688c}.st1{fill:#fff}</style><path id="path4" d="m -216.52354,30.426326 h 132.999996 c 5.5,0 10,4.5 10,10 V 173.42633 c 0,5.5 -4.5,10 -10,10 H -216.52354 c -5.5,0 -10,-4.5 -10,-10 V 40.426326 c 0,-5.5 4.5,-10 10,-10 z" class="st0"/><g id="g14" transform="translate(-246.02354,10.926326)"><path id="path6" d="m 72.4,92.1 c 3.1,-1.3 5.8,-2.4 8.5,-3.4 0.8,-0.3 1.3,0.1 1.4,1 0,0.5 0,1 0,1.5 0,8.6 0,17.1 0,25.7 0,3.8 0.1,3.8 3.6,5 -0.2,0.2 -0.3,0.3 -0.5,0.4 -2.6,0.2 -5.1,0.4 -7.7,0.7 -1.2,0.1 -1.2,-0.5 -1.1,-1.4 0.2,-1.7 0.4,-3.4 0.3,-5.2 -1.1,1.1 -2.1,2.2 -3.2,3.3 -2.9,2.6 -6.3,3.6 -10.1,3.3 -5,-0.4 -8.3,-3.6 -8.9,-9.1 -0.4,-3.6 -0.3,-7.2 -0.4,-10.8 -0.1,-2.7 0.1,-5.4 -0.1,-8.1 -0.2,-2.6 -0.7,-2.9 -3.2,-2.7 -0.3,0 -0.7,0 -1,-0.4 0.4,-0.1 0.7,-0.3 1.1,-0.4 2.1,-0.8 4.3,-1.5 6.3,-2.4 1.7,-0.7 2.2,-0.5 2.2,1.3 0,6.6 0,13.2 0,19.9 0,1.3 0.1,2.6 0.4,3.8 1,5.4 5,7.8 10.3,6.3 3,-0.8 5.1,-2.9 6.8,-5.4 0.2,-0.4 0.3,-0.9 0.3,-1.4 0,-5.9 0,-11.7 -0.1,-17.6 0,-0.5 0,-1.1 -0.1,-1.6 -0.3,-2.2 -0.8,-2.5 -3,-2.3 -0.6,0 -1,0 -1.8,0 z" class="st1"/><path id="path8" d="m 144.5,114.1 c -1.5,1.6 -2.6,3.1 -3.9,4.2 -1.8,1.5 -3.7,2.8 -5.7,3.9 -2.3,1.2 -4.7,1 -7.1,0 -4.8,-1.9 -6.3,-7.2 -3.2,-11.3 2.1,-2.8 4.9,-4.5 7.9,-6 3.7,-1.7 7.5,-3.3 11.3,-4.8 1,-0.4 1.4,-0.9 1.2,-1.9 -0.2,-1.3 -0.3,-2.7 -0.6,-4 -0.6,-2.4 -1.6,-4.4 -4.2,-5 -2.9,-0.7 -5.6,-0.2 -7.6,2.2 -1,1.2 -1.8,2.7 -2.6,4.1 -1.1,1.8 -2.6,2.4 -4.6,1.9 -1.6,-0.4 -1.9,-1.4 -1,-2.8 0.2,-0.4 0.5,-0.7 0.8,-1 4.3,-3.1 9,-5.4 14.4,-5.3 6.8,0.1 10.5,4.1 10.6,11 0,4.5 -0.3,9 -0.4,13.6 0,1.7 -0.1,3.4 0.1,5 0.1,0.9 0.8,1.6 1.2,2.4 0.8,-0.4 1.6,-0.7 2.3,-1.3 0.8,-0.7 1.4,-1.6 2,-2.4 0.2,0.1 0.3,0.2 0.5,0.3 -0.1,0.3 -0.2,0.8 -0.4,1 -1.9,1.5 -3.7,3.3 -5.8,4.5 -2.4,1.3 -4.9,-0.1 -5.2,-2.8 -0.2,-1.7 0,-3.5 0,-5.5 z m 0.8,-13.5 c -0.2,-0.1 -0.4,-0.3 -0.7,-0.4 -4.5,2.2 -9,4.5 -13.5,6.7 -0.5,0.2 -0.8,0.7 -1.2,1 -2.2,2.2 -2.6,4.9 -1.6,7.7 0.8,2.4 3.5,4 6.4,4.1 3.6,0.1 9.3,-4.3 9.9,-8.1 0.5,-3.5 0.4,-7.3 0.7,-11 z" class="st1"/><path id="path10" d="m 49.5,122.7 c -4.1,0 -8.1,0 -12.2,0 3.4,-0.5 3,-3.1 3.1,-5.4 0,-13.3 0,-26.6 0,-39.9 0,-0.5 0,-1 0,-1.5 -0.1,-2.6 -0.6,-4.2 -3.7,-3.4 -0.2,0 -0.4,-0.1 -0.6,-0.4 0.5,-0.2 0.9,-0.3 1.4,-0.5 2,-0.7 4,-1.4 5.9,-2.2 1.8,-0.8 2.3,-0.6 2.3,1.5 0,14.7 0,29.4 0,44.1 0,1.4 0,2.8 0.1,4.2 0.1,2.3 0.6,2.7 2.9,2.9 0.3,0 0.7,0.2 1,0.3 -0.2,0.1 -0.2,0.2 -0.2,0.3 z" class="st1"/><path id="path12" d="m 119.8,111.6 c -1.7,5.5 -8.6,12.1 -17,11.1 -7.9,-1 -13.5,-6.6 -14,-14.3 -0.9,-13.2 12.9,-23.7 25.4,-19.2 1.3,0.5 2.5,1.2 3.6,2.1 1.3,1.1 1.3,2.4 0.3,3.6 -1,1.2 -2.8,1.5 -4.1,0.6 -0.7,-0.5 -1.3,-1.1 -1.8,-1.8 -5.2,-6.5 -13.7,-3.8 -16.9,1.5 -3.5,5.8 -2.5,14.8 2.2,19.7 5.4,5.5 17.4,6.1 21.7,-2.6 0.2,-0.2 0.4,-0.4 0.6,-0.7 z" class="st1"/></g><path id="path4-6" d="m 29.5,19.499999 h 133 c 5.5,0 10,4.5 10,10 V 162.5 c 0,5.5 -4.5,10 -10,10 h -133 c -5.5,0 -10,-4.5 -10,-10 V 29.499999 c 0,-5.5 4.5,-10 10,-10 z" class="st0" style="fill:#54688c"/><text style="font-style:normal;font-variant:normal;font-weight:700;font-stretch:normal;font-size:41.3878px;line-height:1.25;font-family:'Now alt';-inkscape-font-specification:'Now alt Bold';letter-spacing:0;word-spacing:0;fill:#fff;stroke-width:1.03469" id="text841" x="50.448" y="113.512" xml:space="preserve"><tspan id="tspan839" x="50.448" y="113.512" style="stroke-width:1.03469">luca</tspan></text></svg>