<svg xmlns="http://www.w3.org/2000/svg" xmlns:xlink="http://www.w3.org/1999/xlink" id="Слой_1" x="0" y="0" enable-background="new 0 0 192 192" version="1.1" viewBox="0 0 192 192" xml:space="preserve"><image width="180" height="180" overflow="visible" transform="matrix(1 0 0 1 -6192 -6192)" xlink:href="A24CAC3A.jpg"/><image width="241" height="241" overflow="visible" transform="matrix(1 0 0 1 0 -305.1059)" xlink:href="30E0AF75.jpg"/><circle cx="96" cy="96" r="96" fill="#88BFFF"/><path fill="#61E2D1" d="M93.7,124.2c0,9.3-7.5,16.8-16.8,16.8l0,0c-9.3,0-16.8-7.5-16.8-16.8V61.8C60,52.5,67.5,45,76.8,45l0,0	c9.3,0,16.8,7.5,16.8,16.8V124.2z"/><path fill="#C99CFF" d="M76.8,141c-9.3,0-16.8-7.5-16.8-16.8l0,0c0-9.3,7.5-16.8,16.8-16.8h51.3c9.3,0,16.8,7.5,16.8,16.8l0,0	c0,9.3-7.5,16.8-16.8,16.8H76.8z"/><path fill="#FFF" d="M93.7,124.2v-16.8H76.8c-9.3,0-16.8,7.5-16.8,16.8c0,9.3,7.5,16.8,16.8,16.8C86.1,141,93.7,133.5,93.7,124.2	z"/></svg>