<svg xmlns="http://www.w3.org/2000/svg" xmlns:svg="http://www.w3.org/2000/svg" id="svg14" width="192" height="192" version="1.1" viewBox="0 0 192 192"><metadata id="metadata20"/><path style="clip-rule:evenodd;fill:#f9de81;fill-rule:evenodd;stroke-width:.98179299" id="path2-3" d="m 90.55807,10.679324 c 3.049708,-1.7635953 6.808619,-1.7530193 9.84823,0.02752 l 65.73558,38.506522 C 169.1505,50.97598 171,54.206635 171,57.699815 v 76.201335 c 0,3.4924 -1.8495,6.72333 -4.85812,8.48574 l -65.73558,38.50676 c -3.039611,1.78109 -6.798522,1.79191 -9.84823,0.0275 L 23.905972,142.37805 C 20.870286,140.62251 19,137.37684 19,133.8638 V 57.736499 c 0,-3.512839 1.870286,-6.758632 4.905972,-8.514049 z"/><path style="clip-rule:evenodd;fill:#728dbe;fill-rule:evenodd;stroke-width:.98179299" id="path7-67" d="M 170.05,53.664484 94.509677,95.30899 v 86.80607 c 2.020832,0.19776 4.086996,-0.15924 5.899193,-1.22098 l 65.73388,-38.50369 C 169.15137,140.62798 171,137.39724 171,133.90485 V 57.69608 c 0,-1.42617 -0.38041,-2.774964 -0.95,-4.031596 z"/><path style="clip-rule:evenodd;fill:#98dc9a;fill-rule:evenodd;stroke-width:.98179299" id="path7-6" d="M 19.781453,54.109875 C 19.322703,55.25571 19,56.459932 19,57.734493 v 76.131947 c 0,3.51303 1.867541,6.75305 4.903226,8.50858 l 66.653228,38.54977 c 1.231482,0.71248 2.584517,1.05643 3.953223,1.19027 V 95.30899 Z"/><path style="opacity:1;vector-effect:none;fill:#54688c;fill-opacity:1;stroke-width:3.92717195;paint-order:stroke fill markers" id="rect882" d="m 166.15041,93.512054 -30.20847,17.477936 v 6.29697 l 19.46733,-11.1963 -20.90766,46.2981 31.6488,-17.58546 v -6.39679 l -21.16049,11.82601 z"/></svg>