<svg xmlns="http://www.w3.org/2000/svg" xmlns:svg="http://www.w3.org/2000/svg" id="svg2" width="192" height="192" version="1.1" viewBox="0 0 192 192"><metadata id="metadata7"/><g id="layer1" transform="translate(0,-860.36216)"><rect id="rect933" width="152" height="152" x="20" y="880.362" rx="9.935" ry="9.935" style="fill:#bd9aff;fill-opacity:1;fill-rule:evenodd;stroke:none;stroke-width:.993464;stroke-opacity:1"/><path id="path925" d="m 90.593907,923.29236 c 0.70291,-1.48896 1.96926,-3.43021 5.40588,-3.43021 3.11561,0 4.705393,1.94125 5.410743,3.43021 l 28.58197,60.94566 c 0.7084,1.49171 0.78331,3.02298 0.23146,4.59637 -0.55247,1.5733 -1.56786,2.7166 -3.04616,3.4298 -1.47528,0.7109 -2.99259,0.787 -4.55189,0.2333 -1.55934,-0.5592 -2.69473,-1.5843 -3.4001,-3.0736 L 96.002227,939.92647 72.773119,989.42389 c -0.705347,1.4893 -1.835239,2.5144 -3.39456,3.0736 -1.561787,0.5537 -3.082118,0.4776 -4.557382,-0.2333 -1.478317,-0.7132 -2.493714,-1.8565 -3.046179,-3.4298 -0.551848,-1.57339 -0.473881,-3.10466 0.232083,-4.59637 z" style="clip-rule:evenodd;fill:#fff;fill-opacity:1;fill-rule:evenodd;stroke-width:.609113"/></g><style id="style853" type="text/css"/><style id="style853-9" type="text/css"/><style id="style853-3" type="text/css"/><style id="style2" type="text/css"/></svg>