<svg xmlns="http://www.w3.org/2000/svg" xmlns:svg="http://www.w3.org/2000/svg" id="svg2" width="192" height="192" version="1.1" viewBox="0 0 192 192"><defs id="defs4"><rect id="rect904" width="95.059" height="100.449" x="69.861" y="934.295"/></defs><metadata id="metadata7"/><g id="layer1" transform="translate(0,-860.36216)"><circle style="fill:#55698c;fill-opacity:1;stroke:none;stroke-width:.25067;stop-color:#000" id="path925" cx="96" cy="956.362" r="88"/><path id="rect4182" d="M 82.576172 59.5 C 82.155022 59.504 81.729115 59.670184 81.396484 59.996094 C 80.73123 60.647914 80.698656 61.685759 81.324219 62.324219 L 85.037109 66.113281 C 83.872217 66.953116 82.819315 67.92608 81.894531 69.003906 C 82.961913 72.836441 83.902486 76.765818 84.712891 80.759766 L 114.25 80.759766 L 114.25 80.103516 C 114.25 74.363916 111.38555 69.302091 106.96289 66.113281 L 110.67383 62.324219 C 111.2994 61.685759 111.26877 60.647924 110.60352 59.996094 C 109.93826 59.344274 108.89901 59.334166 108.27344 59.972656 L 103.97266 64.361328 C 101.56364 63.241088 98.866422 62.595703 96 62.595703 C 93.133578 62.595703 90.436364 63.241088 88.027344 64.361328 L 83.726562 59.972656 C 83.413781 59.653426 82.997322 59.49564 82.576172 59.5 z M 81.763672 69.162109 C 81.524054 69.448018 81.293072 69.740726 81.072266 70.041016 C 81.292955 69.740692 81.524238 69.448001 81.763672 69.162109 z M 80.921875 70.246094 C 80.66219 70.61023 80.414537 70.981903 80.183594 71.365234 C 80.414406 70.981952 80.662417 70.610148 80.921875 70.246094 z M 80.085938 71.537109 C 79.886117 71.877536 79.699641 72.225881 79.523438 72.580078 C 79.699504 72.226122 79.886342 71.877304 80.085938 71.537109 z M 79.402344 72.824219 C 79.207415 73.232328 79.023695 73.647777 78.861328 74.072266 C 79.023914 73.647209 79.207161 73.232865 79.402344 72.824219 z M 78.824219 74.175781 C 78.678673 74.563854 78.55077 74.958898 78.433594 75.359375 C 78.550694 74.959444 78.678846 74.563369 78.824219 74.175781 z M 78.34375 75.675781 C 78.226087 76.109263 78.120304 76.547935 78.037109 76.994141 C 78.120392 76.548009 78.226002 76.109246 78.34375 75.675781 z M 78.025391 77.068359 C 77.947039 77.499251 77.88867 77.935496 77.84375 78.376953 C 77.888734 77.93594 77.947005 77.498895 78.025391 77.068359 z M 77.814453 78.691406 C 77.775791 79.15747 77.75 79.627438 77.75 80.103516 C 77.75 79.627179 77.775666 79.157815 77.814453 78.691406 z M 121.88281 83.605469 C 119.31146 83.605469 117.24219 85.592777 117.24219 88.060547 L 117.24219 109.9375 C 117.24219 110.06862 117.2698 110.19214 117.28125 110.32031 L 126.52539 107.58594 L 126.52539 88.060547 C 126.52539 85.592777 124.45415 83.605469 121.88281 83.605469 z M 85.300781 83.804688 C 87.336203 94.831035 88.370449 106.27748 88.371094 117.78516 C 88.371069 118.14632 88.363388 118.50781 88.361328 118.86914 L 92.992188 117.5 L 92.992188 117.16602 L 94.125 117.16602 L 114.25 111.21484 L 114.25 83.804688 L 85.300781 83.804688 z M 117.2832 110.33008 C 117.30911 110.61276 117.35957 110.88565 117.4375 111.15039 C 117.36043 110.88613 117.3091 110.61201 117.2832 110.33008 z M 117.4375 111.15039 C 117.5163 111.41808 117.61734 111.6736 117.74414 111.91797 C 117.61912 111.67413 117.51532 111.41722 117.4375 111.15039 z M 117.74609 111.92383 C 117.87085 112.16344 118.01373 112.39118 118.17969 112.60352 C 118.01526 112.39068 117.86957 112.16382 117.74609 111.92383 z M 118.20703 112.63477 C 118.36707 112.83564 118.53957 113.02362 118.73242 113.19531 C 118.54125 113.02316 118.36551 112.836 118.20703 112.63477 z M 118.83008 113.27344 C 119.00354 113.4196 119.18186 113.55946 119.37695 113.67969 C 119.18276 113.55881 119.0025 113.42033 118.83008 113.27344 z M 119.67969 113.83789 C 119.82798 113.91493 119.97132 113.99713 120.12891 114.05859 C 119.97225 113.99689 119.82697 113.91515 119.67969 113.83789 z M 71.927734 114.04102 C 71.649939 114.15336 71.357355 114.24167 71.054688 114.30078 C 71.358272 114.24146 71.649162 114.1539 71.927734 114.04102 z M 120.5957 114.19727 C 120.72298 114.23245 120.84498 114.27987 120.97656 114.30469 C 120.84469 114.27967 120.72312 114.23276 120.5957 114.19727 z" transform="translate(0,860.36216)" style="fill:#99dc9b;fill-opacity:1;stroke:none;stroke-width:1.72512;stroke-linecap:round;stroke-linejoin:round;stroke-miterlimit:4;stroke-dasharray:none;stroke-opacity:1"/><circle style="fill:#55698c;fill-opacity:1;stroke:none;stroke-width:.0794772;stop-color:#000" id="path892" cx="88.429" cy="933.379" r="1.457"/><circle style="fill:#55698c;fill-opacity:1;stroke:none;stroke-width:.0794772;stop-color:#000" id="circle894" cx="103.571" cy="933.379" r="1.457"/><path id="rect1015" d="M 126.52539 107.58594 L 117.28125 110.32031 C 117.48575 112.60413 119.44838 114.39062 121.88281 114.39062 C 124.45415 114.39062 126.52539 112.40527 126.52539 109.9375 L 126.52539 107.58594 z M 114.25 111.21484 L 94.125 117.16602 L 99.007812 117.16602 L 99.007812 128.04492 C 99.007813 130.5127 101.07709 132.5 103.64844 132.5 C 106.21978 132.5 108.29102 130.5127 108.29102 128.04492 L 108.29102 117.16602 L 111.26758 117.16602 C 112.91956 117.16602 114.25 115.94905 114.25 114.4375 L 114.25 111.21484 z M 92.992188 117.5 L 83.708984 120.24609 L 83.708984 128.04492 C 83.708984 130.5127 85.780218 132.5 88.351562 132.5 C 90.922908 132.5 92.992188 130.5127 92.992188 128.04492 L 92.992188 117.5 z" transform="translate(0,860.36216)" style="opacity:1;fill:#9abefe;fill-opacity:1;stroke:none;stroke-width:.171201;stop-color:#000"/><path id="path941" d="M 81.892577,68.998458 C 79.30711,72.012739 77.75,75.876342 77.75,80.103516 v 0.65625 h 6.962891 c -0.810822,-3.996003 -1.752253,-7.9269 -2.820314,-11.761308 z M 70.117188,83.605469 c -2.571346,0 -4.642579,1.987308 -4.642579,4.455078 V 109.9375 c 0,2.46777 2.071234,4.45312 4.642579,4.45312 2.571345,0 4.640624,-1.98535 4.640624,-4.45312 V 88.060547 c 0,-2.46777 -2.06928,-4.455078 -4.640624,-4.455078 z M 77.75,83.804688 V 114.4375 c 0,1.51155 1.330444,2.72852 2.982422,2.72852 h 2.976562 v 10.8789 c 0,2.28947 1.767844,4.16386 4.09961,4.42529 0.374299,-4.86391 0.562158,-9.78358 0.5625,-14.68505 -6.45e-4,-11.50768 -1.034891,-22.954125 -3.070313,-33.980472 z" transform="translate(0,860.36216)" style="fill:#ff847f;fill-opacity:1;stroke:none;stroke-width:.171201;stop-color:#000"/><path id="path922" d="m 85.349911,971.87354 v -22.05229 h 6.663825 l 4.001304,15.04249 3.956175,-15.04249 h 6.678865 v 22.05229 h -4.13668 v -17.35903 l -4.377369,17.35903 h -4.28711 l -4.362324,-17.35903 v 17.35903 z" style="font-weight:700;font-size:40px;line-height:1.25;font-family:Arial;-inkscape-font-specification:'Arial Bold';letter-spacing:0;word-spacing:0;white-space:pre;fill:#55698c;fill-opacity:1;stroke-width:.770176"/></g></svg>