<svg xmlns="http://www.w3.org/2000/svg" xmlns:svg="http://www.w3.org/2000/svg" id="svg2" width="192" height="192" version="1.1" viewBox="0 0 192 192"><metadata id="metadata7"/><g id="layer1" transform="translate(0,-860.36216)"><rect id="rect997" width="128" height="176" x="32" y="868.362" rx="10.079" ry="10.057" style="fill:#bd9aff;fill-opacity:1;fill-rule:evenodd;stroke:none;stroke-width:1.00679;stroke-opacity:1"/><rect id="rect1122" width="128" height="176" x="32" y="868.362" rx="10.079" ry="10.057" style="fill:#fff;fill-opacity:.25;fill-rule:evenodd;stroke:none;stroke-width:1.00679;stroke-opacity:1"/><rect id="rect1160" width="32" height="92.776" x="32" y="909.974" style="fill:#bd9aff;fill-opacity:1;stroke-width:10.7065;stroke-linecap:round;stroke-linejoin:round;stop-color:#000"/><rect id="rect1020" width="32" height="92.776" x="96" y="909.974" style="fill:#bd9aff;fill-opacity:1;stroke-width:10.7065;stroke-linecap:round;stroke-linejoin:round;stop-color:#000"/><path style="fill:#bd9aff;fill-opacity:1;stroke-width:10.7065;stroke-linecap:round;stroke-linejoin:round;stop-color:#000" id="path1022" d="m 64.00001,1002.7508 v 41.6114 h 32 v -41.6114 z"/><path style="fill:#bd9aff;fill-opacity:1;stroke-width:10.7065;stroke-linecap:round;stroke-linejoin:round;stop-color:#000" id="path1172" d="m 128.00001,1002.7508 v 41.6114 h 21.92188 c 5.58361,0 10.07812,-4.485 10.07812,-10.0567 v -31.5547 z"/><path style="fill:#bd9aff;fill-opacity:1;fill-rule:evenodd;stroke:none;stroke-width:1.00679;stroke-opacity:1" id="path1026" d="m 64.00001,868.36214 v 41.61133 h 32 v -41.61133 z"/><g id="g1016" transform="matrix(0.95130924,0,0,0.95130924,4.674313,45.98073)"><circle id="path999" cx="96" cy="915.689" r="9.751" style="fill:none;fill-opacity:1;stroke:#fff;stroke-width:8.29478;stroke-linecap:round;stroke-linejoin:round;stroke-miterlimit:4;stroke-dasharray:none;stroke-opacity:1;stop-color:#000"/><circle id="circle1001" cx="96" cy="998.266" r="9.751" style="fill:none;fill-opacity:1;stroke:#fff;stroke-width:8.29478;stroke-linecap:round;stroke-linejoin:round;stroke-miterlimit:4;stroke-dasharray:none;stroke-opacity:1;stop-color:#000"/><path id="path1003" d="m 96,925.4394 v 63.07597" style="fill:none;stroke:#fff;stroke-width:8.29478;stroke-linecap:butt;stroke-linejoin:miter;stroke-miterlimit:4;stroke-dasharray:none;stroke-opacity:1"/></g><path style="fill:#bd9aff;fill-opacity:1;fill-rule:evenodd;stroke:none;stroke-width:1.00679;stroke-opacity:1" id="path1156" d="m 128,868.36216 v 41.61133 h 32 V 878.4188 c 0,-5.57166 -4.49451,-10.05664 -10.07812,-10.05664 z"/></g><style id="style853" type="text/css"/><style id="style853-9" type="text/css"/><style id="style853-3" type="text/css"/></svg>