<svg xmlns="http://www.w3.org/2000/svg" xmlns:svg="http://www.w3.org/2000/svg" id="svg2" width="192" height="192" version="1.1" viewBox="0 0 192 192"><metadata id="metadata7"/><g id="layer1" transform="translate(0,-860.36216)"><rect id="rect1292" width="153" height="153" x="19.5" y="879.862" rx="10" style="fill:#54688c;fill-opacity:1;fill-rule:evenodd;stroke:none;stroke-opacity:1"/><g id="g951" transform="matrix(0.88687926,0,0,0.88687926,10.859593,105.44353)"><path style="fill:#fff;fill-opacity:1;stroke:none;stroke-width:.606614;stroke-linecap:square;stop-color:#000" id="path1264" d="m 59.609375,912.36021 v 21.45508 54.3164 a 4.8284271,4.8284271 0 0 0 1.414214,3.41421 l 15.171572,15.1716 a 0.82842712,0.82842712 0 0 0 1.414214,-0.5858 v -50.31641 a 0.82842712,0.82842712 0 0 1 1.414214,-0.58579 l 2.833681,2.83368 12.728516,12.72852 a 2.0000003,2.0000003 0 0 0 2.828428,0 l 9.900096,-9.90009 5.6621,-5.66211 a 0.82842619,0.82842619 0 0 1 1.41421,0.58579 v 32.78125 a 2,2 0 0 0 2,2 h 14 a 2,2 0 0 0 2,-2 v -50.78125 -25.45508 a 0.82842712,0.82842712 0 0 0 -1.41421,-0.58579 l -15.17158,15.17157 a 75522.16,75522.16 0 0 1 -2.8285,2.82836 l -15.562042,15.56039 a 2.0002121,2.0002121 0 0 1 -2.828577,0 L 79.023664,929.77435 a 75328.821,75328.821 0 0 1 -2.828503,-2.82836 L 61.023589,911.77442 a 0.82842712,0.82842712 0 0 0 -1.414214,0.58579 z"/><text id="text1274" x="88.548" y="1007.149" xml:space="preserve" style="font-weight:700;font-size:22.484px;line-height:1.25;font-family:Now;-inkscape-font-specification:'Now Bold';letter-spacing:0;word-spacing:0;fill:#fff;fill-opacity:1;stroke-width:.562099"><tspan style="fill:#fff;fill-opacity:1;stroke-width:.562099" id="tspan1272" x="88.548" y="1007.149">Plus</tspan></text></g></g><style id="style853" type="text/css"/></svg>