<svg xmlns="http://www.w3.org/2000/svg" xmlns:svg="http://www.w3.org/2000/svg" id="svg2" width="192" height="192" version="1.1" viewBox="0 0 192 192"><metadata id="metadata7"/><g id="layer1" transform="translate(0,-860.36216)"><g id="g943" transform="translate(-3.7753528e-5,2.5970409e-4)"><path style="fill:#be9bff;fill-opacity:1;fill-rule:evenodd;stroke-width:.879945" id="path1016-3" d="m 124.39062,12.705078 c 6.9238,19.77366 7.23354,41.262093 0.88086,61.226563 h 0.0352 l 0.0957,0.05273 c 12.51173,7.073589 23.27599,16.39657 31.46485,27.603519 -8.18655,-11.199099 -18.94724,-20.513906 -31.44727,-27.585941 -6.88116,39.817521 -12.0377,73.915121 -38.832029,109.482431 34.979569,3.78469 68.831209,-13.664 86.078129,-44.33008 13.55327,-24.06348 15.03855,-53.077686 3.98437,-78.386726 -9.92183,-22.63156 -28.8785,-40.06577 -52.25977,-48.0625 z m 44.28907,47.703125 c -1.94908,0 -3.88604,0.104766 -5.8086,0.302735 1.92255,-0.198229 3.85952,-0.302735 5.8086,-0.302735 z" transform="translate(0,860.36216)"/><path style="fill:#9abefe;fill-opacity:1;fill-rule:evenodd;stroke-width:.879945" id="path1010-6" d="M 96.755859,8.0058594 C 76.348761,7.8357286 56.193154,14.77039 40.003906,28.130859 c 33.985401,-0.448331 69.225774,20.312538 85.289064,45.726563 -0.008,0.02459 -0.0137,0.04963 -0.0215,0.07422 h 0.0352 0.0352 c -0.003,-0.0044 -0.005,-0.0093 -0.008,-0.01367 12.96399,-6.753328 27.7638,-13.509766 43.34571,-13.509766 2.68382,0 5.33967,0.130595 7.9707,0.359375 -9.92183,-22.63156 -28.8785,-40.06577 -52.25977,-48.0625 -9.03118,-3.0769341 -18.3587,-4.6218894 -27.634651,-4.6992216 z" transform="translate(0,860.36216)"/><path style="fill:#f7c18c;fill-opacity:1;fill-rule:evenodd;stroke-width:.879945" id="path1018-7" d="M 40.003906,28.130859 C 12.523225,50.830799 1.4166398,87.854118 11.890625,121.92383 c 10.360472,33.6024 39.737052,57.78304 74.697266,61.56055 34.979569,3.78469 68.831209,-13.664 86.078129,-44.33008 -4.7605,-28.58941 -22.62523,-51.222807 -47.2461,-65.152347 -3.42713,19.830992 -6.42524,38.243277 -11.88281,56.124997 5.44809,-17.867 8.43978,-36.268552 11.86523,-56.089841 v -0.04297 C 96.666377,77.105562 48.970043,90.852435 15.121094,119.14062 48.955161,90.844891 96.666902,77.104322 125.41992,73.984375 l -0.0957,-0.05273 h -0.0176 C 109.23884,48.483631 74.040178,27.682089 40.003906,28.130859 Z" transform="translate(0,860.36216)"/><path style="fill:#f8dd81;fill-opacity:1;fill-rule:evenodd;stroke-width:.879945" id="path1012-5" d="M 96.755859,8.0058594 C 76.348761,7.8357286 56.193154,14.77039 40.003906,28.130859 12.523225,50.830799 1.4166398,87.854118 11.890625,121.92383 45.856501,91.741718 95.739385,77.204965 125.41992,73.984375 l -0.0957,-0.05273 h 0.0176 c -0.008,-0.01229 -0.0157,-0.02482 -0.0234,-0.03711 -0.004,0.01238 -0.008,0.02473 -0.0117,0.03711 C 113.75848,55.641793 92.328878,39.751255 68.550781,32.425781 92.329277,39.745844 113.783,55.619296 125.31836,73.894531 131.65879,53.940555 131.31013,32.466475 124.39062,12.705078 115.35933,9.6281469 106.03181,8.0831916 96.755859,8.0058594 Z" transform="translate(0,860.36216)"/><path style="fill:#ff847f;fill-opacity:1;fill-rule:evenodd;stroke-width:.879945" id="path1014-3" fill="#f24841" d="m 125.42083,934.36469 c -6.88116,39.81752 -12.03763,73.91541 -38.831964,109.48271 34.979574,3.7847 68.829304,-13.6655 86.076224,-44.33158 -4.7605,-28.58941 -22.62339,-51.22159 -47.24426,-65.15113"/><path style="fill:#98db9a;fill-opacity:1;fill-rule:evenodd;stroke-width:.879945" id="path1020-5" fill="#b0d619" d="m 125.30577,934.29381 c 6.35267,-19.96447 6.00865,-41.45291 -0.91515,-61.22657 -28.900144,-9.84618 -60.838725,-4.00798 -84.386722,15.42543 34.018673,-0.44877 69.295662,20.35313 85.337072,45.80114"/><path style="fill-rule:evenodd;stroke-width:.879945" id="path1022-6" fill="#fff" d="m 144.61244,926.60358 c 4.6989,10.16336 0.67755,21.99863 -8.99304,26.49515 -9.6706,4.49651 -21.30347,-0.1408 -26.01117,-10.30416 -4.70771,-10.16337 -0.67756,-21.99863 8.99304,-26.50394 9.67058,-4.50532 21.31226,0.14959 26.01117,10.31295"/></g></g><style id="style853" type="text/css"/></svg>