<svg xmlns="http://www.w3.org/2000/svg" xmlns:svg="http://www.w3.org/2000/svg" id="svg14" width="192" height="192" version="1.1" viewBox="0 0 192 192"><metadata id="metadata20"/><circle style="fill:#ff837d;fill-rule:evenodd;stroke:none;fill-opacity:1" id="circle4" cx="96" cy="96" r="88"/><g id="g5" transform="matrix(4.9639927,0,0,4.9639927,16.576117,16.576117)" style="fill:#fff;fill-opacity:1"><g id="steering_x5F_wheel" style="fill:#fff;fill-opacity:1"><path style="fill:#fff;fill-opacity:1" id="path2" d="M 16,0 C 7.164,0 0,7.164 0,16 0,24.836 7.164,32 16,32 24.836,32 32,24.836 32,16 32,7.164 24.836,0 16,0 Z m 0,4 c 5.207,0 9.605,3.354 11.266,8 H 4.734 C 6.395,7.354 10.793,4 16,4 Z m 0,14 c -1.105,0 -2,-0.895 -2,-2 0,-1.105 0.895,-2 2,-2 1.105,0 2,0.895 2,2 0,1.105 -0.895,2 -2,2 z M 4,16 c 5.465,0 9.891,5.266 9.984,11.797 C 8.328,26.828 4,21.926 4,16 Z M 18.016,27.797 C 18.109,21.266 22.535,16 28,16 c 0,5.926 -4.328,10.828 -9.984,11.797 z"/></g></g><circle style="fill:#ff837d;fill-rule:evenodd;stroke:none;stroke-width:.55869442;fill-opacity:1" id="circle6" cx="96" cy="99.164" r="20.113"/><g id="g858"><circle id="path2827" cx="95.97" cy="102.845" r="23.544" style="display:inline;fill:#fff;fill-opacity:1;fill-rule:evenodd;stroke:#dc505e;stroke-width:3.39277554;stroke-linecap:butt;stroke-linejoin:miter;stroke-miterlimit:4;stroke-dasharray:none;stroke-opacity:1"/><path id="path2824" d="m 75.794133,108.91392 11.158462,-23.372475 9.047402,10.329118 9.047393,-10.329118 11.09836,23.372475 -7.21147,5.95619 -5.96025,-17.227766 -6.974033,8.285646 -6.974038,-8.285646 -6.029694,17.227766 z" style="fill:#dc505e;fill-opacity:1;stroke:none;stroke-width:.75395012"/></g></svg>