<svg xmlns="http://www.w3.org/2000/svg" xmlns:svg="http://www.w3.org/2000/svg" id="svg2" width="192" height="192" version="1.1" viewBox="0 0 192 192"><metadata id="metadata7"/><g id="layer1" transform="translate(0,-860.36216)"><path style="fill:#ba6561;fill-opacity:1;stroke:none;stroke-width:10.9979;stroke-linecap:round;stroke-linejoin:round;stop-color:#000" id="path1099" d="m 32.306641,881.03794 a 2.1453377,2.1453377 0 0 0 -2.113282,2.14649 V 1006.702 a 4.1951473,4.1951473 0 0 0 2.839844,3.9707 l 60.126953,20.541 A 8.7812936,8.7812936 0 0 0 96,1031.6844 V 902.16685 a 8.781317,8.781317 0 0 1 -2.839844,-0.47071 L 33.033203,881.15318 a 2.1453377,2.1453377 0 0 0 -0.726562,-0.11524 z"/><path style="fill:#ececec;fill-opacity:1;stroke:none;stroke-width:10.9979;stroke-linecap:round;stroke-linejoin:round;stop-color:#000" id="path1103" d="m 48.591797,905.1063 a 1.4302377,1.4302377 0 0 0 -1.398438,1.42969 v 35.39062 13.64844 39.39063 a 2.7967292,2.7967292 0 0 0 1.892579,2.64648 l 23.302734,7.96094 a 204579,204579 0 0 1 3.785156,1.293 l 17.933594,6.1269 A 5.8540501,5.8540501 0 0 0 96,1013.3055 v -27.95896 a 5.8541289,5.8541289 0 0 1 -1.892578,-0.3125 l -17.933594,-6.12696 a 2.7967748,2.7967748 0 0 1 -1.892578,-2.64844 v -7.42968 -13.64844 -39.39063 a 2.796738,2.796738 0 0 0 -1.892578,-2.64648 l -23.302734,-7.96094 a 1.4302377,1.4302377 0 0 0 -0.494141,-0.0762 z"/><path style="fill:#ff837d;fill-opacity:1;stroke:none;stroke-width:10.9979;stroke-linecap:round;stroke-linejoin:round;stop-color:#000" id="path1123" d="m 159.69336,881.03794 a 2.1453377,2.1453377 0 0 1 2.11328,2.14649 V 1006.702 a 4.1951473,4.1951473 0 0 1 -2.83984,3.9707 l -60.126956,20.541 A 8.7812936,8.7812936 0 0 1 96,1031.6844 V 902.16685 a 8.781317,8.781317 0 0 0 2.839844,-0.47071 L 158.9668,881.15318 a 2.1453377,2.1453377 0 0 1 0.72656,-0.11524 z"/><path style="fill:#fff;fill-opacity:1;stroke:none;stroke-width:10.9979;stroke-linecap:round;stroke-linejoin:round;stop-color:#000" id="path1125" d="m 143.4082,905.1063 a 1.4302377,1.4302377 0 0 1 1.39844,1.42969 v 35.39062 13.64844 39.39063 a 2.7967292,2.7967292 0 0 1 -1.89258,2.64648 l -23.30273,7.96094 a 204579,204579 0 0 0 -3.78516,1.293 l -17.933592,6.1269 A 5.8540501,5.8540501 0 0 1 96,1013.3055 v -27.95896 a 5.8541289,5.8541289 0 0 0 1.892578,-0.3125 l 17.933592,-6.12696 a 2.7967748,2.7967748 0 0 0 1.89258,-2.64844 v -7.42968 -13.64844 -39.39063 a 2.796738,2.796738 0 0 1 1.89258,-2.64648 l 23.30273,-7.96094 a 1.4302377,1.4302377 0 0 1 0.49414,-0.0762 z"/></g><style id="style853" type="text/css"/><style id="style853-9" type="text/css"/><style id="style853-3" type="text/css"/></svg>