<svg xmlns="http://www.w3.org/2000/svg" xmlns:svg="http://www.w3.org/2000/svg" id="svg2" width="192" height="192" version="1.1" viewBox="0 0 192 192"><metadata id="metadata8"/><g id="g3391" transform="matrix(0.17,0,0,0.17,11,9)"><rect id="rect3389" width="800" height="560" x="100" y="220" style="fill:#fff"/><path id="path6" d="M 500,0 C 367.39176,0 240.21546,52.679076 146.44727,146.44727 52.679076,240.21546 0,367.39176 0,500 0,632.60824 52.679076,759.78454 146.44727,853.55273 240.21546,947.32092 367.39176,1000 500,1000 632.60824,1000 759.78454,947.32092 853.55273,853.55273 947.32092,759.78454 1000,632.60824 1000,500 1000,367.39176 947.32092,240.21546 853.55273,146.44727 759.78454,52.679076 632.60824,0 500,0 Z m -3,285 107.24023,0 C 583.68023,299.471 577,342.06473 577,363.92773 l 0,202.14454 C 577,609.79827 541.798,645 497,645 c -44.798,0 -80,-35.20173 -80,-78.92773 l 0,-202.14454 C 417,320.20273 452.202,285 497,285 Z m -276.99414,49 c 44.798,0 80,35.20173 80,78.92773 l 0,202.14454 c 0,21.863 6.67828,64.45573 27.23828,78.92773 l -107.23828,0 c -44.798,0 -80,-35.20173 -80,-78.92773 l 0,-202.14454 c 0,-43.726 35.202,-78.92773 80,-78.92773 z m 552,0 c 44.799,0 80,35.20173 80,78.92773 l 0,202.14454 c 0,43.726 -35.201,78.92773 -80,78.92773 l -107.24024,0 c 20.56,-14.472 27.24024,-57.06473 27.24024,-78.92773 l 0,-202.14454 c 0,-43.726 35.202,-78.92773 80,-78.92773 z M 497.5,347 c -15.18783,0 -27.5,12.31217 -27.5,27.5 0,15.18783 12.31217,27.5 27.5,27.5 15.18783,0 27.5,-12.31217 27.5,-27.5 0,-15.18783 -12.31217,-27.5 -27.5,-27.5 z m -276,50 c -15.18783,0 -27.5,12.31217 -27.5,27.5 0,15.18783 12.31217,27.5 27.5,27.5 15.18783,0 27.5,-12.31217 27.5,-27.5 0,-15.18783 -12.31217,-27.5 -27.5,-27.5 z m 550,0 c -15.18783,0 -27.5,12.31217 -27.5,27.5 0,15.18783 12.31217,27.5 27.5,27.5 15.18783,0 27.5,-12.31217 27.5,-27.5 0,-15.18783 -12.31217,-27.5 -27.5,-27.5 z m -274,40 c -15.18783,0 -27.5,12.31217 -27.5,27.5 0,15.18783 12.31217,27.5 27.5,27.5 15.18783,0 27.5,-12.31217 27.5,-27.5 0,-15.18783 -12.31217,-27.5 -27.5,-27.5 z m -276,50 c -15.18783,0 -27.5,12.31217 -27.5,27.5 0,15.18783 12.31217,27.5 27.5,27.5 15.18783,0 27.5,-12.31217 27.5,-27.5 0,-15.18783 -12.31217,-27.5 -27.5,-27.5 z m 550,0 c -15.18783,0 -27.5,12.31217 -27.5,27.5 0,15.18783 12.31217,27.5 27.5,27.5 15.18783,0 27.5,-12.31217 27.5,-27.5 0,-15.18783 -12.31217,-27.5 -27.5,-27.5 z m -274,40 c -15.18783,0 -27.5,12.31217 -27.5,27.5 0,15.18783 12.31217,27.5 27.5,27.5 15.18783,0 27.5,-12.31217 27.5,-27.5 0,-15.18783 -12.31217,-27.5 -27.5,-27.5 z m -276,50 c -15.18783,0 -27.5,12.31217 -27.5,27.5 0,15.18783 12.31217,27.5 27.5,27.5 15.18783,0 27.5,-12.31217 27.5,-27.5 0,-15.18783 -12.31217,-27.5 -27.5,-27.5 z m 550,0 c -15.18783,0 -27.5,12.31217 -27.5,27.5 0,15.18783 12.31217,27.5 27.5,27.5 15.18783,0 27.5,-12.31217 27.5,-27.5 0,-15.18783 -12.31217,-27.5 -27.5,-27.5 z" style="fill:#9abeff;fill-opacity:1"/></g></svg>