<svg xmlns="http://www.w3.org/2000/svg" xmlns:svg="http://www.w3.org/2000/svg" id="svg2" width="192" height="192" version="1.1" viewBox="0 0 192 192"><metadata id="metadata7"/><g id="layer1" transform="translate(0,-860.36216)"><rect style="fill:#9abefe;fill-opacity:1;fill-rule:evenodd;stroke:none;stroke-width:1" id="rect884" width="153" height="153" x="19.5" y="879.862" rx="10"/><g id="g900" transform="matrix(0.77939518,0,0,0.77939518,21.178066,210.98217)" style="stroke-width:1.28304613"><path style="opacity:1;fill:#d7d7d7;fill-opacity:1;stroke:none;stroke-width:4.93972683;stroke-linecap:round;stroke-linejoin:round;stroke-miterlimit:4;stroke-dasharray:none;stroke-dashoffset:0;stroke-opacity:1;paint-order:normal" id="path886" d="m 60.255282,917.91688 c -5.039784,0 -9.096881,4.14155 -9.096881,9.28591 v 9.02044 28.11208 9.02044 c 0,5.14436 4.057097,9.28591 9.096881,9.28591 h 71.489428 c 5.03978,0 9.09688,-4.14155 9.09688,-9.28591 v -37.13252 c 0,-5.14437 -4.0571,-9.28592 -9.09688,-9.28592 H 95.984696 L 89.858718,920.762 c -2.822707,-2.84529 -2.822885,-2.84512 -6.812556,-2.84512 z"/><rect style="opacity:1;fill:#fff;fill-opacity:1;stroke:none;stroke-width:4.93972683;stroke-linecap:round;stroke-linejoin:round;stroke-miterlimit:4;stroke-dasharray:none;stroke-dashoffset:0;stroke-opacity:1;paint-order:normal" id="rect888" width="89.683" height="55.704" x="51.158" y="939.14" rx="9.097" ry="9.286"/></g></g></svg>