<svg xmlns="http://www.w3.org/2000/svg" xmlns:xlink="http://www.w3.org/1999/xlink" id="Слой_1" x="0" y="0" enable-background="new 0 0 192 192" version="1.1" viewBox="0 0 192 192" xml:space="preserve"><path fill="#FFDF7D" d="M179.9,192H12c-6.6,0-12-5.4-12-12V12C0,5.4,5.4,0,12,0h167.9c6.6,0,12,5.4,12,12v168	C191.9,186.6,186.5,192,179.9,192z"/><image width="241" height="241" overflow="visible" transform="matrix(1 0 0 1 0.5018 -383.1059)" xlink:href="30E0AF75.jpg"/><polygon fill="#FFC587" points="22.9 26 167.9 26 70.7 122.9 22.9 122.9"/><polygon fill="#FFF" points="167.9 26 167.9 122.9 70.7 122.9"/><polygon fill="#B1B5BE" points="22.9 122.9 22.9 171.4 70.7 122.9"/></svg>