<svg xmlns="http://www.w3.org/2000/svg" xmlns:svg="http://www.w3.org/2000/svg" id="svg2" width="256" height="256" version="1.1" viewBox="0 0 256 256" xml:space="preserve"><metadata id="metadata8"/><defs id="defs6"><clipPath id="clipPath18" clipPathUnits="userSpaceOnUse"><path id="path16" d="M 0,192 H 192 V 0 H 0 Z"/></clipPath></defs><g id="g10" transform="matrix(1.3333333,0,0,-1.3333333,0,256)"><g id="g12"><g id="g14" clip-path="url(#clipPath18)"><g id="g20" transform="translate(166.7109,87.1836)"><path style="fill:#87dca4;fill-opacity:1;fill-rule:nonzero;stroke:none" id="path22" d="m 0,0 -25.461,38.165 -37.72,-20.975 26.987,-40.395 c 3.581,-6.978 10.842,-11.756 19.224,-11.756 11.931,0 21.603,9.672 21.603,21.603 C 4.633,-8.313 2.898,-3.676 0,0"/></g><g id="g24" transform="translate(50.9492,128.9585)"><path style="fill:#99bef9;fill-opacity:1;fill-rule:nonzero;stroke:none" id="path26" d="m 0,0 -27.044,-42.01 33.848,0.68 19.218,-25.512 36.398,1.191 27.553,41.839 -37.392,-0.772 -20.095,27.135 z"/></g><g id="g28" transform="translate(62.5474,74.332)"><path style="fill:#87ded5;fill-opacity:1;fill-rule:nonzero;stroke:none" id="path30" d="m 0,0 c 0,-11.835 -9.594,-21.429 -21.429,-21.429 -11.836,0 -21.43,9.594 -21.43,21.429 0,11.836 9.594,21.43 21.43,21.43 C -9.594,21.43 0,11.836 0,0"/></g><g id="g32" transform="translate(143.5684,115.6597)"><path style="fill:#fdc394;fill-opacity:1;fill-rule:nonzero;stroke:none" id="path34" d="m 0,0 c 0,-11.93 -9.672,-21.603 -21.603,-21.603 -11.93,0 -21.602,9.673 -21.602,21.603 0,11.93 9.672,21.602 21.602,21.602 C -9.672,21.602 0,11.93 0,0"/></g><g id="g36" transform="translate(89.8213,116)"><path style="fill:#99bef9;fill-opacity:1;fill-rule:nonzero;stroke:none" id="path38" d="m 0,0 c 0,-11.931 -9.67,-21.603 -21.601,-21.603 -11.931,0 -21.603,9.672 -21.603,21.603 0,11.93 9.672,21.602 21.603,21.602 C -9.67,21.602 0,11.93 0,0"/></g><g id="g40" transform="translate(116.3545,74.5)"><path style="fill:#99bef9;fill-opacity:1;fill-rule:nonzero;stroke:none" id="path42" d="m 0,0 c 0,-11.931 -9.672,-21.603 -21.601,-21.603 -11.932,0 -21.603,9.672 -21.603,21.603 0,11.93 9.671,21.602 21.603,21.602 C -9.672,21.602 0,11.93 0,0"/></g></g></g></g></svg>