<svg xmlns="http://www.w3.org/2000/svg" xmlns:svg="http://www.w3.org/2000/svg" id="svg2" width="192" height="192" version="1.1" viewBox="0 0 192 192"><metadata id="metadata7"/><g id="layer1" transform="translate(0,-860.36216)"><path style="fill:#ba6561;fill-opacity:1;stroke-width:8.41178" id="path945" d="m 160.9212,879.86232 a 1.9298189,1.9298189 0 0 0 -0.79428,0.18177 L 99.169201,908.59456 A 6.5206081,6.5206081 0 0 1 96,909.19718 v 30.27536 a 6.4841773,6.4841773 0 0 0 3.169201,-0.5967 L 133.2065,922.94488 a 1.9303576,1.9303576 0 0 1 2.74835,1.74859 v 57.01795 a 4.7715342,4.7715342 0 0 1 -2.74835,4.32111 L 99.169201,1001.9655 A 6.4833833,6.4833833 0 0 1 96,1002.5622 v 30.2872 a 6.5206123,6.5206123 0 0 0 3.169201,-0.6007 l 60.957719,-28.5504 a 4.7726174,4.7726174 0 0 0 2.74836,-4.32114 V 881.79268 a 1.9298189,1.9298189 0 0 0 -1.95408,-1.93036 z"/><path style="fill:#ff837d;fill-opacity:1;stroke-width:8.41178" id="path979" d="m 31.078799,879.86232 a 1.9298189,1.9298189 0 0 1 0.79428,0.18176 l 60.957722,28.55048 A 6.5206081,6.5206081 0 0 0 96,909.19718 v 30.27536 a 6.4841773,6.4841773 0 0 1 -3.169199,-0.5967 L 58.793497,922.94488 a 1.9303576,1.9303576 0 0 0 -2.748346,1.74858 v 57.01796 a 4.7715342,4.7715342 0 0 0 2.748346,4.32111 l 34.037304,15.93287 A 6.4833833,6.4833833 0 0 0 96,1002.5622 v 30.2871 a 6.5206123,6.5206123 0 0 1 -3.169199,-0.6006 l -60.957722,-28.5505 a 4.7726174,4.7726174 0 0 1 -2.748357,-4.32104 V 881.79268 a 1.9298189,1.9298189 0 0 1 1.954077,-1.93036 z"/></g><style id="style853" type="text/css"/><style id="style853-9" type="text/css"/><style id="style853-3" type="text/css"/></svg>