<svg xmlns="http://www.w3.org/2000/svg" xmlns:svg="http://www.w3.org/2000/svg" id="svg2" width="192" height="192" version="1.1" viewBox="0 0 192 192"><metadata id="metadata7"/><g id="layer1" transform="translate(0,-860.36216)"><circle id="circle1964" cx="96" cy="956.362" r="88" style="fill:#ff837d;fill-opacity:1;fill-rule:evenodd;stroke:none;stroke-opacity:1"/><path style="fill:#f9de81;fill-opacity:1;stroke-width:.201812" id="path1966" fill="#fc0" d="m 112.52607,916.99386 c 6.4741,0 11.72562,27.26308 11.72562,60.93288 h 9.44716 c 0,-36.24913 -9.53051,-65.59231 -21.20056,-65.59231 -6.6686,0 -12.559178,8.79187 -16.449196,22.60369 -3.890003,-13.81182 -9.78059,-22.60369 -16.393611,-22.60369 -11.670034,0 -21.17278,29.31548 -21.17278,65.56457 h 9.447177 c 0,-33.66979 5.195936,-60.90514 11.670034,-60.90514 6.474086,0 11.725606,25.18299 11.725606,56.24574 h 9.39159 c 0,-31.06275 5.2793,-56.24574 11.75339,-56.24574"/><circle id="path1968" cx="128.067" cy="991.641" r="5.631" style="fill:#fff;fill-opacity:1;stroke-width:2.62232;stroke-linecap:round;stroke-linejoin:round;stop-color:#000"/><circle id="circle1970" cx="63.932" cy="991.641" r="4.381" style="fill:none;fill-opacity:1;stroke:#fff;stroke-width:2.5;stroke-linecap:round;stroke-linejoin:round;stroke-miterlimit:4;stroke-dasharray:none;stroke-opacity:1;stop-color:#000"/><path id="path2036" d="m 91.833047,995.7739 a 2.3123466,2.3092467 0 0 0 -2.217733,2.30801 2.3123466,2.3092467 0 0 0 2.313706,2.30799 2.3123466,2.3092467 0 0 0 2.311112,-2.30799 2.3123466,2.3092467 0 0 0 -2.311112,-2.30801 2.3123466,2.3092467 0 0 0 -0.09598,0 z" style="fill:#fff;fill-opacity:1;stroke-width:2.62232;stroke-linecap:round;stroke-linejoin:round;stop-color:#000"/><path id="path2034" d="m 83.945177,995.18588 a 2.3123466,2.3092467 0 0 0 -2.311111,2.31061 2.3123466,2.3092467 0 0 0 2.311111,2.30802 2.3123466,2.3092467 0 0 0 2.313707,-2.30802 2.3123466,2.3092467 0 0 0 -2.313707,-2.31061 z" style="fill:#fff;fill-opacity:1;stroke-width:2.62232;stroke-linecap:round;stroke-linejoin:round;stop-color:#000"/><path id="circle1972" d="m 75.717514,993.66534 a 2.3123466,2.3092467 0 0 0 -2.217734,2.30802 2.3123466,2.3092467 0 0 0 2.313705,2.3106 2.3123466,2.3092467 0 0 0 2.311113,-2.3106 2.3123466,2.3092467 0 0 0 -2.311113,-2.30802 2.3123466,2.3092467 0 0 0 -0.09597,0 z" style="fill:#fff;fill-opacity:1;stroke-width:2.62232;stroke-linecap:round;stroke-linejoin:round;stop-color:#000"/><path id="path2042" d="m 100.24696,995.7739 a 2.3123466,2.3092467 0 0 1 2.21772,2.30801 2.3123466,2.3092467 0 0 1 -2.3137,2.30799 2.3123466,2.3092467 0 0 1 -2.311108,-2.30799 2.3123466,2.3092467 0 0 1 2.311108,-2.30801 2.3123466,2.3092467 0 0 1 0.096,0 z" style="fill:#fff;fill-opacity:1;stroke-width:2.62232;stroke-linecap:round;stroke-linejoin:round;stop-color:#000"/><path id="path2040" d="m 108.13483,995.18588 a 2.3123466,2.3092467 0 0 1 2.31111,2.31061 2.3123466,2.3092467 0 0 1 -2.31111,2.30802 2.3123466,2.3092467 0 0 1 -2.31371,-2.30802 2.3123466,2.3092467 0 0 1 2.31371,-2.31061 z" style="fill:#fff;fill-opacity:1;stroke-width:2.62232;stroke-linecap:round;stroke-linejoin:round;stop-color:#000"/><path id="path2002" d="m 116.36248,993.66534 a 2.3123466,2.3092467 0 0 1 2.21774,2.30802 2.3123466,2.3092467 0 0 1 -2.31371,2.3106 2.3123466,2.3092467 0 0 1 -2.31111,-2.3106 2.3123466,2.3092467 0 0 1 2.31111,-2.30802 2.3123466,2.3092467 0 0 1 0.096,0 z" style="fill:#fff;fill-opacity:1;stroke-width:2.62232;stroke-linecap:round;stroke-linejoin:round;stop-color:#000"/></g><style id="style853" type="text/css"/></svg>