<svg xmlns="http://www.w3.org/2000/svg" xmlns:svg="http://www.w3.org/2000/svg" id="svg2" width="192" height="192" version="1.1" viewBox="0 0 192 192"><defs id="defs4"><rect id="rect27227" width="111.723" height="97.934" x="22.981" y="13.081"/><rect id="rect17727" width="73.539" height="53.74" x="10.607" y="6.01"/></defs><metadata id="metadata7"/><g id="layer1" transform="translate(0,-860.36216)"><rect id="rect980" width="153" height="153" x="19.5" y="879.862" rx="10" style="fill:#e85e5c;fill-opacity:1;fill-rule:evenodd;stroke:none;stroke-opacity:1"/><g style="fill:#fefefe" id="g77397" transform="translate(2.7916554,-2.8295874)"><path id="path70481" d="m 84.850208,969.48736 c -0.977469,-0.97746 -1.232469,-2.16756 -0.909875,-4.24635 0.246515,-1.58855 0.674701,-4.34415 0.951529,-6.12357 l 0.503327,-3.23532 -2.073691,2.42649 c -2.567019,3.00376 -2.935222,0.89879 -0.40536,-2.31741 2.108292,-2.68026 4.371402,-2.71961 6.084045,-0.10578 1.114268,1.70059 1.18211,2.60111 0.42307,5.61555 -0.497216,1.9746 -0.890937,4.42994 -0.874931,5.45629 0.0281,1.80217 0.09721,1.78297 2.018059,-0.56037 2.495419,-3.04435 2.800999,-0.83586 0.32063,2.31741 -1.92626,2.44885 -4.084623,2.72524 -6.036803,0.77306 z m -0.06085,-18.40148 c -0.805326,-2.09864 0.323434,-3.83319 2.310815,-3.55098 1.336775,0.18982 1.823477,0.79864 1.823477,2.28101 0,1.48237 -0.486702,2.09119 -1.823477,2.28101 -1.093763,0.15531 -2.018505,-0.24929 -2.310815,-1.01104 z" style="fill:#fefefe;stroke-width:.808829"/><text id="text71220" x="23" y="970.362" xml:space="preserve" style="font-style:normal;font-variant:normal;font-weight:700;font-stretch:normal;font-size:26.6667px;line-height:1.25;font-family:Now;-inkscape-font-specification:'Now Bold';fill:#fefefe"><tspan id="tspan71218" x="23" y="970.362">med</tspan></text><text id="text71708" x="92.75" y="970.612" xml:space="preserve" style="font-style:normal;font-variant:normal;font-weight:700;font-stretch:normal;font-size:26.6667px;line-height:1.25;font-family:Now;-inkscape-font-specification:'Now Bold';fill:#fefefe"><tspan style="font-size:26.6667px;fill:#fefefe" id="tspan71706" x="92.75" y="970.612">bank</tspan></text></g></g><style id="style853" type="text/css"/></svg>