<svg xmlns="http://www.w3.org/2000/svg" xmlns:xlink="http://www.w3.org/1999/xlink" width="100%" height="100%" version="1.1" viewBox="0 0 192 192" xml:space="preserve" style="fill-rule:evenodd;clip-rule:evenodd;stroke-linejoin:round;stroke-miterlimit:2"><g id="Layer1"><g><path d="M164.5,21.5C164.5,15.981 160.019,11.5 154.5,11.5L21.5,11.5C15.981,11.5 11.5,15.981 11.5,21.5L11.5,154.5C11.5,160.019 15.981,164.5 21.5,164.5L154.5,164.5C160.019,164.5 164.5,160.019 164.5,154.5L164.5,21.5Z" transform="matrix(1,0,0,1,8,8)" style="fill:#fff"/></g><g><g><path d="M84.485,67.99C84.485,61.829 79.317,56.827 72.952,56.827C66.587,56.827 61.419,61.829 61.419,67.99L61.419,124.73C61.419,130.891 66.587,135.894 72.952,135.894C79.317,135.894 84.485,130.891 84.485,124.73L84.485,67.99Z" transform="matrix(0.570708,0.570708,-0.570708,0.570708,82.1078,-15.7346) matrix(0.93526,0,0,0.966273,14.4829,-7.36341)" style="fill:#f9de81"/></g><g><path d="M84.485,67.99C84.485,61.829 79.317,56.827 72.952,56.827C66.587,56.827 61.419,61.829 61.419,67.99L61.419,124.73C61.419,130.891 66.587,135.894 72.952,135.894C79.317,135.894 84.485,130.891 84.485,124.73L84.485,67.99Z" transform="matrix(0.570708,0.570708,-0.570708,0.570708,82.1078,-15.7346) matrix(0.93526,0,0,0.966273,41.8332,-7.41674)" style="fill:#ff837d"/></g><g><path d="M84.485,67.99C84.485,61.829 79.317,56.827 72.952,56.827C66.587,56.827 61.419,61.829 61.419,67.99L61.419,124.73C61.419,130.891 66.587,135.894 72.952,135.894C79.317,135.894 84.485,130.891 84.485,124.73L84.485,67.99Z" transform="matrix(0.570708,0.570708,-0.570708,0.570708,82.1078,-15.7346) matrix(0.93526,0,0,0.966273,69.1835,-7.41674)" style="fill:#9abeff"/></g></g></g></svg>