<svg xmlns="http://www.w3.org/2000/svg" xmlns:svg="http://www.w3.org/2000/svg" id="svg2" width="192" height="192" version="1.1" viewBox="0 0 192 192"><metadata id="metadata20"/><defs id="defs18"><clipPath id="clipPath3357"><rect id="rect3359" width="84" height="84" x="6" y="6" fill="#fff" rx="6"/></clipPath><filter id="filter3361" color-interpolation-filters="sRGB"><feGaussianBlur id="feGaussianBlur3363" stdDeviation="1.71"/></filter><filter id="filter3365" width="1.384" height="1.384" x="-.192" y="-.192" color-interpolation-filters="sRGB"><feGaussianBlur id="feGaussianBlur3367" stdDeviation="5.28"/></filter><linearGradient id="0" x1="24.61" x2="23.593" y1="47.593" y2="-.203" gradientTransform="matrix(1.7627119,0,0,1.7627119,0.40677967,84.610169)" gradientUnits="userSpaceOnUse"><stop id="stop3370" stop-color="#c52828"/><stop id="stop3372" offset="1" stop-color="#ff5454"/></linearGradient><linearGradient id="linearGradient3374" x2="0" y1="20.221" y2="138.66" gradientUnits="userSpaceOnUse"><stop id="stop3376" stop-color="#fff"/><stop id="stop3378" offset="1" stop-color="#fff" stop-opacity="0"/></linearGradient><linearGradient id="linearGradient3380" x2="0" y1="92.54" y2="7.02" gradientTransform="scale(1.0059.99417)" gradientUnits="userSpaceOnUse"><stop id="stop3382"/><stop id="stop3384" offset="1" stop-opacity=".588"/></linearGradient></defs><g id="g837"><rect style="fill:#dc505e;fill-opacity:1;fill-rule:evenodd;stroke:none" id="rect6" width="153" height="153" x="19.5" y="19.5" rx="10"/><path id="path3390" d="m 79.227247,73.409265 c -1.782713,0.02715 -3.601621,0.479613 -5.368496,1.35287 -5.268955,2.603936 -7.429475,8.200927 -5.793814,14.872522 0.780503,3.189878 1.051981,7.497344 0.579155,9.232546 -0.669648,2.456887 -2.721576,3.744157 -6.026832,3.746417 -3.264534,0.004 -6.474773,2.50892 -7.108224,5.56305 -0.649287,3.12201 0.09276,5.95218 2.124322,7.99506 2.389015,2.40485 5.703321,3.08128 8.576473,1.73746 4.158153,-1.9456 5.520072,-6.00873 3.74641,-11.08539 -0.855159,-2.44784 -0.893618,-2.77587 -0.463777,-4.32557 1.821171,-6.558474 16.784186,-7.04035 19.236546,-0.61761 0.579155,1.51802 0.484137,2.55643 -0.579156,5.21467 -0.651548,1.6266 -0.73073,2.19445 -0.617614,3.94096 0.203609,3.18987 1.732941,5.42506 4.750882,6.8096 1.837007,0.83706 5.653548,0.83254 7.454359,0 4.427369,-2.04515 6.090179,-6.48156 4.133269,-10.97002 -1.68091,-3.85499 -0.83028,-6.41595 2.70347,-8.189613 4.44773,-2.230651 10.87047,-1.721628 14.09881,1.119851 2.30983,2.033822 2.65371,3.793922 1.42979,7.300532 -1.62662,4.65586 -0.32351,8.6828 3.43874,10.70079 1.62434,0.871 5.21465,0.871 6.83221,0 1.46826,-0.78955 3.12879,-2.52249 3.6695,-3.82333 1.58136,-3.79392 0.28731,-8.56969 -2.81886,-10.39086 -1.07461,-0.62893 -1.88452,-0.82122 -4.05635,-1.00447 -1.76688,-0.14931 -3.0021,-0.42759 -3.59258,-0.77145 -1.17867,-0.68776 -2.11979,-2.393545 -2.35734,-4.28711 -0.21492,-1.723891 0.2647,-6.020045 0.92756,-8.304993 0.68548,-2.361867 0.41174,-6.786974 -0.54069,-8.884149 -2.91614,-6.404641 -11.15553,-8.911297 -16.99685,-5.137739 -0.91625,0.592729 -2.09039,1.64471 -2.62656,2.31662 -1.87773,2.36413 -4.902456,5.39112 -5.832271,5.832273 -2.341505,1.110801 -4.744094,0.201347 -7.37744,-2.780397 -3.979429,-4.50655 -4.569896,-5.076657 -6.334509,-5.947651 -1.66507,-0.818961 -3.431947,-1.226181 -5.214658,-1.19677 m 16.840744,13.132794 c 5.391124,-0.0091 9.049294,4.920556 7.533534,10.1601 -0.66512,2.284948 -2.84373,4.497492 -5.022354,5.137732 -1.864155,0.5475 -3.400273,0.57464 -5.137738,0.0385 -3.020204,-0.92982 -5.273479,-4.149102 -5.253118,-7.533541 0.01358,-2.262324 0.520334,-3.554112 2.085862,-5.253117 1.635661,-1.773663 3.404799,-2.545115 5.793814,-2.549639" style="color:#000;fill:#fff;fill-opacity:.95263157;stroke-width:2.26232457"/></g></svg>