<svg xmlns="http://www.w3.org/2000/svg" xmlns:svg="http://www.w3.org/2000/svg" id="svg2" width="192" height="192" version="1.1" viewBox="0 0 192 192"><defs id="defs4"><style id="style842">.cls-1{fill:none}.cls-2{fill:#ff0211;fill-rule:evenodd}.cls-4{fill:#4dc9ff}.cls-5{fill:#fff}</style></defs><metadata id="metadata7"/><g id="layer1" transform="translate(0,-860.36216)"><rect id="rect848" width="182" height="49" x="43" y="660.862" class="cls-1"/><g id="g1080" transform="matrix(0.98305088,0,0,0.98305088,1.6271198,16.209493)"><path id="path850" d="m 173.08565,916.25369 v 81.53103 a 13.782628,13.782628 0 0 1 -7.76485,12.30728 l -69.10726,33.3501 a 13.743803,13.743803 0 0 1 -11.95789,0 L 43.41248,1023.6805 15.26486,1009.8979 A 13.62733,13.62733 0 0 1 7.5,997.5906 v -81.53104 a 13.588506,13.588506 0 0 1 7.76486,-12.19082 L 84.3333,869.35392 a 13.782628,13.782628 0 0 1 12.26848,0 l 68.95197,34.67011 a 13.704978,13.704978 0 0 1 7.5319,12.22966 z" class="cls-2" style="fill:#ff847f;fill-opacity:1;stroke-width:3.88243"/><circle id="circle868" cx="147.384" cy="918.195" r="37.116" class="cls-4" style="fill:#9abefe;fill-opacity:1;stroke-width:3.88243"/><path id="path870" d="m 29.392573,985.69599 -5.465566,-2.68895 a 1.6064517,1.6064517 58.098152 0 1 -0.897287,-1.44145 v -19.46984 c 0,-0.55228 -0.0032,-1.44819 0.02983,-1.99941 0.337883,-5.64452 3.549264,-10.98705 9.804121,-10.90008 0.552074,0.008 1.440218,0.1307 1.97874,0.25292 5.32508,1.20854 9.843926,4.71894 12.331791,9.57976 0.251601,0.49158 0.755068,0.59061 1.19569,0.25807 1.864456,-1.40709 4.192257,-2.06281 6.51703,-1.83579 0.549411,0.0536 1.433218,0.20837 1.970422,0.33552 4.736599,1.12112 16.382429,6.70965 16.825102,23.62368 0.01445,0.55208 0.01298,1.4476 0.01298,1.99988 v 23.2746 a 0.62483047,0.62483047 148.0016 0 1 -0.89877,0.5616 l -6.16143,-3.0056 a 1.6004341,1.6004341 58.001602 0 1 -0.89877,-1.4384 v -21.76048 c 0,-0.55228 0.03998,-1.44677 0.0408,-1.99891 0.0084,-5.59118 -3.685145,-10.53502 -9.049181,-12.11251 -0.529709,-0.15578 -1.423137,-0.30448 -1.965996,-0.21219 -1.729485,0.29403 -3.128607,1.86003 -3.41508,4.71579 -0.05511,0.54934 -0.0572,1.44595 -0.05987,1.99823 -0.02328,4.81307 -0.0018,18.32025 0.0049,22.10999 9.71e-4,0.55224 -0.400322,0.80313 -0.896393,0.56038 l -5.502528,-2.69275 A 1.6026824,1.6026824 58.037736 0 1 43.99485,991.9705 v -20.47927 c 0,-0.55228 0.0027,-1.448 -0.02243,-1.99966 -0.370148,-8.12535 -5.23626,-11.28604 -8.198455,-12.08665 -0.532638,-0.14396 -1.434295,-0.20287 -1.972996,-0.0859 -1.442883,0.31318 -3.184164,1.43489 -3.470412,4.79681 -0.04684,0.5501 -0.0407,1.44654 -0.0407,1.99882 l 0,21.02283 a 0.62248994,0.62248994 148.09815 0 1 -0.897287,0.55855 z" class="cls-5" style="stroke-width:3.88243"/></g></g></svg>