<svg xmlns="http://www.w3.org/2000/svg" xmlns:svg="http://www.w3.org/2000/svg" id="Layer_1" x="0" y="0" version="1.1" viewBox="0 0 192 192" xml:space="preserve" style="enable-background:new 0 0 192 192"><metadata id="metadata25"/><style id="style2" type="text/css">.st0{fill:#fff}.st1{fill:#fec008}.st2{fill:#72c9ae}.st3{fill:#54688c}.st4{fill:#98dc9a}.st5{fill:#9abeff}.st6{fill:#728dbe}</style><path id="path10" d="M 167.26002,81.843796 54.154151,15.452493 C 43.254087,9.0823259 29.522837,16.868086 29.522837,29.608421 V 162.39103 c 0,12.74033 13.73125,20.52609 24.631314,14.15592 l 113.105869,-66.3913 c 10.90006,-6.37017 10.90006,-21.941687 0,-28.311854 z" class="st3" style="stroke-width:1.41559"/><path id="rect854" d="m 29.522837,56.788909 v 69.787071 35.8156 c 0,12.74033 13.731803,20.52609 24.631868,14.15593 L 97.095274,151.34055 83.141179,124.71248 47.555055,56.788909 Z" style="fill:#728dbe;fill-opacity:1;stroke-width:0;stroke-linecap:square;stroke-linejoin:round;stop-color:#000"/><path id="rect860" d="m 41.474408,56.787807 h 30.870111 c 19.331477,0 34.894361,15.562886 34.894361,34.894363 0,19.33147 -15.562884,34.89436 -34.894361,34.89436 H 41.474408 Z" style="fill:#98dc9a;fill-opacity:1;stroke-width:0;stroke-linecap:square;stroke-linejoin:round;stop-color:#000"/><path id="path6" d="m 157.77554,154.32215 c 0.14156,-0.14156 0.28312,-0.28312 0.42468,-0.42468 0,0.28312 0,0.56624 -0.42468,0.42468 z" class="st1" style="stroke-width:1.41559"/><path id="path8" d="m 129.32213,30.174659 c -0.14156,-0.14156 -0.28312,-0.283119 -0.42468,-0.424678 0.14156,0.141559 0.28312,0.283118 0.42468,0.424678 z" class="st2" style="stroke-width:1.41559"/><path id="path5183" d="m 29.522837,56.788909 v 69.787071 h 42.821682 c 3.800735,0 7.45156,-0.60896 10.871311,-1.7225 L 83.14119,124.71249 47.555067,56.788923 Z" style="fill:#9abeff;fill-opacity:1;stroke-width:0;stroke-linecap:square;stroke-linejoin:round;stop-color:#000"/><style id="style5190" type="text/css">.st0{fill:#fff}.st1{fill:#fec008}.st2{fill:#72c9ae}.st3{fill:#54688c}.st4{fill:#98dc9a}.st5{fill:#9abeff}.st6{fill:#728dbe}</style><g id="g5224" transform="translate(186.90704,-10.885893)"><path id="path5192" d="m 29.5,19.5 h 133 c 5.5,0 10,4.5 10,10 v 133 c 0,5.5 -4.5,10 -10,10 h -133 c -5.5,0 -10,-4.5 -10,-10 v -133 c 0,-5.5 4.5,-10 10,-10 z" class="st0"/><path id="path5194" d="m 135.1,137.2 c 0.1,-0.1 0.2,-0.2 0.3,-0.3 0,0.2 0,0.4 -0.3,0.3 z" class="st1"/><path id="path5196" d="m 115,49.5 c -0.1,-0.1 -0.2,-0.2 -0.3,-0.3 0.1,0.1 0.2,0.2 0.3,0.3 z" class="st2"/><g id="g5206"><path id="path5198" d="M 141.8,86 61.9,39.1 c -7.7,-4.5 -17.4,1 -17.4,10 v 93.8 c 0,9 9.7,14.5 17.4,10 L 141.8,106 c 7.7,-4.5 7.7,-15.5 0,-20 z" class="st3"/><path id="path5200" d="m 99.4,92.9 c 0,6.8 -2.8,13 -7.2,17.4 -2.7,2.7 -6.1,4.8 -9.8,6 l -25,-48 h 17.4 c 13.6,0 24.6,11.1 24.6,24.6 z" class="st4"/><path id="path5202" d="m 82.4,116.4 c -2.4,0.8 -4.9,1.2 -7.6,1.2 H 44.4 V 68.3 h 12.9 z" class="st5"/><path id="path5204" d="m 92.2,135.1 -30.3,17.7 c -7.7,4.5 -17.5,-1 -17.5,-10 v -25.3 h 30.4 c 2.6,0 5.2,-0.4 7.6,-1.2 z" class="st6"/></g></g></svg>