<svg xmlns="http://www.w3.org/2000/svg" xmlns:svg="http://www.w3.org/2000/svg" id="svg2" width="192" height="192" version="1.1" viewBox="0 0 192 192"><metadata id="metadata7"/><g id="layer1" transform="translate(0,-860.36216)"><rect style="fill:#fff;fill-opacity:1;fill-rule:evenodd;stroke:none;stroke-width:6.21406;stroke-opacity:1" id="rect1087" width="1263.22" height="715.575" x="1925.05" y="1768.9" rx="82.563"/><circle style="fill:#54688c;fill-opacity:1;fill-rule:evenodd;stroke:none;stroke-width:.999994;stroke-opacity:1" id="circle963" cx="96" cy="956.362" r="88"/><path id="path965" d="m 106.48925,946.86311 c 0.17885,-0.17041 -18.514619,-7.12443 -19.953701,-5.85516 -0.845834,0.74605 -11.487883,2.51415 -12.688295,3.7484 0,0 -14.452175,13.58817 -16.111373,32.94992 -1.659145,19.36174 10.99394,47.58483 34.839996,58.50733 23.846113,10.9224 46.673713,-4.036 62.450003,-14.5828 17.76483,-16.0399 28.97409,-39.34522 28.97409,-65.26865 0,-2.86119 -0.13652,-5.69049 -0.41362,-8.55362 0,0 -2.63243,30.89413 -26.67383,43.50417 -24.04145,12.61 -43.19238,6.07242 -53.31392,-3.63198 -10.121544,-9.7044 -13.173018,-27.57964 0.90671,-38.92732 z" style="fill:#708cbd;fill-opacity:1;stroke:none;stroke-width:.527098px;stroke-linecap:butt;stroke-linejoin:miter;stroke-opacity:1"/><path id="path967" d="m 7.999999,956.36215 c 0,-39.74783 26.352353,-73.34073 62.538873,-84.26044 v 0 c 13.897194,-1.73808 28.762982,-2.19227 44.267928,2.43332 49.56848,14.78777 44.75866,51.76314 34.57055,63.67358 -10.18812,11.91043 -24.90716,19.05422 -45.17391,10.37489 -7.366083,-3.15454 -14.394509,-6.07298 -28.207525,-4.17571 -21.925998,3.0116 -37.321573,21.71922 -41.153256,34.48269 -5.133984,17.10125 0.510178,38.29732 10.480072,49.41932 C 22.742868,1012.3787 7.999999,986.09214 7.999999,956.36215 Z" style="fill:#99bdfe;fill-opacity:1;fill-rule:evenodd;stroke:none;stroke-width:.527098;stroke-miterlimit:4;stroke-dasharray:none;stroke-opacity:1"/><path id="path970" d="m 45.423934,1028.3855 c -9.976009,-11.1218 -22.865181,-29.30247 -17.937556,-46.46433 6.713907,-23.38326 31.57547,-48.87138 50.974404,-43.72856 2.488269,0.65966 4.14051,3.22271 4.59471,5.61972 0,0 -15.0051,13.66448 -16.664298,33.02622 -1.659146,19.36175 6.74569,41.62285 30.591747,52.54535 23.846109,10.9224 42.266649,2.7937 58.106039,-7.8102 -15.62571,14.1641 -36.35019,22.7885 -59.088971,22.7885 -18.823975,0 -36.267482,-5.9104 -50.576075,-15.9767" style="fill:#99bdfe;fill-opacity:1;stroke:none;stroke-width:.527098px;stroke-linecap:butt;stroke-linejoin:miter;stroke-opacity:1"/><path id="path972" d="m 7.999999,956.36215 c 0,-39.74783 26.352353,-73.34073 62.538873,-84.26044 v 0 c 13.897194,-1.73808 28.762982,-2.19227 44.267928,2.43332 49.56848,14.78777 44.75866,51.76314 34.57055,63.67358 -10.18812,11.91043 -24.90716,19.05422 -45.17391,10.37489 -7.366083,-3.15454 -14.394509,-6.07298 -28.207525,-4.17571 -21.925998,3.0116 -37.321573,21.71922 -41.153256,34.48269 -5.133984,17.10125 0.510178,38.29732 10.480072,49.41932 C 22.742868,1012.3787 7.999999,986.09214 7.999999,956.36215 Z" style="fill:#fff;fill-opacity:.25;fill-rule:evenodd;stroke:none;stroke-width:.527098;stroke-miterlimit:4;stroke-dasharray:none;stroke-opacity:1"/></g><style id="style853" type="text/css"/></svg>