<svg xmlns="http://www.w3.org/2000/svg" xmlns:svg="http://www.w3.org/2000/svg" id="svg14" width="192" height="192" version="1.1" viewBox="0 0 192 192"><metadata id="metadata20"/><defs id="defs18"><mask id="mask-2" fill="#fff"><polygon id="use9" points="0 58.696 0 0 222.87 0 222.87 58.696"/></mask><mask id="mask-2-3" fill="#fff"><polygon id="use9-6" points="0 58.696 0 0 222.87 0 222.87 58.696"/></mask></defs><g id="g834"><circle id="circle4487" cx="96" cy="96" r="88.5" style="fill:#fff;fill-opacity:1;fill-rule:evenodd;stroke:none"/><g style="fill:#ff8681;fill-opacity:1" id="g91" transform="matrix(1.9372907,0,0,1.9372907,-218.50431,-85.328784)"><path style="clip-rule:evenodd;fill:#ff8681;fill-opacity:1;fill-rule:evenodd" id="path6" d="m 163.42308,92.856923 c -2.645,-2.646 -5.844,-3.937 -9.473,-3.937 -3.629,0 -6.766,1.292 -9.35,3.937 -2.645,2.645 -3.938,5.844 -3.938,9.533997 0,3.69 1.293,6.89 3.938,9.473 2.584,2.646 5.721,3.999 9.35,3.999 3.629,0 6.828,-1.354 9.473,-3.999 2.584,-2.583 3.875,-5.782 3.875,-9.473 0,-3.690997 -1.291,-6.889997 -3.875,-9.533997 z m -4.49,14.515997 c -1.354,1.415 -3.014,2.092 -4.982,2.092 -1.906,0 -3.568,-0.677 -4.92,-2.092 -1.354,-1.415 -2.092,-3.076 -2.092,-4.982 0,-2.03 0.738,-3.689997 2.092,-5.043997 1.352,-1.415 3.014,-2.092 4.92,-2.03 1.969,-0.062 3.629,0.615 5.045,2.03 1.291,1.354 1.969,3.013997 2.029,5.043997 -0.061,1.906 -0.739,3.567 -2.092,4.982 z"/><path style="clip-rule:evenodd;fill:#ff8681;fill-opacity:1;fill-rule:evenodd" id="path14" d="m 168.40608,89.903923 15.439,-15.44 -4.059,-4.059 -15.439,15.439 z m -10.827,-6.151 v -16.547 h -5.72 v 16.547 z m 13.657,12.548 v 5.720997 h 16.916 v -5.720997 z"/></g></g></svg>