<svg xmlns="http://www.w3.org/2000/svg" xmlns:svg="http://www.w3.org/2000/svg" id="svg14" width="192" height="192" version="1.1" viewBox="0 0 192 192"><metadata id="metadata20"/><defs id="defs18"><mask id="mask-2" fill="#fff"><polygon id="use9" points="0 58.696 0 0 222.87 0 222.87 58.696"/></mask><mask id="mask-2-3" fill="#fff"><polygon id="use9-6" points="0 58.696 0 0 222.87 0 222.87 58.696"/></mask></defs><g id="g73"><circle id="circle4487" cx="96" cy="96" r="88.5" style="fill:#9abefe;fill-opacity:1;fill-rule:evenodd;stroke:none"/><path style="fill:#fff;fill-opacity:1;fill-rule:evenodd;stroke:none;stroke-width:1.37919343;stroke-opacity:1" id="Fill-1" d="m 65.072337,67.966304 c 5.810364,-0.09365 8.602022,2.926733 11.043181,5.336845 2.604331,2.568059 7.464103,10.206888 9.917071,14.218229 2.814202,4.603969 6.655751,7.829421 11.114566,7.364205 3.646705,-0.383307 6.018085,-2.674049 7.632635,-6.389872 1.58987,-3.665511 4.21514,-10.840738 7.49416,-17.83449 3.55708,-7.585302 10.33683,-11.499204 16.24487,-11.119637 5.33964,0.336731 9.50217,4.162834 12.09308,10.131927 2.70793,6.24641 4.2586,13.462861 4.75349,21.378466 0.41974,6.761937 0.17821,11.211203 -0.75574,17.821103 -0.18574,1.31265 -0.52711,3.15532 -0.9302,4.36521 -1.01608,3.06056 -3.56621,5.59113 -6.74218,5.14251 -2.97898,-0.42291 -4.12872,-3.06163 -4.32139,-5.70196 -0.0998,-1.34263 0.14169,-3.76453 0.27696,-4.96477 0.36982,-3.31754 0.8443,-7.827833 0.80996,-11.919475 -0.0391,-4.628587 -0.84539,-7.775878 -4.07397,-8.808027 -3.47817,-1.114594 -7.60688,2.530035 -10.70235,9.342838 -2.69234,5.927884 -4.36703,11.713344 -6.82107,19.455504 -3.2817,10.34715 -9.64653,13.63417 -18.284519,13.99178 -8.474812,0.34958 -13.753252,-4.75601 -16.612004,-9.52806 -3.164704,-5.2828 -7.048122,-12.19837 -9.313223,-16.10265 -1.897426,-3.27095 -3.895762,-5.883443 -6.279489,-5.359872 -1.417029,0.312642 -3.550627,1.019298 -3.327874,6.418252 0.167467,4.03544 2.086899,9.69991 3.527011,14.39328 0.470196,1.53215 1.304849,4.28437 1.593624,6.16772 0.597945,3.89195 -1.055797,5.59918 -2.493225,6.30743 -1.320414,0.6451 -4.463111,0.79874 -6.349263,-1.57981 -0.655914,-0.82657 -1.50345,-2.1735 -2.053086,-3.45994 -1.589866,-3.73991 -3.948364,-10.53184 -5.281661,-18.39926 -1.443333,-8.52323 -0.791177,-15.689356 0.894232,-22.559974 3.873754,-15.775547 12.352323,-18.034694 16.946404,-18.107502 z"/></g></svg>