<svg xmlns="http://www.w3.org/2000/svg" xmlns:svg="http://www.w3.org/2000/svg" id="svg2" width="192" height="192" version="1.1" viewBox="0 0 192 192"><metadata id="metadata7"/><g id="layer1" transform="translate(0,-860.36216)"><rect style="fill:#fefefe;fill-opacity:1;fill-rule:evenodd;stroke:none;stroke-opacity:1" id="rect1048" width="153" height="153" x="19.5" y="879.862" rx="10"/><path style="fill:#708cbd;fill-opacity:1;stroke-width:.117195;stroke-linecap:round;stroke-linejoin:round;stop-color:#000" id="rect940" width="12.957" height="41.434" x="119.543" y="922.301" d="M 121.54281,922.30115 H 130.5 a 2,2 45 0 1 2,2 v 37.43358 a 2,2 135 0 1 -2,2 h -8.95719 a 2,2 45 0 1 -2,-2 v -37.43358 a 2,2 135 0 1 2,-2 z"/><path style="fill:#708cbd;fill-opacity:1;stroke-width:.117195;stroke-linecap:round;stroke-linejoin:round;stop-color:#000" id="rect942" width="12.957" height="41.434" x="98.929" y="922.301" d="m 100.9286,922.30115 h 8.95719 a 2,2 45 0 1 2,2 l 0,37.43358 a 2,2 135 0 1 -2,2 h -8.95719 a 2,2 45 0 1 -1.999996,-2 l 0,-37.43358 a 2,2 135 0 1 1.999996,-2 z"/><path style="fill:#708cbd;fill-opacity:1;stroke-width:.112341;stroke-linecap:round;stroke-linejoin:round;stop-color:#000" id="rect944" width="12.957" height="38.073" x="65.113" y="925.662" d="m 67.11306,925.66211 h 8.957188 a 2,2 45 0 1 2,2 v 34.07265 a 2,2 135 0 1 -2,2 H 67.11306 a 2,2 45 0 1 -2,-2 v -34.07265 a 2,2 135 0 1 2,-2 z"/><path id="rect946" d="m 122.22987,898.57773 -34.200971,34.20175 a 1.9590723,1.9590723 0.59163519 0 1 -2.798889,-0.0289 L 68.744231,915.56902 a 1.8837024,1.8837024 179.46871 0 0 -2.742382,0.0254 l -5.144157,5.56424 a 2.2733786,2.2733786 91.413862 0 0 -0.0741,3.00231 l 24.547522,29.33169 a 1.6976666,1.6976666 0.39993282 0 0 2.588464,0.0181 l 41.210864,-47.86872 a 2.1822042,2.1822042 88.220241 0 0 -0.0916,-2.94743 l -3.99833,-4.09936 a 1.9751792,1.9751792 0.35709579 0 0 -2.81066,-0.0175 z" style="fill:#99bdfe;fill-opacity:1;stroke-width:.117195;stroke-linecap:round;stroke-linejoin:round;stop-color:#000"/><text style="font-style:normal;font-variant:normal;font-weight:700;font-stretch:normal;font-size:40.7253px;line-height:1.25;font-family:Now;-inkscape-font-specification:'Now Bold';letter-spacing:0;word-spacing:0;fill:#82858b;fill-opacity:1;stroke-width:1.01813" id="text952" x="59.303" y="1003.343" xml:space="preserve"><tspan id="tspan950" x="59.303" y="1003.343" style="fill:#82858b;fill-opacity:1;stroke-width:1.01813">Pay</tspan></text></g><style id="style853" type="text/css"/></svg>