<svg xmlns="http://www.w3.org/2000/svg" xmlns:svg="http://www.w3.org/2000/svg" id="svg2" width="192" height="192" version="1.1" viewBox="0 0 192 192"><metadata id="metadata7"/><g id="layer1" transform="translate(0,-860.36216)"><rect id="rect967" width="152" height="152" x="20" y="880.362" rx="9.935" ry="9.935" style="fill:#ff837d;fill-opacity:1;fill-rule:evenodd;stroke:none;stroke-width:.993464;stroke-opacity:1"/><path style="font-weight:700;font-size:92.4051px;line-height:1.25;font-family:Now;-inkscape-font-specification:'Now Bold';letter-spacing:0;word-spacing:0;fill:#fff;fill-opacity:1;stroke-width:2.31013" id="path969" d="m 96.120946,971.03142 h 4e-6 a 6.58386,6.58386 0 0 0 6.58386,-6.58386 c 0,-8.54748 16.40191,-3.69621 16.40191,-23.10128 0,-12.01266 -10.04906,-21.48418 -22.98577,-21.48418 -11.995492,0 -21.074299,7.53476 -22.893751,18.12591 -0.605952,3.52728 2.702625,6.47694 6.292476,6.47694 3.554957,0 5.679884,-3.15282 7.171312,-6.35689 1.551254,-3.33259 4.962686,-5.54026 9.429963,-5.54026 5.65981,0 10.16456,3.92721 10.16456,8.77848 0,13.97627 -16.748424,4.38924 -16.748424,23.90982 a 6.1927996,6.1927996 0 0 0 6.58386,5.77532 z m 0.346523,21.8307 c 4.504751,0 8.085441,-3.58069 8.085441,-8.08544 0,-4.50475 -3.58069,-8.20096 -8.085441,-8.20096 -4.504749,0 -8.200953,3.69621 -8.200953,8.20096 0,4.50475 3.696204,8.08544 8.200953,8.08544 z"/><circle id="circle973" cx="40" cy="900.362" r="8" style="fill:#ffd6d4;fill-opacity:1;stroke:none;stroke-width:5.43666;stroke-linecap:square;stop-color:#000"/><circle id="circle975" cx="152" cy="900.362" r="8" style="fill:#ffd6d4;fill-opacity:1;stroke:none;stroke-width:5.43666;stroke-linecap:square;stop-color:#000"/></g><style id="style853" type="text/css"/><style id="style853-9" type="text/css"/><style id="style853-3" type="text/css"/></svg>