<svg xmlns="http://www.w3.org/2000/svg" xmlns:svg="http://www.w3.org/2000/svg" id="svg2" width="192" height="192" version="1.1" viewBox="0 0 192 192"><metadata id="metadata7"/><g id="layer1" transform="translate(0,-860.36216)"><rect style="fill:#95ded2;fill-opacity:1;fill-rule:evenodd;stroke:none;stroke-opacity:1" id="rect1044" width="153" height="153" x="19.5" y="879.862" rx="10"/><path id="path1037" d="m 96.000377,916.70773 c -0.528485,2e-5 -1.056462,0.0951 -1.462757,0.28569 -4.658867,2.18607 -19.644972,8.71942 -33.322155,9.21588 -0.896806,0.0326 -1.647207,0.75706 -1.665917,1.65449 -0.151711,7.27752 -0.355983,36.97965 6.05546,47.51546 6.592299,10.83297 23.689143,18.31156 28.879283,20.38718 0.4166,0.16656 0.966252,0.25016 1.516086,0.25016 z" style="fill:#fefefe;fill-opacity:1;stroke:none;stroke-width:.650114px;stroke-linecap:butt;stroke-linejoin:miter;stroke-opacity:1"/><path id="path1021" d="m 95.99962,916.70773 c 0.528484,2e-5 1.056463,0.0951 1.462757,0.28569 4.658863,2.18607 19.644973,8.71942 33.322153,9.21588 0.89681,0.0326 1.64721,0.75706 1.66592,1.65449 0.15171,7.27752 0.35598,36.97965 -6.05546,47.51546 -6.5923,10.83297 -23.68914,18.31156 -28.879284,20.38718 -0.416596,0.16656 -0.966249,0.25016 -1.516086,0.25016 z" style="fill:#fefefe;fill-opacity:.5;stroke:none;stroke-width:.650114px;stroke-linecap:butt;stroke-linejoin:miter;stroke-opacity:1"/><path id="path982" d="m 93.917604,935.74959 c -1.876626,0 -3.386438,1.51108 -3.386438,3.3877 v 10.13264 H 80.398527 c -1.876619,0 -3.387699,1.51107 -3.387699,3.3877 v 4.16226 c 0,1.87662 1.51108,3.3877 3.387699,3.3877 h 10.132639 v 10.13264 c 0,1.87662 1.509812,3.3877 3.386438,3.3877 h 4.163519 c 1.876626,0 3.387707,-1.51108 3.387707,-3.3877 v -10.13264 h 10.13264 c 1.87662,0 3.3877,-1.51108 3.3877,-3.3877 v -4.16226 c 0,-1.87663 -1.51108,-3.3877 -3.3877,-3.3877 h -10.13264 v -10.13264 c 0,-1.87662 -1.511081,-3.3877 -3.387707,-3.3877 z" style="fill:#95ded2;fill-opacity:1;stroke:none;stroke-width:.521258;stop-color:#000"/></g><style id="style853" type="text/css"/></svg>