<svg xmlns="http://www.w3.org/2000/svg" xmlns:svg="http://www.w3.org/2000/svg" id="svg2" width="192" height="192" version="1.1" viewBox="0 0 192 192"><metadata id="metadata7"/><g id="layer1" transform="translate(0,-860.36216)"><rect id="rect1044" width="153" height="153" x="19.5" y="879.862" rx="10" style="fill:#96dfd3;fill-opacity:1;fill-rule:evenodd;stroke:none;stroke-opacity:1"/><path style="fill:#fefefe;fill-opacity:1;stroke:none;stroke-width:.799343px;stroke-linecap:butt;stroke-linejoin:miter;stroke-opacity:1" id="path1020" d="m 93.79132,920.31142 -27.990863,11.87223 a 3.6219304,3.6219304 0 0 0 -2.207657,3.33439 v 22.24734 c 0,1.32439 -0.01287,3.47337 0.07985,4.79423 0.268092,3.81883 1.186841,6.28931 2.381691,8.43498 0.644174,1.1568 1.844236,2.94169 2.650229,3.9923 4.14552,5.40368 11.618114,12.16473 25.054708,17.50823 1.230605,0.48939 3.248834,0.48939 4.479446,0 13.436746,-5.34351 20.910476,-12.10457 25.056236,-17.50826 0.80602,-1.05058 2.00611,-2.8355 2.6503,-3.99234 1.19484,-2.14567 2.11357,-4.61616 2.38166,-8.43499 0.0927,-1.32082 0.0798,-3.46976 0.0798,-4.79415 v -22.24734 a 3.6218624,3.6218624 0 0 0 -2.20767,-3.33436 L 98.206651,920.31139 a 5.6539146,5.6539146 0 0 0 -4.415331,3e-5 z"/><path style="fill:#96dfd3;fill-opacity:.5;stroke:none;stroke-width:.799343px;stroke-linecap:butt;stroke-linejoin:miter;stroke-opacity:1" id="path1022" d="m 95.999609,919.86216 v 72.99937 c 0.812204,0 1.623473,-0.1222 2.238784,-0.36689 13.436727,-5.34351 20.910197,-12.1038 25.055967,-17.50748 0.80601,-1.05059 2.00675,-2.83519 2.65094,-3.99203 1.19484,-2.14568 2.11278,-4.61643 2.38086,-8.43526 0.0927,-1.32083 0.0812,-3.4701 0.0812,-4.79449 v -22.24734 a 3.6218624,3.6218624 0 0 0 -2.20756,-3.33476 L 98.207162,920.31179 a 5.6539146,5.6539146 0 0 0 -2.207553,-0.44963 z"/><path style="fill:#96dfd3;fill-opacity:1;stroke:none;stroke-width:.799343px;stroke-linecap:butt;stroke-linejoin:miter;stroke-opacity:1" id="path1024" d="m 94.994395,934.52972 -10.108834,21.88836 a 1.5339222,1.5339222 0 0 0 1.392583,2.17706 h 9.721697 v 15.79327 a 0.52694211,0.52694211 0 0 0 1.005341,0.22091 l 10.107488,-21.88826 a 1.5340048,1.5340048 0 0 0 -1.39269,-2.17711 h -9.720139 v -15.79327 a 0.52700365,0.52700365 0 0 0 -1.005446,-0.22096 z"/></g><style id="style853" type="text/css"/></svg>