<svg xmlns="http://www.w3.org/2000/svg" xmlns:svg="http://www.w3.org/2000/svg" id="svg2" width="192" height="192" version="1.1" viewBox="0 0 192 192"><metadata id="metadata7"/><g id="layer1" transform="translate(0,-860.36216)"><g id="g997" transform="matrix(1.2561711,0,0,1.2561711,-24.592426,-244.99237)"><circle id="circle923" cx="96" cy="956.362" r="70.054" style="opacity:1;fill:#f9de81;fill-opacity:1;stroke-width:18.514;stroke-linejoin:round;stop-color:#000"/><path style="opacity:1;fill:#99bdfe;fill-opacity:1;stroke-width:15.3619;stroke-linejoin:round;stop-color:#000" id="path921" d="M 95.732422,37.873047 A 58.126923,58.126923 0 0 0 38.171875,90.119141 H 153.82812 a 58.126923,58.126923 0 0 0 -2.50195,-11.94336 H 96.125 96.037109 c -8.334406,0 -15.044921,-6.708558 -15.044921,-15.042969 0,-8.334399 6.710515,-15.044921 15.044921,-15.044921 H 96.125 V 37.873047 a 58.126923,58.126923 0 0 0 -0.125,0 58.126923,58.126923 0 0 0 -0.267578,0 z" transform="translate(0,860.36216)"/><path style="opacity:1;fill:#ff837d;fill-opacity:1;stroke-width:15.3619;stroke-linejoin:round;stop-color:#000" id="path978" d="M 96.267573,1014.4891 A 58.126923,58.126923 0 0 0 153.82812,962.24302 H 38.171875 a 58.126923,58.126923 0 0 0 2.50195,11.94336 h 55.20117 0.08789 c 8.334405,0 15.044925,6.70856 15.044925,15.04297 0,8.33435 -6.71052,15.04495 -15.044925,15.04495 h -0.08789 v 10.2148 a 58.126923,58.126923 0 0 0 0.125,0 58.126923,58.126923 0 0 0 0.267578,0 z"/></g></g><style id="style853" type="text/css"/></svg>