<svg xmlns="http://www.w3.org/2000/svg" xmlns:svg="http://www.w3.org/2000/svg" id="svg2" width="192" height="192" version="1.1" viewBox="0 0 192 192"><metadata id="metadata7"/><g id="layer1" transform="translate(0,-860.36216)"><g id="g949" transform="matrix(1.0219029,0,0,1.0219029,-2.1026843,-20.94721)"><path id="path889-6" d="m 63.022964,889.03454 -51.387839,64.97464 a 3.7931887,3.7931887 89.999974 0 0 3e-6,4.70605 l 46.561113,58.87167 a 2.3726489,2.3726489 179.99968 0 0 3.72195,0 l 26.195942,-33.12282 a 3.7932832,3.7932832 90.000081 0 0 7e-6,-4.7061 L 71.472098,958.71526 a 3.7932433,3.7932433 90.000374 0 1 3.1e-5,-4.70608 l 51.387831,-64.97464 a 1.4521905,1.4521905 64.17007 0 0 -1.13901,-2.35303 l -53.837,0 a 6.1975341,6.1975341 154.17007 0 0 -4.860986,2.35303 z m -55.3390158,64.68563 0.1965414,-0.23309 h -0.380491 z m 1.4262156,1.80293 0.2759243,-0.33009 H 8.8493664 Z m -0.2607974,2.00831 h 0.5367217 l -0.2759243,-0.3301 z m -1.3493678,1.70592 h 0.380491 l -0.1965414,-0.23309 z" style="fill:#738dbe;fill-opacity:1;stroke-width:.226655;stroke-linejoin:round"/><path id="rect871-7" d="m 69.140029,889.03454 51.387831,64.97464 a 3.7931921,3.7931921 90.000002 0 1 0,4.70606 l -51.387831,64.97466 a 1.4521904,1.4521904 64.170072 0 0 1.139014,2.353 h 53.837007 a 6.1975346,6.1975346 154.17007 0 0 4.86099,-2.353 l 51.38783,-64.97466 a 3.7931919,3.7931919 90.000002 0 0 0,-4.70606 l -51.38783,-64.97464 a 6.197534,6.197534 25.82993 0 0 -4.86099,-2.35303 l -53.837007,0 a 1.4521905,1.4521905 115.82993 0 0 -1.139014,2.35303 z M 184.31605,953.72017 184.5,953.48708 h -0.3805 z m -1.42622,1.80293 0.2608,-0.33009 h -0.53672 z m -0.27592,2.00831 h 0.53672 l -0.2608,-0.3301 z m 1.50559,1.70592 H 184.5 l -0.18395,-0.23309 z" style="fill:#9bbfff;fill-opacity:1;stroke-width:.226655;stroke-linejoin:round"/></g></g></svg>