<svg xmlns="http://www.w3.org/2000/svg" xmlns:xlink="http://www.w3.org/1999/xlink" id="Layer_1" width="192" height="192" x="0" y="0" enable-background="new 0 0 192 192" version="1.1" viewBox="0 0 192 192" xml:space="preserve"><g><linearGradient id="SVGID_1_" x1="65.856" x2="71.54" y1="117.57" y2="46.117" gradientUnits="userSpaceOnUse"><stop offset=".062" style="stop-color:#fdc394"/><stop offset=".413" style="stop-color:#fea489"/><stop offset=".734" style="stop-color:#ff8f82"/><stop offset=".943" style="stop-color:#ff877f"/></linearGradient><path fill="url(#SVGID_1_)" d="M116.856,38.271l-47.61,17.457c0,0-9.246,2.232-9.246,13.803v52.775c0,0,1.339,8.932-7.17,13.6 c0,0-13.872,7.713-13.872,7.714C32.563,147.147,26,140.828,26,134.688V56.337c0,0-0.471-10.149,8.663-15.427l51.372-29.432 c0,0,10.565-8.119,22.135-0.609C120.292,18.737,116.856,38.271,116.856,38.271z"/><linearGradient id="SVGID_2_" x1="45.239" x2="54.985" y1="103.151" y2="114.928" gradientUnits="userSpaceOnUse"><stop offset=".062" style="stop-color:#fdc394"/><stop offset=".413" style="stop-color:#fea489"/><stop offset=".734" style="stop-color:#ff8f82"/><stop offset=".943" style="stop-color:#ff877f"/></linearGradient><path fill="url(#SVGID_2_)" d="M117.516,144H60.682c0,0-7.389,0.332-8.911,7.031c-1.522,6.697,2.415,9.937,5.582,11.372 l32.476,18.423c0,0,11.568,5.597,22.834-4.146C123.927,166.938,117.516,144,117.516,144z"/><linearGradient id="SVGID_3_" x1="133.06" x2="133.06" y1="48.015" y2="215.292" gradientUnits="userSpaceOnUse"><stop offset=".005" style="stop-color:#f9de90"/><stop offset=".044" style="stop-color:#f9db90"/><stop offset=".347" style="stop-color:#fcc993"/><stop offset=".567" style="stop-color:#fdc394"/></linearGradient><path fill="url(#SVGID_3_)" d="M101.121,8.032c0,0,14.879,3.57,14.879,19.706v138.614c0,0-1.559,13.005-13.736,15.745l50.854-14.31 c0,0,11.883-3.349,11.883-17.658V39.083c0,0-0.61-13.172-14.92-17.13L101.121,8.032z"/></g></svg>