<svg xmlns="http://www.w3.org/2000/svg" xmlns:svg="http://www.w3.org/2000/svg" id="svg2" width="192" height="192" version="1.1" viewBox="0 0 192 192"><metadata id="metadata7"/><g id="layer1" transform="translate(0,-860.36216)"><path style="fill:#fff;fill-opacity:1;fill-rule:evenodd;stroke:none;stroke-width:.993001;stroke-miterlimit:4;stroke-dasharray:none;stroke-opacity:1" id="path1159" d="m 110.46875,884.57114 h -76.875 c -5.199,0 -9.38477,4.18577 -9.38477,9.38477 v 124.81249 c 0,5.199 4.18577,9.3848 9.38477,9.3848 h 124.8125 c 5.199,0 9.38477,-4.1858 9.38477,-9.3848 v -76.87304 z"/><ellipse id="ellipse1161" cx="60.466" cy="964.002" rx="5.827" ry="12.755" style="fill:#ffb0ac;fill-opacity:1;stroke:none;stroke-width:4.99999;stroke-linecap:round;stop-color:#000"/><ellipse id="ellipse1163" cx="133.072" cy="964.002" rx="5.827" ry="12.755" style="fill:#ffb0ac;fill-opacity:1;stroke:none;stroke-width:4.99999;stroke-linecap:round;stop-color:#000"/><path id="path1165" d="m 77.17407,982.73025 c 2.31923,9.66885 15.02393,8.17931 19.59472,-1.61158" style="fill:none;stroke:#ffb0ac;stroke-width:5.5;stroke-linecap:round;stroke-linejoin:miter;stroke-miterlimit:4;stroke-dasharray:none;stroke-opacity:1"/><path id="path1167" d="m 116.36351,982.73025 c -2.31923,9.66885 -15.02393,8.17931 -19.59472,-1.61158" style="fill:none;stroke:#ffb0ac;stroke-width:5.5;stroke-linecap:round;stroke-linejoin:miter;stroke-miterlimit:4;stroke-dasharray:none;stroke-opacity:1"/><ellipse id="ellipse1169" cx="96.769" cy="973.328" rx="9.725" ry="7.791" style="fill:#ffb0ac;fill-opacity:1;stroke:none;stroke-width:5;stroke-linecap:round;stop-color:#000"/><path style="fill:#ececec;fill-opacity:1;fill-rule:evenodd;stroke:none;stroke-width:.993001;stroke-miterlimit:4;stroke-dasharray:none;stroke-opacity:1" id="path1171" d="m 167.79102,941.89536 -57.32227,-57.32422 v 47.93946 c 0,5.199 4.18577,9.38476 9.38477,9.38476 z"/></g><style id="style853" type="text/css"/><style id="style853-9" type="text/css"/><style id="style853-3" type="text/css"/></svg>