<svg xmlns="http://www.w3.org/2000/svg" xmlns:svg="http://www.w3.org/2000/svg" id="svg2" width="192" height="192" version="1.1" viewBox="0 0 192 192"><metadata id="metadata7"/><g id="layer1" transform="translate(0,-860.36216)"><rect id="rect947" width="153" height="153" x="19.5" y="879.862" rx="10" style="fill:#97db99;fill-opacity:1;fill-rule:evenodd;stroke:none;stroke-opacity:1"/><path id="path945" d="m 83.571461,945.88224 c 10.09383,5.83311 13.72492,18.72597 13.37614,34.3978 12.072779,-9.99978 8.526559,-20.94213 5.647179,-25.20812 -12.030809,-17.82445 1.94929,-33.00159 15.12284,-29.47175 6.13362,1.6435 12.6728,6.57846 13.68589,16.4137 2.13183,20.69604 -20.67248,39.1275 -31.900909,44.97971 -2.17418,1.13318 -7.9805,1.19685 -7.9805,-3.61068 0,-3.10343 -5.68726,-11.54245 -20.00357,-15.29319 -12.60412,-3.30217 -12.52401,-11.52067 -9.08078,-17.02158 4.11295,-6.57086 14.52742,-9.00359 21.13371,-5.18589 z" style="fill:#fefefe;stroke:none;stroke-width:1px;stroke-linecap:butt;stroke-linejoin:miter;stroke-opacity:1;fill-opacity:1"/></g><style id="style853" type="text/css"/></svg>