<svg xmlns="http://www.w3.org/2000/svg" xmlns:svg="http://www.w3.org/2000/svg" id="svg26" width="192" height="192" fill="none" version="1.1" viewBox="0 0 192 192"><metadata id="metadata30"/><path id="path2" fill="#9abeff" fill-rule="evenodd" d="m 91.9704,9.9017 c 3.1099,-1.7942 6.943,-1.78346 10.0426,0.02814 l 67.033,39.17476 c 3.068,1.7932 4.954,5.0799 4.954,8.6337 v 77.5237 c 0,3.553 -1.886,6.84 -4.954,8.633 l -67.033,39.175 c -3.0996,1.812 -6.9327,1.823 -10.0426,0.028 L 24.0028,143.886 C 20.9072,142.1 19,138.798 19,135.224 V 57.7756 c 0,-3.5738 1.9072,-6.8759 5.0028,-8.6618 z" clip-rule="evenodd"/><g id="g17" mask="url(#mask0)"><path id="path7" fill="#728dbe" fill-rule="evenodd" d="m 175,52 h -1 v 89 L 97,186 V 97 Z" clip-rule="evenodd"/><path id="path9" fill="#98dc9a" fill-rule="evenodd" d="M 97,7 175,52 97,97 19,52 Z" clip-rule="evenodd"/><path id="path11" fill="#98dc9a" fill-rule="evenodd" d="m 19,54.4605 v 9.4505 c 0,1.6544 1.3353,3.7751 3.0049,4.7498 l 3.7402,2.1835 c 1.6596,0.9688 3.0049,3.0975 3.0049,4.7588 v 5.3138 c 0,1.6594 1.3353,3.7841 3.0049,4.7588 l 3.7402,2.1835 C 37.1547,88.828 38.5,88.27 38.5,86.6088 V 81.295 c 0,-1.6594 1.3353,-2.2251 3.0049,-1.2504 l 3.7402,2.1835 c 1.6596,0.9688 3.0049,3.0985 3.0049,4.746 v 13.5749 c 0,1.652 1.3353,3.771 3.0049,4.746 l 3.7402,2.183 C 56.6547,108.447 58,107.888 58,106.241 V 92.666 c 0,-1.6523 1.3353,-2.2123 3.0049,-1.2376 l 3.7402,2.1835 c 1.6596,0.9688 3.0049,3.0934 3.0049,4.7547 v 3.7784 c 0,1.657 1.3353,3.78 3.0049,4.754 l 3.7402,2.184 c 1.6596,0.969 3.0049,0.415 3.0049,-1.247 v -3.778 c 0,-1.657 1.3353,-2.22 3.0049,-1.246 l 3.7402,2.184 c 1.6596,0.969 3.0049,3.102 3.0049,4.753 v 2.752 c 0,1.656 1.3353,3.778 3.0049,4.753 l 3.7402,2.183 c 1.4999,0.575 2.1415,0.575 3.0049,0.575 V 96.0001 L 22.0099,53.222 C 20.3476,52.2516 19,52.8082 19,54.4605 Z" clip-rule="evenodd"/><path id="path13" fill="#71a372" fill-rule="evenodd" d="m 175,54.7159 v 9.4504 c 0,1.6545 -1.335,3.7751 -3.005,4.7499 l -3.74,2.1835 c -1.66,0.9688 -3.005,3.0975 -3.005,4.7588 v 5.3137 c 0,1.6594 -1.335,3.7842 -3.005,4.7589 l -3.74,2.1835 c -1.66,0.9688 -3.005,0.4108 -3.005,-1.2505 v -5.3137 c 0,-1.6594 -1.335,-2.2251 -3.005,-1.2504 l -3.74,2.1835 c -1.66,0.9688 -3.005,3.0985 -3.005,4.7459 v 5.5748 c 0,1.6523 -1.335,3.7713 -3.005,4.746 l -3.74,2.1835 C 137.345,100.702 136,100.144 136,98.4961 v -5.5747 c 0,-1.6524 -1.335,-2.2123 -3.005,-1.2376 l -3.74,2.1835 c -1.66,0.9688 -3.005,3.0934 -3.005,4.7546 V 112.4 c 0,1.657 -1.335,3.78 -3.005,4.755 l -3.74,2.183 c -1.66,0.969 -3.005,0.415 -3.005,-1.246 v -13.778 c 0,-1.657 -1.335,-2.221 -3.005,-1.246 l -3.74,2.183 c -1.66,0.969 -3.005,3.102 -3.005,4.753 v 2.752 c 0,1.656 -1.335,3.778 -3.005,4.753 l -3.74,2.183 C 98.8857,120.039 97,120.039 97,120.039 V 96.2555 l 74.99,-42.7781 c 1.662,-0.9704 3.01,-0.4138 3.01,1.2385 z" clip-rule="evenodd"/><path id="path15" fill="#fff" fill-opacity=".25" fill-rule="evenodd" d="M 97,7 175,52 97,97 19,52 Z" clip-rule="evenodd"/></g><defs id="defs24"><clipPath id="clip0"><rect id="rect21" width="192" height="192" fill="#fff"/></clipPath><mask id="mask0" width="155" height="177" x="19" y="8" mask-type="alpha" maskUnits="userSpaceOnUse"><path id="path4" fill="#fff" fill-rule="evenodd" d="M91.9704 9.9017C95.0803 8.1075 98.9134 8.11824 102.013 9.92984L169.046 49.1046C172.114 50.8978 174 54.1845 174 57.7383V135.262C174 138.815 172.114 142.102 169.046 143.895L102.013 183.07C98.9134 184.882 95.0803 184.893 91.9704 183.098L24.0028 143.886C20.9072 142.1 19 138.798 19 135.224V57.7756C19 54.2018 20.9072 50.8997 24.0028 49.1138L91.9704 9.9017Z" clip-rule="evenodd"/></mask></defs></svg>