<svg xmlns="http://www.w3.org/2000/svg" xmlns:svg="http://www.w3.org/2000/svg" id="svg2" width="192" height="192" version="1.1" viewBox="0 0 192 192"><metadata id="metadata7"/><g id="layer1" transform="translate(0,-860.36216)"><rect id="rect944" width="153" height="153" x="19.5" y="879.862" rx="10" style="fill:#f9de81;fill-opacity:1;fill-rule:evenodd;stroke:none;stroke-opacity:1"/><path style="fill:#54688c;fill-opacity:1;fill-rule:nonzero;stroke:none;stroke-width:.365" id="polygon946" d="m 90.242501,991.83624 21.969409,-58.88333 -12.09822,58.83669 a 0.89275131,0.89275131 0 0 0 0.87446,1.07256 h 7.95445 a 1.5403626,1.5403626 0 0 0 1.45482,-1.03419 l 21.78016,-62.59995 a 1.1169177,1.1169177 0 0 0 -0.66703,-1.41444 l -20.44609,-7.57117 a 6.1103617,6.1103617 0 0 0 -2.12186,-0.38025 h -7.95445 a 0.42298985,0.42298985 0 0 0 -0.28436,0.73613 l 11.50812,10.45043 -21.372966,-10.69649 a 4.634613,4.634613 0 0 0 -2.074214,-0.49007 h -7.954453 a 0.5234899,0.5234899 0 0 0 -0.407416,0.85221 l 11.63086,14.41552 -21.44798,-14.65011 a 3.5444729,3.5444729 0 0 0 -1.999199,-0.61762 h -7.954137 a 0.61561349,0.61561349 0 0 0 -0.525959,0.93553 l 11.032738,18.13835 a 2.6935881,2.6935881 0 0 1 0.323925,2.00275 l -11.680588,50.85616 a 0.87201237,0.87201237 0 0 0 0.849884,1.06721 h 7.954137 a 1.6179146,1.6179146 0 0 0 1.502002,-1.01655 l 21.945177,-54.81153 -12.082508,54.7588 a 0.8797276,0.8797276 0 0 0 0.859064,1.06928 h 7.954453 a 1.5772771,1.5772771 0 0 0 1.477771,-1.02592 z"/></g><style id="style853" type="text/css"/></svg>