<svg xmlns="http://www.w3.org/2000/svg" xmlns:svg="http://www.w3.org/2000/svg" id="Layer_1" width="192" height="192" x="0" y="0" enable-background="new 0 0 192 192" version="1.1" viewBox="0 0 192 192" xml:space="preserve"><metadata id="metadata15"/><g id="g889"><rect style="opacity:1;fill:#9bbfff;fill-opacity:1;fill-rule:evenodd;stroke:none" id="rect836" width="153" height="153" x="19.5" y="19.5" rx="10"/><path id="path6" fill="#fff" d="m 130.13519,87.611792 c 0,-0.813136 -0.65928,-1.472938 -1.47293,-1.472938 -0.72124,0 -1.32116,0.519374 -1.44661,1.204474 h -3.1085 C 123.96259,71.966021 111.41035,59.5 95.999484,59.5 80.588619,59.5 68.03638,71.966021 67.891822,87.343328 h -3.107987 c -0.125971,-0.6851 -0.724852,-1.204474 -1.446607,-1.204474 -0.813136,0 -1.472422,0.659285 -1.472422,1.472938 0,18.237998 14.378311,33.181628 32.394825,34.090798 v 6.69198 h -5.276866 c -2.285558,0 -4.137959,1.83846 -4.137959,4.10543 h 22.310384 c 0,-2.26749 -1.85291,-4.10543 -4.13899,-4.10543 h -5.276347 v -6.69198 C 115.7574,120.79342 130.13519,105.84979 130.13519,87.611792 Z M 96,63.248686 c 13.43404,0 24.36311,10.929065 24.36311,24.363106 0,13.434038 -10.92959,24.362588 -24.36311,24.362588 -13.433524,0 -24.362589,-10.92906 -24.362589,-24.362588 C 71.637411,74.178268 82.566476,63.248686 96,63.248686 Z M 64.840626,88.950498 h 3.08114 C 68.62287,103.83166 80.948464,115.72307 96,115.72307 c 15.05154,0 27.37713,-11.89141 28.07823,-26.772572 h 3.08114 C 126.45621,105.5297 112.75009,118.80163 96,118.80163 c -16.749571,0 -30.455173,-13.27193 -31.159374,-29.851132 z" style="stroke-width:.516277"/></g><g id="g885"><path style="fill:#9bbfff;fill-opacity:1" id="path879" fill="#9abefc" d="m -102.56693,172.658 c 0,6.495 -5.266,11.761 -11.76,11.761 h -152.39 c -6.494,0 -11.76,-5.266 -11.76,-11.761 V 20.269 c 0,-6.496 5.266,-11.76 11.76,-11.76 h 152.39 c 6.494,0 11.76,5.264 11.76,11.76 z"/><path id="path881" fill="#fff" d="m -124.40393,80.216 c 0,-1.575 -1.277,-2.853 -2.853,-2.853 -1.397,0 -2.559,1.006 -2.802,2.333 h -6.021 c -0.28,-29.785 -24.593,-53.931 -54.443,-53.931 -29.85,0 -54.163,24.146 -54.443,53.931 h -6.02 c -0.244,-1.327 -1.404,-2.333 -2.802,-2.333 -1.575,0 -2.852,1.277 -2.852,2.853 0,35.326 27.85,64.271 62.747,66.032 v 12.962 h -10.221 c -4.427,0 -8.015,3.561 -8.015,7.952 h 43.214 c 0,-4.392 -3.589,-7.952 -8.017,-7.952 h -10.22 v -12.962 c 34.899,-1.761 62.748,-30.706 62.748,-66.032 z m -66.118,-47.19 c 26.021,0 47.19,21.169 47.19,47.19 0,26.021 -21.17,47.189 -47.19,47.189 -26.02,0 -47.189,-21.169 -47.189,-47.189 0,-26.02 21.169,-47.19 47.189,-47.19 z m -60.354,49.783 h 5.968 c 1.358,28.824 25.232,51.857 54.386,51.857 29.154,0 53.028,-23.033 54.386,-51.857 h 5.968 c -1.362,32.113 -27.91,57.82 -60.354,57.82 -32.443,0 -58.99,-25.707 -60.354,-57.82 z"/></g></svg>