<svg xmlns="http://www.w3.org/2000/svg" xmlns:svg="http://www.w3.org/2000/svg" id="svg2" width="192" height="192" version="1.1" viewBox="0 0 192 192"><metadata id="metadata7"/><g id="layer1" transform="translate(0,-860.36216)"><rect id="rect970" width="153" height="153" x="19.5" y="879.862" rx="10" style="fill:#fefefe;fill-opacity:1;fill-rule:evenodd;stroke:none;stroke-opacity:1"/><path style="fill:#f8dd7f;fill-opacity:1;stroke-width:.854272" id="path986" d="m 137.21875,879.86216 35.19531,34.93945 v -25.36718 c -0.0539,-1.21937 -0.24792,-2.40676 -0.69726,-3.47266 -0.50469,-1.19719 -1.23492,-2.27398 -2.13868,-3.17773 -0.90375,-0.90375 -1.98054,-1.63399 -3.17773,-2.13868 -1.19719,-0.50468 -2.51539,-0.7832 -3.90039,-0.7832 z"/><path style="fill:#f8dd7f;fill-opacity:1;stroke-width:.854272" id="path984" d="M 54.695312,1032.8622 19.5,997.92271 v 24.93949 c 0,1.385 0.278516,2.7032 0.783203,3.9004 0.504688,1.1971 1.234922,2.2739 2.138672,3.1777 0.90375,0.9037 1.980547,1.634 3.177734,2.1387 1.197188,0.5046 2.515391,0.7832 3.900391,0.7832 z"/><path style="fill:#f8dd7f;fill-opacity:1;stroke-width:.854272" id="path988" d="m 172.5,1014.495 v -54.84378 -8.45703 c 0,-14.69347 -4.01483,-18.70965 -10.42188,-25.03125 l -37.24609,-36.9043 c -6.06532,-5.97989 -9.48369,-9.39648 -23.75,-9.39648 H 92.625 36.755859 l 59.201172,58.85938 29.472659,-29.2168 22.125,21.86914 v 58.34766 z"/><path style="fill:#f8dd7f;fill-opacity:1;stroke-width:.854272" id="path990" d="m 19.5,894.89732 v 58.17578 8.45703 c 0,14.69344 4.014843,18.62421 10.421875,25.03125 l 37.246094,36.90432 c 6.065326,5.98 9.483676,9.3965 23.75,9.3965 H 99.375 158.49023 l -33.83007,-33.57231 v -56.98046 l -28.703129,28.5332 -28.703125,-28.5332 v 61.67777 L 44.445312,981.35044 v -61.67969 z"/></g><style id="style853" type="text/css"/><style id="style2121" type="text/css"/><style id="style2218" type="text/css"/></svg>