<svg xmlns="http://www.w3.org/2000/svg" xmlns:svg="http://www.w3.org/2000/svg" id="Слой_1" x="0" y="0" enable-background="new 0 0 192 192" version="1.1" viewBox="0 0 192 192" xml:space="preserve"><rect style="opacity:1;vector-effect:none;fill:#f4806d;fill-opacity:1;stroke-width:4.60130739;paint-order:stroke fill markers" id="rect833" width="176" height="176" x="8" y="8" ry="88"/><metadata id="metadata13"/><style id="style824" type="text/css"/><path style="fill:#fff;stroke-width:3.9703536" id="path829" d="m 60.082647,108.26022 c 1.029596,-6.97336 2.62424,-13.852766 4.044708,-20.757594 1.020624,-4.961224 7.157396,-11.785896 21.234712,-11.487212 4.886244,0.10368 14.560944,1.713004 14.560944,1.713004 0,0 10.218779,-1.91856 15.369889,-1.713004 16.09086,0.642104 17.41375,6.65126 16.48218,14.510164 -0.80351,6.7785 -1.46187,8.745776 -3.53912,18.943822 -0.84994,4.17268 -7.19115,8.62429 -11.4263,8.0612 -3.4019,-0.4523 -7.44653,-4.62761 -6.67376,-9.27038 0.95514,-5.73848 2.72033,-14.478214 3.74135,-19.548414 0.37536,-1.864072 -0.93566,-4.11776 -2.8313,-4.332896 -1.98916,-0.22576 -4.12822,1.759064 -4.44917,3.728308 -1.95748,12.010162 -1.91594,13.452092 -3.03353,20.153002 -0.89106,5.34261 -6.353171,9.69312 -11.325179,9.67344 -6.9208,-0.0272 -8.172484,-6.38661 -7.482712,-9.77421 1.305292,-6.41047 1.750204,-8.564492 3.842476,-19.246112 0.35132,-1.793556 0.0128,-4.165612 -2.932416,-4.3329 -2.34786,-0.13336 -3.805408,2.208184 -4.145824,4.332896 -1.104712,6.895172 -2.077328,12.314316 -4.044708,20.556066 -0.870128,3.64513 -6.36858,9.20039 -10.920708,8.46426 -3.838688,-0.62076 -7.121788,-5.26931 -6.471532,-9.67344 z"/></svg>