<svg xmlns="http://www.w3.org/2000/svg" xmlns:xlink="http://www.w3.org/1999/xlink" id="Слой_1" x="0" y="0" enable-background="new 0 0 192 192" version="1.1" viewBox="0 0 192 192" xml:space="preserve"><rect width="192" height="192" x=".2" y=".3" fill="#87BEFF"/><image width="241" height="241" overflow="visible" transform="matrix(1 0 0 1 -274.3333 -179)" xlink:href="30E0AF75.jpg"/><g><path fill="#FFF" d="M43.9,135.8C55.4,108,66.5,81.4,78.1,53.6c6.2,17.5,12,33.7,18.1,50.9c6.1-17,11.9-33.1,18.3-50.7 c11.6,27.8,22.7,54.4,34.1,81.9c-5,0-9,0.3-13-0.2c-1.2-0.1-2.6-2.1-3.2-3.5c-5.2-12.2-10.2-24.6-15.4-36.8 c-0.6-1.4-1.4-2.7-2.5-4.7c-6.2,16.3-12,31.9-18.3,48.6C90,122.3,84.2,106.7,78,90c-3.1,7.2-5.9,13.6-8.6,20 c-2.9,6.9-5.9,13.7-8.4,20.7c-1.4,4-3.5,5.8-7.8,5.2C50.5,135.5,47.7,135.8,43.9,135.8z"/></g></svg>