<svg xmlns="http://www.w3.org/2000/svg" xmlns:svg="http://www.w3.org/2000/svg" id="svg2" width="192" height="192" version="1.1" viewBox="0 0 192 192"><defs id="defs4"><rect id="rect27227" width="111.723" height="97.934" x="22.981" y="13.081"/><rect id="rect17727" width="73.539" height="53.74" x="10.607" y="6.01"/></defs><metadata id="metadata7"/><g id="layer1" transform="translate(0,-860.36216)"><rect id="rect980" width="153" height="153" x="19.5" y="879.862" rx="10" style="fill:#54688c;fill-opacity:1;fill-rule:evenodd;stroke:none;stroke-opacity:1"/><path id="path6409" d="m 117,1001.5747 c -1.375,-0.2707 -9.24999,-1.86708 -17.499995,-3.54738 -22.116814,-4.5048 -42.062843,-4.1107 -55.773301,1.102 l -2.726699,1.03668 v -41.35906 -41.3591 l 5.25,-2.06806 c 9.764951,-3.84659 14.115194,-4.57691 27.25,-4.57471 11.216364,0.002 15.46965,0.52292 30.999995,3.79766 22.6436,4.77462 30.71396,4.7813 40.28942,0.0333 l 6.21057,-3.07952 v 41.19662 41.19659 l -3.75,2.4147 c -2.0625,1.3281 -5.1,3.0192 -6.75,3.75808 -3.05085,1.3662 -18.94708,2.3485 -23.5,1.4521 z" style="fill:#70a270"/></g><g id="layer2"><path id="path7153" d="m 64.46763,116.797 c -0.280381,-0.73066 -0.387437,-10.31578 -0.237903,-21.300259 l 0.27188,-19.971792 5.261182,-0.302647 c 3.965731,-0.228127 5.403545,0.06834 5.839356,1.20405 0.499031,1.300452 1.077239,1.239216 4.224009,-0.447353 6.046582,-3.240774 14.301832,-2.121478 18.09913,2.453987 1.13257,1.364658 1.66966,1.241188 4.719316,-1.084907 5.15757,-3.933872 11.99268,-4.31272 17.67966,-0.979927 7.00192,4.103398 7.77785,6.743833 7.45296,25.361918 l -0.27562,15.79488 h -6 -6 l -0.5,-14.78907 c -0.39438,-11.665029 -0.81686,-14.988824 -2,-15.734694 -2.32715,-1.46705 -5.57124,-1.14859 -7.88213,0.77376 -1.92913,1.60479 -2.12502,2.91173 -2.36078,15.750004 l -0.25709,14 h -5.999993 -6 l -0.5,-14.33261 c -0.443019,-12.699234 -0.721216,-14.494144 -2.44113,-15.750004 -2.475073,-1.80727 -5.6418,-1.80764 -8.11774,-9.5e-4 -1.719989,1.25507 -1.998092,3.04938 -2.44113,15.750004 l -0.5,14.33356 -5.762096,0.30026 c -4.091222,0.2132 -5.909922,-0.085 -6.271881,-1.02821 z" style="fill:#fefefe"/></g><style id="style853" type="text/css"/></svg>