<svg xmlns="http://www.w3.org/2000/svg" xmlns:svg="http://www.w3.org/2000/svg" id="svg827" width="192" height="192" version="1.1" viewBox="0 0 192 192"><metadata id="metadata833"/><rect style="fill:#4a4a4a;fill-rule:evenodd;stroke:#4a4a4a;fill-opacity:1;stroke-opacity:0" id="rect815" width="153" height="153" x="19.5" y="19.5" rx="10"/><g id="g12" transform="matrix(0.10198568,0,0,-0.10198568,13.03035,207.17196)"><g id="g1437" transform="translate(13.542156,22.430027)"><path id="path14" d="m 1345.7228,843.22146 c 0,-13.40076 -5.3251,-26.25434 -14.8029,-35.73209 L 1104.5972,581.16664 c -12.7315,-12.73145 -34.5058,-3.71293 -34.5058,14.29479 v 507.13277 l 272.4852,270.9609 h 3.1462 V 843.22146" style="fill:#ff837d;fill-opacity:1;fill-rule:nonzero;stroke:none"/><path id="path16" d="m 1165.1131,1554.1599 c -7.8949,7.8949 -20.6898,7.8949 -28.5847,0 L 800,1217.6364 h -4.67536 V 837.80839 L 800,827.83233 l 270.0914,270.09137 275.6314,275.6314 -180.6097,180.6048" style="fill:#f9de81;fill-opacity:1;fill-rule:nonzero;stroke:none"/><path id="path18" d="m 254.2772,843.22146 c 0,-13.40076 5.32464,-26.25434 14.80141,-35.73209 L 495.39792,581.16664 c 12.73633,-12.73145 34.51072,-3.71293 34.51072,14.29479 v 507.13277 l -272.4901,270.9609 H 254.2772 V 843.22146" style="fill:#73ada4;fill-opacity:1;fill-rule:nonzero;stroke:none"/><path id="path20" d="m 463.47159,1554.1599 c -7.89486,7.8949 -20.69275,7.8949 -28.58762,0 L 254.2772,1373.5551 529.90864,1097.9237 800,827.83233 v 389.80407 l -336.52841,336.5235" style="fill:#96dfd3;fill-opacity:1;fill-rule:nonzero;stroke:none"/></g></g></svg>