<svg xmlns="http://www.w3.org/2000/svg" xmlns:svg="http://www.w3.org/2000/svg" id="svg2" width="192" height="192" version="1.1" viewBox="0 0 192 192"><defs id="defs4"><style id="style869">.cls-1{fill:#f27f22}.cls-2{fill:#333}</style></defs><metadata id="metadata7"/><g id="layer1" transform="translate(0,-860.36216)"><path id="path873-3" d="m 155.93084,1014.1572 v -50.1158 c 0,-1.65685 0.018,-4.34594 -0.11546,-5.99697 -0.69278,-8.57148 -4.503,-13.36931 -11.43067,-14.39349 -1.63758,-0.24209 -4.34254,-0.24232 -5.98015,-4.9e-4 -6.92826,1.02315 -10.74053,5.82115 -11.4368,14.39403 -0.13409,1.65097 -0.11668,4.34007 -0.11668,5.99692 v 50.1158 a 3,3 135 0 1 -3,3 l -22.56588,0 a 3,3 45 0 1 -2.999996,-3 v -50.1158 c 0,-1.65685 0.01768,-4.34585 -0.11346,-5.99707 -0.679015,-8.54985 -4.405743,-13.34505 -11.180185,-14.38559 -1.636069,-0.25129 -4.341764,-0.25002 -5.97938,-0.008 -6.930007,1.02331 -10.74006,5.82126 -11.43016,14.39386 -0.132912,1.65106 -0.11448,4.34015 -0.11448,5.997 v 50.1158 a 3,3 135 0 1 -3,3 l -22.565874,0 a 3,3 45 0 1 -3,-3 v -53.42738 c 0,-1.65685 -0.01118,-4.34464 0.08852,-5.99824 0.581409,-9.64293 4.02694,-17.27955 10.336591,-22.90987 1.235798,-1.10274 3.397227,-2.70827 4.802581,-3.58489 6.547117,-4.0839 14.839778,-6.30907 24.877983,-6.67553 1.655661,-0.0604 4.343229,-0.0621 5.998481,0.008 10.038048,0.42449 17.841021,3.02637 23.408931,7.80566 1.2565,1.07854 2.98216,1.01004 4.19374,-0.11784 5.08873,-4.73715 13.01865,-7.3026 23.78975,-7.69635 1.65565,-0.0605 4.34303,-0.0601 5.99871,-10e-6 10.03873,0.3644 18.33062,2.58948 24.87569,6.67521 1.40505,0.8771 3.56645,2.48268 4.80252,3.5851 6.30875,5.6266 9.75403,13.26348 10.33584,22.91063 0.0997,1.6536 0.0887,4.34139 0.0887,5.99824 v 53.42738 a 3,3 135 0 1 -3,3 l -22.56882,0 a 3,3 45 0 1 -3,-3 z" class="cls-1" style="fill:#f7c18c;fill-opacity:1;stroke-width:.147247"/><path id="path885-6" d="m 100.42254,914.23864 13.01974,-9.50538 c 2.23028,-1.62827 5.84142,-4.27489 8.07277,-5.90171 0.42194,-0.30763 0.84427,-0.61469 1.26722,-0.9209 2.23661,-1.61934 1.85273,-2.62654 -0.88703,-2.28135 -46.348441,5.8396 -72.525463,11.85714 -112.6745612,34.52536 -2.4046093,1.35765 -2.1688833,2.49087 0.5088459,2.51523 -0.5098577,8.69242 -0.6088262,13.86614 -0.3872755,20.38045 0.093853,2.75957 -0.5527337,7.10699 -1.1189328,9.80787 -2.02876,9.67759 0.5294111,17.24431 3.7237876,24.83535 1.070978,2.54505 2.125585,2.36132 2.228018,-0.39811 0.295797,-7.96847 0.0045,-16.37194 -1.77537,-24.82268 -0.56899,-2.70161 -1.317309,-7.09023 -1.406582,-9.85016 -0.204823,-6.33221 -0.104143,-11.3553 0.06674,-14.94899 0.131138,-2.75785 2.57934,-4.96612 5.340637,-4.9397 l 19.236303,0.18409 c 2.761297,0.0264 4.96141,2.28694 5.024541,5.04747 0.04657,2.03639 0.145006,4.53127 0.344297,7.16705 0.208158,2.75305 2.60541,5.73801 5.273017,6.44902 22.851522,6.09067 45.231602,-1.687 58.762265,-19.9937 1.64085,-2.22003 1.293,-5.80524 -0.73317,-7.67992 -1.36494,-1.26289 -2.78998,-2.49997 -4.04907,-3.56158 -2.110891,-1.77982 -3.874483,-3.15947 -3.874483,-3.15946 z" class="cls-2" style="fill:#585b5d;fill-opacity:1;stroke-width:.147247"/></g><style id="style853" type="text/css"/></svg>