<svg xmlns="http://www.w3.org/2000/svg" xmlns:xlink="http://www.w3.org/1999/xlink" id="Layer_1" width="192" height="192" x="0" y="0" enable-background="new 0 0 192 192" version="1.1" viewBox="0 0 192 192" xml:space="preserve"><g><path fill="#90DFD5" d="M181.903,96.854c0,45.684-2.602,85.84-85.84,85.84l0,0c-80.117,0-85.84-40.156-85.84-85.84l0,0 c0-45.684,4.683-86.88,85.84-86.88l0,0C179.302,9.974,181.903,51.17,181.903,96.854L181.903,96.854z"/><path fill="#545659" d="M118.635,11.174L73.531,181.438c6.77,0.82,14.248,1.256,22.533,1.256c83.238,0,85.84-40.156,85.84-85.84 C181.903,55.729,179.782,18.245,118.635,11.174z"/><rect width="30.52" height="11.793" x="53.924" y="60.957" fill="#A5F9EA"/><circle cx="37.97" cy="90.091" r="8.324" fill="#F2F5F9"/><path fill="#F2F5F9" d="M148.954,132.058h10.405l-20.811-50.291h-10.404l-20.81,50.291h10.405l3.73-9.019h23.752L148.954,132.058z M124.916,114.716l8.431-20.376l8.432,20.376H124.916z"/></g></svg>