<svg xmlns="http://www.w3.org/2000/svg" xmlns:svg="http://www.w3.org/2000/svg" id="Layer_1" width="192" height="192" x="0" y="0" overflow="visible" version="1.1" viewBox="0 0 192 192" xml:space="preserve"><metadata id="metadata25"/><circle id="path874" cx="96" cy="96" r="88" style="fill:#575a5c;stroke-width:10.8063;stroke-linecap:round;stroke-linejoin:round;stop-color:#000"/><g id="g14" transform="matrix(1.0540607,0,0,1.0540607,-3.9470757,-6.158592)"><path id="path10" fill="#fff" d="m 74.574,67.476 c -7.521,0.088 -14.381,5.715 -14.381,13.236 0,7.521 6.363,12.854 13.618,12.091 0,0 4.2,-0.255 4.963,2.036 0.764,2.292 -1.781,10.944 -8.397,20.106 -1.788,2.477 -6.537,7.335 -3.388,10.334 3.968,3.781 9.987,-3.335 12.04,-6.005 8.849,-11.501 19.503,-34.342 6.707,-47.118 -2.601,-2.596 -7.435,-4.724 -11.162,-4.68 z"/><path id="path12" fill="#fff" d="m 123.534,72.156 c -2.6,-2.596 -7.434,-4.724 -11.161,-4.68 -7.521,0.088 -14.381,5.715 -14.381,13.236 0,7.521 6.363,12.854 13.617,12.091 0,0 4.201,-0.255 4.965,2.036 0.763,2.292 -1.781,10.944 -8.398,20.106 -1.787,2.477 -6.536,7.335 -3.389,10.334 3.969,3.781 9.987,-3.335 12.04,-6.005 8.85,-11.502 19.503,-34.343 6.707,-47.118 z"/></g><style id="style853" type="text/css"/><style id="style873" type="text/css"/></svg>