<svg xmlns="http://www.w3.org/2000/svg" xmlns:svg="http://www.w3.org/2000/svg" id="svg2" width="192" height="192" version="1.1" viewBox="0 0 192 192"><metadata id="metadata7"/><g id="layer1" transform="translate(0,-860.36216)"><path id="path1009" d="m 467.57263,918.66243 -10.38571,-17.98858 20.77142,0 z" transform="matrix(2.0959036,0,0,1.6841674,-884.06137,-525.15494)" style="fill:#fff;fill-opacity:1;stroke:#fff;stroke-width:5.82667;stroke-linecap:round;stroke-linejoin:round;stroke-miterlimit:4;stroke-dasharray:none;stroke-opacity:1;stop-color:#000"/><rect id="rect1011" width="176" height="118.352" x="8" y="885.792" rx="34.432" ry="34.432" style="fill:#fff;fill-opacity:1;stroke:none;stroke-width:10.105;stroke-linecap:round;stroke-miterlimit:4;stroke-dasharray:none;stroke-opacity:1;stop-color:#000"/><g style="stroke-width:3.07881" id="g1017" transform="matrix(0.54701969,0,0,0.54701969,-291.27872,422.86836)"><path style="fill:#f8c18c;fill-opacity:1;fill-rule:nonzero;stroke:none;stroke-width:3.63074" id="path1013" d="m 707.24904,953.57487 c 0,34.6156 -28.06123,62.67723 -62.67624,62.67723 -34.61619,0 -62.67787,-28.06163 -62.67787,-62.67723 0,-34.61619 28.06168,-62.67742 62.67787,-62.67742 34.61501,0 62.67624,28.06123 62.67624,62.67742"/><path style="fill:#fff;fill-opacity:1;fill-rule:nonzero;stroke:none;stroke-width:3.63074" id="path1015" d="m 684.73463,983.02764 -22.58796,-74.50222 -17.41836,58.16702 -0.15831,0.1365 -0.1452,-0.1365 -17.44253,-58.16702 -22.58399,74.50222 h 4.22826 c 0,0 2.86179,-12.95925 7.5022,-20.69819 2.5111,-4.19937 6.41742,-7.64843 11.61533,-7.55291 3.62993,0.0852 6.79641,2.10573 10.77069,7.66008 2.37578,3.33629 6.03961,11.8192 6.03961,11.8192 0,0 3.68639,-8.48291 6.06158,-11.8192 3.98754,-5.55435 7.12748,-7.57487 10.79663,-7.66008 5.18228,-0.0955 9.08624,3.35354 11.57096,7.55291 4.641,7.73894 7.51723,20.69819 7.51723,20.69819 z"/></g><path id="path1019" d="m 115.12464,925.43946 h 35.15153" style="fill:none;stroke:#f8c18c;stroke-width:10.105;stroke-linecap:round;stroke-linejoin:miter;stroke-miterlimit:4;stroke-dasharray:none;stroke-opacity:1"/><path id="path1021" d="m 115.12464,963.46122 h 35.15153" style="fill:none;stroke:#f8c18c;stroke-width:10.105;stroke-linecap:round;stroke-linejoin:miter;stroke-miterlimit:4;stroke-dasharray:none;stroke-opacity:1"/><path id="path1023" d="M 115.12464,944.45034 H 156.3236" style="fill:none;stroke:#f8c18c;stroke-width:10.105;stroke-linecap:round;stroke-linejoin:miter;stroke-miterlimit:4;stroke-dasharray:none;stroke-opacity:1"/></g><style id="style853" type="text/css"/><style id="style853-9" type="text/css"/><style id="style853-3" type="text/css"/></svg>