<svg xmlns="http://www.w3.org/2000/svg" xmlns:svg="http://www.w3.org/2000/svg" id="svg2" width="192" height="192" version="1.1" viewBox="0 0 192 192"><metadata id="metadata7"/><g id="layer1" transform="translate(0,-860.36216)"><rect id="rect1003" width="153" height="153" x="19.5" y="879.862" rx="10" style="fill:#99bdfe;fill-opacity:1;fill-rule:evenodd;stroke:none;stroke-opacity:1"/><path style="fill:#fff;fill-opacity:1;stroke-width:.154677" id="path1015" d="m 117.16662,929.63776 c 0.83062,-0.23356 1.69526,-0.0526 2.5429,-0.10208 2.07112,-0.19644 4.0479,0.85227 5.56838,2.1763 2.40213,2.1361 3.69369,5.1786 4.70218,8.16232 1.63803,4.88625 2.3248,10.04319 2.48257,15.18002 0.15622,3.9288 -0.1918,7.86225 -0.81051,11.73845 -0.26914,1.59163 -0.66047,3.24667 -1.73393,4.5042 -0.72698,0.87702 -1.76332,1.55914 -2.91876,1.64886 -1.14306,0.11446 -2.35883,-0.32637 -3.06106,-1.25752 -0.85072,-1.11523 -1.06727,-2.57848 -1.01468,-3.94737 0.0665,-1.9613 0.37741,-3.9025 0.53363,-5.85762 0.20727,-2.47638 0.39443,-4.97287 0.19335,-7.45699 -0.12529,-1.23742 -0.36968,-2.54289 -1.16626,-3.53901 -0.81825,-1.01469 -2.24437,-1.56224 -3.51891,-1.20649 -1.06418,0.28306 -1.96904,0.96674 -2.73624,1.73394 -1.30857,1.33641 -2.28613,2.95897 -3.10128,4.63258 -2.348,4.98215 -3.78959,10.31697 -5.48795,15.53887 -0.94971,2.79811 -2.49958,5.51578 -4.93884,7.26828 -2.62178,1.89943 -5.947339,2.49803 -9.122859,2.49959 -2.95898,0.0108 -5.89011,-1.09358 -8.12829,-3.0224 -1.58389,-1.33022 -2.81976,-3.02085 -3.82826,-4.81356 -1.99997,-3.38279 -3.9257,-6.80578 -5.87928,-10.21487 -0.72698,-1.25753 -1.43231,-2.54599 -2.40678,-3.63337 -0.54601,-0.59087 -1.2173,-1.16008 -2.04637,-1.26217 -1.08893,-0.0851 -2.25829,0.49806 -2.6852,1.53904 -0.58623,1.38745 -0.50734,2.94815 -0.33874,4.41449 0.63417,4.39746 2.39749,8.51806 3.43383,12.82119 0.31864,1.34414 0.53982,2.81203 0.008,4.13297 -0.34803,0.86619 -1.08274,1.59008 -1.97987,1.86696 -0.76256,0.0464 -1.53131,0.0294 -2.29541,0.0124 -1.20339,-0.25676 -2.08041,-1.21885 -2.67901,-2.23972 -0.82907,-1.28228 -1.31631,-2.73934 -1.85304,-4.15618 -1.70608,-4.82283 -2.9435,-9.83592 -3.3998,-14.93872 0.0882,-2.05721 0.0263,-4.12215 0.0402,-6.1809 0.28769,-3.31628 0.94817,-6.60936 2.02627,-9.76014 1.11677,-3.17088 2.83214,-6.29226 5.6055,-8.30152 2.72696,-1.99379 6.47169,-2.55372 9.64258,-1.36425 2.0603,0.79968 3.63955,2.42224 5.11053,4.01078 2.35419,2.86771 4.31085,6.03241 6.27989,9.16926 1.17091,1.9907 2.59085,3.93189 4.59701,5.14766 1.40756,0.87392 3.15387,1.22659 4.77643,0.82443 1.54987,-0.32328 2.886279,-1.33951 3.766389,-2.6357 0.76101,-1.07965 1.22814,-2.3248 1.72775,-3.53902 1.62875,-4.05254 3.20491,-8.13138 5.09506,-12.06946 1.79117,-3.58696 5.02237,-6.61245 8.99912,-7.5235 z"/></g><style id="style853" type="text/css"/></svg>