<svg xmlns="http://www.w3.org/2000/svg" xmlns:svg="http://www.w3.org/2000/svg" id="svg17" width="192" height="192" fill="none" version="1.1" viewBox="0 0 192 192"><metadata id="metadata21"/><rect id="rect2" width="152" height="104" x="20" y="68" fill="#56595b" rx="10"/><path id="path4" fill="#b1b5bd" fill-rule="evenodd" d="m 36,85 c -2.7614,0 -5,2.2386 -5,5 0,2.7614 2.2386,5 5,5 2.7614,0 5,-2.2386 5,-5 0,-2.7614 -2.2386,-5 -5,-5 z m 120,42 c -2.761,0 -5,2.239 -5,5 0,2.761 2.239,5 5,5 2.761,0 5,-2.239 5,-5 0,-2.761 -2.239,-5 -5,-5 z m -5,-16 c 0,-2.761 2.239,-5 5,-5 2.761,0 5,2.239 5,5 0,2.761 -2.239,5 -5,5 -2.761,0 -5,-2.239 -5,-5 z m 5,-26 c -2.761,0 -5,2.2386 -5,5 0,2.7614 2.239,5 5,5 2.761,0 5,-2.2386 5,-5 0,-2.7614 -2.239,-5 -5,-5 z m -25,47 c 0,-2.761 2.239,-5 5,-5 2.761,0 5,2.239 5,5 0,2.761 -2.239,5 -5,5 -2.761,0 -5,-2.239 -5,-5 z m 5,-26 c -2.761,0 -5,2.239 -5,5 0,2.761 2.239,5 5,5 2.761,0 5,-2.239 5,-5 0,-2.761 -2.239,-5 -5,-5 z m -5,-16 c 0,-2.7614 2.239,-5 5,-5 2.761,0 5,2.2386 5,5 0,2.7614 -2.239,5 -5,5 -2.761,0 -5,-2.2386 -5,-5 z m -15,37 c -2.761,0 -5,2.239 -5,5 0,2.761 2.239,5 5,5 2.761,0 5,-2.239 5,-5 0,-2.761 -2.239,-5 -5,-5 z m -5,-16 c 0,-2.761 2.239,-5 5,-5 2.761,0 5,2.239 5,5 0,2.761 -2.239,5 -5,5 -2.761,0 -5,-2.239 -5,-5 z m 5,-26 c -2.761,0 -5,2.2386 -5,5 0,2.7614 2.239,5 5,5 2.761,0 5,-2.2386 5,-5 0,-2.7614 -2.239,-5 -5,-5 z m -25,47 c 0,-2.761 2.2386,-5 5,-5 2.7614,0 5,2.239 5,5 0,2.761 -2.2386,5 -5,5 -2.7614,0 -5,-2.239 -5,-5 z m 5,-26 c -2.7614,0 -5,2.239 -5,5 0,2.761 2.2386,5 5,5 2.7614,0 5,-2.239 5,-5 0,-2.761 -2.2386,-5 -5,-5 z M 91,90 c 0,-2.7614 2.2386,-5 5,-5 2.7614,0 5,2.2386 5,5 0,2.7614 -2.2386,5 -5,5 -2.7614,0 -5,-2.2386 -5,-5 z m -15,37 c -2.7614,0 -5,2.239 -5,5 0,2.761 2.2386,5 5,5 2.7614,0 5,-2.239 5,-5 0,-2.761 -2.2386,-5 -5,-5 z m -5,-16 c 0,-2.761 2.2386,-5 5,-5 2.7614,0 5,2.239 5,5 0,2.761 -2.2386,5 -5,5 -2.7614,0 -5,-2.239 -5,-5 z m 5,-26 c -2.7614,0 -5,2.2386 -5,5 0,2.7614 2.2386,5 5,5 2.7614,0 5,-2.2386 5,-5 0,-2.7614 -2.2386,-5 -5,-5 z m -25,47 c 0,-2.761 2.2386,-5 5,-5 2.7614,0 5,2.239 5,5 0,2.761 -2.2386,5 -5,5 -2.7614,0 -5,-2.239 -5,-5 z m 5,-26 c -2.7614,0 -5,2.239 -5,5 0,2.761 2.2386,5 5,5 2.7614,0 5,-2.239 5,-5 0,-2.761 -2.2386,-5 -5,-5 z M 51,90 c 0,-2.7614 2.2386,-5 5,-5 2.7614,0 5,2.2386 5,5 0,2.7614 -2.2386,5 -5,5 -2.7614,0 -5,-2.2386 -5,-5 z m -15,37 c -2.7614,0 -5,2.239 -5,5 0,2.761 2.2386,5 5,5 2.7614,0 5,-2.239 5,-5 0,-2.761 -2.2386,-5 -5,-5 z m -5,-16 c 0,-2.761 2.2386,-5 5,-5 2.7614,0 5,2.239 5,5 0,2.761 -2.2386,5 -5,5 -2.7614,0 -5,-2.239 -5,-5 z m 29,40 c -2.7614,0 -5,2.239 -5,5 0,2.761 2.2386,5 5,5 h 75 c 2.761,0 5,-2.239 5,-5 0,-2.761 -2.239,-5 -5,-5 z" clip-rule="evenodd"/><path id="path3163" d="M 133.00781,32 C 138.53011,32 143,36.4769 143,42 V 77.111328 H 96 V 32 Z" style="fill:#97db99;fill-opacity:1;stroke-width:1"/><path id="path948" d="M 96 77.111328 L 49 77.111328 L 49 106.99805 C 49 112.51905 53.473287 117 58.992188 117 L 77.798828 117 C 80.485828 117 83.060606 118.081 84.941406 120 L 96 131.2832 L 96 77.111328 z" style="fill:#00f"/><path id="path1004" d="M 58.992188,32 C 53.469887,32 49,36.4769 49,42 V 77.111328 H 96 V 32 Z" style="fill:#99bdfe;stroke-width:1;fill-opacity:1"/><path id="path970" d="M 96 77.111328 L 96 131.2832 L 107.23828 120.04688 C 109.09928 118.18688 111.61705 117.13219 114.24805 117.11719 L 133.00781 117 C 138.52981 117 143 112.52205 143 106.99805 L 143 77.111328 L 96 77.111328 z" style="fill:#f9de81;fill-opacity:1"/><path id="path999" d="M 49 77.111328 L 49 106.99805 C 49 112.51905 53.473287 117 58.992188 117 L 77.798828 117 C 80.485828 117 83.060606 118.081 84.941406 120 L 96 131.2832 L 96 77.111328 L 49 77.111328 z" style="fill:#ff837d;fill-opacity:1"/><text style="font-style:normal;font-variant:normal;font-weight:700;font-stretch:normal;font-size:35.5658px;line-height:1.25;font-family:'Now alt';-inkscape-font-specification:'Now alt Bold';letter-spacing:0;word-spacing:0;fill:#fff;fill-opacity:1;stroke-width:.889144" id="text870" x="60.741" y="67.493" xml:space="preserve"><tspan id="tspan868" x="60.741" y="67.493" style="stroke-width:.889144">a</tspan></text><text style="font-style:normal;font-variant:normal;font-weight:700;font-stretch:normal;font-size:35.5658px;line-height:1.25;font-family:'Now alt';-inkscape-font-specification:'Now alt Bold';letter-spacing:0;word-spacing:0;fill:#fff;fill-opacity:1;stroke-width:.889144" id="text874" x="107.741" y="67.493" xml:space="preserve"><tspan id="tspan872" x="107.741" y="67.493" style="stroke-width:.889144">ä</tspan></text><text style="font-style:normal;font-variant:normal;font-weight:700;font-stretch:normal;font-size:35.5658px;line-height:1.25;font-family:'Now alt';-inkscape-font-specification:'Now alt Bold';letter-spacing:0;word-spacing:0;fill:#fff;fill-opacity:1;stroke-width:.889144" id="text878" x="60.741" y="110.36" xml:space="preserve"><tspan id="tspan876" x="60.741" y="110.36" style="stroke-width:.889144">å</tspan></text><text style="font-style:normal;font-variant:normal;font-weight:700;font-stretch:normal;font-size:35.5658px;line-height:1.25;font-family:'Now alt';-inkscape-font-specification:'Now alt Bold';letter-spacing:0;word-spacing:0;fill:#fff;fill-opacity:1;stroke-width:.889144" id="text882" x="101.762" y="110.36" xml:space="preserve"><tspan id="tspan880" x="101.762" y="110.36" style="stroke-width:.889144">æ</tspan></text></svg>