<svg xmlns="http://www.w3.org/2000/svg" xmlns:svg="http://www.w3.org/2000/svg" id="svg2" width="192" height="192" version="1.1" viewBox="0 0 192 192"><metadata id="metadata7"/><g id="layer1" transform="translate(0,-860.36216)"><rect id="rect842" width="153" height="153" x="19.5" y="879.862" rx="10" style="fill:#99dc9b;fill-opacity:1;fill-rule:evenodd;stroke:none;stroke-opacity:1"/><path style="color:#000;font-style:normal;font-variant:normal;font-weight:400;font-stretch:normal;font-size:medium;line-height:normal;font-family:sans-serif;font-variant-ligatures:normal;font-variant-position:normal;font-variant-caps:normal;font-variant-numeric:normal;font-variant-alternates:normal;font-variant-east-asian:normal;font-feature-settings:normal;font-variation-settings:normal;text-indent:0;text-align:start;text-decoration:none;text-decoration-line:none;text-decoration-style:solid;text-decoration-color:#000;letter-spacing:normal;word-spacing:normal;text-transform:none;writing-mode:lr-tb;direction:ltr;text-orientation:mixed;dominant-baseline:auto;baseline-shift:baseline;text-anchor:start;white-space:normal;shape-padding:0;shape-margin:0;inline-size:0;clip-rule:nonzero;display:inline;overflow:visible;visibility:visible;isolation:auto;mix-blend-mode:normal;color-interpolation:sRGB;color-interpolation-filters:linearRGB;solid-color:#000;solid-opacity:1;vector-effect:none;fill:#fefefe;fill-opacity:1;fill-rule:nonzero;stroke:none;stroke-width:9.03633;stroke-linecap:round;stroke-linejoin:round;stroke-miterlimit:4;stroke-dasharray:none;stroke-dashoffset:0;stroke-opacity:1;color-rendering:auto;image-rendering:auto;shape-rendering:auto;text-rendering:auto;enable-background:accumulate;stop-color:#000" id="path1491" d="m 72.501845,919.86216 c -2.473272,6.2e-4 -4.477978,2.0407 -4.478381,4.55711 v 63.87872 c 3.01e-4,3.50801 3.732462,5.70059 6.718751,3.94722 l 54.372445,-31.93936 c 2.98578,-1.75446 2.98578,-6.13938 0,-7.89384 L 74.742215,920.47266 c -0.681167,-0.40008 -1.453853,-0.61063 -2.24037,-0.6105 z"/><path style="color:#000;font-style:normal;font-variant:normal;font-weight:400;font-stretch:normal;font-size:medium;line-height:normal;font-family:sans-serif;font-variant-ligatures:normal;font-variant-position:normal;font-variant-caps:normal;font-variant-numeric:normal;font-variant-alternates:normal;font-variant-east-asian:normal;font-feature-settings:normal;font-variation-settings:normal;text-indent:0;text-align:start;text-decoration:none;text-decoration-line:none;text-decoration-style:solid;text-decoration-color:#000;letter-spacing:normal;word-spacing:normal;text-transform:none;writing-mode:lr-tb;direction:ltr;text-orientation:mixed;dominant-baseline:auto;baseline-shift:baseline;text-anchor:start;white-space:normal;shape-padding:0;shape-margin:0;inline-size:0;clip-rule:nonzero;display:inline;overflow:visible;visibility:visible;isolation:auto;mix-blend-mode:normal;color-interpolation:sRGB;color-interpolation-filters:linearRGB;solid-color:#000;solid-opacity:1;vector-effect:none;fill:#98db9a;fill-opacity:1;fill-rule:nonzero;stroke:none;stroke-width:2.76622;stroke-linecap:butt;stroke-linejoin:miter;stroke-miterlimit:4;stroke-dasharray:none;stroke-dashoffset:0;stroke-opacity:1;color-rendering:auto;image-rendering:auto;shape-rendering:auto;text-rendering:auto;enable-background:accumulate;stop-color:#000" id="path1557" d="m 90.714844,80.162109 v 28.218751 h 2.767578 V 85.962891 c 0.501645,0.55917 0.945375,0.978519 1.169922,1.220703 1.04114,1.122916 2.187729,1.787261 2.421907,4.507344 0.04735,0.54994 0.490647,0.996302 1.042925,0.993572 l 0.765648,-0.0038 c 0.552278,-0.0027 1.002896,-0.453672 0.953112,-1.003541 -0.338388,-3.737547 -2.409418,-5.568958 -3.156248,-6.374449 -1.082575,-1.167609 -2.79247,-2.446108 -3.13599,-5.143489 -0.0697,-0.547321 -0.508991,-0.997136 -1.061276,-0.997136 h -0.767578 a 1,1 135 0 0 -1,1 z" transform="translate(0,860.36216)"/><path style="fill:none;stroke:#98db9a;stroke-width:2.76622;stroke-linecap:butt;stroke-linejoin:miter;stroke-miterlimit:4;stroke-dasharray:none;stroke-opacity:1" id="path1551" d="m 92.098399,968.74331 c 0,2.36757 -2.386796,4.28687 -5.331057,4.28687 -2.94426,0 -5.331056,-1.9193 -5.331056,-4.28687 0,-2.36757 2.386796,-4.28686 5.331056,-4.28686 2.944261,0 5.331057,1.91929 5.331057,4.28686"/></g></svg>