<svg xmlns="http://www.w3.org/2000/svg" xmlns:svg="http://www.w3.org/2000/svg" id="svg2" width="192" height="192" version="1.1" viewBox="0 0 192 192"><metadata id="metadata7"/><g id="layer1" transform="translate(0,-860.36216)"><circle id="circle919" cx="96" cy="956.362" r="88" style="fill:#99bdfe;fill-opacity:1;fill-rule:evenodd;stroke:none;stroke-opacity:1"/><path id="path858" d="m 123.83222,961.09952 -39.497612,24.7799 a 4.965394,5.3956405 0 0 1 -7.448092,-4.67276 v -49.55981 a 4.965394,5.3956405 0 0 1 7.448092,-4.67276 l 39.497612,24.7799 a 4.965394,5.3956405 0 0 1 0,9.34553 z" style="fill:#fff;fill-opacity:1;stroke:none;stroke-width:.992999;stroke-linecap:round;stop-color:#000"/><circle id="path994" cx="150.523" cy="1010.885" r="25" style="fill:#56595b;fill-opacity:1;stroke:none;stroke-width:.992999;stroke-linecap:round;stop-color:#000"/><path style="stroke-width:1" id="path992" fill="#fff" d="m 144.83807,1005.0973 c 0,-4.0909 2.02639,-7.15228 6.30249,-7.15228 3.06138,0 5.93207,1.74861 5.93207,5.40358 0,2.2445 -1.12213,3.933 -3.30648,5.1805 v 0.1253 c 3.12127,0.4684 5.1531,2.6854 5.1531,5.8721 0,4.0854 -2.96875,6.3951 -6.14996,6.3951 a 7.1468129,7.1468129 0 0 1 -5.49629,-2.3097 c 0.0926,2.5603 0.12529,4.968 0.18521,7.5282 h -2.62014 z m 11.48828,9.2603 c 0,-2.4022 -1.43807,-4.2161 -4.35781,-4.2161 a 6.4659047,6.4659047 0 0 0 -1.56336,0.1908 l -0.40855,-1.9993 c 3.31194,-0.6864 4.55937,-2.7781 4.55937,-4.8099 0,-2.3424 -1.55792,-3.4972 -3.37187,-3.4972 -2.34232,0 -3.77495,1.8739 -3.81307,5.5562 -0.0381,3.6824 -0.0926,7.1849 -0.0926,10.7747 a 5.8612581,5.8612581 0 0 0 4.86985,2.3696 c 2.3042,0.011 4.17806,-1.6125 4.17806,-4.3579 z"/></g><style id="style853" type="text/css"/><style id="style853-9" type="text/css"/><style id="style853-3" type="text/css"/></svg>