<svg xmlns="http://www.w3.org/2000/svg" xmlns:svg="http://www.w3.org/2000/svg" id="svg2" width="192" height="192" version="1.1" viewBox="0 0 192 192"><metadata id="metadata7"/><g id="layer1" transform="translate(0,-860.36216)"><rect id="rect959" width="127" height="175" x="32.5" y="868.862" rx="10" style="fill:#fff;fill-opacity:1;fill-rule:evenodd;stroke:none;stroke-width:1;stroke-opacity:1"/><path id="path962" d="m 69.38,997.26442 h 53.23994" style="fill:none;stroke:#99bdfe;stroke-width:10.1964;stroke-linecap:round;stroke-linejoin:round;stroke-miterlimit:4;stroke-dasharray:none;stroke-opacity:1"/><path id="path964" d="m 69.38,997.26442 h 53.23994" style="fill:#fff;fill-opacity:.25;stroke:#fff;stroke-width:10.1964;stroke-linecap:round;stroke-linejoin:round;stroke-miterlimit:4;stroke-dasharray:none;stroke-opacity:.5"/><path id="path966" d="m 69.38,976.44536 h 53.23994" style="fill:none;stroke:#99bdfe;stroke-width:10.1964;stroke-linecap:round;stroke-linejoin:round;stroke-miterlimit:4;stroke-dasharray:none;stroke-opacity:1"/><path id="path968" d="m 69.38,976.44536 h 53.23994" style="fill:none;stroke:#fff;stroke-width:10.1964;stroke-linecap:round;stroke-linejoin:round;stroke-miterlimit:4;stroke-dasharray:none;stroke-opacity:.5"/><path id="path970" d="M 69.38,976.44536 H 96.27203" style="fill:#99bdfe;fill-opacity:1;stroke:#99bdfe;stroke-width:10.1964;stroke-linecap:round;stroke-linejoin:round;stroke-miterlimit:4;stroke-dasharray:none;stroke-opacity:1"/><path id="path972" d="m 69.38,997.26442 h 37.08408" style="fill:none;stroke:#99bdfe;stroke-width:10.1964;stroke-linecap:round;stroke-linejoin:round;stroke-miterlimit:4;stroke-dasharray:none;stroke-opacity:1"/><path id="path974" d="m 78.418406,944.55907 a 24.861107,24.861107 0 0 1 10e-7,-35.15891 24.861107,24.861107 0 0 1 35.158913,0 24.861107,24.861107 0 0 1 0,35.15891" style="fill:none;stroke:#99bdfe;stroke-width:10.1964;stroke-linecap:round;stroke-linejoin:round;stroke-miterlimit:4;stroke-dasharray:none;stroke-opacity:1;stop-color:#000"/><path id="path976" d="m 78.418406,944.55907 a 24.861107,24.861107 0 0 1 10e-7,-35.15891 24.861107,24.861107 0 0 1 35.158913,0 24.861107,24.861107 0 0 1 0,35.15891" style="fill:none;stroke:#fff;stroke-width:10.1964;stroke-linecap:round;stroke-linejoin:round;stroke-miterlimit:4;stroke-dasharray:none;stroke-opacity:.5;stop-color:#000"/><path id="path978" d="m 78.418406,944.55907 a 24.861107,24.861107 0 0 1 0,-35.15891 24.861107,24.861107 0 0 1 35.158914,0" style="fill:none;stroke:#99bdfe;stroke-width:10.1964;stroke-linecap:round;stroke-linejoin:round;stroke-miterlimit:4;stroke-dasharray:none;stroke-opacity:1;stop-color:#000"/></g><style id="style853" type="text/css"/></svg>