<svg xmlns="http://www.w3.org/2000/svg" xmlns:xlink="http://www.w3.org/1999/xlink" width="100%" height="100%" version="1.1" viewBox="0 0 192 192" xml:space="preserve" style="fill-rule:evenodd;clip-rule:evenodd;stroke-linecap:round;stroke-linejoin:round;stroke-miterlimit:1.5"><g id="Layer1"><g transform="matrix(1,0,0,1,2,2) matrix(1,0,0,1,8,8)"><circle cx="88" cy="88" r="88" style="fill:#f9de81"/></g><g><path d="M131.538,16.627C163.493,29.828 186,61.306 186,98C186,134.392 163.861,165.655 132.334,179.04C100.378,165.838 77.872,134.36 77.872,97.666C77.872,61.274 100.011,30.012 131.538,16.627Z" transform="matrix(1,0,0,1,2,2) matrix(1,0,0,1,-2,-2)" style="fill:#fdf5d9"/></g><g><path d="M86.058,80.714C86.058,80.253 85.683,79.878 85.222,79.878L83.552,79.878C83.091,79.878 82.717,80.253 82.717,80.714L82.717,82.384C82.717,82.845 83.091,83.219 83.552,83.219L85.222,83.219C85.683,83.219 86.058,82.845 86.058,82.384L86.058,80.714Z" transform="matrix(1,0,0,1,2,2) matrix(0.707107,0.707107,-0.707107,0.707107,80.2446,-38.1315)" style="fill:#83868c"/></g><g><path d="M86.058,80.714C86.058,80.253 85.683,79.878 85.222,79.878L83.552,79.878C83.091,79.878 82.717,80.253 82.717,80.714L82.717,82.384C82.717,82.845 83.091,83.219 83.552,83.219L85.222,83.219C85.683,83.219 86.058,82.845 86.058,82.384L86.058,80.714Z" transform="matrix(1,0,0,1,2,2) matrix(0.707107,0.707107,-0.707107,0.707107,41.8054,-3.8629)" style="fill:#83868c"/></g><g><path d="M86.058,80.714C86.058,80.253 85.683,79.878 85.222,79.878L83.552,79.878C83.091,79.878 82.717,80.253 82.717,80.714L82.717,82.384C82.717,82.845 83.091,83.219 83.552,83.219L85.222,83.219C85.683,83.219 86.058,82.845 86.058,82.384L86.058,80.714Z" transform="matrix(1,0,0,1,2,2) matrix(0.707107,0.707107,-0.707107,0.707107,86.5686,-38.1315)" style="fill:#83868c"/></g><g><path d="M86.058,80.714C86.058,80.253 85.683,79.878 85.222,79.878L83.552,79.878C83.091,79.878 82.717,80.253 82.717,80.714L82.717,82.384C82.717,82.845 83.091,83.219 83.552,83.219L85.222,83.219C85.683,83.219 86.058,82.845 86.058,82.384L86.058,80.714Z" transform="matrix(1,0,0,1,2,2) matrix(0.707107,0.707107,-0.707107,0.707107,48.1293,-3.8629)" style="fill:#83868c"/></g><g><path d="M39.64,88.175C28.047,87.678 25.348,103.139 35.759,107.169L62.291,107.169C62.291,107.169 67.925,105.175 62.104,98C56.283,90.825 68.752,77.467 77.335,107.169L90.875,107.169C90.875,107.169 93.002,106.553 92.778,104.5C92.554,102.448 91.546,90.992 91.546,90.992" transform="matrix(1,0,0,1,2,2) matrix(1,0,0,1,-2,-2)" style="fill:none;stroke:#83868c;stroke-width:2.64px"/></g><g><path d="M102.062,107.539C102.062,107.539 118.341,108.734 118.155,96C117.968,83.266 118.155,79.878 118.155,79.878" transform="matrix(1,0,0,1,2,2) matrix(1,0,0,1,-2,-2)" style="fill:none;stroke:#83868c;stroke-width:2.64px"/></g><g><path d="M134.62,92.473L134.62,102.688C134.62,102.688 134.854,107.169 130.842,107.169L123.332,107.169C123.332,107.169 118.156,106.738 118.156,99.788L118.149,95.564" transform="matrix(1,0,0,1,2,2) matrix(1,0,0,1,-2,-2)" style="fill:none;stroke:#83868c;stroke-width:2.64px"/></g><g><path d="M134.623,102.918C134.623,105.783 136.234,107.169 139.098,107.169L159.995,107.169C159.995,107.169 166.665,107.539 166.665,98C166.665,88.461 161.07,88.164 160.044,88.164C159.018,88.164 152.112,86.735 138.679,106.466" transform="matrix(1,0,0,1,2,2) matrix(1,0,0,1,-2,-2)" style="fill:none;stroke:#83868c;stroke-width:2.64px"/></g><g><path d="M110.377,99.32L100.946,84.634" transform="matrix(1,0,0,1,2,2) matrix(1,0,0,1,-2,-2)" style="fill:none;stroke:#83868c;stroke-width:2.64px"/></g></g></svg>