<svg xmlns="http://www.w3.org/2000/svg" xmlns:svg="http://www.w3.org/2000/svg" id="svg13" width="192" height="192" fill="none" version="1.1" viewBox="0 0 192 192"><metadata id="metadata17"/><path id="path2" fill="#ffb0ac" d="m 172.5,29.1 v 133.8 c 0,5.3 -4.3,9.6 -9.6,9.6 H 29.1 c -5.3,0 -9.6,-4.3 -9.6,-9.6 V 29.1 c 0,-5.3 4.3,-9.6 9.6,-9.6 H 163 c 5.2,0 9.5,4.3 9.5,9.6 z"/><path id="path4" d="m 101.03906,82.833984 c -0.69757,-0.0155 -1.408159,0.0637 -2.126951,0.248047 -1.055358,0.246818 -2.021144,0.691384 -2.898437,1.371094 -1.582112,1.190494 -2.419735,2.851543 -2.789063,4.599609 -0.136279,0.549166 -0.136718,1.028175 -0.136718,1.470704 v 4.804687 c 0,0.297215 -0.04375,0.634578 -0.0957,0.998047 -0.188305,0.776588 -0.59946,1.449826 -1.189454,1.945312 -1.042922,0.839863 -2.226711,1.030949 -3.597656,0.830078 a 0.81786323,0.81786323 0 0 0 -0.02539,-0.0039 c -0.766764,-0.08897 -1.495629,-0.445611 -2.109376,-1.048828 -0.614299,-0.659472 -0.953124,-1.383762 -0.953124,-2.273437 a 0.81786323,0.81786323 0 0 0 0,-0.02539 c -0.05546,-1.809756 8.96e-4,-3.71035 -0.05664,-5.587891 a 0.81786323,0.81786323 0 0 0 -0.002,-0.01563 c -0.06202,-1.22648 -0.381988,-2.438073 -1.078125,-3.566406 l -0.002,-0.0039 C 83.222994,85.332908 82.130366,84.314714 80.734375,83.6875 a 0.81786323,0.81786323 0 0 0 -0.02539,-0.0098 c -0.713537,-0.293957 -1.457925,-0.542996 -2.279296,-0.667968 a 0.81786323,0.81786323 0 0 0 -0.0098,-0.002 c -0.903565,-0.127318 -1.773381,-0.06027 -2.601563,0.05664 a 0.81786323,0.81786323 0 0 0 -0.05469,0.0098 c -0.870683,0.184633 -1.684458,0.494465 -2.476563,0.916015 a 0.81786323,0.81786323 0 0 0 -0.0332,0.01953 c -0.714303,0.423577 -1.301384,1.051254 -1.865234,1.707031 -0.522466,-0.641147 -1.074127,-1.2619 -1.779297,-1.660156 a 0.81786323,0.81786323 0 0 0 -0.01172,-0.0059 c -1.773977,-0.967457 -3.741958,-1.347072 -5.746094,-0.917969 -1.486453,0.249332 -2.841362,0.879236 -3.921874,1.947266 a 0.81786323,0.81786323 0 0 0 -0.01367,0.01367 c -1.362552,1.408028 -2.14446,3.145091 -2.207032,5.125 -0.05762,1.657462 -0.002,3.341619 -0.002,4.998047 0,0.35547 -0.04626,0.821659 0.0078,1.357422 0.01134,0.907863 0.773372,1.655394 1.675781,1.679687 1.033587,0.07029 1.988281,-0.791734 1.988281,-1.863281 v -5.587891 c 0,-0.684797 0.05169,-1.221933 0.273438,-1.748046 a 0.81786323,0.81786323 0 0 0 0.0039,-0.01172 c 0.389782,-0.96329 0.964195,-1.610008 1.851562,-2.025391 1.025696,-0.482904 2.025358,-0.573615 3.146485,-0.236328 a 0.81786323,0.81786323 0 0 0 0.03125,0.0078 c 1.117835,0.288252 1.841474,0.837792 2.365234,1.826172 a 0.81786323,0.81786323 0 0 0 0.0039,0.0059 c 0.363491,0.673608 0.464843,1.412844 0.464843,2.238281 v 5.53125 c 0,0.80861 0.551782,1.492688 1.177735,1.757813 a 0.81786323,0.81786323 0 0 0 0.0332,0.01367 c 0.725862,0.269409 1.642753,0.04458 2.126953,-0.617187 0.30945,-0.413341 0.390625,-0.88015 0.390625,-1.267578 v -5.53125 c 0,-0.788775 0.144482,-1.532898 0.519531,-2.230469 0.245991,-0.436221 0.515523,-0.780135 0.84375,-1.023437 a 0.81786323,0.81786323 0 0 0 0.01563,-0.0098 c 0.647832,-0.503169 1.378271,-0.738562 2.300781,-0.839844 a 0.81786323,0.81786323 0 0 0 0.0098,0 c 0.730619,-0.09009 1.488122,0.04632 2.230469,0.335938 0.693218,0.324395 1.233593,0.811662 1.597656,1.441406 a 0.81786323,0.81786323 0 0 0 0.0293,0.04687 c 0.357688,0.5304 0.537109,1.142661 0.537109,1.833984 l 0.002,-0.0293 c -0.05712,1.637799 -0.05698,3.330728 0,4.96875 6.8e-5,0.0019 -6.7e-5,0.0039 0,0.0059 -1.77e-4,0.477863 0.0047,0.975721 0.132813,1.515625 0.133528,0.888724 0.447822,1.710115 0.882812,2.447265 a 0.81786323,0.81786323 0 0 0 0.0059,0.0078 c 0.753013,1.240483 1.838975,2.257983 3.193359,2.835933 1.3062,0.612 2.688222,0.85565 4.097656,0.79493 a 0.81786323,0.81786323 0 0 0 0.04102,-0.002 c 1.172732,-0.10966 2.3184,-0.46914 3.410156,-1.08203 -0.0037,0.0398 5.2e-4,0.0817 -0.0039,0.1211 a 0.81786323,0.81786323 0 0 0 -0.0059,0.0918 c 0,0.65433 -0.210591,1.26044 -0.642579,1.87696 a 0.81786323,0.81786323 0 0 0 -0.02539,0.0391 c -0.49459,0.80032 -1.214963,1.23171 -2.259766,1.47851 -0.843601,0.19578 -1.647744,0.19346 -2.46875,-0.0449 l 0.07227,0.0254 c -0.276249,-0.10948 -0.595626,-0.24306 -0.97461,-0.32031 h -0.002 c -0.886082,-0.19223 -1.795978,0.37798 -2.076171,1.20898 a 0.81786323,0.81786323 0 0 0 -0.0078,0.0234 c -0.131669,0.43346 -0.123564,0.92723 0.08789,1.34571 0.209721,0.41504 0.590835,0.70548 1.007812,0.87304 1.6192,0.73009 3.331843,0.85592 4.992188,0.49414 1.685773,-0.31259 3.175872,-1.14018 4.257812,-2.46094 1.054757,-1.2877 1.702535,-2.82194 1.765625,-4.5664 a 0.81786323,0.81786323 0 0 0 0.002,-0.0293 V 91.304688 c 0,-0.558427 0.0036,-1.058486 0.0957,-1.513672 a 0.81786323,0.81786323 0 0 0 0.01172,-0.06641 c 0.141463,-1.21153 0.751464,-2.120072 1.847656,-2.732421 a 0.81786323,0.81786323 0 0 0 0.0039,-0.002 c 0.632325,-0.357196 1.382219,-0.506274 2.242189,-0.507812 1.04294,0.0536 1.8968,0.329844 2.64062,0.972656 a 0.81786323,0.81786323 0 0 0 0.004,0.002 c 0.68338,0.585305 1.09727,1.393904 1.24414,2.335938 0.0486,0.554728 0.0508,1.132208 0.0508,1.736328 a 0.81786323,0.81786323 0 0 0 0.002,0.0293 c 0.0563,1.600936 0.0547,3.210865 0.0547,4.77539 0,1.17713 1.12391,2.105878 2.27539,1.794922 a 0.81786323,0.81786323 0 0 0 0.043,-0.01172 c 0.36604,-0.120671 0.72358,-0.331776 0.97852,-0.664063 0.25494,-0.332287 0.375,-0.758857 0.375,-1.175781 v -5.642578 c 0,-0.943838 0.18591,-1.707908 0.66211,-2.462891 0.42326,-0.648517 0.94915,-1.078273 1.64257,-1.353516 0.85333,-0.327319 1.76576,-0.378374 2.72071,-0.232421 0.66122,0.143766 1.26223,0.41738 1.76758,0.822265 0.94913,0.85283 1.3496,1.85559 1.3496,3.171875 0,1.9555 -1e-4,3.902362 -0.0566,5.841797 a 0.81786323,0.81786323 0 0 0 0,0.02344 c 0,1.438974 0.11254,2.941429 0.89063,4.355468 0.80406,1.52407 1.98717,2.69833 3.62109,3.38281 1.84485,0.78869 3.7798,0.91255 5.75,0.30664 1.95411,-0.56231 3.45569,-1.85601 4.39063,-3.64062 0.50634,-0.941769 0.75831,-1.944691 0.82422,-2.931641 0.12043,-0.932733 0.0599,-1.834935 -0.0566,-2.699219 a 0.81786323,0.81786323 0 0 0 -0.01,-0.05273 c -0.18634,-0.918535 -0.51109,-1.751974 -1.00976,-2.554688 -0.70203,-1.192089 -1.73051,-2.140417 -2.99219,-2.763672 a 0.81786323,0.81786323 0 0 0 -0.043,-0.02148 c -0.84382,-0.357581 -1.72464,-0.6063 -2.67383,-0.671875 -0.99904,-0.12008 -2.04402,-0.06111 -3.04101,0.185547 a 0.81786323,0.81786323 0 0 0 -0.0313,0.0078 c -0.66998,0.194993 -1.3269,0.493879 -1.96484,0.861328 -0.0654,-1.213442 -0.25365,-2.428362 -0.93945,-3.607422 -0.87518,-1.545341 -2.24069,-2.774148 -4.04297,-3.285156 -3.26837,-1.017791 -6.24053,-0.22362 -8.53125,2.160156 -0.0328,-0.04515 -0.055,-0.09487 -0.0898,-0.140624 a 0.81786323,0.81786323 0 0 0 -0.0586,-0.07031 c -1.01747,-1.069021 -2.29142,-1.754992 -3.65625,-2.123047 -0.67719,-0.182473 -1.3669,-0.293003 -2.06836,-0.308594 z m 23.44532,9.904297 c 2.318,0 4.21289,1.913746 4.21289,4.265625 0,2.416441 -1.89503,4.322264 -4.21289,4.322264 -2.25255,0 -4.1543,-1.905329 -4.1543,-4.322264 0,-2.352384 1.90158,-4.265625 4.1543,-4.265625 z" transform="matrix(1.1389376,0,0,1.1389376,-12.197174,-13.340499)" style="fill:#fff"/><defs id="defs11"><clipPath id="clip0"><rect id="rect8" width="192" height="192" fill="#fff"/></clipPath></defs><g id="g846" clip-path="url(#clip0)" transform="translate(-218.10644)"><path id="path842" fill="#ffb0ac" d="m 172.5,29.1 v 133.8 c 0,5.3 -4.3,9.6 -9.6,9.6 H 29.1 c -5.3,0 -9.6,-4.3 -9.6,-9.6 V 29.1 c 0,-5.3 4.3,-9.6 9.6,-9.6 H 163 c 5.2,0 9.5,4.3 9.5,9.6 z"/><path id="path844" fill="#fff" d="m 131.38,95.3282 c -0.17,-0.838 -0.452,-1.5643 -0.904,-2.2906 -0.622,-1.0615 -1.526,-1.8995 -2.657,-2.4582 -0.791,-0.3352 -1.582,-0.5587 -2.43,-0.6145 -0.904,-0.1115 -1.865,-0.0561 -2.77,0.1678 -0.96,0.2794 -1.865,0.6704 -2.656,1.3408 -0.057,0.0561 -0.17,0.0561 -0.283,0.1115 0.057,-1.6201 -0.056,-3.1286 -0.904,-4.5812 -0.791,-1.3967 -1.978,-2.4582 -3.561,-2.9051 -3.391,-1.0615 -6.217,-0.2234 -8.421,2.6258 -0.057,-0.1115 -0.113,-0.2234 -0.226,-0.2794 -0.113,-0.2234 -0.226,-0.391 -0.396,-0.6145 -0.904,-0.9498 -2.035,-1.5643 -3.278,-1.8995 -1.244,-0.3352 -2.487,-0.3911 -3.7871,-0.0559 -0.9608,0.2234 -1.8087,0.6146 -2.5999,1.2291 -1.4131,1.0615 -2.1478,2.5141 -2.487,4.1343 -0.113,0.4469 -0.113,0.838 -0.113,1.2849 0,1.6202 0,3.1845 0,4.8047 0,0.3911 -0.0565,0.7821 -0.113,1.1732 -0.2261,0.9498 -0.7348,1.7878 -1.4696,2.4024 -1.2434,1.0056 -2.7129,1.2292 -4.239,1.0056 -0.9609,-0.1115 -1.8652,-0.5587 -2.5999,-1.285 -0.7348,-0.7822 -1.187,-1.7319 -1.187,-2.8493 -0.0565,-1.8436 0,-3.7431 -0.0565,-5.5868 -0.0565,-1.1174 -0.3391,-2.1789 -0.9609,-3.1845 -0.6782,-1.1174 -1.639,-2.0112 -2.8825,-2.5699 -0.6782,-0.2794 -1.3565,-0.5028 -2.0913,-0.6146 -0.7913,-0.1115 -1.5825,-0.0558 -2.3738,0.0559 -0.7913,0.1678 -1.5261,0.447 -2.2608,0.838 -0.8479,0.5028 -1.5826,1.1174 -2.1478,1.9554 -0.0565,0.0559 -0.1131,0.1115 -0.1131,0.1678 -0.0565,0 -0.0565,0 -0.0565,-0.0558 -0.0565,-0.0561 -0.113,-0.1115 -0.1696,-0.1678 -0.5087,-0.7822 -1.1869,-1.3968 -1.9782,-1.8437 -1.6391,-0.8939 -3.3912,-1.2291 -5.1999,-0.838 -1.3565,0.2234 -2.5434,0.7821 -3.5043,1.7319 -1.2434,1.2849 -1.9217,2.7934 -1.9782,4.5812 -0.0565,1.6201 0,3.2962 0,4.9723 0,0.4469 -0.0565,0.8938 0,1.3408 0,0.5028 0.3957,0.8939 0.9043,0.8939 0.6218,0.0559 1.1305,-0.3911 1.1305,-1.0615 0,-1.8436 0,-3.7432 0,-5.5868 0,-0.7263 0.0565,-1.3967 0.3391,-2.0672 0.4521,-1.1173 1.1869,-1.9554 2.2608,-2.4581 1.1869,-0.5588 2.4304,-0.6705 3.7304,-0.2794 1.2999,0.3352 2.2608,1.0615 2.8825,2.2347 0.4522,0.838 0.5652,1.7319 0.5652,2.6258 0,1.8437 0,3.6874 0,5.531 0,0.5028 0.2826,0.838 0.6783,1.0056 0.4521,0.1678 0.9043,0.0561 1.1869,-0.3352 0.1696,-0.2234 0.2261,-0.5028 0.2261,-0.7821 0,-5.531 0,-5.531 0,-5.531 0,-0.8939 0.1695,-1.7878 0.6217,-2.6258 0.2826,-0.5028 0.6217,-0.9498 1.0739,-1.285 0.7913,-0.6146 1.6956,-0.8939 2.713,-1.0056 0.9043,-0.1115 1.8086,0.0561 2.6564,0.3911 0.8478,0.3911 1.5261,1.0056 1.9783,1.7878 0.4521,0.6704 0.6782,1.4525 0.6782,2.2906 -0.0565,1.6201 -0.0565,3.2962 0,4.9164 0,0.5028 0,0.9497 0.1131,1.3967 0.113,0.7821 0.3956,1.5084 0.7912,2.1788 0.6783,1.1174 1.6391,2.011 2.8261,2.514 1.1869,0.559 2.4304,0.782 3.7303,0.726 1.187,-0.111 2.3174,-0.447 3.3913,-1.117 0.2826,-0.223 0.5652,-0.447 0.9043,-0.67 0.0565,0.111 0.0565,0.167 0.0565,0.279 0,0.447 0,0.95 -0.0565,1.453 0,0.838 -0.2826,1.62 -0.7913,2.346 -0.6217,1.006 -1.5826,1.564 -2.7695,1.844 -0.9609,0.223 -1.9217,0.223 -2.8826,-0.056 -0.2826,-0.112 -0.5652,-0.224 -0.8478,-0.28 -0.5086,-0.111 -0.9608,0.168 -1.1304,0.671 -0.1695,0.558 0.0565,1.005 0.6218,1.229 1.4695,0.67 2.9955,0.782 4.5216,0.447 1.526,-0.28 2.826,-1.006 3.7869,-2.179 0.9608,-1.173 1.526,-2.514 1.5826,-4.079 0,-3.5192 0,-7.039 0,-10.6145 0,-0.5587 0,-1.1174 0.113,-1.6761 0.1696,-1.4525 0.9608,-2.6258 2.2608,-3.352 0.7913,-0.447 1.6959,-0.6146 2.6569,-0.6146 1.187,0.056 2.26,0.3911 3.165,1.1732 0.848,0.7263 1.356,1.7319 1.526,2.8493 0.056,0.6146 0.056,1.2291 0.056,1.8436 0.057,1.6202 0.057,3.2404 0.057,4.8048 0,0.6703 0.622,1.1732 1.243,1.0055 0.509,-0.1678 0.792,-0.5028 0.792,-1.0614 0,-1.8437 0,-3.7432 0,-5.6428 0,-1.0615 0.226,-2.0112 0.791,-2.9051 0.509,-0.7822 1.187,-1.3408 2.035,-1.676 1.017,-0.3911 2.091,-0.447 3.165,-0.2794 0.791,0.1678 1.526,0.5028 2.148,1.0057 1.13,1.0056 1.639,2.2905 1.639,3.799 0,1.9554 0,3.9107 -0.057,5.8661 0,1.3968 0.113,2.7376 0.791,3.9667 0.735,1.397 1.753,2.402 3.222,3.017 1.696,0.726 3.391,0.838 5.2,0.279 1.752,-0.503 3.052,-1.62 3.9,-3.24 0.452,-0.8382 0.678,-1.732 0.735,-2.6259 0.112,-0.8381 0.056,-1.6761 -0.057,-2.5141 z m -6.895,6.8158 c -2.713,0 -4.974,-2.2907 -4.974,-5.14 0,-2.7934 2.261,-5.084 4.974,-5.084 2.769,0 5.03,2.2906 5.03,5.084 0,2.8493 -2.261,5.14 -5.03,5.14 z"/></g></svg>