<svg xmlns="http://www.w3.org/2000/svg" xmlns:svg="http://www.w3.org/2000/svg" id="svg2" width="192" height="192" version="1.1" viewBox="0 0 192 192"><defs id="defs4"><style id="style985"/><style id="style949"/></defs><metadata id="metadata7"/><g id="layer1" transform="translate(0,-860.36216)"><path style="fill:#ffb0ac;fill-opacity:1;stroke-width:15.9129;stroke-linejoin:round;stop-color:#000" id="path1200" d="m 50.150268,977.49429 c -14.958919,39.74441 -28.377893,39.47261 -34.901707,36.82051 -6.5237948,-2.6521 -12.3079324,-17.69452 -0.144652,-50.0112 12.163286,-32.31669 35.65513,-69.88361 44.077348,-66.71368 8.422214,3.16994 3.13231,47.58767 -9.030989,79.90437 z"/><path style="fill:#fcecdc;fill-opacity:1;stroke-width:15.9129;stroke-linejoin:round;stop-color:#000" id="path1202" d="m 66.061049,977.49429 c 14.958918,39.74441 28.377893,39.47261 34.901701,36.82051 6.5238,-2.6521 12.30794,-17.69452 0.14465,-50.0112 -12.163284,-32.31669 -35.655123,-69.88361 -44.077349,-66.71368 -8.422206,3.16994 -3.132303,47.58767 9.030998,79.90437 z"/><path style="fill:#f8c18c;fill-opacity:1;stroke-width:15.9129;stroke-linejoin:round;stop-color:#000" id="path1204" d="m 125.93895,977.49429 c -14.95892,39.74441 -28.377897,39.47261 -34.901711,36.82051 -6.523795,-2.6521 -12.307933,-17.69452 -0.144653,-50.0112 12.163284,-32.31669 35.655134,-69.88361 44.077354,-66.71368 8.42221,3.16994 3.1323,47.58767 -9.03099,79.90437 z"/><path style="fill:#ffb0ac;fill-opacity:1;stroke-width:15.9129;stroke-linejoin:round;stop-color:#000" id="path1206" d="m 141.84974,977.49429 c 14.95892,39.74441 28.37789,39.47261 34.9017,36.82051 6.5238,-2.6521 12.30793,-17.69452 0.14465,-50.0112 -12.16328,-32.31669 -35.65512,-69.88361 -44.07735,-66.71368 -8.4222,3.16994 -3.1323,47.58767 9.031,79.90437 z"/></g><style id="style853" type="text/css"/></svg>