<svg xmlns="http://www.w3.org/2000/svg" xmlns:svg="http://www.w3.org/2000/svg" id="svg6214" width="192" height="192" version="1.1" viewBox="0 0 192 192"><metadata id="metadata6219"/><g id="layer1" transform="translate(0,-860.36222)"><rect id="rect4609" width="152" height="152" x="20" y="880.362" rx="9.935" style="display:inline;fill:#56595b;fill-opacity:1;fill-rule:evenodd;stroke:none;stroke-width:.993464"/><path id="path4267" d="m 83.183583,935.34563 a 2.8331974,2.8331974 0 0 0 -2.302823,1.4124 l -21.001363,36.37482 a 2.8331974,2.8331974 0 0 0 2.452357,4.24948 h 25.335128 16.666248 25.33512 a 2.8331974,2.8331974 0 0 0 2.45235,-4.24948 l -20.99999,-36.37482 a 2.8331974,2.8331974 0 0 0 -2.32051,-1.4124 2.8331974,2.8331974 0 0 0 -2.58557,1.4124 l -9.227606,15.98111 a 1.1531726,1.1531726 0 0 1 -0.932548,0.56008 1.1531726,1.1531726 0 0 1 -1.022268,-0.52745 1.1531726,1.1531726 0 0 1 -0.0068,-0.009 l -9.238476,-16.00474 a 2.8331974,2.8331974 0 0 0 -2.320494,-1.4124 2.8331974,2.8331974 0 0 0 -0.282755,0 z" style="color:#000;font-style:normal;font-variant:normal;font-weight:400;font-stretch:normal;font-size:medium;line-height:normal;font-family:sans-serif;text-indent:0;text-align:start;text-decoration:none;text-decoration-line:none;text-decoration-style:solid;text-decoration-color:#000;letter-spacing:normal;word-spacing:normal;text-transform:none;writing-mode:lr-tb;direction:ltr;baseline-shift:baseline;text-anchor:start;white-space:normal;clip-rule:nonzero;display:inline;overflow:visible;visibility:visible;isolation:auto;mix-blend-mode:normal;color-interpolation:sRGB;color-interpolation-filters:linearRGB;solid-color:#000;solid-opacity:1;fill:#fff;fill-opacity:1;fill-rule:nonzero;stroke:none;stroke-width:.803413;stroke-linecap:butt;stroke-linejoin:round;stroke-miterlimit:4;stroke-dasharray:none;stroke-dashoffset:0;stroke-opacity:1;color-rendering:auto;image-rendering:auto;shape-rendering:auto;text-rendering:auto;enable-background:accumulate"/></g></svg>