<svg xmlns="http://www.w3.org/2000/svg" xmlns:svg="http://www.w3.org/2000/svg" id="svg2" width="192" height="192" version="1.1" viewBox="0 0 192 192"><defs id="defs4"><clipPath id="clipPath40-6" clipPathUnits="userSpaceOnUse"><path id="path38-7" d="m 565.879,2409.88 292.047,686.12 741.704,90.8 449.75,-595.26 -292,-686.13 -741.71,-90.79 z"/></clipPath><clipPath id="clipPath60-5" clipPathUnits="userSpaceOnUse"><path id="path58-3" d="m 1742.81,1924.7 -717.7,-87.81 -435.184,575.98 282.566,663.77 717.688,87.88 435.16,-575.98 z"/></clipPath></defs><metadata id="metadata7"/><g id="layer1" transform="translate(0,-860.36216)"><rect id="rect1053" width="152" height="152" x="20" y="880.362" rx="9.935" ry="9.935" style="fill:#ff837d;fill-opacity:1;fill-rule:evenodd;stroke:none;stroke-width:.993464;stroke-opacity:1"/><g id="g1061" transform="matrix(0.03324686,0,0,-0.03324686,51.08601,1033.1108)"><g id="g1059" clip-path="url(#clipPath40-6)"><path style="fill:#fff;fill-opacity:1;fill-rule:nonzero;stroke:none" id="path1055" d="m 1806.43,1802.84 c -151.89,-485.84 -403,-800.74 -647.65,-770.73 -294.139,35.98 -493.526,639.96 -388.491,1349.57 105.262,710.93 417.061,1224.98 730.501,1204.49 205.09,-13.37 364.64,-290.62 409.94,-664.84 -56.74,211.72 -142.35,430.96 -288.39,450.19 C 1421.03,3398 1157.25,2991.9 1048.7,2431.7 947.891,1911.33 1027.98,1392.89 1263.41,1362.23 c 152.1,-19.76 411.81,139.15 543.02,440.61"/><path style="fill:#fff;fill-opacity:1;fill-rule:nonzero;stroke:none" id="path1057" d="m 1941.32,1848.48 c 274.06,123.58 552.07,267.06 525.79,438.67 -39.9,260.28 -644.02,358 -1173.4,305.92 C 1060.21,2570.12 224.613,2401.76 237.75,2049.82 241.578,1947.38 515.629,1812.35 744.98,1746.1 387.977,1785.95 27.5508,1963.29 2.28125,2177 -35.8359,2500.27 530.297,2832.33 1275.63,2911.61 c 739.73,78.56 1379.5,-113.74 1423.39,-436.28 33.03,-242.65 -282.96,-476.6 -757.7,-626.85"/></g></g><path style="fill:#979797;fill-opacity:1;fill-rule:nonzero;stroke:none;stroke-width:.271184" id="path1063" d="m 115.01972,971.96009 -23.811075,2.91713 -14.43774,-19.10768 9.37325,-22.02638 23.813725,-2.91242 14.43611,19.1073 -9.37428,22.02205"/><path style="fill:#d2d2d2;fill-opacity:1;fill-rule:nonzero;stroke:none;stroke-width:.271184" id="path1065" d="m 111.14413,973.17192 c -5.04987,16.15274 -13.398485,26.62416 -21.532325,25.62441 -9.77921,-1.19627 -16.40819,-21.27668 -12.91611,-44.86634 3.49963,-23.63884 13.86597,-40.72939 24.286855,-40.04816 6.8186,0.4445 12.12314,9.6622 13.62922,22.10384 -1.88642,-7.03903 -4.73269,-14.32807 -9.58806,-14.96741 -6.692925,-0.88038 -15.462775,12.62118 -19.071725,31.24607 -3.35158,17.30301 -0.68887,34.53715 7.13843,35.55649 5.05685,0.65699 13.691385,-4.6263 18.053705,-14.6489"/><path style="fill:#d2d2d2;fill-opacity:1;fill-rule:nonzero;stroke:none;stroke-width:.271184" id="path1067" d="m 115.62879,971.65457 c 9.11164,-4.10863 18.35459,-8.87891 17.48086,-14.58441 -1.32654,-8.65349 -21.41164,-11.90238 -39.011845,-10.17088 -7.76315,0.76301 -35.544125,6.36045 -35.107365,18.06365 0.12728,3.40353 9.238615,7.89281 16.863805,10.09546 C 63.98502,973.73353 52.00198,967.83747 51.16185,960.7323 c -1.26728,-10.74771 17.554865,-21.78766 42.334845,-24.42347 24.593705,-2.61188 45.864035,3.7815 47.323235,14.50494 1.09814,8.06735 -9.40753,15.84545 -25.19114,20.8408"/><path style="fill:#ff837d;fill-opacity:1;fill-rule:nonzero;stroke:none;stroke-width:.271184" id="path1069" d="m 109.02897,969.12048 -23.861275,2.91944 -14.46851,-19.14956 9.39444,-22.06826 23.860875,-2.92174 14.4677,19.14953 -9.39323,22.07059"/><path style="fill:#fff;fill-opacity:.25;fill-rule:nonzero;stroke:none;stroke-width:.271184" id="path1071" d="m 109.02897,969.12048 -23.861275,2.91944 -14.46851,-19.14956 9.39444,-22.06826 23.860875,-2.92174 14.4677,19.14953 -9.39323,22.07059"/><g id="g1079" transform="matrix(0.03324686,0,0,-0.03324686,51.08601,1033.1108)"><g id="g1077" clip-path="url(#clipPath60-5)"><path style="fill:#fff;fill-opacity:1;fill-rule:nonzero;stroke:none" id="path1073" d="m 1806.43,1802.84 c -151.89,-485.84 -403,-800.74 -647.65,-770.73 -294.139,35.98 -493.526,639.96 -388.491,1349.57 105.262,710.93 417.061,1224.98 730.501,1204.49 205.09,-13.37 364.64,-290.62 409.94,-664.84 -56.74,211.72 -142.35,430.96 -288.39,450.19 C 1421.03,3398 1157.25,2991.9 1048.7,2431.7 947.891,1911.33 1027.98,1392.89 1263.41,1362.23 c 152.1,-19.76 411.81,139.15 543.02,440.61"/><path style="fill:#fff;fill-opacity:1;fill-rule:nonzero;stroke:none" id="path1075" d="m 1941.32,1848.48 c 274.06,123.58 552.07,267.06 525.79,438.67 -39.9,260.28 -644.02,358 -1173.4,305.92 C 1060.21,2570.12 224.613,2401.76 237.75,2049.82 241.578,1947.38 515.629,1812.35 744.98,1746.1 387.977,1785.95 27.5508,1963.29 2.28125,2177 -35.8359,2500.27 530.297,2832.33 1275.63,2911.61 c 739.73,78.56 1379.5,-113.74 1423.39,-436.28 33.03,-242.65 -282.96,-476.6 -757.7,-626.85"/></g></g></g><style id="style853" type="text/css"/><style id="style853-9" type="text/css"/><style id="style853-3" type="text/css"/></svg>