<svg xmlns="http://www.w3.org/2000/svg" xmlns:svg="http://www.w3.org/2000/svg" id="svg14" width="192" height="192" version="1.1" viewBox="0 0 192 192"><metadata id="metadata20"/><g id="g892"><rect id="rect2" width="153" height="153" x="19.5" y="19.5" rx="10" style="fill:#fff;fill-opacity:1;fill-rule:evenodd;stroke:none"/><g id="g885"><path style="fill:#f8c18c;fill-opacity:1;stroke-width:2.04772139" id="path2" d="m 61.680162,136.40247 c 0,0 -21.09153,-13.10542 -7.576569,-44.026008 12.695872,-28.668098 33.992173,-34.196946 42.183059,-28.463326 6.552708,4.709759 3.071582,19.043808 -6.347936,26.210833 -9.009974,6.962252 -37.678072,22.115391 -28.258554,46.278501 z"/><path style="fill:#71a372;fill-opacity:1;stroke-width:2.04772139" id="path4" d="m 140.31266,94.424183 c 0,0 -8.60043,29.896727 -39.93057,43.002147 -29.28241,12.08156 -38.292384,-2.45726 -34.196941,-14.94836 3.071581,-9.82907 17.405631,-18.63427 25.801288,-15.97223 7.986113,2.66204 27.234693,16.38177 48.326223,-12.081557 z"/><path style="fill:#728dbe;fill-opacity:1;stroke-width:2.04772139" id="path6" d="m 87.071906,57.360428 c 0,0 29.691954,-16.996087 47.302364,0.819088 16.58654,16.586543 4.30021,36.858984 -7.98612,43.411694 -9.82906,5.32407 -20.47721,-0.40955 -19.45335,-10.238608 1.02386,-9.419518 10.44338,-38.292389 -19.862894,-33.992174 z"/></g></g></svg>