<svg xmlns="http://www.w3.org/2000/svg" xmlns:svg="http://www.w3.org/2000/svg" id="svg2" width="192" height="192" version="1.1" viewBox="0 0 192 192"><defs id="defs4"><style id="style914" type="text/css">path{fill-opacity:1;fill-rule:nonzero;stroke:none}</style></defs><metadata id="metadata7"/><g id="layer1" transform="translate(0,-860.36216)"><rect id="rect951" width="152" height="152" x="20" y="880.362" rx="9.935" ry="9.935" style="fill:#56595b;fill-opacity:1;fill-rule:evenodd;stroke:none;stroke-width:.993464;stroke-opacity:1"/><path style="fill:#fff;fill-opacity:1;stroke-width:.0748707" id="path1117" d="m 91.229724,921.74717 c 0.01578,0 0.02995,0.0127 0.02995,0.0299 0,0.0157 -0.01425,0.0239 -0.0292,0.0299 -10.314942,3.60653 -13.591298,16.16462 -13.591298,16.16462 -0.0031,0.0171 0.0031,0.0367 0.01867,0.0472 0.02096,0.0151 0.04791,0.009 0.06438,-0.0112 18.671297,-24.45281 36.062304,-16.5412 36.062304,-16.5412 0.0314,0.008 0.0494,0.0382 0.0405,0.0704 -0.006,0.0277 -0.0292,0.0464 -0.0562,0.0442 -0.33242,-0.0314 -5.47454,-0.44398 -7.19059,4.30283 l 25.92178,28.94133 c 0,0.84305 -0.32419,1.59027 -0.84454,2.24688 -0.2688,-0.39383 -1.38211,-0.91568 -2.12185,-1.15302 -1.01525,-0.32793 -1.95787,-0.49041 -1.95787,-1.24584 0,-0.54807 0.47917,-0.69556 0.72925,-0.69556 0.22236,0 0.34665,0.10407 0.34665,0.10407 0.004,0.005 0.012,0.007 0.0158,0.002 0.006,-0.005 0.007,-0.0112 0.004,-0.0158 0,0 -0.1752,-0.38559 -0.69254,-0.39308 -0.50314,-0.0127 -1.305,0.34741 -1.35294,1.30126 -0.0352,0.78839 0.33842,1.21515 0.9112,1.61272 0.56602,0.39158 1.67636,0.89172 1.67636,1.71829 0,0.82284 -0.63191,1.02049 -0.77267,1.08638 -0.27554,0.13327 -2.62351,1.19194 -4.92276,1.62168 -0.1153,-0.40054 -0.12204,-1.73923 -2.48421,-4.10215 -4.56939,-4.56938 -20.87552,-0.74647 -20.87552,-11.98908 0,-5.18705 4.92575,-7.25573 7.74542,-7.10151 2.38912,0.13178 3.39538,0.86553 3.57358,0.98082 0.0142,0.01 0.0337,0.009 0.0494,-0.002 0.0247,-0.0151 0.033,-0.0457 0.0172,-0.0696 0,0 -1.78941,-3.93747 -6.87463,-3.93747 -5.627288,0 -13.530666,4.1179 -13.530666,13.10539 0,18.65558 26.138166,17.48386 26.138166,33.25081 0,6.15144 -3.61327,9.29457 -8.16168,10.91094 0,0 2.17499,-1.53857 2.17499,-4.46747 0,-13.33897 -30.898437,-10.47144 -30.898437,-25.12142 0,-5.70365 4.865115,-7.76785 6.112455,-7.76785 0.02845,0 0.05166,-0.0239 0.05166,-0.0517 0,-0.0179 -0.01058,-0.0352 -0.0247,-0.0434 -0.152001,-0.0921 -0.941125,-0.50688 -2.422078,-0.50688 -3.868574,0 -11.244115,3.4845 -11.244115,12.35071 0,10.56057 13.736563,17.20155 13.736563,22.30176 0,2.22073 -1.394086,3.72403 -1.394086,3.72403 -11.286037,-3.59897 -25.707882,-14.918 -25.707882,-35.09716 0,-24.40714 22.791654,-35.63477 31.729738,-35.63477"/></g><style id="style853" type="text/css"/><style id="style853-9" type="text/css"/><style id="style853-3" type="text/css"/></svg>