<svg xmlns="http://www.w3.org/2000/svg" xmlns:svg="http://www.w3.org/2000/svg" id="svg2" width="192" height="192" version="1.1" viewBox="0 0 192 192"><metadata id="metadata7"/><g id="layer1" transform="translate(0,-860.36216)"><circle style="fill:#575a5c;fill-opacity:1;fill-rule:evenodd;stroke:none;stroke-opacity:1" id="circle4190" cx="96" cy="956.362" r="88"/><g id="g964" transform="matrix(0.16047567,-0.17246215,0.16047567,0.17246215,108.08863,852.05523)" style="fill:#9bbfff;fill-opacity:1"><path style="color:#000;font-style:normal;font-variant:normal;font-weight:400;font-stretch:normal;font-size:medium;line-height:normal;font-family:sans-serif;font-variant-ligatures:normal;font-variant-position:normal;font-variant-caps:normal;font-variant-numeric:normal;font-variant-alternates:normal;font-variant-east-asian:normal;font-feature-settings:normal;font-variation-settings:normal;text-indent:0;text-align:start;text-decoration:none;text-decoration-line:none;text-decoration-style:solid;text-decoration-color:#000;letter-spacing:normal;word-spacing:normal;text-transform:none;writing-mode:lr-tb;direction:ltr;text-orientation:mixed;dominant-baseline:auto;baseline-shift:baseline;text-anchor:start;white-space:normal;shape-padding:0;shape-margin:0;inline-size:0;clip-rule:nonzero;display:inline;overflow:visible;visibility:visible;isolation:auto;mix-blend-mode:normal;color-interpolation:sRGB;color-interpolation-filters:linearRGB;solid-color:#000;solid-opacity:1;vector-effect:none;fill:#9bbfff;fill-opacity:1;fill-rule:nonzero;stroke:none;stroke-width:23.5468;stroke-linecap:round;stroke-linejoin:round;stroke-miterlimit:4;stroke-dasharray:none;stroke-dashoffset:0;stroke-opacity:1;paint-order:stroke fill markers;color-rendering:auto;image-rendering:auto;shape-rendering:auto;text-rendering:auto;enable-background:accumulate;stop-color:#000;stop-opacity:1" id="path960" d="m -302.76562,95.453125 c -3.06304,0.04459 -5.98812,1.281184 -8.1543,3.447266 L -505.89736,293.87999 c -6.40685,6.40893 -3.47657,17.34888 5.27627,19.69618 l 266.34765,71.36719 c 8.75329,2.34392 16.76266,-5.66437 14.41992,-14.41797 l -71.36914,-266.34766 c -1.39613,-5.208121 -6.15152,-8.802422 -11.54296,-8.724605 z"/><path style="color:#000;font-style:normal;font-variant:normal;font-weight:400;font-stretch:normal;font-size:medium;line-height:normal;font-family:sans-serif;font-variant-ligatures:normal;font-variant-position:normal;font-variant-caps:normal;font-variant-numeric:normal;font-variant-alternates:normal;font-variant-east-asian:normal;font-feature-settings:normal;font-variation-settings:normal;text-indent:0;text-align:start;text-decoration:none;text-decoration-line:none;text-decoration-style:solid;text-decoration-color:#000;letter-spacing:normal;word-spacing:normal;text-transform:none;writing-mode:lr-tb;direction:ltr;text-orientation:mixed;dominant-baseline:auto;baseline-shift:baseline;text-anchor:start;white-space:normal;shape-padding:0;shape-margin:0;inline-size:0;clip-rule:nonzero;display:inline;overflow:visible;visibility:visible;isolation:auto;mix-blend-mode:normal;color-interpolation:sRGB;color-interpolation-filters:linearRGB;solid-color:#000;solid-opacity:1;vector-effect:none;fill:#9bbfff;fill-opacity:1;fill-rule:nonzero;stroke:none;stroke-width:23.5468;stroke-linecap:round;stroke-linejoin:round;stroke-miterlimit:4;stroke-dasharray:none;stroke-dashoffset:0;stroke-opacity:1;paint-order:stroke fill markers;color-rendering:auto;image-rendering:auto;shape-rendering:auto;text-rendering:auto;enable-background:accumulate;stop-color:#000;stop-opacity:1" id="path962" d="m -231.22641,373.57193 -266.3474,-71.36757 194.97983,-194.97983 z"/></g><path id="path956" d="m 66.17496,948.94175 v 24.47589 a 1,1 45 0 0 1,1 H 74.065 v -21.06538 c 1.93911,-0.42603 3.865503,-0.53159 5.517212,0 1.637468,0.527 2.323788,1.85659 2.323788,5.51986 v 14.52563 a 1.0031357,1.0031357 45.089691 0 0 0.999995,1.00313 l 6.04901,0.0189 a 0.98860439,0.98860439 134.85106 0 0 0.991665,-0.99684 L 89.828,959.17715 c -0.02269,-2.73391 0.01097,-3.86218 -0.361977,-5.4636 -0.546779,-2.34783 -2.257071,-4.40662 -4.159401,-5.64943 -2.119476,-1.38467 -4.385339,-1.62536 -6.518558,-1.6751 -4.234236,-0.0987 -8.129365,0.38147 -11.648198,1.29013 -0.534729,0.13809 -0.964905,0.26254 -0.964906,0.2626 z" style="fill:#fefefe;fill-opacity:1;stroke:none;stroke-width:.286179px;stroke-linecap:butt;stroke-linejoin:miter;stroke-opacity:1"/><path style="fill:#fff;fill-opacity:1;stroke:none;stroke-width:.286179px;stroke-linecap:butt;stroke-linejoin:miter;stroke-opacity:1" id="path958" d="m 102.41934,935.35368 -16.448549,0.0595 a 1.0036229,1.0036229 134.8964 0 0 -0.999993,1.00362 v 7.02638 a 1,1 45 0 0 1,1 l 18.611092,0 c -8.183871,14.43101 -12.067873,27.50805 -13.027855,39.66486 l 10.649555,-6.60782 c 2.68738,-11.47312 6.33668,-23.24052 14.06749,-33.55226 z"/></g></svg>