<svg xmlns="http://www.w3.org/2000/svg" xmlns:svg="http://www.w3.org/2000/svg" id="svg2" width="192" height="192" version="1.1" viewBox="0 0 192 192"><metadata id="metadata7"/><g id="layer1" transform="translate(0,-860.36216)"><path style="opacity:1;fill:#ff837d;fill-opacity:1;stroke:#fff;stroke-width:1.18125;stroke-linecap:round;stroke-linejoin:round;stroke-opacity:.04;stop-color:#000" id="path961" d="m 118.06347,869.86265 -27.522531,33.65084 a 3.293273,3.293273 0 0 1 -3.972539,0.88484 l -39.20252,-18.7883 a 2.538269,2.538269 0 0 0 -3.578423,2.82323 l 9.149031,42.49372 a 3.2935381,3.2935381 0 0 1 -1.784882,3.65777 l -39.127181,18.93803 a 2.5386541,2.5386541 0 0 0 -0.02366,4.55853 l 38.924844,19.34126 a 3.2932694,3.2932694 0 0 1 1.746623,3.67606 l -9.592924,42.39577 a 2.5385875,2.5385875 0 0 0 3.548919,2.8609 l 39.398516,-18.3733 a 3.2935382,3.2935382 0 0 1 3.963143,0.9266 l 27.164514,33.9326 a 2.5385948,2.5385948 0 0 0 4.4495,-0.9909 l 10.19813,-42.2512 a 3.2938747,3.2938747 0 0 1 3.19544,-2.5211 l 43.46807,-0.0856 a 2.5386915,2.5386915 0 0 0 1.99926,-4.09685 l -26.68059,-34.31907 a 3.2934063,3.2934063 0 0 1 0.0213,-4.0699 l 27.0379,-34.03677 a 2.5380112,2.5380112 0 0 0 -1.95626,-4.11648 l -8.18935,-0.10021 -46.71403,48.27667 c 0,0 -2.11525,1.53871 -3.22072,0.57748 -0.8836,-0.76849 0.80179,-2.66345 0.80179,-2.66345 l 36.84802,-46.34724 -15.51244,-0.19134 -47.053795,48.62314 c 0,0 -2.108503,1.53874 -3.213933,0.57752 -0.883644,-0.76852 0.795005,-2.66347 0.795005,-2.66347 l 38.886463,-48.90178 -9.81269,-42.64039 a 2.538046,2.538046 0 0 0 -4.43802,-1.03764 z"/></g><style id="style853" type="text/css"/><style id="style907" type="text/css"/></svg>