<svg xmlns="http://www.w3.org/2000/svg" xmlns:xlink="http://www.w3.org/1999/xlink" width="100%" height="100%" version="1.1" viewBox="0 0 192 192" xml:space="preserve" style="fill-rule:evenodd;clip-rule:evenodd;stroke-linejoin:round;stroke-miterlimit:2"><g id="Layer1"><g><path d="M164.5,21.5C164.5,15.981 160.019,11.5 154.5,11.5L21.5,11.5C15.981,11.5 11.5,15.981 11.5,21.5L11.5,154.5C11.5,160.019 15.981,164.5 21.5,164.5L154.5,164.5C160.019,164.5 164.5,160.019 164.5,154.5L164.5,21.5Z" transform="matrix(1,0,0,1,8,8)" style="fill:#98dc9a"/></g><g><path d="M107.913,62.876L129.587,62.876L129.587,129.16L108.937,129.16L84.107,93.902L84.107,129.16L62.463,129.16L62.463,62.876L83.113,62.876L107.913,98.092L107.913,62.876Z" transform="matrix(0.718802,0,0,0.718802,27.002,27.0001)" style="fill:#fff"/></g></g></svg>