<svg xmlns="http://www.w3.org/2000/svg" xmlns:svg="http://www.w3.org/2000/svg" id="svg12584" width="192" height="192" version="1.1" viewBox="0 0 192 192"><metadata id="metadata12590"/><circle style="fill:#fff;fill-rule:evenodd;stroke:none;fill-opacity:1" id="circle12574" cx="96" cy="96" r="88"/><path id="path13189" d="m 129.99105,151.62647 c 0,-0.20544 -0.30207,-0.37353 -0.67125,-0.37353 -0.36919,0 -1.27897,-0.63033 -2.02174,-1.40073 -1.27297,-1.32035 -2.25067,-2.59049 -7.4951,-9.73701 -5.95621,-8.11646 -14.6651,-14.24364 -24.736915,-17.40376 -5.16458,-1.62043 -6.20425,-1.71369 -19.36032,-1.73664 -7.01976,-0.0123 -13.60365,-0.17954 -14.63086,-0.37177 -1.0272,-0.19223 -2.87617,-0.5148 -4.10882,-0.71684 -3.218658,-0.52754 -9.27231,-2.76269 -12.211213,-4.50866 -8.375675,-4.9759 -12.265059,-12.08767 -12.247775,-22.39517 0.01714,-10.22384 3.381361,-18.56442 11.069618,-27.443822 13.67231,-15.790568 36.90521,-23.764611 61.016665,-20.94226 27.91194,3.267214 51.03139,24.096492 54.53529,49.133142 0.73491,5.25118 0.11162,17.213 -1.11913,21.47794 -2.0376,7.06085 -6.05566,16.41776 -8.56113,19.93636 -0.42947,0.60313 -0.78085,1.19346 -0.78085,1.31184 0,0.24765 -2.00342,3.29201 -3.9608,6.01879 -2.20314,3.06913 -5.37757,6.51331 -7.43459,8.06638 -1.82886,1.38081 -2.07659,1.45927 -4.60694,1.45927 -1.53374,0 -2.67414,-0.15929 -2.67414,-0.37353 z M 52.67254,94.56986 c 6e-6,0 1.7e-5,0 1.7e-5,0 z" style="fill:#bd9aff;fill-opacity:1;stroke-width:.3735294"/><ellipse style="opacity:1;fill:none;fill-opacity:1;fill-rule:evenodd;stroke:#000;stroke-width:7.55905533;stroke-miterlimit:4;stroke-dasharray:none;stroke-dashoffset:0;stroke-opacity:0" id="path13161" cx="29.77" cy="35.669" rx="68.17" ry="49.042"/></svg>