<svg xmlns="http://www.w3.org/2000/svg" xmlns:svg="http://www.w3.org/2000/svg" id="svg2" width="192" height="192" version="1.1" viewBox="0 0 192 192"><metadata id="metadata7"/><g id="layer1" transform="translate(0,-860.36216)"><g style="stroke-width:.477291" id="g962" transform="matrix(2.095158,0,0,2.095158,-105.13522,-1047.3677)"><path style="fill:#73ada4;fill-opacity:1;stroke-width:5.72745;stroke-linejoin:round;stop-color:#000" id="path940" d="m 88.577866,921.74373 -24.948631,69.23686 a 1.4052067,1.4052067 54.907995 0 0 1.321999,1.88157 h 29.849702 a 2.8465568,2.8465568 144.908 0 0 2.678001,-1.88157 l 24.948643,-69.23686 a 1.4052065,1.4052065 54.907999 0 0 -1.322,-1.88157 H 91.255867 a 2.8465564,2.8465564 144.908 0 0 -2.678001,1.88157 z"/><path style="fill:#b1b5bd;fill-opacity:1;stroke-width:5.72745;stroke-linejoin:round;stop-color:#000" id="path942" d="m 91.823141,940.26514 11.287389,31.32391 a 2.8465742,2.8465742 0 0 0 2.67801,1.88157 h 21.26023 a 1.4052476,1.4052476 0 0 0 1.32205,-1.88159 l -11.28619,-31.32387 a 2.8464734,2.8464734 0 0 0 -2.67795,-1.88159 H 93.145129 a 1.4051979,1.4051979 0 0 0 -1.321988,1.88157 z"/><path style="fill:#96dfd3;fill-opacity:1;stroke-width:5.72745;stroke-linejoin:round;stop-color:#000" id="path1010" d="m 104.01367,972.84849 12.1875,-33.82813 a 2.8464734,2.8464734 0 0 0 -1.79492,-0.63672 H 93.144531 a 1.4051979,1.4051979 0 0 0 -1.322265,1.88086 l 11.289064,31.32422 a 2.8465742,2.8465742 0 0 0 0.90234,1.25977 z"/></g></g><style id="style853" type="text/css"/></svg>