<svg xmlns="http://www.w3.org/2000/svg" xmlns:svg="http://www.w3.org/2000/svg" id="svg6214" width="192" height="192" version="1.1" viewBox="0 0 192 192"><metadata id="metadata6219"/><g id="layer1" transform="translate(0,-860.36222)" style="opacity:1"><g id="g5382" transform="matrix(0.44929295,0,0,0.44929295,-69.157018,533.06675)"><path style="opacity:1;fill:#f7c18c;fill-opacity:1;fill-rule:evenodd;stroke:#96ded3;stroke-width:16.172;stroke-linecap:butt;stroke-linejoin:round;stroke-miterlimit:4;stroke-dasharray:none;stroke-opacity:1" id="path5376" d="m 367.59315,754.35956 -140.22657,48.38867 v 93.13281 c 0,32.0027 0.1439,104.52836 28.95706,150.47466 10.5487,16.8212 32.1804,36.0256 50.3222,48.3711 22.7682,15.4939 43.71161,26.7369 60.94731,35.1875 17.2358,-8.4506 38.1791,-19.6936 60.9473,-35.1875 18.1418,-12.3455 39.7735,-31.5499 50.3222,-48.3711 28.8132,-45.9463 28.9571,-118.47196 28.9571,-150.47466 v -93.13281 z"/><path style="opacity:1;fill:#96ded3;fill-opacity:1;stroke:none;stroke-width:21.0612;stroke-linecap:butt;stroke-linejoin:round;stroke-miterlimit:4;stroke-dasharray:none;stroke-opacity:1" id="path5378" d="m 263.26791,817.29327 101.56253,-35.68324 c 5.45132,-1.46068 10.56809,0.002 10.56809,8.99574 v 37.37038 l 4.6e-4,112.07302 c 2e-5,5.60668 -4.15123,10.12037 -9.3077,10.12037 H 263.01791 c -5.15646,0 -9.30769,-4.51369 -9.30769,-10.12037 V 827.97615 c 0,-7.73169 3.28609,-8.4794 9.55769,-10.68288 z"/><path id="path5380" d="m 371.38584,1100.4798 c -4.81314,2.7306 -11.60914,0.047 -11.60914,-6.8851 v -37.3704 l -4.6e-4,-112.07302 c -2e-5,-5.60668 4.15123,-10.12037 9.3077,-10.12037 h 103.07338 c 6.08454,0 9.04252,2.43656 9.04252,10.12037 0,101.50622 -58.41346,127.16762 -109.814,156.32852 z" style="opacity:1;fill:#96ded3;fill-opacity:1;stroke:none;stroke-width:21.0612;stroke-linecap:butt;stroke-linejoin:round;stroke-miterlimit:4;stroke-dasharray:none;stroke-opacity:1"/></g></g></svg>