<svg xmlns="http://www.w3.org/2000/svg" xmlns:svg="http://www.w3.org/2000/svg" id="Слой_1" x="0" y="0" enable-background="new 0 0 192 192" version="1.1" viewBox="0 0 192 192" xml:space="preserve"><metadata id="metadata13"/><defs id="defs11"><rect id="rect1073" width="170.091" height="57.607" x="103.712" y="266.523"/></defs><style id="style824" type="text/css">.st0{fill:#cd201f}.st1{fill:#fff}</style><style id="style824-3" type="text/css">.st0{fill:#cd201f}.st1{fill:#fff}</style><style id="style900" type="text/css">.st0{fill:#cd201f}.st1{fill:#fff}</style><g id="g1063" transform="translate(-325.91425,258.60306)"><g style="fill:#ff8183;fill-opacity:1" id="g1037" transform="matrix(1.76,0,0,1.76,333.91425,-250.60306)"><circle id="circle1035" cx="50" cy="50" r="50" class="st0" style="fill:#ff8183;fill-opacity:1"/></g><g id="g1051" transform="matrix(1.2319818,0,0,1.2319818,-332.1031,214.50482)"><path id="path1039" d="m 592.40052,-333.91971 v 55.7 c 0,1.65685 1.15577,2.31571 2.58159,1.47178 7.42579,-4.39523 29.44097,-17.42167 47.13371,-27.84888 1.4274,-0.84123 1.42734,-2.20448 -3.4e-4,-3.04526 l -47.12992,-27.75528 a 1.7148406,1.7148406 150.24713 0 0 -2.58504,1.47764 z" class="st1"/><path id="path1041" d="m 602.10052,-317.11971 v 22 c 0,1.65685 1.15689,2.31761 2.58422,1.47624 3.97035,-2.34039 11.82574,-6.96816 18.6278,-10.95891 1.42906,-0.83842 1.43028,-2.19833 0.002,-3.03839 l -18.6284,-10.95788 a 1.7158382,1.7158382 150.23277 0 0 -2.5858,1.47894 z" class="st0" style="fill:#ff8183;fill-opacity:1"/><rect id="rect1043" width="6.2" height="21" x="602.101" y="-300.52" class="st0" style="fill:#ff8183;fill-opacity:1"/><path id="path1045" d="m 592.40052,-333.91971 v 55.7 c 0,1.65685 1.15577,2.31571 2.58159,1.47178 7.42579,-4.39523 29.44097,-17.42167 47.13371,-27.84888 1.4274,-0.84123 1.42734,-2.20448 -3.4e-4,-3.04526 l -47.12992,-27.75528 a 1.7148406,1.7148406 150.24713 0 0 -2.58504,1.47764 z" class="st1" style="fill:#000;fill-opacity:0"/><path id="path1047" d="m 602.10052,-317.11971 v 22 c 0,1.65685 1.15689,2.31761 2.58422,1.47624 3.97035,-2.34039 11.82574,-6.96816 18.6278,-10.95891 1.42906,-0.83842 1.43028,-2.19833 0.002,-3.03839 l -18.6284,-10.95788 a 1.7158382,1.7158382 150.23277 0 0 -2.5858,1.47894 z" class="st0" style="fill:#000;fill-opacity:0"/><rect id="rect1049" width="6.2" height="21" x="602.101" y="-300.52" class="st0" style="fill:#000;fill-opacity:0"/></g><g id="g1061" transform="translate(325.91391,30.985375)"><path id="path1053" d="m 64.334558,-275.69322 a 88,88 0 0 0 -56.334213,82.10381 88,88 0 0 0 56.334213,82.10576 z" style="fill:#fff;fill-opacity:1;stroke-width:1.76"/><text id="text1059" transform="matrix(0,-0.78937221,0.78937221,0,-176.47926,-46.638255)" xml:space="preserve" style="font-style:normal;font-variant:normal;font-weight:700;font-stretch:normal;font-size:40px;line-height:1.25;font-family:now;-inkscape-font-specification:'now Bold';letter-spacing:0;word-spacing:0;white-space:pre;shape-inside:url(#rect1073);fill:#ff8183;fill-opacity:1"><tspan x="103.711" y="301.145"><tspan style="font-style:normal;font-variant:normal;font-weight:700;font-stretch:normal;font-family:now;-inkscape-font-specification:'now Bold';fill:#ff8183;fill-opacity:1">LEGACY</tspan></tspan></text></g></g></svg>