<svg xmlns="http://www.w3.org/2000/svg" xmlns:svg="http://www.w3.org/2000/svg" id="Слой_1" x="0" y="0" enable-background="new 0 0 192 192" version="1.1" viewBox="0 0 192 192" xml:space="preserve"><g style="fill:#ff8183;fill-opacity:1" id="g1099" transform="matrix(1.76,0,0,1.76,8,8)"><circle id="circle1097" cx="50" cy="50" r="50" class="st0" style="fill:#ff8183;fill-opacity:1"/></g><path id="path953" d="m 71.809309,61.028929 v 70.013281 c 0,1.65685 1.155764,2.31571 2.581568,1.47176 8.581006,-5.07921 36.873693,-21.82127 59.266353,-35.017151 1.42743,-0.841178 1.42737,-2.204432 -3.1e-4,-3.045206 L 74.394349,59.551285 a 1.7148406,1.7148406 150.24713 0 0 -2.58504,1.477644 z" class="st1" style="stroke-width:1.23198;fill:#fefeff;fill-opacity:1"/><path id="path955" d="m 83.759532,81.726223 v 28.495487 c 0,1.65685 1.156884,2.3176 2.584183,1.47618 4.769871,-2.81195 15.280555,-9.00491 24.148925,-14.206735 1.42914,-0.838274 1.43036,-2.198188 0.002,-3.038246 L 86.345335,80.247283 a 1.7158382,1.7158382 150.23277 0 0 -2.585803,1.47894 z" class="st0" style="fill:#ff8183;fill-opacity:1;stroke-width:1.23198"/><rect id="rect957" width="7.638" height="25.872" x="83.76" y="102.873" class="st0" style="fill:#ff8183;fill-opacity:1;stroke-width:1.23198"/><path id="path959" d="m 71.809309,61.028929 v 70.013281 c 0,1.65685 1.155764,2.31571 2.581568,1.47176 8.581006,-5.07921 36.873693,-21.82127 59.266353,-35.017151 1.42743,-0.841178 1.42737,-2.204432 -3.1e-4,-3.045206 L 74.394349,59.551285 a 1.7148406,1.7148406 150.24713 0 0 -2.58504,1.477644 z" class="st1" style="fill:#000;fill-opacity:0;stroke-width:1.23198"/><path id="path961" d="m 83.759532,81.726223 v 28.495487 c 0,1.65685 1.156884,2.3176 2.584183,1.47618 4.769871,-2.81195 15.280555,-9.00491 24.148925,-14.206735 1.42914,-0.838274 1.43036,-2.198188 0.002,-3.038246 L 86.345335,80.247283 a 1.7158382,1.7158382 150.23277 0 0 -2.585803,1.47894 z" class="st0" style="fill:#000;fill-opacity:0;stroke-width:1.23198"/><rect id="rect963" width="7.638" height="25.872" x="83.76" y="102.873" class="st0" style="fill:#000;fill-opacity:0;stroke-width:1.23198"/><metadata id="metadata13"/><style id="style824" type="text/css">.st0{fill:#cd201f}.st1{fill:#fff}</style></svg>