<svg xmlns="http://www.w3.org/2000/svg" xmlns:svg="http://www.w3.org/2000/svg" id="svg2" width="192" height="192" version="1.1" viewBox="0 0 192 192"><metadata id="metadata7"/><g id="layer1" transform="translate(0,-860.36216)"><rect id="rect3626" width="152" height="152" x="20" y="880.362" rx="9.935" ry="9.935" style="fill:#566a8d;fill-opacity:1;fill-rule:evenodd;stroke:none;stroke-width:.993464;stroke-opacity:1"/><path style="color:#000;font-style:normal;font-variant:normal;font-weight:400;font-stretch:normal;font-size:medium;line-height:normal;font-family:sans-serif;font-variant-ligatures:normal;font-variant-position:normal;font-variant-caps:normal;font-variant-numeric:normal;font-variant-alternates:normal;font-variant-east-asian:normal;font-feature-settings:normal;font-variation-settings:normal;text-indent:0;text-align:start;text-decoration:none;text-decoration-line:none;text-decoration-style:solid;text-decoration-color:#000;letter-spacing:normal;word-spacing:normal;text-transform:none;writing-mode:lr-tb;direction:ltr;text-orientation:mixed;dominant-baseline:auto;baseline-shift:baseline;text-anchor:start;white-space:normal;shape-padding:0;shape-margin:0;inline-size:0;clip-rule:nonzero;display:inline;overflow:visible;visibility:visible;isolation:auto;mix-blend-mode:normal;color-interpolation:sRGB;color-interpolation-filters:linearRGB;solid-color:#000;solid-opacity:1;vector-effect:none;fill:#97dfd4;fill-opacity:1;fill-rule:nonzero;stroke:none;stroke-width:7.319;stroke-linecap:butt;stroke-linejoin:miter;stroke-miterlimit:4;stroke-dasharray:none;stroke-dashoffset:7.55603;stroke-opacity:1;paint-order:stroke markers fill;color-rendering:auto;image-rendering:auto;shape-rendering:auto;text-rendering:auto;enable-background:accumulate;stop-color:#000" id="path3628" d="m 117.86266,921.87528 v 3.29236 a 2.0131579,2.0131579 0 0 0 2.01316,2.01315 h 3.29231 a 2.0131607,2.0131607 0 0 1 2.01316,2.01316 l 8e-5,54.33639 a 2.0131607,2.0131607 0 0 1 -2.01316,2.01317 l -32.226352,8e-5 A 2.0131522,2.0131522 0 0 1 88.9287,983.53044 v -39.89896 a 2.0131579,2.0131579 0 0 0 -2.013158,-2.01315 h -3.292314 a 2.0131579,2.0131579 0 0 0 -2.013158,2.01315 v 47.21758 a 2.0131538,2.0131538 0 0 0 2.013158,2.01315 l 46.863622,-10e-5 A 2.0131619,2.0131619 0 0 0 132.5,990.84896 v -68.97368 a 2.0131579,2.0131579 0 0 0 -2.01315,-2.01316 h -10.61103 a 2.0131579,2.0131579 0 0 0 -2.01316,2.01316 z m -45.738517,63.6683 -3.292315,-4e-5 a 2.0131855,2.0131855 0 0 1 -2.013158,-2.01319 v -54.3364 a 2.0131601,2.0131601 0 0 1 2.013158,-2.01316 l 32.467792,-4e-5 a 2.0131556,2.0131556 0 0 1 2.01316,2.01316 v 39.89894 a 2.0332201,2.0332201 0 0 0 2.01305,2.03312 l 3.29251,0.0326 a 1.9932935,1.9932935 0 0 0 2.01306,-1.9932 v -47.2901 a 2.0131579,2.0131579 0 0 0 -2.01316,-2.01316 H 61.513158 c -1.111836,0 -2.013157,0.90132 -2.013157,2.01316 1e-5,22.99125 2.8e-5,45.98249 3.8e-5,68.97374 0,1.11183 0.901323,2.01315 2.013159,2.01315 h 10.610945 a 2.0131579,2.0131579 0 0 0 2.013157,-2.01315 v -3.29229 a 2.0131855,2.0131855 0 0 0 -2.013157,-2.01319 z"/></g><style id="style853" type="text/css"/></svg>