<svg xmlns="http://www.w3.org/2000/svg" xmlns:svg="http://www.w3.org/2000/svg" id="svg2" width="192" height="192" version="1.1" viewBox="0 0 192 192"><metadata id="metadata7"/><circle style="fill:#fefefe;fill-opacity:1;fill-rule:evenodd;stroke:none;stroke-opacity:1" id="circle844" cx="96" cy="96" r="88"/><g id="g872" transform="matrix(0.6960026,0,0,0.6960026,29.18375,-569.63056)" style="stroke-width:1.43677"><path id="path909" d="m 127.95205,960.13457 c 0,12.94229 3.69779,24.979 10.07461,35.20454 1.05651,1.66024 -0.71692,3.66007 -2.49036,2.82995 -9.92368,-4.60338 -18.52672,-11.58392 -25.05446,-20.18696 -0.30186,-0.41506 -0.45279,-0.90558 -0.37733,-1.39611 0.33959,-2.79221 0.49052,-5.62216 0.49052,-8.48984 0,-15.01759 -4.49018,-28.97866 -12.225368,-40.63804 -0.264129,-0.41506 -0.377327,-0.94332 -0.301861,-1.43384 2.226229,-12.37631 7.923849,-23.5829 15.998639,-32.56327 0.49052,-0.52825 1.20744,-0.75465 1.92436,-0.56598 12.03671,2.98087 22.75278,9.28222 31.16715,17.8098 0.75466,0.75465 0.75466,1.99983 0,2.75448 -11.88577,11.99898 -19.2059,28.48814 -19.2059,46.67527 z" class="st1" style="fill:#52678b;fill-opacity:1;stroke-width:.541664;stroke-miterlimit:4;stroke-dasharray:none"/><path id="path907" d="m 103.42583,968.05842 c 0,20.71521 -9.470886,39.20418 -24.337543,51.39188 -0.528257,0.415 -1.245177,0.566 -1.886632,0.3396 -13.395084,-4.8676 -24.790339,-13.8857 -32.600994,-25.54504 -0.565989,-0.86785 -0.377326,-2.03756 0.452792,-2.64128 15.960903,-12.11217 26.299644,-31.31808 26.299644,-52.93888 0,-9.43316 -1.962097,-18.37579 -5.508964,-26.48831 -0.754653,-1.69797 1.094246,-3.39594 2.754482,-2.49035 12.376303,6.7164 22.375451,17.20608 28.450405,29.95971 3.84873,8.15024 6.11269,17.16834 6.37681,26.7147 0,0.52826 0,1.13198 0,1.69797 z" class="st0" style="fill:#99bdfe;fill-opacity:1;stroke-width:.542133"/></g><style id="style853" type="text/css">.st0{fill:#fff}</style><style id="style905" type="text/css">.st0{fill:#8fe3ff}.st1{fill:#109dff}</style></svg>