<svg xmlns="http://www.w3.org/2000/svg" xmlns:svg="http://www.w3.org/2000/svg" id="svg2" width="192" height="192" version="1.1" viewBox="0 0 192 192"><metadata id="metadata7"/><g id="layer1" transform="translate(0,-860.36216)"><circle id="circle1450-2" cx="96" cy="956.362" r="88" style="fill:#f9de81;fill-opacity:1;stroke-width:13.6714;stroke-linecap:round;stroke-linejoin:round;stroke-miterlimit:4;stroke-dasharray:none;stop-color:#000"/><path id="path1452-7" d="m 58.629,989.18945 c 0,0 13.1365,18.65345 37.4094,18.65345 24.2729,0 37.4094,-18.65345 37.4094,-18.65345" style="fill:none;stroke:#fff;stroke-width:12.9188;stroke-linecap:round;stroke-linejoin:round;stroke-miterlimit:4;stroke-dasharray:none;stroke-opacity:1"/><path style="font-weight:700;font-size:51.2699px;line-height:1.25;font-family:Now;-inkscape-font-specification:'Now Bold';letter-spacing:0;word-spacing:0;fill:#fff;fill-opacity:1;stroke-width:1.65588" id="path1454-0" d="m 120.318,908.43475 c -1.6065,0 -2.8992,1.29268 -2.8992,2.89916 v 4.40045 h -3.8151 a 2.5837536,2.5837536 0 0 0 -2.5837,2.58376 v 44.5092 a 2.5837536,2.5837536 0 0 0 2.5837,2.58375 h 3.8151 v 4.83192 c 0,1.60647 1.2927,2.90167 2.8992,2.90167 1.6065,0 2.8992,-1.2952 2.8992,-2.90167 v -4.83192 h 6.2954 v 4.83192 c 0,1.60647 1.2926,2.90167 2.8991,2.90167 1.6065,0 2.9017,-1.2952 2.9017,-2.90167 v -4.88239 c 7.6143,-0.50173 13.3779,-5.23868 13.3779,-13.52686 0,-4.97491 -2.133,-8.3791 -5.4728,-10.4435 -1.2122,-0.74927 -1.2589,-1.66964 -0.1665,-2.58376 2.4776,-2.07325 3.9841,-5.11376 3.9841,-9.24499 0,-7.59572 -4.9661,-12.39439 -11.7227,-13.54958 v -4.678 c 0,-1.60648 -1.2952,-2.89916 -2.9017,-2.89916 -1.6065,0 -2.8991,1.29268 -2.8991,2.89916 v 4.40045 h -6.2954 v -4.40045 c 0,-1.60648 -1.2927,-2.89916 -2.8992,-2.89916 z m 2.9219,16.98617 h 7.4838 c 2.9805,0 5.382,2.31816 5.382,5.29871 0,2.89776 -2.4015,5.38199 -5.382,5.38199 h -7.4838 a 1.2918768,1.2918768 0 0 1 -1.2919,-1.29188 v -8.09694 a 1.2918768,1.2918768 0 0 1 1.2919,-1.29188 z m 0,19.6229 h 9.1415 c 3.0634,0 5.382,2.48423 5.382,5.38198 0,2.98056 -2.3186,5.29871 -5.382,5.29871 h -9.1415 a 1.2918768,1.2918768 0 0 1 -1.2919,-1.29187 v -8.09694 a 1.2918768,1.2918768 0 0 1 1.2919,-1.29188 z"/><path style="font-weight:700;font-size:51.2699px;line-height:1.25;font-family:Now;-inkscape-font-specification:'Now Bold';letter-spacing:0;word-spacing:0;fill:#fff;fill-opacity:1;stroke-width:1.65588" id="path1456-9" d="m 71.6821,908.43475 c 1.6065,0 2.8991,1.29268 2.8991,2.89916 v 4.40045 h 3.8151 a 2.5837536,2.5837536 0 0 1 2.5838,2.58376 v 44.5092 a 2.5837536,2.5837536 0 0 1 -2.5838,2.58375 h -3.8151 v 4.83192 c 0,1.60647 -1.2926,2.90167 -2.8991,2.90167 -1.6065,0 -2.8992,-1.2952 -2.8992,-2.90167 v -4.83192 h -6.2953 v 4.83192 c 0,1.60647 -1.2927,2.90167 -2.8992,2.90167 -1.6065,0 -2.9017,-1.2952 -2.9017,-2.90167 v -4.88239 c -7.6143,-0.50173 -13.378,-5.23868 -13.378,-13.52686 0,-4.97491 2.133,-8.3791 5.4729,-10.4435 1.2121,-0.74927 1.2589,-1.66964 0.1665,-2.58376 -2.4776,-2.07325 -3.9841,-5.11376 -3.9841,-9.24499 0,-7.59572 4.9661,-12.39439 11.7227,-13.54958 v -4.678 c 0,-1.60648 1.2952,-2.89916 2.9017,-2.89916 1.6065,0 2.8992,1.29268 2.8992,2.89916 v 4.40045 h 6.2953 v -4.40045 c 0,-1.60648 1.2927,-2.89916 2.8992,-2.89916 z m -2.9219,16.98617 h -7.4838 c -2.9805,0 -5.382,2.31816 -5.382,5.29871 0,2.89776 2.4015,5.38199 5.382,5.38199 h 7.4838 a 1.2918768,1.2918768 0 0 0 1.2919,-1.29188 v -8.09694 a 1.2918768,1.2918768 0 0 0 -1.2919,-1.29188 z m 0,19.6229 h -9.1415 c -3.0634,0 -5.382,2.48423 -5.382,5.38198 0,2.98056 2.3186,5.29871 5.382,5.29871 h 9.1415 a 1.2918768,1.2918768 0 0 0 1.2919,-1.29187 v -8.09694 a 1.2918768,1.2918768 0 0 0 -1.2919,-1.29188 z"/><rect id="rect1458-3" width="10.928" height="41.875" x="70.052" y="930.402" style="fill:#545859;fill-opacity:1;stroke:none;stroke-width:19.8842;stroke-linecap:round;stroke-linejoin:round;stroke-miterlimit:4;stroke-dasharray:none;stroke-opacity:1;stop-color:#000"/><circle id="circle1460-6" cx="96" cy="956.362" r="88" style="fill:#f9de81;fill-opacity:1;stroke-width:13.6714;stroke-linecap:round;stroke-linejoin:round;stroke-miterlimit:4;stroke-dasharray:none;stop-color:#000"/><path id="path1462-0" d="m 58.629,989.18945 c 0,0 13.1365,18.65345 37.4094,18.65345 24.2729,0 37.4094,-18.65345 37.4094,-18.65345" style="fill:none;stroke:#fff;stroke-width:10.928;stroke-linecap:round;stroke-linejoin:round;stroke-miterlimit:4;stroke-dasharray:none;stroke-opacity:1"/><path style="font-weight:700;font-size:51.2699px;line-height:1.25;font-family:Now;-inkscape-font-specification:'Now Bold';letter-spacing:0;word-spacing:0;fill:#fff;fill-opacity:1;stroke-width:1.65588" id="path1464-6" d="m 120.318,908.43475 c -1.6065,0 -2.8992,1.29268 -2.8992,2.89916 v 4.40045 h -3.8151 a 2.5837536,2.5837536 0 0 0 -2.5837,2.58376 v 44.5092 a 2.5837536,2.5837536 0 0 0 2.5837,2.58375 h 3.8151 v 4.83192 c 0,1.60647 1.2927,2.90167 2.8992,2.90167 1.6065,0 2.8992,-1.2952 2.8992,-2.90167 v -4.83192 h 6.2954 v 4.83192 c 0,1.60647 1.2926,2.90167 2.8991,2.90167 1.6065,0 2.9017,-1.2952 2.9017,-2.90167 v -4.88239 c 7.6143,-0.50173 13.3779,-5.23868 13.3779,-13.52686 0,-4.97491 -2.133,-8.3791 -5.4728,-10.4435 -1.2122,-0.74927 -1.2589,-1.66964 -0.1665,-2.58376 2.4776,-2.07325 3.9841,-5.11376 3.9841,-9.24499 0,-7.59572 -4.9661,-12.39439 -11.7227,-13.54958 v -4.678 c 0,-1.60648 -1.2952,-2.89916 -2.9017,-2.89916 -1.6065,0 -2.8991,1.29268 -2.8991,2.89916 v 4.40045 h -6.2954 v -4.40045 c 0,-1.60648 -1.2927,-2.89916 -2.8992,-2.89916 z m 2.9219,16.98617 h 7.4838 c 2.9805,0 5.382,2.31816 5.382,5.29871 0,2.89776 -2.4015,5.38199 -5.382,5.38199 h -7.4838 a 1.2918768,1.2918768 0 0 1 -1.2919,-1.29188 v -8.09694 a 1.2918768,1.2918768 0 0 1 1.2919,-1.29188 z m 0,19.6229 h 9.1415 c 3.0634,0 5.382,2.48423 5.382,5.38198 0,2.98056 -2.3186,5.29871 -5.382,5.29871 h -9.1415 a 1.2918768,1.2918768 0 0 1 -1.2919,-1.29187 v -8.09694 a 1.2918768,1.2918768 0 0 1 1.2919,-1.29188 z"/><path style="font-weight:700;font-size:51.2699px;line-height:1.25;font-family:Now;-inkscape-font-specification:'Now Bold';letter-spacing:0;word-spacing:0;fill:#fff;fill-opacity:1;stroke-width:1.65588" id="path1466-2" d="m 71.6821,908.43475 c 1.6065,0 2.8991,1.29268 2.8991,2.89916 v 4.40045 h 3.8151 a 2.5837536,2.5837536 0 0 1 2.5838,2.58376 v 44.5092 a 2.5837536,2.5837536 0 0 1 -2.5838,2.58375 h -3.8151 v 4.83192 c 0,1.60647 -1.2926,2.90167 -2.8991,2.90167 -1.6065,0 -2.8992,-1.2952 -2.8992,-2.90167 v -4.83192 h -6.2953 v 4.83192 c 0,1.60647 -1.2927,2.90167 -2.8992,2.90167 -1.6065,0 -2.9017,-1.2952 -2.9017,-2.90167 v -4.88239 c -7.6143,-0.50173 -13.378,-5.23868 -13.378,-13.52686 0,-4.97491 2.133,-8.3791 5.4729,-10.4435 1.2121,-0.74927 1.2589,-1.66964 0.1665,-2.58376 -2.4776,-2.07325 -3.9841,-5.11376 -3.9841,-9.24499 0,-7.59572 4.9661,-12.39439 11.7227,-13.54958 v -4.678 c 0,-1.60648 1.2952,-2.89916 2.9017,-2.89916 1.6065,0 2.8992,1.29268 2.8992,2.89916 v 4.40045 h 6.2953 v -4.40045 c 0,-1.60648 1.2927,-2.89916 2.8992,-2.89916 z m -2.9219,16.98617 h -7.4838 c -2.9805,0 -5.382,2.31816 -5.382,5.29871 0,2.89776 2.4015,5.38199 5.382,5.38199 h 7.4838 a 1.2918768,1.2918768 0 0 0 1.2919,-1.29188 v -8.09694 a 1.2918768,1.2918768 0 0 0 -1.2919,-1.29188 z m 0,19.6229 h -9.1415 c -3.0634,0 -5.382,2.48423 -5.382,5.38198 0,2.98056 2.3186,5.29871 5.382,5.29871 h 9.1415 a 1.2918768,1.2918768 0 0 0 1.2919,-1.29187 v -8.09694 a 1.2918768,1.2918768 0 0 0 -1.2919,-1.29188 z"/></g><style id="style853" type="text/css"/></svg>