<svg xmlns="http://www.w3.org/2000/svg" xmlns:svg="http://www.w3.org/2000/svg" id="svg2" width="192" height="192" version="1.1" viewBox="0 0 192 192"><defs id="defs4"><rect id="rect893" width="161.058" height="128.637" x="333.443" y="760.289"/></defs><metadata id="metadata7"/><g id="layer1" transform="translate(0,-860.36216)"><rect id="rect4188" width="153" height="153" x="19.5" y="879.862" rx="10" style="fill:#fff;fill-opacity:1;fill-rule:evenodd;stroke:none;stroke-opacity:1"/><g id="g854"><text id="text891" transform="matrix(0.81179985,0,0,0.81179985,-210.46932,340.82679)" xml:space="preserve" style="font-style:normal;font-variant:normal;font-weight:700;font-stretch:normal;font-size:40px;line-height:1.25;font-family:now;-inkscape-font-specification:'now Bold';letter-spacing:0;word-spacing:0;white-space:pre;shape-inside:url(#rect893);fill:#585b5d;fill-opacity:1"><tspan x="333.443" y="794.911"><tspan style="font-style:normal;font-variant:normal;font-weight:700;font-stretch:normal;font-family:now;-inkscape-font-specification:'now Bold';fill:#585b5d;fill-opacity:1">NTC</tspan></tspan></text><path id="path928" d="m 67.923895,951.86021 c -2.146685,-0.085 -3.903014,-0.67082 -5.276305,-1.7588 -0.262102,-0.20785 -0.88662,-0.83102 -1.09614,-1.09385 -0.556898,-0.69832 -0.935512,-1.37794 -1.188031,-2.13197 -0.777084,-2.32113 -0.377157,-5.36696 1.143915,-8.70971 1.302352,-2.86182 3.311945,-5.70018 6.817978,-9.63128 0.51645,-0.57844 2.054421,-2.27016 2.064344,-2.27016 0.0033,0 -0.08017,0.14479 -0.185621,0.32111 -0.911625,1.52274 -1.691634,3.31636 -2.116566,4.86915 -0.682587,2.49159 -0.600269,4.62978 0.24115,6.28778 0.580402,1.14224 1.575451,2.13161 2.694394,2.67853 1.958861,0.95713 4.826763,1.0363 8.329116,0.23168 0.241128,-0.0557 12.189864,-3.21886 26.552881,-7.02936 14.36302,-3.81087 26.11655,-6.92634 26.11839,-6.92378 0.004,0.003 -33.369378,14.24456 -50.694042,21.63279 -2.743658,1.16973 -3.477349,1.46518 -4.767215,1.91679 -3.297225,1.15469 -6.250775,1.70566 -8.638248,1.61108 z" style="fill:#575a5c;fill-opacity:1;stroke-width:.367077"/></g></g></svg>