<svg xmlns="http://www.w3.org/2000/svg" xmlns:xlink="http://www.w3.org/1999/xlink" id="Layer_1" width="192" height="192" x="0" y="0" enable-background="new 0 0 192 192" version="1.1" viewBox="0 0 192 192" xml:space="preserve"><g><rect width="42.587" height="28.392" x="75.29" y="138.425" fill="#56595B"/><g><path fill="#929599" d="M180.264,131.7c0,6.189-5.018,11.207-11.207,11.207H24.109c-6.189,0-11.207-5.018-11.207-11.207V28.594 c0-6.189,5.018-11.207,11.207-11.207h144.947c6.189,0,11.207,5.018,11.207,11.207V131.7z"/><rect width="133.74" height="82.934" x="29.713" y="33.824" fill="#99BEF9"/></g><rect width="83.68" height="16.438" x="54.743" y="160.092" fill="#929599"/><g><path fill="#F9DE90" d="M150.807,75.446L150.807,75.446c0,6.667-5.405,12.072-12.071,12.072c-6.667,0-12.072-5.405-12.072-12.072 c0-6.668,5.405-12.072,12.072-12.072c0.874,0,1.725,0.098,2.546,0.274l4.067-3.933c-2.033-0.857-4.269-1.331-6.613-1.331 c-9.423,0-17.061,7.638-17.061,17.061c0,9.422,7.638,17.06,17.061,17.06c9.422,0,17.06-7.638,17.06-17.06v0H150.807z"/><polygon fill="#F9DE90" points="134.054 70.522 130.839 73.646 138.961 82 155.512 65.45 152.342 62.28 139.007 75.616"/></g><path fill="#56595B" d="M70.371,75.416c0,1.65-1.338,2.989-2.989,2.989h-5.23c-1.65,0-2.989-1.338-2.989-2.989l0,0 c0-1.65,1.338-2.989,2.989-2.989h5.23C69.032,72.427,70.371,73.765,70.371,75.416L70.371,75.416z"/><circle cx="50.447" cy="75.447" r="12.951" fill="#F9DE90"/><path fill="#56595B" d="M93.781,75.416c0,1.65-1.338,2.989-2.989,2.989h-8.966c-1.65,0-2.988-1.338-2.988-2.989l0,0 c0-1.65,1.338-2.989,2.988-2.989h8.966C92.443,72.427,93.781,73.765,93.781,75.416L93.781,75.416z"/><path fill="#56595B" d="M116.942,75.416c0,1.65-1.338,2.989-2.988,2.989h-8.966c-1.65,0-2.988-1.338-2.988-2.989l0,0 c0-1.65,1.338-2.989,2.988-2.989h8.966C115.604,72.427,116.942,73.765,116.942,75.416L116.942,75.416z"/></g></svg>