<svg xmlns="http://www.w3.org/2000/svg" xmlns:svg="http://www.w3.org/2000/svg" id="svg2" width="192" height="192" version="1.1" viewBox="0 0 192 192"><metadata id="metadata7"/><g id="layer1" transform="translate(0,-860.36216)"><path style="fill:#f8c18c;fill-opacity:1;fill-rule:evenodd;stroke:none;stroke-opacity:1" id="rect985" d="m 29.5,879.86218 h 133 c 5.54,0 10,4.46 10,10 v 133.00002 c 0,5.54 -4.46,10 -10,10 h -133 c -5.54,0 -10,-4.46 -10,-10 V 889.86218 c 0,-5.54 4.46,-10 10,-10 z"/><path style="fill:#fff;fill-opacity:1;fill-rule:evenodd;stroke:none;stroke-opacity:1;opacity:.25" id="rect985-3" d="m 29.5,879.86218 h 133 c 5.54,0 10,4.46 10,10 v 133.00002 c 0,5.54 -4.46,10 -10,10 h -133 c -5.54,0 -10,-4.46 -10,-10 V 889.86218 c 0,-5.54 4.46,-10 10,-10 z"/><path id="path963" d="m 65.778356,942.60086 c 0,0 -8.056484,-5.43737 -29.724258,22.03802 -10.076183,12.77695 10.801034,20.17473 20.065574,20.06557 13.442839,-0.15651 40.131148,-4.01311 40.131148,-4.01311 0,0 -23.364358,-13.952 -32.104918,-24.07869 -9.943058,-11.51965 1.632454,-14.01179 1.632454,-14.01179 z" style="fill:#ba6561;fill-opacity:1;stroke-width:4.01311493"/><path id="path963-6" d="m 65.778356,942.60086 c 0,0 -8.056484,-5.43737 -29.724257,22.03802 -10.076184,12.77695 10.801033,20.17473 20.065573,20.06557 13.442839,-0.15651 40.131148,-4.01311 40.131148,-4.01311 0,0 -23.364358,-13.952 -32.104918,-24.07869 -9.943058,-11.51965 1.632454,-14.01179 1.632454,-14.01179 z" style="opacity:.25;fill-opacity:1;stroke-width:4.01311493"/><path id="path965" d="m 98.257377,968.65199 h 42.137703 c 0,0 20.31478,-1.0406 19.42749,-9.45449 -1.07661,-10.20896 -22.48834,-23.67056 -22.48834,-23.67056 0,0 8.83877,6.63127 7.07397,9.04637 -1.7305,2.36814 0.5684,4.07812 -22.03812,3.80924 -11.1595,-0.13243 -23.470043,-1.10721 -35.505868,-0.81626 -11.291042,0.27289 -15.232764,2.41268 -12.685523,5.03325 8.34953,8.59007 24.078688,16.05245 24.078688,16.05245 z" style="fill:#ba6561;fill-opacity:1;stroke-width:4.01311493"/><path id="path967" d="m 81.966852,942.53304 c 0,0 27.875068,1.36927 38.362658,2.04027 5.13784,0.32907 13.4621,-0.0562 14.48802,-5.10148 0.5905,-2.90348 -9.71868,-8.50338 -18.97727,-8.36614 -6.97307,0.10435 -12.58195,3.52392 -18.773213,6.73401 -7.231035,3.74865 -15.100195,4.69334 -15.100195,4.69334 z" style="fill:#ff837d;fill-opacity:1;stroke-width:4.01311493"/></g><style id="style853" type="text/css"/><style id="style907" type="text/css"/></svg>