<svg xmlns="http://www.w3.org/2000/svg" xmlns:svg="http://www.w3.org/2000/svg" id="svg6" width="192" height="192" fill="none" version="1.1" viewBox="0 0 192 192"><metadata id="metadata12"/><circle id="circle2" cx="96" cy="96" r="88" fill="#f8dd7f" style="stroke-width:1"/><path id="path4" fill="#52678b" fill-rule="evenodd" d="m 63.0938,74.906 c -1.1189,0 -2.192,0.4445 -2.9831,1.2357 l -16.875,16.875 c -1.6476,1.6475 -1.6476,4.3186 0,5.9662 l 16.875,16.8751 c 1.6475,1.647 4.3186,1.647 5.9662,0 1.6475,-1.648 1.6475,-4.319 0,-5.966 l -9.6732,-9.673 h 22.771 c 2.0139,0 3.9454,0.8 5.3696,2.224 l 9.9553,9.955 c 3.0065,3.007 7.0844,4.696 11.3354,4.696 h 23.071 c 1.119,0 2.192,-0.445 2.983,-1.236 l 16.875,-16.8751 c 0.792,-0.7912 1.236,-1.8643 1.236,-2.9831 0,-1.1189 -0.444,-2.192 -1.236,-2.9831 l -16.875,-16.875 c -1.647,-1.6476 -4.318,-1.6476 -5.966,0 -1.647,1.6475 -1.647,4.3187 0,5.9662 l 9.673,9.6731 h -22.771 c -2.014,0 -3.945,-0.8 -5.369,-2.2241 L 97.5004,79.6015 C 94.4939,76.595 90.4163,74.906 86.1646,74.906 Z m 72.5022,25.313 h -22.771 c -4.251,0 -8.329,-1.6895 -11.335,-4.6959 L 91.5341,85.5677 C 90.11,84.1436 88.1785,83.3435 86.1646,83.3435 H 64.8412 l -8.4375,8.4375 h 22.771 c 4.2517,0 8.3293,1.689 11.3358,4.6955 l 9.9555,9.9555 c 1.424,1.424 3.355,2.224 5.369,2.224 h 21.324 z" clip-rule="evenodd"/></svg>