<svg xmlns="http://www.w3.org/2000/svg" xmlns:svg="http://www.w3.org/2000/svg" id="svg2" width="192" height="192" version="1.1" viewBox="0 0 192 192"><metadata id="metadata7"/><g id="layer1" transform="translate(0,-860.36216)"><g id="g882" transform="translate(0,-2.2617187e-5)"><rect style="fill:#98db9a;fill-opacity:1;fill-rule:evenodd;stroke:none;stroke-opacity:1" id="rect915" width="153" height="153" x="19.5" y="879.862" rx="10" ry="10"/><path style="fill:#fff;fill-opacity:1;fill-rule:nonzero;stroke-width:0;stroke-linecap:butt;stroke-linejoin:miter;stroke-miterlimit:10" id="path913" d="m 68.212573,951.44817 c 2.485338,-2.79281 8.663239,-8.43519 18.524488,-9.18884 v -3.53329 c -11.623114,0.93347 -22.005613,8.96235 -25.753549,12.19497 -0.836099,0.72114 -1.176967,2.1827 -0.723471,3.18959 2.305207,5.11821 10.086404,19.19505 26.47702,20.742 v -3.75531 C 75.099977,969.6331 69.507253,959.19611 67.670182,954.8729 c -0.431821,-1.01622 -0.19153,-2.60001 0.542391,-3.42473 z m 18.524488,12.18042 v 3.43914 c -8.317865,-1.48292 -12.147263,-8.31686 -13.552678,-11.6805 -0.425388,-1.0181 -0.05735,-2.53386 0.788515,-3.24321 2.157822,-1.8096 6.613417,-4.85569 12.764163,-5.5208 v 3.77379 c -0.0067,0 -0.01144,-0.002 -0.01701,-0.002 -2.884887,-0.3462 -5.37906,1.18993 -6.860899,2.41078 -0.851429,0.70147 -1.183777,2.24529 -0.729633,3.25129 1.046826,2.3189 3.355061,6.14281 7.607543,7.57156 m 0,-29.41891 v 4.51636 c 0.4285,-0.0331 0.856999,-0.0607 1.287845,-0.0754 13.217933,-0.44549 22.767553,8.45333 26.106873,12.09362 0.74607,0.8133 0.72494,2.20309 -0.0255,3.01344 -3.53287,3.81496 -13.61342,13.60446 -24.030685,13.60446 -1.18578,0 -2.29589,-0.10998 -3.338543,-0.29446 v 4.02956 c 0.891608,0.11321 1.816064,0.17978 2.780701,0.17978 11.317167,0 19.689507,-5.4328 27.655867,-12.12902 0.84549,-0.71068 2.25191,-0.77567 3.20873,-0.22547 1.4948,0.85955 3.52466,1.92707 4.98092,2.81081 0.94228,0.57184 0.94422,1.7317 0.0424,2.36893 -8.68522,6.13684 -25.759806,10.90513 -35.703416,10.90513 -1.020949,0 -2.001424,-0.0619 -2.965182,-0.15485 v 3.662 a 2,2 45 0 0 2,2 H 130.5 a 2,2 135 0 0 2,-2 V 934.2097 a 1.9999987,1.9999987 44.999981 0 0 -2,-2 l -41.762938,3e-5 a 2.0000013,2.0000013 134.99998 0 0 -2,2 z m 0,12.41354 v -4.36389 c 0.4241,-0.0296 0.851427,-0.0525 1.287845,-0.0663 9.081689,-0.28526 15.786473,5.80294 18.472363,8.72906 0.74635,0.81311 0.75902,2.24747 0.0512,3.09525 -2.6709,3.19916 -9.295958,10.17493 -16.283722,10.17493 -1.304856,0 -2.474798,-0.2097 -3.527716,-0.5637 v -13.23158 c 4.029944,0.48695 5.267687,2.09569 7.348088,5.55271 0.569509,0.94636 1.710231,1.13959 2.554653,0.42754 l 3.154006,-2.65962 c 0.844421,-0.71205 0.967221,-1.99222 0.161453,-2.74634 -1.881282,-1.7607 -5.632691,-4.49003 -10.811152,-4.49003 -0.831483,0 -1.626598,0.0584 -2.407048,0.14195"/></g></g><style id="style853" type="text/css"/></svg>