<svg xmlns="http://www.w3.org/2000/svg" xmlns:xlink="http://www.w3.org/1999/xlink" id="Layer_1" width="192" height="192" x="0" y="0" enable-background="new 0 0 192 192" version="1.1" viewBox="0 0 192 192" xml:space="preserve"><g><linearGradient id="SVGID_1_" x1="96.499" x2="96.499" y1="4.31" y2="259.26" gradientUnits="userSpaceOnUse"><stop offset="0" style="stop-color:#e8e9ea"/><stop offset=".395" style="stop-color:#e6e7e8"/><stop offset=".61" style="stop-color:#dedfe1"/><stop offset=".783" style="stop-color:#d0d2d6"/><stop offset=".932" style="stop-color:#bdc0c6"/><stop offset="1" style="stop-color:#b1b5bc"/></linearGradient><path fill="url(#SVGID_1_)" d="M186,152.078C186,170.813,170.813,186,152.078,186H40.922C22.187,186,7,170.813,7,152.078V40.921 C7,22.187,22.187,7,40.922,7h111.156C170.813,7,186,22.187,186,40.921V152.078z"/><g><polygon fill="#90DC9F" points="18.897 102 186 102 186 67 91 67 91 30.022"/><g><polygon fill="#728CBA" points="163.4 91 7 91 7 126 91 126 91 162.851"/><path fill="#FFF" d="M85,103.813L80.231,91H72v23h5V98.081L84.365,114H91V91h-6V103.813z M106.074,107.113L102.494,91h-6.732 l6.92,23h6.784l6.92-23h-6.731L106.074,107.113z M133.738,91l-3.58,16.113L126.578,91h-6.732l6.92,23h6.784l6.92-23H133.738z"/></g></g></g></svg>