<svg xmlns="http://www.w3.org/2000/svg" width="192" height="192" fill="none" viewBox="0 0 192 192"><g clip-path="url(#clip0)"><path fill="#96DFD3" fill-rule="evenodd" d="M30 19H163C168.5 19 173 23.5 173 29V162C173 167.5 168.5 172 163 172H30C24.5 172 20 167.5 20 162V29C20 23.5 24.5 19 30 19Z" clip-rule="evenodd"/><path fill="#56595B" fill-rule="evenodd" d="M107.9 116.4H98V74.6H107.9V116.4ZM94.4 95.6C94.4 105.1 86.7 112.8 77.2 112.8C67.7 112.8 60 105 60 95.6C60 86.2 67.7 78.4 77.2 78.4C86.7 78.3 94.4 86 94.4 95.6ZM82.4 95.6C82.4 92.7 80.1 90.4 77.2 90.4C74.3 90.4 72 92.7 72 95.6C72 98.5 74.3 100.8 77.2 100.8C80.1 100.8 82.4 98.4 82.4 95.6ZM133 85.1H126.4L122.5 89L118.6 85.1H112V91.8L115.8 95.6L112 99.4V106H118.7L122.5 102.2L126.3 106H133V99.4L129.2 95.6L133 91.8V85.1Z" clip-rule="evenodd"/></g><defs><clipPath id="clip0"><rect width="192" height="192" fill="#fff"/></clipPath></defs></svg>