<svg xmlns="http://www.w3.org/2000/svg" xmlns:svg="http://www.w3.org/2000/svg" id="svg2" width="192" height="192" version="1.1" viewBox="0 0 192 192"><defs id="defs4"><style id="style905"/></defs><metadata id="metadata7"/><g id="layer1" transform="translate(0,-860.36216)"><rect style="fill:#708cbd;fill-opacity:1;fill-rule:evenodd;stroke:none;stroke-opacity:1" id="rect1007" width="153" height="153" x="19.5" y="879.862" rx="10"/><path style="stroke-width:1.46146;fill:#fff;fill-opacity:1" id="path1061" d="m 70.890092,976.74216 h -9.422424 a 1.1746023,1.1746023 0 0 1 -1.140337,-1.45624 l 4.658851,-18.86329 a 25.165629,25.165629 0 0 1 0.889764,-2.85945 l 0.18204,-0.48187 a 0.32300357,0.32300357 0 0 0 -0.530559,-0.34255 l -1.166966,1.16697 a 503.1684,503.1684 0 0 0 -2.114977,2.12763 l -1.545022,1.56355 a 0.62790066,0.62790066 0 0 1 -1.074476,-0.43289 l -0.105828,-7.87355 a 3.3500008,3.3500008 0 0 1 1.08526,-2.51379 l 10.679255,-9.79537 a 3.8544451,3.8544451 0 0 1 2.605419,-1.01393 h 7.040242 a 1.1754503,1.1754503 0 0 1 1.141358,1.45649 l -9.322958,37.8618 a 1.91416,1.91416 0 0 1 -1.858642,1.45649 z"/><path style="stroke-width:1.46146;fill:#fff;fill-opacity:1" id="path1059" d="m 113.51553,937.00638 -6.22647,5.97687 -24.785154,22.72461 -11.896484,11.03516 h 15.4375 a 3.9350455,3.9350455 0 0 0 2.619388,-0.99848 l 11.61108,-10.35699 4.28125,7.30664 c 1.46146,1.84145 3.52217,4.07813 12.26172,4.07813 h 8.73047 a 0.8655377,0.8655377 0 0 0 0.74937,-1.29867 l -9.04039,-15.64079 -0.0156,0.0156 -3.96094,-6.70898 18.1002,-16.17245 A 0.57250422,0.57250422 0 0 0 131,935.96763 h -14.90234 a 3.7287073,3.7287073 0 0 0 -2.58213,1.03875 z"/><path style="stroke-width:1.46146;fill:#fff;fill-opacity:1" id="path984" d="m 105.91602,940.73175 v -0.0877 c -2.2282,-3.10855 -5.88435,-4.87055 -9.704084,-4.67668 H 84.485687 a 0.85810845,0.85810845 119.77268 0 0 -0.739716,1.29305 l 9.104585,15.48453 z"/></g><style id="style853" type="text/css"/></svg>