<svg xmlns="http://www.w3.org/2000/svg" xmlns:svg="http://www.w3.org/2000/svg" id="svg2" width="192" height="192" version="1.1" viewBox="0 0 192 192"><metadata id="metadata7"/><g id="layer1" transform="translate(0,-860.36216)"><rect id="rect921" width="127" height="175" x="892.862" y="-183.5" rx="10" ry="10" transform="rotate(90)" style="fill:#545859;fill-opacity:1;fill-rule:evenodd;stroke:none;stroke-opacity:1"/><path style="font-weight:700;font-size:36.8173px;line-height:1.25;font-family:Now;-inkscape-font-specification:'Now Bold';letter-spacing:0;word-spacing:0;fill:#fff;stroke-width:.920433;fill-opacity:1" id="path1021" d="M 117.11133 50.357422 C 110.94444 50.357422 106.84961 54.407097 106.84961 59.929688 C 106.84961 65.452288 110.94444 69.501953 117.11133 69.501953 C 123.27823 69.501953 127.32812 65.452288 127.32812 59.929688 C 127.32812 54.407097 123.27823 50.357422 117.11133 50.357422 z" transform="translate(0,860.36216)"/><g style="font-weight:700;font-size:33.255px;line-height:1.25;font-family:Now;-inkscape-font-specification:'Now Bold';letter-spacing:0;word-spacing:0;stroke-width:2.20739;fill:#56595b;fill-opacity:1" id="text938" aria-label="1" transform="matrix(0.45302542,0,0,0.45302542,-22.91972,485.68366)"><path id="path993" d="m 307.75441,971.82654 h 5.3208 v -24.94125 h -9.10356 v 4.69727 h 3.78276 z" style="stroke-width:2.20739;fill:#56595b;fill-opacity:1"/></g><path id="path998" d="m 142.65387,910.72398 c -2.11695,0 -3.95777,1.01246 -5.24635,2.62318 v -2.25501 h -5.89064 v 18.40825 h 5.89064 v -10.67679 c 0,-1.65674 1.38062,-2.8993 3.08338,-2.8993 1.70277,0 2.8993,1.24256 2.8993,2.8993 v 10.67679 h 5.84462 v -11.64322 c 0,-4.04982 -2.94532,-7.1332 -6.58095,-7.1332 z" style="font-weight:700;font-size:36.8165px;line-height:1.25;font-family:Now;-inkscape-font-specification:'Now Bold';letter-spacing:0;word-spacing:0;stroke-width:1;fill:#fff;fill-opacity:1"/><path id="path1000" d="m 173.02748,920.25025 c 0,-5.75258 -3.95778,-9.57229 -9.89444,-9.57229 -5.93666,0 -10.12454,3.86573 -10.12454,9.61831 0,5.75258 4.14186,9.57229 10.30862,9.57229 5.10829,0 8.51382,-2.71521 9.43423,-6.71901 h -5.66054 c -0.50622,1.47266 -1.84082,2.34705 -3.86573,2.34705 -2.66919,0 -4.04981,-1.61072 -4.27992,-4.23389 h 14.08232 z m -9.8024,-5.06227 c 1.97889,0 3.1294,0.92042 3.72767,2.53114 h -7.63942 c 0.59827,-1.5647 1.84082,-2.53114 3.91175,-2.53114 z" style="font-weight:700;font-size:36.8165px;line-height:1.25;font-family:Now;-inkscape-font-specification:'Now Bold';letter-spacing:0;word-spacing:0;stroke-width:1;fill:#fff;fill-opacity:1"/><path style="fill:#708cbd;fill-opacity:1;stroke-width:2.5;stroke-linecap:round;stroke-linejoin:round;stop-color:#000" id="rect964" d="M 8.5 87.322266 L 8.5 149.5 C 8.5 155.04 12.96 159.5 18.5 159.5 L 173.5 159.5 C 179.04 159.5 183.5 155.04 183.5 149.5 L 183.5 87.322266 L 8.5 87.322266 z" transform="translate(0,860.36216)"/><rect id="rect972" width="26.553" height="26.553" x="24.624" y="934.408" rx="1.735" ry="1.735" style="fill:#fff;fill-opacity:1;fill-rule:evenodd;stroke:none;stroke-width:.173549;stroke-opacity:1"/></g><style id="style853" type="text/css"/></svg>