<svg xmlns="http://www.w3.org/2000/svg" xmlns:svg="http://www.w3.org/2000/svg" id="svg2" width="192" height="192" version="1.1" viewBox="0 0 192 192"><metadata id="metadata7"/><g id="layer1" transform="translate(0,-860.36216)"><g id="g1030" transform="matrix(0.99249647,0,0,0.99249647,0.53244676,7.0973212)"><path id="rect997" d="m 91.191991,870.58563 c -44.911198,2.48449 -81.022801,38.24283 -83.550589,82.79643 -0.1563994,2.75662 -0.1563699,7.23802 -8.276e-4,9.99469 1.5996485,28.35055 16.7307336,53.01685 39.1929596,67.79765 2.306487,1.5178 4.587765,0.4155 5.001454,-2.3148 l 4.187446,-27.6362 c 0.413689,-2.73031 -0.785637,-6.58213 -2.443007,-8.7895 -5.530332,-7.36559 -9.237223,-16.39981 -10.202426,-26.03158 -0.27523,-2.74653 -0.275248,-7.23628 -0.0128,-9.98416 2.37397,-24.8559 22.291766,-44.73523 47.453499,-47.07894 2.748534,-0.25601 7.237161,-0.25601 9.98569,0 25.16174,2.34371 45.07953,22.22304 47.4535,47.07894 0.26245,2.74788 0.26291,7.23721 -0.002,9.98482 -0.95121,9.86299 -4.68568,18.80899 -10.26597,26.36794 -1.63957,2.22094 -2.80385,6.10303 -2.39014,8.83328 l 4.18737,27.6343 c 0.41371,2.7303 2.70182,3.8446 5.01791,2.3416 22.82574,-14.813 38.29739,-39.79902 39.93151,-68.20346 0.15858,-2.75648 0.15842,-7.23796 0.002,-9.99458 -2.52779,-44.5536 -38.63939,-80.31194 -83.5506,-82.79643 -2.756852,-0.1525 -7.238062,-0.1525 -9.994919,0 z" style="fill:#f8c28d;fill-opacity:.996078;stroke:none;stroke-width:.322316;stroke-linejoin:round"/><path style="fill:#748ebf;fill-opacity:1;stroke-width:3.79015" id="path949" fill="#fff" d="m 123.50406,958.64955 c 0,-13.84124 -9.9227,-25.27678 -23.07267,-27.61125 -2.715398,-0.48206 -7.233572,-0.48206 -9.948984,10e-6 -11.536184,2.04802 -20.58862,11.10047 -22.636621,22.63676 -0.482056,2.7154 -0.482115,7.23344 -0.0018,9.94919 1.446806,8.18088 6.402284,15.08202 13.232577,19.06937 2.381387,1.39019 4.106547,4.30677 3.589032,7.01927 l -9.117332,47.7875 a 4.1362423,4.1362423 50.400799 0 0 4.062956,4.9114 h 31.69157 a 4.1630767,4.1630767 129.78128 0 0 4.09419,-4.9173 l -8.80076,-47.77574 c -0.50027,-2.71573 1.20126,-5.7295 3.54138,-7.18922 7.90714,-4.93231 13.36649,-13.58731 13.36649,-23.87999"/></g></g></svg>