<svg xmlns="http://www.w3.org/2000/svg" xmlns:svg="http://www.w3.org/2000/svg" id="svg4806" width="192" height="192" version="1.1" viewBox="0 0 192 192"><metadata id="metadata4824"/><defs id="defs4822"><rect id="rect915" width="150.468" height="103.419" x="-89.12" y="-76.794"/></defs><flowRoot style="font-style:normal;font-weight:400;line-height:.01%;font-family:sans-serif;letter-spacing:0;word-spacing:0;fill:#000;fill-opacity:1;stroke:none;stroke-width:1.00675px;stroke-linecap:butt;stroke-linejoin:miter;stroke-opacity:1" id="flowRoot5441-3" transform="matrix(0.97042985,0,0,0.97042985,2.9589232,2.8387334)" xml:space="preserve"><flowRegion id="flowRegion5443-6" style="stroke-width:1.00675px"><rect id="rect5445-7" width="43.119" height="47.593" x="73.22" y="72.407" style="stroke-width:1.00675px"/></flowRegion><flowPara style="font-size:40px;line-height:1.25;stroke-width:1.00675px" id="flowPara5447-5"/></flowRoot><flowRoot style="font-style:normal;font-variant:normal;font-weight:400;font-stretch:normal;line-height:.01%;font-family:'Nixie One';-inkscape-font-specification:'Nixie One';letter-spacing:0;word-spacing:0;fill:#000;fill-opacity:1;stroke:none;stroke-width:1.00675px;stroke-linecap:butt;stroke-linejoin:miter;stroke-opacity:1" id="flowRoot5453-3" transform="matrix(0.97042985,0,0,0.97042985,2.9589232,2.8387334)" xml:space="preserve"><flowRegion id="flowRegion5455-5" style="stroke-width:1.00675px"><rect style="font-style:normal;font-variant:normal;font-weight:400;font-stretch:normal;font-family:'Nixie One';-inkscape-font-specification:'Nixie One';stroke-width:1.00675px" id="rect5457-6" width="46.373" height="42.712" x="70.78" y="75.254"/></flowRegion><flowPara style="font-size:40px;line-height:1.25;stroke-width:1.00675px" id="flowPara5459-2"/></flowRoot><rect id="rect5537" width="147.309" height="147.309" x="22.345" y="22.345" rx="11.86" ry="11.86" style="fill:#fff;fill-opacity:1;fill-rule:evenodd;stroke:none;stroke-width:.976985px;stroke-linecap:butt;stroke-linejoin:miter;stroke-opacity:1"/><rect style="fill:#b1b5bd;fill-opacity:1;fill-rule:evenodd;stroke:none;stroke-width:.976985px;stroke-linecap:butt;stroke-linejoin:miter;stroke-opacity:1" id="rect5500-3" width="48.639" height="47.521" x="72.383" y="22.719"/><path id="rect5498-6" d="m 121.2228,120.95871 v 10.56996 c -0.0653,0.47681 -0.1108,0.96027 -0.1108,1.45558 v 26.37632 c 0,1.05984 0.15863,2.07929 0.44623,3.04319 v 7.30517 h 7.9548 c 0.70049,0.14512 1.42568,0.22312 2.17045,0.22312 h 27.49496 c 5.85711,0 10.57146,-4.71438 10.57146,-10.57148 v -26.37632 c 0,-0.49531 -0.0455,-0.97877 -0.11079,-1.45558 v -10.56996 z" style="fill:#b1b5bd;fill-opacity:1;fill-rule:evenodd;stroke:none;stroke-width:.976985px;stroke-linecap:butt;stroke-linejoin:miter;stroke-opacity:1"/><text style="font-style:normal;font-variant:normal;font-weight:700;font-stretch:normal;font-size:29.6118px;line-height:1.25;font-family:Now;-inkscape-font-specification:'Now Bold';letter-spacing:0;word-spacing:0;fill:#56595b;fill-opacity:1;stroke-width:.999999" id="text1107" x="137.306" y="155.942" xml:space="preserve"><tspan id="tspan1105" x="137.306" y="155.942" style="fill:#56595b;fill-opacity:1;stroke-width:.999999">2</tspan></text><text style="font-style:normal;font-variant:normal;font-weight:700;font-stretch:normal;font-size:29.6118px;line-height:1.25;font-family:Now;-inkscape-font-specification:'Now Bold';letter-spacing:0;word-spacing:0;fill:#56595b;fill-opacity:1;stroke-width:.999999" id="text1074" x="86.829" y="58.084" xml:space="preserve"><tspan id="tspan1072" x="86.829" y="58.084" style="fill:#56595b;fill-opacity:1;stroke-width:.999999">8</tspan></text><text style="font-style:normal;font-variant:normal;font-weight:700;font-stretch:normal;font-size:29.6118px;line-height:1.25;font-family:Now;-inkscape-font-specification:'Now Bold';letter-spacing:0;word-spacing:0;fill:#56595b;fill-opacity:1;stroke-width:.999999" id="text1078" x="91.022" y="107.104" xml:space="preserve"><tspan id="tspan1076" x="91.022" y="107.104" style="fill:#56595b;fill-opacity:1;stroke-width:.999999">1</tspan></text><g id="g1088"><path style="color:#000;font-style:normal;font-variant:normal;font-weight:400;font-stretch:normal;font-size:medium;line-height:normal;font-family:sans-serif;text-indent:0;text-align:start;text-decoration:none;text-decoration-line:none;text-decoration-style:solid;text-decoration-color:#000;letter-spacing:normal;word-spacing:normal;text-transform:none;writing-mode:lr-tb;direction:ltr;baseline-shift:baseline;text-anchor:start;white-space:normal;clip-rule:nonzero;display:inline;overflow:visible;visibility:visible;isolation:auto;mix-blend-mode:normal;color-interpolation:sRGB;color-interpolation-filters:linearRGB;solid-color:#000;solid-opacity:1;fill:#000;fill-opacity:1;fill-rule:evenodd;stroke:#56595b;stroke-width:3.95679;stroke-linecap:butt;stroke-linejoin:miter;stroke-miterlimit:4;stroke-dasharray:none;stroke-dashoffset:0;stroke-opacity:1;color-rendering:auto;image-rendering:auto;shape-rendering:auto;text-rendering:auto;enable-background:accumulate" id="path5414-9" d="m 32.07073,21.97839 c -5.58382,0 -10.09409,4.51017 -10.09409,10.09385 v 127.85552 c 0,5.58367 4.51027,10.09385 10.09409,10.09385 h 127.85854 c 5.58381,0 10.09409,-4.51018 10.09409,-10.09385 V 32.07225 c 0,-5.58369 -4.51028,-10.09386 -10.09409,-10.09386 z m 0,0.96132 h 127.85854 c 5.06786,0 9.13275,4.0648 9.13275,9.13253 v 127.85552 c 0,5.06774 -4.06489,9.13253 -9.13275,9.13253 H 32.07073 c -5.06786,0 -9.13275,-4.06479 -9.13275,-9.13253 V 32.07225 c 0,-5.06774 4.06489,-9.13254 9.13275,-9.13254 z"/><rect style="fill:#56595b;fill-opacity:1;stroke-width:.993001;stroke-linecap:round;stop-color:#000" id="rect3221" width="4.918" height="146.715" x="68.472" y="22.94"/><rect style="fill:#56595b;fill-opacity:1;stroke-width:.993001;stroke-linecap:round;stop-color:#000" id="rect3228" width="4.918" height="146.715" x="118.61" y="22.162"/><rect style="fill:#56595b;fill-opacity:1;stroke-width:.993001;stroke-linecap:round;stop-color:#000" id="rect3232" width="4.918" height="146.715" x="118.479" y="-169.357" transform="rotate(90)"/><rect style="fill:#56595b;fill-opacity:1;stroke-width:.993001;stroke-linecap:round;stop-color:#000" id="rect3230" width="4.918" height="146.715" x="68.603" y="-169.062" transform="rotate(90)"/></g></svg>