<svg xmlns="http://www.w3.org/2000/svg" xmlns:svg="http://www.w3.org/2000/svg" id="svg2" width="192" height="192" version="1.1" viewBox="0 0 192 192"><metadata id="metadata7"/><g id="layer1" transform="translate(0,-860.36216)"><circle id="circle960" cx="96" cy="956.362" r="88" style="fill:#56595b;fill-opacity:1;fill-rule:evenodd;stroke:none;stroke-opacity:1"/><path id="rect921" width="73" height="15.154" x="59.5" y="919.862" d="m 67.077052,919.86218 h 57.845898 c 4.19768,0 7.57705,3.37937 7.57705,7.57705 0,4.19768 -3.37937,7.57705 -7.57705,7.57705 H 67.077052 c -4.197685,0 -7.577048,-3.37937 -7.577048,-7.57705 0,-4.19768 3.379363,-7.57705 7.577048,-7.57705 z" rx="7.577" ry="7.577" style="fill:#ff837d;fill-opacity:1;stroke-width:.601179;stroke-linecap:square;stop-color:#000"/><path id="path935" width="73" height="15.154" x="-992.862" y="59.5" d="m -985.28507,59.500004 h 57.84589 c 4.19769,0 7.57705,3.379363 7.57705,7.577048 0,4.197684 -3.37936,7.577047 -7.57705,7.577047 h -57.84589 c -4.19769,0 -7.57705,-3.379363 -7.57705,-7.577047 0,-4.197685 3.37936,-7.577048 7.57705,-7.577048 z" rx="7.577" ry="7.577" transform="rotate(-90)" style="fill:#99bdfe;fill-opacity:1;stroke-width:.601179;stroke-linecap:square;stop-color:#000"/><path id="path933" width="73" height="15.154" x="59.5" y="977.708" d="m 67.077052,977.70807 h 57.845898 c 4.19768,0 7.57705,3.37936 7.57705,7.57705 0,4.19768 -3.37937,7.57704 -7.57705,7.57704 H 67.077052 c -4.197685,0 -7.577048,-3.37936 -7.577048,-7.57704 0,-4.19769 3.379363,-7.57705 7.577048,-7.57705 z" rx="7.577" ry="7.577" style="fill:#97db99;fill-opacity:1;stroke-width:.601179;stroke-linecap:square;stop-color:#000"/></g><style id="style853" type="text/css"/></svg>