<svg xmlns="http://www.w3.org/2000/svg" xmlns:xlink="http://www.w3.org/1999/xlink" id="Layer_1" width="192" height="192" x="0" y="0" enable-background="new 0 0 192 192" version="1.1" viewBox="0 0 192 192" xml:space="preserve"><g><path fill="#87DCA4" d="M184.68,172.796c0,6.547-5.307,11.854-11.854,11.854H20.042c-6.546,0-11.854-5.308-11.854-11.854V20.012 c0-6.546,5.308-11.854,11.854-11.854h152.785c6.547,0,11.854,5.308,11.854,11.854V172.796z"/><g><rect width="82.11" height="41.986" x="102.597" y="123.621" fill="#F9DE90"/><rect width="82.11" height="14.337" x="102.597" y="123.621" fill="#56595B"/><rect width="82.11" height="13.313" x="102.597" y="137.958" fill="#FF857E"/></g><polygon fill="#FFF" points="151.752 62.52 131.44 150.201 111.131 62.52 81.433 62.52 61.123 150.201 40.813 62.52 11.115 62.52 39.106 183.357 53.443 183.357 68.804 183.357 74.78 183.357 96.112 91.535 117.443 183.357 123.761 183.357 139.121 183.357 153.458 183.357 181.448 62.52"/></g></svg>