<svg xmlns="http://www.w3.org/2000/svg" xmlns:svg="http://www.w3.org/2000/svg" id="svg18" width="192" height="192" fill="none" version="1.1" viewBox="0 0 192 192"><metadata id="metadata22"/><path id="path2" fill="#ff837d" fill-rule="evenodd" d="M 183,96 C 183,47.9512 144.049,9 96,9 47.9512,9 9,47.9512 9,96 c 0,48.049 38.9512,87 87,87 48.049,0 87,-38.951 87,-87 z m -30,0 c 0,31.48 -25.52,57 -57,57 -31.4802,0 -57,-25.52 -57,-57 0,-31.4802 25.5198,-57 57,-57 31.48,0 57,25.5198 57,57 z" clip-rule="evenodd" style="fill:#9bbfff;fill-opacity:1"/><g id="g9" mask="url(#mask0)" style="fill:#8c73bd;fill-opacity:1"><path id="path7" fill="#ba6561" fill-rule="evenodd" d="m 111,169 c 39.765,0 72,-32.459 72,-72.5 C 183,56.4594 150.765,24 111,24 71.2355,24 39,56.4594 39,96.5 39,136.541 71.2355,169 111,169 Z" clip-rule="evenodd" style="fill:#8c73bd;fill-opacity:1"/></g><defs id="defs16"><mask id="mask0" width="174" height="174" x="9" y="9" mask-type="alpha" maskUnits="userSpaceOnUse"><path id="path4" fill="#fff" fill-rule="evenodd" d="M183 96C183 47.9512 144.049 9 96 9C47.9512 9 9 47.9512 9 96C9 144.049 47.9512 183 96 183C144.049 183 183 144.049 183 96ZM153 96C153 127.48 127.48 153 96 153C64.5198 153 39 127.48 39 96C39 64.5198 64.5198 39 96 39C127.48 39 153 64.5198 153 96Z" clip-rule="evenodd"/></mask></defs></svg>