<svg xmlns="http://www.w3.org/2000/svg" xmlns:svg="http://www.w3.org/2000/svg" id="svg2" width="192" height="192" version="1.1" viewBox="0 0 192 192"><metadata id="metadata7"/><g id="layer1" transform="translate(0,-860.36216)"><path style="fill:#ffb0ac;fill-opacity:1;stroke-width:3.0422" id="path976" d="m 96.001953,866.41602 c -49.320413,0 -89.46875,40.3737 -89.4687499,89.94726 0,48.09362 37.4473969,87.59302 85.2148439,89.84372 1.406183,0.066 2.824192,0.1035 4.253906,0.1035 21.964747,0 43.085307,-8.0915 59.472657,-22.7714 a 1.947586,1.947586 0 0 0 0.15234,-0.1231 c 18.96589,-17.058 29.83985,-41.49336 29.83985,-67.05272 0,-25.55506 -10.87155,-49.9905 -29.83203,-67.04492 -16.28511,-14.65191 -37.29848,-22.77643 -59.253911,-22.89258 l -0.05078,-0.002 c -0.111897,-0.007 -0.137642,-0.005 -0.183594,-0.006 -0.05866,-8.1e-4 -0.08227,-0.002 -0.144531,-0.002 z m 0.07813,12.23632 c -0.113633,0 0.07008,0.002 0.210938,0.002 2.541158,0.009 5.050524,0.26634 7.556644,0.52343 -15.503368,3.50518 -29.620632,12.54696 -39.943363,25.9961 -0.0042,0.005 -0.0076,0.0107 -0.01172,0.0156 -10.468038,12.43191 -16.602151,30.26919 -17.021484,49.15625 a 1.947586,1.947586 0 0 0 0,0.043 v 4.04297 a 1.947586,1.947586 0 0 0 0,0.043 c 0.419083,18.74171 6.51952,36.53234 16.935547,48.96489 10.488077,13.6471 24.755804,22.7297 40.390629,26.1796 -3.94912,0.4217 -7.935595,0.5541 -11.880864,0.3653 a 1.947586,1.947586 0 0 0 -0.02539,0 c -41.271362,-1.9605 -73.564453,-36.01608 -73.564454,-77.61917 0,-42.87282 34.651676,-77.71289 77.353516,-77.71289 z m 22.070312,11.07227 c 10.43896,0 20.67684,3.11971 29.67383,9.02344 16.1721,14.72041 25.45312,35.69082 25.45312,57.61914 0,21.92544 -9.27933,42.89196 -25.44922,57.61131 -8.99456,5.9055 -19.23546,9.0293 -29.67773,9.0293 -17.16565,0 -33.467035,-8.3822 -44.759765,-23.12889 a 1.947586,1.947586 0 0 0 -0.02344,-0.0312 c -0.03953,-0.0496 -0.07715,-0.0956 -0.119141,-0.14844 a 1.947586,1.947586 0 0 0 -0.03516,-0.043 C 64.654354,989.49747 59.417005,974.33751 59.058594,958.29688 l -0.002,-3.76954 c 0.360447,-16.14008 5.590982,-31.28999 14.27539,-41.60546 a 1.947586,1.947586 0 0 0 0.05664,-0.0703 c 11.294191,-14.74671 27.596878,-23.12695 44.761718,-23.12695 z m -6.06836,9.25781 a 1.947586,1.947586 0 0 0 -1.10156,3.58399 c 14.91644,9.63147 25.47461,30.09824 25.47461,53.91211 0,23.81355 -10.55849,44.28148 -25.47461,53.91018 a 1.947586,1.947586 0 0 0 1.21875,3.5781 c 10.7036,-0.8919 20.13813,-7.8214 26.82031,-18.16016 6.68218,-10.33877 10.71094,-24.15425 10.71094,-39.32812 0,-15.17419 -4.0287,-28.99096 -10.71094,-39.33008 -6.68224,-10.33913 -16.11697,-17.26808 -26.82031,-18.16016 a 1.947586,1.947586 0 0 0 -0.11719,-0.006 z" transform="matrix(0.97835131,0,0,0.97835131,2.0782727,20.702912)"/></g><style id="style853" type="text/css"/><style id="style853-9" type="text/css"/><style id="style853-3" type="text/css"/></svg>