<svg xmlns="http://www.w3.org/2000/svg" xmlns:svg="http://www.w3.org/2000/svg" id="svg2" width="192" height="192" version="1.1" viewBox="0 0 192 192"><metadata id="metadata7"/><g id="layer1" transform="translate(0,-860.36216)"><rect id="rect983" width="85.623" height="135.219" x="28.46" y="899.553" rx="12.247" ry="12.247" style="fill:#99bdfe;fill-opacity:1;fill-rule:evenodd;stroke:none;stroke-width:.721758;stroke-opacity:1"/><rect id="rect981" width="85.623" height="135.219" x="77.917" y="877.952" rx="12.247" ry="12.247" style="fill:#96dfd3;fill-opacity:1;fill-rule:evenodd;stroke:none;stroke-width:.721758;stroke-opacity:1"/><path style="fill:#fff;fill-opacity:1;stroke:#99bdfe;stroke-width:0;stroke-linecap:round;stop-color:#000" id="path985" d="m 95.797984,936.8688 v 10.19603 H 70.985978 a 2.571608,2.571608 0 0 0 -2.571608,2.57161 v 13.61143 a 2.571608,2.571608 0 0 0 2.571608,2.57161 h 24.812006 v 10.19855 a 1.2383737,1.2383737 0 0 0 2.010521,0.96817 l 23.749305,-18.9406 a 2.0507989,2.0507989 0 0 0 -8e-5,-3.20676 L 97.808582,935.90052 a 1.2384611,1.2384611 0 0 0 -2.010598,0.96828 z"/></g><style id="style853" type="text/css"/><style id="style853-9" type="text/css"/><style id="style853-3" type="text/css"/></svg>