<svg xmlns="http://www.w3.org/2000/svg" xmlns:svg="http://www.w3.org/2000/svg" id="svg2" width="192" height="192" version="1.1" viewBox="0 0 192 192"><metadata id="metadata7"/><g id="layer1" transform="translate(0,-860.36216)"><rect id="rect2142" width="152" height="152" x="20" y="880.362" rx="9.935" style="fill:#97db99;fill-opacity:1;fill-rule:evenodd;stroke:none;stroke-width:.993464;stroke-opacity:1"/><path style="fill:#fff;fill-opacity:1;stroke:none;stroke-width:.813941px;stroke-linecap:butt;stroke-linejoin:miter;stroke-opacity:1" id="path2144" d="m 93.09362,920.21692 -24.59454,6.29261 a 3.8641976,3.8641976 0 0 0 -2.90638,3.74361 v 36.08859 c 0,9.53482 15.88908,18.93028 27.81852,25.9045 1.43024,0.83615 3.74741,0.8361 5.17776,-1.2e-4 11.92942,-6.97421 27.81832,-16.36961 27.81832,-25.90438 v -36.08859 a 3.8641976,3.8641976 0 0 0 -2.90638,-3.74361 l -24.59454,-6.29261 a 11.725436,11.725436 0 0 0 -5.81276,0 z"/><path style="fill:#97db99;fill-opacity:1;stroke:none;stroke-width:.857334px;stroke-linecap:butt;stroke-linejoin:miter;stroke-opacity:1" id="path2146" d="m 95.52618,933.02757 a 0.43952765,0.43952765 0 0 0 -0.36523,0.25391 L 83.83868,957.7971 a 1.2793234,1.2793234 0 0 0 1.16211,1.81641 h 10.99805 v 16.50976 a 0.65929079,0.65929079 0 0 0 1.25976,0.2754 l 10.48243,-22.69922 a 1.9189859,1.9189859 0 0 0 -1.74219,-2.72266 h -10 v -17.50977 a 0.43952765,0.43952765 0 0 0 -0.47266,-0.43945 z"/><path style="fill:#000;fill-opacity:.1;stroke:none;stroke-width:.813941px;stroke-linecap:butt;stroke-linejoin:miter;stroke-opacity:1" id="path2148" d="m 95.9991,919.85179 a 11.725436,11.725436 0 0 1 2.90625,0.36523 l 24.5957,6.29297 a 3.8641976,3.8641976 0 0 1 2.90625,3.74219 v 36.08984 c 0,9.53482 -15.88892,18.93008 -27.81836,25.9043 -0.71512,0.41808 -1.65298,0.62698 -2.58984,0.62695 z"/></g><style id="style853" type="text/css"/></svg>