<svg xmlns="http://www.w3.org/2000/svg" xmlns:svg="http://www.w3.org/2000/svg" id="svg4806" width="192" height="192" version="1.1" viewBox="0 0 192 192"><metadata id="metadata4824"/><flowRoot id="flowRoot5441" xml:space="preserve" style="font-style:normal;font-weight:400;line-height:.01%;font-family:sans-serif;letter-spacing:0;word-spacing:0;fill:#000;fill-opacity:1;stroke:none;stroke-width:1px;stroke-linecap:butt;stroke-linejoin:miter;stroke-opacity:1"><flowRegion id="flowRegion5443"><rect id="rect5445" width="43.119" height="47.593" x="73.22" y="72.407"/></flowRegion><flowPara id="flowPara5447" style="font-size:40px;line-height:1.25"/></flowRoot><flowRoot id="flowRoot5453" xml:space="preserve" style="font-style:normal;font-variant:normal;font-weight:400;font-stretch:normal;line-height:.01%;font-family:'Nixie One';-inkscape-font-specification:'Nixie One';letter-spacing:0;word-spacing:0;fill:#000;fill-opacity:1;stroke:none;stroke-width:1px;stroke-linecap:butt;stroke-linejoin:miter;stroke-opacity:1"><flowRegion id="flowRegion5455"><rect id="rect5457" width="46.373" height="42.712" x="70.78" y="75.254" style="-inkscape-font-specification:'Nixie One';font-family:'Nixie One';font-weight:400;font-style:normal;font-stretch:normal;font-variant:normal"/></flowRegion><flowPara id="flowPara5459" style="font-size:40px;line-height:1.25"/></flowRoot><g id="g6178" transform="matrix(0.36535693,0,0,0.36535693,-148.78914,-118.32032)"><path id="path10851" d="M 670,345.74497 535.81054,479.93443 c -50.0096,50.0096 -65.52635,91.44341 -65.61132,147.73046 C 470.19878,738.012 559.65289,827.46611 670,827.46568 780.34711,827.46611 869.80122,738.012 869.80078,627.66489 869.70991,571.49558 850.26658,526.01155 804.42383,480.1688 Z" style="opacity:1;fill:#9abefe;fill-opacity:1;stroke:none;stroke-width:7;stroke-linecap:round;stroke-linejoin:round;stroke-miterlimit:4;stroke-dasharray:none;stroke-opacity:1"/><path style="opacity:1;fill:#fff;fill-opacity:1;stroke:none;stroke-width:7;stroke-linecap:round;stroke-linejoin:round;stroke-miterlimit:4;stroke-dasharray:none;stroke-opacity:1" id="path6170" d="m 670.00001,533.70476 -44.72063,44.72063 c -16.66644,16.66645 -21.83763,30.47488 -21.86595,49.23337 -1.4e-4,36.77474 29.81177,66.58674 66.58658,66.58654 36.7748,2e-4 66.58673,-29.8118 66.58656,-66.58654 -0.0303,-18.71926 -6.51006,-33.87749 -21.78782,-49.15526 z"/></g></svg>