<svg xmlns="http://www.w3.org/2000/svg" xmlns:xlink="http://www.w3.org/1999/xlink" id="Слой_1" x="0" y="0" enable-background="new 0 0 192 192" version="1.1" viewBox="0 0 192 192" xml:space="preserve"><circle cx="96" cy="96" r="96" fill="#88BFFF"/><image width="241" height="241" overflow="visible" transform="matrix(0.7734 0 0 0.7734 4.215 -195)" xlink:href="D:\DESIGN\туццццц\Новая папка (4)\marvin\30E0AF75.jpg"/><path fill="#FEFEFE" d="M136.3,79.9c-0.4-4.2-0.4-4.2-4.3-11.4c-7.5-12.3-18.7-17.6-33-17.2c-8.9,0.2-17.8,0-26.7,0	c-3.5,0-3.5,0-3.5,3.4c0,27.6,0,55.1,0,82.7c0,0.5,0,1,0,1.6c0,1.2,0.5,1.8,1.8,1.7c6.4-0.1,12.8-0.1,19.3-0.1	c1.4-0.7,1.1-2,1.1-3.1c0.1-5.9,0-11.8,0-17.7c0-3.3,0.7-4,3.9-4c5.2,0,10.4,0,15.7,0c2,0,3.9-0.3,5.7-1.1c8-3.5,13.1-9.9,16.7-17.6	c0.7-1.5,0,0,1.7-4.8C136.1,88.3,136.7,84.2,136.3,79.9z M104.4,94.3c-4.3,0.3-8.7,0.1-13,0.1c-1.2,0-1.6-0.6-1.6-1.7	c0-6.1,0-12.3,0-18.4c0-1.2,0.5-1.8,1.7-1.8c2.3,0,4.6,0,6.9,0c0,0,0,0,0,0c1.6,0,3.3,0,4.9,0c6.3,0,10.8,4.3,11.1,10.5	C114.8,88.7,110.2,93.9,104.4,94.3z"/></svg>