<svg xmlns="http://www.w3.org/2000/svg" xmlns:svg="http://www.w3.org/2000/svg" id="svg2" width="192" height="192" version="1.1" viewBox="0 0 192 192"><metadata id="metadata7"/><g id="layer1" transform="translate(0,-860.36216)"><g id="g1039" transform="matrix(1.1421088,0,0,1.1421088,-13.133156,-135.90743)"><path style="opacity:1;fill:#97db99;fill-opacity:1;stroke-width:14.1645;stroke-linecap:round;stroke-linejoin:round;stop-color:#000" id="path1003" d="m 172.49781,975.53532 c -10.5039,-49.29276 -29.22254,-70.69925 -45.98664,-79.44054 -14.82664,-7.73105 -38.229256,-10.98327 -52.331888,7.16575 -14.102631,18.14903 -5.169882,40.02288 5.984281,52.48012 12.611729,14.08509 37.978947,26.93535 88.338787,24.93652 2.75921,-0.10951 4.57097,-2.4411 3.99546,-5.14185 z"/><path style="opacity:1;fill:#99bdfe;fill-opacity:1;stroke-width:18.4049;stroke-linecap:round;stroke-linejoin:round;stop-color:#000" id="path1005" d="m 155.98273,1017.3237 c -2.16664,-10.3702 -4.61399,-19.79283 -7.28054,-28.37198 -3.97381,-0.17057 -7.94293,-0.4386 -11.90066,-0.84506 C 122.30664,986.566 107.77636,983.38391 94.690163,976.78211 84.808965,971.87636 75.948509,964.74546 69.552347,955.71348 63.137446,946.6497 58.796298,935.82282 58.65561,924.62049 c -0.171492,-6.96072 1.59883,-13.85866 4.82842,-19.99907 -12.943986,0.21739 -25.924957,4.92211 -35.562798,17.32528 -18.3245201,23.58228 -6.716815,52.00451 7.776555,68.19106 16.511655,18.44064 49.850156,35.25304 116.280423,32.33994 2.75875,-0.121 4.56927,-2.4509 4.00452,-5.154 z"/></g></g><style id="style853" type="text/css"/></svg>