<svg xmlns="http://www.w3.org/2000/svg" xmlns:svg="http://www.w3.org/2000/svg" id="svg2" width="192" height="192" version="1.1" viewBox="0 0 192 192"><metadata id="metadata7"/><g id="layer1" transform="translate(0,-860.36216)"><g id="g911"><path style="fill:#fff;fill-opacity:1;fill-rule:evenodd;stroke:none;stroke-opacity:1" id="path931" d="m 29.5,879.86218 h 133 c 5.53999,0 10,4.46 10,10 v 133.00002 c 0,5.54 -4.46001,10 -10,10 h -133 c -5.54,0 -10,-4.46 -10,-10 V 889.86218 c 0,-5.54 4.46,-10 10,-10 z"/><path style="fill:#fe837e;fill-opacity:1;fill-rule:evenodd;stroke:none;stroke-opacity:1" id="path860" d="m 83.50586,927.93275 c -2.09883,6.62179 -4.34253,18.08208 -6.43946,26.88867 l -7.57422,30.29688 c 9.89956,0.28306 14.63597,0.21496 17.80079,0 14.43804,-0.98065 49.3875,-10.31458 53.77539,-24.23633 1.87349,-7.16222 -3.81214,-11.98757 -6.81836,-14.77148 -10.518,-9.74013 -30.23646,-14.8034 -50.74414,-18.17774 z"/><path style="fill:#fe837e;fill-opacity:1;fill-rule:evenodd;stroke:none;stroke-opacity:1" id="path858" d="M 48.48632,925.1847 C 38.62069,925.1579 29.98005,925.96784 19.5,927.55384 v 95.30856 c 0,5.54 4.46,10 10,10 h 15.10547 0.52539 c 1.18443,-10e-4 2.42398,-0.01 3.81835,-0.022 8.58315,-35.34309 17.64147,-70.69602 26.22461,-106.03902 -10.59682,-1.06441 -19.01423,-1.59245 -26.6875,-1.61328 z"/><path style="fill:#fe837e;fill-opacity:1;fill-rule:evenodd;stroke:none;stroke-opacity:1" id="path989" d="m 29.5,879.86244 c -5.54,0 -10,4.46 -10,10 v 8.80078 2.38086 c 44.21814,-1.94356 108.32871,7.85395 124.21875,40.14453 6.71608,13.631 1.28894,29.73329 -5.68165,37.11328 -17.8279,18.82812 -37.03372,21.58592 -73.08984,25.37301 -2.27228,9.8459 -4.54412,19.3163 -6.8164,29.1621 l 90.68164,0.025 H 162.5 c 5.53999,0 10,-4.46 10,-10 v -124.19919 -8.80077 c 0,-0.34693 -0.0166,-0.68778 -0.0508,-1.02539 -0.004,-0.0443 -0.0145,-0.0867 -0.0195,-0.13086 -0.064,-0.55877 -0.17461,-1.10253 -0.32616,-1.62892 -0.0186,-0.0644 -0.031,-0.13141 -0.0508,-0.19531 -0.0969,-0.31291 -0.21004,-0.6192 -0.33593,-0.91797 -2.3e-4,-5.4e-4 2.2e-4,-10e-4 0,-0.002 -0.12617,-0.2993 -0.26634,-0.58961 -0.41992,-0.87303 -0.46078,-0.85032 -1.04094,-1.62492 -1.71875,-2.30274 -0.22559,-0.22567 -0.46263,-0.44128 -0.70899,-0.64454 -7.1e-4,-5.7e-4 -10e-4,-0.001 -0.002,-0.002 -0.49282,-0.40638 -1.02582,-0.76537 -1.59179,-1.07226 -7.7e-4,-4.2e-4 -0.001,-0.002 -0.002,-0.002 -0.79259,-0.4295 -1.6535,-0.74571 -2.55858,-0.94922 -0.0653,-0.0147 -0.12762,-0.0374 -0.19337,-0.0508 -6.1e-4,-1.2e-4 -0.001,1.3e-4 -0.002,0 -0.0429,-0.009 -0.0878,-0.0113 -0.13086,-0.0195 -0.61211,-0.11626 -1.24173,-0.18359 -1.88867,-0.18359 h -13.68752 z"/></g></g></svg>