<svg xmlns="http://www.w3.org/2000/svg" xmlns:svg="http://www.w3.org/2000/svg" id="svg2" width="192" height="192" version="1.1" viewBox="0 0 192 192"><metadata id="metadata7"/><g id="layer1" transform="translate(0,-860.36216)"><rect id="rect994" width="153" height="153" x="19.5" y="879.862" rx="10" style="fill:#56595b;fill-opacity:1;fill-rule:evenodd;stroke:none;stroke-opacity:1"/><path style="fill:#fff;fill-opacity:1;stroke-width:1.68165" id="path996" d="m 87.8246,924.15594 c -10.64994,0 -19.307281,8.65735 -19.307281,19.30729 v 44.65768 h 9.155132 v -24.78764 l 3.36312,3.54856 13.453654,-5.29203 c 7.661635,-2.98998 12.643835,-9.90487 12.643835,-18.12482 0,-10.64994 -8.656837,-19.30904 -19.30846,-19.30904 z m 0.0017,8.72087 c 5.542743,0 10.152148,4.48376 10.152148,10.58817 0,3.86109 -1.868513,8.0972 -6.726825,10.02775 l -13.577471,5.29379 v -15.32154 c 0,-6.16663 4.609399,-10.58817 10.152148,-10.58817 z"/><path style="fill:#99bdfe;fill-opacity:1;stroke-width:1.41391" id="path998" d="m 118.82246,970.81652 c -2.56625,0 -4.66167,2.09399 -4.66167,4.66165 0,2.56482 2.094,4.65882 4.66167,4.65882 2.56481,0 4.66022,-2.09258 4.66022,-4.65882 0,-2.56766 -2.094,-4.66165 -4.66022,-4.66165 z"/><path style="fill:#bd9aff;fill-opacity:1;stroke-width:1.41391" id="path1000" d="m 118.82246,958.09136 c -2.56625,0 -4.66167,2.09399 -4.66167,4.66165 0,2.56482 2.094,4.65882 4.66167,4.65882 2.56481,0 4.66022,-2.09258 4.66022,-4.65882 -0.0523,-2.61997 -2.094,-4.66165 -4.66022,-4.66165 z"/><path style="fill:#97db99;fill-opacity:1;stroke-width:1.41391" id="path1002" d="m 118.82246,983.54167 c -2.56625,0 -4.66167,2.094 -4.66167,4.66166 0,2.56482 2.094,4.65882 4.66167,4.65882 2.56481,0 4.66022,-2.09259 4.66022,-4.65882 0,-2.56766 -2.094,-4.66166 -4.66022,-4.66166 z"/><path style="fill:#ff837d;fill-opacity:1;stroke-width:1.41391" id="path1004" d="m 118.82246,945.31247 c -2.56625,0 -4.66167,2.094 -4.66167,4.66165 0,2.56483 2.094,4.66024 4.66167,4.66024 2.56481,0 4.66022,-2.094 4.66022,-4.66024 -0.0523,-2.56624 -2.094,-4.66165 -4.66022,-4.66165 z"/><path style="fill:#f8c18c;fill-opacity:1;stroke-width:1.41391" id="path1006" d="m 118.82246,932.58731 c -2.56625,0 -4.66167,2.094 -4.66167,4.66165 0,2.56483 2.094,4.66024 4.66167,4.66024 2.56481,0 4.66022,-2.094 4.66022,-4.66024 -0.0523,-2.56624 -2.094,-4.66165 -4.66022,-4.66165 z"/><path style="fill:#f9de81;fill-opacity:1;stroke-width:1.41391" id="path1008" d="m 118.82246,919.86216 c -2.56625,0 -4.66167,2.09399 -4.66167,4.66164 0,2.56483 2.094,4.66024 4.66167,4.66024 2.56481,0 4.66022,-2.09399 4.66022,-4.66024 -0.0523,-2.56623 -2.094,-4.66164 -4.66022,-4.66164 z"/></g><style id="style853" type="text/css"/></svg>