<svg xmlns="http://www.w3.org/2000/svg" xmlns:svg="http://www.w3.org/2000/svg" id="svg2" width="192" height="192" version="1.1" viewBox="0 0 192 192"><metadata id="metadata7"/><g id="layer1" transform="translate(0,-860.36216)"><path style="fill:#fff;fill-opacity:1;stroke-width:19.241;stroke-linecap:round;stop-color:#000" id="path1076" d="M 87.203605,873.44153 11.458601,1004.6318 a 6.5295421,6.5295421 0 0 0 5.654705,9.7944 h 42.341185 l 28.80618,28.5696 a 4.7119607,4.7119607 0 0 0 8.030055,-3.3456 v -25.224 -36.63454 c 0,-4.93946 3.975464,-8.91493 8.914904,-8.91493 4.93946,0 8.91828,3.97547 8.91828,8.91493 v 36.63454 h 60.76267 a 6.5296641,6.5296641 0 0 0 5.65486,-9.7945 L 104.79941,873.44167 a 10.158975,10.158975 0 0 0 -17.595805,-1.4e-4 z"/><path style="fill:#99bdfe;fill-opacity:1;stroke-width:20.6536;stroke-linecap:round;stop-color:#000" id="path1078" d="m 96.090524,868.36306 a 10.158975,10.158975 0 0 0 -8.888021,5.07935 l -12.995877,22.50917 h 43.589644 l -12.99588,-22.50917 a 10.158975,10.158975 0 0 0 -8.709866,-5.07935 z"/></g><style id="style853" type="text/css"/></svg>