<svg xmlns="http://www.w3.org/2000/svg" xmlns:svg="http://www.w3.org/2000/svg" id="svg2" width="192" height="192" version="1.1" viewBox="0 0 192 192"><metadata id="metadata7"/><g id="layer1" transform="translate(0,-860.36216)"><rect style="fill:#f58f8a;fill-opacity:1" id="rect84" width="152" height="152" x="20" y="880.362" fill="#8e6f60" rx="10" ry="10"/><rect id="rect86" width="146" height="146" x="23" y="883.362" fill="#fff" rx="10" ry="10"/><path style="fill:#ffb0ac;fill-opacity:1" id="path88" fill="#d3b69a" fill-rule="evenodd" d="m 20,890.31676 c 0,-5.5229 4.4772,-9.9546 10,-9.9546 h 132 c 5.523,0 10,4.4772 10,10 v 112.00004 c 0,5.523 -4.477,10 -10,10 H 37.1016 c 0,0 -17.1016,-1 -17.1016,11 0,-44.51804 0,-108.62824 0,-133.04544 z" clip-rule="evenodd"/><path style="fill:#fff;fill-opacity:1;stroke-width:13.8079;stroke-linecap:round;stroke-linejoin:round;stop-color:#000" id="path1061" d="m 96.000004,918.79375 c -6.300193,0 -11.407119,5.10693 -11.407119,11.40712 0,2.27757 1.315168,5.62658 3.054026,8.97766 0.375676,0.72401 0.245405,0.81855 -0.327186,0.23751 -2.650188,-2.68932 -5.430401,-4.97437 -7.596642,-5.67822 -5.991825,-1.94685 -12.425982,1.33212 -14.372845,7.32394 -1.946883,5.99184 1.332105,12.42792 7.32394,14.37477 2.166291,0.70388 5.757459,0.48784 9.482058,-0.13053 0.804654,-0.13358 0.854314,0.0195 0.124775,0.38454 -3.376467,1.68935 -6.408209,3.62705 -7.747,5.46974 -3.703142,5.09695 -2.573586,12.23142 2.523374,15.93457 5.09695,3.70316 12.229498,2.57167 15.93264,-2.52529 1.338762,-1.84264 2.244557,-5.32441 2.807804,-9.05748 0.121693,-0.80654 0.282667,-0.80646 0.404301,1.7e-4 0.562902,3.73302 1.467181,7.2147 2.805914,9.05731 3.703156,5.09695 10.837616,6.22845 15.934566,2.52529 5.09696,-3.70315 6.22654,-10.83762 2.52338,-15.93457 -1.33881,-1.84272 -4.37062,-3.78045 -7.74716,-5.46982 -0.72945,-0.36497 -0.67964,-0.51803 0.1251,-0.38443 3.72454,0.61834 7.31563,0.83437 9.4819,0.1305 5.99183,-1.94686 9.2708,-8.38294 7.32394,-14.37477 -1.94686,-5.99183 -8.38103,-9.2708 -14.37285,-7.32394 -2.16628,0.70386 -4.94654,2.98898 -7.59677,5.67835 -0.57252,0.58097 -0.7027,0.4863 -0.32698,-0.23778 1.73882,-3.35104 3.05394,-6.69999 3.05394,-8.97752 0,-6.30019 -5.10692,-11.40712 -11.407106,-11.40712 z"/><path style="fill:#ffb0ac;fill-opacity:1;stroke-width:13.808;stroke-linecap:round;stroke-linejoin:round;stop-color:#000" id="circle1063" d="m 105.93684,951.02099 a 9.9369655,9.9369655 0 0 1 -9.936964,9.93697 9.9369655,9.9369655 0 0 1 -9.936964,-9.93697 9.9369655,9.9369655 0 0 1 9.936964,-9.93696 9.9369655,9.9369655 0 0 1 9.936964,9.93696 z"/></g><style id="style853" type="text/css"/></svg>