<svg xmlns="http://www.w3.org/2000/svg" xmlns:svg="http://www.w3.org/2000/svg" id="svg2" width="192" height="192" version="1.1" viewBox="0 0 192 192"><metadata id="metadata7"/><g id="layer1" transform="translate(0,-860.36216)"><circle id="circle913" cx="96" cy="956.362" r="88" style="fill:#ff837d;fill-opacity:1;fill-rule:evenodd;stroke:none;stroke-opacity:1"/><path style="fill:#fff;fill-opacity:1;stroke:none;stroke-width:5.70103;stroke-linecap:round;stroke-miterlimit:4;stroke-dasharray:none;stop-color:#000" id="path1107" d="m 135.20695,954.38573 -2.25871,3.23053 17.88138,12.50225 2.25785,-3.23113 a 3.0008019,3.0008019 0 0 0 -0.74028,-4.17814 l -12.96257,-9.06313 a 2.9999955,2.9999955 0 0 0 -4.17767,0.73962 z m -3.61454,5.16971 -22.47669,32.14737 3.67959,2.57267 22.47668,-32.14737 z m 5.61875,3.92849 -22.47669,32.14737 6.6439,4.6453 22.47668,-32.14742 z m 8.58306,6.00108 -22.47669,32.14739 3.67958,2.5727 22.47668,-32.14742 z m -38.03432,24.15696 1.07017,14.19553 a 2.4527771,2.4527771 0 0 0 3.11256,2.176 l 13.69865,-3.8693 z"/><text id="text1111" x="43.573" y="1010.106" xml:space="preserve" style="font-style:normal;font-variant:normal;font-weight:700;font-stretch:normal;font-size:92.6664px;line-height:1.25;font-family:Aleo;-inkscape-font-specification:'Aleo Bold';letter-spacing:0;word-spacing:0;fill:#fff;fill-opacity:1;stroke-width:.999993"><tspan style="font-style:normal;font-variant:normal;font-weight:700;font-stretch:normal;font-family:Aleo;-inkscape-font-specification:'Aleo Bold';fill:#fff;fill-opacity:1;stroke-width:.999993" id="tspan1109" x="43.573" y="1010.106">P</tspan></text></g><style id="style853" type="text/css"/><style id="style853-9" type="text/css"/><style id="style853-3" type="text/css"/><style id="style853-38" type="text/css"/><style id="style853-9-0" type="text/css"/><style id="style853-3-5" type="text/css"/></svg>