<svg xmlns="http://www.w3.org/2000/svg" xmlns:svg="http://www.w3.org/2000/svg" id="svg2" width="192" height="192" version="1.1" viewBox="0 0 192 192"><metadata id="metadata7"/><g id="layer1" transform="translate(0,-860.36216)"><path style="color:#000;font-style:normal;font-variant:normal;font-weight:400;font-stretch:normal;font-size:medium;line-height:normal;font-family:sans-serif;font-variant-ligatures:normal;font-variant-position:normal;font-variant-caps:normal;font-variant-numeric:normal;font-variant-alternates:normal;font-variant-east-asian:normal;font-feature-settings:normal;font-variation-settings:normal;text-indent:0;text-align:start;text-decoration:none;text-decoration-line:none;text-decoration-style:solid;text-decoration-color:#000;letter-spacing:normal;word-spacing:normal;text-transform:none;writing-mode:lr-tb;direction:ltr;text-orientation:mixed;dominant-baseline:auto;baseline-shift:baseline;text-anchor:start;white-space:normal;shape-padding:0;shape-margin:0;inline-size:0;clip-rule:nonzero;display:inline;overflow:visible;visibility:visible;isolation:auto;mix-blend-mode:normal;color-interpolation:sRGB;color-interpolation-filters:linearRGB;solid-color:#000;solid-opacity:1;vector-effect:none;fill:#ffb0ac;fill-opacity:1;fill-rule:nonzero;stroke:none;stroke-width:21;stroke-linecap:round;stroke-linejoin:miter;stroke-miterlimit:4;stroke-dasharray:none;stroke-dashoffset:0;stroke-opacity:1;color-rendering:auto;image-rendering:auto;shape-rendering:auto;text-rendering:auto;enable-background:accumulate;stop-color:#000" id="path3110" d="m 90.930046,879.72704 c -34.080409,0 -62.015824,27.93541 -62.015837,62.01582 v 73.86734 c 0,2.7614 2.014673,5.9759 4.499899,7.1797 7.830421,3.7929 15.660851,7.5857 23.491265,11.3786 2.485225,1.2038 4.499898,-0.059 4.499898,-2.8203 v -35.1355 c 8.794634,4.8046 18.858126,7.5434 29.524775,7.5434 34.080414,0 62.013174,-27.93281 62.013174,-62.01324 -2e-5,-34.08041 -27.93276,-62.01582 -62.013174,-62.01582 z m 0,28.57853 c 18.635434,0 33.434644,14.80186 33.434644,33.43729 0,18.63543 -14.79921,33.43465 -33.434644,33.43465 -18.635444,0 -33.437297,-14.79922 -33.437311,-33.43465 1.4e-5,-18.63543 14.80188,-33.43729 33.437311,-33.43729 z"/><circle id="circle3112" cx="150.576" cy="888.886" r="12.51" style="fill:#ffb0ac;fill-opacity:1;stroke:none;stroke-width:.993;stroke-linecap:round;stroke-opacity:1;stop-color:#000"/></g><style id="style853" type="text/css"/><style id="style853-9" type="text/css"/><style id="style853-3" type="text/css"/></svg>