<svg xmlns="http://www.w3.org/2000/svg" xmlns:svg="http://www.w3.org/2000/svg" id="svg2" width="192" height="192" version="1.1" viewBox="0 0 192 192"><defs id="defs4"><style id="style909"/></defs><metadata id="metadata7"/><g id="layer1" transform="translate(0,-860.36216)"><circle id="circle1121" cx="96" cy="956.362" r="88" style="fill:#f8c18c;fill-opacity:1;fill-rule:evenodd;stroke:none;stroke-opacity:1"/><circle id="path1083" cx="96" cy="956.362" r="75.386" style="fill:#8c72bd;fill-opacity:1;stroke:none;stroke-width:3.32055;stop-color:#000"/><path style="fill:#f8c18c;fill-opacity:1;stroke-width:.331574" id="path1069" d="M 86.185381,923.61913 H 74.746044 c -0.92841,0 -1.657876,-0.76262 -1.657876,-1.65788 v -8.35569 c 0,-0.92841 0.762623,-1.65787 1.657876,-1.65787 h 11.439337 c 0.92841,0 1.657875,0.76262 1.657875,1.65787 v 8.35569 c 0.03316,0.89526 -0.729465,1.65788 -1.657875,1.65788 z m 27.023359,0 h -11.43933 c -0.92841,0 -1.65788,-0.76262 -1.65788,-1.65788 v -8.35569 c 0,-0.92841 0.76262,-1.65787 1.65788,-1.65787 h 11.43933 c 0.92841,0 1.65788,0.76262 1.65788,1.65787 v 8.35569 c 0,0.89526 -0.72947,1.65788 -1.65788,1.65788 z M 62.477768,956.67716 H 47.424263 v -10.70988 c 0,0 0.596837,-14.78824 14.489829,-14.98718 h 63.463458 v -8.72043 h 15.11981 v 8.42201 c 0,0 -0.39789,15.21929 -14.39035,15.41823 l -11.20724,0.29842 0.16579,51.79202 c 0,0 0.16579,0.86208 -0.86209,1.42577 l -11.67144,4.14468 c 0,0 -2.586287,1.0611 -2.68576,-1.5584 V 946.16623 H 88.174831 v 51.4936 c 0,0 0.331575,1.52523 -1.359458,2.25471 l -10.709871,3.77996 c 0,0 -3.348908,1.26 -3.31575,-2.0889 V 946.06676 H 62.544084 Z"/></g><style id="style853" type="text/css"/><style id="style853-9" type="text/css"/><style id="style853-3" type="text/css"/></svg>