<svg xmlns="http://www.w3.org/2000/svg" xmlns:svg="http://www.w3.org/2000/svg" id="svg2" width="192" height="192" version="1.1" viewBox="0 0 192 192"><metadata id="metadata7"/><g id="layer1" transform="translate(0,-860.36216)"><rect id="rect1006" width="152" height="152" x="20" y="880.362" rx="9.935" ry="9.935" style="fill:#97db99;fill-opacity:1;fill-rule:evenodd;stroke:none;stroke-width:.993464;stroke-opacity:1"/><path style="font-style:normal;font-variant:normal;font-weight:700;font-stretch:normal;font-size:118.039px;line-height:1.25;font-family:Now;-inkscape-font-specification:'Now Bold';letter-spacing:0;word-spacing:0;fill:#fff;fill-opacity:1;stroke-width:1.99945" id="path992" d="m 72.696422,935.97622 v 11.5965 h 10.197727 c 4.198837,0 7.397516,2.6993 7.397516,6.59821 0,3.99889 -3.198679,6.59822 -7.397516,6.59822 H 72.696422 V 947.57272 H 59.499997 v 40.96424 h 13.196425 v -16.87004 h 12.296552 c 10.097205,0 17.895636,-7.49803 17.895636,-17.59523 0,-9.99723 -7.798431,-18.09547 -17.895636,-18.09547 z"/><rect id="rect994" width="22.616" height="22.616" x="109.884" y="924.187" rx="1" ry="1" style="fill:#fff;fill-opacity:1;stroke:none;stroke-width:4.26782;stroke-linecap:square;stop-color:#000"/><rect id="rect996" width="15.077" height="15.077" x="113.653" y="927.957" rx="1" ry="1" style="fill:#97db99;fill-opacity:1;stroke:none;stroke-width:2.84521;stroke-linecap:square;stop-color:#000"/><rect id="rect998" width="8.376" height="8.376" x="117.004" y="931.307" rx="1" ry="1" style="fill:#fff;fill-opacity:1;stroke:none;stroke-width:1.58067;stroke-linecap:square;stop-color:#000"/></g><style id="style853" type="text/css"/><style id="style853-9" type="text/css"/><style id="style853-3" type="text/css"/></svg>