<svg xmlns="http://www.w3.org/2000/svg" xmlns:xlink="http://www.w3.org/1999/xlink" id="Layer_1" width="192" height="192" x="0" y="0" enable-background="new 0 0 192 192" version="1.1" viewBox="0 0 192 192" xml:space="preserve"><g><path fill="none" stroke="red" stroke-miterlimit="10" d="M63.656,37.915"/><g><path fill="#FDC394" d="M150.333,7.083c-4.646-0.048-11.904,1.538-22.454,6.059c-9.332,4-24.248,5.207-31.171,5.561H56.099 c-23.621,0-42.769,19.148-42.769,42.77v81.252c0,23.62,19.148,42.769,42.769,42.769h81.252c23.621,0,42.77-19.148,42.77-42.769 V76.839l0.15,0.1V37.021C180.271,20.487,167.44,7.262,150.333,7.083z M96.726,152.705c-27.753,0-50.251-22.498-50.251-50.251 c0-27.752,22.498-50.25,50.251-50.25s50.25,22.498,50.25,50.25C146.977,130.207,124.479,152.705,96.726,152.705z M150.543,47.211 c-5.904,0-10.691-4.787-10.691-10.692s4.787-10.692,10.691-10.692c5.906,0,10.692,4.787,10.692,10.692 S156.449,47.211,150.543,47.211z"/></g><circle cx="96.726" cy="102.454" r="35.283" fill="#56595B"/></g></svg>