<svg xmlns="http://www.w3.org/2000/svg" xmlns:svg="http://www.w3.org/2000/svg" id="svg2" width="192" height="192" version="1.1" viewBox="0 0 192 192"><metadata id="metadata7"/><g id="layer1" transform="translate(0,-860.36216)"><path style="fill:#99bdfe;fill-opacity:1;stroke:none;stroke-width:97.0142;stroke-linecap:round;stroke-linejoin:round;stop-color:#000" id="path1061" d="m 172.5,911.99499 -76.500027,44.16795 v 76.69916 h 66.499997 c 5.53998,0 10.00003,-4.46 10.00003,-10 z"/><path style="fill:#97dc98;fill-opacity:1;stroke:none;stroke-width:97.0142;stroke-linecap:round;stroke-linejoin:round;stop-color:#000" id="path1035" d="m 29.500025,879.86219 c -5.540027,0 -10.000026,4.45999 -10.000026,9.99999 v 22.13281 L 95.999973,956.16294 172.5,911.99499 v -22.13281 c 0,-5.54 -4.46005,-9.99999 -10.00003,-9.99999 z"/><path style="fill:#bd9aff;fill-opacity:1;stroke:none;stroke-width:97.0142;stroke-linecap:round;stroke-linejoin:round;stop-color:#000" id="path1039" d="m 19.499999,911.99499 v 110.86711 c 0,5.54 4.459999,10 10.000026,10 h 66.499948 v -76.69916 z"/><path style="fill:#fff;fill-opacity:1;stroke-width:.0726755;stroke-linecap:round;stroke-linejoin:round;stop-color:#000" id="path1041" d="m 96.007164,918.38298 c -1.306058,-10e-4 -2.589422,0.34146 -3.720703,0.99414 L 66.001324,934.5529 c -1.129139,0.65197 -2.066774,1.58963 -2.718758,2.71874 l 32.718733,18.89063 32.718731,-18.89063 c -0.65198,-1.12911 -1.58962,-2.06677 -2.71876,-2.71874 L 99.716138,919.37712 c -1.127864,-0.65069 -2.406893,-0.99352 -3.708974,-0.99414 z"/><path style="fill:#ececec;fill-opacity:1;stroke-width:.0726755;stroke-linecap:round;stroke-linejoin:round;stop-color:#000" id="path1043" d="m 128.7158,975.0563 c 0.65387,-1.13058 0.99899,-2.41322 0.9994,-3.71928 l -6e-5,-30.3515 c -5e-5,-1.30383 -0.34323,-2.5847 -0.99511,-3.71388 l -32.719139,18.88995 4.08e-4,37.78057 c 1.303815,-7e-5 2.58468,-0.34326 3.71387,-0.99513 L 126.00036,977.7713 c 1.12745,-0.65139 2.06386,-1.58767 2.71544,-2.715 z"/><path style="fill:#d8d8d8;fill-opacity:1;stroke-width:.0726755;stroke-linecap:round;stroke-linejoin:round;stop-color:#000" id="path1045" d="m 63.284096,975.0563 c -0.65387,-1.13058 -0.998987,-2.41322 -0.999395,-3.71928 l 5.1e-5,-30.3515 c 5.1e-5,-1.30383 0.343281,-2.5847 0.995111,-3.71388 l 32.719141,18.88995 -4.08e-4,37.78057 c -1.303814,-7e-5 -2.584679,-0.34326 -3.713869,-0.99513 L 65.999539,977.7713 c -1.127405,-0.65139 -2.063867,-1.58767 -2.715443,-2.715 z"/></g><style id="style853" type="text/css"/></svg>