<svg xmlns="http://www.w3.org/2000/svg" xmlns:svg="http://www.w3.org/2000/svg" id="svg2" width="192" height="192" version="1.1" viewBox="0 0 192 192"><metadata id="metadata8"/><g id="g4169"><rect id="rect3338" width="152" height="152" x="20" y="20" rx="12" ry="12" style="opacity:1;fill:#9abeff;fill-rule:evenodd;stroke:none;stroke-width:1px;stroke-linecap:butt;stroke-linejoin:miter;stroke-opacity:1"/><path id="path2996" d="m 99.882231,66.000815 c -0.285506,-0.002 -0.572873,-2e-5 -0.861861,0.005 -9.888503,0.18834 -21.753594,4.83168 -34.823721,16.44055 a 0.5710621,0.58394647 0 0 0 -0.14409,0.68562 l 3.461718,7.67082 a 0.5710621,0.58394647 0 0 0 0.80476,0.26047 l 1.884317,-1.11668 a 0.5710621,0.58394647 0 0 0 0.28461,-0.50543 l 0,-3.80303 c 0.964998,-1.95126 2.281333,-3.67687 4.603728,-5.02052 l 0,42.637935 -1.020672,0 a 0.5710621,0.58394647 0 0 0 -0.571005,0.5894 l 0.01427,1.5765 a 0.5710621,0.58394647 0 0 0 0.571005,0.5785 l 10.791996,0 a 0.5710621,0.58394647 0 0 0 0.571004,-0.584 l 0,-1.5327 a 0.5710621,0.58394647 0 0 0 -0.571004,-0.5838 l -1.049224,0 0,-9.8609 c 14.772095,3.2699 25.489628,2.0862 32.680668,-1.6714 7.30698,-3.8182 10.93929,-10.2941 11.43215,-17.147995 0.97031,-13.4938 -10.07167,-28.4894 -28.058654,-28.61869 z m -1.304837,5.43518 c 7.113726,0.051 12.429666,3.26877 15.786056,7.83597 3.35639,4.56719 4.7247,10.49956 3.836,15.92049 -0.88871,5.421095 -3.99727,10.317995 -9.65177,12.945895 -5.58715,2.5966 -13.732114,2.9588 -24.719612,-0.7941 l 0,-32.093355 c 5.534796,-2.70138 10.476234,-3.84554 14.749326,-3.8149 z" style="fill:#fff;fill-opacity:1;stroke:none;stroke-width:5;stroke-linecap:round;stroke-linejoin:round;stroke-miterlimit:4;stroke-dasharray:none;stroke-opacity:1"/></g></svg>