<svg xmlns="http://www.w3.org/2000/svg" xmlns:svg="http://www.w3.org/2000/svg" id="svg2" width="192" height="192" version="1.1" viewBox="0 0 192 192"><metadata id="metadata7"/><g id="layer1" transform="translate(0,-860.36216)"><rect id="rect948" width="153" height="153" x="19.5" y="879.862" rx="10" style="fill:#56595b;fill-opacity:1;fill-rule:evenodd;stroke:none;stroke-opacity:1"/><path style="fill:#f8c18c;fill-opacity:1;stroke-width:.194132" id="path944" d="M 119.54257,955.47285 99.73914,927.19619 a 2.0905872,2.0905872 0 0 0 -1.70778,-0.89131 l -4.51154,-0.01 a 326.63695,326.63695 0 0 0 -2.17046,0.002 l -1.17056,0.005 a 0.56793129,0.56793129 0 0 0 -0.46267,0.89372 l 19.80323,28.27665 a 1.5499553,1.5499553 0 0 1 0,1.77797 l -17.46495,24.95012 a 2.0843387,2.0843387 0 0 1 -1.70757,0.88906 H 89.1763 a 0.56503199,0.56503199 0 0 1 -0.46289,-0.88906 l 17.46494,-24.95012 a 1.5499552,1.5499552 0 0 0 0,-1.77796 L 86.37511,927.19618 a 2.0905763,2.0905763 0 0 0 -1.70776,-0.89131 l -4.51156,-0.01 a 326.64983,326.64983 0 0 0 -2.17044,0.002 l -1.17077,0.005 a 0.56759809,0.56759809 0 0 0 -0.46224,0.89342 l 17.48174,24.93626 a 0.56454055,0.56454055 0 0 1 -0.46226,0.88861 H 59.58523 A 1.0852272,1.0852272 0 0 0 58.5,954.10538 v 1.17055 a 1.0852272,1.0852272 0 0 0 1.08523,1.08523 h 39.44863 a 0.56486713,0.56486713 0 0 0 0.46267,-0.88891 L 82.0225,930.52185 a 0.56486713,0.56486713 0 0 1 0.46267,-0.88891 h 1.17056 a 2.0849465,2.0849465 0 0 1 1.70776,0.88891 l 17.47406,24.95042 a 1.5499343,1.5499343 0 0 1 0,1.77796 L 83.0339,985.54135 a 0.56502869,0.56502869 0 0 0 0.46291,0.88905 h 7.85255 a 2.084339,2.084339 0 0 0 1.70755,-0.88905 l 19.80367,-28.29113 a 1.5499582,1.5499582 0 0 0 0,-1.77797 L 95.3867,930.52185 a 0.56487406,0.56487406 0 0 1 0.46269,-0.88891 h 1.17054 a 2.0849334,2.0849334 0 0 1 1.70779,0.88891 l 17.47383,24.95041 a 1.5499429,1.5499429 0 0 1 0,1.77797 l -19.80384,28.29112 a 0.56502877,0.56502877 0 0 0 0.46289,0.88905 h 7.85257 a 2.0819945,2.0819945 0 0 0 1.70673,-0.88962 l 17.43011,-24.94898 a 2.0819945,2.0819945 0 0 1 1.70675,-0.88963 h 6.85802 A 1.0852272,1.0852272 0 0 0 133.5,958.61695 v -1.17055 a 1.0852272,1.0852272 0 0 0 -1.08522,-1.08523 h -7.82324 a 2.0843512,2.0843512 0 0 0 -1.70757,0.88906 l -17.46515,24.95012 a 2.0843512,2.0843512 0 0 1 -1.70756,0.88905 h -1.17055 a 0.56503232,0.56503232 0 0 1 -0.46288,-0.88905 l 17.46493,-24.95013 a 1.5499489,1.5499489 0 0 0 0,-1.77797 z"/></g><style id="style853" type="text/css"/><style id="style853-9" type="text/css"/><style id="style853-3" type="text/css"/></svg>