<svg xmlns="http://www.w3.org/2000/svg" xmlns:svg="http://www.w3.org/2000/svg" id="svg2" width="192" height="192" version="1.1" viewBox="0 0 192 192"><metadata id="metadata7"/><g id="layer1" transform="translate(0,-860.36216)"><path style="fill:#fff;fill-opacity:1;stroke:none;stroke-width:4.3409;stroke-linecap:round;stroke-linejoin:round;stop-color:#000" id="path1199" d="m 181.52453,952.0882 a 72.62603,72.62603 0 0 1 -70.15135,53.829 72.62603,72.62603 0 0 1 -70.151362,-53.829"/><path style="fill:none;fill-opacity:1;stroke:#fff;stroke-width:14.8922;stroke-linecap:square;stroke-linejoin:round;stroke-miterlimit:4;stroke-dasharray:none;stroke-opacity:1;stop-color:#000" id="path1201" d="m 982.05794,60.899846 a 24.063234,22.18726 0 0 1 -5.37182,28.090057 24.063234,22.18726 0 0 1 -30.9351,10e-7 24.063234,22.18726 0 0 1 -5.37183,-28.090056" transform="matrix(0.1143158,0.99344446,-0.99988733,0.0150112,0,0)"/><path id="path1203" d="m 39.012124,916.73274 c -0.717514,11.7792 0.02312,27.19568 2.209732,35.3562 H 181.52536 c 2.18661,-8.16052 2.9272,-23.57702 2.20966,-35.35622 -0.33556,-5.5086 -5.63266,-9.92565 -11.15551,-9.92565 H 50.167623 c -5.522847,0 -10.819949,4.41706 -11.155499,9.92567 z" style="fill:#ff837d;fill-opacity:1;stroke:none;stroke-width:4.3409;stroke-linecap:round;stroke-linejoin:round;stop-color:#000"/><path id="path1207" fill="#fff" stroke="#56595b" stroke-width="16.506" d="m 111.12556,972.08689 c 10.9393,0 19.8071,-8.86781 19.8071,-19.8071 0,-10.93913 -8.8678,-19.8071 -19.8071,-19.8071 -10.93913,0 -19.807094,8.86797 -19.807094,19.8071 0,10.93929 8.867964,19.8071 19.807094,19.8071 z"/><path id="path1209" d="m 126.80759,944.02781 v 16.50591 h 51.88882 c 0.13023,-0.32146 0.25807,-0.64385 0.38368,-0.96714 l 0.0206,-0.0548 0.0355,-0.0935 c 0.1422,-0.36799 0.28134,-0.73713 0.41752,-1.10738 l 0.008,-0.0177 v -0.003 c 0.2041,-0.55796 0.40126,-1.11841 0.59157,-1.68122 0.0182,-0.0526 0.0363,-0.10529 0.0545,-0.15796 0.0677,-0.20012 0.13411,-0.40054 0.19989,-0.60124 l 0.008,-0.0161 c 0.0652,-0.20067 0.12982,-0.40162 0.19345,-0.60285 l 0.008,-0.0177 c 0.0644,-0.20121 0.12768,-0.4027 0.19023,-0.60446 l 0.008,-0.0161 c 0.0619,-0.20176 0.12231,-0.40379 0.18214,-0.60608 l 0.008,-0.0177 c 0.0602,-0.2023 0.12017,-0.40486 0.17893,-0.60768 l 0.008,-0.0177 c 0.1181,-0.41109 0.23249,-0.82322 0.34332,-1.23633 l -0.0119,-0.0178 c 0.59495,-2.22065 1.08378,-4.98537 1.4644,-8.06114 z" style="fill:#56595b;fill-opacity:1;stroke:none;stroke-width:4.3409;stroke-linecap:round;stroke-linejoin:round;stop-color:#000"/><path id="path1211" d="m 95.938967,944.0278 v 16.50592 H 44.050145 c -0.130232,-0.32146 -0.25807,-0.64385 -0.38368,-0.96714 l -0.02063,-0.0548 -0.03549,-0.0935 c -0.142198,-0.36799 -0.281343,-0.73713 -0.417517,-1.10738 l -0.0083,-0.0178 v -0.003 c -0.204095,-0.55796 -0.401259,-1.11841 -0.591572,-1.68122 -0.01816,-0.0527 -0.03631,-0.10529 -0.05447,-0.15797 -0.06768,-0.20011 -0.134111,-0.40053 -0.199887,-0.60123 l -0.0083,-0.0161 c -0.0652,-0.20067 -0.129819,-0.40162 -0.193449,-0.60285 l -0.0083,-0.0177 c -0.06437,-0.20121 -0.127673,-0.40271 -0.190231,-0.60447 l -0.0083,-0.0161 c -0.0619,-0.20176 -0.122309,-0.40379 -0.182143,-0.60608 l -0.0083,-0.0177 c -0.06025,-0.2023 -0.120163,-0.40487 -0.178924,-0.60769 l -0.0083,-0.0177 c -0.118099,-0.41109 -0.232485,-0.82321 -0.343323,-1.23632 l 0.01155,-0.0178 c -0.594955,-2.22064 -1.083778,-4.98536 -1.464404,-8.06114 z" style="fill:#56595b;fill-opacity:1;stroke:none;stroke-width:4.3409;stroke-linecap:round;stroke-linejoin:round;stop-color:#000"/></g><style id="style853" type="text/css"/></svg>