<svg xmlns="http://www.w3.org/2000/svg" xmlns:svg="http://www.w3.org/2000/svg" id="svg2" width="192" height="192" version="1.1" viewBox="0 0 192 192"><metadata id="metadata7"/><g id="layer1" transform="translate(0,-860.36216)"><g id="g1273" transform="translate(-734.28193,182.99008)"><path style="fill:#ff837d;fill-opacity:1;fill-rule:evenodd;stroke:none;stroke-opacity:1" id="path1261" d="m 830.15888,696.87282 c -2.60903,0.0322 -5.10215,1.08285 -6.94727,2.92774 l -62.35937,62.35742 c -4.52755,4.52796 -7.07083,10.66908 -7.07031,17.07228 v 6.46255 h 153 v -6.46255 c 5.2e-4,-6.4032 -2.54276,-12.54432 -7.07031,-17.07228 l -62.35938,-62.35742 c -1.90542,-1.90518 -4.49906,-2.96081 -7.19336,-2.92774 z"/><path style="fill:#fff;fill-opacity:1;fill-rule:evenodd;stroke:none;stroke-opacity:1" id="path1263" d="m 753.78193,789.83498 v 50.03711 c 0,5.52285 4.47715,10 10,10 h 133 c 5.52285,0 10,-4.47715 10,-10 v -50.03711 z"/><rect id="rect1265" width="59.186" height="20" x="753.782" y="779.84" style="fill:#56595b;fill-opacity:1;stroke-width:15.0564;stroke-linejoin:round;stroke-miterlimit:4;stroke-dasharray:none;stop-color:#000"/><rect id="rect1267" width="59.186" height="20" x="847.596" y="779.84" style="fill:#56595b;fill-opacity:1;stroke-width:15.0564;stroke-linejoin:round;stroke-miterlimit:4;stroke-dasharray:none;stop-color:#000"/><path id="path1269" fill="#fff" stroke="#56595b" stroke-width="8.295" d="m 830.28193,799.79479 c 5.49781,0 9.95455,-4.45674 9.95455,-9.95455 0,-5.49773 -4.45674,-9.95454 -9.95455,-9.95454 -5.49773,0 -9.95455,4.45681 -9.95455,9.95454 0,5.49781 4.45682,9.95455 9.95455,9.95455 z"/><path style="stroke-width:20;stroke-miterlimit:4;stroke-dasharray:none" id="path1271" fill="#fff" stroke="#56595b" stroke-width="17.839" d="m 830.28192,811.24676 c 11.82264,0 21.40654,-9.58389 21.40654,-21.40653 0,-11.82246 -9.5839,-21.4065 -21.40654,-21.4065 -11.82246,0 -21.40651,9.58404 -21.40651,21.4065 0,11.82264 9.58405,21.40653 21.40651,21.40653 z"/></g></g><style id="style853" type="text/css"/></svg>