<svg xmlns="http://www.w3.org/2000/svg" xmlns:svg="http://www.w3.org/2000/svg" id="svg2" width="192" height="192" version="1.1" viewBox="0 0 192 192"><metadata id="metadata7"/><g id="layer1" transform="translate(0,-860.36216)"><circle id="circle919-3" cx="96" cy="956.362" r="88" style="fill:#545859;fill-opacity:1;fill-rule:evenodd;stroke:none;stroke-opacity:1"/><g id="g1035" transform="matrix(0.54639705,0,0,0.54639705,46.551067,433.80861)"><circle id="path921-6" cx="87" cy="956.362" r="58.301" style="opacity:1;fill:none;stroke:#fe827c;stroke-width:10;stroke-linecap:round;stroke-linejoin:round;stroke-opacity:1;stop-color:#000"/><circle id="circle923-7" cx="94" cy="956.362" r="58.301" style="opacity:1;fill:none;stroke:#95ded2;stroke-width:10;stroke-linecap:round;stroke-linejoin:round;stroke-opacity:1;stop-color:#000"/><path id="path1016-5" d="m 87,893.06055 c -34.901086,0 -63.300782,28.39969 -63.300781,63.30078 1.1e-5,34.90108 28.399703,63.30277 63.300781,63.30277 34.90108,0 63.30077,-28.40169 63.30078,-63.30277 0,-34.90109 -28.39969,-63.30078 -63.30078,-63.30078 z m 0,10 c 29.49669,0 53.30078,23.80409 53.30078,53.30078 -1e-5,29.49668 -23.8041,53.30277 -53.30078,53.30277 -29.496678,0 -53.300772,-23.80609 -53.300781,-53.30277 C 33.699218,926.86464 57.503315,903.06055 87,903.06055 Z" style="color:#000;font-style:normal;font-variant:normal;font-weight:400;font-stretch:normal;font-size:medium;line-height:normal;font-family:sans-serif;font-variant-ligatures:normal;font-variant-position:normal;font-variant-caps:normal;font-variant-numeric:normal;font-variant-alternates:normal;font-variant-east-asian:normal;font-feature-settings:normal;font-variation-settings:normal;text-indent:0;text-align:start;text-decoration:none;text-decoration-line:none;text-decoration-style:solid;text-decoration-color:#000;letter-spacing:normal;word-spacing:normal;text-transform:none;writing-mode:lr-tb;direction:ltr;text-orientation:mixed;dominant-baseline:auto;baseline-shift:baseline;text-anchor:start;white-space:normal;shape-padding:0;shape-margin:0;inline-size:0;clip-rule:nonzero;display:inline;overflow:visible;visibility:visible;opacity:1;isolation:auto;mix-blend-mode:normal;color-interpolation:sRGB;color-interpolation-filters:linearRGB;solid-color:#000;solid-opacity:1;vector-effect:none;fill:#fe827c;fill-opacity:1;fill-rule:nonzero;stroke:none;stroke-width:10;stroke-linecap:round;stroke-linejoin:round;stroke-miterlimit:4;stroke-dasharray:none;stroke-dashoffset:0;stroke-opacity:1;color-rendering:auto;image-rendering:auto;shape-rendering:auto;text-rendering:auto;enable-background:accumulate;stop-color:#000;stop-opacity:1"/><path id="path1021-3" d="m 94,893.06055 c -34.901086,0 -63.300782,28.39969 -63.300781,63.30078 1.1e-5,34.90108 28.399703,63.30277 63.300781,63.30277 34.90108,0 63.30077,-28.40169 63.30078,-63.30277 0,-34.90109 -28.39969,-63.30078 -63.30078,-63.30078 z m 0,10 c 29.49669,0 53.30078,23.80409 53.30078,53.30078 -1e-5,29.49668 -23.8041,53.30277 -53.30078,53.30277 -29.496678,0 -53.300772,-23.80609 -53.300781,-53.30277 C 40.699218,926.86464 64.503315,903.06055 94,903.06055 Z" style="color:#000;font-style:normal;font-variant:normal;font-weight:400;font-stretch:normal;font-size:medium;line-height:normal;font-family:sans-serif;font-variant-ligatures:normal;font-variant-position:normal;font-variant-caps:normal;font-variant-numeric:normal;font-variant-alternates:normal;font-variant-east-asian:normal;font-feature-settings:normal;font-variation-settings:normal;text-indent:0;text-align:start;text-decoration:none;text-decoration-line:none;text-decoration-style:solid;text-decoration-color:#000;letter-spacing:normal;word-spacing:normal;text-transform:none;writing-mode:lr-tb;direction:ltr;text-orientation:mixed;dominant-baseline:auto;baseline-shift:baseline;text-anchor:start;white-space:normal;shape-padding:0;shape-margin:0;inline-size:0;clip-rule:nonzero;display:inline;overflow:visible;visibility:visible;opacity:1;isolation:auto;mix-blend-mode:normal;color-interpolation:sRGB;color-interpolation-filters:linearRGB;solid-color:#000;solid-opacity:1;vector-effect:none;fill:#95ded2;fill-opacity:1;fill-rule:nonzero;stroke:none;stroke-width:10;stroke-linecap:round;stroke-linejoin:round;stroke-miterlimit:4;stroke-dasharray:none;stroke-dashoffset:0;stroke-opacity:1;color-rendering:auto;image-rendering:auto;shape-rendering:auto;text-rendering:auto;enable-background:accumulate;stop-color:#000;stop-opacity:1"/><path style="color:#000;font-style:normal;font-variant:normal;font-weight:400;font-stretch:normal;font-size:medium;line-height:normal;font-family:sans-serif;font-variant-ligatures:normal;font-variant-position:normal;font-variant-caps:normal;font-variant-numeric:normal;font-variant-alternates:normal;font-variant-east-asian:normal;font-feature-settings:normal;font-variation-settings:normal;text-indent:0;text-align:start;text-decoration:none;text-decoration-line:none;text-decoration-style:solid;text-decoration-color:#000;letter-spacing:normal;word-spacing:normal;text-transform:none;writing-mode:lr-tb;direction:ltr;text-orientation:mixed;dominant-baseline:auto;baseline-shift:baseline;text-anchor:start;white-space:normal;shape-padding:0;shape-margin:0;inline-size:0;clip-rule:nonzero;display:inline;overflow:visible;visibility:visible;opacity:1;isolation:auto;mix-blend-mode:normal;color-interpolation:sRGB;color-interpolation-filters:linearRGB;solid-color:#000;solid-opacity:1;vector-effect:none;fill:#ffffea;fill-opacity:1;fill-rule:nonzero;stroke:none;stroke-width:10;stroke-linecap:round;stroke-linejoin:round;stroke-miterlimit:4;stroke-dasharray:none;stroke-dashoffset:0;stroke-opacity:1;color-rendering:auto;image-rendering:auto;shape-rendering:auto;text-rendering:auto;enable-background:accumulate;stop-color:#000;stop-opacity:1" id="path1023" d="M 90.5,32.800781 C 57.220823,34.624555 30.699218,62.27384 30.699219,96 30.699229,129.72615 57.220831,157.37532 90.5,159.19922 123.77917,157.37532 150.30077,129.72615 150.30078,96 150.30078,62.27384 123.77918,34.624555 90.5,32.800781 Z M 87,42.699219 c 1.177444,0 2.34185,0.05029 3.5,0.125 1.15815,-0.07471 2.322556,-0.125 3.5,-0.125 29.49669,0 53.30078,23.804091 53.30078,53.300781 -1e-5,29.49668 -23.8041,53.30273 -53.30078,53.30273 -1.177444,0 -2.34185,-0.0522 -3.5,-0.12695 -1.15815,0.0747 -2.322556,0.12695 -3.5,0.12695 C 57.503322,149.30273 33.699228,125.49668 33.699219,96 33.699218,66.50331 57.503315,42.699219 87,42.699219 Z" transform="translate(0,860.36216)"/></g></g><style id="style853" type="text/css"/></svg>