<svg xmlns="http://www.w3.org/2000/svg" xmlns:svg="http://www.w3.org/2000/svg" id="svg2" width="192" height="192" version="1.1" viewBox="0 0 192 192"><defs id="defs4"><style id="style905"/></defs><metadata id="metadata7"/><g id="layer1" transform="translate(0,-860.36216)"><circle id="circle1011" cx="96" cy="956.362" r="88" style="fill:#b96460;fill-opacity:1;fill-rule:evenodd;stroke:none;stroke-opacity:1"/><path id="path1046" d="m 107.38785,919.86473 c -11.520463,0.0133 -20.856318,9.34919 -20.869645,20.86965 v 30.80436 a 2,2 45 0 0 2,2 h 3.717252 a 2,2 135 0 0 2,-2 v -30.80436 c -0.0016,-11.53476 13.786353,-17.48306 22.176543,-9.56926 8.39019,7.91381 3.25711,22.02559 -8.25807,22.69745 v 7.73338 c 11.49337,-0.26387 20.60885,-9.77311 20.38674,-21.26735 -0.22211,-11.49424 -9.69816,-20.64422 -21.19314,-20.46387 z" style="fill:#fefefe;fill-opacity:1;stroke-width:.8064"/><path id="path977" d="m 97.477186,971.99852 c 0.0016,11.53476 -13.786363,17.48304 -22.176548,9.56924 -8.390186,-7.9138 -3.257102,-22.02558 8.258077,-22.69744 v -7.73338 c -18.396017,0.67574 -26.969285,23.10218 -13.719089,35.87827 13.250197,12.7761 35.349524,3.39173 35.354814,-15.01669 v -30.78018 a 2,2 45 0 0 -2,-2 h -3.725318 a 1.9995081,1.9995081 134.99295 0 0 -1.999508,2 z" style="fill:#fefefe;fill-opacity:1;stroke-width:.8064"/></g><style id="style853" type="text/css"/></svg>