<svg xmlns="http://www.w3.org/2000/svg" xmlns:xlink="http://www.w3.org/1999/xlink" width="100%" height="100%" version="1.1" viewBox="0 0 192 192" xml:space="preserve" style="fill-rule:evenodd;clip-rule:evenodd;stroke-linejoin:round;stroke-miterlimit:2"><g id="Layer1"><g><path d="M164.5,21.5C164.5,15.981 160.019,11.5 154.5,11.5L21.5,11.5C15.981,11.5 11.5,15.981 11.5,21.5L11.5,154.5C11.5,160.019 15.981,164.5 21.5,164.5L154.5,164.5C160.019,164.5 164.5,160.019 164.5,154.5L164.5,21.5Z" transform="matrix(1,0,0,1,8,8)" style="fill:#4a4a4a"/></g><g><g><path d="M71.403,125.652L96,100.553L120.597,125.652L120.597,164.994L71.403,164.994L71.403,125.652Z" transform="matrix(0.633464,0,0,0.633464,35.1874,35.1874) matrix(0.975827,-0.218544,0.218544,0.975827,-18.6597,23.3009)" style="fill:#9abeff"/></g><g><path d="M71.403,125.652L96,100.553L120.597,125.652L120.597,164.994L71.403,164.994L71.403,125.652Z" transform="matrix(0.633464,0,0,0.633464,35.1874,35.1874) matrix(-0.218544,-0.975827,0.975827,-0.218544,23.3009,210.66)" style="fill:#9abeff"/></g><g><path d="M71.403,125.652L96,100.553L120.597,125.652L120.597,164.994L71.403,164.994L71.403,125.652Z" transform="matrix(0.633464,0,0,0.633464,35.1874,35.1874) matrix(-0.975827,0.218544,-0.218544,-0.975827,210.66,168.699)" style="fill:#9abeff"/></g><g><path d="M71.403,125.652L96,100.553L120.597,125.652L120.597,164.994L71.403,164.994L71.403,125.652Z" transform="matrix(0.633464,0,0,0.633464,35.1874,35.1874) matrix(0.218544,0.975827,-0.975827,0.218544,168.699,-18.6597)" style="fill:#9abeff"/></g></g></g></svg>