<svg xmlns="http://www.w3.org/2000/svg" xmlns:xlink="http://www.w3.org/1999/xlink" id="Layer_1" width="192" height="192" x="0" y="0" enable-background="new 0 0 192 192" version="1.1" viewBox="0 0 192 192" xml:space="preserve"><g><path fill="#87DCA4" d="M181.748,178.699c0,1.823-1.479,3.301-3.302,3.301H14.049c-1.823,0-3.301-1.478-3.301-3.301V14.301 c0-1.823,1.478-3.301,3.301-3.301h164.397c1.823,0,3.302,1.478,3.302,3.301V178.699z"/><path fill="#6AA175" d="M81.643,49c-16.05,0-28.975,12.992-28.975,29.029C52.667,93.766,65,106.583,81,107.06V144h14V63h16v81h14 V63h15V49H81.643z M81,93.332c-9,0-14.255-6.856-14.255-15.311C66.745,69.566,72,62.709,81,62.709V93.332z"/></g></svg>