<svg xmlns="http://www.w3.org/2000/svg" xmlns:svg="http://www.w3.org/2000/svg" id="svg2" width="192" height="192" version="1.1" viewBox="0 0 192 192"><metadata id="metadata7"/><g id="layer1" transform="translate(0,-860.36216)"><g id="g1236" transform="translate(209.90005,-211.9125)"><rect id="rect1134" width="153" height="153" x="-190.4" y="1091.775" rx="10" ry="10" style="fill:#fe837e;fill-opacity:1;fill-rule:evenodd;stroke:none;stroke-opacity:1"/><rect style="fill:#979797;fill-opacity:1;fill-rule:evenodd;stroke:none;stroke-width:.573626;stroke-opacity:1" id="rect1091" width="21.455" height="50.338" x="1131.471" y="88.731" rx="5.907" ry="5.57" transform="rotate(90)"/><rect id="rect4196" width="43.223" height="85.507" x="1148.807" y="71.147" rx="5.907" ry="5.907" transform="rotate(90)" style="fill:#cdcdcd;fill-opacity:1;fill-rule:evenodd;stroke:none;stroke-width:.590711;stroke-opacity:1"/><rect style="fill:#2f2f2f;fill-opacity:1;fill-rule:evenodd;stroke:none;stroke-width:.320243;stroke-opacity:1" id="rect875" width="18.034" height="50.534" x="1170.23" y="88.633" rx="3.202" ry="3.202" transform="rotate(90)"/><path style="fill:#fefefe;fill-opacity:1;fill-rule:evenodd;stroke:none;stroke-width:.59071;stroke-opacity:1" id="rect4194" d="m -96.45975,1177.3938 v 25.006 c 0,1.4837 -1.37445,2.6781 -3.08173,2.6781 h -28.71716 c -1.70728,0 -3.08173,-1.1944 -3.08173,-2.6781 v -25.006 z"/><g id="g1196" transform="translate(-209.90006,211.91245)"><rect style="fill:#585b5d;fill-opacity:1;stroke:#585b5d;stroke-width:1;stroke-linecap:round;stroke-linejoin:round;stroke-miterlimit:4;stroke-dasharray:none;stroke-opacity:1" id="rect847" width="20.65" height="1.487" x="85.675" y="974.008" rx=".744" ry=".744"/><rect id="rect853" width="15.555" height="1.487" x="85.925" y="983.152" rx=".744" ry=".744" style="fill:#585b5d;fill-opacity:1;stroke:#585b5d;stroke-width:1;stroke-linecap:round;stroke-linejoin:round;stroke-miterlimit:4;stroke-dasharray:none;stroke-opacity:1"/></g></g></g></svg>