<svg xmlns="http://www.w3.org/2000/svg" xmlns:svg="http://www.w3.org/2000/svg" id="svg2" width="192" height="192" version="1.1" viewBox="0 0 192 192"><metadata id="metadata7"/><g id="layer1" transform="translate(0,-860.36216)"><g id="g964" transform="matrix(0.91751467,0,0,0.91751467,7.9185917,79.159262)" style="stroke-width:1.08374"><rect id="rect914" width="138" height="191.822" x="27" y="860.153" rx="14.496" ry="14.496" style="opacity:1;fill:#ff847f;fill-opacity:1;stroke:none;stroke-width:10.8374;stroke-linecap:round;stroke-linejoin:round;stroke-miterlimit:4;stroke-dasharray:none;stroke-dashoffset:0;stroke-opacity:1;paint-order:normal"/><path id="rect917" d="m 27,149.86328 v 27.25391 c 0,8.03061 6.465482,14.49609 14.496094,14.49609 H 150.50391 c 8.03061,0 14.49609,-6.46548 14.49609,-14.49609 v -27.25391 z" transform="translate(0,860.36216)" style="opacity:1;fill:#575a5c;fill-opacity:1;stroke:none;stroke-width:10.8374;stroke-linecap:round;stroke-linejoin:round;stroke-miterlimit:4;stroke-dasharray:none;stroke-dashoffset:0;stroke-opacity:1;paint-order:normal"/><rect id="rect859" width="138" height="135.072" x="27" y="875.153" style="opacity:1;fill:#d7d7d7;fill-opacity:1;stroke:none;stroke-width:10.8374;stroke-linecap:round;stroke-linejoin:round;stroke-miterlimit:4;stroke-dasharray:none;stroke-dashoffset:0;stroke-opacity:1;paint-order:normal"/><path id="rect863" d="m 27,130.00781 v 47.10938 c 0,8.03061 6.465482,14.49609 14.496094,14.49609 H 150.50391 c 5.19221,0 9.71825,-2.71202 12.27734,-6.79297 z" transform="translate(0,860.36216)" style="opacity:1;fill:#ff847f;fill-opacity:1;stroke:none;stroke-width:10.8374;stroke-linecap:round;stroke-linejoin:round;stroke-miterlimit:4;stroke-dasharray:none;stroke-dashoffset:0;stroke-opacity:1;paint-order:normal"/><rect id="rect855" width="29.14" height="9.435" x="81.43" y="1036.061" rx="3.5" ry="3.5" style="opacity:1;fill:#fff;fill-opacity:1;stroke:none;stroke-width:10.8374;stroke-linecap:round;stroke-linejoin:round;stroke-miterlimit:4;stroke-dasharray:none;stroke-dashoffset:0;stroke-opacity:1;paint-order:normal"/><path id="path878" d="m 50.931986,1025.6703 a 8.6642132,8.6642132 0 0 1 -8.664213,8.6642 8.6642132,8.6642132 0 0 1 -8.664214,-8.6642 8.6642132,8.6642132 0 0 1 8.664214,-8.6642 8.6642132,8.6642132 0 0 1 8.664213,8.6642 z" style="opacity:1;fill:#fff;fill-opacity:1;stroke:none;stroke-width:10.8374;stroke-linecap:round;stroke-linejoin:round;stroke-miterlimit:4;stroke-dasharray:none;stroke-dashoffset:0;stroke-opacity:1;paint-order:normal"/><path style="opacity:1;fill:#fff;fill-opacity:1;stroke:none;stroke-width:10.8374;stroke-linecap:round;stroke-linejoin:round;stroke-miterlimit:4;stroke-dasharray:none;stroke-dashoffset:0;stroke-opacity:1;paint-order:normal" id="path887" d="m 158.39642,1025.67 a 8.6642132,8.6642132 0 0 1 -8.66421,8.6642 8.6642132,8.6642132 0 0 1 -8.66421,-8.6642 8.6642132,8.6642132 0 0 1 8.66421,-8.6642 8.6642132,8.6642132 0 0 1 8.66421,8.6642 z"/><rect id="rect861" width="138" height="36.822" x="27" y="900.653" style="opacity:1;fill:#ff847f;fill-opacity:1;stroke:none;stroke-width:10.8374;stroke-linecap:round;stroke-linejoin:round;stroke-miterlimit:4;stroke-dasharray:none;stroke-dashoffset:0;stroke-opacity:1;paint-order:normal"/><rect style="opacity:1;fill:#bb6763;fill-opacity:1;stroke:none;stroke-width:10.8374;stroke-linecap:round;stroke-linejoin:round;stroke-miterlimit:4;stroke-dasharray:none;stroke-dashoffset:0;stroke-opacity:1;paint-order:normal" id="rect857" width="85.23" height="19.447" x="53.385" y="908.778" rx="2.5" ry="2.5"/></g></g></svg>