<svg xmlns="http://www.w3.org/2000/svg" xmlns:svg="http://www.w3.org/2000/svg" id="svg2" width="192" height="192" version="1.1" viewBox="0 0 192 192"><metadata id="metadata7"/><g id="layer1" transform="translate(0,-860.36216)"><g id="g4216" transform="matrix(0.85,0,0,0.85,534.6,108.1793)"><path id="rect4188" d="m -594.23529,907.86218 156.47058,0 c 6.51765,0 11.76471,5.24706 11.76471,11.76471 l 0,156.47061 c 0,3.2588 -1.31176,6.2 -3.43824,8.3265 -2.12647,2.1264 -5.06764,3.4382 -8.32647,3.4382 l -156.47058,0 c -6.51765,0 -11.76471,-5.2471 -11.76471,-11.7647 l 0,-156.47061 c 0,-3.25882 1.31177,-6.2 3.43824,-8.32647 2.12647,-2.12648 5.06765,-3.43824 8.32647,-3.43824 z" style="fill:#585b5d;fill-opacity:1;fill-rule:evenodd;stroke:none;stroke-width:.1;stroke-miterlimit:4;stroke-dasharray:none;stroke-opacity:1"/><path style="fill:#9bbfff;fill-opacity:1;fill-rule:evenodd;stroke:none;stroke-width:.1;stroke-miterlimit:4;stroke-dasharray:none;stroke-opacity:1" id="path4200" d="m -429.43824,1084.424 c -2.12647,2.1264 -5.06764,3.4382 -8.32647,3.4382 h -156.47058 c -6.51765,0 -11.76471,-5.2471 -11.76471,-11.7647 V 919.62689 c 0,-3.25882 1.31177,-6.2 3.43824,-8.32647 l 26.76638,54.90442 c 3.93856,8.07899 3.93856,8.07899 12.27314,11.67728 l 94.64499,40.86138 c 8.4943,3.6673 8.4943,3.6673 12.61835,11.9319 z"/><rect id="rect4183" width="49.236" height="11.268" x="-572.379" y="1023.918" rx="2.158" ry="2.158" style="opacity:1;fill:#fff;fill-opacity:1;stroke:none;stroke-width:.5;stroke-linecap:butt;stroke-linejoin:round;stroke-miterlimit:4;stroke-dasharray:none;stroke-opacity:1"/><rect style="opacity:1;fill:#fff;fill-opacity:1;stroke:none;stroke-width:.5;stroke-linecap:butt;stroke-linejoin:round;stroke-miterlimit:4;stroke-dasharray:none;stroke-opacity:1" id="rect4185" width="49.236" height="11.268" x="-508.774" y="960.384" rx="1.872" ry="1.872"/><rect id="rect4187" width="49.236" height="11.268" x="941.4" y="478.522" rx="2.184" ry="2.184" transform="rotate(90)" style="opacity:1;fill:#fff;fill-opacity:1;stroke:none;stroke-width:.5;stroke-linecap:butt;stroke-linejoin:round;stroke-miterlimit:4;stroke-dasharray:none;stroke-opacity:1"/><path id="rect4179" d="m -594.23529,907.86218 156.47058,0 c 6.51765,0 11.76471,5.24706 11.76471,11.76471 l 0,156.47061 c 0,3.2588 -1.31176,6.2 -3.43824,8.3265 -2.12647,2.1264 -5.06764,3.4382 -8.32647,3.4382 l -156.47058,0 c -6.51765,0 -11.76471,-5.2471 -11.76471,-11.7647 l 0,-156.47061 c 0,-3.25882 1.31177,-6.2 3.43824,-8.32647 2.12647,-2.12648 5.06765,-3.43824 8.32647,-3.43824 z" style="fill:none;fill-opacity:.4627451;fill-rule:evenodd;stroke:none"/></g></g></svg>