<svg xmlns="http://www.w3.org/2000/svg" xmlns:svg="http://www.w3.org/2000/svg" id="svg2" width="192" height="192" version="1.1" viewBox="0 0 192 192"><metadata id="metadata7"/><g style="display:inline" id="layer1" transform="translate(0,-860.36216)"><rect id="rect980" width="153" height="153" x="19.5" y="879.862" rx="10" style="fill:#f8c18c;fill-opacity:1;fill-rule:evenodd;stroke:none;stroke-opacity:1"/></g><g id="layer2"><path id="path8426" d="m 50.243355,116.03309 c 0,-0.25981 14.994389,-7.33058 33.320856,-15.71285 30.068829,-13.753072 33.612689,-15.240517 36.310819,-15.240517 3.36269,0 5.37685,0.859236 7.58184,3.234401 3.15227,3.395588 3.35063,4.36941 3.35063,16.449726 0,6.14363 -0.22624,11.17024 -0.50271,11.17024 -0.27652,0 -1.54372,-1.37876 -2.816,-3.06389 -6.67623,-8.84258 -17.58583,-12.08854 -29.464807,-8.76669 -8.147947,2.27847 -24.468381,6.62613 -34.63897,9.2276 -3.299705,0.84401 -7.430485,1.9035 -9.179515,2.35445 -3.702783,0.95467 -3.962143,0.97741 -3.962143,0.34753 z M 130.76356,87.40917 c -3.68054,-3.680539 -1.16223,-9.757342 4.04357,-9.757342 5.27494,0 7.77093,6.190481 3.9392,9.769846 -2.47872,2.315497 -5.65979,2.310508 -7.98277,-0.01296 z" style="fill:#56595b;stroke-width:.571376"/></g><style id="style853" type="text/css"/></svg>