<svg xmlns="http://www.w3.org/2000/svg" xmlns:svg="http://www.w3.org/2000/svg" id="svg2" width="192" height="192" version="1.1" viewBox="0 0 192 192"><metadata id="metadata7"/><g id="layer1" transform="translate(0,-860.36216)"><circle id="circle1036" cx="96" cy="956.362" r="70.041" style="fill:#56595b;fill-opacity:1;stroke:#fff;stroke-width:14.5374;stroke-linecap:square;stroke-miterlimit:4;stroke-dasharray:none;stroke-opacity:1;stop-color:#000"/><path style="fill:#fff;fill-opacity:1;stroke-width:8.22935;stroke-linecap:square;stop-color:#000" id="path1038" d="m 129.5397,1000.182 31.42092,31.4209 a 2.3494935,2.3494935 0 0 0 3.32267,0 l 6.95684,-6.9569 a 2.3494793,2.3494793 0 0 0 1e-5,-3.3226 l -31.42092,-31.42096 a 2.3494838,2.3494838 0 0 0 -3.32267,0 l -6.95685,6.95686 a 2.3494857,2.3494857 0 0 0 0,3.3227 z"/><circle id="circle1040" cx="-608.368" cy="744.132" r="25.05" transform="rotate(-45)" style="fill:#fff;fill-opacity:1;stroke-width:2.14533;stroke-linecap:square;stop-color:#000"/><circle id="circle1042" cx="-608.368" cy="744.132" r="5.539" transform="rotate(-45)" style="fill:#56595b;fill-opacity:1;stroke-width:.474385;stroke-linecap:square;stop-color:#000"/><rect id="rect1044" width="14.539" height="33.578" x="-615.637" y="778.464" rx="7.269" ry="7.269" transform="rotate(-45)" style="fill:#fff;fill-opacity:1;stroke-width:4.81033;stroke-linecap:square;stop-color:#000"/></g><style id="style853" type="text/css"/><style id="style853-9" type="text/css"/><style id="style853-3" type="text/css"/></svg>