<svg xmlns="http://www.w3.org/2000/svg" xmlns:xlink="http://www.w3.org/1999/xlink" id="Layer_1" width="192" height="192" x="0" y="0" baseProfile="tiny" overflow="visible" version="1.1" viewBox="0 0 192 192" xml:space="preserve"><g><path fill="#99BEF9" d="M171,161.957c0,6.099-4.944,11.043-11.043,11.043H30.043C23.944,173,19,168.056,19,161.957V32.043 C19,25.944,23.944,21,30.043,21h129.914C166.056,21,171,25.944,171,32.043V161.957z"/><g><path fill="#FFF" d="M82,54H52v30h30V54z M76,78H59V61h17V78z"/><rect width="6" height="6" x="64" y="66" fill="#FFF"/><path fill="#FFF" d="M52,140h30v-31H52V140z M59,116h17v17H59V116z"/><rect width="6" height="7" x="64" y="121" fill="#FFF"/><path fill="#FFF" d="M108,54v30h30V54H108z M131,78h-17V61h17V78z"/><rect width="6" height="6" x="120" y="66" fill="#FFF"/><rect width="6" height="7" x="89" y="63" fill="#FFF"/><polygon fill="#FFF" points="95 84 102 84 102 70 95 70 95 76 89 76 89 97 95 97"/><rect width="6" height="10" x="89" y="103" fill="#FFF"/><rect width="6" height="7" x="89" y="120" fill="#FFF"/><rect width="6" height="6" x="95" y="97" fill="#FFF"/><rect width="21" height="7" x="101" y="90" fill="#FFF"/><rect width="9" height="6" x="122" y="97" fill="#FFF"/><polygon fill="#FFF" points="101.486 140 108 140 108 133 101 133 101 127 95 127 95 140"/><rect width="6" height="7" x="116" y="133" fill="#FFF"/><rect width="7" height="7" x="122" y="126" fill="#FFF"/><rect width="14" height="6" x="108" y="120" fill="#FFF"/><polygon fill="#FFF" points="122 113 122 120 131.442 120 138 120 138 113.115 138 103 131 103 131 113"/><rect width="7" height="7" x="131" y="90" fill="#FFF"/><rect width="8" height="6" x="114" y="103" fill="#FFF"/><rect width="9" height="7" x="129" y="133" fill="#FFF"/><polygon fill="#FFF" points="101 103 101 113 95 113 95 120 101.486 120 108 120 108 103"/><polygon fill="#FFF" points="82 97 82 90 76 90 76 97 68 97 68 103 89 103 89 97"/><polygon fill="#FFF" points="52 90 52 91.561 52 96.675 52 103 59 103 59 97 68 97 68 90"/><rect width="7" height="9" x="95" y="54" fill="#FFF"/></g></g></svg>