<svg xmlns="http://www.w3.org/2000/svg" xmlns:svg="http://www.w3.org/2000/svg" id="svg8" version="1.1" viewBox="0 0 192 192"><metadata id="metadata14"/><title id="title2">ScreenCam Screen Recorder</title><g id="g11"><circle id="circle4" cx="96" cy="96" r="88" style="fill:#98dc9a;fill-opacity:1"/><path style="fill:#fff;fill-opacity:1;stroke-width:2.37565613" id="path6-3" d="M 118.99885,138.9137 H 94.334793 C 74.505097,138.9666 57.22075,125.42672 52.525646,106.16271 47.830589,86.89888 56.947716,66.92902 74.577032,57.851044 c 17.629341,-9.078 39.180818,-4.900481 52.135018,10.110412 12.95437,15.01101 13.93701,36.945314 2.37621,53.056424 L 144.6987,138.9137 Z M 67.898493,96.080627 C 67.881863,113.86107 85.077147,126.5828 102.07468,121.36472 L 82.192816,100.65138 c -0.67368,-0.701856 30.721984,-0.0736 30.721984,-0.0736 h 7.4168 c 0.27381,-1.484465 0.41689,-2.990051 0.42761,-4.499497 0.13922,-14.695049 -11.73465,-26.682136 -26.430355,-26.682136 -14.695691,0 -26.569694,11.987087 -26.430362,26.682136 z" class="logo-svg"/></g></svg>