<svg xmlns="http://www.w3.org/2000/svg" xmlns:svg="http://www.w3.org/2000/svg" id="svg2" width="192" height="192" version="1.1" viewBox="0 0 192 192"><defs id="defs4"><style id="style909">.cls-2{fill:#3ea448}</style></defs><metadata id="metadata7"/><g id="layer1" transform="translate(0,-860.36216)"><rect id="rect1018" width="152" height="152" x="20" y="880.362" rx="9.935" ry="9.935" style="fill:#97db99;fill-opacity:1;fill-rule:evenodd;stroke:none;stroke-width:.993464;stroke-opacity:1"/><path style="fill:#fff;fill-opacity:1;stroke-width:.137512" id="path993" d="m 84.455874,959.3221 c 5.376717,-9.90086 12.458582,-17.39526 18.894146,-20.87431 L 96.886954,928.2719 c -0.508794,-0.79757 -1.320115,-0.79757 -1.801407,0 l -35.368073,55.74735 c -0.508794,0.79757 -0.08251,1.03134 0.838823,1.03134 h 16.872716 c -0.261273,-7.20563 1.897665,-16.33642 7.026861,-25.72849" class="cls-2"/><path style="fill:#fff;fill-opacity:1;stroke-width:.137512" id="path995" d="m 105.55021,944.78709 c -3.4653,-1.89767 -10.945955,5.12919 -16.707705,15.70386 -5.761751,10.57467 -7.604411,20.66805 -4.13911,22.57947 2.516469,1.36136 6.751837,-2.2277 11.27598,-8.12696 v -13.50367 c 0,-1.40263 0.880076,-2.17269 1.540134,-0.94884 l 3.767831,7.12312 c 0.055,-0.0825 0.0825,-0.15126 0.13751,-0.23377 5.76175,-10.57467 7.60441,-20.6818 4.12536,-22.59321" class="cls-2"/><path style="fill:#fff;fill-opacity:1;stroke-width:.137512" id="path997" d="m 132.28253,984.01925 -14.27374,-22.51071 a 67.061828,67.061828 0 0 1 -5.48673,13.1599 73.868669,73.868669 0 0 1 -4.0291,6.53181 l 2.69524,3.85034 h 20.25551 c 0.92133,0 1.34761,-0.23377 0.83882,-1.03134" class="cls-2"/></g><style id="style853" type="text/css"/><style id="style853-9" type="text/css"/><style id="style853-3" type="text/css"/></svg>