<svg xmlns="http://www.w3.org/2000/svg" xmlns:svg="http://www.w3.org/2000/svg" id="svg2" width="192" height="192" version="1.1" viewBox="0 0 192 192"><metadata id="metadata7"/><g id="layer1" transform="translate(0,-860.36216)"><rect id="rect1038" width="119.31" height="98.926" x="18.249" y="906.899" style="fill:#99bdfe;fill-opacity:1;stroke:#99bdfe;stroke-width:20.4981;stroke-linecap:round;stroke-linejoin:round;stroke-miterlimit:4;stroke-dasharray:none;stroke-opacity:1;stop-color:#000"/><path style="fill:#99bdfe;fill-opacity:1;stroke:none;stroke-width:19.4706;stroke-linecap:round;stroke-linejoin:round;stroke-miterlimit:4;stroke-dasharray:none;stroke-opacity:1;stop-color:#000" id="path1040" d="m 126.87708,956.3621 46.79039,-40.499 a 6.2453375,6.2453375 0 0 1 10.33256,4.72216 v 71.55368 a 6.2453375,6.2453375 0 0 1 -10.33256,4.72217 z"/><path style="fill:#fff;fill-opacity:1;stroke:none;stroke-width:20.4981;stroke-linecap:round;stroke-linejoin:round;stroke-miterlimit:4;stroke-dasharray:none;stroke-opacity:1;stop-color:#000" id="path1044" d="M 80.040002,923.76984 59.334279,962.1078 a 1.6301255,1.6301255 0 0 0 1.434309,2.40477 h 13.753495 v 24.2935 a 0.69088565,0.69088565 0 0 0 1.298775,0.32831 l 20.705723,-38.33796 a 1.6301255,1.6301255 0 0 0 -1.434309,-2.40477 H 81.338777 v -24.2935 a 0.69088565,0.69088565 0 0 0 -1.298775,-0.32831 z"/></g><style id="style853" type="text/css"/><style id="style853-9" type="text/css"/><style id="style853-3" type="text/css"/></svg>