<svg xmlns="http://www.w3.org/2000/svg" xmlns:svg="http://www.w3.org/2000/svg" id="svg2" width="192" height="192" version="1.1" viewBox="0 0 192 192"><metadata id="metadata7"/><g id="layer1" transform="translate(0,-860.36216)"><rect id="rect1089" width="152" height="152" x="20" y="880.362" rx="9.935" ry="9.935" style="fill:#56595b;fill-opacity:1;fill-rule:evenodd;stroke:none;stroke-width:.993464;stroke-opacity:1"/><path style="font-weight:900;font-size:40px;line-height:1.25;font-family:Now;-inkscape-font-specification:'Now Heavy';letter-spacing:0;word-spacing:0;fill:#fff;fill-opacity:1;stroke-width:1.49703" id="path964" d="m 65.012283,941.07576 c -3.293464,0 -6.062972,1.79643 -7.934261,4.79049 v -4.19168 H 46.000001 v 29.9406 h 11.078021 v -13.77268 c 0,-4.71564 3.068916,-7.11089 7.485154,-7.11089 1.197623,0 2.245546,0.1497 2.994061,0.29941 v -9.58099 c -0.673665,-0.22456 -1.646734,-0.37426 -2.544954,-0.37426 z"/><path style="font-weight:900;font-size:40px;line-height:1.25;font-family:Now;-inkscape-font-specification:'Now Heavy';letter-spacing:0;word-spacing:0;fill:#fff;fill-opacity:1;stroke-width:1.49703" id="path966" d="m 88.965229,971.61499 -5.389312,-17.88951 -5.389306,17.88951 H 66.360074 l 11.976241,-29.9406 h 10.40436 l 12.125945,29.9406 z"/><path style="font-weight:900;font-size:40px;line-height:1.25;font-family:Now;-inkscape-font-specification:'Now Heavy';letter-spacing:0;word-spacing:0;fill:#fff;fill-opacity:1;stroke-width:1.49703" id="path968" d="m 129.7564,940.75563 c -2.40296,0 -4.61416,0.34769 -6.59171,1.00317 l -8.75201,21.60988 c 2.48086,5.42356 8.06805,8.60001 15.64281,8.60001 8.75763,0 14.22193,-4.34139 15.56926,-10.85347 h -10.5534 c -0.52396,1.94614 -2.24603,3.06933 -5.09039,3.06933 -3.96713,0 -5.53919,-2.09635 -5.8386,-5.98864 h 21.85699 v -1.87101 c 0.0748,-9.58099 -6.2877,-15.56927 -16.24295,-15.56927 z m 0.22456,8.15874 c 2.69465,0 4.19216,1.12287 4.86583,3.14386 h -10.10527 c 0.74851,-2.02099 2.32023,-3.14386 5.23944,-3.14386 z"/><path style="fill:#fff;fill-opacity:1;stroke:none;stroke-width:2.77648;stroke-linecap:round;stroke-linejoin:round;stop-color:#000" id="path970" d="m 100.61734,941.42931 5.38948,17.88941 5.38948,-17.88941 z"/></g><style id="style853" type="text/css"/><style id="style853-9" type="text/css"/><style id="style853-3" type="text/css"/></svg>