<svg xmlns="http://www.w3.org/2000/svg" xmlns:svg="http://www.w3.org/2000/svg" id="Слой_1" x="0" y="0" enable-background="new 0 0 192 192" version="1.1" viewBox="0 0 192 192" xml:space="preserve"><path style="opacity:1;vector-effect:none;fill:#b02a3c;fill-opacity:1;stroke-width:4;paint-order:stroke fill markers" id="path1821" d="M 96 8 A 88 88 0 0 0 8 96 A 88 88 0 0 0 16.773438 134.12891 A 88 88 0 0 0 16.775391 134.12891 L 88.371094 183.61914 A 88 88 0 0 0 96 184 A 88 88 0 0 0 184 96 A 88 88 0 0 0 96 8 z"/><path style="fill:#fefeff;fill-opacity:1;stroke-width:4" id="path1834" d="M 130.125 52.09375 C 127.83574 52.06175 110.91516 65.89268 93.625 76.25 C 88.794692 75.7378 84.706788 74.461729 80 77.599609 C 68 85.599609 58.25 89.125 58.25 89.125 C 58.25 89.125 38.449219 86.125 29.199219 92 C 23.57168 95.57424 40 108 40 108 L 16.773438 134.12891 A 88 88 0 0 0 88.373047 183.61914 C 89.414972 182.586 98.016396 173.95082 100 168 C 102.10818 161.67544 101.94226 146.34116 104 140 C 107.55497 129.045 108.73624 128.99032 112 124 C 117.69991 115.28476 132 100 132 100 C 132 100 135.17092 98.18516 137.19922 96 C 143.02562 89.723 145.35903 83.434221 142.40039 78.800781 C 141.34499 77.147941 138.91435 79.415329 130.96875 81.599609 C 133.85098 76.040529 134.20737 74.19326 135.15625 68.9375 C 135.97906 64.38006 133.63525 52.14215 130.125 52.09375 z"/><path id="path959" d="m 71.809309,61.028929 v 70.013281 c 0,1.65685 1.155764,2.31571 2.581568,1.47176 8.581006,-5.07921 36.873693,-21.82127 59.266353,-35.017151 1.42743,-0.841178 1.42737,-2.204432 -3.1e-4,-3.045206 L 74.394349,59.551285 a 1.7148406,1.7148406 150.24713 0 0 -2.58504,1.477644 z" class="st1" style="fill:#000;fill-opacity:0;stroke-width:1.23198"/><path id="path961" d="m 83.759532,81.726223 v 28.495487 c 0,1.65685 1.156884,2.3176 2.584183,1.47618 4.769871,-2.81195 15.280555,-9.00491 24.148925,-14.206735 1.42914,-0.838274 1.43036,-2.198188 0.002,-3.038246 L 86.345335,80.247283 a 1.7158382,1.7158382 150.23277 0 0 -2.585803,1.47894 z" class="st0" style="fill:#000;fill-opacity:0;stroke-width:1.23198"/><rect id="rect963" width="7.638" height="25.872" x="83.76" y="102.873" class="st0" style="fill:#000;fill-opacity:0;stroke-width:1.23198"/><metadata id="metadata13"/><style id="style824" type="text/css">.st0{fill:#cd201f}.st1{fill:#fff}</style></svg>