<svg xmlns="http://www.w3.org/2000/svg" xmlns:xlink="http://www.w3.org/1999/xlink" width="100%" height="100%" version="1.1" viewBox="0 0 192 192" xml:space="preserve" style="fill-rule:evenodd;clip-rule:evenodd;stroke-linecap:round;stroke-linejoin:round;stroke-miterlimit:1.5"><g><path d="M164.5,21.5C164.5,15.981 160.019,11.5 154.5,11.5L21.5,11.5C15.981,11.5 11.5,15.981 11.5,21.5L11.5,154.5C11.5,160.019 15.981,164.5 21.5,164.5L154.5,164.5C160.019,164.5 164.5,160.019 164.5,154.5L164.5,21.5Z" transform="matrix(1,0,0,1,8,8)" style="fill:#f9de81"/><g><path d="M72.284,126.212L93.682,92.276L115.415,125.999L103.238,107.104C112.367,104.799 119.645,96.392 119.645,86.552C119.645,74.93 110.21,65.495 98.588,65.495C86.967,65.495 77.532,74.93 77.532,86.552" transform="matrix(1,0,0,1,8,8) matrix(0.862604,0,0,0.862604,4.90696,4.82463)" style="fill:none;stroke:#4a4a4a;stroke-width:6.74px"/></g></g></svg>