<svg xmlns="http://www.w3.org/2000/svg" xmlns:svg="http://www.w3.org/2000/svg" id="svg22" width="192" height="192" version="1.1" viewBox="0 0 192 192"><metadata id="metadata28"/><g id="layer1"><g style="fill:#bd9aff;fill-opacity:1;opacity:1;stroke-width:0;stroke-miterlimit:4;stroke-dasharray:none" id="g20" fill="none" fill-rule="evenodd" stroke="#B1B5BD" opacity=".63" transform="translate(8,8)"><circle style="fill:#bd9aff;fill-opacity:1;stroke-width:0;stroke-miterlimit:4;stroke-dasharray:none" id="circle12" cx="88" cy="88" r="88"/></g></g><g id="layer2"><g style="stroke-width:0;stroke-miterlimit:4;stroke-dasharray:none" id="Capa_1" transform="matrix(0.73925227,0,0,0.73925227,64.255029,39.15187)"><g style="stroke-width:0;stroke-miterlimit:4;stroke-dasharray:none" id="g405"><path style="stroke-width:0;stroke-miterlimit:4;stroke-dasharray:none" id="path389" fill="#c51b8a" fill-rule="evenodd" stroke="#fff" stroke-width="5" d="m 42.933,16.51 c 0,0 -18.334,0 -29.285,0 -10.969,0 -10.969,13.518 -10.969,13.518 0,0 0,65.725 0,73.635 0,7.893 9.176,7.119 9.176,7.119 v 7.137 H 22.56 l -18.334,33.38 h 7.383 l 14.766,-26.49 H 42.934 59.51 l 14.783,26.49 h 7.383 L 63.324,117.918 h 10.705 v -7.137 c 0,0 9.176,0.773 9.176,-7.119 0,-7.91 0,-73.635 0,-73.635 0,0 0,-13.518 -10.951,-13.518 -10.97,0.001 -29.321,0.001 -29.321,0.001 z" clip-rule="evenodd"/><path style="stroke-width:0;stroke-miterlimit:4;stroke-dasharray:none" id="path391" fill="#fff" fill-rule="evenodd" d="m 42.933,32.506 c 0,0 -5.396,0 -9.352,0 -3.956,0 -3.814,-2.584 -3.814,-2.584 0,0 0,-3.586 0,-5.924 0,-2.971 3.814,-2.971 3.814,-2.971 h 9.352 9.369 c 0,0 3.814,0 3.814,2.971 0,2.338 0,5.924 0,5.924 0,0 0.141,2.584 -3.814,2.584 -3.955,0 -9.369,0 -9.369,0 z" clip-rule="evenodd"/><path style="stroke-width:0;stroke-miterlimit:4;stroke-dasharray:none" id="path393" fill="#fff" fill-rule="evenodd" d="m 26.901,97.668 c 0,4.676 -3.867,8.525 -8.543,8.525 -4.676,0 -8.543,-3.85 -8.543,-8.525 0,-4.675 3.867,-8.543 8.543,-8.543 4.676,0 8.543,3.867 8.543,8.543 z" clip-rule="evenodd"/><path style="stroke-width:0;stroke-miterlimit:4;stroke-dasharray:none" id="path395" fill="#fff" fill-rule="evenodd" d="m 76.067,97.668 c 0,4.676 -3.85,8.525 -8.525,8.525 -4.693,0 -8.543,-3.85 -8.543,-8.525 0,-4.675 3.85,-8.543 8.543,-8.543 4.676,0 8.525,3.867 8.525,8.543 z" clip-rule="evenodd"/><path style="stroke-width:0;stroke-miterlimit:4;stroke-dasharray:none" id="path397" fill="#fff" fill-rule="evenodd" d="m 40.894,66.449 c 0.264,0 -30.305,0 -30.305,0 0,0 -4.852,-0.246 -4.852,-5.344 0,-5.098 0,-14.027 0,-14.027 0,0 -0.246,-6.363 5.098,-6.363 5.361,0 30.059,0 30.059,0 z" clip-rule="evenodd"/><path style="stroke-width:0;stroke-miterlimit:4;stroke-dasharray:none" id="path399" fill="#fff" fill-rule="evenodd" d="m 44.989,66.449 c -0.264,0 30.322,0 30.322,0 0,0 4.834,-0.246 4.834,-5.344 0,-5.098 0,-14.027 0,-14.027 0,0 0.264,-6.363 -5.098,-6.363 -5.362,0 -30.059,0 -30.059,0 v 25.734 z" clip-rule="evenodd"/><path style="stroke-width:0;stroke-miterlimit:4;stroke-dasharray:none" id="path401" fill="#c51b8a" stroke="#fff" stroke-width="5" d="m 38.099,7.088 c 0,2.514 -2.057,4.588 -4.588,4.588 -2.514,0 -4.588,-2.074 -4.588,-4.588 0,-2.514 2.074,-4.588 4.588,-4.588 2.531,0 4.588,2.074 4.588,4.588 z"/><path style="stroke-width:0;stroke-miterlimit:4;stroke-dasharray:none" id="path403" fill="#c51b8a" stroke="#fff" stroke-width="5" d="m 56.696,7.088 c 0,2.514 -2.057,4.588 -4.588,4.588 -2.496,0 -4.57,-2.074 -4.57,-4.588 0,-2.514 2.074,-4.588 4.57,-4.588 2.532,0 4.588,2.074 4.588,4.588 z"/></g><g style="stroke-width:0;stroke-miterlimit:4;stroke-dasharray:none" id="g423"><path style="fill:#fff;fill-opacity:1;stroke-width:0;stroke-miterlimit:4;stroke-dasharray:none" id="path407" fill="#c51b8a" fill-rule="evenodd" d="m 42.933,16.51 c 0,0 -18.334,0 -29.285,0 -10.969,0 -10.969,13.518 -10.969,13.518 0,0 0,65.725 0,73.635 0,7.893 9.176,7.119 9.176,7.119 v 7.137 H 22.56 l -18.334,33.38 h 7.383 l 14.766,-26.49 H 42.934 59.51 l 14.783,26.49 h 7.383 L 63.324,117.918 h 10.705 v -7.137 c 0,0 9.176,0.773 9.176,-7.119 0,-7.91 0,-73.635 0,-73.635 0,0 0,-13.518 -10.951,-13.518 -10.97,0.001 -29.321,0.001 -29.321,0.001 z" clip-rule="evenodd"/><path style="fill:#bd9aff;fill-opacity:1;stroke-width:0;stroke-miterlimit:4;stroke-dasharray:none" id="path409" fill="#fff" fill-rule="evenodd" d="m 42.933,32.506 c 0,0 -5.396,0 -9.352,0 -3.956,0 -3.814,-2.584 -3.814,-2.584 0,0 0,-3.586 0,-5.924 0,-2.971 3.814,-2.971 3.814,-2.971 h 9.352 9.369 c 0,0 3.814,0 3.814,2.971 0,2.338 0,5.924 0,5.924 0,0 0.141,2.584 -3.814,2.584 -3.955,0 -9.369,0 -9.369,0 z" clip-rule="evenodd"/><path style="fill:#bd9aff;fill-opacity:1;stroke-width:0;stroke-miterlimit:4;stroke-dasharray:none" id="path411" fill="#fff" fill-rule="evenodd" d="m 26.901,97.668 c 0,4.676 -3.867,8.525 -8.543,8.525 -4.676,0 -8.543,-3.85 -8.543,-8.525 0,-4.675 3.867,-8.543 8.543,-8.543 4.676,0 8.543,3.867 8.543,8.543 z" clip-rule="evenodd"/><path style="fill:#bd9aff;fill-opacity:1;stroke-width:0;stroke-miterlimit:4;stroke-dasharray:none" id="path413" fill="#fff" fill-rule="evenodd" d="m 76.067,97.668 c 0,4.676 -3.85,8.525 -8.525,8.525 -4.693,0 -8.543,-3.85 -8.543,-8.525 0,-4.675 3.85,-8.543 8.543,-8.543 4.676,0 8.525,3.867 8.525,8.543 z" clip-rule="evenodd"/><g id="g1357" transform="matrix(0.81820943,0,0,1,7.8064399,0)"><path id="path415" fill="#fff" fill-rule="evenodd" d="m 48.729971,66.449 c 0.322839,0 -37.059197,0 -37.059197,0 0,0 -5.9333843,-0.246 -5.9333843,-5.344 0,-5.098 0,-14.027 0,-14.027 0,0 -0.300827,-6.363 6.2342113,-6.363 6.555828,0 36.75837,0 36.75837,0 z" clip-rule="evenodd" style="fill:#bd9aff;fill-opacity:1;stroke-width:0;stroke-miterlimit:4;stroke-dasharray:none"/><path id="path417" fill="#fff" fill-rule="evenodd" d="m 44.989,66.449 c -0.264,0 30.322,0 30.322,0 0,0 4.834,-0.246 4.834,-5.344 0,-5.098 0,-14.027 0,-14.027 0,0 0.264,-6.363 -5.098,-6.363 -5.362,0 -30.059,0 -30.059,0 v 25.734 z" clip-rule="evenodd" style="fill:#bd9aff;fill-opacity:1;stroke-width:0;stroke-miterlimit:4;stroke-dasharray:none"/></g><path style="fill:#fff;fill-opacity:1;stroke-width:0;stroke-miterlimit:4;stroke-dasharray:none" id="path419" fill="#c51b8a" d="m 38.099,7.088 c 0,2.514 -2.057,4.588 -4.588,4.588 -2.514,0 -4.588,-2.074 -4.588,-4.588 0,-2.514 2.074,-4.588 4.588,-4.588 2.531,0 4.588,2.074 4.588,4.588 z"/><path style="fill:#fff;fill-opacity:1;stroke-width:0;stroke-miterlimit:4;stroke-dasharray:none" id="path421" fill="#c51b8a" d="m 56.696,7.088 c 0,2.514 -2.057,4.588 -4.588,4.588 -2.496,0 -4.57,-2.074 -4.57,-4.588 0,-2.514 2.074,-4.588 4.57,-4.588 2.532,0 4.588,2.074 4.588,4.588 z"/></g></g></g></svg>