<svg xmlns="http://www.w3.org/2000/svg" xmlns:svg="http://www.w3.org/2000/svg" id="svg2" width="192" height="192" version="1.1" viewBox="0 0 192 192"><metadata id="metadata7"/><g id="layer1" transform="translate(0,-860.36216)"><circle id="circle948" cx="96" cy="956.362" r="88" style="fill:#54688c;fill-opacity:1;fill-rule:evenodd;stroke:none;stroke-opacity:1"/><path style="fill:#ffb0ac;fill-opacity:1;stroke-width:3.6761" id="path946" fill="url(#SVGID_1_)" d="m 125.51063,976.48245 c -0.7683,-0.50363 -3.21658,-2.01813 -6.4589,-4.01421 l 5.25315,-3.2203 c 9.57992,-5.87077 9.59462,-19.7847 0.0221,-25.67392 L 89.462819,922.12037 c -10.035745,-6.17584 -22.960916,1.04401 -22.960916,12.8296 v 17.36585 c 0,0 4.451754,-5.71265 12.737681,-6.74198 v -9.65339 c 0,-2.4924 2.738697,-4.01798 4.856132,-2.70562 l 33.095914,20.50162 c 2.01082,1.24612 2.00715,4.17235 -0.008,5.41486 l -9.93649,6.11711 c -6.03247,-3.67981 -11.781892,-7.1721 -14.12356,-8.58743 -5.484738,-3.31211 -6.514043,-4.56945 -11.653229,-4.56945 -9.82622,0 -14.965402,8.91088 -14.965402,13.25245 v 12.42884 c 0,11.77455 12.899426,18.99813 22.935184,12.84427 l 17.506237,-10.72684 c 6.04351,3.71279 10.86656,6.66476 11.54296,7.0471 1.97039,1.11386 5.82662,3.08426 9.08363,-0.85658 3.24968,-3.94441 0.68008,-7.80071 -2.06229,-9.59833 z m -41.425952,3.01446 c -2.121102,1.30508 -4.84877,-0.22053 -4.84877,-2.7093 v -8.39616 c 0,-2.42995 2.661493,-3.9188 4.731135,-2.64314 2.937202,1.81231 6.962539,4.28997 11.223133,6.9148 z"/></g><style id="style853" type="text/css"/><style id="style853-9" type="text/css"/><style id="style853-3" type="text/css"/></svg>