<svg xmlns="http://www.w3.org/2000/svg" xmlns:svg="http://www.w3.org/2000/svg" id="svg2" width="192" height="192" version="1.1" viewBox="0 0 192 192"><metadata id="metadata7"/><g id="layer1" transform="translate(0,-860.36216)"><circle id="circle911" cx="96" cy="956.362" r="88" style="fill:#9abefe;fill-opacity:1;fill-rule:evenodd;stroke:none;stroke-opacity:1"/><path id="path886" d="m 64.855012,940.47694 c -3.627334,0 -6.629267,1.75113 -8.442934,4.37782 v -3.87749 h -2.939392 v 25.0161 h 2.939392 v -14.32172 c 0,-4.69052 3.752415,-8.25532 8.442934,-8.25532 0.750483,0 1.500966,0.0626 2.063829,0.25017 v -3.00194 c -0.625402,-0.12508 -1.313346,-0.18762 -2.063829,-0.18762 z" style="font-style:normal;font-variant:normal;font-weight:300;font-stretch:normal;font-size:42.9412px;line-height:1.25;font-family:Now;-inkscape-font-specification:'Now Light';letter-spacing:0;word-spacing:0;fill:#fefefe;fill-opacity:1;stroke-width:1.25081"/><path id="path901" d="m 72.797531,965.99337 h 2.876851 v -25.01611 h -2.876851 z" style="font-style:normal;font-variant:normal;font-weight:300;font-stretch:normal;font-size:42.9412px;line-height:1.25;font-family:Now;-inkscape-font-specification:'Now Light';letter-spacing:0;word-spacing:0;fill:#fefefe;fill-opacity:1;stroke-width:1.25081"/><path id="path888" d="m 74.235956,936.16167 c 1.250805,0 2.31399,-1.00065 2.31399,-2.25146 0,-1.31334 -1.063185,-2.31399 -2.31399,-2.31399 -1.250805,0 -2.31399,1.00065 -2.31399,2.31399 0,1.25081 1.063185,2.25146 2.31399,2.25146 z" style="font-style:normal;font-variant:normal;font-weight:300;font-stretch:normal;font-size:42.9412px;line-height:1.25;font-family:Now;-inkscape-font-specification:'Now Light';letter-spacing:0;word-spacing:0;fill:#f8c28d;fill-opacity:1;stroke-width:1.25081"/><path id="path890" d="m 95.749783,940.47694 c -2.68923,0 -5.128301,1.18827 -6.816887,3.18956 v -2.68923 h -2.939392 v 25.0161 h 2.939392 v -16.07285 c 0,-3.62733 2.939391,-6.56673 6.566726,-6.56673 3.627335,0 6.566728,2.9394 6.566728,6.56673 v 16.07285 h 2.87685 v -16.07285 c 0,-5.25338 -4.31528,-9.44358 -9.193417,-9.44358 z" style="font-style:normal;font-variant:normal;font-weight:300;font-stretch:normal;font-size:42.9412px;line-height:1.25;font-family:Now;-inkscape-font-specification:'Now Light';letter-spacing:0;word-spacing:0;fill:#fefefe;fill-opacity:1;stroke-width:1.25081"/><path id="path892" d="M 135.58792,940.97726 V 945.23 c -2.37654,-2.93939 -6.00386,-4.75306 -10.06899,-4.75306 -7.19212,0 -13.00837,5.75369 -13.00837,13.00838 0,7.19212 5.81625,13.00837 13.00837,13.00837 4.06513,0 7.69245,-1.87622 10.06899,-4.75307 v 6.37912 c 0,5.56608 -4.5029,10.06897 -10.06899,10.06897 -4.19019,0 -7.81753,-2.56414 -9.31849,-6.31656 l -2.68923,1.25081 c 2.00128,4.75305 6.62927,8.00515 12.00772,8.00515 7.19213,0 13.00838,-5.81624 13.00838,-13.00837 v -27.14247 z m -10.06899,22.57702 c -5.62862,0 -10.13152,-4.50289 -10.13152,-10.06897 0,-5.62863 4.5029,-10.06899 10.13152,-10.06899 5.56609,0 10.06899,4.44036 10.06899,10.06899 0,5.56608 -4.5029,10.06897 -10.06899,10.06897 z" style="font-style:normal;font-variant:normal;font-weight:300;font-stretch:normal;font-size:42.9412px;line-height:1.25;font-family:Now;-inkscape-font-specification:'Now Light';letter-spacing:0;word-spacing:0;fill:#fefefe;fill-opacity:1;stroke-width:1.25081"/></g><style id="style853" type="text/css"/></svg>