<svg xmlns="http://www.w3.org/2000/svg" xmlns:svg="http://www.w3.org/2000/svg" id="svg2" width="192" height="192" version="1.1" viewBox="0 0 192 192"><metadata id="metadata7"/><g id="layer1" transform="translate(0,-860.36216)"><circle id="circle1029" cx="96" cy="956.362" r="88" style="fill:#ff837d;fill-opacity:1;fill-rule:evenodd;stroke:none;stroke-width:1;stroke-opacity:1"/><path style="fill:#fff;fill-opacity:1;stroke-width:4.10588" id="path1031" d="m 78.571178,924.8528 c -2.394736,2.78089 -4.789528,5.56174 -7.184219,8.34266 12.925636,0 25.851273,0 38.776911,0 -16.489653,15.83708 -32.984812,31.66883 -49.471021,47.50925 -1.196655,1.21295 -1.536495,3.16655 -0.820643,4.71256 0.566809,1.50704 2.050876,2.6098 3.659784,2.7044 2.622645,0.0242 5.246612,0.003 7.869759,0.0102 18.950872,-0.002 37.901831,0.003 56.852641,-0.002 1.66425,-0.0354 3.23889,-1.12085 3.87513,-2.65737 0.70593,-1.53176 0.38145,-3.46161 -0.7894,-4.67601 -7.39547,-7.65267 -14.78494,-15.31166 -22.17799,-22.96687 -0.37918,-0.0959 -0.87166,-0.1499 -1.14625,0.18696 -1.75934,1.61744 -3.51834,3.23523 -5.27787,4.85246 0.0186,0.30016 -0.0363,0.63069 0.0264,0.91259 5.11294,5.12617 10.22623,10.25199 15.33931,15.37804 -14.49878,0 -28.997565,0 -43.496345,0 16.469712,-15.69774 32.945165,-31.38994 49.411285,-47.09114 1.2077,-1.21874 1.57064,-3.17586 0.87677,-4.74566 -0.57741,-1.52588 -2.08868,-2.63605 -3.71915,-2.72182 -3.40463,-0.0207 -6.81009,-0.003 -10.21505,-0.009 -10.72201,0 -21.444034,0 -32.166049,0 -0.0747,0.0869 -0.149382,0.17379 -0.224073,0.26069 z"/></g><style id="style853" type="text/css"/><style id="style853-9" type="text/css"/><style id="style853-3" type="text/css"/></svg>