<svg xmlns="http://www.w3.org/2000/svg" xmlns:svg="http://www.w3.org/2000/svg" id="svg2" width="192" height="192" version="1.1" viewBox="0 0 192 192"><defs id="defs4"><style id="style873">.cls-1{fill:#001e62}</style></defs><metadata id="metadata7"/><g id="layer1" transform="translate(0,-860.36216)"><circle id="circle957" cx="96" cy="954.009" r="88" style="fill:#96ded3;fill-opacity:1;fill-rule:evenodd;stroke:none;stroke-opacity:1"/><path style="stroke-width:.394296;fill:#fff;fill-opacity:1" id="path953" d="m 83.063144,971.63324 c -4.163767,0 -6.166791,-3.20563 -5.125849,-6.90807 2.160743,-7.67694 16.024194,-19.05633 25.475475,-19.05633 6.89229,0 6.36788,6.16679 2.33029,11.43459 l -2.23566,2.46829 c -8.008156,7.88593 -15.436695,12.06546 -20.448199,12.06546 z m 33.795126,-51.77108 c -12.05758,0 -25.34536,7.38911 -33.68078,14.37604 l 0.658475,0.95025 c 12.940799,-9.06881 30.908875,-14.98325 35.880945,-6.12342 2.61419,4.67241 -1.82559,14.10003 -8.07518,21.55617 1.49832,-3.29237 0.51258,-9.61294 -8.2053,-9.61294 -14.49433,0 -43.017712,19.19828 -43.017712,38.84213 0,7.88592 5.453115,13.01177 14.44701,13.01177 24.052063,0 56.715552,-39.45723 56.715552,-59.27455 0,-6.99876 -4.02576,-13.72151 -14.7033,-13.72151 z" class="cls-1"/></g><style id="style853" type="text/css"/></svg>