<svg xmlns="http://www.w3.org/2000/svg" xmlns:svg="http://www.w3.org/2000/svg" id="svg2" width="192" height="192" version="1.1" viewBox="0 0 192 192"><metadata id="metadata7"/><g id="layer1" transform="translate(0,-860.36216)"><path style="fill:#fff;fill-opacity:1;fill-rule:evenodd;stroke:none;stroke-width:.993464;stroke-opacity:1" id="rect914" d="m 57.962891,935.96958 a 15.318317,15.318317 0 0 0 -15.28125,15.31836 15.318317,15.318317 0 0 0 0.865234,5.07422 H 20 v 66.06444 c 0,5.5038 4.431756,9.9356 9.935547,9.9356 H 96 v -23.5469 a 15.318317,15.318317 0 0 1 -5.074219,0.8652 A 15.318317,15.318317 0 0 1 75.607422,994.36216 15.318317,15.318317 0 0 1 90.925781,979.0438 15.318317,15.318317 0 0 1 96,979.90904 V 956.36216 H 72.453125 A 15.318317,15.318317 0 0 0 73.318359,951.28794 15.318317,15.318317 0 0 0 58,935.96958 a 15.318317,15.318317 0 0 0 -0.03711,0 z"/><path style="fill:#ff837d;fill-opacity:1;fill-rule:evenodd;stroke:none;stroke-width:.993464;stroke-opacity:1" id="path944" d="M 75.607422,994.39926 A 15.318317,15.318317 0 0 0 90.925781,1009.6805 15.318317,15.318317 0 0 0 96,1008.8153 v 23.5469 h 66.06445 c 5.50379,0 9.93555,-4.4318 9.93555,-9.9356 v -66.06444 h -23.54688 a 15.318317,15.318317 0 0 1 0.86524,5.07421 A 15.318317,15.318317 0 0 1 134,976.75473 a 15.318317,15.318317 0 0 1 -15.31836,-15.31836 15.318317,15.318317 0 0 1 0.86524,-5.07421 H 96 v 23.54687 a 15.318317,15.318317 0 0 0 -5.074219,-0.86523 15.318317,15.318317 0 0 0 -15.318359,15.31836 15.318317,15.318317 0 0 0 0,0.0371 z"/><path style="fill:#ff837d;fill-opacity:1;fill-rule:evenodd;stroke:none;stroke-width:.993464;stroke-opacity:1" id="path946" d="m 116.39256,918.32505 a 15.318317,15.318317 0 0 0 -15.31836,-15.28124 15.318317,15.318317 0 0 0 -5.074201,0.8652 v -23.5469 H 29.935573 c -5.5038,0 -9.9356,4.4318 -9.9356,9.9356 v 66.06444 h 23.5469 a 15.318317,15.318317 0 0 1 -0.8652,-5.07421 15.318317,15.318317 0 0 1 15.318296,-15.31836 15.318317,15.318317 0 0 1 15.31839,15.31836 15.318317,15.318317 0 0 1 -0.86524,5.07421 h 23.54688 v -23.54687 a 15.318317,15.318317 0 0 0 5.074211,0.86523 15.318317,15.318317 0 0 0 15.31836,-15.31836 15.318317,15.318317 0 0 0 -1e-5,-0.0371 z"/><path style="fill:#fff;fill-opacity:1;fill-rule:evenodd;stroke:none;stroke-width:.993464;stroke-opacity:1" id="path949" d="m 134.03708,976.75473 a 15.318317,15.318317 0 0 0 15.28124,-15.31836 15.318317,15.318317 0 0 0 -0.8652,-5.07421 h 23.5469 v -66.06442 c 0,-5.5038 -4.43181,-9.9356 -9.9356,-9.9356 H 95.99998 v 23.5469 a 15.318317,15.318317 0 0 1 5.07421,-0.8652 15.318317,15.318317 0 0 1 15.31836,15.31829 15.318317,15.318317 0 0 1 -15.31836,15.31839 15.318317,15.318317 0 0 1 -5.07421,-0.86524 v 23.54688 h 23.54687 a 15.318317,15.318317 0 0 0 -0.86523,5.07422 15.318317,15.318317 0 0 0 15.31836,15.31836 15.318317,15.318317 0 0 0 0.0371,-10e-6 z"/></g><style id="style853" type="text/css"/><style id="style853-9" type="text/css"/><style id="style853-3" type="text/css"/></svg>