<svg xmlns="http://www.w3.org/2000/svg" xmlns:svg="http://www.w3.org/2000/svg" id="svg2" width="192" height="192" version="1.1" viewBox="0 0 192 192"><metadata id="metadata7"/><g id="layer1" transform="translate(0,-860.36216)"><rect style="fill:#708cbd;fill-opacity:1;fill-rule:evenodd;stroke:none;stroke-width:.993;stroke-miterlimit:4;stroke-dasharray:none;stroke-opacity:1" id="rect997" width="152" height="152" x="20" y="880.362" rx="9.935" ry="9.935"/><g id="g846"><path style="color:#000;font-style:normal;font-variant:normal;font-weight:400;font-stretch:normal;font-size:medium;line-height:normal;font-family:sans-serif;font-variant-ligatures:normal;font-variant-position:normal;font-variant-caps:normal;font-variant-numeric:normal;font-variant-alternates:normal;font-variant-east-asian:normal;font-feature-settings:normal;font-variation-settings:normal;text-indent:0;text-align:start;text-decoration:none;text-decoration-line:none;text-decoration-style:solid;text-decoration-color:#000;letter-spacing:normal;word-spacing:normal;text-transform:none;writing-mode:lr-tb;direction:ltr;text-orientation:mixed;dominant-baseline:auto;baseline-shift:baseline;text-anchor:start;white-space:normal;shape-padding:0;shape-margin:0;inline-size:0;clip-rule:nonzero;display:inline;overflow:visible;visibility:visible;isolation:auto;mix-blend-mode:normal;color-interpolation:sRGB;color-interpolation-filters:linearRGB;solid-color:#000;solid-opacity:1;vector-effect:none;fill:#fff;fill-opacity:1;fill-rule:nonzero;stroke:none;stroke-width:8.47721;stroke-linecap:round;stroke-linejoin:miter;stroke-miterlimit:4;stroke-dasharray:none;stroke-dashoffset:0;stroke-opacity:1;color-rendering:auto;image-rendering:auto;shape-rendering:auto;text-rendering:auto;enable-background:accumulate;stop-color:#000" id="path982" d="m 119.79904,937.04806 c -1.10397,0.0154 -2.15837,0.46088 -2.93888,1.24177 l -20.692165,20.69218 -10.646186,-10.2095 c -1.68904,-1.61968 -4.371104,-1.56409 -5.991584,0.12418 -1.621063,1.68929 -1.565461,4.37295 0.124181,5.99365 l 15.194228,14.57051 a 2.0423484,2.0423484 179.39978 0 0 2.857744,-0.0299 l 25.147432,-25.14744 c 1.65485,-1.6552 1.65485,-4.33845 0,-5.99365 -0.80891,-0.80928 -1.91064,-1.25714 -3.05477,-1.24177 z"/><path id="path986" d="m 107.98416,929.13921 -11.234905,9.79894 a 1.097625,1.6581505 0 0 1 -1.646447,-1.43601 v -19.59787 a 1.097625,1.6581505 0 0 1 1.646447,-1.436 l 11.234905,9.79894 a 1.097625,1.6581505 0 0 1 0,2.872 z" style="fill:#99bdfe;fill-opacity:1;stroke-width:9.34673;stroke-linecap:round;stroke-linejoin:miter;stroke-miterlimit:4;stroke-dasharray:none;stop-color:#000"/><path style="fill:none;stroke:#99bdfe;stroke-width:8.47721;stroke-linecap:round;stroke-linejoin:miter;stroke-miterlimit:4;stroke-dasharray:none;stroke-opacity:1;stop-color:#000" id="path988" d="M 123.01496,965.92956 A 28.659079,28.659079 0 0 1 89.20621,984.18911 28.659079,28.659079 0 0 1 67.618896,952.40184 28.659079,28.659079 0 0 1 97.0583,927.70843"/></g></g><style id="style853" type="text/css"/><style id="style853-9" type="text/css"/><style id="style853-3" type="text/css"/></svg>