<svg xmlns="http://www.w3.org/2000/svg" xmlns:svg="http://www.w3.org/2000/svg" id="svg2" width="192" height="192" version="1.1" viewBox="0 0 192 192"><metadata id="metadata7"/><g id="layer1" transform="translate(0,-860.36216)"><rect style="fill:#fefefe;fill-opacity:1;fill-rule:evenodd;stroke:none;stroke-opacity:1" id="rect864" width="153" height="153" x="19.5" y="879.862" rx="10"/><g id="g958" transform="matrix(0.4792739,0,0,0.4792739,49.989775,498.00273)"><path id="path1272" d="M 50.012951,890.02675 26.833007,1022.6976 H 66.541025 L 86.278609,890.02675 Z" style="fill:#708cbd;fill-opacity:1;stroke-width:.102469;stroke-linecap:round;stroke-linejoin:round;stop-color:#000"/><path id="path1274" d="M 116.31019,932.46273 82.874801,1022.6976 H 119.8297 l 33.22926,-90.23487 z" style="fill:#708cbd;fill-opacity:1;stroke-width:.0777953;stroke-linecap:round;stroke-linejoin:round;stop-color:#000"/><path id="path1276" d="m 50.012951,890.02675 32.86185,132.67085 H 119.8297 L 86.278609,890.02675 Z" style="fill:#99bdfe;fill-opacity:1;stroke-width:.102469;stroke-linecap:round;stroke-linejoin:round;stop-color:#000"/><path id="path1278" d="m 116.31019,932.46273 20.08771,90.23487 h 31.74954 a 4.0092839,4.0092839 128.72462 0 0 3.91348,-4.8805 l -19.00196,-85.35437 z" style="fill:#99bdfe;fill-opacity:1;stroke-width:.102469;stroke-linecap:round;stroke-linejoin:round;stop-color:#000"/><path id="path1280" d="m 19.853215,966.05468 6.979792,56.64292 H 66.541025 L 22.286653,965.05811 a 1.3627561,1.3627561 157.72944 0 0 -2.433438,0.99657 z" style="fill:#99bdfe;fill-opacity:1;stroke-width:.102469;stroke-linecap:round;stroke-linejoin:round;stop-color:#000"/></g></g><style id="style853" type="text/css"/><style id="style853-5" type="text/css"/></svg>