<svg xmlns="http://www.w3.org/2000/svg" xmlns:svg="http://www.w3.org/2000/svg" id="svg2" width="192" height="192" version="1.1" viewBox="0 0 192 192"><metadata id="metadata7"/><g id="layer1" transform="translate(0,-860.36216)"><rect style="fill:#708cbd;fill-opacity:1;fill-rule:evenodd;stroke:none;stroke-opacity:1" id="rect1138" width="153" height="153" x="19.5" y="879.862" rx="10"/><path id="path1102" d="m 96.000039,919.86216 c -4.119317,0 -6.736747,3.70192 -6.736747,6.73676 0,0.32368 0.02762,0.67806 0.06359,1.02566 -9.60185,2.51641 -16.022029,10.68735 -17.252905,23.32029 l -0.875491,9.00184 c -3.524462,2.61537 -6.201155,6.30517 -7.546234,10.59718 -0.49506,1.57969 0.653586,2.91705 2.31044,2.91705 h 60.074618 c 1.65685,0 2.8055,-1.33736 2.31043,-2.91705 -1.34508,-4.29201 -4.02177,-7.98181 -7.54623,-10.59718 l -0.87549,-9.00184 c -1.23087,-12.63294 -7.65105,-20.80388 -17.2529,-23.32029 0.036,-0.3476 0.0636,-0.70198 0.0636,-1.02566 0,-3.03484 -2.61745,-6.73676 -6.736749,-6.73676 z" style="fill:#fefefe;fill-opacity:1;stroke:none;stroke-width:.280639;stroke-linecap:round;stroke-linejoin:round;stop-color:#000"/><circle style="fill:#99bdfe;fill-opacity:1;stroke:none;stroke-width:.408636;stroke-linecap:round;stroke-linejoin:round;stop-color:#000" id="circle1104" cx="96" cy="986.126" r="6.736"/></g><style id="style853" type="text/css"/></svg>