<svg xmlns="http://www.w3.org/2000/svg" xmlns:svg="http://www.w3.org/2000/svg" style="fill-rule:evenodd;clip-rule:evenodd;stroke-linejoin:round;stroke-miterlimit:2" id="svg15" width="100%" height="100%" version="1.1" viewBox="0 0 192 192" xml:space="preserve"><metadata id="metadata21"/><path style="fill:#9abeff" id="path2" d="M 96 19.5 L 30 97 L 96 172.5 L 162.5 172.5 C 168.019 172.5 172.5 168.019 172.5 162.5 L 172.5 29.5 C 172.5 23.981 168.019 19.5 162.5 19.5 L 96 19.5 z"/><path style="opacity:1;vector-effect:none;fill:#8c72bd;fill-opacity:1;stroke-width:4.02631569;paint-order:stroke fill markers" id="rect976" d="M 29.5 19.5 C 23.981 19.5 19.5 23.981 19.5 29.5 L 19.5 162.5 C 19.5 168.019 23.981 172.5 29.5 172.5 L 96 172.5 L 96 19.5 L 29.5 19.5 z"/><path style="fill:#fff;stroke-width:4.02631569" id="path957" d="M 99.076172 59.884766 C 88.360382 59.723679 77.378906 65.550782 67.816406 79.894531 L 59.763672 73.855469 L 59.763672 104.05273 L 87.947266 93.986328 L 79.894531 87.947266 C 95.999794 63.789371 120.1582 67.816406 120.1582 67.816406 C 113.61544 62.909334 106.40803 59.994983 99.076172 59.884766 z M 132.23633 87.947266 L 104.05273 98.013672 L 112.10547 104.05273 C 96.000204 128.21062 71.841797 124.18359 71.841797 124.18359 C 87.94706 136.26253 108.07833 136.26336 124.18359 112.10547 L 132.23633 118.14453 L 132.23633 87.947266 z"/></svg>