<svg xmlns="http://www.w3.org/2000/svg" xmlns:svg="http://www.w3.org/2000/svg" id="svg2" width="192" height="192" version="1.1" viewBox="0 0 192 192"><metadata id="metadata7"/><g id="layer1" transform="translate(0,-860.36216)"><rect id="rect966" width="153" height="153" x="19.5" y="879.862" rx="10" style="fill:#99bdfe;fill-opacity:1;fill-rule:evenodd;stroke:none;stroke-opacity:1"/><path style="fill:#fff;fill-opacity:1;stroke-width:1.07336;stroke-linecap:round;stroke-linejoin:round;stroke-miterlimit:10" id="path948" d="m 96.527392,945.27462 a 8.5835823,8.5835823 0 0 0 -8.583519,8.58352 8.5835823,8.5835823 0 0 0 5.380031,7.9624 8.5835823,8.5835823 0 0 0 0,10e-4 l -1.428846,11.47514 h 4.632334 4.632338 l -1.428851,-11.47645 a 8.5835823,8.5835823 0 0 0 5.380041,-7.9624 8.5835823,8.5835823 0 0 0 -8.583528,-8.58352 z"/><path id="path937" d="m 129.8276,943.69534 -1.5e-4,31.84364 a 10.01991,10.01991 0 0 1 -10.01991,10.01986 H 73.185719" style="fill:none;stroke:#fff;stroke-width:5.3448;stroke-linecap:butt;stroke-linejoin:miter;stroke-miterlimit:4;stroke-dasharray:none;stroke-opacity:1"/><path id="path950" d="m 62.172401,988.27527 v -57.70038 a 3.4534536,3.4534536 0 0 1 3.453453,-3.45345 h 26.732585 a 3.5431367,3.5431367 0 0 1 3.543136,3.54314 3.0199862,3.0199862 0 0 0 3.019987,3.01999 h 33.504408" style="fill:none;stroke:#fff;stroke-width:5.3448;stroke-linecap:butt;stroke-linejoin:miter;stroke-miterlimit:4;stroke-dasharray:none;stroke-opacity:1"/></g><style id="style853" type="text/css"/></svg>