<svg xmlns="http://www.w3.org/2000/svg" xmlns:svg="http://www.w3.org/2000/svg" id="svg2" width="192" height="192" version="1.1" viewBox="0 0 192 192"><metadata id="metadata7"/><g id="layer1" transform="translate(0,-860.36216)"><rect id="rect842" width="153" height="153" x="19.5" y="879.862" rx="10" style="fill:#fe837e;fill-opacity:1;fill-rule:evenodd;stroke:none;stroke-opacity:1"/><g id="g965" transform="matrix(1.0057504,0,0,1.0057504,-0.34215338,-5.499475)"><path id="rect864" d="m 73.762939,920.07086 c -5.06086,0 -9.486451,2.61181 -12.016914,6.56417 a 8.0397953,8.0397953 0 0 1 5.759454,7.70931 8.0397953,8.0397953 0 0 1 -8.005479,8.0392 v 6.17947 a 8.0397953,8.0397953 0 0 1 8.005479,8.0392 A 8.0397953,8.0397953 0 0 1 59.5,964.64142 v 6.20318 a 8.0397953,8.0397953 0 0 1 8.005479,8.03921 8.0397953,8.0397953 0 0 1 -5.483312,7.62236 c 2.569145,3.71822 6.859818,6.14731 11.740772,6.14731 h 28.013111 l 30.30658,-31.16872 V 934.3338 c 0,-7.90169 -6.36179,-14.26294 -14.26347,-14.26294 z" style="opacity:1;fill:#fefefe;fill-opacity:1;stroke:none;stroke-width:.295081;stroke-linecap:round"/><path id="rect909" d="m 132.08203,100.69336 h -15.42187 c -7.90169,0 -14.26368,6.36004 -14.26368,14.26172 v 16.69726 l 29.68555,-30.52929 z" transform="translate(0,860.36216)" style="opacity:1;fill:#bb6763;fill-opacity:1;stroke:none;stroke-width:.295081;stroke-linecap:round"/></g></g></svg>