<svg xmlns="http://www.w3.org/2000/svg" xmlns:svg="http://www.w3.org/2000/svg" id="svg14" width="192" height="192" version="1.1" viewBox="0 0 192 192"><metadata id="metadata20"/><g id="layer4"><circle id="circle4-7" cx="95.5" cy="95.5" r="88" style="display:inline;fill:#98dc9a;fill-opacity:1;stroke:none;opacity:1"/><g id="g892" transform="translate(-3.6732262)"><ellipse id="ellipse984" cx="119.457" cy="94.403" rx="5.71" ry="5.251" style="fill:#ffb0ac;fill-opacity:1;stroke:none;stroke-width:2.24779;stroke-miterlimit:4;stroke-dasharray:none"/><ellipse style="fill:#ffb0ac;fill-opacity:1;stroke:none;stroke-width:2.24779;stroke-miterlimit:4;stroke-dasharray:none" id="path982" cx="79.73" cy="94.323" rx="5.71" ry="5.251"/><ellipse id="path835" cx="99.463" cy="97.981" rx="21.936" ry="21.012" style="fill:#fcecdc;fill-opacity:1;stroke:none;stroke-width:.847774;stroke-miterlimit:4;stroke-dasharray:none"/><path id="path1046" d="M 126.13499,112.41599 C 125.7938,104.24324 118.72432,95.200733 109.56645,95.200733 H 67.160705 c 2.615781,33.105287 33.190275,38.947337 41.732845,37.378997 8.54257,-1.56834 17.63926,-10.63454 17.24144,-20.16374 z" style="fill:#fff;fill-opacity:1;stroke:none;stroke-width:.891938;stroke-miterlimit:4;stroke-dasharray:none"/><ellipse id="path839" cx="99.623" cy="95.707" rx="5.916" ry="4.108" style="fill:#ffb0ac;fill-opacity:1;stroke:none;stroke-width:.918174;stroke-miterlimit:4;stroke-dasharray:none"/><ellipse id="path907" cx="89.221" cy="91.905" rx="1.263" ry="1.209" style="fill:#4a4a4a;fill-opacity:1;stroke:none;stroke-width:.67564;stroke-miterlimit:4;stroke-dasharray:none"/><ellipse style="fill:#4a4a4a;fill-opacity:1;stroke:none;stroke-width:.67564;stroke-miterlimit:4;stroke-dasharray:none" id="circle980" cx="110.21" cy="91.905" rx="1.263" ry="1.209"/><path id="rect990" d="m 80.292836,63.659409 c 17.086172,0 33.856354,8.79116 33.856354,13.349536 H 80.292836 Z" style="fill:#dc505e;fill-opacity:1;stroke:none;stroke-width:1.69515;stroke-miterlimit:4;stroke-dasharray:none"/><rect style="fill:#fff;fill-opacity:1;stroke:none;stroke-width:1.65093;stroke-miterlimit:4;stroke-dasharray:none" id="rect986" width="49.056" height="13.269" x="74.985" y="75.24" ry="2.453"/><circle id="path988" cx="71.206" cy="64.544" r="6.353" style="fill:#fff;fill-opacity:1;stroke:none;stroke-width:1.61675;stroke-miterlimit:4;stroke-dasharray:none"/><path id="path996" d="m 95.581103,101.82725 a 4.0611543,4.0611543 0 0 0 4.041972,3.70341 4.0611543,4.0611543 0 0 0 4.043065,-3.70341 z" style="fill:#56595b;fill-opacity:1;stroke:none;stroke-width:1.40769;stroke-miterlimit:4;stroke-dasharray:none"/></g></g></svg>