<svg xmlns="http://www.w3.org/2000/svg" xmlns:xlink="http://www.w3.org/1999/xlink" width="100%" height="100%" version="1.1" viewBox="0 0 192 192" xml:space="preserve" style="fill-rule:evenodd;clip-rule:evenodd;stroke-linejoin:round;stroke-miterlimit:2"><g><g><path d="M164.5,21.5C164.5,15.981 160.019,11.5 154.5,11.5L21.5,11.5C15.981,11.5 11.5,15.981 11.5,21.5L11.5,154.5C11.5,160.019 15.981,164.5 21.5,164.5L154.5,164.5C160.019,164.5 164.5,160.019 164.5,154.5L164.5,21.5Z" transform="matrix(1,0,0,1,8,8)" style="fill:#fff"/></g></g><g transform="matrix(0.749389,0,0,0.749389,24.098,24.2184)"><g id="Layer1"><path d="M123.578,94.511L123.578,82.626L68.735,56.459L68.735,89.264L111.435,110.539L111.435,118.855L68.735,98.236L68.735,110.19L123.578,136.816L123.578,103.779L80.762,82.626L80.762,73.428L123.578,94.511Z" style="fill:#4a4a4a"/></g></g></svg>