<svg xmlns="http://www.w3.org/2000/svg" xmlns:xlink="http://www.w3.org/1999/xlink" width="100%" height="100%" version="1.1" viewBox="0 0 192 192" xml:space="preserve" style="fill-rule:evenodd;clip-rule:evenodd;stroke-linejoin:round;stroke-miterlimit:2"><g id="Layer1"><g><g><path d="M151.5,10.5C151.5,4.981 147.019,0.5 141.5,0.5L34.5,0.5C28.981,0.5 24.5,4.981 24.5,10.5L24.5,165.5C24.5,171.019 28.981,175.5 34.5,175.5L141.5,175.5C147.019,175.5 151.5,171.019 151.5,165.5L151.5,10.5Z" transform="matrix(1,0,0,1,8,8)" style="fill:#9abeff"/></g><path d="M57,8.5L57,183.5L42.5,183.5C36.981,183.5 32.5,179.019 32.5,173.5L32.5,18.5C32.5,12.981 36.981,8.5 42.5,8.5L57,8.5Z" style="fill:#56595b"/><rect width="59.167" height="13.958" x="78.838" y="102.262" style="fill:#728dbe"/><g transform="matrix(0.757701,0,0,1,19.1024,24.242)"><rect width="59.167" height="13.958" x="78.838" y="102.262" style="fill:#728dbe"/></g><path d="M141.82,8.5L141.82,44.483L124.913,33.697L108.006,44.483L108.006,8.5L141.82,8.5Z" style="fill:#fff"/></g></g></svg>