<svg xmlns="http://www.w3.org/2000/svg" xmlns:svg="http://www.w3.org/2000/svg" id="Layer_1" width="192" height="192" x="0" y="0" enable-background="new 0 0 192 192" version="1.1" viewBox="0 0 192 192" xml:space="preserve"><metadata id="metadata29"/><circle id="circle2" cx="96" cy="96" r="88.533" fill="#87ded5" style="fill:#95ded2;fill-opacity:1"/><path style="color:#000;font-style:normal;font-variant:normal;font-weight:400;font-stretch:normal;font-size:medium;line-height:normal;font-family:sans-serif;font-variant-ligatures:normal;font-variant-position:normal;font-variant-caps:normal;font-variant-numeric:normal;font-variant-alternates:normal;font-variant-east-asian:normal;font-feature-settings:normal;font-variation-settings:normal;text-indent:0;text-align:start;text-decoration:none;text-decoration-line:none;text-decoration-style:solid;text-decoration-color:#000;letter-spacing:normal;word-spacing:normal;text-transform:none;writing-mode:lr-tb;direction:ltr;text-orientation:mixed;dominant-baseline:auto;baseline-shift:baseline;text-anchor:start;white-space:normal;shape-padding:0;shape-margin:0;inline-size:0;clip-rule:nonzero;display:inline;overflow:visible;visibility:visible;isolation:auto;mix-blend-mode:normal;color-interpolation:sRGB;color-interpolation-filters:linearRGB;solid-color:#000;solid-opacity:1;vector-effect:none;fill:#545859;fill-opacity:1;fill-rule:nonzero;stroke:none;stroke-width:10.9084;stroke-linecap:round;stroke-linejoin:round;stroke-miterlimit:4;stroke-dasharray:none;stroke-dashoffset:0;stroke-opacity:1;color-rendering:auto;image-rendering:auto;shape-rendering:auto;text-rendering:auto;enable-background:accumulate;stop-color:#000" id="path7510" d="m 114.84951,109.79868 a 5.4541998,5.4541998 0 0 0 -4.12109,1.81445 5.4541998,5.4541998 0 0 0 0.42187,7.70117 l 34.26758,30.7168 a 5.4541998,5.4541998 0 0 0 7.70313,-0.41992 5.4541998,5.4541998 0 0 0 -0.42188,-7.70313 l -34.26757,-30.71679 a 5.4541998,5.4541998 0 0 0 -3.58204,-1.39258 z"/><circle id="circle7482" cx="96" cy="96" r="26.903" fill="#fff" style="fill:#fff;fill-opacity:1;stroke:#545859;stroke-width:8.10063;stroke-miterlimit:4;stroke-dasharray:none;stroke-opacity:1"/><circle id="circle7484" cx="96" cy="96" r="8.028" fill="#56595b" style="stroke-width:.810063;fill:#545859;fill-opacity:1"/><circle id="circle7486" cx="99.471" cy="93.831" r="1.953" fill="#fff" style="stroke-width:.810063"/><path id="path7488" fill="#56595b" d="m 71.348175,78.234074 c 0,0 -8.35094,-5.30601 -8.74808,-12.8857 -0.39788,-7.57968 -8.74808,10.99059 2.78365,26.53003 z" style="stroke-width:.810063"/><path id="path7490" fill="#56595b" d="m 120.6513,78.234074 c 0,0 8.35094,-5.30601 8.74881,-12.8857 0.39714,-7.57968 8.74809,10.99059 -2.78364,26.53003 z" style="stroke-width:.810063"/></svg>