<svg xmlns="http://www.w3.org/2000/svg" xmlns:svg="http://www.w3.org/2000/svg" id="svg2" width="192" height="192" version="1.1" viewBox="0 0 192 192"><metadata id="metadata7"/><g id="layer1" transform="translate(0,-860.36216)"><rect id="rect921" width="153" height="153" x="19.5" y="879.862" rx="10" style="fill:#97db99;fill-opacity:1;fill-rule:evenodd;stroke:none;stroke-opacity:1"/><path id="path931" d="m 64.46108,970.10044 c 5.38439,0 9.951507,-3.17294 9.951507,-8.55733 0,-10.67263 -13.268676,-8.02851 -13.268676,-13.02831 0,-1.63453 1.249948,-2.40374 2.788345,-2.40374 1.634547,0 3.269095,0.91342 4.711341,2.4999 l 4.230593,-4.03829 c -2.115296,-2.45182 -5.336315,-4.08637 -8.893859,-4.08637 -4.567116,0 -9.230383,2.74027 -9.230383,8.50926 0,9.80728 13.316751,7.45161 13.316751,12.49947 0,1.58648 -1.346098,2.64413 -3.557544,2.64413 -2.644121,0 -4.711341,-1.49032 -5.768989,-3.74985 L 53.5,963.65841 c 1.874921,3.60562 5.913215,6.44203 10.96108,6.44203 z" style="font-weight:700;font-size:41.5141px;line-height:1.25;font-family:Now;-inkscape-font-specification:'Now Bold';letter-spacing:5.18926px;word-spacing:0;fill:#fff;fill-opacity:1;stroke-width:.961496"/><path id="path933" d="m 104.19678,946.75295 v -5.57669 H 86.841736 v 28.84494 h 17.355044 v -5.57668 H 93.187625 v -6.05744 h 9.422675 v -5.5767 h -9.422675 v -6.05743 z" style="font-weight:700;font-size:41.5141px;line-height:1.25;font-family:Now;-inkscape-font-specification:'Now Bold';letter-spacing:5.18926px;word-spacing:0;fill:#fff;fill-opacity:1;stroke-width:.961496"/><path id="path935" d="m 133.98096,955.7118 c 2.16337,-1.1538 3.55754,-3.17294 3.55754,-6.20166 0,-5.09594 -3.84599,-8.02851 -8.70156,-8.02851 h -12.21102 v 28.84494 h 13.31674 c 4.80749,0 8.55734,-2.78834 8.55734,-7.88428 0,-3.50947 -1.82685,-5.67284 -4.51904,-6.73049 z m -2.78835,-5.52861 c 0,1.68262 -1.39417,3.12486 -3.12487,3.12486 h -5.09594 v -6.20166 h 5.09594 c 1.7307,0 3.12487,1.3461 3.12487,3.0768 z m -2.16337,14.51862 h -6.05744 v -6.20166 h 6.05744 c 1.77877,0 3.12487,1.44224 3.12487,3.12487 0,1.73069 -1.3461,3.07679 -3.12487,3.07679 z" style="font-weight:700;font-size:41.5141px;line-height:1.25;font-family:Now;-inkscape-font-specification:'Now Bold';letter-spacing:5.18926px;word-spacing:0;fill:#fff;fill-opacity:1;stroke-width:.961496"/><rect id="rect927" width="3.807" height="53.302" x="78.724" y="929.559" style="fill:#fff;fill-opacity:1;stroke:#fefefe;stroke-width:0;stroke-linecap:round;stroke-linejoin:round;stop-color:#000"/><rect id="rect929" width="3.807" height="53.302" x="108.508" y="929.864" style="fill:#fff;fill-opacity:1;stroke:#fefefe;stroke-width:0;stroke-linecap:round;stroke-linejoin:round;stop-color:#000"/></g><style id="style853" type="text/css"/></svg>