<svg xmlns="http://www.w3.org/2000/svg" xmlns:svg="http://www.w3.org/2000/svg" id="svg2" width="192" height="192" version="1.1" viewBox="0 0 192 192"><defs id="defs4"><style id="style907"/><style id="style907-0"/></defs><metadata id="metadata7"/><g id="layer1" transform="translate(0,-860.36216)"><path style="fill:#96dfd3;fill-opacity:1;stroke:none;stroke-width:7.91731;stroke-linecap:round;stroke-linejoin:round;stop-color:#000" id="path1168" d="m 10.31631,947.71754 35.35544,-61.2374 a 17.289246,17.289246 0 0 1 14.97296,-8.64462 l 70.71062,9e-5 a 17.289299,17.289299 0 0 1 14.97295,8.64464 l 35.3554,61.23729 a 17.289275,17.289275 0 0 1 1e-5,17.28927 l -35.35537,61.23739 a 17.289232,17.289232 0 0 1 -14.97294,8.6446 l -70.71076,-10e-5 a 17.28929,17.28929 0 0 1 -14.97295,-8.6446 L 10.31631,965.00679 a 17.289267,17.289267 0 0 1 0,-17.28925 z"/><circle id="circle1170" cx="79.436" cy="956.362" r="13.328" style="fill:none;fill-opacity:1;stroke:#fff;stroke-width:13.2165;stroke-miterlimit:4;stroke-dasharray:none;stroke-opacity:1;stop-color:#000"/><path style="fill:#fff;fill-opacity:1;stroke:none;stroke-width:29.7564;stroke-miterlimit:4;stroke-dasharray:none;stroke-opacity:1;stop-color:#000" id="path1172" d="m 92.76395,950.03473 v 12.65594 h 19.86894 v 13.44695 h 13.20909 V 962.69067 H 132.5 v -12.65594 z"/></g><style id="style853" type="text/css"/><style id="style853-9" type="text/css"/><style id="style853-3" type="text/css"/><style id="style853-56" type="text/css"/><style id="style853-9-2" type="text/css"/><style id="style853-3-9" type="text/css"/><style id="style920" type="text/css"/><style id="style853-5" type="text/css"/><style id="style853-0" type="text/css"/><style id="style853-9-6" type="text/css"/><style id="style853-3-2" type="text/css"/><style id="style920-6" type="text/css"/><style id="style853-5-1" type="text/css"/></svg>