<svg xmlns="http://www.w3.org/2000/svg" xmlns:svg="http://www.w3.org/2000/svg" id="e002072d-0adf-4dde-bfc7-a7a61a0dd4ef" width="192" height="192" data-name="Layer 1" version="1.1" viewBox="0 0 192 192"><metadata id="metadata29"/><defs id="defs4"><style id="style2">.b26b9968-99b6-4e47-be80-c9a9d5d26123{fill:#de505e}.bfd2eedb-3a94-47f6-b0f2-c8b91ae484b4{fill:#fff}</style></defs><circle id="circle6" cx="96" cy="96" r="88" class="b26b9968-99b6-4e47-be80-c9a9d5d26123" style="fill:#ff837d;fill-opacity:1;stroke-width:.374994"/><path id="path12" d="m 82.308118,176.1194 c -0.699749,-0.50142 -1.096398,-1.29846 -0.79704,-1.79614 1.695114,-2.69422 4.789726,-26.54557 4.58766,-35.72463 A 194.28703,194.28703 0 0 0 79.613897,95.000894 c -0.598716,-2.095506 8.082664,-8.179955 19.757622,-13.867756 9.979841,-4.789726 13.669431,-4.890759 14.967891,-0.400391 1.29847,4.191011 1.19744,29.636433 -0.10103,42.808183 -1.29846,13.17175 -7.08356,37.3187 -11.28953,46.5988 l -3.094616,6.88523 H 91.77157 c -4.374367,-0.007 -8.655185,-0.40787 -9.463452,-0.90556 z" class="bfd2eedb-3a94-47f6-b0f2-c8b91ae484b4" style="stroke-width:.374197"/><path id="path14" d="m 108.65161,175.22133 c 2.89255,-6.98627 6.48485,-17.56483 7.48395,-22.35455 0.89808,-3.89165 1.79615,-5.78509 2.79526,-5.78509 0.9991,0 6.88523,2.49215 13.37007,5.6878 8.28099,3.89165 11.77599,6.08445 11.77599,7.28188 0,3.89165 -16.06803,12.17638 -30.13786,15.46932 -5.48573,1.30595 -5.88612,1.19743 -5.28741,-0.29936 z" class="bfd2eedb-3a94-47f6-b0f2-c8b91ae484b4" style="stroke-width:.374197"/><path id="path16" d="m 67.740614,172.52711 c -9.381129,-2.89629 -21.669771,-10.87792 -29.8385,-19.27491 -2.791513,-2.89254 -3.592295,-4.49037 -3.191904,-5.98716 2.29383,-6.98626 21.654803,-33.0304 32.431688,-43.60522 4.191011,-3.992685 5.388442,-4.692434 6.08445,-3.495 1.998214,3.19564 4.991793,28.24067 4.991793,41.91011 0,8.48305 -2.394864,29.13875 -3.495004,30.93489 -0.79704,1.19744 -1.893439,1.11137 -6.982523,-0.48271 z" class="bfd2eedb-3a94-47f6-b0f2-c8b91ae484b4" style="stroke-width:.374197"/><path id="path18" d="m 127.41013,143.089 -8.08266,-3.89165 0.89807,-3.79062 c 0.40039,-2.09551 1.10014,-7.68602 1.49679,-12.47574 l 0.68478,-8.77867 h 14.36918 c 12.57303,0 14.36918,0.19832 14.9679,1.69511 1.69511,4.29204 -11.3756,31.43258 -14.9679,31.13322 -0.68478,0 -4.85334,-1.79614 -9.36616,-3.89165 z" class="bfd2eedb-3a94-47f6-b0f2-c8b91ae484b4" style="stroke-width:.374197"/><path id="path20" d="M 25.430115,137.4012 C 16.348344,119.43973 12.060042,97.388273 14.851555,81.720628 16.449378,72.938216 21.736787,61.165966 25.830506,57.274313 l 2.694221,-2.495897 1.994472,2.495897 c 2.694222,3.390228 8.280989,14.567504 15.566612,31.432581 8.280988,19.256196 8.082663,17.460046 2.593188,23.548246 a 142.82366,142.82366 0 0 0 -16.363652,22.66139 c -1.897181,3.39397 -3.79062,6.18548 -4.191011,6.18548 -0.400391,0 -1.597823,-1.69511 -2.694221,-3.70081 z" class="bfd2eedb-3a94-47f6-b0f2-c8b91ae484b4" style="stroke-width:.374197"/><path id="path22" d="m 58.958201,100.49037 c -0.198325,-0.39665 -0.999107,-2.593189 -1.695114,-4.789727 A 118.12663,118.12663 0 0 0 52.570652,84.399882 59.205511,59.205511 0 0 1 49.277715,76.317218 c 0,-2.593188 16.666751,-15.068929 20.05698,-15.068929 2.095505,0 4.393077,4.692435 6.387549,13.074457 2.095506,9.078029 1.897181,10.574818 -1.597823,13.669431 -1.796147,1.496789 -5.785091,5.089084 -8.879704,7.98163 -3.094612,2.892546 -5.987158,5.014243 -6.286516,4.516563 z" class="bfd2eedb-3a94-47f6-b0f2-c8b91ae484b4" style="stroke-width:.374197"/></svg>