<svg xmlns="http://www.w3.org/2000/svg" xmlns:svg="http://www.w3.org/2000/svg" id="bce27286-7083-43d9-b2a7-529df7ee94f2" width="192" height="192" data-name="svg2" version="1.1" viewBox="0 0 192 192"><metadata id="metadata23"/><defs id="defs4"><style id="style2">.eda07be0-95b2-423d-95cf-d306ba0d80fc{fill:#b02a3c}.f7924980-f552-4695-b1b0-a71477f05d80{fill:#fff}</style></defs><rect id="rect6" width="152" height="152" x="20" y="20" class="eda07be0-95b2-423d-95cf-d306ba0d80fc" rx="10" ry="10" style="fill:#ff837d;fill-opacity:1;stroke-width:.993464"/><path id="path12" d="m 49.61039,133.15117 c 0,-0.50338 3.888831,-7.42234 8.527792,-15.44675 4.638961,-8.02442 14.390649,-24.408835 21.477403,-36.401043 7.086753,-11.992208 13.176623,-22.04 13.601039,-22.207792 0.424415,-0.167793 4.214545,5.655584 8.527796,12.831168 L 109.51221,84.925714 95.496624,109.42338 81.392208,134 H 65.511169 C 55.048831,134 49.61039,133.66442 49.61039,133.15117 Z" class="f7924980-f552-4695-b1b0-a71477f05d80" style="stroke-width:.987013"/><path id="path14" d="m 124.79117,106.97558 v -7.599995 h -9.28779 c -5.82338,0 -9.2878,-0.335585 -9.2878,-0.838961 0,-0.503377 1.62858,-3.721039 3.6026,-7.185455 l 3.57299,-6.208312 5.49766,-0.246753 5.48779,-0.256623 0.24676,-7.767793 0.25662,-7.896103 h 14.27221 v 16.048831 h 16.06857 v 14.351169 h -16.06857 v 15.199995 h -14.36104 z" class="f7924980-f552-4695-b1b0-a71477f05d80" style="stroke-width:.987013"/><path id="path16" d="M 46.856623,75.055585 C 43.727792,69.656624 40.184416,63.576624 38.96052,61.632208 L 36.779221,58 h 27.211948 c 21.457662,0 27.113247,0.256623 26.777662,1.095585 -0.256623,0.513246 -3.651948,6.504415 -7.6,13.216103 l -7.185454,12.337663 -11.735585,0.167792 -11.676363,0.207273 z" class="f7924980-f552-4695-b1b0-a71477f05d80" style="stroke-width:.987013"/></svg>