<svg xmlns="http://www.w3.org/2000/svg" xmlns:svg="http://www.w3.org/2000/svg" id="svg2" width="192" height="192" version="1.1" viewBox="0 0 192 192"><defs id="defs4"><style id="style6" type="text/css"/></defs><metadata id="metadata7"/><g id="layer1" transform="translate(0,-860.36216)"><path style="fill:#fff;fill-rule:nonzero;stroke-width:.628998" id="path1280" d="M 114.87568,1032.8622 H 78.81824 a 3.9902165,3.9902165 0 0 1 -3.990219,-3.9903 v -1.4546 a 1.6140022,1.6140022 0 0 0 -1.614003,-1.614 H 44.865327 c -3.041704,0 -5.51936,-3.1791 -5.51936,-7.099 L 26.320166,886.9662 c 0,-3.92234 3.041704,-7.10404 6.795064,-7.10404 h 125.79401 c 3.72892,0 6.7706,3.18171 6.7706,7.10404 l -12.87868,131.7381 c 0,3.9199 -2.47776,7.099 -5.51936,7.099 l -26.80192,0.013 a 1.6147547,1.6147547 0 0 0 -1.614,1.6148 v 1.4413 a 3.9901995,3.9901995 0 0 1 -3.9902,3.9902 z"/><path style="fill:#f8c18c;fill-opacity:1;fill-rule:nonzero;stroke-width:.628998" id="path1282" d="m 133.44672,899.15058 c -8.29164,3.10815 -33.533778,20.19871 -39.838045,31.68932 H 52.298537 a 2.9996436,2.9996436 0 0 1 -2.999638,-2.99266 l -0.05985,-25.704 a 2.9857011,2.9857011 0 0 1 2.985692,-2.99266 z"/><path style="fill:#ff837d;fill-opacity:1;fill-rule:nonzero;stroke-width:.628998" id="path1284" d="m 116.34897,989.95152 c -1.12007,10.69328 -1.23909,23.55648 -1.25011,37.13748 -0.001,1.6528 -1.34091,2.9926 -2.9937,2.9926 H 81.58859 c -1.652799,0 -2.993592,-1.3399 -2.984116,-2.9927 0.07781,-13.581 0.686737,-26.4441 1.806542,-37.13738 z"/><path style="fill:#70a270;fill-opacity:1;fill-rule:nonzero;stroke-width:.628998" id="path1286" d="m 54.040407,968.92412 v 4.4445 h 5.838299 v 4.44765 h -5.838299 v 4.44953 h 5.838299 v 5.09803 H 46.533688 v -23.72392 h 13.345018 v 5.28421 z"/><path style="fill:#70a270;fill-opacity:1;fill-rule:nonzero;stroke-width:.628998" id="path1288" d="m 85.096561,968.92412 v 4.4445 h 5.81321 v 4.44765 h -5.81321 v 4.44953 h 5.81321 v 5.09803 h -13.31967 v -23.72392 h 13.31967 v 5.28421 z"/><path style="fill:#70a270;fill-opacity:1;fill-rule:nonzero;stroke-width:.628998" id="path1290" d="m 119.26753,968.92412 v 4.4445 h 5.83836 v 4.44765 h -5.83836 v 4.44953 h 5.83836 v 5.09803 h -13.34483 v -23.72392 h 13.34483 v 5.28421 z"/><path style="fill:#70a270;fill-opacity:1;fill-rule:nonzero;stroke-width:.628998" id="path1292" d="m 62.380793,987.36383 v -23.72392 h 7.506589 v 18.62589 h 5.83774 v 5.09803 z"/><path style="fill:#70a270;fill-opacity:1;fill-rule:nonzero;stroke-width:.628998" id="path1294" d="m 98.833259,963.63991 h -6.549127 l 3.728072,23.72392 h 9.640656 l 4.51369,-23.72392 h -5.56852 l -2.91855,16.03379 z"/><path style="fill:#70a270;fill-opacity:1;fill-rule:nonzero;stroke-width:.628998" id="path1296" d="m 141.36732,962.9612 c -1.83344,0.0235 -3.9161,0.66081 -5.88402,2.0672 v -1.38917 h -7.21279 v 23.72115 h 7.21279 v -16.68566 c 0.39947,-2.58795 4.07205,-1.8914 4.07205,-0.40916 v 17.09871 h 7.23617 v -20.10891 c 0,-2.66469 -2.36733,-4.3334 -5.4242,-4.29416 z"/><path style="fill:#ff837d;fill-opacity:1;fill-rule:nonzero;stroke-width:.628998" id="path1298" d="m 119.73425,960.30369 c 0.67901,-8.37929 11.32519,-21.65408 22.43104,-26.7111 1.50338,-0.68456 2.78638,-2.42722 2.78638,-4.08002 v -29.04013 c 0,-1.65279 -1.22436,-2.44811 -2.72069,-1.74622 -31.59776,14.82192 -52.087421,36.70826 -56.619262,61.48903 l 34.122462,0.0884 z"/></g><style id="style853" type="text/css"/></svg>