<svg xmlns="http://www.w3.org/2000/svg" xmlns:svg="http://www.w3.org/2000/svg" id="svg2" width="192" height="192" version="1.1" viewBox="0 0 192 192"><metadata id="metadata7"/><g id="layer1" transform="translate(0,-860.36216)"><ellipse id="ellipse1639" cx="96" cy="960.229" rx="75.484" ry="64.119" style="fill:#fff;fill-opacity:1;stroke-width:9.99996;stroke-linecap:square;stroke-linejoin:round;stroke-miterlimit:10;stop-color:#000"/><ellipse id="ellipse1641" cx="96.136" cy="965.316" rx="20.136" ry="15.716" style="fill:#ececec;fill-opacity:1;stroke-width:9.99994;stroke-linecap:square;stroke-linejoin:round;stroke-miterlimit:10;stop-color:#000"/><ellipse id="ellipse1643" cx="96.136" cy="962.491" rx="9.646" ry="5.552" style="fill:#56595b;fill-opacity:1;stroke-width:9.99994;stroke-linecap:square;stroke-linejoin:round;stroke-miterlimit:10;stop-color:#000"/><path id="path1645" d="m 82.759034,942.94263 a 5.5517918,5.5517918 0 0 1 -5.55178,5.55179 5.5517918,5.5517918 0 0 1 -5.5518,-5.55179 5.5517918,5.5517918 0 0 1 5.5518,-5.55179 5.5517918,5.5517918 0 0 1 5.55178,5.55179 z" style="fill:#56595b;fill-opacity:1;stroke-width:9.99994;stroke-linecap:square;stroke-linejoin:round;stroke-miterlimit:10;stop-color:#000"/><path id="path1647" d="m 69.521484,927.32205 h 15.37153 c 1.06448,0 1.92143,0.85695 1.92143,1.92144 0,1.06448 -0.85695,1.92144 -1.92143,1.92144 h -15.37153 c -1.06447,0 -1.92143,-0.85696 -1.92143,-1.92144 0,-1.06449 0.85696,-1.92144 1.92143,-1.92144 z" style="fill:#56595b;fill-opacity:1;stroke-width:9.99994;stroke-linecap:square;stroke-linejoin:round;stroke-miterlimit:10;stop-color:#000"/><path id="path1649" d="m 120.34453,942.94263 a 5.5517918,5.5517918 0 0 1 -5.55179,5.55179 5.5517918,5.5517918 0 0 1 -5.55179,-5.55179 5.5517918,5.5517918 0 0 1 5.55179,-5.55179 5.5517918,5.5517918 0 0 1 5.55179,5.55179 z" style="fill:#56595b;fill-opacity:1;stroke-width:9.99994;stroke-linecap:square;stroke-linejoin:round;stroke-miterlimit:10;stop-color:#000"/><path id="path1651" d="m 12.454144,928.12972 c -3.966185,-6.04907 -5.242245,-13.579 -3.328003,-20.72307 2.374115,-8.86031 9.294811,-15.781 18.155126,-18.15511 7.14407,-1.91425 14.674001,-0.63819 20.723067,3.32799 2.427646,1.59173 2.410312,4.9842 0.354013,7.0405 l -28.86371,28.86371 c -2.056299,2.0563 -5.448762,2.07364 -7.040493,-0.35402 z" style="fill:#fff;fill-opacity:1;stroke-width:10;stroke-linecap:square;stroke-linejoin:round;stroke-miterlimit:10;stop-color:#000"/><path id="path1653" d="m 107.10698,927.32205 h 15.37152 c 1.06448,0 1.92143,0.85695 1.92143,1.92144 0,1.06448 -0.85695,1.92144 -1.92143,1.92144 h -15.37152 c -1.06448,0 -1.92144,-0.85696 -1.92144,-1.92144 0,-1.06449 0.85696,-1.92144 1.92144,-1.92144 z" style="fill:#56595b;fill-opacity:1;stroke-width:9.99994;stroke-linecap:square;stroke-linejoin:round;stroke-miterlimit:10;stop-color:#000"/><path id="path1655" d="m 12.454144,928.12972 c -3.966185,-6.04907 -5.242245,-13.579 -3.328003,-20.72307 2.374115,-8.86031 9.294811,-15.781 18.155126,-18.15511 7.14407,-1.91425 14.674001,-0.63819 20.723067,3.32799 2.427646,1.59173 2.410312,4.9842 0.354013,7.0405 l -28.86371,28.86371 c -2.056299,2.0563 -5.448762,2.07364 -7.040493,-0.35402 z" style="fill:#fff;fill-opacity:1;stroke-width:10;stroke-linecap:square;stroke-linejoin:round;stroke-miterlimit:10;stop-color:#000"/><path id="path1657" d="m 179.54585,928.12972 c 3.96619,-6.04907 5.24225,-13.579 3.328,-20.72307 -2.37411,-8.86031 -9.29481,-15.781 -18.15512,-18.15511 -7.14407,-1.91425 -14.674,-0.63819 -20.72307,3.32799 -2.42765,1.59173 -2.41031,4.9842 -0.35401,7.0405 l 28.86371,28.86371 c 2.0563,2.0563 5.44876,2.07364 7.04049,-0.35402 z" style="fill:#fff;fill-opacity:1;stroke-width:10;stroke-linecap:square;stroke-linejoin:round;stroke-miterlimit:10;stop-color:#000"/></g><style id="style853" type="text/css"/><style id="style853-9" type="text/css"/><style id="style853-3" type="text/css"/></svg>