<svg xmlns="http://www.w3.org/2000/svg" xmlns:svg="http://www.w3.org/2000/svg" id="svg2" width="192" height="192" version="1.1" viewBox="0 0 192 192"><metadata id="metadata7"/><g id="layer1" transform="translate(0,-860.36216)"><g id="g1175" transform="translate(-703.71533,-83.760582)"><rect id="rect1163" width="153" height="153" x="723.215" y="963.623" rx="10" style="fill:#99bdfe;fill-opacity:1;fill-rule:evenodd;stroke:none;stroke-opacity:1"/><path style="fill:#fff;fill-opacity:.5;stroke:none;stroke-width:6.03709;stroke-linecap:round;stroke-linejoin:round;stroke-miterlimit:4;stroke-dasharray:none;stop-color:#000" id="path1165" d="m 760.38862,1045.1297 c -1.92621,-7.1887 0.48698,-14.8424 6.18815,-19.6262 5.70116,-4.7839 13.65762,-5.8314 20.40266,-2.6861 6.74505,3.1453 11.05694,9.9136 11.05694,17.3559 0,0 -6.4107,-8.0194 -20.08525,-8.0194 -13.67454,0 -17.5625,12.9758 -17.5625,12.9758 z"/><path style="fill:#fff;fill-opacity:.5;stroke:none;stroke-width:6.03709;stroke-linecap:round;stroke-linejoin:round;stroke-miterlimit:4;stroke-dasharray:none;stop-color:#000" id="path1167" d="m 839.04209,1035.1157 c 1.92622,7.1888 -0.48698,14.8424 -6.18814,19.6263 -5.70116,4.7838 -13.65762,5.8313 -20.40266,2.6861 -6.74504,-3.1453 -11.05695,-9.9136 -11.05695,-17.356 0,0 6.41071,8.0195 20.08526,8.0195 13.67454,0 17.56249,-12.9759 17.56249,-12.9759 z"/><path style="fill:none;stroke:#fff;stroke-width:5.22672;stroke-linecap:round;stroke-linejoin:round;stroke-miterlimit:4;stroke-dasharray:none;stop-color:#000" id="path1169" d="m 786.43013,1057.7437 c -8.86246,3.7551 -19.13496,0.345 -23.99234,-7.9646 -4.85738,-8.3096 -2.78866,-18.9338 4.83171,-24.8138 7.62035,-5.88 18.42186,-5.1866 25.22788,1.6194 0,0 3.51962,2.5913 7.21798,13.538 3.69836,10.9468 7.21798,13.538 7.21798,13.538 6.80602,6.806 17.60753,7.4994 25.22788,1.6195 7.62036,-5.88 9.6891,-16.5042 4.83172,-24.8138 -4.85738,-8.3096 -15.12987,-11.7198 -23.99235,-7.9647"/></g></g><style id="style853" type="text/css"/></svg>