<svg xmlns="http://www.w3.org/2000/svg" xmlns:svg="http://www.w3.org/2000/svg" id="svg2" width="192" height="192" version="1.1" viewBox="0 0 192 192"><metadata id="metadata7"/><g id="layer1" transform="translate(0,-860.36216)"><rect id="rect969" width="106.77" height="86.637" x="51.876" y="913.605" style="fill:#56595b;fill-opacity:1;stroke:none;stroke-width:5.98125;stroke-linecap:round;stroke-linejoin:round;stop-color:#000"/><path style="font-weight:700;font-size:150.19px;line-height:1.25;font-family:Now;-inkscape-font-specification:'Now Bold';letter-spacing:0;word-spacing:0;fill:#56595b;fill-opacity:1;stroke-width:3.75476" id="path971" d="m 847.4082,937.19336 c -10.97797,0 -22.27383,3.21272 -31.25,10.48047 -9.06468,7.33941 -15.18554,19.00589 -15.18554,33.13867 0,12.01553 4.51703,21.7707 11.20117,28.3945 2.97601,2.9492 6.24689,5.2241 9.56836,7.1446 -0.0956,0.055 -0.20303,0.08 -0.29688,0.1386 l -20.46289,12.7657 a 5.1419517,5.1419517 0 0 0 -0.002,0 c -4.3854,2.737 -6.10318,9.0227 -3.71875,13.6093 9.10922,17.5179 28.42199,30.7559 52.02539,30.7559 7.60706,0 14.94143,-1.5136 21.66992,-4.2383 1.62009,9.9837 6.82728,18.8804 15.01367,24.7363 8.14557,5.8268 18.62443,8.5313 30.52344,8.5313 13.32428,0 24.96021,-3.4477 33.40234,-10.7813 8.49607,-7.3803 12.84571,-18.2849 12.84571,-30.0214 v -83.73051 a 5.1419517,5.1419517 0 0 0 0,-0.002 c -0.001,-5.43999 -4.94868,-10.38743 -10.38867,-10.38867 a 5.1419517,5.1419517 0 0 0 -0.002,0 h -60.80859 c 1.4777,-3.58065 1.01771,-8.01585 -1.53516,-10.97461 -10.17307,-11.79153 -25.53324,-19.55859 -42.59961,-19.55859 z m 32.78711,42.57031 v 13.93945 c -3.21964,-2.20472 -6.51748,-4.00628 -9.76562,-5.45117 0.82618,-0.4136 1.68598,-0.77589 2.36328,-1.42187 a 5.1419517,5.1419517 0 0 0 0.002,-0.002 z m 14.23633,30.70903 h 22.74805 v 48.1835 c 0,1.105 -0.26306,1.3456 -0.28321,1.3672 -0.0201,0.022 0.0573,0.068 -0.40234,0.068 -0.51055,0 -0.28762,-0.012 -0.23633,0.037 0.0513,0.049 -0.21901,-0.1739 -0.39258,-1.25 a 5.1419517,5.1419517 0 0 0 0,-0 c -0.93625,-5.7961 -7.53808,-9.9645 -13.17382,-8.3184 a 5.1419517,5.1419517 0 0 0 -0.002,0 l -11.70507,3.4219 c 4.71095,-6.7428 7.55468,-15.0014 7.55468,-24.168 0,-7.3654 -1.58481,-13.7756 -4.10742,-19.3398 z m -56.5625,12.957 c 5.21745,1.8853 9.99628,3.5296 12.61914,4.8789 0.87498,0.4501 0.94068,0.592 1.39649,0.9336 -0.6389,0.152 -1.34489,0.3183 -2.41016,0.3183 -5.47195,0 -8.98373,-2.0844 -11.60547,-6.1308 z" transform="translate(-783.46311,-63.55972)"/><path style="font-weight:700;font-size:150.19px;line-height:1.25;font-family:Now;-inkscape-font-specification:'Now Bold';letter-spacing:0;word-spacing:0;fill:#f8c18c;fill-opacity:1;stroke-width:3.75476" id="path973" d="m 847.4082,944.07812 c -9.61863,0 -19.38654,2.85087 -26.91601,8.94727 -7.52948,6.0964 -12.63477,15.57826 -12.63477,27.78711 0,10.36804 3.70712,18.09425 9.16406,23.502 5.45695,5.4077 12.42479,8.6096 19.09571,11.1503 6.67092,2.5408 13.13458,4.4639 17.52148,6.7207 2.19345,1.1285 3.82172,2.3193 4.79883,3.4942 0.97711,1.1749 1.42383,2.252 1.42383,3.9453 0,2.1061 -0.70972,3.476 -2.31445,4.6875 -1.60474,1.2115 -4.31331,2.1328 -8.07227,2.1328 -9.00798,0 -15.71599,-4.8539 -19.35352,-12.625 a 3.5062205,3.5062205 0 0 0 -5.03125,-1.4883 l -20.46289,12.7657 a 3.5062205,3.5062205 0 0 0 -1.25586,4.5918 c 7.92518,15.2408 24.89012,27.0468 45.91602,27.0468 11.20199,0 21.69501,-3.2814 29.51953,-9.6035 7.82452,-6.3221 12.84766,-15.8158 12.84766,-27.3203 0,-11.1459 -3.61596,-19.3747 -9.04102,-25.1797 -5.42506,-5.80498 -12.41691,-9.21665 -19.0957,-11.83007 -6.6788,-2.61341 -13.14441,-4.48921 -17.52149,-6.67773 -2.18854,-1.09426 -3.80605,-2.24753 -4.76562,-3.37695 -0.95957,-1.12942 -1.39258,-2.14727 -1.39258,-3.8125 0,-2.29786 0.68041,-3.4099 1.85156,-4.33008 1.17115,-0.92018 3.11175,-1.55078 5.53125,-1.55078 5.07718,0 10.609,2.89805 15.80469,8.61328 a 3.5062205,3.5062205 0 0 0 5.01367,0.17773 l 16.52149,-15.76953 a 3.5062205,3.5062205 0 0 0 0.23437,-4.82617 c -8.90703,-10.32408 -22.42038,-17.17187 -37.38672,-17.17188 z m 43.17774,30.53321 a 3.5062205,3.5062205 0 0 0 -3.50586,3.50586 v 21.96481 a 3.5062205,3.5062205 0 0 0 3.50586,3.5059 h 33.47851 v 55.0683 c 0,5.0706 -3.2868,8.3204 -7.57031,8.3204 -3.91852,0 -6.71666,-2.5932 -7.42773,-7.002 a 3.5062205,3.5062205 0 0 0 -4.44532,-2.8066 l -24.40625,7.1347 a 3.5062205,3.5062205 0 0 0 -2.47656,3.92 c 1.34729,8.3946 5.5555,15.5131 12.24024,20.2949 6.68473,4.7818 15.65897,7.248 26.51562,7.248 12.14435,0 22.00957,-3.1216 28.88672,-9.0957 6.87715,-5.9741 10.47656,-14.7266 10.47656,-24.8222 v -83.73051 a 3.5062205,3.5062205 0 0 0 -3.50586,-3.50586 z" transform="translate(-783.46311,-63.55972)"/><path style="font-weight:700;font-size:150.19px;line-height:1.25;font-family:Now;-inkscape-font-specification:'Now Bold';letter-spacing:0;word-spacing:0;fill:#f9de81;fill-opacity:1;stroke-width:3.75476" id="path975" d="m 109.12283,934.52231 c 12.32812,0 24.65625,0 36.98437,0 -0.0104,20.43097 0.0208,40.86237 -0.0156,61.29297 -0.15974,4.74302 -2.80636,9.43022 -7.0736,11.63482 -4.59189,2.4827 -10.70921,1.7858 -14.52015,-1.8243 -1.79696,-1.654 -3.09842,-3.8141 -3.81641,-6.14252 -6.88086,2.01172 -13.76172,4.02342 -20.64258,6.03512 0.60358,2.7514 1.61253,5.4221 3.06446,7.8399 0.15306,0.2433 0.51092,0.8284 0.76814,1.1898 3.58661,5.3083 9.38898,8.7518 15.48178,10.4276 6.45755,1.7819 13.26448,2.0532 19.9078,1.4031 7.00502,-0.7393 14.13433,-2.9666 19.43899,-7.7764 3.68758,-3.3021 6.20125,-7.8057 7.32321,-12.6094 0.0775,-0.3079 0.23481,-1.0334 0.31805,-1.5047 0.84457,-4.4257 0.45914,-8.94902 0.54718,-13.42382 0,-24.8357 0,-49.6713 0,-74.50701 -19.25521,0 -38.51041,0 -57.76562,0 0,5.98828 0,11.97656 0,17.96484 z"/><path style="font-weight:700;font-size:150.19px;line-height:1.25;font-family:Now;-inkscape-font-specification:'Now Bold';letter-spacing:0;word-spacing:0;fill:#f9de81;fill-opacity:1;stroke-width:3.75476" id="path977" d="m 63.1658,886.03208 c -1.57462,0.0258 -3.23065,0.15819 -4.6831,0.34478 -0.87673,0.11769 -2.08413,0.30866 -3.08643,0.52321 -7.73039,1.58765 -15.18653,5.61165 -19.89938,12.06388 -4.20026,5.62907 -5.86195,12.81662 -5.56901,19.7577 0.17045,5.82451 1.96625,11.72764 5.7684,16.22365 4.0148,4.83688 9.6481,7.96108 15.35428,10.38558 1.13726,0.4813 2.51579,1.0332 3.76173,1.5032 5.99656,2.3166 12.24001,4.0449 17.99259,6.9559 3.51893,1.8088 7.0072,4.3937 8.40389,8.246 1.55137,4.2109 0.50036,9.3558 -2.91062,12.3634 -3.50238,3.1682 -8.43481,4.0985 -13.02364,3.9793 -6.71542,-0.1069 -13.36338,-2.8874 -18.04402,-7.7247 -1.77951,-1.7997 -3.29573,-3.8542 -4.53149,-6.0614 -5.67057,3.5378 -11.34115,7.0756 -17.01172,10.6133 6.03701,10.4616 16.55378,18.086 28.23404,21.0015 5.70377,1.4428 11.66845,1.7993 17.51205,1.1509 0.8471,-0.1 1.96341,-0.2512 2.90958,-0.423 8.17452,-1.4271 16.18641,-5.1997 21.61123,-11.615 4.4072,-5.1301 6.69787,-11.891 6.72486,-18.6221 0.0187,-1.3075 -0.0309,-2.653 -0.12118,-3.8487 -0.079,-1.0518 -0.24332,-2.4301 -0.44711,-3.6072 -0.97097,-5.8729 -3.75071,-11.4859 -8.12901,-15.5603 -5.48193,-5.2146 -12.615,-8.15677 -19.62834,-10.69115 -5.47636,-2.03443 -11.17177,-3.64305 -16.26112,-6.57745 -3.13319,-1.81322 -6.02445,-4.55412 -6.8808,-8.19263 -0.97749,-3.98649 0.0901,-8.64368 3.36396,-11.29701 3.37724,-2.7855 8.06858,-3.33875 12.27283,-2.68445 5.95981,0.95598 11.18872,4.47105 15.37221,8.68537 4.55534,-4.34831 9.11068,-8.69662 13.66602,-13.04493 -8.3557,-8.9112 -20.49087,-14.11059 -32.7207,-13.84765 z"/></g><style id="style853" type="text/css"/><style id="style853-9" type="text/css"/><style id="style853-3" type="text/css"/></svg>