<svg xmlns="http://www.w3.org/2000/svg" xmlns:svg="http://www.w3.org/2000/svg" id="svg2" width="192" height="192" version="1.1" viewBox="0 0 192 192"><metadata id="metadata7"/><g id="layer1" transform="translate(0,-860.36216)"><path style="fill:#f7c18c;fill-opacity:1;stroke-width:.999993" id="path933" d="m 95.976995,868.36173 c -20.657828,0 -37.491965,18.85937 -38.39238,42.45487 H 21.350424 c -1.817201,0.0412 -3.257794,1.53018 -3.257794,3.38865 v 0.26172 l 5.213164,115.26353 c 0.774686,7.9349 6.507128,14.2624 14.341719,14.5722 v 0.059 H 153.12739 v 0 c 7.94593,-0.1931 14.45205,-6.6951 15.07221,-14.7171 l 2.1727,-43.8898 3.5343,-71.39485 v -0.1543 c 0,-1.86634 -1.44565,-3.38865 -3.28904,-3.38865 h -0.1211 -36.08187 c -0.91285,-23.5955 -17.7919,-42.45487 -38.437305,-42.45487 z m 0,10.30659 c 15.035315,0 27.319245,14.26437 27.927595,32.14828 H 68.086513 c 0.536977,-17.8839 12.855826,-32.14828 27.890482,-32.14828 z"/><path style="font-style:normal;font-variant:normal;font-weight:500;font-stretch:normal;font-size:200.97px;line-height:1.25;font-family:Now;-inkscape-font-specification:'Now Medium';letter-spacing:0;word-spacing:0;fill:#fcecdc;fill-opacity:1;stroke-width:5.02422" id="path935" d="M 123.9042,910.81714 H 99.402368 c -9.405513,7.07853 -15.605393,18.1138 -15.605393,32.7264 0,49.99104 71.343395,37.68177 71.343395,69.58566 0,12.3093 -10.29924,19.5936 -24.36707,19.5936 -15.32389,0 -26.8787,-8.5417 -32.154138,-21.3534 l -21.101456,12.8124 c 3.681172,7.8883 9.349254,14.8005 16.458909,20.1796 h 59.150095 c 7.94593,-0.1931 14.45203,-6.6947 15.07219,-14.7167 l 2.17577,-43.96856 c -19.36217,-22.38041 -61.95868,-20.01456 -61.95868,-43.89235 0,-11.80692 9.29427,-17.33195 20.34756,-17.33195 10.04844,0 19.09217,4.52126 25.87488,13.06244 l 17.33389,-15.8261 c -3.33521,-4.12512 -7.45034,-7.80809 -12.13666,-10.87104 h -25.42174 z"/></g><style id="style853" type="text/css"/></svg>