<svg xmlns="http://www.w3.org/2000/svg" xmlns:svg="http://www.w3.org/2000/svg" id="svg2" width="192" height="192" version="1.1" viewBox="0 0 192 192"><metadata id="metadata7"/><g id="layer1" transform="translate(0,-860.36216)"><rect id="rect936" width="153" height="153" x="28.668" y="880.351" rx="10" style="fill:#bd9aff;fill-opacity:1;fill-rule:evenodd;stroke:none;stroke-opacity:1"/><path id="path964" d="m 111.81766,946.33488 c -5.03353,0 -7.54455,1.69944 -9.56361,3.07298 l -0.0585,0.0387 a 0.49405754,0.49405754 0 0 0 -0.15041,0.66014 l 2.08173,3.57017 a 0.5086808,0.5086808 0 0 0 0.57449,0.2371 0.51181435,0.51181435 0 0 0 0.19636,-0.10237 l 0.15668,-0.12846 c 1.0393,-0.86695 2.60921,-2.1747 6.63062,-2.4964 2.23944,-0.17862 4.17598,0.41989 5.59339,1.72868 1.56991,1.44143 2.50685,3.76967 2.50685,6.22533 0,4.51546 -2.67292,7.35865 -6.96799,7.4161 -3.53883,-0.0189 -5.91929,-1.85716 -5.91929,-4.575 0,-1.43831 0.56926,-2.4964 1.84567,-3.43438 a 0.49510207,0.49510207 0 0 0 0.14832,-0.63194 l -1.78613,-3.36649 a 0.51181435,0.51181435 0 0 0 -0.51704,-0.26427 0.52121503,0.52121503 0 0 0 -0.19637,0.0648 c -2.00756,1.18448 -4.37444,3.47199 -4.24284,7.6417 0.16191,5.30615 4.59067,9.35573 10.3491,9.52077 h 0.65596 c 6.84474,-0.22142 11.78218,-5.27793 11.78218,-12.12267 0.002,-6.33291 -4.59588,-13.0544 -13.11917,-13.0544 z" style="fill:#fff;fill-opacity:1;stroke-width:1.04452"/><path id="path1023" d="m 62.747393,970.89577 c 4.604734,0 7.885608,-2.93553 7.885608,-7.07979 0,-4.3745 -3.683788,-6.10127 -6.791984,-7.36757 -2.244809,-0.92094 -3.338434,-1.38142 -3.338434,-2.8204 0,-1.32386 0.920947,-2.07213 2.475046,-2.07213 1.496539,0 2.820401,0.69071 3.453551,1.72677 l 3.453552,-2.8204 c -1.208743,-1.95701 -4.144262,-3.5111 -7.252458,-3.5111 -4.31694,0 -7.540255,2.93551 -7.540255,6.96465 0,4.0867 3.395993,5.81348 6.849544,7.07979 2.417487,0.9785 3.511112,1.61165 3.511112,2.93551 0,1.43898 -1.266303,2.24481 -2.87796,2.24481 -1.669217,0 -3.511111,-0.80583 -4.201822,-2.59016 l -4.432057,2.01457 c 1.093624,3.16576 4.95009,5.29545 8.806557,5.29545 z" style="font-style:normal;font-variant:normal;font-weight:500;font-stretch:normal;font-size:49.4087px;line-height:1.25;font-family:Now;-inkscape-font-specification:'Now Medium';letter-spacing:0;word-spacing:0;fill:#fff;fill-opacity:1;stroke-width:1.54793"/><path id="path1025" d="m 86.922218,946.95115 c -2.12969,0 -4.086702,0.80582 -5.640801,2.12968 v -19.62768 h -5.468123 v 40.98214 h 5.468123 v -13.87176 c 0,-2.47505 1.957013,-4.54718 4.432058,-4.54718 2.417486,0 4.31694,1.89945 4.31694,4.31694 v 14.102 h 5.468123 v -14.62003 c 0,-5.00766 -3.798907,-8.86411 -8.57632,-8.86411 z" style="font-style:normal;font-variant:normal;font-weight:500;font-stretch:normal;font-size:49.4087px;line-height:1.25;font-family:Now;-inkscape-font-specification:'Now Medium';letter-spacing:0;word-spacing:0;fill:#fff;fill-opacity:1;stroke-width:1.54793"/><path id="path1029" d="m 144.71163,946.95115 c -2.93553,0 -5.46812,1.09361 -7.42514,2.87795 v -2.41749 h -5.46813 v 36.83789 h 5.46813 v -16.23169 c 1.95702,1.78433 4.48961,2.87796 7.42514,2.87796 6.50419,0 11.68451,-5.29545 11.68451,-11.97231 0,-6.67687 -5.18032,-11.97231 -11.68451,-11.97231 z m -0.69071,18.8794 c -3.85647,0 -6.90711,-3.05063 -6.90711,-6.90709 0,-3.85647 3.05064,-6.90711 6.90711,-6.90711 3.85646,0 6.90709,3.05064 6.90709,6.90711 0,3.85646 -3.05063,6.90709 -6.90709,6.90709 z" style="font-style:normal;font-variant:normal;font-weight:500;font-stretch:normal;font-size:49.4087px;line-height:1.25;font-family:Now;-inkscape-font-specification:'Now Medium';letter-spacing:0;word-spacing:0;fill:#fff;fill-opacity:1;stroke-width:1.54793"/></g><style id="style853" type="text/css"/></svg>