<svg xmlns="http://www.w3.org/2000/svg" xmlns:svg="http://www.w3.org/2000/svg" id="svg2" width="192" height="192" version="1.1" viewBox="0 0 192 192"><metadata id="metadata7"/><g id="layer1" transform="translate(0,-860.36216)"><path id="path971" d="m 53.712164,894.17167 c 12.005888,-9.38946 32.547647,-12.54402 56.058406,-4.23082 23.99322,8.49875 39.89592,22.6015 45.40713,39.04233 5.28852,15.79136 3.22877,32.13941 -6.62459,45.85248 -10.57705,14.71509 -29.85699,28.55804 -52.421378,35.23824 -21.024222,6.235 -37.42794,5.2144 -50.454421,-5.9194 C 30.294187,991.03525 27.046844,967.71006 29.848837,942.39935 32.669386,916.8845 41.520713,903.72813 53.712164,894.17167 Z" class="st0" style="stroke:#ba6561;stroke-width:16.6107;stroke-miterlimit:4;stroke-dasharray:none;stroke-opacity:1;fill:none"/><path id="path973" d="m 96.39152,1011.41 c 10.66984,8.7585 21.52524,15.643 32.62187,20.6716 16.6264,7.5524 29.96833,2.4681 36.16612,-4.1566 6.19778,-6.606 8.05341,-16.515 3.84114,-26.6838 -1.70717,-4.11952 -7.84929,-15.32747 -10.48427,-19.81809 -1.76285,-3.00611 -3.35868,-5.51119 -4.75041,-7.53382 -12.13578,11.46775 -21.50667,19.35415 -28.13126,23.69632 -6.62457,4.34219 -16.38516,8.92559 -29.26319,13.82439 z" class="st1" style="fill:#ba6561;fill-opacity:1;stroke:#ba6561;stroke-width:.185562;stroke-opacity:1"/></g><style id="style853" type="text/css">.st0{fill:#fff}</style><style id="style853-9" type="text/css">.st0{fill:#fff}</style><style id="style853-3" type="text/css">.st0{fill:#fff}</style><style id="style909">@keyframes svg{0%{fill:transparent;opacity:1;stroke-dashoffset:4000px}20%{stroke-dashoffset:0;opacity:1}90%{fill:transparent;opacity:1}95%{fill:transparent;opacity:0}}.st0{fill:none;stroke:#a94140;stroke-width:90}.st1{fill-rule:evenodd;clip-rule:evenodd;fill:#a94140}</style></svg>