<svg xmlns="http://www.w3.org/2000/svg" xmlns:svg="http://www.w3.org/2000/svg" id="svg2" width="192" height="192" version="1.1" viewBox="0 0 192 192"><metadata id="metadata7"/><g id="layer1" transform="translate(0,-860.36216)"><circle id="circle1034" cx="96" cy="956.362" r="88" style="fill:#f7c18c;fill-opacity:1;fill-rule:evenodd;stroke:none;stroke-opacity:1"/><path style="fill:#fff;fill-opacity:1;stroke:none;stroke-width:5;stroke-linecap:round;stop-color:#000" id="path1109" d="M 105.75817,919.86216 H 70.523906 c -2.437586,0 -4.399986,1.96239 -4.399986,4.39998 v 64.20003 c 0,2.43759 1.9624,4.39999 4.399986,4.39999 H 121.4761 c 2.43759,0 4.39998,-1.9624 4.39998,-4.39999 v -48.48211 z"/><path style="fill:#f7c18c;fill-opacity:1;stroke:none;stroke-width:5;stroke-linecap:round;stop-color:#000" id="path1111" d="m 105.75817,922.98782 v 12.59226 c 0,2.43759 1.9624,4.39998 4.39999,4.39998 h 12.59227 z"/><rect id="rect1113" width="38.91" height="4.156" x="76.545" y="945.33" rx="2.078" ry="2.078" style="fill:#f7c18c;fill-opacity:1;stroke:none;stroke-width:5;stroke-linecap:round;stop-color:#000"/><rect id="rect1115" width="38.91" height="4.156" x="76.545" y="955.83" rx="2.078" ry="2.078" style="fill:#f7c18c;fill-opacity:1;stroke:none;stroke-width:5;stroke-linecap:round;stop-color:#000"/><rect id="rect1117" width="38.91" height="4.156" x="76.545" y="966.33" rx="2.078" ry="2.078" style="fill:#f7c18c;fill-opacity:1;stroke:none;stroke-width:5;stroke-linecap:round;stop-color:#000"/><rect id="rect1119" width="17.352" height="4.156" x="76.545" y="976.829" rx="2.078" ry="2.078" style="fill:#f7c18c;fill-opacity:1;stroke:none;stroke-width:5;stroke-linecap:round;stop-color:#000"/><rect id="rect1121" width="27.473" height="4.156" x="76.545" y="934.83" rx="2.078" ry="2.078" style="fill:#f7c18c;fill-opacity:1;stroke:none;stroke-width:5;stroke-linecap:round;stop-color:#000"/></g><style id="style853" type="text/css"/><style id="style853-9" type="text/css"/><style id="style853-3" type="text/css"/></svg>