<svg xmlns="http://www.w3.org/2000/svg" xmlns:svg="http://www.w3.org/2000/svg" id="svg2" width="192" height="192" version="1.1" viewBox="0 0 192 192"><metadata id="metadata7"/><g id="layer1" transform="translate(0,-860.36216)"><g id="g962"><rect style="fill:#fe837e;fill-opacity:1;fill-rule:evenodd;stroke:none" id="rect4188-3" width="153" height="153" x="19.5" y="879.862" rx="10"/><path id="rect923-6" d="m 19.5,956.36211 v 66.49999 c 0,5.54 4.46,10 10,10 h 133 c 5.54,0 10,-4.46 10,-10 v -66.49999 z" style="fill:#585b5d;fill-opacity:1;fill-rule:evenodd;stroke:none"/><path style="stroke-width:2.09589" id="path912-7" fill="#fff" d="m 48.746565,952.17033 h 94.506875 a 2,2 45 0 1 2,2 v 4.38356 a 2,2 135 0 1 -2,2 H 48.746565 a 2,2 45 0 1 -2,-2 v -4.38356 a 2,2 135 0 1 2,-2 z"/></g></g></svg>