<svg xmlns="http://www.w3.org/2000/svg" xmlns:svg="http://www.w3.org/2000/svg" id="svg2" width="192" height="192" version="1.1" viewBox="0 0 192 192"><metadata id="metadata7"/><g id="layer1" transform="translate(0,-860.36216)"><circle id="circle1192" cx="96" cy="956.362" r="88" style="fill:#ececec;fill-opacity:1;fill-rule:evenodd;stroke:none;stroke-width:.999998;stroke-opacity:1"/><path style="fill:#ff837d;fill-opacity:1;stroke:none;stroke-width:2.66233;stop-color:#000" id="path1194" d="m 137.02778,897.1909 -29.00613,134.5145 a 72.560061,74.277353 0 0 0 8.16236,-1.9059 l 38.8582,-114.52113 A 72.560061,74.277353 0 0 0 137.02778,897.1909 Z"/><path style="fill:#f8c18c;fill-opacity:1;stroke:none;stroke-width:2.66233;stop-color:#000" id="path1196" d="M 122.63725,889.36321 100.346,1032.5983 a 72.560061,74.277353 0 0 0 7.58696,-0.878 l 35.66957,-129.32535 a 72.560061,74.277353 0 0 0 -20.96528,-13.03174 z"/><path style="fill:#f9de81;fill-opacity:1;stroke:none;stroke-width:2.66233;stop-color:#000" id="path1198" d="m 103.78955,884.60712 -9.00311,148.11418 a 72.560061,74.277353 0 0 0 1.213439,0.01 72.560061,74.277353 0 0 0 6.380961,-0.2877 L 127.3695,891.47776 a 72.560061,74.277353 0 0 0 -23.57995,-6.87066 z"/><path style="fill:#bd9aff;fill-opacity:1;stroke:none;stroke-width:2.66233;stop-color:#000" id="path1200" d="m 54.97194,897.19165 a 72.560061,74.277353 0 0 0 -18.013668,18.08672 l 38.858197,114.52113 a 72.560061,74.277353 0 0 0 8.162365,1.9052 z"/><path style="fill:#99bdfe;fill-opacity:1;stroke:none;stroke-width:2.66233;stop-color:#000" id="path1202" d="M 69.362466,889.36321 A 72.560061,74.277353 0 0 0 48.397917,902.3957 l 35.668843,129.3246 a 72.560061,74.277353 0 0 0 7.586958,0.878 z"/><path style="fill:#97db99;fill-opacity:1;stroke:none;stroke-width:2.18785;stop-color:#000" id="path1206" d="m 95.952901,884.17705 a 72.560061,74.277353 0 0 0 -10.887364,0.84821 l 9.557646,147.69304 a 72.560061,74.277353 0 0 0 1.376696,0.014 72.560061,74.277353 0 0 0 1.376657,-0.013 l 9.558414,-147.69308 a 72.560061,74.277353 0 0 0 -10.935071,-0.84895 72.560061,74.277353 0 0 0 -0.04698,0 z"/><path style="fill:#fff;fill-opacity:1;stroke:none;stroke-width:5.48923;stop-color:#000" id="path1208" d="m 69.462336,986.56909 c -8.37363,0 -15.114269,6.21206 -15.114269,13.92841 v 10.3634 h 83.304313 v -10.3634 c 0,-7.71635 -6.74137,-13.92841 -15.115,-13.92841 z"/><path style="fill:#56595b;fill-opacity:1;stroke:none;stroke-width:5.48923;stop-color:#000" id="path1210" d="m 54.348067,1010.8609 v 23.0194 a 88,88 0 0 0 41.651812,10.4819 88,88 0 0 0 41.652501,-10.4826 v -23.0187 z"/><path style="fill:#ff837d;fill-opacity:1;stroke:none;stroke-width:2.66233;stop-color:#000" id="path1212" d="m 137.02778,897.1909 -29.00613,134.5145 a 72.560061,74.277353 0 0 0 8.16236,-1.9059 l 38.8582,-114.52113 A 72.560061,74.277353 0 0 0 137.02778,897.1909 Z"/><path style="fill:#f8c18c;fill-opacity:1;stroke:none;stroke-width:2.66233;stop-color:#000" id="path1214" d="M 122.63725,889.36321 100.346,1032.5983 a 72.560061,74.277353 0 0 0 7.58696,-0.878 l 35.66957,-129.32535 a 72.560061,74.277353 0 0 0 -20.96528,-13.03174 z"/><path style="fill:#f9de81;fill-opacity:1;stroke:none;stroke-width:2.66233;stop-color:#000" id="path1216" d="m 103.78955,884.60712 -9.00311,148.11418 a 72.560061,74.277353 0 0 0 1.213439,0.01 72.560061,74.277353 0 0 0 6.380961,-0.2877 L 127.3695,891.47776 a 72.560061,74.277353 0 0 0 -23.57995,-6.87066 z"/><path style="fill:#bd9aff;fill-opacity:1;stroke:none;stroke-width:2.66233;stop-color:#000" id="path1218" d="m 54.97194,897.19165 a 72.560061,74.277353 0 0 0 -18.013668,18.08672 l 38.858197,114.52113 a 72.560061,74.277353 0 0 0 8.162365,1.9052 z"/><path style="fill:#99bdfe;fill-opacity:1;stroke:none;stroke-width:2.66233;stop-color:#000" id="path1220" d="M 69.362466,889.36321 A 72.560061,74.277353 0 0 0 48.397917,902.3957 l 35.668843,129.3246 a 72.560061,74.277353 0 0 0 7.586958,0.878 z"/><path style="fill:#96dfd3;fill-opacity:1;stroke:none;stroke-width:2.66233;stop-color:#000" id="path1204" d="m 88.210929,884.60712 a 72.560061,74.277353 0 0 0 -23.579984,6.86991 L 89.619643,1032.444 a 72.560061,74.277353 0 0 0 6.380236,0.2877 72.560061,74.277353 0 0 0 1.214163,-0.01 z"/><path style="fill:#fff;fill-opacity:.15;stroke:none;stroke-width:2.66233;stop-color:#000" id="path999" d="m 88.210929,884.60712 a 72.560061,74.277353 0 0 0 -23.579984,6.86991 L 89.619643,1032.444 a 72.560061,74.277353 0 0 0 6.380236,0.2877 72.560061,74.277353 0 0 0 1.214163,-0.01 z"/><path style="fill:#97db99;fill-opacity:1;stroke:none;stroke-width:2.18785;stop-color:#000" id="path1224" d="m 95.952901,884.17705 a 72.560061,74.277353 0 0 0 -10.887364,0.84821 l 9.557646,147.69304 a 72.560061,74.277353 0 0 0 1.376696,0.014 72.560061,74.277353 0 0 0 1.376657,-0.013 l 9.558414,-147.69308 a 72.560061,74.277353 0 0 0 -10.935071,-0.84895 72.560061,74.277353 0 0 0 -0.04698,0 z"/><path style="fill:#fff;fill-opacity:1;stroke:none;stroke-width:5.48923;stop-color:#000" id="path1226" d="m 69.462336,986.56909 c -8.37363,0 -15.114269,6.21206 -15.114269,13.92841 v 10.3634 h 83.304313 v -10.3634 c 0,-7.71635 -6.74137,-13.92841 -15.115,-13.92841 z"/><path style="fill:#56595b;fill-opacity:1;fill-rule:evenodd;stroke:none;stroke-width:.999998;stroke-opacity:1" id="path1228" d="m 54.348182,1010.8612 v 2.8621 20.1574 a 88,88 0 0 0 41.651773,10.4811 88,88 0 0 0 41.652535,-10.4819 v -20.1566 -2.8621 z"/></g><style id="style853" type="text/css"/><style id="style853-9" type="text/css"/><style id="style853-3" type="text/css"/></svg>