<svg xmlns="http://www.w3.org/2000/svg" xmlns:svg="http://www.w3.org/2000/svg" id="svg2" width="192" height="192" version="1.1" viewBox="0 0 192 192"><metadata id="metadata7"/><g id="layer1" transform="translate(0,-860.36216)"><rect id="rect923" width="152" height="152" x="20" y="880.362" rx="9.935" ry="9.935" style="fill:#56595b;fill-opacity:1;fill-rule:evenodd;stroke:none;stroke-width:.993469;stroke-opacity:1"/><text id="text927" x="52.241" y="926.674" xml:space="preserve" style="font-weight:700;font-size:29.1602px;line-height:1.25;font-family:Now;-inkscape-font-specification:'Now Bold';letter-spacing:0;word-spacing:0;fill:#fff;fill-opacity:1;stroke-width:.729008"><tspan style="fill:#fff;fill-opacity:1;stroke-width:.729008" id="tspan925" x="52.241" y="926.674">SONY</tspan></text><path style="fill:#bd9aff;fill-opacity:1;stroke:none;stroke-width:.917779px;stroke-linecap:butt;stroke-linejoin:miter;stroke-opacity:1" id="path939" d="m 19.999977,916.43872 v 105.98918 c 0,5.5037 4.430459,9.9343 9.934246,9.9343 H 162.06579 c 5.50378,0 9.93423,-4.4306 9.93423,-9.9343 v -20.1768 -5.96557 c -1.27365,-12.417 -11.37802,-39.9234 -76.000016,-39.9234 -64.621997,0 -74.726365,-27.50643 -76.000027,-39.92341 z"/><path id="path1090" d="m 59.037222,1024.7436 h 9.525814 v -50.97799 h -9.525814 z" style="font-weight:700;font-size:54.7791px;line-height:1.25;font-family:Now;-inkscape-font-specification:'Now Bold';letter-spacing:0;word-spacing:0;fill:#f9de81;fill-opacity:1;stroke-width:1.48842"/><path id="path1092" d="m 82.256332,989.98926 c 2.827976,0 5.20943,-2.38145 5.20943,-5.20943 0,-2.90239 -2.381454,-5.20943 -5.20943,-5.20943 -2.827976,0 -5.20943,2.30704 -5.20943,5.20943 0,2.82798 2.381454,5.20943 5.20943,5.20943 z m -4.762907,34.75434 h 9.451394 v -29.76817 h -9.451394 z" style="font-weight:700;font-size:54.7791px;line-height:1.25;font-family:Now;-inkscape-font-specification:'Now Bold';letter-spacing:0;word-spacing:0;fill:#f9de81;fill-opacity:1;stroke-width:1.48842"/><path style="font-weight:700;font-size:54.7791px;line-height:1.25;font-family:Now;-inkscape-font-specification:'Now Bold';letter-spacing:0;word-spacing:0;fill:#f9de81;fill-opacity:1;stroke-width:1.48842" id="path1019" d="m 118.95393,979.10545 -5.06868,15.86938 -6.25254,19.57387 -4.3482,-13.4547 a 8.8365502,8.8365502 0 0 0 -8.408363,-6.11917 h -1.493151 a 1.4875963,1.4875963 0 0 0 -1.381185,2.04012 l 9.546919,23.86555 a 6.1465024,6.1465024 0 0 0 5.70684,3.8636 h 0.0743 a 6.9667877,6.9667877 0 0 0 6.45723,-4.3514 l 19.02412,-46.96942 a 2.0716569,2.0716569 0 0 0 -1.92014,-2.84937 h -0.25605 a 12.262486,12.262486 0 0 0 -11.68111,8.53154 z"/></g><style id="style853" type="text/css"/><style id="style853-9" type="text/css"/><style id="style853-3" type="text/css"/></svg>