<svg xmlns="http://www.w3.org/2000/svg" xmlns:svg="http://www.w3.org/2000/svg" id="svg2" width="192" height="192" version="1.1" viewBox="0 0 192 192"><metadata id="metadata7"/><g id="layer1" transform="translate(0,-860.36216)"><circle id="path835" cx="96" cy="956.362" r="88" style="fill:#f9de81;stroke:none;stroke-width:7.00731;stroke-linecap:square;stroke-linejoin:round;stop-color:#000"/><path style="color:#000;font-style:normal;font-variant:normal;font-weight:400;font-stretch:normal;font-size:medium;line-height:normal;font-family:sans-serif;font-variant-ligatures:normal;font-variant-position:normal;font-variant-caps:normal;font-variant-numeric:normal;font-variant-alternates:normal;font-variant-east-asian:normal;font-feature-settings:normal;font-variation-settings:normal;text-indent:0;text-align:start;text-decoration:none;text-decoration-line:none;text-decoration-style:solid;text-decoration-color:#000;letter-spacing:normal;word-spacing:normal;text-transform:none;writing-mode:lr-tb;direction:ltr;text-orientation:mixed;dominant-baseline:auto;baseline-shift:baseline;text-anchor:start;white-space:normal;shape-padding:0;shape-margin:0;inline-size:0;clip-rule:nonzero;display:inline;overflow:visible;visibility:visible;isolation:auto;mix-blend-mode:normal;color-interpolation:sRGB;color-interpolation-filters:linearRGB;solid-color:#000;solid-opacity:1;vector-effect:none;fill:#fff;fill-opacity:1;fill-rule:nonzero;stroke:none;stroke-width:5.08518;stroke-linecap:round;stroke-linejoin:round;stroke-miterlimit:4;stroke-dasharray:none;stroke-dashoffset:0;stroke-opacity:1;color-rendering:auto;image-rendering:auto;shape-rendering:auto;text-rendering:auto;enable-background:accumulate;stop-color:#000" id="path1056" d="M 95.999996,924.60769 C 75.87201,924.60769 59.5,940.97849 59.5,961.10648 c 0,10.37105 4.361396,19.73521 11.325618,26.37978 0.739374,0.70549 2.087949,0.82929 2.973155,0.31842 l 3.155051,-1.82067 c -0.309139,-0.23097 -0.607755,-0.37425 -0.912206,-0.61809 -6.997377,-5.76399 -11.456244,-14.47296 -11.456244,-24.25944 0,-17.37976 14.034869,-31.41342 31.414622,-31.41342 17.379754,0 31.414624,14.03366 31.414624,31.41342 0,9.79134 -4.46618,18.50169 -11.4695,24.26547 -0.31313,0.21996 -0.59021,0.3987 -0.90551,0.6082 l 3.15704,1.82299 c 0.88507,0.51106 2.23356,0.38744 2.973,-0.31793 6.96559,-6.64452 11.33035,-16.00687 11.33035,-26.37873 0,-20.12799 -16.37201,-36.49879 -36.500004,-36.49879 z"/><path style="fill:#fff;fill-opacity:1;stroke:none;stroke-width:5.29984;stroke-linecap:round;stroke-linejoin:round;stroke-miterlimit:4;stroke-dasharray:none;stroke-opacity:1;stop-color:#000" id="path1060" d="m 62.498697,966.64847 c 1.308129,8.06972 5.663643,15.59372 12.009242,20.74749 2.18214,-1.26889 4.380848,-2.51071 6.55252,-3.79675 1.135714,-0.7646 1.235773,-2.41498 0.434994,-3.45388 -3.187329,-5.50439 -6.347338,-11.02548 -9.551797,-16.5194 -0.764372,-1.13576 -2.414783,-1.23725 -3.453893,-0.4362 -1.997024,1.15291 -3.994048,2.30583 -5.991066,3.45874 z"/><path style="fill:#fff;fill-opacity:1;stroke:none;stroke-width:5.29984;stroke-linecap:round;stroke-linejoin:round;stroke-miterlimit:4;stroke-dasharray:none;stroke-opacity:1;stop-color:#000" id="path1062" d="m 129.5013,966.64847 c -1.30813,8.06972 -5.66365,15.59372 -12.00924,20.74749 -2.18215,-1.26889 -4.38085,-2.51071 -6.55253,-3.79675 -1.13571,-0.7646 -1.23577,-2.41498 -0.43499,-3.45388 3.18733,-5.50439 6.34734,-11.02548 9.5518,-16.5194 0.76437,-1.13576 2.41479,-1.23725 3.4539,-0.4362 1.99701,1.15291 3.99404,2.30583 5.99106,3.45874 z"/></g><style id="style853" type="text/css"/></svg>