<svg xmlns="http://www.w3.org/2000/svg" xmlns:svg="http://www.w3.org/2000/svg" id="svg2" width="192" height="192" version="1.1" viewBox="0 0 192 192"><metadata id="metadata7"/><g id="layer1" transform="translate(0,-860.36216)"><path style="fill:#ff837d;fill-opacity:1;stroke-width:.604488" id="path1057" fill="#e60000" d="m 95.998411,868.36216 c -9.297846,0 -18.250169,1.45188 -26.663577,4.12421 35.406676,-7.68098 70.499536,6.90433 83.141836,36.7755 14.61093,34.52795 -6.30529,76.38501 -46.71756,93.48733 -36.253095,15.3398 -75.863319,5.538 -94.186421,-21.56254 10.718055,36.50924 44.447785,63.17554 84.425722,63.17554 48.600599,0 88.001589,-39.3972 88.001589,-88.00004 0,-48.60289 -39.40099,-88 -88.001589,-88 z"/><path style="fill:#ba6561;fill-opacity:1;stroke-width:.604488" id="path1059" fill="#af0000" d="m 105.76228,1002.7492 c 40.41544,-17.10232 61.33167,-58.9562 46.71755,-93.48733 -12.6423,-29.87435 -47.73832,-44.45648 -83.141834,-36.7755 -35.565196,11.2948 -61.3379926,44.5706 -61.3379926,83.87579 0,8.62565 1.2616951,16.95015 3.5758666,24.8245 18.319921,27.10054 57.933307,36.90544 94.18641,21.56254 z"/><path style="stroke-width:.604488" id="path1061" fill="#fff" d="m 118.55675,996.13334 v -90.35851 c 0,-1.79423 -1.46457,-3.25562 -3.26202,-3.25562 H 94.835002 c -1.461409,0 -2.282457,0.32335 -3.588533,0.81471 l -26.400492,13.58991 c -1.626247,0.6562 -2.279276,1.6294 -2.279276,3.26196 v 14.8072 c 0,1.74034 1.410686,3.14468 3.147886,3.14468 h 16.896569 v 71.03713 c 7.712818,-1.0714 15.504874,-3.189 23.147954,-6.4256 4.51738,-1.9115 8.79065,-4.13055 12.79764,-6.61586 z"/></g><style id="style853" type="text/css"/><style id="style853-9" type="text/css"/><style id="style853-3" type="text/css"/></svg>