<svg xmlns="http://www.w3.org/2000/svg" xmlns:svg="http://www.w3.org/2000/svg" id="svg2" width="192" height="192" version="1.1" viewBox="0 0 192 192"><metadata id="metadata7"/><g id="layer1" transform="translate(0,-860.36216)"><path style="fill:#97db99;fill-opacity:1;stroke:none;stroke-width:.935178;stroke-miterlimit:4;stroke-dasharray:none;stroke-opacity:1;stop-color:#000" id="path1532-3" d="m 96,956.36211 10.88086,76.50009 H 162.5 c 5.54,0 10,-4.46 10,-10 v -9.0528 z"/><path style="fill:#f8dd7f;fill-opacity:1;stroke:none;stroke-width:.935178;stroke-miterlimit:4;stroke-dasharray:none;stroke-opacity:1;stop-color:#000" id="path1536-6" d="M 95.99834,956.36211 19.5,898.91571 v 68.3271 z"/><path style="fill:#fe827c;fill-opacity:1;stroke:none;stroke-width:.935178;stroke-miterlimit:4;stroke-dasharray:none;stroke-opacity:1;stop-color:#000" id="path1538-7" d="M 95.99805,956.36211 19.5,967.24301 v 55.61919 c 0,5.54 4.46,10 10,10 h 9.05273 z"/><path style="fill:#99bdfe;fill-opacity:1;stroke:none;stroke-width:.935178;stroke-miterlimit:4;stroke-dasharray:none;stroke-opacity:1;stop-color:#000" id="path1540-5" d="m 95.99834,956.36211 -57.44473,76.50009 h 68.32705 L 96,956.36211 Z"/><path style="fill:#97db99;fill-opacity:1;stroke:none;stroke-width:.935178;stroke-miterlimit:4;stroke-dasharray:none;stroke-opacity:1;stop-color:#000" id="path1542-3" d="m 29.5,879.86211 c -5.54,0 -10,4.46 -10,10 v 9.0528 l 76.49805,57.4472 -10.88086,-76.5 z"/><path style="fill:#99bdfe;fill-opacity:1;stroke:none;stroke-width:.935178;stroke-miterlimit:4;stroke-dasharray:none;stroke-opacity:1;stop-color:#000" id="path1544-5" d="m 85.11768,879.86211 10.88066,76.5 h 0.002 l 57.44472,-76.5 z"/><path style="fill:#f8dd7f;fill-opacity:1;stroke:none;stroke-width:.935178;stroke-miterlimit:4;stroke-dasharray:none;stroke-opacity:1;stop-color:#000" id="path1530-6" d="m 96,956.36211 76.5,57.44639 v -68.32699 z"/><path style="fill:#fe827c;fill-opacity:1;stroke:none;stroke-width:.935178;stroke-miterlimit:4;stroke-dasharray:none;stroke-opacity:1;stop-color:#000" id="path1534-2" d="m 153.44531,879.86211 -57.44531,76.5 76.5,-10.8808 v -55.6192 c 0,-5.54 -4.46,-10 -10,-10 z"/><path style="fill:#fefefe;fill-opacity:1;stroke:none;stroke-width:.244148;stroke-miterlimit:4;stroke-dasharray:none;stroke-opacity:1;stop-color:#000" id="path1097-9" d="m 96,992.86211 c 20.15839,0 36.5,-16.3416 36.5,-36.5 0,-20.1584 -16.34161,-36.5 -36.5,-36.5 -10.0792,0 -36.49999,0 -36.49999,0 0,0 -1e-5,26.4208 -1e-5,36.5 0,20.1584 16.34161,36.5 36.5,36.5 z"/><path style="fill:#ebebeb;fill-opacity:1;stroke:none;stroke-width:.244148;stroke-miterlimit:4;stroke-dasharray:none;stroke-opacity:1;stop-color:#000" id="path1167-1" d="m 93.61646,925.86221 c -9.3724,0 -18.74479,0 -28.11719,0 0.0169,10.7264 -0.0455,21.4541 0.046,32.1796 0.42276,8.653 4.78339,17.0053 11.62717,22.3149 6.56339,5.2113 15.33961,7.4876 23.61017,6.1296 7.47824,-1.1495 14.43102,-5.2325 19.11551,-11.1686 4.85769,-6.0957 7.25119,-14.0922 6.45998,-21.8544 -0.62385,-7.1712 -3.98007,-14.0277 -9.1499,-19.0191 -0.25345,-0.25 -0.81147,-0.7656 -1.19903,-1.1001 -5.49659,-4.8211 -12.77015,-7.5204 -20.07865,-7.4842 -0.7714,-0.02 -1.54266,0 -2.31412,0 z"/></g><style id="style853" type="text/css"/></svg>