<svg xmlns="http://www.w3.org/2000/svg" xmlns:svg="http://www.w3.org/2000/svg" id="svg2" width="192" height="192" version="1.1" viewBox="0 0 192 192"><metadata id="metadata7"/><g id="layer1" transform="translate(0,-860.36216)"><rect id="rect1054" width="153" height="153" x="19.5" y="879.862" rx="10" style="fill:#83868c;fill-opacity:1;fill-rule:evenodd;stroke:none;stroke-opacity:1"/><g id="g1102" transform="translate(0.01485174,0.02813162)"><path style="fill:#fff;fill-opacity:1;stroke:none;stroke-width:3.621;stroke-linecap:round;stroke-linejoin:round;stroke-miterlimit:4;stroke-dasharray:none;stroke-opacity:1;stop-color:#000" id="path1067" d="m 101.95293,936.05185 c -4.47547,0.35685 -8.91162,1.05048 -13.34865,1.55518 -13.16465,1.63868 -26.33885,3.2108 -39.49543,4.90813 -6.30011,1.12653 -11.59867,6.37671 -12.7863,12.66653 -0.7106,3.47204 0.0883,6.98495 0.47645,10.44265 0.47879,4.12068 2.58697,8.0313 5.84738,10.61159 3.4537,2.81766 8.096,4.13002 12.50925,3.42677 14.10017,-1.71207 28.19559,-3.4697 42.29279,-5.2101 3.02587,-0.42068 6.07911,-0.67335 9.08676,-1.20655 6.05407,-1.36681 11.03961,-6.52659 12.14995,-12.64081 0.68354,-3.46238 -0.1293,-6.95879 -0.50671,-10.40505 -0.51084,-4.303 -2.82318,-8.35757 -6.32683,-10.9201 -2.82891,-2.115 -6.35858,-3.30944 -9.89866,-3.22824 z"/><path style="fill:#fff;fill-opacity:1;stroke-width:25.401;stroke-linecap:round;stroke-linejoin:round;stop-color:#000" id="path1092" d="m 111.02344,897.39258 c -1.4316,0.23064 -2.49641,1.35022 -3.34711,2.44646 -7.728698,9.14545 -15.457397,18.2909 -23.186096,27.43635 -12.154297,-2.81315 -24.308593,-5.6263 -36.46289,-8.43945 -1.441471,0.0131 -3.233757,0.16993 -3.988282,1.60937 -0.497947,0.7258 -1.101688,1.82365 -0.772482,2.84701 0.335943,1.1832 0.856506,2.40081 1.9494,3.07454 11.717069,10.09386 23.434138,20.18772 35.151208,30.28158 -11.809245,10.37565 -23.61849,20.7513 -35.427735,31.12695 -0.82584,1.17466 -1.745399,2.71642 -1.023437,4.16602 0.360411,1.102 1.099294,2.25026 2.341796,2.43359 1.11227,0.4691 2.348438,0.40851 3.464079,-0.004 11.719005,-2.87886 23.43801,-5.75772 35.157015,-8.63657 8.179037,9.41992 16.358074,18.83977 24.537114,28.25967 1.17641,0.8424 2.74076,1.7806 4.19636,1.0305 1.17438,-0.3652 2.27294,-1.1949 2.54192,-2.4543 0.53717,-1.608 0.34355,-3.3335 0.57027,-4.9936 0.81316,-11.07763 1.62633,-22.15526 2.43949,-33.2329 11.48698,-4.86784 22.97396,-9.73568 34.46094,-14.60352 1.16702,-0.86218 2.54057,-2.0651 2.27322,-3.68467 0.0228,-1.22541 -0.44051,-2.5174 -1.54275,-3.16103 -1.39266,-1.02713 -3.12846,-1.38683 -4.6704,-2.12798 -10.25375,-4.18521 -20.50749,-8.37041 -30.76124,-12.55561 -1.08008,-12.42774 -2.16016,-24.85547 -3.24024,-37.28321 -0.4607,-1.37299 -1.17272,-3.04733 -2.79021,-3.30052 -0.61283,-0.14888 -1.23178,-0.3212 -1.86994,-0.23463 z"/><path style="fill:#f9de81;fill-opacity:1;stroke-width:25.401;stroke-linecap:round;stroke-linejoin:round;stop-color:#000" id="path1069" d="m 111.69856,901.27466 3.45196,39.71772 36.91213,15.06349 -36.70708,15.55646 -2.91976,39.76037 -26.13818,-30.10328 -38.71663,9.50979 38.87988,-34.16132 -39.33553,-33.88302 38.84051,8.99042 z"/><rect id="rect1071" width="74.667" height="29.657" x="-77.783" y="945.397" rx="12.141" ry="12.141" transform="rotate(-7.0370828)" style="fill:#83868c;fill-opacity:1;stroke:none;stroke-width:3.621;stroke-linecap:round;stroke-linejoin:round;stroke-miterlimit:4;stroke-dasharray:none;stroke-opacity:1;stop-color:#000"/><text id="text1075" x="-75.484" y="965.58" transform="rotate(-7.0370828)" xml:space="preserve" style="font-weight:700;font-size:14.278px;line-height:1.25;font-family:Now;-inkscape-font-specification:'Now Bold';letter-spacing:0;word-spacing:0;fill:#fff;fill-opacity:1;stroke-width:.356949"><tspan style="fill:#fff;fill-opacity:1;stroke-width:.356949" id="tspan1073" x="-75.484" y="965.58">PODCAST</tspan></text></g></g><style id="style853" type="text/css"/></svg>