<svg xmlns="http://www.w3.org/2000/svg" xmlns:xlink="http://www.w3.org/1999/xlink" id="Layer_1" width="192" height="192" x="0" y="0" enable-background="new 0 0 192 192" version="1.1" viewBox="0 0 192 192" xml:space="preserve"><g><path fill="#FFF" d="M186.546,179.915c0,3.304-2.679,5.982-5.981,5.982H13.08c-3.303,0-5.981-2.679-5.981-5.982V12.43 c0-3.303,2.678-5.981,5.981-5.981h167.485c3.303,0,5.981,2.678,5.981,5.981V179.915z"/><path fill="#728CBA" d="M7.098,121.587v58.328c0,3.304,2.678,5.982,5.981,5.982h167.485c3.303,0,5.981-2.679,5.981-5.982v-69.149 C172.365,110.189,126.821,110.122,7.098,121.587z"/><path fill="#9ABEFC" d="M180.564,6.449H13.08c-3.303,0-5.981,2.678-5.981,5.981v87.799c26.907-2.734,87.546-6.932,179.448-2.345 V12.43C186.546,9.127,183.867,6.449,180.564,6.449z"/></g></svg>