<svg xmlns="http://www.w3.org/2000/svg" xmlns:xlink="http://www.w3.org/1999/xlink" id="Layer_1" width="192" height="192" x="0" y="0" enable-background="new 0 0 192 192" version="1.1" viewBox="0 0 192 192" xml:space="preserve"><g><path fill="#9ABEFC" d="M185.708,173.603c0,6.702-5.432,12.135-12.135,12.135H17.175c-6.701,0-12.134-5.433-12.134-12.135V17.205 c0-6.701,5.433-12.134,12.134-12.134h156.398c6.703,0,12.135,5.433,12.135,12.134V173.603z"/><path fill="#728CBA" d="M173.573,5.07H17.175c-6.701,0-12.134,5.433-12.134,12.134v58.892h180.667V17.205 C185.708,10.503,180.276,5.07,173.573,5.07z"/><g><polygon fill="#FFE1C0" points="159.435 86.284 159.435 69.496 151.102 69.496 151.102 61.066 117.509 61.066 117.509 69.496 109.24 69.496 109.24 61.066 100.81 61.066 100.81 44.302 109.047 44.302 109.047 27.441 75.519 27.441 75.519 35.872 67.137 35.872 67.137 44.302 58.803 44.302 58.803 52.636 50.373 52.636 50.373 61.034 41.991 61.034 41.991 77.83 33.561 77.83 33.561 86.357 41.991 86.357 41.991 94.642 33.609 94.642 33.609 103.024 25.179 103.024 25.179 128.267 33.593 128.267 33.593 136.673 41.991 136.673 41.991 145.079 50.397 145.079 50.397 153.437 42.016 153.437 42.016 161.81 117.574 161.81 117.574 153.443 134.402 153.443 134.402 145.079 142.768 145.079 142.768 128.283 151.133 128.283 151.133 111.455 159.499 111.455 159.499 94.691 151.166 94.691 151.166 86.284"/><path fill="#C19476" d="M151.166,94.691v16.764h8.333V94.691H151.166z M142.768,86.284v8.341h8.398v-8.341h8.269V69.496h-8.333 v16.788H142.768z M142.768,128.283h8.365v-16.828h-8.365V128.283z M134.305,145.079h-16.73v8.364h16.828v-8.364h8.365v-16.796 h-8.463V145.079z M117.574,69.496h33.527v-8.43h-33.593v8.43h-8.269v-8.43h-7.285h-1.146V44.302h8.237V27.441H75.519v8.43h25.275 v8.431H83.981V52.7h8.398v8.463h8.43v25.113h8.301V77.83h8.464V69.496z"/><path fill="#C19476" d="M42.016,161.81h8.382v-8.373h-8.382V161.81z M50.397,153.363h16.74v-8.284h-16.74V153.363z M25.179,128.267h8.414v8.406h8.398v8.406h8.382v-8.406H42.04v-8.406h-8.431v-25.242h-8.43V128.267z M33.561,86.357h8.43V77.83 h-8.43V86.357z M67.137,35.872v8.431h-8.334v8.333h-8.43v8.398h-8.382V77.83h8.382V61.066h8.43v-8.334h8.334v-8.382h8.382v-8.479 H67.137z M33.609,94.642v8.382h8.382v-8.333h8.382v-8.334h-8.382v8.285H33.609z"/><rect width="8.334" height="16.747" x="58.803" y="61.066" fill="#C19476"/><rect width="8.398" height="16.747" x="50.405" y="61.066" fill="#FDC394"/><rect width="8.334" height="8.35" x="58.803" y="52.716" fill="#FDC394"/><rect width="8.334" height="8.382" x="67.185" y="44.334" fill="#FC6460"/><rect width="8.334" height="8.382" x="92.444" y="35.904" fill="#FC6460"/><rect width="16.86" height="8.35" x="75.519" y="52.716" fill="#FDC394"/><rect width="8.333" height="25.194" x="83.998" y="61.066" fill="#C19476"/><rect width="8.333" height="8.406" x="42.04" y="128.267" fill="none" stroke="#FFF" stroke-miterlimit="10" stroke-width=".25"/><rect width="8.431" height="8.406" x="50.357" y="128.267" fill="#FDC394"/><rect width="8.43" height="8.406" x="50.373" y="136.673" fill="none" stroke="#FFF" stroke-miterlimit="10" stroke-width=".25"/><rect width="50.437" height="8.284" x="67.137" y="145.079" fill="#F2AA75"/><rect width="16.844" height="8.284" x="92.331" y="145.079" fill="#C19476"/><rect width="8.366" height="8.446" x="109.175" y="153.363" fill="#C19476"/><rect width="16.828" height="8.446" x="92.347" y="153.363" fill="#F9DE90"/><rect width="8.43" height="8.446" x="83.917" y="153.363" fill="none" stroke="#FFF" stroke-miterlimit="10" stroke-width=".25"/><rect width="8.431" height="8.446" x="75.428" y="153.363" fill="#C19476"/><rect width="16.739" height="8.446" x="50.389" y="153.363" fill="#F9DE90"/><rect width="8.333" height="8.463" x="125.972" y="136.616" fill="#C19476"/><rect width="16.813" height="8.463" x="109.159" y="136.616" fill="#FDC394"/><rect width="8.422" height="8.463" x="92.348" y="136.616" fill="#FDC394"/><rect width="8.422" height="8.463" x="75.583" y="136.616" fill="#FDC394"/><rect width="8.35" height="8.463" x="58.788" y="136.616" fill="#FDC394"/><rect width="8.333" height="8.463" x="125.972" y="128.186" fill="#FDC394"/><rect width="8.463" height="8.414" x="134.306" y="119.853" fill="#D5B69E"/><rect width="8.391" height="16.845" x="142.76" y="94.61" fill="#FDC394"/><rect width="16.797" height="8.39" x="134.305" y="77.895" fill="#FDC394"/><rect width="25.162" height="8.463" x="41.991" y="77.83" fill="#F9DE90"/><rect width="8.431" height="8.463" x="67.153" y="77.83" fill="#FDC394"/><rect width="8.415" height="8.366" x="50.373" y="86.325" fill="#C19476"/><rect width="8.414" height="8.366" x="58.771" y="86.325" fill="#FDC394"/><polygon fill="#FDC394" points="41.991 103.024 33.593 103.024 33.593 128.267 50.389 128.267 50.389 119.886 58.723 119.886 58.723 111.486 50.325 111.486 50.325 103.024 58.771 103.024 58.771 94.691 41.991 94.691"/><rect width="8.415" height="8.396" x="58.755" y="119.886" fill="#FDC394"/><rect width="8.366" height="8.396" x="67.186" y="111.486" fill="#FDC394"/><rect width="8.43" height="8.396" x="75.536" y="119.886" fill="#FDC394"/><polygon fill="#FF877F" points="92.444 44.302 83.981 44.302 83.981 52.716 75.519 52.716 75.519 35.872 92.444 35.872"/><rect width="8.431" height="8.334" x="117.541" y="69.496" fill="#FDC394"/><rect width="8.431" height="8.431" x="109.144" y="77.83" fill="#FDC394"/><rect width="8.334" height="8.431" x="100.81" y="86.26" fill="#FDC394"/><rect width="8.334" height="8.38" x="84.045" y="94.691" fill="#FDC394"/><rect width="8.381" height="16.764" x="92.379" y="94.691" fill="#FDC394"/><rect width="8.383" height="8.366" x="100.761" y="103.089" fill="#C19476"/><rect width="8.383" height="8.397" x="100.761" y="111.455" fill="#FDC394"/><rect width="16.812" height="8.397" x="109.144" y="111.455" fill="#C19476"/><rect width="8.381" height="8.399" x="117.574" y="103.056" fill="#FDC394"/><rect width="8.414" height="8.399" x="125.955" y="103.056" fill="#C19476"/><rect width="8.414" height="8.397" x="125.955" y="111.455" fill="#FDC394"/><rect width="8.414" height="8.333" x="125.955" y="94.723" fill="#FDC394"/><rect width="8.43" height="16.925" x="92.331" y="61.066" fill="#FDC394"/></g><path fill="#FFF" d="M31.268,22.247c0-0.34-2.081-0.621-4.766-0.661c-0.04-2.685-0.32-4.766-0.661-4.766 s-0.621,2.081-0.661,4.766c-2.685,0.04-4.766,0.32-4.766,0.661s2.081,0.621,4.766,0.661c0.04,2.685,0.321,4.766,0.661,4.766 s0.621-2.081,0.661-4.766C29.187,22.867,31.268,22.587,31.268,22.247z"/><path fill="#FFF" d="M17.07,130.502c0-0.243-1.486-0.443-3.404-0.472c-0.029-1.919-0.229-3.405-0.472-3.405 c-0.243,0-0.443,1.486-0.472,3.405c-1.917,0.028-3.404,0.229-3.404,0.472s1.486,0.443,3.404,0.473 c0.029,1.917,0.229,3.403,0.472,3.403c0.244,0,0.443-1.486,0.472-3.403C15.584,130.945,17.07,130.745,17.07,130.502z"/><path fill="#FFF" d="M173.69,78.752c0-0.243-1.485-0.443-3.403-0.472c-0.028-1.917-0.229-3.404-0.472-3.404 s-0.443,1.486-0.473,3.404c-1.917,0.029-3.403,0.229-3.403,0.472c0,0.243,1.486,0.444,3.403,0.472 c0.029,1.918,0.229,3.404,0.473,3.404s0.443-1.486,0.472-3.404C172.205,79.196,173.69,78.995,173.69,78.752z"/><path fill="#FFF" d="M150.436,168.456c0-0.315-1.933-0.576-4.426-0.613c-0.037-2.493-0.297-4.425-0.613-4.425 s-0.576,1.932-0.613,4.425c-2.493,0.037-4.426,0.298-4.426,0.613c0,0.316,1.933,0.577,4.426,0.613 c0.037,2.493,0.297,4.426,0.613,4.426s0.576-1.933,0.613-4.426C148.503,169.033,150.436,168.772,150.436,168.456z"/><circle cx="43.025" cy="49.121" r=".872" fill="#FFF"/><circle cx="179.719" cy="42.563" r=".872" fill="#FFF"/><circle cx="153.104" cy="61.523" r=".872" fill="#FFF" opacity=".2"/><circle cx="91.604" cy="164.366" r=".872" fill="#FFF" opacity=".2"/><circle cx="33.626" cy="157.648" r=".872" fill="#FFF" opacity=".2"/><circle cx="168.866" cy="42.66" r=".872" fill="#FFF" opacity=".2"/><circle cx="145.093" cy="23.539" r=".872" fill="#FFF"/></g></svg>