<svg xmlns="http://www.w3.org/2000/svg" xmlns:svg="http://www.w3.org/2000/svg" id="svg2" width="192" height="192" version="1.1" viewBox="0 0 192 192"><metadata id="metadata7"/><g id="layer1" transform="translate(0,-860.36216)"><path id="path955" fill="#6935d3" d="m 184,956.36282 c 0,48.60168 -39.3977,87.99938 -87.99932,87.99938 C 47.399058,1044.3622 8,1004.9645 8,956.36282 8,907.7612 47.399058,868.36214 96.00068,868.36214 144.6023,868.36214 184,907.7612 184,956.36282" class="site-logo-coin" style="fill:#bc99fe;fill-opacity:1;fill-rule:evenodd;stroke-width:1.35611"/><path id="path959" d="m 117.30714,958.36073 v 0.97378 c 0,18.48729 -15.0381,33.52789 -33.527865,33.52789 h -0.970478 a 2,2 45 0 1 -2,-2 v -8.15596 a 2,2 135 0 1 2,-2 h 0.970478 c 11.783693,0 21.374395,-9.58658 21.374395,-21.37193 v -0.97378 a 2,2 135 0 1 2,-2 h 8.15347 a 2,2 45 0 1 2,2 z m -42.614275,-3.998 v -0.97378 c 0,-18.48728 15.038096,-33.52703 33.527855,-33.52703 l 0.97131,0 a 2,2 45 0 1 2,2 v 8.15593 a 2,2 135 0 1 -2,2 h -0.97131 c -11.782868,0 -21.373574,9.58576 -21.373574,21.3711 v 0.97378 a 2,2 135 0 1 -2,2 h -8.154281 a 2,2 45 0 1 -2,-2 z" style="fill:#fefefe;fill-opacity:1;fill-rule:evenodd;stroke-width:.825362"/></g><style id="style853" type="text/css"/></svg>