<svg xmlns="http://www.w3.org/2000/svg" xmlns:svg="http://www.w3.org/2000/svg" id="svg6214" width="192" height="192" version="1.1" viewBox="0 0 192 192"><metadata id="metadata6219"/><g id="layer1" transform="translate(0,-860.36222)"><g id="g896" transform="translate(-7.6293945e-6,-3e-5)"><rect id="rect4206-3" width="153" height="153" x="19.5" y="879.862" rx="10" style="fill:#a0a5af;fill-opacity:1;fill-rule:evenodd;stroke:none"/><path id="rect4171-6" d="m 19.5,889.862 v 133 c 0,5.54 4.46,10 10,10 h 13.79297 v -153 H 29.5 c -5.54,0 -10,4.46 -10,10 z" style="fill:#ebebeb;fill-opacity:1;fill-rule:evenodd;stroke:none"/><path style="fill:#ebebeb;fill-opacity:1;fill-rule:evenodd;stroke:none" id="path4222-7" d="m 172.5,889.862 v 133 c 0,5.54 -4.46,10 -10,10 h -13.79297 v -153 H 162.5 c 5.54,0 10,4.46 10,10 z"/><path style="fill:#ebebeb;fill-opacity:1;fill-rule:evenodd;stroke:none" id="path4224-5" d="m 29.50002,1032.8625 h 132.99997 c 5.53999,0 9.99999,-4.4601 9.99999,-10.0001 v -13.793 H 19.50002 v 13.793 c 0,5.54 4.46,10.0001 10,10.0001 z"/><rect style="fill:#d7d7d7;fill-opacity:1;stroke:none;stroke-width:.697;stroke-linecap:butt;stroke-linejoin:round;stroke-miterlimit:4;stroke-dasharray:none;stroke-opacity:1" id="rect4228-3" width="153" height="18.083" x="19.5" y="951.864" rx="5.368" ry="5.368"/><path id="path4253-5" d="m 84.72321,940.38508 a 3.116193,3.116193 0 0 0 -2.16652,0.87756 l -6.83059,6.61029 a 3.116193,3.116193 0 0 0 -0.94937,2.23833 v 18.14637 a 3.116193,3.116193 0 0 0 0.94937,2.23951 l 6.83059,6.61028 a 3.116193,3.116193 0 0 0 2.16652,0.87637 h 22.55361 a 3.116193,3.116193 0 0 0 2.16652,-0.87637 l 6.83059,-6.61028 a 3.116193,3.116193 0 0 0 0.94937,-2.23951 v -18.14637 a 3.116193,3.116193 0 0 0 -0.94937,-2.23833 l -6.83059,-6.61029 a 3.116193,3.116193 0 0 0 -2.16652,-0.87756 z" style="color:#000;font-style:normal;font-variant:normal;font-weight:400;font-stretch:normal;font-size:medium;line-height:normal;font-family:sans-serif;text-indent:0;text-align:start;text-decoration:none;text-decoration-line:none;text-decoration-style:solid;text-decoration-color:#000;letter-spacing:normal;word-spacing:normal;text-transform:none;writing-mode:lr-tb;direction:ltr;baseline-shift:baseline;text-anchor:start;white-space:normal;clip-rule:nonzero;display:inline;overflow:visible;visibility:visible;isolation:auto;mix-blend-mode:normal;color-interpolation:sRGB;color-interpolation-filters:linearRGB;solid-color:#000;solid-opacity:1;fill:#ebebeb;fill-opacity:1;fill-rule:nonzero;stroke:none;stroke-width:1;stroke-linecap:butt;stroke-linejoin:round;stroke-miterlimit:4;stroke-dasharray:none;stroke-dashoffset:0;stroke-opacity:1;color-rendering:auto;image-rendering:auto;shape-rendering:auto;text-rendering:auto;enable-background:accumulate"/><path id="path4247-6" d="m 96.00134,949.93737 c -3.479481,-10e-4 -6.300846,2.81907 -6.30122,6.29855 0.0017,2.14757 1.097439,4.14629 2.90702,5.30278 v 5.39281 a 1.5,1.5 45 0 0 1.5,1.5 h 3.78573 a 1.5,1.5 135 0 0 1.5,-1.5 v -5.38745 c 1.81119,-1.15751 2.90713,-3.15867 2.90703,-5.30814 -3.7e-4,-3.47844 -2.820118,-6.29818 -6.29856,-6.29855 z" style="fill:#56595b;fill-opacity:1;stroke:none;stroke-width:8;stroke-linecap:butt;stroke-linejoin:round;stroke-miterlimit:4;stroke-dasharray:none;stroke-opacity:1"/></g></g></svg>