<svg xmlns="http://www.w3.org/2000/svg" xmlns:svg="http://www.w3.org/2000/svg" id="svg2" width="192" height="192" version="1.1" viewBox="0 0 192 192"><metadata id="metadata7"/><g id="layer1" transform="translate(0,-860.36216)"><path style="fill:#99bdfe;fill-opacity:1;stroke:none;stroke-width:9.1999;stroke-linecap:round;stroke-linejoin:round;stop-color:#000" id="path1087" d="m 95.652062,868.36225 a 88.000484,88.000484 0 0 0 -87.6520566,88 88.000484,88.000484 0 0 0 87.9999986,87.99995 88.000484,88.000484 0 0 0 12.537116,-0.8974 l 74.56541,-74.56821 A 88.000484,88.000484 0 0 0 184,956.36225 a 88.000484,88.000484 0 0 0 -87.999996,-88 88.000484,88.000484 0 0 0 -0.347942,0 z"/><circle id="circle1089" cx="67.996" cy="939.679" r="10.393" style="fill:#708cbd;fill-opacity:1;stroke:none;stroke-width:1.08657;stroke-linecap:round;stroke-linejoin:round;stop-color:#000"/><circle id="circle1091" cx="124.005" cy="939.679" r="10.393" style="fill:#708cbd;fill-opacity:1;stroke:none;stroke-width:1.08657;stroke-linecap:round;stroke-linejoin:round;stop-color:#000"/><path id="path1093" d="M 123.95017,973.62393 A 32.273594,28.208681 0 0 1 96.00042,987.72827 32.273594,28.208681 0 0 1 68.050667,973.62393" style="fill:none;stroke:#708cbd;stroke-width:10.604;stroke-linecap:round;stroke-linejoin:round;stroke-miterlimit:4;stroke-dasharray:none;stroke-opacity:1;stop-color:#000"/><path style="fill:#708cbd;fill-opacity:1;stroke:none;stroke-width:9.19994;stroke-linecap:round;stroke-linejoin:round;stop-color:#000" id="path1095" d="m 108.53676,1043.4651 74.56577,-74.56851 a 88.000896,88.000896 0 0 0 -74.56577,74.56851 z"/></g><style id="style853" type="text/css"/><style id="style853-9" type="text/css"/><style id="style853-3" type="text/css"/></svg>