<svg xmlns="http://www.w3.org/2000/svg" xmlns:svg="http://www.w3.org/2000/svg" id="svg2" width="192" height="192" version="1.1" viewBox="0 0 192 192"><defs id="defs4"><style id="style907"/></defs><metadata id="metadata7"/><g id="layer1" transform="translate(0,-860.36216)"><path id="polygon963" d="m 190.19,76.37 9.62448,14.671563 a 9.2060073,9.2060073 38.68586 0 0 4.45303,3.565746 l 28.74498,10.825381 a 0.92129264,0.92129264 127.708 0 0 1.07734,-1.39351 L 201.92,58.47 l 0.03,-0.04 -6.18,-8.7 7.66,6.47 19.9,-30.39 4.42442,0.568 a 2.6835569,2.6835569 139.12876 0 0 3.0249,-2.617595 L 231.12068,2.9995946 A 1.6703767,1.6703767 30.050719 0 0 228.59421,1.5379524 L 196.76579,20.542048 a 1.0369451,1.0369451 78.227065 0 0 0.39993,1.91887 L 203.33,23.25 190.19,41.86 176.93037,23.08068 a 11.013358,11.013358 39.537515 0 0 -4.46458,-3.685225 L 147.30421,8.0345449 a 0.87284267,0.87284267 130.52226 0 0 -1.08909,1.2741554 L 178.46,58.48 l -0.01,0.01 z m -1.64,2.13 -11.8,-17.88 -30.45706,43.41409 a 0.92597607,0.92597607 52.204794 0 0 1.08447,1.39833 l 28.73518,-10.824841 a 9.0330034,9.0330034 140.98597 0 0 4.42433,-3.584546 z" transform="matrix(1.4367548,0,0,1.4367548,-177.2636,879.86213)" style="fill:#97db99;fill-opacity:1"/></g><style id="style853" type="text/css"/></svg>