<svg xmlns="http://www.w3.org/2000/svg" xmlns:svg="http://www.w3.org/2000/svg" id="svg2" width="192" height="192" version="1.1" viewBox="0 0 192 192"><metadata id="metadata7"/><g id="layer1" transform="translate(0,-860.36216)"><path id="path1059" d="m 107.2585,985.47913 54.40186,46.57687 a 1.3808314,1.3808314 155.28447 0 0 2.27887,-1.0489 v -32.82237 a 6.5177521,6.5177521 65.284264 0 0 -2.27889,-4.95107 l -43.04144,-36.84999 43.04251,-36.8917 a 6.5224459,6.5224459 114.70007 0 0 2.27782,-4.95232 v -32.82241 a 1.3798,1.3798 24.699277 0 0 -2.27776,-1.04762 L 84.741489,946.60138 V 927.24503 L 30.339647,880.66832 a 1.3808346,1.3808346 155.28442 0 0 -2.278876,1.04892 v 32.82241 a 6.5181819,6.5181819 65.2857 0 0 2.278788,4.95119 l 43.036666,36.84963 -43.037745,36.89182 a 6.5229288,6.5229288 114.69846 0 0 -2.277709,4.95244 v 32.82237 a 1.3798033,1.3798033 24.69933 0 0 2.277768,1.0476 l 76.919951,-65.93147 z" style="opacity:.97;fill:#70a270;stroke-width:4.8528;fill-opacity:1"/></g><style id="style853" type="text/css"/><style id="style853-9" type="text/css"/><style id="style853-3" type="text/css"/><style id="style910" type="text/css"/></svg>