<svg xmlns="http://www.w3.org/2000/svg" xmlns:svg="http://www.w3.org/2000/svg" id="svg2" width="192" height="192" version="1.1" viewBox="0 0 192 192"><metadata id="metadata7"/><g id="layer1" transform="translate(0,-860.36216)"><rect id="rect940" width="152" height="152" x="20" y="880.362" rx="9.935" ry="9.935" style="fill:#97db99;fill-opacity:1;fill-rule:evenodd;stroke:none;stroke-width:.993464;stroke-opacity:1"/><g id="g844" transform="matrix(1.2048973,0,0,1.2048973,-19.670141,-195.95603)"><path style="fill:#ececec;fill-opacity:1;stroke-width:2.42415;stroke-linecap:square;stroke-linejoin:bevel;stop-color:#000" id="path942" d="m 78.047636,938.06382 v 15.24083 l 35.904724,21.35583 v -15.24037 z"/><path style="fill:#fff;fill-opacity:1;stroke-width:2.42415;stroke-linecap:square;stroke-linejoin:bevel;stop-color:#000" id="path944" d="m 94.749557,931.09374 -16.701921,6.97031 35.904724,21.35583 16.70191,-6.96989 a 1.0058005,1.0058005 0 0 0 0.12682,-1.79266 L 98.314185,931.34588 a 3.9768266,3.9768266 0 0 0 -3.564628,-0.25214 z"/><path style="fill:#fff;fill-opacity:1;stroke-width:2.42415;stroke-linecap:square;stroke-linejoin:bevel;stop-color:#000" id="path946" d="m 78.047636,953.30442 -16.701921,6.97031 a 1.0058155,1.0058155 0 0 0 -0.126792,1.79268 l 32.466882,19.31104 a 3.9769745,3.9769745 0 0 0 3.564654,0.25216 l 16.701901,-6.9699 z"/></g></g><style id="style853" type="text/css"/><style id="style853-9" type="text/css"/><style id="style853-3" type="text/css"/></svg>