<svg xmlns="http://www.w3.org/2000/svg" xmlns:svg="http://www.w3.org/2000/svg" id="svg2" width="192" height="192" version="1.1" viewBox="0 0 192 192"><metadata id="metadata7"/><g id="layer1" transform="translate(0,-860.36216)"><rect id="rect923" width="129.428" height="129.428" x="679.418" y="543.654" rx="8.515" ry="8.515" transform="rotate(45)" style="fill:#8c72bd;fill-opacity:1;stroke-width:11.7756;stroke-linecap:square;stop-color:#000"/><path style="fill:#54688c;fill-opacity:1;stroke-width:11.7755;stroke-linecap:square;stop-color:#000" id="rect941" d="m 8.000435,956.36134 c 0,2.17656 0.8334575,4.35415 2.501284,6.02197 l 79.477285,79.47629 c 3.335643,3.3356 8.706766,3.3356 12.042416,0 l 79.47729,-79.47629 c 1.66781,-1.66782 2.50128,-3.84541 2.50128,-6.02197 z"/><path style="fill:#fff;fill-opacity:1;stroke-width:7.79982;stroke-linecap:square;stop-color:#000" id="path949" d="m 123.80293,960.22799 -37.76281,27.74822 a 3.507338,4.4638456 0 0 1 -5.261005,-3.8658 v -55.49645 a 3.507338,4.4638456 0 0 1 5.261005,-3.8658 l 37.76281,27.74823 a 3.507338,4.4638456 0 0 1 0,7.7316 z"/></g><style id="style853" type="text/css"/><style id="style853-9" type="text/css"/><style id="style853-3" type="text/css"/></svg>