<svg xmlns="http://www.w3.org/2000/svg" xmlns:xlink="http://www.w3.org/1999/xlink" id="Слой_1" x="0" y="0" enable-background="new 0 0 192 192" version="1.1" viewBox="0 0 192 192" xml:space="preserve"><image width="241" height="241" overflow="visible" transform="matrix(0.7734 0 0 0.7734 4.215 -195)" xlink:href="D:\DESIGN\туццццц\Новая папка (4)\marvin\30E0AF75.jpg"/><path fill="#88BFFF" d="M172,192H20c-11,0-20-9-20-20V20C0,9,9,0,20,0h152c11,0,20,9,20,20v152C192,183,183,192,172,192z"/><path fill="#FFF" d="M129.2,120.6H62.3c-5.5,0-10-4.5-10-10V43.7c0-5.5,4.5-10,10-10h66.9c5.5,0,10,4.5,10,10v66.9	C139.2,116.1,134.7,120.6,129.2,120.6z"/><path fill="#FFF" d="M110.2,158.5h-29c-2.8,0-5-2.3-5-5V139c0-2.8,2.3-5,5-5h29c2.8,0,5,2.3,5,5v14.5	C115.2,156.2,113,158.5,110.2,158.5z"/><rect width="13.3" height="18" x="89.1" y="119" fill="#FFF"/><rect width="126" height="13.7" x="32.7" y="139" fill="#FFF"/></svg>