<svg xmlns="http://www.w3.org/2000/svg" xmlns:svg="http://www.w3.org/2000/svg" id="svg2" width="192" height="192" version="1.1" viewBox="0 0 192 192"><metadata id="metadata7"/><g id="layer1" transform="translate(0,-860.36222)"><rect id="rect4996" width="98.992" height="159.697" x="46.504" y="876.514" rx="12" ry="12" style="fill:#708cbd;fill-opacity:1;fill-rule:evenodd;stroke:none;stroke-width:2.00962px;stroke-linecap:butt;stroke-linejoin:miter;stroke-opacity:1"/><path style="display:inline;fill:#fff;fill-opacity:1;fill-rule:evenodd;stroke:none;stroke-width:2.22501px;stroke-linecap:butt;stroke-linejoin:miter;stroke-opacity:1" id="path4998" d="m 57.629057,1003.1737 v 0.1114 4.9334 a 2.4109589,2.4109589 0 0 0 2.41095,2.411 h 33.54905 38.370963 a 2.4109589,2.4109589 0 0 0 2.41096,-2.411 v -0.1116 -4.9334 a 2.4109589,2.4109589 0 0 0 -2.41096,-2.4109 H 98.410977 60.040007 a 2.4109589,2.4109589 0 0 0 -2.41095,2.4109 z"/><path style="display:inline;fill:#fff;fill-opacity:1;fill-rule:evenodd;stroke:none;stroke-width:2.22501px;stroke-linecap:butt;stroke-linejoin:miter;stroke-opacity:1" id="path5000" d="m 57.629057,980.15103 v 0.11139 4.93337 a 2.4109589,2.4109589 0 0 0 2.41095,2.41096 h 33.54905 38.370963 a 2.4109589,2.4109589 0 0 0 2.41096,-2.41096 v -0.11138 -4.93343 a 2.4109589,2.4109589 0 0 0 -2.41096,-2.41096 H 98.410977 60.040007 a 2.4109589,2.4109589 0 0 0 -2.41095,2.41096 z"/><path style="display:inline;fill:#fff;fill-opacity:1;fill-rule:evenodd;stroke:none;stroke-width:3.31843px;stroke-linecap:butt;stroke-linejoin:miter;stroke-opacity:1" id="path5002" d="m 38.772602,952.052 v 0.16613 7.35782 a 3.5957638,3.5957638 0 0 0 3.59575,3.59577 h 50.035885 57.227403 a 3.5957638,3.5957638 0 0 0 3.59576,-3.59577 v -0.16649 -7.35779 a 3.5957638,3.5957638 0 0 0 -3.59576,-3.59576 H 99.595767 42.368352 a 3.5957638,3.5957638 0 0 0 -3.59575,3.59576 z"/><path style="display:inline;fill:#fff;fill-opacity:1;fill-rule:evenodd;stroke:none;stroke-width:2.22501px;stroke-linecap:butt;stroke-linejoin:miter;stroke-opacity:1" id="path5004" d="m 57.629057,926.43168 v 0.11139 4.93342 a 2.4109589,2.4109589 0 0 0 2.41095,2.41096 h 33.54905 38.370963 a 2.4109589,2.4109589 0 0 0 2.41096,-2.41096 v -0.11138 -4.9334 a 2.4109589,2.4109589 0 0 0 -2.41096,-2.41096 H 98.410977 60.040007 a 2.4109589,2.4109589 0 0 0 -2.41095,2.41096 z"/><path style="display:inline;fill:#fff;fill-opacity:1;fill-rule:evenodd;stroke:none;stroke-width:2.22501px;stroke-linecap:butt;stroke-linejoin:miter;stroke-opacity:1" id="path5006" d="m 57.629057,904.50541 v 0.11139 4.93342 a 2.4109589,2.4109589 0 0 0 2.41095,2.41096 h 33.54905 38.370963 a 2.4109589,2.4109589 0 0 0 2.41096,-2.41096 v -0.11163 -4.9334 a 2.4109589,2.4109589 0 0 0 -2.41096,-2.41096 H 98.410977 60.040007 a 2.4109589,2.4109589 0 0 0 -2.41095,2.41096 z"/></g></svg>