<svg xmlns="http://www.w3.org/2000/svg" xmlns:svg="http://www.w3.org/2000/svg" id="svg2" width="192" height="192" version="1.1" viewBox="0 0 192 192"><metadata id="metadata7"/><g id="layer1" transform="translate(0,-860.36222)"><path style="fill:#000" id="path4147"/><circle style="opacity:1;fill:#001bf2;fill-opacity:1;stroke:none;stroke-width:10;stroke-linecap:round;stroke-linejoin:round;stroke-miterlimit:4;stroke-dasharray:none;stroke-opacity:.36470588" id="path4183" cx="372.047" cy="526.181" r="0"/><rect id="rect4609" width="152" height="152" x="20" y="880.362" rx="9.935" style="fill:#9abeff;fill-opacity:1;fill-rule:evenodd;stroke:none;stroke-width:.993464"/><g id="g838" transform="matrix(0.92287176,0,0,0.92287176,7.4043083,73.762474)"><rect id="rect4545" width="44.491" height="79.101" x="73.755" y="916.812" ry="5.819" style="fill:#738dbe;fill-opacity:1;fill-rule:evenodd;stroke:none;stroke-width:.948181px;stroke-linecap:butt;stroke-linejoin:miter;stroke-opacity:1"/><path id="rect4562" d="m 78.754674,932.97237 v 0.21725 2.21727 a 1,1 45 0 0 1,1 h 15.245331 17.245335 a 1,1 135 0 0 1,-1 v -0.21727 -2.21725 a 1,1 45 0 0 -1,-1 H 97.000005 79.754674 a 1,1 135 0 0 -1,1 z m 0,9.85448 v 0.21725 2.21726 a 1,1 45 0 0 1,1 h 15.245331 17.245335 a 1,1 135 0 0 1,-1 v -0.21726 -2.21725 a 1,1 45 0 0 -1,-1 H 97.000005 79.754674 a 1,1 135 0 0 -1,1 z m -11.332648,10.3472 v 1.94178 3.9418 a 1,1 45 0 0 1,1 h 26.577979 28.577975 a 1,1 135 0 0 1,-1 v -1.9418 l 0,-3.94178 a 1,1 45 0 0 -1,-1 l -26.577975,0 H 68.422026 a 1,1 135 0 0 -1,1 z m 11.332648,13.79626 v 0.21726 2.21725 a 1,1 45 0 0 1,1 h 15.245331 17.245335 a 1,1 135 0 0 1,-1 v -0.21725 -2.21726 a 1,1 45 0 0 -1,-1 H 97.000005 79.754674 a 1,1 135 0 0 -1,1 z m 0,10.34721 v 0.21724 2.21729 a 1,1 45 0 0 1,1 h 15.245331 17.245335 a 1,1 135 0 0 1,-1 v -0.21729 -2.21724 a 1,1 45 0 0 -1,-1 H 97.000005 79.754674 a 1,1 135 0 0 -1,1 z" style="display:inline;fill:#fff;fill-opacity:1;fill-rule:evenodd;stroke:none;stroke-width:1px;stroke-linecap:butt;stroke-linejoin:miter;stroke-opacity:1"/></g></g></svg>