<svg xmlns="http://www.w3.org/2000/svg" xmlns:svg="http://www.w3.org/2000/svg" id="svg2" width="192" height="192" version="1.1" viewBox="0 0 192 192"><metadata id="metadata7"/><g id="layer1" transform="translate(0,-860.36222)"><path style="fill:#000" id="path4147"/><circle style="opacity:1;fill:#001bf2;fill-opacity:1;stroke:none;stroke-width:10;stroke-linecap:round;stroke-linejoin:round;stroke-miterlimit:4;stroke-dasharray:none;stroke-opacity:.36470588" id="path4183" cx="372.047" cy="526.181" r="0"/><rect id="rect4609" width="152" height="152" x="20" y="880.362" rx="9.935" style="fill:#98db9a;fill-opacity:1;fill-rule:evenodd;stroke:none;stroke-width:.993464"/><path id="path5339" d="m 79.17152,963.96734 h 18.473603 c 0,0 1.651599,-0.029 1.651599,-1.41725 0,-1.2304 -1.718548,-1.95292 -1.718548,-1.95292 l -7.108579,-3.59334 c 0,0 -5.847556,-2.27654 -5.847556,-8.21336 0,-9.406 10.501054,-8.82713 10.501054,-8.82713 h 11.460757 v 5.09341 a 0.96841802,0.96841802 0 0 0 1.58622,0.74576 l 13.93933,-11.54747 a 1.7062371,1.7062371 0 0 0 -9e-5,-2.62796 L 108.1744,920.08485 a 0.96850319,0.96850319 0 0 0 -1.58631,0.74587 v 5.09402 H 91.630179 c 0,0 -11.353037,0.39046 -17.884139,6.92157 -3.743964,3.74397 -5.997099,8.43935 -5.997099,14.70868 0,3.65329 1.104141,7.2732 2.901459,10.38624 1.318706,2.28408 3.291371,3.95084 4.709919,4.94508 0.93083,0.6524 2.673607,1.08103 3.811201,1.08103 z" style="fill:#fefefe;fill-opacity:1;stroke:none;stroke-width:1.00368"/><path id="path5341" d="M 112.32344,948.75711 H 93.849833 c 0,0 -1.651601,0.029 -1.651601,1.41724 0,1.23039 1.718566,1.95292 1.718566,1.95292 l 7.108572,3.59333 c 0,0 5.84755,2.27655 5.84755,8.21337 0,9.406 -10.501059,8.82713 -10.501059,8.82713 H 84.9111 v -5.09342 a 0.96841786,0.96841786 0 0 0 -1.586214,-0.74576 L 69.385545,978.4694 a 1.7062362,1.7062362 0 0 0 8.9e-5,2.62796 l 13.934934,11.54223 a 0.96850401,0.96850401 0 0 0 1.586304,-0.74588 v -5.09402 h 14.957901 c 0,0 11.368837,0.16191 18.326047,-6.79532 3.74397,-3.74396 6.06024,-9.07062 6.06024,-15.33995 0,-3.65328 -1.10416,-6.20002 -2.90146,-9.31307 -1.38318,-2.39573 -3.67405,-4.32408 -5.24872,-5.46277 -0.9205,-0.66564 -2.63984,-1.13147 -3.77744,-1.13147 z" style="fill:#f8dd81;fill-opacity:1;stroke:none;stroke-width:1.00368"/></g></svg>