<svg xmlns="http://www.w3.org/2000/svg" xmlns:xlink="http://www.w3.org/1999/xlink" id="Layer_1" x="0" y="0" version="1.1" viewBox="0 0 192 192" xml:space="preserve" style="enable-background:new 0 0 192 192"><style type="text/css">.st0{fill:#fff}.st1{fill:#f9de81}</style><path d="M29.5,19.6h133c5.5,0,10,4.5,10,10v133c0,5.5-4.5,10-10,10h-133c-5.5,0-10-4.5-10-10v-133	C19.5,24.1,24,19.6,29.5,19.6z" class="st0"/><g><circle cx="96.1" cy="96.1" r="34.6" class="st1"/><rect width="13.6" height="20.2" x="89.2" y="34.6" class="st1"/><rect width="13.6" height="20.2" x="89.2" y="137.4" class="st1"/><rect width="13.6" height="20.2" x="140.6" y="85.9" class="st1" transform="matrix(-1.836970e-16 1 -1 -1.836970e-16 243.4387 -51.3673)"/><rect width="13.6" height="20.2" x="37.8" y="85.9" class="st1" transform="matrix(-1.836970e-16 1 -1 -1.836970e-16 140.6327 51.4387)"/><rect width="13.6" height="20.2" x="125.5" y="122.3" class="st1" transform="matrix(-0.7071 0.7071 -0.7071 -0.7071 319.4282 132.4547)"/><rect width="13.6" height="20.2" x="52.8" y="49.6" class="st1" transform="matrix(-0.7071 0.7071 -0.7071 -0.7071 143.9274 59.7599)"/><rect width="13.6" height="20.2" x="125.7" y="49.6" class="st1" transform="matrix(0.7071 0.7071 -0.7071 0.7071 81.0081 -76.1942)"/><rect width="13.6" height="20.2" x="53" y="122.3" class="st1" transform="matrix(0.7071 0.7071 -0.7071 0.7071 111.1193 -3.4994)"/></g></svg>