<svg xmlns="http://www.w3.org/2000/svg" xmlns:xlink="http://www.w3.org/1999/xlink" id="Layer_1" width="192" height="192" x="0" y="0" enable-background="new 0 0 192 192" version="1.1" viewBox="0 0 192 192" xml:space="preserve"><g><g><path fill="#56595B" d="M183.895,172.247c0,6.449-5.227,11.676-11.676,11.676h-151.3c-6.448,0-11.676-5.227-11.676-11.676V20.948 c0-6.449,5.228-11.676,11.676-11.676h151.3c6.449,0,11.676,5.227,11.676,11.676V172.247z"/></g><g><path fill="#FDC394" d="M96.569,169.596c38.885,0,70.668-30.404,72.875-68.737H23.693C25.9,139.191,57.683,169.596,96.569,169.596 z"/><path fill="#F9DE90" d="M96.569,23.598c-38.886,0-70.668,30.405-72.875,68.738h145.751 C167.237,54.003,135.454,23.598,96.569,23.598z"/></g></g></svg>