<svg xmlns="http://www.w3.org/2000/svg" xmlns:svg="http://www.w3.org/2000/svg" id="svg2" width="192" height="192" version="1.1" viewBox="0 0 192 192"><metadata id="metadata7"/><g id="layer1" transform="translate(0,-860.36216)"><g id="g1033" transform="matrix(0.86996541,0,0,0.86996541,888.2026,450.64832)"><path style="fill:#74ada4;fill-opacity:1;stroke-width:6.00073" id="path1026" d="m -914.79297,-374.42188 c -28.85089,1.55649 -40.97676,18.31948 -44.23047,27.2461 -12.64311,37.89747 -20.51036,86.98292 -26.18945,122.41601 -0.11077,0.69128 -0.22099,1.37616 -0.33008,2.05665 l -1.8457,16.84179 c -0.10945,2.65892 0.13901,5.53825 0.85547,8.33399 3.54371,10.27444 14.22946,18.92968 37.76953,10.30664 l 0.002,0.0137 c 22.23659,-9.69777 48.50448,-21.74854 75.66797,-35.26758 15.46447,-8.94288 38.11756,-29.50196 39.2793,-55.4707 -0.20943,-19.26113 -0.85396,-39.45327 -2.16211,-59.10547 l -0.01,0.0137 v -0.13477 c -0.10741,-1.61419 -0.21952,-3.48332 -0.33594,-5.42773 -0.22442,-3.73413 -0.46537,-7.74961 -0.72461,-10.79492 -0.38405,-2.11123 -0.87575,-4.01971 -1.48242,-5.74414 -3.77326,-8.4189 -11.16554,-12.47855 -18.96289,-14.41992 -3.55603,-0.61661 -7.92424,-0.72791 -12.5664,-0.84571 -0.21963,-0.006 -0.43994,-0.0119 -0.66016,-0.0176 z" transform="translate(0,860.36216)"/><path style="stroke-width:6.00073" id="path1006" fill="#fff" d="m -875.68528,521.20838 c 2.17827,0 3.94428,1.7659 3.94428,3.94422 v 12.41064 c 0,2.24415 -1.81942,4.06345 -4.06369,4.06345 v 0 c -13.46503,0 -24.38035,10.91568 -24.38035,24.38071 v 16.11015 c 0,25.05123 -20.30765,45.35888 -45.35894,45.35888 v 0 c -2.17833,0 -3.94422,-1.76601 -3.94422,-3.94427 v -12.4107 c 0,-2.24427 1.81924,-4.06309 4.06345,-4.06309 v 0 c 13.46503,0 24.38059,-10.91592 24.38059,-24.38095 v -16.11015 c 0,-25.05105 20.30766,-45.35889 45.35888,-45.35889 z"/></g></g><style id="style853" type="text/css"/></svg>