<svg xmlns="http://www.w3.org/2000/svg" xmlns:svg="http://www.w3.org/2000/svg" xmlns:xlink="http://www.w3.org/1999/xlink" id="Слой_1" x="0" y="0" enable-background="new 0 0 192 192" version="1.1" viewBox="0 0 192 192" xml:space="preserve"><metadata id="metadata39"/><rect id="rect923" width="153" height="153" x="19.5" y="19.5" rx="10" style="opacity:1;fill:#99bdfe;fill-opacity:1;fill-rule:evenodd;stroke:none"/><image id="image4" width="180" height="180" overflow="visible" transform="matrix(1 0 0 1 -6192 -6192)" xlink:href="3A90B879.jpg"/><rect id="rect8" width="12.5" height="12.5" x="334.5" y="-166" fill="#FFF"/><rect id="rect10" width="12.5" height="37.5" x="334.5" y="-142" fill="#FFF"/><rect id="rect12" width="12.5" height="12.5" x="359.8" y="-165.8" fill="#FFF"/><rect id="rect14" width="12.5" height="37.5" x="359.8" y="-141.8" fill="#FFF"/><circle id="circle16" cx="390.8" cy="-159.8" r="6.3" fill="#FFF"/><g id="g986"><g id="g20" transform="matrix(0.57844066,0,0,0.57844066,40.55807,40.527147)"><path id="path18" fill="#fff" d="m 96.2,32.9 c 15.1,0 30.2,0 45.3,0 12.4,0 17.4,5 17.4,17.7 0.1,20.7 0,41.4 0,62.1 0,9.7 0.1,19.4 0,29.1 -0.1,11.9 -5.5,17.3 -17.4,17.2 -31,0 -61.9,0 -92.9,-0.1 -9.9,0 -15.7,-5.3 -15.7,-15.4 -0.2,-31.7 -0.2,-63.4 0,-95.1 0.1,-10.2 6,-15.6 16.2,-15.6 15.8,0.1 31.5,0.1 47.1,0.1 z M 48.5,140.3 c 32.1,0 63.5,0 95.1,0 0,-29.7 0,-59.1 0,-88.4 -32,0 -63.5,0 -95.1,0 0,29.7 0,58.9 0,88.4 z"/></g><rect id="rect22" width="8.098" height="8.098" x="76.479" y="76.043" fill="#fff" rx="1.582" ry="1.582" style="stroke-width:.578441"/><rect style="stroke-width:.578441" id="rect976" width="8.098" height="8.098" x="92.849" y="76.043" fill="#fff" rx="1.582" ry="1.582"/><rect style="stroke-width:.578442" id="rect974" width="8.098" height="24.295" x="92.849" y="91.603" fill="#fff" rx="1.582" ry="1.582"/><circle id="circle30" cx="112.921" cy="80.092" r="4.049" fill="#fff" style="stroke-width:.578441"/><rect style="stroke-width:.578442" id="rect970" width="8.098" height="24.295" x="76.479" y="91.603" fill="#fff" rx="1.582" ry="1.582"/><rect id="rect972" width="8.098" height="24.295" x="76.479" y="91.603" fill="#fff" rx="1.582" ry="1.582" style="stroke-width:.578442"/></g></svg>