<svg xmlns="http://www.w3.org/2000/svg" xmlns:svg="http://www.w3.org/2000/svg" id="svg2" width="192" height="192" version="1.1" viewBox="0 0 192 192"><metadata id="metadata7"/><g id="layer1" transform="translate(0,-860.36216)"><path style="fill:#99bdfe;fill-opacity:1;stroke-width:2.29052" id="path2122" d="m 96.977587,868.36231 c -1.772514,-0.0115 -3.549082,0.65898 -4.90312,2.01314 l -72.679073,72.67907 c -4.328843,4.32884 -1.263471,11.72993 4.858385,11.72993 h 13.188364 c 1.265052,0 2.290515,1.02569 2.290515,2.29051 v 77.87734 c 0,3.7955 3.076619,6.8716 6.87154,6.8716 H 72.860105 V 1011.148 C 62.638229,1008.2689 62.637772,999.01106 62.637794,999.01106 v -15.97545 -16.68226 c 0,-1.26597 1.02544,-2.29052 2.290515,-2.29052 h 2.406825 c 1.26505,0 2.290513,1.02455 2.290513,2.29052 v 14.39176 c 0,1.26436 1.025464,2.2905 2.290515,2.2905 h 2.411292 c 1.265051,0 2.290513,-1.02614 2.290513,-2.2905 v -21.37964 c 0,-1.26505 1.025463,-2.29051 2.290513,-2.29051 h 1.409193 c 1.264868,0 2.290514,1.02546 2.290514,2.29051 v 21.37964 c 0,1.26436 1.025486,2.2905 2.290514,2.2905 h 2.406849 c 1.26505,0 2.290513,-1.02614 2.290513,-2.2905 v -14.39176 c 0,-1.26597 1.025463,-2.29052 2.290514,-2.29052 h 2.411292 c 1.26505,0 2.290515,1.02455 2.290515,2.29052 v 16.68226 15.97545 c 0,0 -4.37e-4,9.25784 -10.222312,12.13694 v 30.6759 h 30.917468 v -25.9381 c -5.25672,-6.709 -8.83547,-13.8027 -8.83547,-30.92203 -2e-5,-8.68792 5.51652,-16.66188 10.83967,-22.33251 3.78393,-4.0297 9.77495,-1.07595 9.77495,4.45127 v 74.74137 h 18.3241 c 3.79537,0 6.87155,-3.0761 6.87155,-6.8716 v -77.87734 c 0,-1.26482 1.02613,-2.29051 2.29051,-2.29051 h 11.19757 c 6.07902,0 9.16304,-7.31328 4.92101,-11.66731 l -19.37094,-19.88092 c 0.6024,-0.7758 0.96181,-1.75058 0.96185,-2.80948 v -25.19565 c 0,-2.52987 -2.05,-4.58103 -4.58102,-4.58103 h -4.58103 c -2.53104,0 -4.58103,2.05116 -4.58103,4.58103 v 14.88834 l -38.66138,-39.68135 c -1.33639,-1.37155 -3.103779,-2.06427 -4.876293,-2.07577 z"/><rect id="rect2409" width="1087.346" height="1222.296" x="-1620.038" y="639.212" style="fill:#fff;fill-opacity:1;stroke-width:1.148;stop-color:#000"/></g><style id="style853" type="text/css"/><style id="style853-5" type="text/css"/></svg>