<svg xmlns="http://www.w3.org/2000/svg" xmlns:svg="http://www.w3.org/2000/svg" id="svg2" width="192" height="192" version="1.1" viewBox="0 0 192 192"><metadata id="metadata7"/><g id="layer1" transform="translate(0,-860.36216)"><rect id="rect1483" width="154" height="154" x="19" y="879.362" rx="10.065" style="fill:#fefefe;fill-opacity:1;fill-rule:evenodd;stroke:none;stroke-width:.99999994;stroke-opacity:1"/><g id="g1476" transform="matrix(0.16175397,0,0,0.16175397,90.095106,869.72854)" style="stroke-width:6.18222809"><path id="path1425" d="M 199.22718,383.74892 H 47.314971 V 687.42877 H 134.0675 v -86.91681 h 65.15968 c 59.83703,0 108.56222,-48.53463 108.56222,-108.39794 0,-59.97503 -48.72519,-108.3651 -108.56222,-108.3651 m 0,130.06966 H 134.0675 v -43.37627 h 65.15968 c 11.89381,0 21.75713,9.61362 21.75713,21.67171 0,11.92666 -9.86332,21.70456 -21.75713,21.70456" style="fill:#ff847f;fill-opacity:1;stroke-width:6.18222809"/><path id="path1427" d="m -234.7786,383.77521 v 86.69339 h 64.9954 v 216.93389 h 87.00223 l 16.38192,-54.10041 h 97.502956 l 16.211065,54.10041 V 383.77521 m -87.94848,162.66263 22.953081,-75.96924 22.788803,75.96924 z" style="fill:#98db9a;fill-opacity:1;stroke-width:6.18222809"/><polyline id="polyline1429" points="16.083 53.875 29.327 53.875 29.327 20.858 39.23 20.858 39.23 7.661 29.327 7.661" transform="matrix(6.5711656,0,0,6.5711656,-275.46726,333.40724)" style="clip-rule:evenodd;fill:#73a474;fill-opacity:1;fill-rule:evenodd;stroke-width:.94081151"/><polyline id="polyline1431" points="49.121 53.875 62.323 53.875 49.121 7.661" transform="matrix(6.5711656,0,0,6.5711656,-275.46726,333.40724)" style="clip-rule:evenodd;fill:#bb6763;fill-opacity:1;fill-rule:evenodd;stroke-width:.94081151"/></g></g></svg>