<svg xmlns="http://www.w3.org/2000/svg" xmlns:svg="http://www.w3.org/2000/svg" id="svg2" width="192" height="192" version="1.1" viewBox="0 0 192 192"><metadata id="metadata7"/><g id="layer1" transform="translate(0,-860.36216)"><g id="g998" transform="translate(-788.31659,586.62873)"><rect id="rect921" width="153" height="153" x="807.817" y="293.234" rx="10" style="fill:#fefefe;fill-opacity:1;fill-rule:evenodd;stroke:none;stroke-opacity:1"/><path style="fill:#9abefe;fill-opacity:1;fill-rule:evenodd;stroke:none;stroke-opacity:1" id="rect923" d="m 817.81641,-567.12891 c -5.54,0 -10,4.46 -10,10 v 41.24805 h 153 v -41.24805 c 0,-5.54 -4.46,-10 -10,-10 z" transform="translate(0,860.36216)"/><path style="fill:#9abefe;fill-opacity:1;stroke-width:1" id="path925" d="m 849.18623,395.8105 c -0.88468,0.85614 -1.36982,2.02619 -1.36982,3.25332 0,1.22713 0.45661,2.39719 1.31274,3.28186 l 21.00391,21.37491 c 0.77052,0.79907 1.79789,1.25567 2.88233,1.36982 0.14269,0 0.28538,0.0285 0.39953,0.0285 1.25567,0 2.42572,-0.48514 3.28186,-1.39835 l 42.8069,-43.83421 c 0.85611,-0.88468 1.31273,-2.05474 1.31273,-3.28187 -0.0286,-1.22712 -0.51367,-2.36865 -1.39835,-3.25332 l -6.56373,-6.44956 c -1.82644,-1.76936 -4.73729,-1.74081 -6.50665,0.0856 l -32.9613,33.73184 -11.10124,-11.30102 c -1.76936,-1.79789 -4.70876,-1.82643 -6.50665,-0.0571 z" class="st1"/><g id="g965" transform="translate(0,7.7604079)"><ellipse id="path929" cx="853.738" cy="316.484" rx="9.193" ry="9.192" style="fill:#738dbe;fill-opacity:1;stroke-width:1.01801;stroke-linecap:round;stroke-linejoin:round;paint-order:markers fill stroke"/><circle id="circle931" cx="914.895" cy="316.484" r="9.192" style="fill:#738dbe;fill-opacity:1;stroke-width:1.018;stroke-linecap:round;stroke-linejoin:round;paint-order:markers fill stroke"/><rect id="rect927" width="62.772" height="8.667" x="852.93" y="312.389" rx="2.504" ry="2.504" style="fill:#fefefe;fill-opacity:1;stroke-width:.699593;stroke-linecap:round;stroke-linejoin:round;paint-order:markers fill stroke"/></g></g></g><style id="style853" type="text/css"/><style id="style853-6" type="text/css">.st1{fill:#fff}</style></svg>