<svg xmlns="http://www.w3.org/2000/svg" xmlns:svg="http://www.w3.org/2000/svg" id="svg2" width="192" height="192" version="1.1" viewBox="0 0 192 192"><metadata id="metadata7"/><g id="layer1" transform="translate(0,-860.36216)"><rect id="rect1058" width="152" height="152" x="20" y="880.362" rx="9.935" ry="9.935" style="fill:#70a270;fill-opacity:1;fill-rule:evenodd;stroke:none;stroke-width:.993067;stroke-miterlimit:4;stroke-dasharray:none;stroke-opacity:1"/><path style="fill:#97db99;fill-opacity:1;fill-rule:evenodd;stroke:none;stroke-width:.993067;stroke-miterlimit:4;stroke-dasharray:none;stroke-opacity:1" id="path1060" d="m 29.9349,880.36224 h 132.1307 c 5.5038,0 9.9346,4.4309 9.9346,9.9346 v 17.4885 l -65.2993,64.3653 -41.4281,-39.7939 -45.2726,43.602 v -85.6619 c 0,-5.5037 4.4308,-9.9346 9.9347,-9.9346 z"/><path style="fill:#fff;fill-opacity:1;stroke-width:9.64457;stroke-linecap:square;stroke-linejoin:round;stroke-miterlimit:4;stroke-dasharray:none;stop-color:#000" id="path1062" d="m 170.7517,906.49694 c -0.1121,-0.01 -0.2296,0 -0.3476,0.025 l -31.5879,6.377 c -0.6581,0.1328 -0.7878,1.0201 -0.1934,1.332 l 12.2735,6.5039 -42.5684,42.5508 c -0.7802,0.7803 -2.0449,0.7772 -2.8223,-0.01 l -38.1367,-38.4141 c -0.7774,-0.783 -2.044,-0.7861 -2.8242,-0.01 l -44.5449,44.5449 v 14.629 l 44.5195,-44.5196 c 0.7802,-0.7802 2.0468,-0.7771 2.8242,0.01 l 38.1368,38.4141 c 0.7774,0.783 2.042,0.7861 2.8222,0.01 l 49.7715,-49.752 6.1914,11.6875 c 0.3143,0.5934 1.1993,0.4649 1.332,-0.1933 l 6.375,-31.5938 c 0.021,-0.1018 0.03,-0.2027 0.027,-0.3008 -0.015,-0.6866 -0.561,-1.2521 -1.2481,-1.291 z"/></g><style id="style853" type="text/css"/><style id="style853-9" type="text/css"/><style id="style853-3" type="text/css"/></svg>