<svg xmlns="http://www.w3.org/2000/svg" xmlns:svg="http://www.w3.org/2000/svg" id="svg4806" width="192" height="192" version="1.1" viewBox="0 0 192 192"><metadata id="metadata4824"/><flowRoot id="flowRoot5441" xml:space="preserve" style="fill:#000;stroke:none;stroke-opacity:1;stroke-width:1px;stroke-linejoin:miter;stroke-linecap:butt;fill-opacity:1;font-family:sans-serif;font-style:normal;font-weight:400;font-size:40px;line-height:125%;letter-spacing:0;word-spacing:0"><flowRegion id="flowRegion5443"><rect id="rect5445" width="43.119" height="47.593" x="73.22" y="72.407"/></flowRegion><flowPara id="flowPara5447"/></flowRoot><flowRoot id="flowRoot5453" xml:space="preserve" style="fill:#000;stroke:none;stroke-opacity:1;stroke-width:1px;stroke-linejoin:miter;stroke-linecap:butt;fill-opacity:1;font-family:'Nixie One';font-style:normal;font-weight:400;font-size:40px;line-height:125%;letter-spacing:0;word-spacing:0;-inkscape-font-specification:'Nixie One';font-stretch:normal;font-variant:normal"><flowRegion id="flowRegion5455"><rect id="rect5457" width="46.373" height="42.712" x="70.78" y="75.254" style="-inkscape-font-specification:'Nixie One';font-family:'Nixie One';font-weight:400;font-style:normal;font-stretch:normal;font-variant:normal"/></flowRegion><flowPara id="flowPara5459"/></flowRoot><g id="g4258" transform="translate(-5.7220459e-6,-860.36225)"><rect id="rect4609" width="153" height="153" x="19.5" y="879.862" rx="10" style="fill:#98db9a;fill-opacity:1;fill-rule:evenodd;stroke:none"/><path id="path4434" d="m 74.281543,980.22558 c -0.149607,-0.15025 -0.272008,-9.41788 -0.272008,-20.59616 l 0,-20.32408 -8.262212,-0.10986 -8.262195,-0.10986 0,-3.46796 0,-3.46814 30.600768,0 c 33.162284,0 32.777814,-0.0226 37.347854,2.26222 2.52648,1.26343 5.19826,3.93247 6.5094,6.50246 1.89136,3.70741 2.55429,7.49624 2.57134,14.69584 0.0179,7.5901 -0.5668,11.15307 -2.51321,15.31237 -2.18024,4.65918 -5.36325,7.21818 -10.6979,8.60085 -2.13063,0.55223 -5.40221,0.71299 -17.61111,0.86502 l -14.994371,0.18661 0,-19.62258 0,-19.62256 5.91616,0 5.916141,0 0,15.91241 0,15.91243 6.83417,-0.0307 c 7.58802,-0.034 8.80691,-0.29889 10.92525,-2.37015 2.73395,-2.67306 4.16349,-9.32627 3.73597,-17.38733 -0.38653,-7.28895 -1.98223,-11.18361 -5.31133,-12.96356 -1.65279,-0.88375 -2.10223,-0.91219 -16.28605,-1.02997 l -14.586372,-0.12116 0,20.62362 0,20.62378 -5.644151,0 c -3.104271,0 -5.766535,-0.1228 -5.916144,-0.27192 z" style="fill:#fefefe;fill-opacity:1;stroke:none;stroke-width:1px;stroke-linecap:butt;stroke-linejoin:miter;stroke-opacity:1"/></g></svg>