<svg xmlns="http://www.w3.org/2000/svg" xmlns:svg="http://www.w3.org/2000/svg" id="svg2" width="192" height="192" version="1.1" viewBox="0 0 192 192"><metadata id="metadata7"/><g id="layer1" transform="translate(0,-860.36216)"><path id="path1153" d="M 39.985846,877.45355 H 152.01414 c 5.80032,0 10.46994,4.66959 10.46994,10.46994 v 135.96481 c 0,5.1201 -3.63862,9.3591 -8.48168,10.283 -1.0834,0.2066 -2.67783,-0.3843 -3.52846,-1.089 l -10.15305,-8.4104 a 3.6215752,3.6215752 1.0050106e-5 0 0 -4.62058,0 l -9.38297,7.7725 a 3.6215752,3.6215752 1.0050103e-5 0 1 -4.62058,0 l -9.38296,-7.7725 a 3.6215708,3.6215708 179.99998 0 0 -4.62058,0 l -9.382933,7.7725 a 3.6215701,3.6215701 179.99998 0 1 -4.620587,0 l -9.382946,-7.7725 a 3.6215732,3.6215732 6.0300667e-6 0 0 -4.620588,0 l -9.382952,7.7725 a 3.6215732,3.6215732 6.0300667e-6 0 1 -4.620588,0 l -9.382946,-7.7725 a 3.6215732,3.6215732 6.0300667e-6 0 0 -4.620588,0 l -11.693246,9.6863 c -4.466835,3.7002 -10.469932,-4.6696 -10.469932,-10.4699 V 887.92349 c 0,-5.80035 4.669593,-10.46994 10.469932,-10.46994 z" style="fill:#ffb1ad;fill-opacity:1;fill-rule:evenodd;stroke:none;stroke-width:1.04701;stroke-miterlimit:4;stroke-dasharray:none;stroke-opacity:1"/><circle style="fill:#fefefe;fill-opacity:1;stroke-width:.11883;stroke-linecap:round;stroke-linejoin:round;stop-color:#000" id="circle1157" cx="62.89" cy="958.78" r="8.488"/><circle style="fill:#fefefe;fill-opacity:1;stroke-width:.11883;stroke-linecap:round;stroke-linejoin:round;stop-color:#000" id="circle1159" cx="129.11" cy="958.78" r="8.488"/><path id="path1161" d="m 74.774164,992.39175 c 3.052749,3.15601 9.529512,8.59195 18.233231,9.65075 1.643696,0.2 4.341537,0.2 5.985261,0 8.703714,-1.0588 15.180484,-6.49479 18.233214,-9.65079 1.15002,-1.18893 0.6531,-1.91065 -0.92798,-1.41549 -6.16391,1.93041 -11.12347,3.93083 -17.304419,4.43587 -1.649108,0.13475 -4.339294,0.13477 -5.990173,-2.8e-4 -6.1805,-0.50557 -11.140031,-2.50619 -17.304274,-4.43655 -1.579385,-0.4946 -2.0749,0.22754 -0.92486,1.41649 z" style="fill:#fefefe;fill-opacity:1;stroke:none;stroke-width:.565857px;stroke-linecap:butt;stroke-linejoin:miter;stroke-opacity:1"/></g><style id="style853" type="text/css"/></svg>