<svg xmlns="http://www.w3.org/2000/svg" xmlns:svg="http://www.w3.org/2000/svg" id="svg2" width="192" height="192" version="1.1" viewBox="0 0 192 192"><metadata id="metadata7"/><g id="layer1" transform="translate(0,-860.36216)"><circle id="circle1049" cx="96" cy="956.362" r="88" style="fill:#97db99;fill-opacity:1;fill-rule:evenodd;stroke:none;stroke-opacity:1"/><path id="path1132" d="m 126.33926,931.57365 5.25875,7.06174 a 1.6348484,1.6348484 0 0 1 -0.61511,2.45568 l -29.8126,14.02947 a 0.35338502,0.35338502 0 0 1 -0.4014,-0.56858 l 22.9676,-23.16223 a 1.7212613,1.7212613 0 0 1 2.60276,0.18392 z" style="fill:#fff;fill-opacity:1;stroke-width:2.18509"/><path id="path1130" d="m 125.9306,959.25954 -1.35324,8.72082 a 1.4967155,1.4967155 0 0 1 -2.11631,1.12476 l -18.66864,-8.78525 a 0.5424323,0.5424323 0 0 1 0.18229,-1.03104 l 20.27064,-1.82619 a 1.5634635,1.5634635 0 0 1 1.68526,1.7969 z" style="fill:#fff;fill-opacity:1;stroke-width:2.18509"/><path id="path1128" d="m 128.1174,996.04507 -7.25639,5.29113 a 1.7180728,1.7180728 0 0 1 -2.53722,-0.5969 L 99.189316,963.8656 a 0.28829667,0.28829667 0 0 1 0.463869,-0.33245 l 28.695175,29.89081 a 1.7467797,1.7467797 0 0 1 -0.23096,2.62111 z" style="fill:#fff;fill-opacity:1;stroke-width:2.18509"/><path id="path1126" d="m 95.631352,985.8531 -8.711038,-1.20153 a 1.4592622,1.4592622 0 0 1 -1.116378,-2.0766 l 8.540195,-17.80722 a 0.5649361,0.5649361 0 0 1 1.071303,0.18599 l 1.990721,19.18331 a 1.5688236,1.5688236 0 0 1 -1.774803,1.71605 z" style="fill:#fff;fill-opacity:1;stroke-width:2.18509"/><path id="path1124" d="m 54.442713,992.62345 -5.434018,-7.09441 a 1.6815271,1.6815271 0 0 1 0.556863,-2.51319 l 41.248313,-21.5296 a 0.25937769,0.25937769 0 0 1 0.29472,0.42166 l -33.971429,30.95621 a 1.8361794,1.8361794 0 0 1 -2.694449,-0.24067 z" style="fill:#fff;fill-opacity:1;stroke-width:2.18509"/><path id="path1122" d="m 72.785655,958.8022 1.363389,-8.93777 a 1.3446177,1.3446177 0 0 1 2.018682,-0.95165 l 12.298476,7.34493 a 0.76813703,0.76813703 0 0 1 -0.245002,1.41305 l -13.775053,2.721 a 1.4043984,1.4043984 0 0 1 -1.660492,-1.58956 z" style="fill:#fff;fill-opacity:1;stroke-width:2.18509"/><path id="path1120" d="m 72.133493,931.63184 7.256402,-5.29114 a 1.6167661,1.6167661 0 0 1 2.429529,0.64873 l 11.702021,26.2816 a 0.40506613,0.40506613 0 0 1 -0.646813,0.46053 L 71.977805,934.17672 a 1.6544908,1.6544908 0 0 1 0.155688,-2.54488 z" style="fill:#fff;fill-opacity:1;stroke-width:2.18509"/><path id="path979" d="m 101.1185,902.96261 8.72083,1.35324 a 1.72994,1.72994 0 0 1 1.38818,2.21823 l -13.682271,44.46737 a 0.25643966,0.25643966 0 0 1 -0.501298,-0.0865 l 2.011342,-46.26085 a 1.7903802,1.7903802 0 0 1 2.063217,-1.69144 z" style="fill:#fff;fill-opacity:1;stroke-width:2.18509"/></g><style id="style853" type="text/css"/><style id="style853-9" type="text/css"/><style id="style853-3" type="text/css"/><style id="style909" type="text/css"/></svg>