<svg xmlns="http://www.w3.org/2000/svg" xmlns:svg="http://www.w3.org/2000/svg" id="svg2" width="192" height="192" version="1.1" viewBox="0 0 192 192"><metadata id="metadata7"/><g id="layer1" transform="translate(0,-860.36216)"><path style="opacity:1;fill:#96dfd3;fill-opacity:1;stroke-width:.993;stroke-linecap:round;stop-color:#000" id="path983" d="m 38.839909,884.98695 -11.622496,23.73257 a 3.2120617,3.2120617 0 0 0 2.884711,4.62478 h 46.223273 l -27.543138,56.23707 a 3.2119445,3.2119445 0 0 0 2.884558,4.62471 h 33.447954 l -15.47449,56.84492 a 1.0384724,1.0384724 0 0 0 1.81999,0.9125 l 60.326779,-77.12856 a 2.509899,2.509899 0 0 0 -1.97699,-4.05622 H 95.023399 L 113.35654,913.3443 h 32.38907 a 8.2558616,8.2558616 0 0 0 7.41449,-4.62478 l 11.62249,-23.73257 a 3.2120619,3.2120619 0 0 0 -2.88471,-4.62478 H 46.25439 a 8.2558621,8.2558621 0 0 0 -7.414481,4.62478 z"/></g><style id="style853" type="text/css"/><style id="style853-9" type="text/css"/><style id="style853-3" type="text/css"/></svg>