<svg xmlns="http://www.w3.org/2000/svg" xmlns:svg="http://www.w3.org/2000/svg" id="svg2" width="192" height="192" version="1.1" viewBox="0 0 192 192"><defs id="defs4"><clipPath id="clip0"><rect id="rect860" width="192" height="192" fill="#fff"/></clipPath></defs><metadata id="metadata7"/><g id="layer1" transform="translate(0,-860.36216)"><circle style="fill:#575a5c;fill-opacity:1;fill-rule:evenodd;stroke:none;stroke-opacity:1" id="circle1036" cx="96" cy="956.362" r="88"/><g style="fill:none" id="g877" transform="matrix(0.38292248,0,0,0.38292248,58.090674,919.21868)"><g id="g858" clip-path="url(#clip0)"><path id="path852" fill="#96dfd3" fill-rule="evenodd" d="m 98,12 h 30 v 0.1655 c 0,0 3.182,21.4284 13.813,29.6315 C 152.445,50 167,50 167,50 v 30 c 0,0 -13.321,-0.1887 -21.633,-2.8603 C 137.056,74.4681 128,67.5 128,67.5 V 123 c 0,28.719 -23.281,52 -52,52 -28.7188,0 -52,-23.281 -52,-52 0,-28.7188 23.2812,-52 52,-52 2.7205,0 5.3922,0.2089 8,0.6116 V 102.5 c -2.4795,-0.969 -5.1777,-1.5 -8,-1.5 -12.1503,0 -22,9.85 -22,22 0,12.15 9.8497,22 22,22 11.4761,0 20.8999,-8.787 21.9103,-20 H 98 v -2 -47.1305 z" clip-rule="evenodd"/><path id="path854" fill="#ff837d" fill-rule="evenodd" d="m 105,19 h 30 v 0.1655 c 0,0 3.182,21.4284 13.813,29.6315 C 159.445,57 174,57 174,57 v 30 c 0,0 -13.321,-0.1887 -21.633,-2.8603 C 144.056,81.4681 135,74.5 135,74.5 V 130 c 0,28.719 -23.281,52 -52,52 -28.7188,0 -52,-23.281 -52,-52 0,-28.719 23.2812,-52 52,-52 2.7205,0 5.3922,0.2089 8,0.6116 V 109.5 c -2.4795,-0.969 -5.1777,-1.5 -8,-1.5 -12.1503,0 -22,9.85 -22,22 0,12.15 9.8497,22 22,22 11.4761,0 20.9,-8.787 21.91,-20 H 105 v -2 -47.1305 z" clip-rule="evenodd"/><path id="path856" fill="#fff" fill-rule="evenodd" d="M 84,78.0094 V 102.5 c -2.4795,-0.969 -5.1777,-1.5 -8,-1.5 -12.1503,0 -22,9.85 -22,22 0,7.868 4.13,14.771 10.3404,18.66 C 68.2291,147.87 75.1323,152 83,152 c 11.4761,0 20.9,-8.787 21.91,-20 H 105 V 130 82.8695 19 h 24.467 c 1.832,7.0013 5.581,17.5769 12.346,22.797 0.603,0.4653 1.219,0.9042 1.844,1.3183 1.483,2.1996 3.192,4.1663 5.156,5.6817 5.908,4.5581 13.027,6.5834 18.187,7.4834 V 80 c 0,0 -13.321,-0.1887 -21.633,-2.8603 C 137.056,74.4681 128,67.5 128,67.5 V 123 c 0,28.719 -23.281,52 -52,52 C 63.423,175 51.8889,170.535 42.8964,163.104 35.465,154.111 31,142.577 31,130 31,101.281 54.2812,78 83,78 c 0.3341,0 0.6674,0.0032 1,0.0094 z" clip-rule="evenodd"/></g></g><path id="path927" d="m 78.231647,913.15796 -11.972603,15.69946 a 0.98999101,0.98999101 63.664797 0 0 0.787202,1.59032 l 4.758672,0 -2.065485,10.67199 a 0.46865066,0.46865066 24.14166 0 0 0.832765,0.37324 L 82.54479,925.79351 a 0.98999147,0.98999147 63.664786 0 0 -0.787202,-1.59032 H 76.998916 L 79.06441,913.5312 a 0.46865017,0.46865017 24.141694 0 0 -0.832763,-0.37324 z" style="fill:#ff837d;fill-opacity:1;stroke:none;stroke-width:1.14162;paint-order:markers fill stroke"/><path id="path979" d="M 76.705824,912.07953 64.73322,927.77899 a 0.98999097,0.98999097 63.664798 0 0 0.787202,1.59032 h 4.758672 l -2.065485,10.67199 a 0.46865066,0.46865066 24.14166 0 0 0.832765,0.37324 l 11.972592,-15.69946 a 0.98999147,0.98999147 63.664786 0 0 -0.787202,-1.59032 h -4.758672 l 2.065495,-10.67199 a 0.46865012,0.46865012 24.141697 0 0 -0.832763,-0.37324 z" style="fill:#96dfd3;fill-opacity:1;stroke:none;stroke-width:1.14162;paint-order:markers fill stroke"/><path id="path987" d="m 77.120396,914.61593 -10.68448,14.00939 a 1.1348913,1.1348913 0 0 0 -0.228379,0.74335 h 4.070491 l -0.208226,1.07919 h 1.735219 l -1.6479,8.50818 10.684492,-14.00715 a 1.1348918,1.1348918 0 0 0 0.230614,-0.74558 h -4.072738 l 0.208226,-1.0792 h -1.735219 z" style="fill:#fff;fill-opacity:1;stroke:none;stroke-width:1.14162;paint-order:markers fill stroke"/></g><style id="style853" type="text/css"/></svg>