<svg xmlns="http://www.w3.org/2000/svg" xmlns:svg="http://www.w3.org/2000/svg" id="svg2" width="192" height="192" version="1.1" viewBox="0 0 192 192"><metadata id="metadata7"/><g id="layer1" transform="translate(0,-860.36216)"><rect id="rect1636" width="152" height="152" x="20" y="880.362" rx="9.935" ry="9.935" style="fill:#99bdfe;fill-opacity:1;fill-rule:evenodd;stroke:none;stroke-width:.667545;stroke-opacity:1"/><rect id="rect1638" width="91.999" height="12.603" x="50" y="914.839" rx="6.302" ry="6.302" style="fill:#fff;fill-opacity:1;stroke:none;stroke-width:12.4742;stroke-linecap:round;stroke-linejoin:round;stroke-miterlimit:4;stroke-dasharray:none;stroke-opacity:1;stop-color:#000"/><rect id="rect1640" width="91.999" height="12.603" x="50" y="985.789" rx="6.302" ry="6.302" style="fill:#fff;fill-opacity:1;stroke:none;stroke-width:12.4742;stroke-linecap:round;stroke-linejoin:round;stroke-miterlimit:4;stroke-dasharray:none;stroke-opacity:1;stop-color:#000"/><rect id="rect1642" width="91.999" height="12.603" x="50" y="950.314" rx="6.302" ry="6.302" style="fill:#fff;fill-opacity:1;stroke:none;stroke-width:12.4742;stroke-linecap:round;stroke-linejoin:round;stroke-miterlimit:4;stroke-dasharray:none;stroke-opacity:1;stop-color:#000"/><rect id="rect1013" width="92.032" height="12.608" x="50.011" y="914.851" rx="6.304" ry="6.304" style="fill:#fff;fill-opacity:1;stroke:none;stroke-width:12.4786;stroke-linecap:round;stroke-linejoin:round;stroke-miterlimit:4;stroke-dasharray:none;stroke-opacity:1;stop-color:#000"/><rect id="rect1015" width="92.032" height="12.608" x="50.011" y="985.827" rx="6.304" ry="6.304" style="fill:#fff;fill-opacity:1;stroke:none;stroke-width:12.4786;stroke-linecap:round;stroke-linejoin:round;stroke-miterlimit:4;stroke-dasharray:none;stroke-opacity:1;stop-color:#000"/><rect id="rect1017" width="92.032" height="12.608" x="50.011" y="950.339" rx="6.304" ry="6.304" style="fill:#fff;fill-opacity:1;stroke:none;stroke-width:12.4786;stroke-linecap:round;stroke-linejoin:round;stroke-miterlimit:4;stroke-dasharray:none;stroke-opacity:1;stop-color:#000"/><g style="stroke-width:1.12376" id="g1023" transform="matrix(0.96570863,0,0,0.96570863,-146.91086,471.56541)"><circle id="circle1019" cx="294.786" cy="545.261" r="51.337" style="fill:#708cbd;fill-opacity:1;stroke:none;stroke-width:18.0215;stroke-linecap:round;stroke-linejoin:round;stroke-miterlimit:4;stroke-dasharray:none;stroke-opacity:1;stop-color:#000"/><path style="color:#000;font-style:normal;font-variant:normal;font-weight:400;font-stretch:normal;font-size:medium;line-height:normal;font-family:sans-serif;font-variant-ligatures:normal;font-variant-position:normal;font-variant-caps:normal;font-variant-numeric:normal;font-variant-alternates:normal;font-variant-east-asian:normal;font-feature-settings:normal;font-variation-settings:normal;text-indent:0;text-align:start;text-decoration:none;text-decoration-line:none;text-decoration-style:solid;text-decoration-color:#000;letter-spacing:normal;word-spacing:normal;text-transform:none;writing-mode:lr-tb;direction:ltr;text-orientation:mixed;dominant-baseline:auto;baseline-shift:baseline;text-anchor:start;white-space:normal;shape-padding:0;shape-margin:0;inline-size:0;clip-rule:nonzero;display:inline;overflow:visible;visibility:visible;isolation:auto;mix-blend-mode:normal;color-interpolation:sRGB;color-interpolation-filters:linearRGB;solid-color:#000;solid-opacity:1;vector-effect:none;fill:#fff;fill-opacity:1;fill-rule:nonzero;stroke:none;stroke-width:10.6757;stroke-linecap:round;stroke-linejoin:round;stroke-miterlimit:4;stroke-dasharray:none;stroke-dashoffset:0;stroke-opacity:1;color-rendering:auto;image-rendering:auto;shape-rendering:auto;text-rendering:auto;enable-background:accumulate;stop-color:#000" id="path1021" d="m 295.94203,510.55493 c -3.66156,-0.10676 -7.38051,0.36848 -11.02084,1.47438 -14.56128,4.42386 -24.62488,17.88005 -24.98787,33.20813 -0.36296,15.32809 9.04942,29.25296 23.38062,34.38356 a 6.2143884,6.2143884 0 0 0 7.94429,-3.75622 6.2143884,6.2143884 0 0 0 -3.75622,-7.94431 c -9.24167,-3.30841 -15.38127,-12.30407 -15.14246,-22.38917 0.23883,-10.08497 6.79099,-18.75905 16.17478,-21.60982 9.38379,-2.8509 19.42884,0.71968 25.04154,8.98429 5.19035,7.64252 5.34979,17.63288 0.6107,25.40438 l -4.64801,-4.72723 a 1.0707669,1.0707669 0 0 0 -1.83469,0.75125 v 17.32721 a 2.6165846,2.6165846 0 0 0 2.61659,2.61658 h 16.94648 a 1.096929,1.096929 0 0 0 0.78191,-1.86533 l -4.97509,-5.06197 c 8.98044,-12.2041 9.31318,-28.87026 0.78446,-41.42841 -6.44355,-9.488 -16.93154,-15.04731 -27.91619,-15.36732 z"/></g></g><style id="style853" type="text/css"/><style id="style853-9" type="text/css"/><style id="style853-3" type="text/css"/></svg>