<svg xmlns="http://www.w3.org/2000/svg" xmlns:svg="http://www.w3.org/2000/svg" xmlns:xlink="http://www.w3.org/1999/xlink" id="svg2" width="192" height="192" version="1.1" viewBox="0 0 192 192"><defs id="defs4"><linearGradient id="linearGradient2917"><stop style="stop-color:#f7c18c;stop-opacity:1" id="stop2913" offset="0"/><stop style="stop-color:#ff847f;stop-opacity:1" id="stop2915" offset="1"/></linearGradient><linearGradient id="linearGradient2911"><stop id="stop2907" offset="0" style="stop-color:#f7c18c;stop-opacity:1"/><stop id="stop2909" offset="1" style="stop-color:#ff847f;stop-opacity:1"/></linearGradient><linearGradient id="linearGradient892" x1="-722.265" x2="-223.854" y1="-66.067" y2="-66.067" gradientTransform="matrix(0.11167311,0,0,0.11175701,149.1019,945.64226)" gradientUnits="userSpaceOnUse" xlink:href="#linearGradient2917"/><linearGradient id="linearGradient2819" x1="-722.265" x2="-223.854" y1="-66.067" y2="-66.067" gradientTransform="matrix(0.11167311,0,0,0.11175701,149.1019,945.64226)" gradientUnits="userSpaceOnUse" xlink:href="#linearGradient2911"/></defs><metadata id="metadata7"/><g id="layer1" transform="translate(0,-860.36216)"><rect id="rect4188" width="153" height="153" x="19.5" y="879.862" rx="10" ry="10" style="fill:#fefefe;fill-opacity:1;fill-rule:evenodd;stroke:none;stroke-opacity:1"/><path id="path860" d="m 95.160759,994.27466 c -1.469093,-0.51374 -2.087673,-2.30593 -1.263827,-3.66164 0.427162,-0.70294 0.864863,-0.91564 2.98573,-1.45086 1.07157,-0.27043 1.97921,-0.52263 2.01698,-0.56042 0.0378,-0.0378 -2.28341,-0.65676 -5.158192,-1.3755 -5.342453,-1.33566 -6.663725,-1.79579 -7.72185,-2.68919 -0.914949,-0.77251 -1.321439,-2.32863 -0.900286,-3.44654 0.38372,-1.01857 1.714718,-1.93065 3.436405,-2.35486 0.520821,-0.12831 3.586482,-0.56524 6.812585,-0.97093 3.226098,-0.40569 5.888556,-0.76054 5.916546,-0.78857 0.0281,-0.0281 -3.616578,-0.8741 -8.099097,-1.88016 -11.40006,-2.55864 -12.845311,-2.91602 -13.854881,-3.42603 -0.484728,-0.24488 -1.05602,-0.653 -1.269527,-0.90693 -0.964834,-1.14749 -0.811629,-2.80111 0.350162,-3.77943 0.894619,-0.75333 1.62227,-0.86167 6.692597,-0.99637 22.676646,-0.60248 38.546696,-4.42485 41.424296,-9.97724 0.67595,-1.30426 0.49942,-4.92713 -0.41751,-8.56803 -1.36579,-5.42331 -4.45231,-10.74052 -8.69135,-14.97281 -4.57906,-4.57175 -9.82065,-7.45735 -15.89253,-8.74916 -1.763188,-0.37512 -2.160798,-0.40457 -5.547318,-0.41082 -3.814565,-0.007 -4.833414,0.10245 -7.668213,0.82437 -5.555816,1.41477 -10.755891,4.47461 -14.819352,8.72005 -2.313787,2.4174 -4.012358,4.88833 -5.52134,8.03196 -1.92079,4.00153 -2.595764,6.80493 -3.090062,12.83416 -0.139424,1.70067 -0.39261,2.22845 -1.268574,2.64443 -1.540396,0.73153 -3.219391,-0.0993 -3.576422,-1.76973 -0.124749,-0.58366 0.146884,-4.37849 0.442628,-6.18389 1.161536,-7.09051 4.501913,-13.78918 9.476101,-19.00298 5.819073,-6.09941 13.145147,-9.80018 21.707214,-10.96542 2.083742,-0.28359 6.83602,-0.24516 9.000848,0.0727 7.79738,1.14516 14.90793,4.86692 20.7129,10.84138 2.98223,3.06932 5.11874,6.08968 6.99595,9.89016 2.95793,5.98845 4.39161,13.87914 3.20826,17.65761 -2.18968,6.99167 -13.55083,11.52158 -33.417808,13.32436 -1.2976,0.11775 -2.38494,0.23978 -2.416308,0.27117 -0.03138,0.0314 3.040398,0.7488 6.826176,1.59423 3.78577,0.84542 7.35226,1.7044 7.9255,1.90883 1.25294,0.44681 2.05106,0.96229 2.65711,1.71612 0.95477,1.18761 0.62021,3.19697 -0.69049,4.14715 -1.14505,0.83008 -2.44635,1.1023 -9.1968,1.9238 -3.475718,0.42299 -6.453488,0.82061 -6.617278,0.88359 -0.21107,0.0812 0.46102,0.29675 2.30791,0.74029 5.663888,1.36022 7.378318,2.1484 8.206348,3.77269 0.99853,1.95874 0.0665,3.96106 -2.30203,4.94543 -0.92773,0.38557 -8.501818,2.33261 -8.989687,2.31092 -0.145655,-0.007 -0.465833,-0.082 -0.711514,-0.16796 z" style="fill:url(#linearGradient2819);fill-opacity:1;stroke:url(#linearGradient892);stroke-width:1"/><path id="path856" style="fill:#000;stroke-width:1"/><path id="path854" style="fill:#000;stroke-width:1"/></g></svg>