<svg xmlns="http://www.w3.org/2000/svg" xmlns:svg="http://www.w3.org/2000/svg" id="svg11" width="192" height="192" fill="none" version="1.1" viewBox="0 0 192 192"><metadata id="metadata15"/><path id="path2" fill="#96dfd3" d="M 96,8 C 47.4,8 8,47.4 8,96 c 0,48.6 39.4,88 88,88 48.6,0 88,-39.4 88,-88 C 184,47.4 144.6,8 96,8 Z m 45.3,88 c 0,23.8 -18.4,43.3 -41.7,45.1 V 141 c -0.9,0.1 -1.7,0.1 -2.6,0.2 -0.1,0 -0.1,0 -0.2,0 v -10.6 c 18.8,-0.4 33.9,-15.8 33.9,-34.7 C 130.7,77 115.6,61.6 96.8,61.2 V 50.8 c 0.9,0 1.8,0.1 2.8,0.2 v -0.1 c 23.3,1.8 41.7,21.3 41.7,45.1 z m -42.2,18.3 c -0.4,0.1 -0.7,0.1 -1.1,0.2 -0.1,0 -0.3,0 -0.5,0 -0.3,0 -0.6,0 -0.9,0 V 77.4 c 0.2,0 0.5,0 0.7,0 0.2,0 0.5,0 0.7,0.1 0.3,0 0.6,0.1 0.9,0.1 0.3,0.1 0.5,0.1 0.5,0.2 v -0.2 c 8.6,1.7 15.1,9.2 15.1,18.3 0,9.1 -6.5,16.6 -15.1,18.3 V 114 c 0.1,0.2 0,0.3 -0.3,0.3 z m 0.4,53.5 c -0.5,0 -1,0 -1.4,0 -0.5,0 -0.9,0 -1.4,0 v -10.6 c 0.3,0 0.6,0 0.9,0 33.1,-0.9 59.7,-28 59.7,-61.3 0,-33.3 -26.6,-60.4 -59.7,-61.3 -0.3,0 -0.6,0 -0.9,0 V 24.1 c 0.3,0 0.6,0 1,0 0.6,0 1.2,0.1 1.8,0.1 38.1,1.8 68.4,33.3 68.4,71.8 0,38.5 -30.3,70 -68.4,71.8 z" style="fill:#96dfd3;fill-opacity:1"/></svg>