<svg xmlns="http://www.w3.org/2000/svg" xmlns:svg="http://www.w3.org/2000/svg" xmlns:xlink="http://www.w3.org/1999/xlink" id="Слой_1" x="0" y="0" enable-background="new 0 0 192 192" version="1.1" viewBox="0 0 192 192" xml:space="preserve"><metadata id="metadata23"/><image id="image2" width="180" height="180" overflow="visible" transform="matrix(1 0 0 1 -6192 -6192)" xlink:href="AF77CF0D.jpg"/><g id="g1056" transform="matrix(0.88158663,0,0,0.88158663,11.368949,11.367477)"><path style="fill:#575a5c;fill-opacity:1;stroke-width:3.96641;stroke-linecap:round" id="path1000" d="m 96.550302,7.5000039 c -31.133339,0 -56.197323,27.3112051 -56.197323,61.2358991 V 144.42763 H 152.74762 V 68.735903 c 0,-33.924694 -25.06398,-61.2358991 -56.197318,-61.2358991 z m 0,19.4431171 c 21.641638,0 39.064518,19.554595 39.064518,43.845175 V 124.98553 H 57.486739 V 70.788296 c 0,-24.29058 17.421928,-43.845175 39.063563,-43.845175 z"/><path style="fill:#fff;fill-opacity:1;stroke-width:3.92693;stroke-linecap:round" id="path1002" d="m 79.337971,80.349036 c -20.111739,1.375866 -37.275805,16.50193 -42.705262,37.666904 -0.411654,1.6047 -2.015166,2.94253 -3.655676,3.16856 -13.502255,1.8604 -24.0787236,13.74589 -25.3489577,28.53429 -0.1417482,1.65027 -0.1417872,4.34242 -2.024e-4,5.99271 1.293235,15.0737 12.2467591,27.08967 26.0468431,28.62303 1.645879,0.18288 3.036308,0.16543 3.088621,0.16543 H 155.66286 c 1.65685,0 4.34937,0.0197 5.99222,-0.18674 11.95925,-1.50274 21.43222,-11.90365 22.70044,-24.97156 0.15998,-1.64847 0.15992,-4.34226 -6.1e-4,-5.99066 -1.16125,-11.92364 -9.17782,-21.76021 -19.8862,-24.44003 -1.60624,-0.40197 -2.94015,-0.87419 -2.94004,-1.28 -1.42111,-18.07004 -12.37461,-30.085996 -26.17467,-31.619386 -1.64588,-0.182881 -4.34201,-0.182545 -5.98762,0.0025 -2.58154,0.29036 -5.11619,0.954891 -7.53651,1.975967 -1.52584,0.643715 -3.49365,0.229546 -4.56209,-1.036478 C 108.98635,87.140672 97.540142,81.191013 85.333845,80.349907 83.681243,80.236031 82.335964,80.246728 82.335643,80.246728 Z"/><path id="path1004" d="m 53.778237,179.43748 h 2.886313 c 2.487714,0 2.487714,0 2.65636,-2.48039 0.549837,-6.28825 2.80996,-23.49028 11.704486,-39.46274 11.141212,-20.00697 27.498649,-29.37891 33.604314,-32.34561 0.26379,-0.12818 0.22786,-0.70168 0.0892,-0.93917 -0.13869,-0.23749 -0.59017,-0.5752 -0.92133,-0.48577 -5.800114,1.56623 -21.816958,8.1869 -37.520464,30.84222 -12.565874,18.12868 -14.631516,35.97616 -14.955312,42.38444 -0.05314,2.48702 -0.05314,2.48702 2.456433,2.48702 z" style="fill:#99dc9b;fill-opacity:1;stroke:none;stroke-width:.496384px;stroke-linecap:butt;stroke-linejoin:miter;stroke-opacity:1"/><path style="fill:#99dc9b;fill-opacity:1;stroke:none;stroke-width:.452719px;stroke-linecap:butt;stroke-linejoin:miter;stroke-opacity:1" id="path1006" d="m 73.423002,179.48634 h 3.06493 c 2.501349,0 2.501349,0 2.831,-2.47845 0.850855,-5.21495 3.732057,-17.91571 12.793115,-30.90645 11.814953,-16.93897 24.362603,-24.79058 30.621803,-27.19776 0.27043,-0.10401 0.23359,-0.56934 0.0914,-0.76204 -0.14219,-0.1927 -0.60502,-0.46672 -0.9445,-0.39416 -5.94598,1.27084 -20.73927,8.29027 -34.695882,25.39499 -7.853888,9.89162 -13.366047,21.51256 -15.830142,33.88747 -0.447301,2.4564 -0.447301,2.4564 2.068276,2.4564 z"/><path id="path1008" d="m 95.018566,179.53718 h 2.797743 c 2.487861,1e-5 2.487861,1e-5 3.263571,-2.37283 1.60458,-4.54834 5.8017,-14.84112 13.54162,-23.82905 10.28899,-11.94802 17.45889,-16.45597 25.72296,-20.81784 0.20256,-0.10691 0.18332,-0.44684 0.0717,-0.59808 -0.11159,-0.15124 -0.47484,-0.3663 -0.74128,-0.30935 -4.66665,0.99741 -15.82272,5.13587 -29.26169,19.03112 -7.27409,7.69187 -13.266485,16.65297 -17.053597,26.55328 -0.848637,2.34276 -0.848637,2.34276 1.658973,2.34275 z" style="fill:#99dc9b;fill-opacity:1;stroke:none;stroke-width:.355313px;stroke-linecap:butt;stroke-linejoin:miter;stroke-opacity:1"/></g></svg>