<svg xmlns="http://www.w3.org/2000/svg" xmlns:svg="http://www.w3.org/2000/svg" id="svg2" width="192" height="192" version="1.1" viewBox="0 0 192 192"><metadata id="metadata20"/><style id="style3" type="text/css">.st0{fill:#abb4bb}</style><g id="g13"><rect id="rect10" width="127" height="175" x="32.5" y="-183.5" rx="10" transform="rotate(90)" style="fill:#fff;fill-rule:evenodd;stroke:none;fill-opacity:1"/><path style="fill:#9abefe;fill-opacity:1;stroke-width:1.19823921" id="path5" d="M 74.951902,91.339514 43.614831,116.07933 c -4.94796,-9.89594 -0.659725,-21.771034 9.236196,-26.389133 2.638905,-1.319452 5.607677,-1.979179 8.906321,-1.979179 C 63.406664,73.197 76.601219,62.971221 91.115227,64.950404 c 10.555653,1.319456 19.132103,8.576463 22.100873,18.802242 2.63893,-1.649318 5.93754,-2.638912 9.23621,-2.638912 3.95835,0 7.257,1.319455 10.22577,3.298641 l -20.45155,20.451565 c -0.98961,-0.32987 -1.9792,-0.65973 -2.96878,-0.65973 -1.31948,0 -2.30907,0.32986 -3.6285,0.65973 L 90.785352,91.669377 c 1.319465,-4.288234 -0.989579,-8.906324 -5.277813,-10.225778 -4.288223,-1.319454 -8.90632,0.98959 -10.225774,5.277819 -0.659726,1.649327 -0.659726,3.298644 -0.329863,4.618096 z m 65.642918,7.257008 c 0,-3.298637 -1.31947,-6.59728 -3.29866,-9.56605 l -20.45154,20.451558 c 0.65972,1.64933 0.65972,3.6285 0.32986,5.60772 -1.31945,4.28821 -5.93756,6.59723 -10.2258,5.27781 -4.28822,-1.31946 -6.59727,-5.93757 -5.2778,-10.22581 L 86.49714,96.947202 c -0.989601,0.659723 -2.309054,0.659723 -3.628507,0.659723 -1.319453,0 -2.638907,-0.329859 -3.958372,-0.989587 L 47.573202,121.68698 c 3.628497,3.62853 8.576457,5.60772 13.854283,5.60772 h 74.219335 c 6.26744,0 11.87513,-3.95838 13.85432,-9.89593 2.96877,-7.58687 -1.31945,-16.16333 -8.90632,-18.802248 z" class="st0"/></g></svg>