<svg xmlns="http://www.w3.org/2000/svg" xmlns:svg="http://www.w3.org/2000/svg" id="svg10" width="192" height="192" fill="none" version="1.1" viewBox="0 0 192 192"><metadata id="metadata16"/><defs id="defs14"><clipPath id="clip0"><rect id="rect867" width="192" height="192" fill="#fff"/></clipPath></defs><path id="path2" fill="#000" d="M 162.06536,20 H 29.934641 C 24.447937,20 20,24.447937 20,29.934641 V 162.06536 C 20,167.55226 24.447937,172 29.934641,172 H 162.06536 C 167.55226,172 172,167.55226 172,162.06536 V 29.934641 C 172,24.447937 167.55226,20 162.06536,20 Z" style="stroke-width:.993464;fill:#56595b;fill-opacity:1"/><circle id="circle4" cx="96.38" cy="116.863" r="6.954" fill="#fff" style="stroke-width:.993464"/><path id="path6" fill="#83868c" stroke="#83868c" d="m 64.892508,68.199299 c 0,0 -5.03726,0 -5.03726,5.206249 0,3.938489 2.882635,5.195519 4.286598,5.574128 0.49405,0.133223 1.007075,0.152795 1.518709,0.152795 h 18.210494 c 1.100162,0 2.184429,0.263566 3.161799,0.768742 1.323393,0.683801 2.389281,1.778201 3.037913,3.119179 l 0.511932,1.058039 c 0,0 0.251844,-3.644423 2.266787,-7.02846 2.014845,-3.384136 2.770474,-3.904711 2.770474,-3.904711 0,0 -1.259315,-2.082499 -5.037261,-3.644423 -1.59143,-0.657872 -2.7359,-0.992471 -3.527592,-1.159373 -0.991675,-0.209124 -2.020408,-0.142165 -3.03384,-0.142165 z" style="stroke-width:.993464"/><path id="path8" fill="#fff" stroke="#fff" d="m 127.17743,68.183007 c 0,0 4.96732,0 4.96732,5.279963 0,3.96412 -2.79959,5.249663 -4.1954,5.644167 -0.50667,0.143158 -1.03519,0.163723 -1.56173,0.163723 h -18.20523 c -0.90306,0 -1.79519,0.197302 -2.6138,0.578097 -1.72465,0.801825 -2.98536,2.350635 -3.4205,4.201558 l -0.11226,0.478055 c -0.12716,0.54104 -0.19174,1.094996 -0.19174,1.65074 v 13.654865 c 0,1.366605 -0.5623,2.672025 -1.55586,3.610845 l -0.67943,0.64178 c 0,0 -2.235294,1.84784 -2.980392,1.84784 -0.745098,0 -2.980392,-1.84784 -2.980392,-1.84784 l -0.67943,-0.64178 c -0.993067,-0.93882 -1.555864,-2.24424 -1.555864,-3.610845 V 85.613631 c 0,-0.180512 0.0029,-0.357845 0.01659,-0.537762 0.09944,-1.307895 0.755132,-7.155027 4.702363,-11.612899 3.910975,-4.416941 9.152785,-5.146641 10.403555,-5.260094 0.18379,-0.01669 0.36857,-0.01987 0.55336,-0.01987 z" style="stroke-width:.993464"/></svg>