<svg xmlns="http://www.w3.org/2000/svg" xmlns:svg="http://www.w3.org/2000/svg" id="svg2" width="192" height="192" version="1.1" viewBox="0 0 192 192"><metadata id="metadata7"/><g id="layer1" transform="translate(0,-860.36216)"><path style="fill:#99bdfe;fill-opacity:1;stroke-width:.391111" id="path953" fill="#4b9fdc" d="m 184,908.54392 c 0,0 -44.67076,50.82755 -55.59254,74.31065 -3.3041,7.10414 0.51119,13.67285 2.37287,16.69574 11.86671,19.27129 31.21967,26.42029 28.58124,26.42029 -2.63884,0 -11.88158,-8.2751 -35.80505,-15.0495 -23.923881,-6.7748 -42.588876,-7.8117 -54.007756,-14.30373 C 59.694718,991.0151 60.472246,984.61848 56.293224,981.00266 42.564676,969.12461 7.7550842,964.1399 8.0012965,964.12972 c 10.7687655,-0.44038 22.8062675,4.85018 29.7363255,4.85018 6.930059,0 10.596882,-8.9541 20.432935,-3.2607 2.579769,1.49327 2.121779,2.03104 10.569389,4.40939 8.447608,2.37834 12.594168,-10.10279 6.583573,-26.28188 -2.225423,-5.99104 -4.144605,-12.16161 -4.144605,-22.62618 0,-14.34927 24.415894,-29.65897 39.296886,-34.46681 -1.55818,20.15711 -1.64109,34.91543 -0.84519,46.43755 C 142.95093,912.54022 184,908.54392 184,908.54392 Z"/><path style="fill:#708cbd;fill-opacity:1;stroke-width:.391111" id="path955" fill="#377da2" fill-rule="evenodd" d="m 128.34371,982.84049 c -1.78932,3.82545 -1.49796,7.49563 -0.55693,10.5377 -1.8617,-3.29589 -3.45235,-6.69465 -4.36559,-8.49963 -2.08658,-4.12191 -4.25725,-9.0245 -6.28632,-14.7175 -3.24545,-10.30501 -6.38803,-19.13628 -7.63215,-36.87397 4.80206,-2.95952 9.76447,-5.57646 14.74175,-7.88792 -0.37272,20.93774 2.1171,42.74336 4.34799,56.91644 -0.0849,0.1764 -0.16779,0.35123 -0.24875,0.52488 z" clip-rule="evenodd"/></g><style id="style853" type="text/css"/><style id="style853-9" type="text/css"/><style id="style853-3" type="text/css"/></svg>