<svg xmlns="http://www.w3.org/2000/svg" xmlns:svg="http://www.w3.org/2000/svg" id="Layer_1" width="192" height="192" x="0" y="0" overflow="visible" version="1.1" viewBox="0 0 192 192" xml:space="preserve"><metadata id="metadata25"/><circle id="circle2" cx="96" cy="96" r="88" fill="#b1b5bc" style="stroke-width:1.16067"/><path style="fill:#fff;stroke-width:1.16067" id="circle4" d="M 164.98119,96 A 68.981186,68.981186 0 0 1 96,164.98119 68.981186,68.981186 0 0 1 27.018814,96 68.981186,68.981186 0 0 1 96,27.018814 68.981186,68.981186 0 0 1 164.98119,96 Z"/><path id="path8" fill="#ff857e" d="m 152.2927,62.771058 c 0,4.569574 -3.70371,8.274446 -8.27444,8.274446 H 47.981748 c -4.569574,0 -8.274446,-3.704872 -8.274446,-8.274446 V 46.821073 c 0,-4.569574 3.704872,-8.274446 8.274446,-8.274446 h 96.036512 c 4.57073,0 8.27444,3.704872 8.27444,8.274446 z" style="stroke-width:1.16067"/><path id="path877" d="m 51.462893,88.455078 c -4.56957,0 -8.27344,3.70503 -8.27344,8.27344 v 53.095702 c 0,4.56842 3.70387,8.27148 8.27344,8.27148 h 89.074217 c 4.56958,0 8.27344,-3.70306 8.27344,-8.27148 V 96.728518 c 0,-4.56841 -3.70386,-8.27344 -8.27344,-8.27344 z m 12.05273,12.767582 h 64.968757 c 3.5331,0 6.39843,2.86455 6.39843,6.39648 v 32.47461 c 0,3.53193 -2.86534,6.39648 -6.39843,6.39648 H 63.515623 c -3.53309,0 -6.39843,-2.86455 -6.39843,-6.39648 v -32.47461 c 0,-3.53193 2.86534,-6.39648 6.39843,-6.39648 z" style="fill:#8d9299;fill-opacity:1;stroke-width:1.16067"/><g id="g881"><path id="path10" fill="#b1b5bc" d="m 108.29038,115.65021 c 0,4.56958 -1.82574,6.46496 -6.39532,6.46496 H 90.311536 c -4.569575,0 -6.395315,-1.89654 -6.395315,-6.46496 V 37.464878 c 0,-4.569574 1.82574,-5.882297 6.395315,-5.882297 h 11.583524 c 4.56958,0 6.39532,1.312723 6.39532,5.882297 z" style="stroke-width:1.16067"/><polygon id="polygon12" fill="#56595b" points="94.411 131.761 69.997 111 118.825 111" transform="matrix(1.1606742,0,0,1.1606742,-13.580412,-17.165735)"/></g></svg>