<svg xmlns="http://www.w3.org/2000/svg" xmlns:svg="http://www.w3.org/2000/svg" id="svg2" width="192" height="192" version="1.1" viewBox="0 0 192 192"><defs id="defs4"><style id="style909"/></defs><metadata id="metadata7"/><g id="layer1" transform="translate(0,-860.36216)"><rect id="rect1118" width="152" height="152" x="20" y="880.362" rx="9.935" ry="9.935" style="fill:#ff837d;fill-opacity:1;fill-rule:evenodd;stroke:none;stroke-width:.993464;stroke-opacity:1"/><path id="path1120" d="m 135.85137,932.96439 c -23.76471,0.18249 -27.69464,4.11242 -32.99582,13.80105 h 26.23216 z" style="fill:#fff;fill-opacity:1;stroke-width:1.30346"/><path id="path1122" d="m 110.72064,966.96518 c -1.54927,8.77083 -8.41744,15.63693 -17.18874,17.18353 -2.8699,0.50198 -5.7708,0.80683 -8.68235,0.91242 -3.47373,0.0912 -31.34955,0.0912 -31.34955,0.0912 l 1.18876,-2.46745 c 0,0 10.60235,-0.0912 12.06484,-0.0912 3.45358,-0.0563 6.90155,-0.3004 10.32862,-0.73124 7.27834,-0.61396 13.38592,-5.735 15.25962,-12.79478 l 2.10248,-7.12863 c 1.19104,-6.03129 6.4659,-10.38877 12.61359,-10.41987 l 20.29229,-1.28 -1.00497,2.01125 -6.2149,0.36496 c -4.6375,0.35641 -8.36258,3.967 -8.86354,8.59112 z" style="fill:#fff;fill-opacity:1;stroke-width:1.30346"/><path id="path1124" d="m 87.04197,953.16413 -18.46223,1.82485 -12.4298,24.68103 c 9.87111,0 14.89856,-0.91242 20.65595,-9.13987 a 169.14884,169.14884 0 0 0 10.23608,-17.36601 z" style="fill:#fff;fill-opacity:1;stroke-width:1.30346"/><path id="path1126" d="M 137.03751,930.30924 138.5,927.57198 H 99.56953 c -13.16496,0 -19.92992,4.47869 -24.04364,12.70483 l -3.1987,6.48863 h 17.72707 c 6.22012,-12.06483 13.8975,-16.17725 32.63476,-16.4562 z" style="fill:#fff;fill-opacity:1;stroke-width:1.30346"/></g><style id="style853" type="text/css"/><style id="style853-9" type="text/css"/><style id="style853-3" type="text/css"/></svg>