<svg xmlns="http://www.w3.org/2000/svg" xmlns:svg="http://www.w3.org/2000/svg" id="svg2" width="192" height="192" version="1.1" viewBox="0 0 192 192"><defs id="defs4"><style id="style907"/></defs><metadata id="metadata7"/><g id="layer1" transform="translate(0,-860.36216)"><rect id="rect923" width="152" height="152" x="20" y="880.362" rx="9.935" ry="9.935" style="fill:#fff;fill-opacity:1;fill-rule:evenodd;stroke:none;stroke-width:.993464;stroke-opacity:1"/><path style="fill:none;fill-opacity:1;stroke:#99bdfe;stroke-width:6.85929;stroke-linecap:round;stroke-linejoin:round;stroke-miterlimit:10;stroke-dasharray:none;stroke-opacity:1;stop-color:#000" id="path997" d="m 99.256089,924.16221 23.001851,13.28013 a 6.5121674,6.5121674 0 0 1 3.25608,5.6397 v 26.56024 a 6.5121674,6.5121674 0 0 1 -3.25608,5.63971 l -23.001857,13.28012 a 6.5121674,6.5121674 0 0 1 -6.512171,0 L 69.742057,975.28199 a 6.5121674,6.5121674 0 0 1 -3.256077,-5.63971 v -26.56025 a 6.5121674,6.5121674 0 0 1 3.256077,-5.6397 l 23.001855,-13.28012 a 6.5121674,6.5121674 0 0 1 6.512177,0 z"/><path style="fill:none;fill-opacity:1;stroke:#99bdfe;stroke-width:6.85924;stroke-linecap:square;stroke-linejoin:bevel;stroke-miterlimit:10;stroke-dasharray:none;stroke-opacity:1;stop-color:#000" id="path999" d="M 89.487835,946.04179 112.48969,932.76167 Z M 66.48598,959.32191 89.487835,946.04179 Z"/></g><style id="style853" type="text/css"/><style id="style853-9" type="text/css"/><style id="style853-3" type="text/css"/><style id="style853-5" type="text/css"/></svg>