<svg xmlns="http://www.w3.org/2000/svg" xmlns:svg="http://www.w3.org/2000/svg" id="svg2" width="192" height="192" version="1.1" viewBox="0 0 192 192"><defs id="defs4"><clipPath id="clip0"><rect id="rect916" width="192" height="192" fill="#fff"/></clipPath><mask id="mask0" width="164" height="162" x="18" y="15" mask-type="alpha" maskUnits="userSpaceOnUse"><path id="path907" fill="#fff" fill-rule="evenodd" d="m 81.4439,68.1102 c -8.2562,7.4339 -19.3317,9.751 -29.3366,7.1551 1.7757,14.2541 9.4533,30.4867 23.4437,44.4777 15.4156,15.416 33.554,23.167 48.768,23.803 -4.383,-11.869 -1.407,-25.727 8.57,-34.709 11.535,-10.3869 18.493,-2.379 28.059,8.631 1.272,1.464 2.591,2.982 3.973,4.517 1.372,1.524 2.746,2.997 4.082,4.43 10.12,10.853 18.05,19.358 6.504,29.754 -0.942,0.849 -1.921,1.63 -2.93,2.345 l 0.004,0.004 C 143.673,187.426 89.8383,180.459 52.3368,142.957 14.8353,105.456 7.86825,51.6207 36.7755,22.7134 l 0.0397,0.0397 c 0.6351,-0.6812 1.3052,-1.3405 2.0104,-1.9754 11.5357,-10.3868 18.4935,-2.3788 28.0592,8.6307 1.2727,1.4648 2.5915,2.9826 3.9734,4.5174 1.3722,1.524 2.746,2.9973 4.0817,4.4298 10.1198,10.8529 18.0505,19.3581 6.504,29.7546 z" clip-rule="evenodd"/></mask><clipPath id="clip0-3"><rect id="rect957" width="192" height="192" fill="#fff"/></clipPath></defs><metadata id="metadata7"/><g id="layer1" transform="translate(0,-860.36216)"><rect style="fill:#708cbd;fill-opacity:1;fill-rule:evenodd;stroke:none;stroke-opacity:1" id="rect969" width="153" height="153" x="19.5" y="879.862" rx="10"/><g id="g983" transform="translate(-453.72487,5.0073689)"><circle style="fill:#fefefe;fill-opacity:1;stroke-width:.973474;stop-color:#000" id="circle971" cx="549.725" cy="933.647" r="18.792"/><path id="path973" d="m 520.09471,982.87738 c 2.37151,-14.22221 14.73482,-25.06319 29.63017,-25.06319 14.89536,0 27.25866,10.84099 29.63016,25.06322 0.45367,2.7207 -1.82814,4.97739 -4.58956,4.97739 h -50.08121 c -2.76142,0 -5.04323,-2.2567 -4.58956,-4.97742 z" style="fill:#fefefe;fill-opacity:1;stroke-width:.973474;stop-color:#000"/></g></g><style id="style853" type="text/css"/></svg>