<svg xmlns="http://www.w3.org/2000/svg" xmlns:svg="http://www.w3.org/2000/svg" id="svg2" width="192" height="192" version="1.1" viewBox="0 0 192 192"><metadata id="metadata7"/><g id="layer1" transform="translate(0,-860.36216)"><rect id="rect970" width="153" height="153" x="19.5" y="879.862" rx="10" style="fill:#fff;fill-opacity:1;fill-rule:evenodd;stroke:none;stroke-opacity:1"/><g style="fill:#ff837d;fill-opacity:1" id="g1004" transform="matrix(0.91750553,0,0,0.91750553,-185.87351,5.5202443)"><path style="fill:#ff837d;fill-opacity:1" id="path998" fill="#ed1c24" d="m 289.82499,1030.763 2.683,-5.627 h -28.932 l -2.68,5.627 z m -18.517,2.783 h 7.932 l -6.705,13.988 h -7.933 z m 13.407,13.984 2.713,-5.734 h 20.352 l 1.685,-3.253 h -12.247 c -1.669,0 -5.4,0.122 -6.3,-1.721 -0.6,-1.224 0.576,-3.282 0.576,-3.282 h 22.77 a 4.106,4.106 0 0 1 3.351,1.172 c 0.642,0.812 0.6,1.977 -0.366,3.835 -0.557,1.066 -2.012,4.337 -2.354,5.021 a 5.766,5.766 0 0 1 -2.884,2.739 12.028,12.028 0 0 1 -5.717,1.223 z m 8.067,-16.767 a 9.047,9.047 0 0 1 3.7,-4.395 c 2.461,-1.285 7.427,-1.232 7.873,-1.232 h 18.9 l -2.66,5.627 z m 31.698,0 2.535,-5.627 h 17.85 c 0,0 7.223,-0.409 8.535,5.627 a 7.874,7.874 0 0 1 -0.748,5.1 c -0.042,0.085 -5.54,11.671 -5.54,11.671 h -7.975 l 6.166,-12.746 a 3.292,3.292 0 0 0 0.3,-2.826 c -0.639,-1.3 -2.529,-1.211 -2.685,-1.2 -0.156,0.011 -18.442,0 -18.442,0 z"/><path style="fill:#ff837d;fill-opacity:1" id="path1000" fill="#ed1c24" d="m 323.19199,1033.546 h 7.939 l -6.696,13.988 h -7.939 z"/></g></g><style id="style853" type="text/css"/></svg>