<svg xmlns="http://www.w3.org/2000/svg" xmlns:svg="http://www.w3.org/2000/svg" id="svg2" width="192" height="192" version="1.1" viewBox="0 0 192 192"><metadata id="metadata7"/><g id="layer1" transform="translate(0,-860.36216)"><rect id="rect1181" width="152" height="152" x="20" y="880.362" rx="9.935" ry="9.935" style="fill:#56595b;fill-opacity:1;fill-rule:evenodd;stroke:none;stroke-width:.993464;stroke-opacity:1"/><path style="fill:#99bdfe;fill-opacity:1;stroke-width:3.4223;stroke-linecap:round;stroke-linejoin:round;stop-color:#000" id="path1164" d="m 102.18414,928.71449 a 1.6533641,1.6533641 0 0 0 -1.40687,0.74965 L 85.739158,952.4978 a 4.3249293,4.3249293 0 0 0 -0.144279,4.49017 l 14.363942,25.44331 a 1.5859816,1.5859816 0 0 0 2.714639,0.0786 l 9.17034,-14.25304 c -1.08133,-1.91572 -2.15956,-3.8331 -3.24197,-5.74814 -1.66236,-2.54763 -1.84942,-6.00508 -0.39228,-8.68717 1.71077,-2.70034 3.46113,-5.37551 5.21158,-8.05049 l -9.84501,-16.25962 a 1.6533641,1.6533641 0 0 0 -1.39198,-0.79689 z"/><path style="fill:#99bdfe;fill-opacity:1;stroke-width:4.52283;stroke-linecap:round;stroke-linejoin:round;stop-color:#000" id="path1166" d="m 84.852933,919.86251 a 1.6533641,1.6533641 0 0 0 -1.351418,0.74913 L 62.70345,952.46802 a 4.3249298,4.3249298 0 0 0 -0.144795,4.49068 l 19.814285,35.09732 a 1.5859815,1.5859815 0 0 0 2.714643,0.0786 l 8.273835,-12.85952 c -3.711119,-6.55014 -7.4133,-13.105 -11.116842,-19.65973 -1.67573,-2.56131 -1.888134,-6.04344 -0.421036,-8.74673 2.202992,-3.43214 4.432317,-6.8486 6.660044,-10.26502 1.707795,-2.62349 3.419835,-5.24309 5.130455,-7.8641 l -7.314185,-12.08009 a 1.6533641,1.6533641 0 0 0 -1.446921,-0.79688 z"/><path style="fill:#99bdfe;fill-opacity:1;stroke-width:1.94151;stroke-linecap:round;stroke-linejoin:round;stop-color:#000" id="path1168" d="m 122.2116,944.3357 7.17965,11.85783 a 4.2111304,4.2111304 0 0 1 -0.0608,4.45964 l -7.6045,11.81939 a 1.5859817,1.5859817 0 0 1 -2.71486,-0.0784 l -7.03046,-12.45305 a 4.3249288,4.3249288 0 0 1 0.14473,-4.49056 l 7.28752,-11.16234 a 1.6533641,1.6533641 0 0 1 2.79875,0.0475 z"/><path style="fill:#000;fill-opacity:.15;stroke-width:4.52283;stroke-linecap:round;stroke-linejoin:round;stop-color:#000" id="path1170" d="m 84.852933,919.86251 a 1.6533641,1.6533641 0 0 0 -1.351418,0.74913 L 62.70345,952.46802 a 4.3249298,4.3249298 0 0 0 -0.144795,4.49068 l 19.814285,35.09732 a 1.5859815,1.5859815 0 0 0 2.714643,0.0786 l 8.273835,-12.85952 c -3.711119,-6.55014 -7.4133,-13.105 -11.116842,-19.65973 -1.67573,-2.56131 -1.888134,-6.04344 -0.421036,-8.74673 2.202992,-3.43214 4.432317,-6.8486 6.660044,-10.26502 1.707795,-2.62349 3.419835,-5.24309 5.130455,-7.8641 l -7.314185,-12.08009 a 1.6533641,1.6533641 0 0 0 -1.446921,-0.79688 z"/><path style="fill:#fff;fill-opacity:.15;stroke-width:1.94151;stroke-linecap:round;stroke-linejoin:round;stop-color:#000" id="path1172" d="m 122.2116,944.3357 7.17965,11.85783 a 4.2111304,4.2111304 0 0 1 -0.0608,4.45964 l -7.6045,11.81939 a 1.5859817,1.5859817 0 0 1 -2.71486,-0.0784 l -7.03046,-12.45305 a 4.3249288,4.3249288 0 0 1 0.14473,-4.49056 l 7.28752,-11.16234 a 1.6533641,1.6533641 0 0 1 2.79875,0.0475 z"/></g><style id="style853" type="text/css"/><style id="style853-9" type="text/css"/><style id="style853-3" type="text/css"/></svg>