<svg xmlns="http://www.w3.org/2000/svg" xmlns:svg="http://www.w3.org/2000/svg" id="svg2" width="192" height="192" version="1.1" viewBox="0 0 192 192"><metadata id="metadata7"/><g id="layer1" transform="translate(0,-860.36216)"><path style="fill:#728dbe;fill-opacity:1;fill-rule:evenodd;stroke:none;stroke-opacity:1" id="rect985" d="m 29.5,879.86218 h 133 c 5.54,0 10,4.46 10,10 v 133.00002 c 0,5.54 -4.46,10 -10,10 h -133 c -5.54,0 -10,-4.46 -10,-10 V 889.86218 c 0,-5.54 4.46,-10 10,-10 z"/><path id="path865" d="M 92.703125 59.726562 L 72.916016 72.916016 L 82.619141 82 L 92.404297 75 L 92.703125 59.726562 z M 99.296875 59.726562 L 99 75 L 109 82 L 119.08398 72.916016 L 99.296875 59.726562 z M 70.107422 79.404297 L 70.107422 79.619141 L 70.107422 112.38086 L 70.107422 112.5957 L 80 106 L 80 105.78516 L 80 86.214844 L 80 86 L 70.107422 79.404297 z M 121.89258 79.404297 L 112 86 L 112 86.214844 L 112 105.78516 L 112 106 L 121.89258 112.5957 L 121.89258 112.38086 L 121.89258 79.619141 L 121.89258 79.404297 z M 96 79.511719 L 86.107422 86.107422 L 86.107422 105.89258 L 96 112.48828 L 105.89258 105.89258 L 105.89258 86.107422 L 96 79.511719 z M 82.619141 110 L 72.916016 119.08203 L 92.703125 132.27344 L 92.404297 117 L 82.619141 110 z M 109 110 L 99 117 L 99.296875 132.27344 L 119.08398 119.08203 L 109 110 z" transform="translate(0,860.36216)" style="fill:#fff;stroke-width:3.29758191"/></g><style id="style853" type="text/css"/><style id="style907" type="text/css"/></svg>