<svg xmlns="http://www.w3.org/2000/svg" xmlns:svg="http://www.w3.org/2000/svg" id="svg2" width="192" height="192" version="1.1" viewBox="0 0 192 192"><metadata id="metadata7"/><g id="layer1" transform="translate(0,-860.36216)"><rect id="rect1003" width="152" height="152" x="20" y="880.362" rx="9.935" ry="9.935" style="fill:#f9de81;fill-opacity:1;fill-rule:evenodd;stroke:none;stroke-width:.993464;stroke-opacity:1"/><path style="fill:none;fill-opacity:1;stroke:#fff;stroke-width:9.05172;stroke-linecap:round;stroke-linejoin:round;stroke-miterlimit:4;stroke-dasharray:none;stroke-opacity:1;stop-color:#000" id="path1012" d="m 88.720246,994.3363 v -13.27895 c 0,-7.41102 -5.966189,-13.37721 -13.377213,-13.37721 -7.411024,0 -13.377213,5.96619 -13.377213,13.37721 v 13.27895"/><path style="fill:none;fill-opacity:1;stroke:#fff;stroke-width:9.05172;stroke-linecap:round;stroke-linejoin:round;stroke-miterlimit:4;stroke-dasharray:none;stroke-opacity:1;stop-color:#000" id="path1014" d="m 130.03418,967.68014 v 13.27895 c 0,7.41102 -5.96619,13.37721 -13.37721,13.37721 -7.41103,0 -13.37722,-5.96619 -13.37722,-13.37721 v -13.27895"/><path style="fill:none;stroke:#fff;stroke-width:9.05172;stroke-linecap:round;stroke-linejoin:miter;stroke-miterlimit:4;stroke-dasharray:none;stroke-opacity:1" id="path1016" d="m 126.05892,924.44026 -14.2934,26.46168 m -14.293399,-26.46168 14.293399,26.46168"/><path style="fill:none;stroke:#fff;stroke-width:9.05172;stroke-linecap:round;stroke-linejoin:miter;stroke-miterlimit:4;stroke-dasharray:none;stroke-opacity:1" id="path1018" d="m 61.96582,924.5043 h 15.823701 m 10.746211,17.77591 c -2.215499,5.21575 -7.125654,8.62174 -13.192699,8.62174 -7.411024,0 -13.377213,-5.96619 -13.377213,-13.37721 v -19.13672"/><circle id="circle1020" cx="129.695" cy="950.65" r="4.777" style="fill:#fff;fill-opacity:1;stroke:none;stroke-width:9.05172;stroke-linecap:round;stroke-linejoin:round;stroke-miterlimit:4;stroke-dasharray:none;stroke-opacity:1;stop-color:#000"/></g><style id="style853" type="text/css"/><style id="style853-9" type="text/css"/><style id="style853-3" type="text/css"/></svg>