<svg xmlns="http://www.w3.org/2000/svg" xmlns:svg="http://www.w3.org/2000/svg" id="svg2" width="192" height="192" version="1.1" viewBox="0 0 192 192"><metadata id="metadata7"/><g id="layer1" transform="translate(0,-860.36216)"><circle id="circle949" cx="96" cy="956.362" r="88" style="fill:#fff;fill-opacity:1;fill-rule:evenodd;stroke:none;stroke-opacity:1"/><g id="g840" transform="matrix(1.1643829,0,0,1.1643829,-15.780782,-153.90962)"><path style="fill:#708cbd;fill-opacity:1;fill-rule:evenodd;stroke:none;stroke-width:4.94154" id="path951" fill="#3e6bfd" d="m 121.1711,956.83058 c 0,-6.86012 -0.68699,-18.1424 -11.61894,-19.36683 -0.54429,-0.0606 -0.53825,-0.74034 -0.0483,-0.82276 1.09138,-0.18284 1.91364,-0.35383 3.66785,-0.35383 9.33763,0 19.32833,7.44984 19.32833,20.54342 0,2.62364 -2.0647,5.73658 -5.6103,5.73658 -3.72873,0 -5.7186,-2.85858 -5.7186,-5.73658"/><path style="fill:#ff837d;fill-opacity:1;fill-rule:evenodd;stroke:none;stroke-width:4.94154" id="path953" fill="#ff6766" d="m 106.41556,939.96138 c 4.86999,0 7.73211,2.47544 9.1708,4.27779 0.41044,0.51407 0.0311,1.02578 -0.60732,0.86059 -0.47098,-0.12199 -0.96246,-0.19937 -1.51306,-0.19937 -11.05377,0 -13.37722,27.91099 -27.73835,27.91099 -4.874758,0 -7.737832,-2.47639 -9.175089,-4.27684 -0.409965,-0.5136 -0.215946,-1.04381 0.421879,-0.87957 0.472411,0.12152 1.211777,0.27341 1.764751,0.27341 11.053774,0 12.983465,-27.967 27.676389,-27.967"/><path style="fill:#708cbd;fill-opacity:1;fill-rule:evenodd;stroke:none;stroke-width:4.94154" id="path955" fill="#3e6bfd" d="m 70.828898,955.89327 c 0,6.86012 0.686994,18.1424 11.618941,19.36683 0.544297,0.0611 0.538254,0.74034 0.04833,0.82276 -1.090904,0.18283 -1.913624,0.3543 -3.66783,0.3543 C 69.4907,976.43716 59.5,968.98732 59.5,955.89327 c 0,-2.62364 2.064701,-5.73611 5.610298,-5.73611 3.728734,0 5.7186,2.85811 5.7186,5.73611"/></g></g><style id="style853" type="text/css"/><style id="style853-9" type="text/css"/><style id="style853-3" type="text/css"/></svg>