<svg xmlns="http://www.w3.org/2000/svg" xmlns:svg="http://www.w3.org/2000/svg" id="svg2" width="192" height="192" version="1.1" viewBox="0 0 192 192"><metadata id="metadata20"/><defs id="defs18"><style id="style3436"/></defs><g id="g968"><rect style="fill:#4a4a4a;fill-opacity:1;fill-rule:evenodd;stroke:none" id="rect6" width="153" height="153" x="19.5" y="19.5" rx="10"/><g id="g928" transform="translate(2.020321,-1.57162)"><g id="g43"><path style="font-style:normal;font-variant:normal;font-weight:400;font-stretch:normal;font-size:40px;line-height:1.25;font-family:Now;-inkscape-font-specification:Now;letter-spacing:0;word-spacing:0;fill:#fff;fill-opacity:1;stroke:none" id="path22" d="m 60.850067,100.6 c 6.55,0 11.3,-4.350003 11.3,-10.250003 v -20.15 h -3.2 v 19.65 c 0,4.35 -3.45,7.55 -8.1,7.55 -4.65,0 -8.05,-3.2 -8.05,-7.55 v -19.65 h -3.2 v 20.15 c 0,5.9 4.75,10.250003 11.25,10.250003 z"/><path style="font-style:normal;font-variant:normal;font-weight:400;font-stretch:normal;font-size:40px;line-height:1.25;font-family:Now;-inkscape-font-specification:Now;letter-spacing:0;word-spacing:0;fill:#fff;fill-opacity:1;stroke:none" id="path24" d="m 79.300781,70.197266 v 30.001954 h 3.09961 v -2.599611 c 1.9,1.85 4.448828,3.000001 7.298828,3.000001 5.75,0 10.400391,-4.650391 10.400391,-10.400391 0,-5.75 -4.650391,-10.398438 -10.400391,-10.398438 -2.85,0 -5.398828,1.15 -7.298828,3 V 70.197266 Z m 10.398438,12.703125 c 4.05,0 7.300781,3.248828 7.300781,7.298828 0,4.05 -3.250781,7.300781 -7.300781,7.300781 -4.05,0 -7.298828,-3.250781 -7.298828,-7.300781 0,-4.05 3.248828,-7.298828 7.298828,-7.298828 z"/><path style="font-style:normal;font-variant:normal;font-weight:400;font-stretch:normal;font-size:40px;line-height:1.25;font-family:Now;-inkscape-font-specification:Now;letter-spacing:0;word-spacing:0;fill:#fff;fill-opacity:1;stroke:none" id="path26" d="m 125.39999,89.999997 c -0.15,-5.75 -4.7,-10.2 -10.4,-10.2 -5.75,0 -10.4,4.65 -10.4,10.4 0,5.75 4.65,10.400003 10.4,10.400003 4.75,0 8.7,-3.150003 10,-7.450003 h -3.3 c -1.1,2.6 -3.7,4.35 -6.7,4.35 -3.95,0 -7.1,-3 -7.3,-6.85 h 17.65 z m -10.4,-7.1 c 3.2,0 5.9,2.05 6.85,4.95 h -13.75 c 1,-2.9 3.7,-4.95 6.9,-4.95 z"/><path style="font-style:normal;font-variant:normal;font-weight:400;font-stretch:normal;font-size:40px;line-height:1.25;font-family:Now;-inkscape-font-specification:Now;letter-spacing:0;word-spacing:0;fill:#fff;fill-opacity:1;stroke:none" id="path28" d="m 140.84994,79.799997 c -2.85,0 -5.15,1.25 -6.65,3.25 v -2.85 h -3.1 V 100.2 h 3.1 V 89.349997 c 0,-3.65 3,-6.45 6.65,-6.45 0.6,0 1.1,0.05 1.55,0.2 v -3.15 c -0.45,-0.1 -0.95,-0.15 -1.55,-0.15 z"/></g><g id="g916"><path id="path47" d="M 49.559418,121.29222 H 79.315044" style="fill:none;stroke:#fff;stroke-width:2.609;stroke-linecap:butt;stroke-linejoin:miter;stroke-miterlimit:4;stroke-dasharray:none;stroke-opacity:1"/><g id="g910"><path id="path47-3" d="m 67.664797,110.49336 11.565517,11.56552" style="fill:none;stroke:#fff;stroke-width:3.063;stroke-linecap:butt;stroke-linejoin:miter;stroke-miterlimit:4;stroke-dasharray:none;stroke-opacity:1"/><path style="fill:none;stroke:#fff;stroke-width:3.063;stroke-linecap:butt;stroke-linejoin:miter;stroke-miterlimit:4;stroke-dasharray:none;stroke-opacity:1" id="path47-3-6" d="M 68.081775,131.86304 79.647296,120.29752"/></g></g></g></g></svg>