<svg xmlns="http://www.w3.org/2000/svg" xmlns:svg="http://www.w3.org/2000/svg" id="svg1505" width="192" height="192" version="1.1" viewBox="0 0 192 192"><defs id="defs1509"><rect id="rect14134" width="104.145" height="128" x="-200.145" y="-50.618"/><clipPath id="clipPath1715" clipPathUnits="userSpaceOnUse"><path style="fill:none;stroke:#000;stroke-width:1px;stroke-linecap:butt;stroke-linejoin:miter;stroke-opacity:1" id="path1717" d="m 14.454545,35.454545 7.909091,86.727275 75.545455,43.36363 59.181819,-46.0909 7.36364,-85.363641 -72.818186,-19.363636 z"/></clipPath><clipPath id="clipPath6309" clipPathUnits="userSpaceOnUse"><path id="path6311" d="M 92.614045,10.314495 23.983609,49.939411 a 6.9283007,6.9283007 119.99965 0 0 -3.464077,6.000042 V 135.1875 a 6.9283007,6.9283007 60.000349 0 0 3.464077,6.00004 l 68.630436,39.62492 a 6.9280086,6.9280086 1.3134257e-6 0 0 6.928154,0 l 68.630441,-39.62492 a 6.9283004,6.9283004 119.99965 0 0 3.46408,-6.00004 V 55.939453 a 6.9283004,6.9283004 60.000348 0 0 -3.46408,-6.000042 L 99.542199,10.314495 a 6.9280086,6.9280086 180 0 0 -6.928154,0 z" style="display:inline;opacity:.11811;fill:#0f0;stroke-width:0"/></clipPath></defs><g id="g3209" clip-path="url(#clipPath6309)" style="display:inline"><path id="path2980" d="m 96.078125,8.3144531 -75.558594,43.6249999 75.558594,43.625 75.558595,-43.625 z" style="display:inline;opacity:1;fill:#ffb0ac;stroke-width:0"/><path id="path3186" d="M 20.519531,51.939453 V 139.1875 l 75.558594,43.625 V 95.564453 Z" style="display:inline;opacity:1;fill:#e85e5c;stroke-width:0"/><path id="path30695" d="M 56.592146,145.54117 C 44.649175,138.64571 35.565835,125.07313 35.565835,114.25646 V 75.200359 l 11.101919,6.409288 v 36.663293 c 0,5.83893 4.289381,12.81477 9.924392,16.06825 5.550959,3.20498 9.840339,1.18233 9.840339,-4.65721 V 93.021351 l 11.101918,6.40996 v 39.055969 c 0,10.81701 -9.167457,13.85215 -20.942257,7.05389 z" style="font-weight:700;font-size:40px;line-height:1.25;font-family:Now;-inkscape-font-specification:'Now Bold';fill:#fff;stroke-width:.667078"/><path id="path31030" d="M 171.63672,51.939453 V 139.1875 l -75.558595,43.625 V 95.564453 Z" style="display:inline;opacity:1;fill:#ff837d;stroke-width:0"/><path id="path31032" d="m 135.5641,145.54117 c 11.94297,-6.89546 21.02631,-20.46804 21.02631,-31.28471 V 75.200359 l -11.10191,6.409288 v 36.663293 c 0,5.83893 -4.28939,12.81477 -9.9244,16.06825 -5.55096,3.20498 -9.84033,1.18233 -9.84033,-4.65721 V 93.021351 l -11.10192,6.40996 v 39.055969 c 0,10.81701 9.16745,13.85215 20.94225,7.05389 z" style="font-weight:700;font-size:40px;line-height:1.25;font-family:Now;-inkscape-font-specification:'Now Bold';fill:#fff;stroke-width:.667078"/></g></svg>