<svg xmlns="http://www.w3.org/2000/svg" xmlns:svg="http://www.w3.org/2000/svg" id="svg2" width="192" height="192" version="1.1" viewBox="0 0 192 192"><metadata id="metadata7"/><g id="layer1" transform="translate(0,-860.36216)"><rect id="rect921" width="153" height="153" x="19.5" y="879.862" rx="10" style="fill:#ff837d;fill-opacity:1;fill-rule:evenodd;stroke:none;stroke-opacity:1"/><g style="fill:#fff;fill-opacity:1" id="g961" transform="matrix(0.72644555,0,0,0.72644555,26.261229,261.61712)"><path id="path927" d="m 48.441092,980.03166 c 10.912558,0 20.595532,-6.68586 22.286209,-15.3698 l 6.301618,-31.35439 H 66.884852 l -5.917373,29.43317 c -0.922188,4.68779 -5.533128,8.29969 -10.682011,8.29969 -5.072034,0 -8.299692,-3.6119 -7.377504,-8.29969 l 5.917373,-29.43317 H 38.681269 l -6.301618,31.35439 c -1.690677,8.68394 5.302581,15.3698 16.061441,15.3698 z" style="font-style:italic;font-variant:normal;font-weight:700;font-stretch:normal;font-size:61.4792px;line-height:1.25;font-family:Now;-inkscape-font-specification:'Now Bold Italic';letter-spacing:0;word-spacing:0;stroke-width:1.53698;fill:#fff;fill-opacity:1"/><path style="font-style:italic;font-variant:normal;font-weight:700;font-stretch:normal;font-size:61.4792px;line-height:1.25;font-family:Now;-inkscape-font-specification:'Now Bold Italic';letter-spacing:0;word-spacing:0;stroke-width:1.53698;fill:#fff;fill-opacity:1" id="path944" d="M 107.76758,951.90513 H 82.53125 l -5.501953,27.51172 h 10.144531 l 3.6875,-18.59766 h 15.062502 z"/><path style="font-style:italic;font-variant:normal;font-weight:700;font-stretch:normal;font-size:61.4792px;line-height:1.25;font-family:Now;-inkscape-font-specification:'Now Bold Italic';letter-spacing:0;word-spacing:0;stroke-width:1.53698;fill:#fff;fill-opacity:1" id="path942" d="m 86.25,933.30747 -1.783203,8.91407 h 27.759763 l 1.76758,-8.91407 z"/><path id="path931" d="m 131.89892,980.03166 c 9.14503,0 18.13636,-5.14888 23.51579,-12.68008 l -7.8386,-4.53409 c -3.07396,4.38039 -8.22284,7.30065 -13.67912,7.30065 -7.76175,0 -12.44954,-5.99422 -10.91256,-13.75597 1.53698,-7.76175 8.68394,-13.75597 16.44569,-13.75597 5.45628,0 9.37558,2.92026 10.75886,7.30065 l 9.68297,-4.53409 c -2.45917,-7.5312 -9.29873,-12.68008 -18.44376,-12.68008 -13.06433,0 -25.82126,10.60516 -28.43413,23.66949 -2.61286,13.06433 5.84053,23.66949 18.90486,23.66949 z" style="font-style:italic;font-variant:normal;font-weight:700;font-stretch:normal;font-size:61.4792px;line-height:1.25;font-family:Now;-inkscape-font-specification:'Now Bold Italic';letter-spacing:0;word-spacing:0;stroke-width:1.53698;fill:#fff;fill-opacity:1"/></g></g><style id="style853" type="text/css"/><style id="style853-5" type="text/css"/></svg>