<svg xmlns="http://www.w3.org/2000/svg" xmlns:svg="http://www.w3.org/2000/svg" id="svg2" width="192" height="192" version="1.1" viewBox="0 0 192 192"><metadata id="metadata7"/><g id="layer1" transform="translate(0,-860.36216)"><path style="fill:#97db99;fill-opacity:1;stroke:none;stroke-width:7.45189;stroke-linecap:round;stroke-linejoin:round;stop-color:#000" id="path943" d="m 57.322606,1018.0197 c 1.36448,-12.2012 8.438675,-23.1495 19.218078,-29.37299 12.041468,-6.95214 26.877176,-6.95214 38.918636,0 10.77938,6.22347 17.85358,17.17179 19.21807,29.37289 0.26629,2.3812 -1.70208,4.3317 -4.09928,4.3317 H 61.421898 c -2.39721,0 -4.365578,-1.9505 -4.099292,-4.3316 z"/><path style="fill:#99bdfe;fill-opacity:1;stroke:none;stroke-width:14.9455;stroke-linecap:round;stroke-linejoin:round;stop-color:#000" id="path945" d="m 173.72107,897.59697 c -2.32472,25.05669 -16.6442,47.6437 -38.69347,60.37386 -24.15036,13.94323 -53.904836,13.94323 -78.0552,0 -22.049266,-12.73016 -36.368752,-35.31717 -38.693466,-60.37386 -0.368964,-3.97686 2.90474,-7.22392 6.90009,-7.22392 H 166.82098 c 3.99534,0 7.26905,3.24706 6.90009,7.22392 z"/></g><style id="style853" type="text/css"/><style id="style853-9" type="text/css"/><style id="style853-3" type="text/css"/></svg>