<svg xmlns="http://www.w3.org/2000/svg" xmlns:svg="http://www.w3.org/2000/svg" id="svg2" width="192" height="192" version="1.1" viewBox="0 0 192 192"><metadata id="metadata7"/><g id="layer1" transform="translate(0,-860.36216)"><circle id="circle950" cx="96" cy="956.362" r="88" style="fill:#738dbe;fill-opacity:1;fill-rule:evenodd;stroke:none"/><path id="path960" d="m 74.998111,917.86914 -8.923952,9.94304 a 0.89237743,0.89237743 65.954111 0 0 0.664121,1.48843 h 2.34571 a 1,1 45 0 1 1,1 v 24.3399 c 0,14.0506 11.75645,25.3906 25.91601,25.3906 4.53063,0 8.81563,-1.16174 12.54785,-3.20116 0.48461,-0.26482 0.86817,-0.0484 0.86817,0.50386 v 5.0899 a 1,1 135 0 1 -1,1 h -2.3457 a 0.89237794,0.89237794 114.0459 0 0 -0.66412,1.48843 l 8.92394,9.94304 a 1.7950139,1.7950139 0 0 0 2.67176,0 l 8.92394,-9.94304 a 0.89237794,0.89237794 65.954098 0 0 -0.66412,-1.48843 h -2.3457 a 1,1 45 0 1 -1,-1 l 0,-27.7832 v -12.209 -12.1309 a 1,1 45 0 0 -1,-1 h -10.5 a 1,1 135 0 0 -1,1 v 12.1309 12.209 c 0,7.1583 -5.78663,12.8906 -13.41602,12.8906 -7.62938,0 -13.41601,-5.7323 -13.41601,-12.8906 v -24.3399 a 1,1 135 0 1 1,-1 h 2.3457 a 0.89237794,0.89237794 114.0459 0 0 0.664122,-1.48843 l -8.923944,-9.94304 a 1.7950147,1.7950147 1.2280934e-5 0 0 -2.671757,0 z" style="color:#000;font-style:normal;font-variant:normal;font-weight:400;font-stretch:normal;font-size:medium;line-height:normal;font-family:sans-serif;font-variant-ligatures:normal;font-variant-position:normal;font-variant-caps:normal;font-variant-numeric:normal;font-variant-alternates:normal;font-variant-east-asian:normal;font-feature-settings:normal;font-variation-settings:normal;text-indent:0;text-align:start;text-decoration:none;text-decoration-line:none;text-decoration-style:solid;text-decoration-color:#000;letter-spacing:normal;word-spacing:normal;text-transform:none;writing-mode:lr-tb;direction:ltr;text-orientation:mixed;dominant-baseline:auto;baseline-shift:baseline;text-anchor:start;white-space:normal;shape-padding:0;shape-margin:0;inline-size:0;clip-rule:nonzero;display:inline;overflow:visible;visibility:visible;opacity:1;isolation:auto;mix-blend-mode:normal;color-interpolation:sRGB;color-interpolation-filters:linearRGB;solid-color:#000;solid-opacity:1;vector-effect:none;fill:#fefefe;fill-opacity:1;fill-rule:nonzero;stroke:none;stroke-width:12.5;stroke-linecap:round;stroke-linejoin:round;stroke-miterlimit:4;stroke-dasharray:none;stroke-dashoffset:0;stroke-opacity:1;paint-order:markers fill stroke;color-rendering:auto;image-rendering:auto;shape-rendering:auto;text-rendering:auto;enable-background:accumulate;stop-color:#000;stop-opacity:1"/></g></svg>