<svg xmlns="http://www.w3.org/2000/svg" xmlns:svg="http://www.w3.org/2000/svg" id="svg2" width="192" height="192" version="1.1" viewBox="0 0 192 192"><metadata id="metadata7"/><g id="layer1" transform="translate(0,-860.36216)"><path style="fill:#f9de81;fill-opacity:1;stroke-width:2.22784" id="path1143" fill="#febe10" d="m 96.002225,1044.0086 c -4.564838,-1.9783 -41.796448,-18.2482 -53.833451,-28.122 -12.96601,-10.6268 -19.818837,-25.88299 -19.818837,-44.12675 v -86.6985 c 20.46491,-10.84511 45.24514,-16.34564 73.652288,-16.34564 28.411605,0 53.187375,5.50053 73.647835,16.34564 v 86.70073 c 0,18.24153 -6.84837,33.50222 -19.80547,44.12672 -11.85209,9.7112 -49.52482,26.2395 -53.842365,28.1198" clip-path="url(#SVGID_2_)"/><path style="fill:#8e6f60;fill-opacity:1;stroke:none;stroke-width:1px;stroke-linecap:butt;stroke-linejoin:miter;stroke-opacity:1" id="path1145" d="m 133.80229,885.48521 c -35.49485,0.1304 -73.32199,7.91686 -104.6875,36.68554 v 49.59375 h 0.002 c 0,16.15628 5.97394,29.6454 17.32031,38.8887 10.02304,8.1717 40.86084,22.1288 49.56055,25.9629 8.5794,-3.7829 39.34811,-17.564 49.54492,-25.9629 11.42212,-9.4059 17.33398,-22.5787 17.33398,-38.8887 v -84.88086 c -9.37982,-0.87136 -19.13566,-1.43495 -29.07422,-1.39843 z"/><text id="text1149" x="29.172" y="978.161" xml:space="preserve" style="font-style:normal;font-variant:normal;font-weight:500;font-stretch:normal;font-size:87.516px;line-height:1.25;font-family:Now;-inkscape-font-specification:'Now Medium';letter-spacing:-6.90783px;word-spacing:0;fill:#f9de81;fill-opacity:1;stroke-width:2.1879"><tspan style="font-style:normal;font-variant:normal;font-weight:500;font-stretch:normal;font-family:Now;-inkscape-font-specification:'Now Medium';fill:#f9de81;fill-opacity:1;stroke-width:2.1879" id="tspan1147" x="29.172" y="978.161">ups</tspan></text></g><style id="style853" type="text/css"/><style id="style853-9" type="text/css"/><style id="style853-3" type="text/css"/></svg>