<svg xmlns="http://www.w3.org/2000/svg" xmlns:xlink="http://www.w3.org/1999/xlink" id="Layer_1" width="192" height="192" x="0" y="0" enable-background="new 0 0 192 192" version="1.1" viewBox="0 0 192 192" xml:space="preserve"><g><rect width="170" height="170" x="11" y="10" fill="#99BEF9"/><g><path fill="#FFF" d="M54,94.401v-0.692C54,85.047,61.492,78,70.153,78H92V68H70.153C55.763,68,44,79.319,44,93.709v0.692 C44,108.792,55.763,121,70.153,121H92v-11H70.153C61.492,110,54,103.063,54,94.401z"/><path fill="#FFF" d="M124.208,68H102v10h22.208C132.752,78,139,84.901,139,93.709v0.692c0,8.809-6.248,15.599-14.792,15.599 H102v11h22.208C138.577,121,150,109.036,150,94.401v-0.692C150,79.075,138.577,68,124.208,68z"/><rect width="42" height="11" x="76" y="89" fill="#FFF"/></g></g></svg>