<svg xmlns="http://www.w3.org/2000/svg" xmlns:svg="http://www.w3.org/2000/svg" id="svg2" width="192" height="192" version="1.1" viewBox="0 0 192 192"><metadata id="metadata7"/><g id="layer1" transform="translate(0,-860.36216)"><rect id="rect997" width="153" height="153" x="19.5" y="879.862" rx="10" style="fill:#54688c;fill-opacity:1;fill-rule:evenodd;stroke:none;stroke-opacity:1"/><g style="fill:#ccc;fill-opacity:1" id="g995" transform="matrix(0.03372885,0,0,0.03372885,-5.4502607,932.70873)"><path id="path986" d="m 1925.6588,902.65972 6.0701,206.68938 c 0,0 51.5965,-37.4834 109.4149,-37.4834 57.9701,0 123.2244,40.9737 123.2244,40.9737 l 517.9374,296.9831 43.857,-186.6577 -561.7944,-322.32613 c 0,0 -65.2543,-40.51839 -123.2244,-40.51839 -58.1219,0 -115.3333,42.4912 -115.3333,42.4912" style="fill:#ccc;stroke-width:151.754;fill-opacity:1"/><path style="fill:#ccc;stroke-width:151.754;fill-opacity:1" id="path960" d="m 1925.6588,632.5371 6.0701,206.68933 c 0,0 51.5965,-37.4833 109.4149,-37.4833 57.9701,0 123.2244,40.8219 123.2244,40.8219 l 573.783,329.15507 43.7052,-186.6578 -617.6399,-354.34625 c 0,0 -64.9508,-40.67015 -123.0727,-40.67015 -58.1219,0 -115.3333,42.4912 -115.3333,42.4912"/><path style="fill:#ccc;stroke-width:151.754;fill-opacity:1" id="path962" d="m 1925.6588,362.41448 6.0701,206.68933 c 0,0 51.5965,-37.63506 109.4149,-37.63506 57.9701,0 123.2244,40.97366 123.2244,40.97366 l 629.7803,361.17518 43.7052,-186.65776 -673.4855,-386.3664 c 0,0 -65.2543,-40.51839 -123.2244,-40.51839 -58.1219,0 -115.3333,42.33944 -115.3333,42.33944"/><path style="fill:#ccc;stroke-width:151.754;fill-opacity:1" id="path964" d="m 3005.087,33.56296 57.6666,243.86913 788.8187,452.22775 c 0,0 61.9158,40.67015 122.921,40.67015 61.0052,0 115.485,-42.4912 115.485,-42.4912 l -6.0702,-206.68933 c 0,0 -49.3201,37.48331 -109.4148,37.48331 -60.2464,0 -122.921,-40.8219 -122.921,-40.8219 L 3241.3684,167.8655 3199.1807,11.103326 c 0,-6.6771879 6.0702,-9.7122735 8.3465,-10.16753636 L 3310.7201,-30.932609 c 13.9614,0 22.0043,11.836834 22.0043,21.7008619 l 5.4632,11.2298167 c 3.7939,1.9728056 19.2728,-5.4631541 20.3351,-6.0701712 V -65.987848 a 77.394683,77.394683 0 0 0 -78.457,-77.394682 h -103.1929 c 0,0 -15.1754,-34.90349 -59.0324,-34.90349 h -196.0665 c -51.5965,0 -64.1921,47.95436 -64.1921,47.95436 l -136.1236,540.54874 -557.09,-319.594511 c 0,0 -60.3982,-40.973655 -123.2244,-40.973655 -62.8263,0 -115.3333,42.491198 -115.3333,42.491198 l 5.9184,206.841088 c 0,0 46.4368,-37.48331 109.2631,-37.48331 62.8263,0 123.3762,40.97365 123.3762,40.97365 l 685.4741,392.89183 z"/><path style="fill:#ccc;stroke-width:151.754;fill-opacity:1" id="path966" d="m 3078.2325,344.35573 57.6666,244.9314 715.6732,410.34358 c 0,0 64.0403,40.97369 122.921,40.97369 58.8807,0 115.485,-42.64299 115.485,-42.64299 l -5.9184,-206.68933 c 0,0 -45.8298,37.48331 -109.5666,37.48331 -63.7368,0 -122.921,-40.67015 -122.921,-40.67015 z"/><path style="fill:#ccc;stroke-width:151.754;fill-opacity:1" id="path968" d="m 3151.5298,656.51428 57.6667,245.08316 642.3758,368.15586 c 0,0 64.0403,40.8219 122.921,40.8219 58.8807,0 115.485,-42.4912 115.485,-42.4912 l -6.0702,-206.6893 c 0,0 -45.5262,37.4833 -109.4148,37.4833 -63.7368,0 -122.921,-40.6701 -122.921,-40.6701 z"/><path style="fill:#ccc;stroke-width:151.754;fill-opacity:1" id="path970" d="m 3225.1307,968.97634 57.3631,244.62786 569.0785,326.2717 c 0,0 64.0403,40.9737 122.921,40.9737 58.7289,0 115.485,-42.643 115.485,-42.643 l -6.0702,-206.5375 c 0,0 -45.5262,37.3315 -109.4148,37.3315 -63.8886,0 -122.921,-40.8219 -122.921,-40.8219 z"/></g></g><style id="style853" type="text/css"/></svg>