<svg xmlns="http://www.w3.org/2000/svg" xmlns:svg="http://www.w3.org/2000/svg" id="svg2" width="192" height="192" version="1.1" viewBox="0 0 192 192"><metadata id="metadata7"/><g id="layer1" transform="translate(0,-860.36216)"><rect id="rect1019" width="152" height="152" x="20" y="880.362" rx="9.935" ry="9.935" style="fill:#ff837d;fill-opacity:1;fill-rule:evenodd;stroke:none;stroke-width:.993464;stroke-opacity:1"/><circle id="circle1011" cx="121.831" cy="984.957" r="8.669" style="fill:#f9de81;fill-opacity:1;stroke:none;stroke-width:4.08711;stop-color:#000"/><path style="fill:#fff;fill-opacity:1;stroke:none;stroke-width:3.43202;stop-color:#000" id="path1013" d="m 115.08794,927.53158 h 13.48556 a 1.2843385,1.2843385 0 0 1 1.28434,1.28434 v 41.6886 a 1.2843385,1.2843385 0 0 1 -1.28434,1.28434 h -13.48556 a 1.2843385,1.2843385 0 0 1 -1.28433,-1.28434 v -41.6886 a 1.2843385,1.2843385 0 0 1 1.28433,-1.28434 z"/><path style="fill:#fff;fill-opacity:1;stroke:none;stroke-width:3.43202;stop-color:#000" id="path1015" d="m 57.530091,928.77734 10.472733,41.76546 a 1.6461492,1.6461492 0 0 0 1.596715,1.24577 h 27.199374 a 1.6461492,1.6461492 0 0 0 1.596715,-1.24577 l 10.472732,-41.76546 a 1.0020509,1.0020509 0 0 0 -0.97196,-1.24577 H 94.410846 a 1.6461514,1.6461514 0 0 0 -1.596716,1.24577 l -9.302527,37.09845 a 0.32205088,0.32205088 0 0 1 -0.624754,0 l -9.302528,-37.09845 a 1.6461514,1.6461514 0 0 0 -1.596715,-1.24577 H 58.502052 a 1.0020509,1.0020509 0 0 0 -0.971961,1.24577 z"/></g><style id="style853" type="text/css"/><style id="style853-9" type="text/css"/><style id="style853-3" type="text/css"/></svg>