<svg xmlns="http://www.w3.org/2000/svg" xmlns:svg="http://www.w3.org/2000/svg" id="svg2" width="192" height="192" version="1.1" viewBox="0 0 192 192"><metadata id="metadata7"/><g id="layer1" transform="translate(0,-860.36216)"><g id="g1042" transform="translate(-635.50788,105.16938)"><path id="path1034" d="m 665.00788,774.69276 c -5.54,0 -10,4.46 -10,10 V 900.7084 c 0,14.9491 12.03525,26.9844 26.98438,26.9844 h 99.03124 c 14.94914,0 26.98438,-12.0353 26.98438,-26.9844 V 784.69276 c 0,-5.54 -4.46,-10 -10,-10 z" style="fill:#fefefe;fill-opacity:1;fill-rule:evenodd;stroke:none;stroke-opacity:1"/><path id="path1036" d="m 671.59996,807.72009 v 82.19481 c 0,11.70682 9.42493,21.13176 21.13174,21.13176 h 77.55235 c 11.70683,0 21.13175,-9.42494 21.13175,-21.13176 v -82.19481 z" style="fill:#fe827c;fill-opacity:1;fill-rule:evenodd;stroke:none;stroke-width:.78311;stroke-opacity:1"/><circle style="fill:#fe827c;fill-opacity:1;stroke-width:.642804;stop-color:#000" id="circle1038" cx="781.346" cy="791.148" r="7.317"/><path id="path1040" d="m 717.40453,832.07521 v 22.62553 a 2.5,2.5 135 0 1 -2.5,2.5 h -13.55271 a 1.04401,1.04401 112.66561 0 0 -0.74248,1.77796 l 29.13999,29.47886 a 2.4713412,2.4713412 9.254482e-4 0 0 3.5151,6e-5 l 29.14198,-29.47898 a 1.0439626,1.0439626 67.335315 0 0 -0.74242,-1.7779 h -13.5548 a 2.5,2.5 45 0 1 -2.5,-2.5 v -22.62553 a 2.5,2.5 45 0 0 -2.5,-2.5 h -23.20466 a 2.5,2.5 135 0 0 -2.5,2.5 z" style="fill:#fefefe;fill-opacity:1;stroke-width:.590873;stop-color:#000"/></g></g><style id="style853" type="text/css"/></svg>