<svg xmlns="http://www.w3.org/2000/svg" xmlns:svg="http://www.w3.org/2000/svg" id="svg4561" width="192" height="192" version="1.1" viewBox="0 0 192 192"><defs id="defs4563"><clipPath id="clipPath5165" clipPathUnits="userSpaceOnUse"><rect style="fill:#00f;fill-rule:evenodd;stroke:#000;stroke-width:1px;stroke-linecap:butt;stroke-linejoin:miter;stroke-opacity:1" id="rect5167" width="751.429" height="760" x="-1397.143" y="-170.495"/></clipPath></defs><metadata id="metadata4566"/><g id="layer2" style="display:inline"><circle style="opacity:1;fill:#f8c18c;fill-opacity:1;stroke:none;stroke-width:10;stroke-linecap:round;stroke-linejoin:round;stroke-miterlimit:4;stroke-dasharray:none;stroke-opacity:1" id="path5215" cx="96" cy="96" r="88.5"/><path style="color:#000;font-style:normal;font-variant:normal;font-weight:400;font-stretch:normal;font-size:medium;line-height:normal;font-family:sans-serif;text-indent:0;text-align:start;text-decoration:none;text-decoration-line:none;text-decoration-style:solid;text-decoration-color:#000;letter-spacing:normal;word-spacing:normal;text-transform:none;direction:ltr;block-progression:tb;writing-mode:lr-tb;baseline-shift:baseline;text-anchor:start;white-space:normal;clip-rule:nonzero;display:inline;overflow:visible;visibility:visible;opacity:1;isolation:auto;mix-blend-mode:normal;color-interpolation:sRGB;color-interpolation-filters:linearRGB;solid-color:#000;solid-opacity:1;fill:#fff;fill-opacity:1;fill-rule:evenodd;stroke:none;stroke-width:95.08834076;stroke-linecap:round;stroke-linejoin:round;stroke-miterlimit:4;stroke-dasharray:none;stroke-dashoffset:0;stroke-opacity:1;color-rendering:auto;image-rendering:auto;shape-rendering:auto;text-rendering:auto;enable-background:accumulate" id="path5194" d="m 76.691727,62.259224 a 4.5996678,4.5618386 0 0 0 -4.569683,4.526388 L 71.99975,82.64392 a 1.8402046,1.8250702 0 0 1 0.415874,0.15838 l 21.507181,11.477759 a 1.8402046,1.8250702 0 0 1 0.0173,3.204709 L 72.252911,109.35524 A 1.8402046,1.8250702 0 0 1 71.7926,109.53089 L 71.672204,125.145 a 4.5996678,4.5618386 0 0 0 6.821294,4.02849 L 132.70173,99.502803 a 4.5996678,4.5618386 0 0 0 -0.0432,-8.010239 L 78.900582,62.803471 a 4.5996678,4.5618386 0 0 0 -2.208884,-0.544247 z"/></g></svg>