<svg xmlns="http://www.w3.org/2000/svg" xmlns:svg="http://www.w3.org/2000/svg" id="svg2" width="192" height="192" version="1.1" viewBox="0 0 192 192"><metadata id="metadata7"/><g id="layer1" transform="translate(0,-860.36216)"><path style="fill:#98dc9a;fill-opacity:1;stroke:none;stroke-width:3.2934;stroke-linecap:butt;stroke-linejoin:miter;stroke-miterlimit:4;stroke-dasharray:none;stroke-opacity:1" id="path1161" d="m 91.428439,870.26613 c -23.684684,23.17276 -53.661549,33.77641 -66.548414,37.50267 -3.486941,1.00825 -6.36859,4.5956 -6.30229,8.22541 1.362626,74.59925 26.322115,100.00119 71.748705,126.97769 3.121518,1.8537 8.225664,1.8537 11.34718,0 45.42641,-26.9765 70.38601,-52.37846 71.74864,-126.97769 0.0663,-3.62981 -2.81541,-7.21718 -6.30242,-8.22545 -12.88695,-3.7263 -42.86374,-14.32997 -66.54832,-37.50272 -2.594632,-2.53856 -6.548391,-2.53852 -9.143081,9e-5 z"/><g style="fill:#71a372;fill-opacity:1" id="g1167" transform="matrix(0.98602894,0,0,0.98602894,1.3412458,15.50635)"><circle id="circle1163" cx="96" cy="950.362" r="20.838" style="fill:#71a372;fill-opacity:1;stroke:none;stroke-width:19.6739;stroke-linecap:round;stroke-miterlimit:4;stroke-dasharray:none;stroke-opacity:1;stop-color:#000"/><rect id="rect1165" width="14.958" height="39.207" x="88.521" y="949.917" rx="4.237" ry="4.237" style="fill:#71a372;fill-opacity:1;stroke:none;stroke-width:20.6825;stroke-linecap:round;stroke-miterlimit:4;stroke-dasharray:none;stroke-opacity:1;stop-color:#000"/></g></g><style id="style853" type="text/css"/><style id="style853-9" type="text/css"/><style id="style853-3" type="text/css"/></svg>