<svg xmlns="http://www.w3.org/2000/svg" xmlns:svg="http://www.w3.org/2000/svg" id="svg2" width="192" height="192" version="1.1" viewBox="0 0 192 192"><metadata id="metadata7"/><g id="layer1" transform="translate(0,-860.36216)"><rect style="fill:#fefefe;fill-opacity:1;fill-rule:evenodd;stroke:none;stroke-opacity:1" id="rect949" width="153" height="153" x="19.5" y="879.862" rx="10"/><path id="path939" fill="#009fdf" d="m 74.80833,935.42168 -2.789849,7.65409 a 1.3997295,1.3997295 55.01318 0 0 1.315095,1.87907 h 53.639604 a 2.8576951,2.8576951 145.01318 0 0 2.68491,-1.87907 l 2.78984,-7.65409 a 1.3997294,1.3997294 55.013182 0 0 -1.31509,-1.87907 H 77.493235 a 2.8576949,2.8576949 145.01318 0 0 -2.684905,1.87907 z m -6.238373,17.1146 -2.789594,7.65177 a 1.3996278,1.3996278 55.015137 0 0 1.314967,1.87902 h 53.6396 a 2.8579027,2.8579027 145.01514 0 0 2.68503,-1.87902 l 2.7896,-7.65177 a 1.3996278,1.3996278 55.015137 0 0 -1.31497,-1.87902 h -53.6396 a 2.8579027,2.8579027 145.01514 0 0 -2.685033,1.87902 z m -6.228274,17.11466 -2.789592,7.65176 a 1.3996274,1.3996274 55.015145 0 0 1.314966,1.87902 h 53.639603 a 2.8573153,2.8573153 145.0096 0 0 2.68467,-1.87916 l 2.78782,-7.65148 a 1.3999155,1.3999155 55.009604 0 0 -1.31533,-1.87916 H 65.026717 a 2.8579036,2.8579036 145.01515 0 0 -2.685034,1.87902 z" style="fill:#99bdfe;fill-opacity:1;stroke-width:2.4923"/></g><style id="style853" type="text/css"/></svg>