<svg xmlns="http://www.w3.org/2000/svg" xmlns:xlink="http://www.w3.org/1999/xlink" id="Слой_1" x="0" y="0" enable-background="new 0 0 192 192" version="1.1" viewBox="0 0 192 192" xml:space="preserve"><rect width="192" height="192" fill="#D3B69A"/><g><path fill="#FEFEFE" d="M40,77.9c0.7-7.2,0.2-14.4,0.2-21.7c0-2.8,0.6-3.8,3.7-3.8c24.8,0.1,49.5,0.1,74.3,0.1 c1.4,0,2.8-0.1,4.1-0.1c9.3,0,18.6,0.1,27.8,0c2.1,0,2.9,0.4,2.9,2.8c-0.1,22.4-0.1,44.8,0,67.2c0,2.4-0.6,3-3,3 c-17.8-0.1-35.6,0-53.4-0.1c-2,0-3.7,0.5-5.3,1.7c-7.6,5.6-15.2,11-22.8,16.5c-2.6,1.9-4.7,4.5-7.6,6c-0.6,0.3-1.2,1.3-2.2,0.3 c-0.8-0.8,0-1.3,0.2-2c2-7.4,4.1-14.8,6.2-22.6c-7.4,0-14.5-0.1-21.7,0.1c-2.7,0.1-3.4-0.7-3.4-3.4C40.2,107.3,40,92.6,40,77.9z"/></g></svg>