<svg xmlns="http://www.w3.org/2000/svg" xmlns:svg="http://www.w3.org/2000/svg" id="svg2" width="192" height="192" version="1.1" viewBox="0 0 192 192"><metadata id="metadata7"/><g id="layer1" transform="translate(0,-860.36216)"><path style="fill:#97db99;fill-opacity:1;stroke:none;stroke-width:17.5154;stroke-miterlimit:4;stroke-dasharray:none;stroke-opacity:1;stop-color:#000" id="path1131" d="m 124.81256,884.77195 c -0.70679,-0.0286 -1.4357,0.15393 -2.09382,0.57281 l -70.965406,45.17621 c -1.754784,1.11705 -2.33321,3.46818 -1.29625,5.27142 l 43.025673,74.82211 c 1.03696,1.8033 3.284549,2.354 5.039321,1.237 l 52.012972,-33.10745 v -52.55132 l -22.77689,-39.6085 c -0.64813,-1.12704 -1.76767,-1.76466 -2.9456,-1.81228 z"/><path style="fill:#000;fill-opacity:.15000001;stroke:none;stroke-width:17.5154;stroke-miterlimit:4;stroke-dasharray:none;stroke-opacity:1;stop-color:#000" id="path1137" d="m 124.81256,884.77195 c -0.70679,-0.0286 -1.4357,0.15393 -2.09382,0.57281 l -70.965406,45.17621 c -1.754784,1.11705 -2.33321,3.46818 -1.29625,5.27142 l 43.025673,74.82211 c 1.03696,1.8033 3.284549,2.354 5.039321,1.237 l 52.012972,-33.10745 v -52.55132 l -22.77689,-39.6085 c -0.64813,-1.12704 -1.76767,-1.76466 -2.9456,-1.81228 z"/><path style="fill:#97db99;fill-opacity:1;stroke:none;stroke-width:17.5154;stroke-miterlimit:4;stroke-dasharray:none;stroke-opacity:1;stop-color:#000" id="path1139" d="m 88.616258,881.86587 c -0.706801,-0.0286 -1.435712,0.1564 -2.093754,0.57529 l -59.276964,37.7345 v 35.29014 l 30.040932,52.2427 c 1.03696,1.8032 3.284562,2.3565 5.039333,1.2393 l 70.967955,-45.17613 c 1.75478,-1.11701 2.33313,-3.46821 1.29614,-5.2714 L 91.561825,883.68063 c -0.648094,-1.12704 -1.767578,-1.76712 -2.945567,-1.81476 z"/><rect id="rect1145" width="144.588" height="113.833" x="19.858" y="917.028" rx="13.371" ry="13.371" style="fill:#99bdfe;fill-opacity:1;stroke:none;stroke-width:16.341;stroke-miterlimit:4;stroke-dasharray:none;stroke-opacity:1;stop-color:#000"/><path style="fill:#708cbd;fill-opacity:1;stroke:none;stroke-width:10.0137;stroke-miterlimit:4;stroke-dasharray:none;stroke-opacity:1;stop-color:#000" id="path1151" d="m 131.04193,950.359 c -13.06668,0 -23.58684,10.52016 -23.58684,23.58683 0,13.0668 10.52016,23.58443 23.58684,23.58443 h 38.09742 a 3.0023649,3.0023649 0 0 0 3.00236,-3.00236 v -41.16654 a 3.0023649,3.0023649 0 0 0 -3.00236,-3.00236 z"/><circle id="circle1153" cx="132.971" cy="973.945" r="8.95" style="fill:#fff;fill-opacity:1;stroke:none;stroke-width:10.1132;stroke-miterlimit:4;stroke-dasharray:none;stroke-opacity:1;stop-color:#000"/></g><style id="style853" type="text/css"/><style id="style853-9" type="text/css"/><style id="style853-3" type="text/css"/></svg>