<svg xmlns="http://www.w3.org/2000/svg" xmlns:svg="http://www.w3.org/2000/svg" id="svg121" width="192" height="192" version="1.1" viewBox="0 0 192 192"><metadata id="metadata127"/><g id="layer1"><g style="opacity:1;fill:#f8c18c;fill-opacity:1;stroke-width:0;stroke-miterlimit:4;stroke-dasharray:none" id="g119" fill="none" fill-rule="evenodd" stroke="#B1B5BD" opacity=".63" transform="translate(8,8)"><rect style="fill:#f8c18c;fill-opacity:1;stroke-width:0;stroke-miterlimit:4;stroke-dasharray:none" id="rect109" width="153" height="153" x="11.5" y="11.5" rx="10"/></g></g><g id="layer2"><path style="fill:#fff;fill-opacity:1;stroke-width:.605617" id="path72" d="M 54.149322,132.23908 C 52.444847,130.7089 51.632423,128.27564 44.147081,102.28183 39.666186,86.721349 35.999999,73.582386 35.999999,73.084139 c 0,-0.997142 1.256078,-1.393019 10.80218,-3.404517 3.770871,-0.794576 6.47968,-1.099452 6.812397,-0.766735 0.831992,0.831992 6.294063,20.66886 9.557592,34.710763 1.586997,6.82833 3.13129,12.36375 3.431763,12.30092 0.300473,-0.0629 1.626318,-3.94635 2.946321,-8.63005 1.531695,-5.43484 2.689083,-8.51581 3.199015,-8.51581 0.439454,0 0.799009,0.1053 0.799009,0.23401 0,0.12871 1.63727,5.63971 3.638378,12.24668 l 3.638381,12.01266 -1.259607,3.78512 c -0.818477,2.45953 -1.89686,4.32133 -3.079228,5.31622 -1.774037,1.49276 -2.053384,1.53112 -11.15067,1.53112 -9.325846,0 -9.332083,-0.001 -11.186208,-1.66544 z m 39.581667,0.94678 c -2.19433,-1.06105 -3.60407,-4.75789 -10.233873,-26.83693 -3.500656,-11.65814 -6.479765,-21.533114 -6.62024,-21.944395 -0.396858,-1.161919 1.18602,-1.714695 10.148246,-3.544015 5.671547,-1.157645 8.526557,-1.50263 8.947957,-1.081229 0.74017,0.740164 3.44219,11.613416 6.000601,24.147169 2.48547,12.1763 2.45547,12.06306 3.03084,11.44292 0.2765,-0.298 1.09466,-3.40336 1.81816,-6.90079 2.51902,-12.17705 11.81676,-45.282088 13.0757,-46.556602 0.66468,-0.672914 19.34384,-4.232075 19.81896,-3.776346 0.47618,0.456726 -3.58333,14.958633 -4.54269,16.228042 -0.29849,0.394953 -1.40959,0.904698 -2.46912,1.13277 -7.23743,1.557919 -13.4115,9.353235 -14.1877,17.913213 -0.42996,4.741793 1.18618,10.707783 3.84383,14.189493 l 2.01134,2.63501 -2.77004,9.2613 c -1.52353,5.09371 -3.14653,9.9942 -3.60668,10.88999 -1.67325,3.25733 -2.68342,3.52266 -13.24206,3.47807 -5.456641,-0.023 -10.283031,-0.31975 -11.023231,-0.67767 z M 135.92296,110.3252 c -9.24612,-2.81253 -14.03778,-13.05362 -10.07789,-21.539174 4.73639,-10.149514 17.87659,-12.400217 25.84926,-4.42756 4.58369,4.5837 5.63946,12.151234 2.53021,18.136194 -3.26672,6.28812 -11.62114,9.86265 -18.30158,7.83054 z"/></g></svg>