<svg xmlns="http://www.w3.org/2000/svg" xmlns:svg="http://www.w3.org/2000/svg" id="svg2" width="192" height="192" version="1.1" viewBox="0 0 192 192"><defs id="defs4"><style id="style907">.cls-1{fill:#0043e9}</style></defs><metadata id="metadata7"/><g id="layer1" transform="translate(0,-860.36216)"><g style="fill:#99bdfe;fill-opacity:1" id="g1009" transform="matrix(0.71795781,0,0,0.71795781,8.0036175,909.41132)"><g style="fill:#99bdfe;fill-opacity:1" id="g1007"><path style="fill:#99bdfe;fill-opacity:1" id="path1005" d="m 13.12,310.73 a 2.49,2.49 0 0 1 2.08,-1.1 2.61,2.61 0 0 1 2.57,2.56 2.27,2.27 0 0 1 -0.09,0.65 v 0 a 0.22,0.22 0 0 0 0,-0.08 c -9.66,35 37,63.26 105,63.26 68,0 114.47,-28.15 105,-63.08 v 0 a 2.54,2.54 0 0 1 -0.14,-0.83 2.42,2.42 0 0 1 2.42,-2.45 2.49,2.49 0 0 1 2.24,1.38 c 8.12,11.12 12.8,23.66 12.93,36.96 0.59,46.57 -54.27,92.42 -122.58,92.42 C 54.24,440.42 -0.61,394.52 0,348 0.19,334.59 4.91,322 13.12,310.73 Z" class="cls-1" transform="translate(0,-309.63)"/></g></g></g><style id="style853" type="text/css"/></svg>