<svg xmlns="http://www.w3.org/2000/svg" xmlns:svg="http://www.w3.org/2000/svg" id="svg2" width="192" height="192" version="1.1" viewBox="0 0 192 192"><defs id="defs4"><rect id="rect27227" width="111.723" height="97.934" x="22.981" y="13.081"/><rect id="rect17727" width="73.539" height="53.74" x="10.607" y="6.01"/></defs><metadata id="metadata7"/><g id="layer1" transform="translate(0,-860.36216)"><rect id="rect980" width="153" height="153" x="19.5" y="879.862" rx="10" style="fill:#e85e5c;fill-opacity:1;fill-rule:evenodd;stroke:none;stroke-opacity:1"/></g><g id="layer2"><path id="path39273" d="m 81.704931,116.24722 c -0.77164,-1.3387 -3.953068,-10.37107 -7.06984,-20.07191 C 70.27253,82.596967 68.519393,78.115244 67.018126,76.703266 65.149209,74.945502 64.585189,74.859121 53.470946,74.628505 l -11.597073,-0.240629 1.069187,2.112941 c 0.588053,1.162121 3.31662,9.86432 6.063483,19.338215 2.746863,9.473898 5.605205,18.067798 6.351872,19.097578 2.399778,3.30967 4.205016,3.72181 16.353654,3.73358 l 11.395845,0.011 z M 107.69703,96.77519 107.49849,74.869142 H 95.890148 84.281816 L 84.083273,96.77519 83.88473,118.68123 h 12.005418 12.005422 z m 25.56716,20.95884 c 3.24171,-1.66597 4.45292,-4.45469 9.50957,-21.894998 2.74686,-9.473895 5.47515,-18.175539 6.06285,-19.336987 l 1.06855,-2.111713 -12.09684,0.239401 c -11.66423,0.230841 -12.14788,0.302513 -13.52412,2.004078 -0.78501,0.970577 -3.98747,9.732996 -7.11657,19.472049 -3.1291,9.73905 -6.32062,18.80266 -7.09226,20.14136 l -1.40298,2.43401 11.39585,-0.011 c 7.55297,-0.007 12.00286,-0.323 13.19595,-0.93616 z" style="fill:#fefefe;stroke-width:.748925"/></g><style id="style853" type="text/css"/></svg>