<svg xmlns="http://www.w3.org/2000/svg" xmlns:svg="http://www.w3.org/2000/svg" id="svg2" width="192" height="192" version="1.1" viewBox="0 0 192 192"><metadata id="metadata7"/><g id="layer1" transform="translate(0,-860.36216)"><g id="g982" transform="translate(-506.46727,-360.86634)"><path id="path978" fill="#9abeff" fill-rule="evenodd" d="m 521.46727,1317.2285 v 71 c 0,5.523 4.4772,10 10,10 h 71 3 c 0.548,0 1.086,-0.044 1.611,-0.129 42.589,-2.39 76.389,-37.683 76.389,-80.871 0,-44.7351 -36.265,-81 -81,-81 -44.2205,0 -80.1645,35.4354 -80.9856,79.4596 -0.01,0.1789 -0.0144,0.3591 -0.0144,0.5404 z" clip-rule="evenodd" style="fill:#fefefe;fill-opacity:1"/><path id="path980" d="m 603.79498,1283.2679 9.14937,18.5386 a 5.7063711,5.7063711 36.000059 0 0 4.29652,3.1216 l 20.45868,2.9729 a 1.4806035,1.4806035 71.999961 0 1 0.82057,2.5254 l -14.80404,14.4306 a 5.7063627,5.7063627 107.99983 0 0 -1.64111,5.0508 l 3.49474,20.3758 a 1.4806038,1.4806038 143.99969 0 1 -2.14827,1.5608 l -18.29875,-9.62 a 5.7064752,5.7064752 1.9991139e-5 0 0 -5.31082,0 l -18.29879,9.62 a 1.4806037,1.4806037 36.00035 0 1 -2.14827,-1.5608 l 3.49476,-20.3758 a 5.7063558,5.7063558 72.000185 0 0 -1.64111,-5.0508 l -14.80405,-14.4306 a 1.480603,1.480603 108.00003 0 1 0.82057,-2.5254 l 20.45868,-2.9729 a 5.7063781,5.7063781 143.99997 0 0 4.29652,-3.1216 l 9.1494,-18.5386 a 1.4805951,1.4805951 2.8893454e-5 0 1 2.6554,0 z" style="fill:#95ded2;fill-opacity:1;stroke:none;stroke-width:9.28327;stroke-linecap:butt;stroke-linejoin:miter;stroke-miterlimit:4;stroke-dasharray:none;stroke-opacity:1;paint-order:markers fill stroke"/></g></g><style id="style853" type="text/css"/></svg>