<svg xmlns="http://www.w3.org/2000/svg" xmlns:svg="http://www.w3.org/2000/svg" id="svg2" width="192" height="192" version="1.1" viewBox="0 0 192 192"><metadata id="metadata7"/><g id="layer1" transform="translate(0,-860.36216)"><path style="fill:#97db99;fill-opacity:1;stroke-width:.999995" id="path990" fill="#9abeff" fill-rule="evenodd" d="m 176.99921,956.36182 v 70.99968 c 0,5.5229 -4.47718,10 -9.99993,10 H 95.999597 92.999629 c -0.548014,0 -1.085994,-0.044 -1.610992,-0.1284 -42.588791,-2.39 -76.388638,-37.68287 -76.388638,-80.87065 0,-44.73488 36.264837,-80.99962 80.999598,-80.99962 44.220323,0 80.164133,35.43522 80.985233,79.4592 0.0117,0.17896 0.0152,0.35911 0.0152,0.5404 z" clip-rule="evenodd"/><path style="opacity:1;fill:#fff;fill-opacity:1;stroke-width:40.0357;stroke-linecap:round;stroke-linejoin:round;stop-color:#000" id="path1316" d="m 86.143871,920.44793 -5.164295,5.1643 a 2.0000031,2.0000031 90.000055 0 0 -3e-6,2.82843 l 26.508147,26.50823 a 2.000004,2.000004 90.000043 0 1 0,2.82843 l -26.506303,26.50632 a 2.0000052,2.0000052 90.000061 0 0 -3e-6,2.82843 l 5.164292,5.16431 a 1.999994,1.999994 5.0522086e-5 0 0 2.828423,10e-6 l 26.506321,-26.50636 7.99271,-7.99271 a 2.0000025,2.0000025 90.000036 0 0 0,-2.82843 l -5.16429,-5.16429 -29.336573,-29.33666 a 1.9999975,1.9999975 4.6878611e-5 0 0 -2.828426,-10e-6 z"/></g><style id="style853" type="text/css"/><style id="style853-6" type="text/css"/><style id="style853-5" type="text/css"/><style id="style853-0" type="text/css"/><style id="style853-3" type="text/css"/><style id="style853-09" type="text/css"/><style id="style853-52" type="text/css"/><style id="style853-30" type="text/css"/></svg>