<svg xmlns="http://www.w3.org/2000/svg" xmlns:svg="http://www.w3.org/2000/svg" id="svg177" width="192" height="192" version="1.1" viewBox="0 0 192 192"><metadata id="metadata183"/><g id="layer1"><g id="g175" fill="none" fill-rule="evenodd" stroke="#B1B5BD" opacity=".63" transform="translate(8,8)" style="opacity:1;stroke-width:0;stroke-miterlimit:4;stroke-dasharray:none"><rect id="rect165" width="153" height="153" x="11.5" y="11.5" rx="10" style="fill:#fff;fill-opacity:1;stroke-width:0;stroke-miterlimit:4;stroke-dasharray:none"/></g></g><g id="layer2"><a id="a1027" style="fill:#ff837d;fill-opacity:1"><path id="path144" d="M 92.088044,153.97411 C 84.420216,152.60895 80.757133,145.28445 76.291652,139.79949 68.003586,128.5621 59.210857,117.65173 51.556026,105.97227 42.931497,90.850717 44.466358,70.758007 55.334588,57.150059 65.545546,43.830128 82.69365,36.439678 99.385437,37.793988 c 21.423913,0.77072 41.860803,16.887451 45.859843,38.265961 2.39802,12.717001 -0.9856,26.302761 -9.19387,36.329361 -9.19806,12.50212 -18.31763,25.07961 -28.00943,37.20439 -4.109,4.04844 -10.372893,5.56279 -15.953936,4.38041 z m 7.372163,-50.05027 C 109.52912,102.03373 115.92478,89.681103 110.9836,80.510755 107.06486,71.852219 95.23677,68.08323 87.273273,73.528886 c -8.565112,4.921046 -10.721673,17.862389 -3.74525,25.04187 3.849387,4.510514 10.12874,6.712784 15.932184,5.353084 z" style="fill:#ff837d;stroke-width:.278195;fill-opacity:1"/></a></g></svg>