<svg xmlns="http://www.w3.org/2000/svg" xmlns:svg="http://www.w3.org/2000/svg" id="svg2" width="192" height="192" version="1.1" viewBox="0 0 192 192"><metadata id="metadata7"/><g id="layer1" transform="translate(0,-860.36216)"><path id="path906" cx="-103" cy="441.738" r="102.95" style="opacity:.51499999;fill:#000;fill-opacity:1;stroke:#000;stroke-width:.09999999;stroke-linecap:round;stroke-linejoin:round;stroke-miterlimit:4;stroke-dasharray:none;stroke-dashoffset:0;stroke-opacity:1;paint-order:normal"/><g id="g848"><path style="fill:#fff;fill-opacity:1;stroke:none;stroke-width:.0999998;stroke-linecap:round;stroke-linejoin:round;stroke-miterlimit:4;stroke-dasharray:none;stroke-dashoffset:0;stroke-opacity:1;paint-order:normal" id="path827" d="m 158.57895,1018.9411 a 88.499996,88.499996 0 0 1 -125.157908,0 88.499996,88.499996 0 0 1 1.8e-5,-125.15789 88.499996,88.499996 0 0 1 125.15789,0 88.499996,88.499996 0 0 1 0,125.15789 z"/><path style="fill:#ff847f;fill-opacity:1;stroke:none;stroke-width:.0999998;stroke-linecap:round;stroke-linejoin:round;stroke-miterlimit:4;stroke-dasharray:none;stroke-dashoffset:0;stroke-opacity:1;paint-order:normal" id="path850" d="m 184.38672,960.80943 c -0.86843,0.11336 -1.84329,0.25781 -3.04492,0.45117 -28.895,4.80532 -61.53581,11.84244 -65.06836,15.375 -3.53255,3.53256 -10.56972,36.1733 -15.375,65.0684 -0.19352,1.2026 -0.3378,2.178 -0.45117,3.0468 a 88.499996,88.499996 0 0 0 58.13085,-25.8105 88.499996,88.499996 0 0 0 25.8086,-58.13087 z"/><path style="fill:#ff847f;fill-opacity:1;stroke:none;stroke-width:.0999998;stroke-linecap:round;stroke-linejoin:round;stroke-miterlimit:4;stroke-dasharray:none;stroke-dashoffset:0;stroke-opacity:1;paint-order:normal" id="path852" d="m 7.6113281,960.80943 a 88.499996,88.499996 0 0 0 25.8105469,58.13087 88.499996,88.499996 0 0 0 58.130859,25.8086 c -0.113365,-0.8684 -0.257812,-1.8433 -0.451172,-3.0449 -4.805319,-28.895 -11.842439,-61.53585 -15.375,-65.0684 -3.53256,-3.53255 -36.173259,-10.56972 -65.068359,-15.375 -1.2025996,-0.19352 -2.1780027,-0.3378 -3.0468749,-0.45117 z"/><path style="fill:#ff847f;fill-opacity:1;stroke:none;stroke-width:.0999998;stroke-linecap:round;stroke-linejoin:round;stroke-miterlimit:4;stroke-dasharray:none;stroke-dashoffset:0;stroke-opacity:1;paint-order:normal" id="path855" d="M 91.552734,867.97349 A 88.499996,88.499996 0 0 0 33.421875,893.78404 88.499996,88.499996 0 0 0 7.6132812,951.91489 c 0.8684276,-0.11336 1.8432863,-0.25781 3.0449218,-0.45117 28.895,-4.80532 61.53581,-11.84244 65.068359,-15.375 3.532551,-3.53256 10.56972,-36.17326 15.375,-65.06836 0.193519,-1.2026 0.337799,-2.178 0.451172,-3.04687 z"/><path style="fill:#ff847f;fill-opacity:1;stroke:none;stroke-width:.0999998;stroke-linecap:round;stroke-linejoin:round;stroke-miterlimit:4;stroke-dasharray:none;stroke-dashoffset:0;stroke-opacity:1;paint-order:normal" id="path912" d="m 100.44727,867.97544 c 0.11336,0.86843 0.25781,1.84329 0.45117,3.04492 4.8053,28.895 11.84245,61.5358 15.375,65.06836 3.53254,3.53255 36.17337,10.5697 65.06836,15.375 1.20261,0.19352 2.17799,0.3378 3.04687,0.45117 a 88.499996,88.499996 0 0 0 -25.81055,-58.13085 88.499996,88.499996 0 0 0 -58.13085,-25.8086 z"/></g><path style="fill:#fff;fill-opacity:1;stroke:none;stroke-width:.0999998;stroke-linecap:round;stroke-linejoin:round;stroke-miterlimit:4;stroke-dasharray:none;stroke-dashoffset:0;stroke-opacity:1;paint-order:normal" id="path857" d="m -189.33226,1084.9944 a 88.499996,88.499996 0 0 1 -125.15791,0 88.499996,88.499996 0 0 1 2e-5,-125.15787 88.499996,88.499996 0 0 1 125.15789,0 88.499996,88.499996 0 0 1 0,125.15787 z"/></g></svg>