<svg xmlns="http://www.w3.org/2000/svg" xmlns:svg="http://www.w3.org/2000/svg" id="svg2" width="192" height="192" version="1.1" viewBox="0 0 192 192"><metadata id="metadata7"/><g id="layer1" transform="translate(0,-860.36216)"><rect style="fill:#99bdfe;fill-opacity:1;fill-rule:evenodd;stroke:none;stroke-opacity:1" id="rect4837" width="153" height="153" x="19.5" y="879.862" rx="10"/><path id="path4848" d="M 82.599609 104.00586 C 82.176377 104.41767 74.740918 111.62034 64.849609 118.52148 C 58.831055 123.0127 58.023752 126.50812 61.757812 130.24219 C 65.491872 133.97626 68.987305 133.16893 73.478516 127.15039 C 80.379645 117.25907 87.58233 109.82362 87.994141 109.40039 C 85.972012 107.84147 84.158706 106.02781 82.599609 104.00586 z" transform="translate(0,860.36216)" style="fill:#fefefe;fill-opacity:1;stroke:none;stroke-width:.256503;stroke-linecap:butt;stroke-linejoin:miter;stroke-miterlimit:4;stroke-dasharray:none;stroke-opacity:1;opacity:1"/><path style="color:#000;font-style:normal;font-variant:normal;font-weight:400;font-stretch:normal;font-size:medium;line-height:normal;font-family:sans-serif;font-variant-ligatures:normal;font-variant-position:normal;font-variant-caps:normal;font-variant-numeric:normal;font-variant-alternates:normal;font-variant-east-asian:normal;font-feature-settings:normal;font-variation-settings:normal;text-indent:0;text-align:start;text-decoration:none;text-decoration-line:none;text-decoration-style:solid;text-decoration-color:#000;letter-spacing:normal;word-spacing:normal;text-transform:none;writing-mode:lr-tb;direction:ltr;text-orientation:mixed;dominant-baseline:auto;baseline-shift:baseline;text-anchor:start;white-space:normal;shape-padding:0;shape-margin:0;inline-size:0;clip-rule:nonzero;display:inline;overflow:visible;visibility:visible;isolation:auto;mix-blend-mode:normal;color-interpolation:sRGB;color-interpolation-filters:linearRGB;solid-color:#000;solid-opacity:1;vector-effect:none;fill:#fefefe;fill-opacity:1;fill-rule:nonzero;stroke:none;stroke-width:5.05676;stroke-linecap:butt;stroke-linejoin:miter;stroke-miterlimit:4;stroke-dasharray:none;stroke-dashoffset:0;stroke-opacity:1;paint-order:markers fill stroke;color-rendering:auto;image-rendering:auto;shape-rendering:auto;text-rendering:auto;enable-background:accumulate;stop-color:#000;stop-opacity:1;opacity:1" id="path4962" d="M 105.95703 919.86133 C 91.32721 919.86133 79.412107 931.77643 79.412109 946.40625 C 79.412113 961.03607 91.327214 972.94922 105.95703 972.94922 C 120.58685 972.94922 132.5 961.03606 132.5 946.40625 C 132.5 931.77643 120.58685 919.86133 105.95703 919.86133 z M 105.95703 924.91797 C 117.85397 924.91797 127.44336 934.50931 127.44336 946.40625 C 127.44336 958.30319 117.85397 967.89258 105.95703 967.89258 C 94.060089 967.89258 84.468753 958.30319 84.46875 946.40625 C 84.468748 934.5093 94.060086 924.91797 105.95703 924.91797 z"/><text style="font-style:normal;font-variant:normal;font-weight:700;font-stretch:normal;font-size:32.0041px;line-height:1.25;font-family:now,bolrd;-inkscape-font-specification:'now, bolrd Bold';letter-spacing:0;word-spacing:0;opacity:1;fill:#fefefe;fill-opacity:1;stroke-width:.800103" id="text2113" x="92.294" y="954.406" xml:space="preserve"><tspan id="tspan2111" x="92.294" y="954.406" style="fill:#fefefe;fill-opacity:1;stroke-width:.800103">w</tspan></text></g><style id="style853" type="text/css"/></svg>