<svg xmlns="http://www.w3.org/2000/svg" xmlns:svg="http://www.w3.org/2000/svg" id="svg2" width="192" height="192" version="1.1" viewBox="0 0 192 192"><defs id="defs4"><style id="style907"/></defs><metadata id="metadata7"/><g id="layer1" transform="translate(0,-860.36216)"><circle style="fill:#708cbd;fill-opacity:1;fill-rule:evenodd;stroke:none;stroke-opacity:1" id="circle1155" cx="96" cy="956.362" r="88"/><path id="polygon1151" d="m 480.0048,104.03356 4.7904,3.55288 a 2.5942579,2.5942579 6.526593 0 0 2.58029,0.2952 L 508.16,98.84 v 6.84 a 1.8906271,1.8906271 62.124517 0 0 0.8266,1.56279 l 1.1668,0.79442 A 0.52892502,0.52892502 152.12452 0 0 510.98,107.6 v -9.99 l 2.44,-1.06 v 6.43 a 1.6826425,1.6826425 59.276845 0 0 0.87837,1.47798 l 1.07326,0.58404 A 0.5943033,0.5943033 149.27684 0 0 516.25,104.52 v -9.2 l 7.91444,-3.441803 a 0.86765778,0.86765778 96.543666 0 0 0.17118,-1.492333 l -5.82124,-4.321728 a 2.5159902,2.5159902 5.7875719 0 0 -2.56367,-0.259846 l -35.79142,16.70142 a 0.89379558,0.89379558 95.773916 0 0 -0.15449,1.52785 z M 500.55,88.899999 c 1.92,-0.909996 2.23,0.470006 2.23,0.470006 l 19.08633,-8.745179 a 0.86090929,0.86090929 95.236406 0 0 0.13629,-1.487107 l -4.23524,-2.975429 a 2.6123311,2.6123311 5.2251898 0 0 -2.59081,-0.236931 l -35.01314,16.059289 a 0.86200175,0.86200175 95.245353 0 0 -0.13666,1.488504 l 4.22646,2.973703 a 2.6183726,2.6183726 5.3226355 0 0 2.59188,0.241474 L 497.14,92.000001 c -0.52529,-0.644177 -0.19056,-1.615946 0.62,-1.799996 -0.50673,-0.66882 -0.27508,-1.63402 0.48,-2.000005 1.33,-0.699998 2.31,0.77 2.31,0.77 m -9.85817,-4.970345 -7.25366,3.55069 a 1.3998316,1.3998316 9.4590621 0 1 -1.60528,-0.267452 l -0.76578,-0.765786 a 0.73214388,0.73214388 98.790505 0 1 0.18055,-1.167601 l 7.01468,-3.639012 a 1.4058038,1.4058038 8.0066531 0 1 1.61385,0.227003 l 0.98762,0.935006 a 0.69390789,0.69390789 98.67521 0 1 -0.17198,1.127152 z m 1.79744,-6.175279 -8.33854,4.021248 a 1.4085518,1.4085518 9.6271898 0 1 -1.60784,-0.272731 l -0.77578,-0.775786 a 0.72413717,0.72413717 99.090305 0 1 0.18532,-1.158287 l 8.10514,-4.09764 a 1.4247687,1.4247687 8.2444112 0 1 1.6201,0.234743 l 0.98466,0.928154 a 0.68797285,0.68797285 98.781296 0 1 -0.17306,1.120299 z" transform="matrix(1.5618314,0,0,1.5618314,-688.30487,812.91575)" style="fill:#f9de81;fill-opacity:1"/></g><style id="style853" type="text/css"/></svg>