<svg xmlns="http://www.w3.org/2000/svg" xmlns:svg="http://www.w3.org/2000/svg" id="svg2" width="192" height="192" version="1.1" viewBox="0 0 192 192"><defs id="defs4"><style id="style907"/></defs><metadata id="metadata7"/><g id="layer1" transform="translate(0,-860.36216)"><rect id="rect961" width="153" height="153" x="19.5" y="879.862" rx="10" style="fill:#96dfd3;fill-opacity:1;fill-rule:evenodd;stroke:none;stroke-opacity:1"/><g style="fill:#fff;fill-opacity:1" id="g1065" transform="matrix(0.12476017,0,0,0.12476017,124.63214,913.11376)"><path style="fill:#fff;fill-opacity:1;stroke-width:10.5209" id="path1049" d="m -628.948,253.96289 c 27.51751,59.31856 55.02286,118.64321 82.56013,177.95233 1.7111,3.42278 3.42198,6.84567 5.13323,10.26837 6.55859,0 13.11719,0 19.67578,0 2.76909,-5.56144 5.63318,-11.07912 8.11202,-16.77929 6.6417,-14.61198 13.28339,-29.22396 19.92509,-43.83594 7.69681,16.9001 15.33854,33.82588 23.08312,50.7035 1.65138,3.30389 3.30231,6.608 4.95399,9.91173 6.55859,0 13.11719,0 19.67578,0 2.72471,-5.47507 5.55465,-10.90176 7.97923,-16.51992 26.28541,-58.18093 52.57209,-116.36129 78.85671,-174.54258 -10.27995,0 -20.5599,0 -30.83985,0 -22.63924,48.66406 -45.28148,97.32672 -67.92187,145.99024 -11.06,-23.97492 -22.20025,-47.91256 -33.08768,-71.96659 -11.24564,-24.6835 -22.53217,-49.34689 -33.79513,-74.02365 -10.30404,0 -20.60808,0 -30.91211,0 14.99507,32.5487 29.98954,65.09768 44.98437,97.64649 -7.30664,16.07357 -14.61328,32.14713 -21.91992,48.2207 -22.28536,-48.6223 -44.56909,-97.24535 -66.85547,-145.86719 -10.30859,0 -20.61719,0 -30.92578,0 0.43945,0.94727 0.87891,1.89453 1.31836,2.8418 z"/><path style="fill:#fff;fill-opacity:1;stroke-width:10.5209" id="path1051" d="m -347.25766,254.10156 c 22.48295,39.96447 44.96193,79.93116 67.44335,119.89649 0,22.72851 0,45.45703 0,68.18554 9.32943,0 18.65886,0 27.98829,0 0,-22.722 0,-45.44401 0,-68.16601 23.40977,-40.96534 46.81736,-81.93193 70.22851,-122.89649 -10.79101,0 -21.58203,0 -32.37305,0 -17.10779,30.19157 -34.21619,60.38279 -51.32421,90.57422 -17.10803,-30.19143 -34.21643,-60.38265 -51.32422,-90.57422 -10.77279,0 -21.54558,0 -32.31836,0 0.55989,0.99349 1.11979,1.98698 1.67969,2.98047 z"/><path style="fill:#fff;fill-opacity:1;stroke-width:10.5209" id="path1053" d="m -170.19035,253.12109 c 0,8.66342 0,17.32683 0,25.99024 36.89518,0 73.790368,0 110.68555,0 -40.67869,54.35768 -81.36016,108.71328 -122.03712,163.07226 55.54818,0 111.096365,0 166.644543,0 0,-9.32942 0,-18.65885 0,-27.98828 -36.895183,0 -73.790365,0 -110.685553,0 40.679347,-54.35833 81.361475,-108.71458 122.0390682,-163.07422 -55.5488282,0 -111.0976682,0 -166.6464882,0 0,0.66667 0,1.33334 0,2 z"/><g style="fill:#fff;fill-opacity:1" id="g1063" transform="translate(7.000002)"><path style="fill:#fff;fill-opacity:1;stroke-width:10.5209" id="path1055" d="m -0.48828125,333.08008 c 0,8.3125 0,16.625 0,24.9375 54.91992225,0 109.83984125,0 164.75976125,0 0,-8.97917 0,-17.95834 0,-26.9375 -54.91992,0 -109.839839,0 -164.75976125,0 0,0.66666 0,1.33333 0,2 z"/><path style="fill:#fff;fill-opacity:1;stroke-width:10.5209" id="path1057" d="m -0.48828125,333.08008 c 0,8.3125 0,16.625 0,24.9375 54.91992225,0 109.83984125,0 164.75976125,0 0,-8.97917 0,-17.95834 0,-26.9375 -54.91992,0 -109.839839,0 -164.75976125,0 0,0.66666 0,1.33333 0,2 z"/><path style="fill:#fff;fill-opacity:1;stroke-width:10.5209" id="path1059" d="m -0.48828125,253.12109 c 0,8.3125 0,16.625 0,24.9375 54.91992225,0 109.83984125,0 164.75976125,0 0,-8.97916 0,-17.95833 0,-26.9375 -54.91992,0 -109.839839,0 -164.75976125,0 0,0.66667 0,1.33334 0,2 z"/><path style="fill:#fff;fill-opacity:1;stroke-width:10.5209" id="path1061" d="m -0.48828125,417.24609 c 0,8.3125 0,16.625 0,24.9375 54.91992225,0 109.83984125,0 164.75976125,0 0,-8.97916 0,-17.95833 0,-26.9375 -54.91992,0 -109.839839,0 -164.75976125,0 0,0.66667 0,1.33334 0,2 z"/></g></g></g><style id="style853" type="text/css"/></svg>