<svg xmlns="http://www.w3.org/2000/svg" xmlns:svg="http://www.w3.org/2000/svg" id="svg2" width="192" height="192" version="1.1" viewBox="0 0 192 192"><metadata id="metadata7"/><g id="layer1" transform="translate(0,-860.36216)"><rect style="fill:#575a5c;fill-opacity:1;fill-rule:evenodd;stroke:none;stroke-opacity:1" id="rect895" width="153" height="153" x="19.5" y="879.862" rx="10"/><path id="path902" fill="#7a4e0e" d="m 101.59537,938.90387 v -9.28223 h 21.85621 a 2,2 45 0 1 2,2 v 49.48128 a 2,2 135 0 1 -2,2 h -21.85621 v -9.19549 h 13.96673 v -35.00356 z" style="fill:#8e7061;fill-opacity:1;stroke-width:.433749"/><path id="polygon904" d="m 68.548432,983.10292 h 12.1836 l 8.784557,17.72668 a 0.46837793,0.46837793 166.81949 0 0 0.888051,-0.208 v -26.84429 l -13.966725,0.0434 V 938.81714 H 90.40464 v -9.19548 H 68.548432 a 2,2 135 0 0 -2,2 v 49.48126 a 2,2 45 0 0 2,2 z" style="fill:#f8c28d;fill-opacity:1;stroke-width:.433749"/></g><style id="style853" type="text/css"/></svg>