<svg xmlns="http://www.w3.org/2000/svg" xmlns:svg="http://www.w3.org/2000/svg" id="svg4349" width="192" height="192" version="1.1" viewBox="0 0 192 192"><metadata id="metadata4354"/><g id="layer2"><path id="rect4160" d="M 41.779297 31.914062 C 41.047039 31.914062 40.315001 32.194769 39.753906 32.755859 C 34.518595 37.991243 29.284119 43.22748 24.048828 48.462891 C 23.951198 48.560523 23.790984 48.560528 23.693359 48.462891 C 18.458659 43.22755 13.224932 37.99121 7.9902344 32.755859 C 7.8385434 32.604169 7.673334 32.475914 7.5 32.365234 L 7.5 143.51367 L 184.5 143.51367 L 184.5 31.962891 C 183.94918 32.064561 183.42186 32.328149 182.99414 32.755859 C 177.75885 37.991263 172.52432 43.227452 167.28906 48.462891 C 167.19143 48.560523 167.03122 48.560528 166.93359 48.462891 L 151.23047 32.755859 C 150.10828 31.633679 148.30188 31.633679 147.17969 32.755859 C 141.93716 37.999 136.69567 43.243205 131.45312 48.486328 C 131.3555 48.583965 131.19529 48.58396 131.09766 48.486328 C 125.85451 43.243145 120.61231 37.999024 115.36914 32.755859 C 114.24695 31.633679 112.44056 31.633679 111.31836 32.755859 C 106.12056 37.991462 100.85774 43.164843 95.669922 48.410156 C 95.5729 48.508253 95.415985 48.507793 95.318359 48.410156 C 90.100892 43.192075 84.883465 37.97396 79.666016 32.755859 C 78.543829 31.633679 76.735476 31.633679 75.613281 32.755859 C 70.370762 37.99901 65.129242 43.243177 59.886719 48.486328 C 59.789094 48.583965 59.628875 48.583965 59.53125 48.486328 C 54.288738 43.243167 49.047198 37.99902 43.804688 32.755859 C 43.243591 32.194769 42.511555 31.914063 41.779297 31.914062 z" style="fill:#56595b;fill-opacity:1;fill-rule:evenodd;stroke:none"/><rect id="rect4194" width="47.125" height="6.431" x="31.938" y="79.103" rx="2.69" ry="2.69" style="fill:#f5db80;fill-opacity:1;fill-rule:evenodd;stroke:none;stroke-width:.34341px;stroke-linecap:butt;stroke-linejoin:miter;stroke-opacity:1"/><text style="font-style:normal;font-variant:normal;font-weight:300;font-stretch:normal;font-size:40px;line-height:1.25;font-family:'Now Alt';-inkscape-font-specification:'Now Alt Light';letter-spacing:0;word-spacing:0;fill:#f5db80;fill-opacity:1" id="text890" x="97.426" y="106.727" xml:space="preserve"><tspan id="tspan888" x="97.426" y="106.727">xda</tspan></text><rect style="fill:#f5db80;fill-opacity:1;fill-rule:evenodd;stroke:none;stroke-width:.372198px;stroke-linecap:butt;stroke-linejoin:miter;stroke-opacity:1" id="rect846" width="55.357" height="6.431" x="23.674" y="93.452" rx="2.69" ry="2.69"/><rect id="rect848" width="39.92" height="6.431" x="39.198" y="107.789" rx="2.69" ry="2.69" style="fill:#f5db80;fill-opacity:1;fill-rule:evenodd;stroke:none;stroke-width:.31607px;stroke-linecap:butt;stroke-linejoin:miter;stroke-opacity:1"/><path style="fill:#f5db80;fill-opacity:1;fill-rule:evenodd;stroke:none;stroke-opacity:1" id="path858" d="M 184.5,143.51362 H 7.4999962 v 6.4571 c 0,5.6033 4.5119298,10.1152 10.1152408,10.1152 H 174.38477 c 5.60331,0 10.11523,-4.5119 10.11523,-10.1152 z"/></g><style id="style4358" type="text/css"/></svg>