<svg xmlns="http://www.w3.org/2000/svg" xmlns:svg="http://www.w3.org/2000/svg" id="svg2" width="192" height="192" version="1.1" viewBox="0 0 192 192"><defs id="defs4"><style id="style927"/></defs><metadata id="metadata7"/><g id="layer1" transform="translate(0,-860.36216)"><circle id="circle995" cx="96" cy="956.362" r="88" style="fill:#54688c;fill-opacity:1;fill-rule:evenodd;stroke:none;stroke-opacity:1"/><path id="path970" d="m 107.86661,925.72877 a 30.545127,30.545127 0 0 0 -22.4779,9.82605 0.15835906,0.15835906 0 0 0 0.116818,0.2596 h 1.35514 a 0.310228,0.310228 0 0 0 0.202492,-0.0766 27.719326,27.719326 0 0 1 18.26191,-6.80165 c 15.29074,0 27.68558,12.27932 27.68558,27.42598 0,15.14665 -12.39484,27.42597 -27.68558,27.42597 a 27.728413,27.728413 0 0 1 -18.258014,-6.81204 0.310228,0.310228 0 0 0 -0.202492,-0.0766 h -1.359036 a 0.15835906,0.15835906 0 0 0 -0.116818,0.2596 30.545127,30.545127 0 0 0 22.4779,9.83644 c 16.91456,0 30.63339,-13.71364 30.63339,-30.63339 0,-16.91976 -13.71883,-30.6334 -30.63339,-30.6334 z" style="fill:#fff;fill-opacity:1;stroke-width:.129803"/><path id="path972" d="m 122.73968,956.31807 c 0,-9.68455 -6.66298,-16.1151 -16.65744,-16.1151 -9.994466,0 -17.044821,6.50802 -17.044821,16.19258 0,9.68455 6.972881,16.1151 17.354731,16.1151 8.59988,0 14.33314,-4.57111 15.88267,-11.31156 h -9.5296 c -0.85225,2.47925 -3.09906,3.9513 -6.50803,3.9513 -4.49363,0 -6.817926,-2.71168 -7.20531,-7.12784 h 23.7078 z m -16.50249,-8.52241 c 3.33149,0 5.2684,1.54953 6.27559,4.26121 H 99.651691 c 1.007199,-2.6342 3.099059,-4.26121 6.585499,-4.26121 z" style="font-style:normal;font-variant:normal;font-weight:700;font-stretch:normal;font-size:115.348px;line-height:1.25;font-family:Now;-inkscape-font-specification:'Now Bold';letter-spacing:0;word-spacing:0;fill:#fff;fill-opacity:1;stroke-width:1.54952"/><path id="path974" d="M 91.540943,940.86687 H 79.687042 l -7.205308,8.52241 -7.205313,-8.52241 H 53.5 L 66.593524,956.36216 53.5,971.85745 h 11.931374 l 7.127834,-8.44494 7.127834,8.44494 H 91.540943 L 78.447419,956.43963 Z" style="font-style:normal;font-variant:normal;font-weight:700;font-stretch:normal;font-size:115.348px;line-height:1.25;font-family:Now;-inkscape-font-specification:'Now Bold';letter-spacing:0;word-spacing:0;fill:#fff;fill-opacity:1;stroke-width:1.54952"/></g><style id="style853" type="text/css"/><style id="style853-9" type="text/css"/><style id="style853-3" type="text/css"/></svg>