<svg xmlns="http://www.w3.org/2000/svg" xmlns:svg="http://www.w3.org/2000/svg" id="svg2" width="192" height="192" version="1.1" viewBox="0 0 192 192"><metadata id="metadata7"/><g id="layer1" transform="translate(0,-860.36216)"><rect style="fill:#f9de81;fill-opacity:1" id="rect888" width="152" height="152" x="20" y="880.362" fill="#728dbe" rx="10" ry="10"/><path style="fill:#83868c;fill-opacity:1" id="path890" fill="#9abeff" fill-rule="evenodd" d="m 20,903.36199 c 0,-5.5228 4.4752,-10 9.9981,-10 11.1769,0 28.3903,0 33.5687,0 8.4587,0 11.5737,13.2564 15.366,13.2564 21.0057,0 63.7042,0 83.0912,0 5.523,0 9.976,4.4772 9.976,10 V 1022.362 c 0,5.523 -4.477,10 -10,10 H 30 c -5.5228,0 -10,-4.477 -10,-10 z" clip-rule="evenodd"/><path style="opacity:1;fill:#d8d8d8;fill-opacity:1;stroke:none;stroke-width:12.2794;stroke-linecap:round;stroke-linejoin:round;stop-color:#000" id="path1080" d="M 46.671875 172 L 84.142578 172 L 102.64258 153.5 C 106.09266 150.0499 112.57935 148.89705 117.40625 149.50195 C 118.76766 149.67245 120.1398 149.75791 121.51758 149.75781 C 139.78177 149.75771 154.58779 134.9517 154.58789 116.6875 C 154.58805 111.8668 153.53477 107.11673 151.51562 102.76562 C 150.81842 101.26323 149.18139 101.05505 148.00977 102.22656 L 128.61719 121.61719 A 3.1641845 3.1641845 0 0 1 126.06445 122.5293 L 117.39062 121.6582 A 1.834295 1.834295 0 0 1 115.74805 120.01562 L 114.87891 111.34375 A 3.1647963 3.1647963 0 0 1 115.78906 108.78906 L 134.95117 89.626953 C 136.12269 88.455363 135.89142 86.858234 134.36523 86.214844 C 130.3084 84.504444 125.94033 83.617287 121.51758 83.617188 C 121.44988 83.616998 121.38216 83.616998 121.31445 83.617188 C 103.12964 83.728988 88.447026 98.50239 88.447266 116.6875 C 88.447266 117.6524 88.490229 118.61582 88.574219 119.57422 C 88.998789 124.42032 87.707892 130.96592 84.257812 134.41602 L 46.671875 172 z" transform="translate(0,860.36216)"/><path style="opacity:.598988;fill:#b1b5bd;fill-opacity:1;stroke:none;stroke-width:2.855;stroke-linecap:round;stroke-linejoin:round;stop-color:#000" id="path1086" d="M 61.029297 172 L 69.785156 172 L 94.277344 147.50781 C 95.489799 146.29536 95.489806 144.34332 94.277344 143.13086 C 93.064889 141.9184 91.112845 141.9184 89.900391 143.13086 L 61.029297 172 z" transform="translate(0,860.36216)"/></g><style id="style853" type="text/css"/></svg>