<svg xmlns="http://www.w3.org/2000/svg" xmlns:svg="http://www.w3.org/2000/svg" id="Слой_1" x="0" y="0" enable-background="new 0 0 192 192" version="1.1" viewBox="0 0 192 192" xml:space="preserve"><path style="opacity:1;vector-effect:none;fill:#4a4a4a;fill-opacity:1;stroke-width:4;paint-order:stroke fill markers" id="rect1949" d="m 44,64 c -6.648,0 -12,5.352 -12,12 v 72 c 0,6.648 5.352,12 12,12 h 36 c 0,20 -20,20 -20,20 v 4 h 72 v -4 c 0,0 -20,0 -20,-20 h 36 c 6.648,0 12,-5.352 12,-12 V 76 c 0,-6.648 -5.352,-12 -12,-12 z"/><path id="path959" d="m 71.809309,57.028929 v 70.013281 c 0,1.65685 1.155764,2.31571 2.581568,1.47176 8.581006,-5.07921 36.873693,-21.82127 59.266353,-35.017151 1.42743,-0.841178 1.42737,-2.204432 -3.1e-4,-3.045206 L 74.394349,55.551285 a 1.7148406,1.7148406 0 0 0 -2.58504,1.477644 z" class="st1" style="fill:#000;fill-opacity:0;stroke-width:1.23197997"/><path id="path961" d="m 83.759532,77.726223 v 28.495487 c 0,1.65685 1.156884,2.3176 2.584183,1.47618 4.769871,-2.81195 15.280555,-9.00491 24.148925,-14.206735 1.42914,-0.838274 1.43036,-2.198188 0.002,-3.038246 L 86.345335,76.247283 a 1.7158382,1.7158382 0 0 0 -2.585803,1.47894 z" class="st0" style="fill:#000;fill-opacity:0;stroke-width:1.23197997"/><rect id="rect963" width="7.638" height="25.872" x="83.76" y="98.873" class="st0" style="fill:#000;fill-opacity:0;stroke-width:1.23197997"/><metadata id="metadata13"/><style id="style824" type="text/css">.st0{fill:#cd201f}.st1{fill:#fff}</style><rect style="opacity:1;vector-effect:none;fill:#fefeff;fill-opacity:1;stroke-width:4;paint-order:stroke fill markers" id="rect1953" width="104" height="72" x="44" y="76" ry="4"/><path style="fill:#dc505e;stroke-width:4" id="path1955" d="m 64,60 c 0,0 -12,28.79764 -12,44 0,44 27.495436,52.6444 52,52 17.93196,-0.47156 36,-12 36,-40 0,-19.09044 -24,-32.90956 -24,-52 0,-20 8,-36 8,-36 0,0 -24,26.61544 -24,44 0,8 8,20 8,32 C 96,84 92,76 92,68 92,60 100,47.92568 100,36 100,16 76,8 76,8 c 0,0 8,18.2932 8,28 0,8 -15.772144,25.64136 -16,40 -0.24764,15.60428 16,44 16,44 0,0 -20,-16 -20,-32 z"/></svg>