<svg xmlns="http://www.w3.org/2000/svg" xmlns:svg="http://www.w3.org/2000/svg" id="svg2" width="192" height="192" version="1.1" viewBox="0 0 192 192"><metadata id="metadata7"/><g id="layer1" transform="translate(0,-860.36216)"><rect id="rect842" width="153" height="153" x="19.5" y="879.862" rx="10" style="fill:#ff847f;fill-opacity:1;fill-rule:evenodd;stroke:none;stroke-opacity:1"/><path id="path868" fill="red" d="m 98.960117,990.86216 v -19.40904 a 11.875041,11.875041 99.560064 0 1 0.6551,-3.88967 l 15.881723,-45.81162 a 1.4234251,1.4234251 54.560064 0 0 -1.3449,-1.88967 h -3.29708 a 2.7897511,2.7897511 144.36289 0 0 -2.64208,1.89413 l -12.142465,35.8203 a 0.69455493,0.69455493 179.57482 0 1 -1.312197,0.01 L 84.452316,928.60581 a 2.8339281,2.8339281 35.211927 0 0 -2.670119,-1.88439 h -3.96842 a 1.3892393,1.3892393 124.7846 0 0 -1.301849,1.87419 l 14.423768,38.72063 a 11.09842,11.09842 79.784603 0 1 0.698151,3.87419 v 19.67173 a 2,2 45 0 0 2,2 h 3.32627 a 2,2 135 0 0 2,-2 z" style="fill:#fefefe;fill-opacity:1;stroke-width:2.91884"/></g></svg>