<svg xmlns="http://www.w3.org/2000/svg" xmlns:svg="http://www.w3.org/2000/svg" id="svg2" width="192" height="192" version="1.1" viewBox="0 0 192 192"><metadata id="metadata7"/><g id="layer1" transform="translate(0,-860.36216)"><g id="g1529" transform="translate(0,-1e-5)"><path id="path86-3" d="m 184.5,956.36214 c 0,48.87696 -39.62311,88.50006 -88.5,88.50006 -48.87717,0 -88.5,-39.6231 -88.5,-88.50006 0,-48.87717 39.62283,-88.5 88.5,-88.5 48.87689,0 88.5,39.62283 88.5,88.5" vector-effect="none" style="fill:#fff;fill-opacity:1;fill-rule:evenodd;stroke:none;stroke-width:.691406;stroke-linecap:square;stroke-linejoin:bevel"/><path style="fill:#fe837e;fill-opacity:1;fill-rule:evenodd;stroke:none;stroke-width:1.5232;stroke-linecap:square;stroke-linejoin:bevel" id="path1518" d="m 69.195925,919.86217 c -0.74274,0.003 -2.70705,1.38479 -4.70312,3.38086 -2.28122,2.28122 -3.75961,4.4767 -3.29492,4.9414 l 28.9375,28.30469 v 35.18943 c 0,0.6337 2.87171,1.1414 5.87109,1.1836 3.12613,-0.042 5.873045,-0.5499 5.873045,-1.1836 v -35.18943 l 28.9375,-28.30469 c 0.42244,-0.4647 -1.0977,-2.66018 -3.37891,-4.9414 -2.28122,-2.28122 -4.47866,-3.75962 -4.94336,-3.29493 L 95.965455,945.84459 69.436165,919.9481 c -0.05281,-0.0581 -0.13413,-0.0864 -0.24024,-0.0859 z"/></g></g><style id="style853" type="text/css"/></svg>