<svg xmlns="http://www.w3.org/2000/svg" xmlns:svg="http://www.w3.org/2000/svg" id="svg2" width="192" height="192" version="1.1" viewBox="0 0 192 192"><defs id="defs4"><style id="style924" type="text/css">.fil1,.fil2{fill:#3c3c3b;fill-rule:nonzero}.fil2{fill:#e52d2f}</style></defs><metadata id="metadata7"/><g id="layer1" transform="translate(0,-860.36216)"><path style="clip-rule:evenodd;fill:#56595b;fill-opacity:1;stroke-width:.71183;image-rendering:optimizeQuality;shape-rendering:geometricPrecision;text-rendering:geometricPrecision" id="path1009" d="m 98.564453,888.38304 c -7.118305,0 -14.236609,0.71184 -21.354914,2.84732 l 19.931253,10.67747 c 0.711836,0 1.423661,0 1.423661,0 32.032367,0 57.658257,25.62588 57.658257,57.65826 0,32.03236 -25.62589,57.65821 -57.658257,57.65821 -31.32054,0 -57.658261,-25.62585 -57.658261,-57.65821 0,-0.71184 0.711837,-1.42366 0.711837,-2.1355 L 30.940566,937.49934 c -2.135485,7.1183 -3.559146,14.23661 -3.559146,22.06675 0,39.15067 32.032364,71.18301 71.183033,71.18301 39.862507,0 71.894867,-32.03234 71.894867,-71.18301 0,-39.15067 -32.03236,-71.18305 -71.894867,-71.18305 z" class="fil1"/><path style="clip-rule:evenodd;fill:#56595b;fill-opacity:1;stroke-width:.71183;image-rendering:optimizeQuality;shape-rendering:geometricPrecision;text-rendering:geometricPrecision" id="path1011" d="m 137.0033,959.56609 c 0,20.64307 -17.08393,37.72701 -38.438847,37.72701 -4.270983,0 -8.541966,-0.71184 -12.812948,-2.13549 l 7.118304,-41.998 41.286171,-6.40647 c 1.42366,3.55915 2.84732,8.54196 2.84732,12.81295 z" class="fil1"/><path style="clip-rule:evenodd;fill:#ff837d;fill-opacity:1;stroke-width:.71183;image-rendering:optimizeQuality;shape-rendering:geometricPrecision;text-rendering:geometricPrecision" id="path1013" d="m 28.093244,901.90783 c 14.948446,31.32052 46.268973,86.13148 46.268973,86.13148 l 6.40648,-46.98081 46.980803,-6.40648 c 0,0 -54.810944,-30.60871 -86.131471,-45.55714 -11.389288,-5.69464 -14.948446,-9.2538 -18.507592,-5.69464 -3.559158,3.55914 -0.711837,7.1183 4.982807,18.50759 z" class="fil2"/></g><style id="style853" type="text/css"/><style id="style853-9" type="text/css"/><style id="style853-3" type="text/css"/></svg>