<svg xmlns="http://www.w3.org/2000/svg" xmlns:svg="http://www.w3.org/2000/svg" id="svg2" width="192" height="192" version="1.1" viewBox="0 0 192 192"><metadata id="metadata7"/><g id="layer1" transform="translate(0,-860.36216)"><rect id="rect1453" width="152" height="152" x="20" y="880.362" rx="9.935" ry="9.935" style="fill:#8c72bd;fill-opacity:1;fill-rule:evenodd;stroke:none;stroke-width:.993464;stroke-opacity:1"/><path style="fill:#99bdfe;fill-opacity:1;stroke-width:.301886" id="path1465" d="m 71.212283,961.13811 c -7.486759,0 -13.554668,6.06791 -13.554668,13.58486 0,7.03394 5.313192,12.79995 12.165997,13.4943 v -9.84148 c -1.479239,-0.57359 -2.505656,-1.99245 -2.505656,-3.65282 0,-2.14339 1.750939,-3.89433 3.894327,-3.89433 2.143395,0 3.894334,1.75094 3.894334,3.89433 0,1.66037 -1.056604,3.07923 -2.505656,3.65282 v 9.87167 c 6.822619,-0.69435 12.16599,-6.46036 12.16599,-13.4943 -0.03017,-7.51696 -6.067901,-13.61505 -13.554668,-13.61505 z" class="st6"/><text id="text1469" x="33.822" y="950.793" xml:space="preserve" style="font-weight:700;font-size:51.5997px;line-height:1.25;font-family:Now;-inkscape-font-specification:'Now Bold';letter-spacing:0;word-spacing:0;fill:#fff;fill-opacity:1;stroke-width:1.28999"><tspan style="fill:#fff;fill-opacity:1;stroke-width:1.28999" id="tspan1467" x="33.822" y="950.793">yono</tspan></text><text id="text1473" x="87.063" y="987.895" xml:space="preserve" style="font-weight:700;font-size:35.2069px;line-height:1.25;font-family:Now;-inkscape-font-specification:'Now Bold';letter-spacing:0;word-spacing:0;fill:#fff;fill-opacity:1;stroke-width:.880175"><tspan style="fill:#fff;fill-opacity:1;stroke-width:.880175" id="tspan1471" x="87.063" y="987.895">SBI</tspan></text></g><style id="style853" type="text/css"/><style id="style853-9" type="text/css"/><style id="style853-3" type="text/css"/><style id="style923" type="text/css">.st6{fill:#00a9e0}</style></svg>