<svg xmlns="http://www.w3.org/2000/svg" xmlns:svg="http://www.w3.org/2000/svg" id="svg2" width="192" height="192" version="1.1" viewBox="0 0 192 192"><metadata id="metadata7"/><g id="layer1" transform="translate(0,-860.36216)" style="display:inline"><rect style="opacity:1;fill:#56595b;fill-opacity:1;fill-rule:evenodd;stroke:none;stroke-width:1.00679;stroke-opacity:1" id="rect964" width="128" height="176" x="892.362" y="-184" rx="10.079" ry="10.057" transform="rotate(90)"/><path id="path10358" d="m 83.472562,943.57725 a 2.3647979,2.6443109 0 0 0 -2.420131,2.64309 v 20.69584 a 2.3647979,2.6443109 0 0 0 3.546856,2.28987 l 16.028483,-10.34792 a 2.3647979,2.6443109 0 0 0 0,-4.57958 L 84.599287,943.93063 a 2.3647979,2.6443109 0 0 0 -1.126725,-0.35338 z" style="color:#000;font-style:normal;font-variant:normal;font-weight:400;font-stretch:normal;font-size:medium;line-height:normal;font-family:sans-serif;text-indent:0;text-align:start;text-decoration:none;text-decoration-line:none;text-decoration-style:solid;text-decoration-color:#000;letter-spacing:normal;word-spacing:normal;text-transform:none;writing-mode:lr-tb;direction:ltr;baseline-shift:baseline;text-anchor:start;white-space:normal;clip-rule:nonzero;display:inline;overflow:visible;visibility:visible;isolation:auto;mix-blend-mode:normal;color-interpolation:sRGB;color-interpolation-filters:linearRGB;solid-color:#000;solid-opacity:1;fill:#ff837d;fill-opacity:1;fill-rule:nonzero;stroke:none;stroke-width:32.8509;stroke-linecap:round;stroke-linejoin:round;stroke-miterlimit:4;stroke-dasharray:none;stroke-dashoffset:0;stroke-opacity:1;color-rendering:auto;image-rendering:auto;shape-rendering:auto;text-rendering:auto;enable-background:accumulate"/><path style="color:#000;font-style:normal;font-variant:normal;font-weight:400;font-stretch:normal;font-size:medium;line-height:normal;font-family:sans-serif;text-indent:0;text-align:start;text-decoration:none;text-decoration-line:none;text-decoration-style:solid;text-decoration-color:#000;letter-spacing:normal;word-spacing:normal;text-transform:none;writing-mode:lr-tb;direction:ltr;baseline-shift:baseline;text-anchor:start;white-space:normal;clip-rule:nonzero;display:inline;overflow:visible;visibility:visible;isolation:auto;mix-blend-mode:normal;color-interpolation:sRGB;color-interpolation-filters:linearRGB;solid-color:#000;solid-opacity:1;fill:none;fill-opacity:1;fill-rule:nonzero;stroke:#fff;stroke-width:6.65075;stroke-linecap:round;stroke-linejoin:round;stroke-miterlimit:4;stroke-dasharray:none;stroke-dashoffset:0;stroke-opacity:1;color-rendering:auto;image-rendering:auto;shape-rendering:auto;text-rendering:auto;enable-background:accumulate" id="path10360" d="m 115.09621,953.33765 c 2.15438,1.49305 4.30879,2.9861 6.46317,4.47915 l -5.72168,3.55226 -35.661315,21.9224 33.371365,-20.78453 3.9e-4,-3.9e-4 c 3.93243,-2.37071 3.98169,-7.6624 0,-10.03311 h -3.9e-4 L 80.521987,929.42988 Z"/></g></svg>