<svg xmlns="http://www.w3.org/2000/svg" xmlns:xlink="http://www.w3.org/1999/xlink" id="Layer_1" width="192" height="192" x="0" y="0" enable-background="new 0 0 192 192" version="1.1" viewBox="0 0 192 192" xml:space="preserve"><g><circle cx="96.667" cy="96.667" r="90.054" fill="#B1B5BD"/><path fill="#C5CBD3" d="M131.312,13.522c-10.665-4.449-22.366-6.91-34.645-6.91c-49.736,0-90.055,40.319-90.055,90.055 c0,37.923,23.442,70.365,56.624,83.641L131.312,13.522z"/><circle cx="96.667" cy="96.667" r="54.033" fill="#616468"/><g><g><circle cx="96.667" cy="24.958" r="7.672" fill="#E6EAED"/><circle cx="96.667" cy="169.046" r="7.672" fill="#E6EAED"/><circle cx="168.711" cy="97.002" r="7.672" fill="#E6EAED"/><circle cx="24.623" cy="97.002" r="7.672" fill="#E6EAED"/><circle cx="147.609" cy="46.059" r="7.672" fill="#E6EAED"/><circle cx="45.724" cy="147.944" r="7.671" fill="#E6EAED"/><circle cx="45.724" cy="46.059" r="7.672" fill="#E6EAED"/><circle cx="147.609" cy="147.944" r="7.671" fill="#E6EAED"/></g></g><polygon fill="#90DC9F" points="110.342 66.316 98.335 94.333 87.328 66.316 68.317 66.316 88.605 117.036 80.324 136.359 100.336 136.359 128.353 66.316"/></g></svg>