<svg xmlns="http://www.w3.org/2000/svg" xmlns:svg="http://www.w3.org/2000/svg" id="svg2" width="192" height="192" version="1.1" viewBox="0 0 192 192"><metadata id="metadata7"/><g id="layer1" transform="translate(0,-860.36216)"><path style="color:#000;font-style:normal;font-variant:normal;font-weight:400;font-stretch:normal;font-size:medium;line-height:normal;font-family:sans-serif;font-variant-ligatures:normal;font-variant-position:normal;font-variant-caps:normal;font-variant-numeric:normal;font-variant-alternates:normal;font-variant-east-asian:normal;font-feature-settings:normal;font-variation-settings:normal;text-indent:0;text-align:start;text-decoration:none;text-decoration-line:none;text-decoration-style:solid;text-decoration-color:#000;letter-spacing:normal;word-spacing:normal;text-transform:none;writing-mode:lr-tb;direction:ltr;text-orientation:mixed;dominant-baseline:auto;baseline-shift:baseline;text-anchor:start;white-space:normal;shape-padding:0;shape-margin:0;inline-size:0;clip-rule:nonzero;display:inline;overflow:visible;visibility:visible;isolation:auto;mix-blend-mode:normal;color-interpolation:sRGB;color-interpolation-filters:linearRGB;solid-color:#000;solid-opacity:1;vector-effect:none;fill:#f8c18c;fill-opacity:1;fill-rule:nonzero;stroke:none;stroke-width:17.264;stroke-linecap:square;stroke-linejoin:round;stroke-miterlimit:4;stroke-dasharray:none;stroke-dashoffset:0;stroke-opacity:1;color-rendering:auto;image-rendering:auto;shape-rendering:auto;text-rendering:auto;enable-background:accumulate;stop-color:#000" id="path958" d="m 98.970996,906.24483 c -4.081845,-3.96839 -10.819854,-2.96854 -13.573471,2.01412 l -12.18407,22.05021 20.752891,21.67163 c 1.484423,1.55064 1.432754,3.99346 -0.117691,5.47815 -1.550357,1.48458 -3.994926,1.43123 -5.479559,-0.11915 l -19.082615,-19.92675 -24.258997,43.90045 11.465929,11.97485 c 1.484413,1.55066 1.43123,3.99199 -0.119199,5.47667 -1.550364,1.48469 -3.993413,1.43269 -5.478053,-0.11762 l -9.794203,-10.22844 -15.956729,28.87735 c -2.345269,4.2443 -1.149828,9.8725 1.904016,12.8422 3.053853,2.9701 8.714559,4.0096 12.891871,1.5469 L 94.146711,999.7278 81.257409,986.26853 c -1.484413,-1.55064 -1.431322,-3.99488 0.119054,-5.47947 1.550425,-1.48468 3.994995,-1.43134 5.479637,0.11895 l 14.15064,14.77727 46.25035,-27.26722 c 4.904,-2.89143 5.71569,-9.65466 1.63511,-13.62431 z"/><path style="fill:#97db99;fill-opacity:1;stroke:none;stroke-width:1.09466" id="path991" fill="#3acf6b" fill-rule="nonzero" d="m 152.58227,880.20011 v 0 c 2.42403,1.2351 3.38785,4.20142 2.15274,6.62545 l -16.71669,32.80834 -5.50177,6.70253 -5.97121,-5.88639 19.41149,-38.0972 c 1.2351,-2.42402 4.20142,-3.38784 6.62544,-2.15273 z"/><path style="fill:#97db99;fill-opacity:1;stroke:none;stroke-width:1.09466" id="path993" fill="#3acf6b" fill-rule="nonzero" d="m 167.84715,909.87523 v 0 c 0.84069,2.5874 -0.57529,5.36641 -3.16269,6.20711 l -32.02702,10.40622 -2.18649,-9.64856 31.16909,-10.12745 c 2.58739,-0.8407 5.36641,0.57528 6.20711,3.16268 z"/></g><style id="style853" type="text/css"/></svg>