<svg xmlns="http://www.w3.org/2000/svg" xmlns:svg="http://www.w3.org/2000/svg" id="svg2" width="192" height="192" version="1.1" viewBox="0 0 192 192"><defs id="defs4"><style id="style909">.cls-2{fill:#0bf}.cls-3{fill:#fd0}.cls-4{fill:#6f3}.cls-5{fill:#ff0096}</style></defs><metadata id="metadata7"/><g id="layer1" transform="translate(0,-860.36216)"><path style="fill:#d3b69a;fill-opacity:1;stroke-width:.968095" id="path975" d="m 93.483027,1044.3621 h 4.937284 a 12.769173,12.769173 0 0 0 12.778859,-12.7789 v -22.1694 H 80.704173 v 22.1694 a 12.769173,12.769173 0 0 0 12.778854,12.7789 z" class="cls-2"/><path style="fill:#f9de81;fill-opacity:1;stroke-width:.968095" id="path977" d="m 96.000074,868.36238 c -29.430088,0 -53.245225,20.62042 -53.245225,46.17813 v 63.31341 L 118.94393,872.91243 a 59.508799,59.508799 0 0 0 -22.943856,-4.55005 z" class="cls-3"/><path style="fill:#97db99;fill-opacity:1;stroke-width:.968095" id="path979" d="m 80.704173,1009.4138 h 56.149507 a 12.33353,12.33353 0 0 0 12.29481,-12.39159 v -81.90084 z" class="cls-4"/><path style="fill:#ffb0ac;fill-opacity:1;stroke-width:.968095" id="path981" d="m 149.2453,914.54051 c 0,-18.3938 -12.39162,-34.17375 -30.30137,-41.62808 L 42.754849,977.75712 v 19.16828 a 12.33353,12.33353 0 0 0 12.294807,12.3916 H 80.704173 L 149.2453,915.02456 Z" class="cls-5"/></g><style id="style853" type="text/css"/><style id="style853-9" type="text/css"/><style id="style853-3" type="text/css"/></svg>