<svg xmlns="http://www.w3.org/2000/svg" xmlns:svg="http://www.w3.org/2000/svg" id="svg22" width="192" height="192" version="1.1" viewBox="0 0 192 192"><metadata id="metadata28"/><g style="fill:#98dc9a;fill-opacity:1;opacity:1;stroke-width:0;stroke-miterlimit:4;stroke-dasharray:none" id="g20" fill="none" fill-rule="evenodd" stroke="#B1B5BD" opacity=".63" transform="translate(8 8)"><circle style="fill:#98dc9a;fill-opacity:1;stroke-width:0;stroke-miterlimit:4;stroke-dasharray:none" id="circle12" cx="88" cy="88" r="88"/></g><g style="display:inline" id="layer2"><path id="path209" d="M 21.769445,118.19864 C 16.33902,113.37342 22.909193,107.25192 26.031338,103.30651 31.260154,96.711547 36.657846,89.835765 41.764902,83.146 H 19.5 c 0.435716,-4.499695 3.107742,-10.187104 8.343415,-9.88 h 27.020657 c 6.043746,4.606823 -0.767452,11.785139 -3.966754,15.79516 -5.232225,6.664007 -10.661359,13.39322 -15.794281,20.13384 h 22.433265 c -0.323635,5.47963 -5.199339,10.43792 -10.757922,10.079 H 22.88631 Z M 63.84636,96.170347 V 73.26551 h 10.778746 c -0.140312,12.748899 0.324904,25.523807 -0.393532,38.25163 -1.052589,4.5126 -5.793293,8.03263 -10.385214,7.75665 z m 30.98889,4.940263 V 83.146 H 83.901 c -1.067575,0.07772 -1.999903,-0.998222 -2.015,-2 v -5.88 c 0.171573,-1.481542 0.347316,-1.799074 2,-2 10.454998,-0.05599 25.34252,0.0126 35.20145,0 0.27822,3.574147 -0.36157,8.803873 -4.44104,9.88 h -9.0324 v 36.12779 H 94.83525 V 101.11062 Z M 142.441,99.599 123.12946,73.266 H 133.502 c 0,0 1.37718,0.19039 1.94942,0.455961 0.57224,0.265571 1.20305,0.907364 1.20305,0.907364 L 147.831,87.850766 158.77656,74.867808 c 0,0 0.68095,-0.858122 1.29986,-1.145847 C 160.69533,73.434236 162.127,73.266 162.127,73.266 H 172.5 l -19.28,26.333 v 19.67461 l -10.779,1.7e-4 z" style="fill:#fff;fill-opacity:1;stroke-width:.449115"/></g></svg>