<svg xmlns="http://www.w3.org/2000/svg" xmlns:svg="http://www.w3.org/2000/svg" id="Layer_1" width="192" height="192" x="0" y="0" enable-background="new 0 0 192 192" version="1.1" viewBox="0 0 192 192" xml:space="preserve"><metadata id="metadata17"/><rect style="opacity:1;fill:#99bef9;fill-opacity:1;fill-rule:evenodd;stroke:none;stroke-width:.999999;stroke-opacity:1" id="rect971" width="153" height="153" x="19.5" y="19.5" rx="10" ry="10"/><g id="g8" transform="matrix(0.84210526,0,0,0.84210526,14.736842,15.622737)" style="stroke-width:1.1875"><path id="path4" fill="#fff" d="M 100.754,68.896 56.612,69 H 54.6 c 0,0 -5.6,-0.206 -5.6,5.384 v 32.423 c 0,0 0.257,15.172 16.356,15.172 L 109.607,122 h 2.068 c 0,0 5.324,-0.044 5.324,-5.634 V 83.943 c 0.001,0 -0.145,-15.047 -16.245,-15.047 z" style="stroke-width:1.26764"/><path id="path6" fill="#fff" d="m 141.897,69.409 c -2.013,-1.006 -4.224,0.727 -4.224,0.727 -4.099,3.541 -8.193,7.087 -12.299,10.618 -2.338,2.011 -4.027,4.181 -4.027,7.438 l -0.012,14.444 c 0,3.258 1.679,5.428 4.017,7.438 4.106,3.53 8.178,7.077 12.275,10.617 0,0 2.257,1.733 4.269,0.728 2.013,-1.007 2.104,-2.684 2.104,-3.857 V 73.266 c 0,-1.174 -0.091,-2.851 -2.103,-3.857 z" style="stroke-width:1.26764"/></g></svg>